<?xml version="1.0" encoding="UTF-8"?>
<svg id="Layer_1" data-name="Layer 1" xmlns="http://www.w3.org/2000/svg" viewBox="0 0 1000 1000">
  <defs>
    <style>
      .cls-1 {
        fill: #322f51;
      }

      .cls-2 {
        fill: #43b3d7;
      }
    </style>
  </defs>
  <path class="cls-2" d="M624.87,173.91l-116.37,52.09c-4.95,2.21-7.17,8.02-4.96,12.97.99,2.21,2.75,3.97,4.96,4.96l86.91,38.62,17.15,7.62c2.55,1.14,5.45,1.14,8,0l46.65-20.88,19.61-8.79c3.55-1.58,5.83-5.11,5.81-9v-92.79c.03-5.42-4.34-9.83-9.76-9.86-1.4,0-2.79.29-4.07.86l-23.66,10.59-30.27,13.61Z"/>
  <path class="cls-2" d="M610.05,841v3.15c-.02,5.42,4.36,9.84,9.78,9.86,1.39,0,2.77-.29,4.05-.86l6.69-3,51-22.85,159.31-71.3c3.54-1.59,5.81-5.12,5.8-9v-260.47c.02-5.42-4.36-9.84-9.78-9.86-1.39,0-2.77.29-4.05.86l-34.85,15.67-32.74,14.65-9.33,4.15-32.73,14.67-41.6,18.62-32.74,14.71-72,32.23-40.15,18-39.48,17.68c-4.95,2.21-7.18,8.01-4.97,12.97.99,2.22,2.76,3.99,4.97,4.97l19.62,8.71,40.21,17.87,47.14,20.94c3.55,1.58,5.84,5.11,5.83,9v138.63h.02Z"/>
  <path class="cls-2" d="M656.8,309.82l-40.15,18-65.57,29.35-59.72,26.74-36.76,16.44c-4.95,2.21-7.17,8.02-4.96,12.97.99,2.21,2.75,3.97,4.96,4.96l127.67,56.72,40.21,17.87,44.23,19.65c2.55,1.14,5.45,1.14,8,0l48.49-21.72,32.73-14.66,3.49-1.56c3.54-1.59,5.82-5.12,5.8-9v-189.14c.03-5.42-4.34-9.83-9.76-9.86-1.4,0-2.79.29-4.07.86l-26,11.63-32.73,14.66-35.86,16.09Z"/>
  <path class="cls-1" d="M563.51,993.1c4.96,2.2,10.76-.03,12.96-4.98.56-1.26.85-2.63.85-4.02v-260.55c.01-3.89-2.28-7.42-5.83-9l-54.56-24.25-40.21-17.86-23.49-10.44-32.73-14.51-48.74-21.66-23.22-10.32-9.54-4.22-30.69-13.64-9.14-4.06-32.73-14.54-41.61-18.49-32.7-14.56-25-11.12c-4.96-2.2-10.76.04-12.96,5-.56,1.26-.85,2.62-.84,4v260.58c-.01,3.89,2.27,7.42,5.83,9l261.34,116.09,56.63,25.17,86.38,38.38Z"/>
  <path class="cls-1" d="M266.47,370.49l-27.8-12.35c-4.96-2.2-10.76.03-12.96,4.98-.56,1.26-.85,2.63-.85,4.02v151.22c-.01,3.89,2.28,7.42,5.83,9l35.78,15.9,32.73,14.54,39.8,17.67,9.46,4.2,23.3,10.33,16.93,7.52,44.23,19.65c2.55,1.14,5.45,1.14,8,0l55.59-24.88,40.15-18,73.81-33.05c4.95-2.21,7.18-8.01,4.97-12.97-.99-2.22-2.76-3.99-4.97-4.97l-28.12-12.49-40.23-17.81-147.76-65.68-40.21-17.87-54.95-24.45-32.73-14.51Z"/>
  <path class="cls-1" d="M338.17,204.06l-25.17-11.18c-4.96-2.2-10.76.03-12.96,4.98-.56,1.26-.85,2.63-.85,4.02v141c-.01,3.89,2.28,7.42,5.83,9l85.28,37.82c2.55,1.14,5.45,1.14,8,0l64.72-29,33.42-15,37.88-17,26.36-11.7c3.89-1.73,5.63-6.28,3.9-10.17-.77-1.74-2.17-3.13-3.9-3.9l-112.42-49.93-40.21-17.87-39.64-17.63-30.24-13.44Z"/>
  <path class="cls-1" d="M396.47,194.15l47.73,21.21c2.55,1.14,5.45,1.14,8,0l143.62-64.3c4.96-2.21,7.19-8.02,4.98-12.98-.23-.51-.49-.99-.8-1.45l-84.35-126.22c-3.01-4.51-9.11-5.72-13.62-2.71-1.14.76-2.11,1.75-2.84,2.91l-107,169.32c-2.91,4.57-1.56,10.64,3.02,13.54.4.26.83.48,1.26.68Z"/>
</svg>