<?xml version="1.0" encoding="UTF-8"?>
<svg id="Layer_1" data-name="Layer 1" xmlns="http://www.w3.org/2000/svg" viewBox="0 0 300 100">
  <defs>
    <style>
      .cls-1 {
        fill-rule: evenodd;
      }

      .cls-1, .cls-2 {
        fill: #fff;
      }

      .cls-3 {
        fill: #ed1c24;
      }

      .cls-4 {
        fill: #21409a;
      }
    </style>
  </defs>
  <g>
    <path class="cls-1" d="M54.41,58.67l-29.09-15.51,1.48-.79-2.82-1.5-1.48.79v8.34l31.91,17.01,31.94-17.01v-3.01l-31.94,17.01-14.5-7.74v-2.3l14.5,7.74v-3.04ZM54.41,28.18l4.93,2.63-14.75,7.85,2.46,1.31,14.75-7.85,12.29,6.54-19.68,10.47-4.9-2.63,14.72-7.85-2.44-1.31-14.75,7.88-12.29-6.56,19.65-10.47ZM54.41,21.64l-31.91,17.01,31.91,17.01,31.94-17.01-31.94-17.01ZM54.41,70.02l-29.09-15.51,1.48-.79-2.82-1.5-1.48.79v8.34l31.91,17.01,31.94-17.01v-3.01l-31.94,17.01-17.84-9.52v-2.3l17.84,9.52v-3.04ZM34.43,62.39l-2.13-1.12v2.3l2.13,1.12v-2.3ZM33.53,50.57l-2.13-1.15v2.3l2.13,1.15v-2.3ZM37.77,52.84l-2.13-1.15v2.3l2.13,1.15v-2.3Z"/>
    <path class="cls-2" d="M112.73,65.97c-1.69,0-3.18-.27-4.46-.82-1.26-.54-2.26-1.29-3-2.23-.72-.97-1.13-2.12-1.24-3.43h4.64c.11.77.53,1.4,1.24,1.89.72.46,1.66.69,2.83.69h1.85c1.4,0,2.46-.29,3.18-.86.72-.57,1.07-1.33,1.07-2.27s-.33-1.63-.99-2.15c-.63-.54-1.57-.9-2.83-1.07l-3.05-.47c-2.52-.4-4.38-1.12-5.58-2.15-1.17-1.06-1.76-2.62-1.76-4.68,0-2.17.7-3.85,2.1-5.02,1.43-1.2,3.53-1.8,6.31-1.8h1.63c2.46,0,4.42.57,5.88,1.72,1.49,1.12,2.33,2.62,2.53,4.51h-4.64c-.11-.69-.5-1.24-1.16-1.67-.63-.43-1.5-.64-2.62-.64h-1.63c-1.34,0-2.33.26-2.96.77-.6.49-.9,1.22-.9,2.19,0,.86.27,1.5.82,1.93.54.43,1.39.73,2.53.9l3.13.52c2.66.37,4.61,1.12,5.84,2.23,1.26,1.09,1.89,2.68,1.89,4.76,0,2.26-.74,4.02-2.23,5.28-1.46,1.26-3.65,1.89-6.57,1.89h-1.85ZM142.67,65.59c-1.46,0-2.73-.29-3.82-.86-1.09-.6-1.95-1.45-2.58-2.53-.6-1.09-.9-2.35-.9-3.78v-19.96h-7.73v-4.21h12.36v24.17c0,.92.26,1.65.77,2.19.52.52,1.22.77,2.1.77h7.3v4.21h-7.51ZM162.66,66.01c-2.46,0-4.41-.63-5.84-1.89-1.4-1.29-2.1-3.03-2.1-5.24s.74-3.98,2.23-5.24c1.52-1.29,3.59-1.93,6.22-1.93h6.57v-2.19c0-1.29-.4-2.29-1.2-3-.8-.72-1.93-1.07-3.39-1.07-1.29,0-2.36.29-3.22.86-.86.54-1.36,1.27-1.5,2.19h-4.55c.26-2.12,1.23-3.81,2.92-5.07,1.72-1.26,3.88-1.89,6.48-1.89,2.8,0,5.02.72,6.65,2.15,1.63,1.4,2.45,3.32,2.45,5.75v16.14h-4.51v-4.34h-.77l.77-.86c0,1.72-.66,3.09-1.97,4.12-1.32,1-3.06,1.5-5.24,1.5ZM164.03,62.45c1.66,0,3.02-.41,4.08-1.24,1.09-.86,1.63-1.95,1.63-3.26v-3.09h-6.48c-1.2,0-2.16.33-2.88.99-.69.66-1.03,1.56-1.03,2.7,0,1.2.41,2.16,1.24,2.88.83.69,1.97,1.03,3.43,1.03ZM193.33,65.59c-2.15,0-3.82-.59-5.02-1.76-1.2-1.17-1.8-2.8-1.8-4.89v-12.75h-6.52v-4.21h6.52v-6.65h4.64v6.65h9.23v4.21h-9.23v12.75c0,1.63.79,2.45,2.36,2.45h6.44v4.21h-6.61ZM216.5,66.01c-1.92,0-3.61-.37-5.07-1.12-1.43-.77-2.53-1.85-3.31-3.22-.77-1.37-1.16-2.98-1.16-4.81v-6.18c0-1.86.39-3.46,1.16-4.81.77-1.37,1.87-2.43,3.31-3.18,1.46-.77,3.15-1.16,5.07-1.16s3.63.39,5.07,1.16c1.43.74,2.53,1.8,3.31,3.18.77,1.34,1.16,2.95,1.16,4.81v4.21h-14.59v1.97c0,1.75.43,3.08,1.29,3.99.89.92,2.16,1.37,3.82,1.37,1.34,0,2.43-.23,3.26-.69.83-.49,1.34-1.19,1.55-2.1h4.59c-.34,2-1.37,3.61-3.09,4.81-1.72,1.17-3.83,1.76-6.35,1.76ZM221.56,52.11v-1.46c0-1.72-.43-3.05-1.29-3.99s-2.12-1.42-3.78-1.42-2.89.47-3.78,1.42c-.86.94-1.29,2.29-1.29,4.03v1.07l10.47-.04-.34.39ZM240.56,66.01c-2.38,0-4.28-.8-5.71-2.4-1.43-1.6-2.15-3.76-2.15-6.48v-6.65c0-2.75.72-4.92,2.15-6.52,1.43-1.6,3.33-2.4,5.71-2.4,1.95,0,3.49.54,4.64,1.63,1.14,1.06,1.72,2.52,1.72,4.38l-.99-1.07h1.07l-.13-5.49v-6.74h4.64v31.33h-4.59v-4.51h-.99l.99-1.07c0,1.86-.57,3.33-1.72,4.42-1.14,1.06-2.69,1.59-4.64,1.59ZM242.15,61.98c1.46,0,2.6-.44,3.43-1.33.86-.92,1.29-2.17,1.29-3.78v-6.18c0-1.6-.43-2.85-1.29-3.73-.83-.92-1.97-1.37-3.43-1.37s-2.7.44-3.56,1.33c-.86.86-1.29,2.12-1.29,3.78v6.18c0,1.66.43,2.93,1.29,3.82.86.86,2.05,1.29,3.56,1.29ZM269.64,66.01c-1.95,0-3.49-.53-4.64-1.59-1.14-1.09-1.72-2.56-1.72-4.42l.99,1.07h-.99v4.51h-4.59v-31.33h4.64v6.74l-.13,5.49h1.07l-.99,1.07c0-1.86.57-3.32,1.72-4.38,1.17-1.09,2.72-1.63,4.64-1.63,2.38,0,4.28.8,5.71,2.4,1.43,1.6,2.15,3.78,2.15,6.52v6.65c0,2.72-.72,4.88-2.15,6.48s-3.33,2.4-5.71,2.4ZM268.06,61.98c1.52,0,2.7-.43,3.56-1.29.86-.89,1.29-2.16,1.29-3.82v-6.18c0-1.66-.43-2.92-1.29-3.78-.86-.89-2.05-1.33-3.56-1.33s-2.62.46-3.48,1.37c-.83.89-1.24,2.13-1.24,3.73v6.18c0,1.6.41,2.86,1.24,3.78.86.89,2.02,1.33,3.48,1.33Z"/>
  </g>
  <g>
    <path class="cls-3" d="M66.16,27.03c3.74-.64,6.21-.28,7.42,1.1-.14,1.08-3.95,27.21-4.25,28.47-.57,2.55-.75,4.94-3.1,6.36-3.25,1.71-8.14,2.84-10.89,3.31-.84.14-1.47.23-1.81.24l-6.01,1.22c-.23.06-.73.17-1.41.28-2.2.38-6.26.82-9.32-.29-3.21-1.03-1.8-6.16-1.69-7.07l.87-4.89c.11-1.1,3.52-3.32,7.62-4.21.18-.04.35-.07.52-.1,4.65-.8,6.01,1.86,5.69,3.75-.1.64-.19,1.28-.27,1.91,2.08-.54,4.08-1.05,6-1.52l1.01-5.38h0c-.21.03,1.89-10.99,1.98-11.01.98-5.4,1.55-8.45,1.73-9.16.26-1.37,2.24-2.37,5.92-3.01"/>
    <path class="cls-4" d="M46.33,69.27c-2.28.39-6.6.87-9.95-.34-1.19-.39-2.66-1.42-2.92-4.13-.14-1.51.14-3.05.3-3.89-5.51,1.43-8.32,2.19-8.41,2.26-.12.18-.19.39-.2.61l-.05.49v.04c.2,1.17,1.33,2.62,3.4,4.35,1.66,1.42,2.65,2.1,3,2.04.06,0,.1-.05.11-.11v-.04c.55-.02,1.1-.09,1.64-.2-.83,4.2-1.46,6.89-1.87,8.07-.01.09-.03.18-.04.27l-.02.13c.16.98,2.69,1.04,7.58.19,4.17-.72,6.34-1.73,6.53-3.02.43-1.23,1.02-3.54,1.76-6.92-.25.06-.54.12-.87.18Z"/>
    <path class="cls-4" d="M31.49,55.02c.06,0,.08-.06.06-.14.58-.05,1.83-.24,3.76-.56.66-.75,1.45-1.37,2.33-1.84,1.77-1.01,3.68-1.74,5.68-2.17.19-.04.39-.08.58-.11,3.25-.56,5.02.41,5.94,1.33.16.16.31.34.44.52.04-.23.07-.45.11-.67l4.81-.97.05-.24c0-.45.16-1.63.95-5.87.24-1.31.5-2.66.7-3.68.1-.49.18-.88.24-1.17-1.63.38-3.32.79-5.07,1.22.74-4.89,1.19-7.98,1.35-9.27-1.23-1.35-3.72-1.7-7.46-1.05-3.68.64-5.65,1.64-5.92,3.01-.22.77-.9,4.36-2.03,10.76-8.37,2.1-12.63,3.22-12.79,3.36-.12.18-.19.39-.2.61l-.04.27v.31c.2,1.17,1.33,2.61,3.39,4.31,1.72,1.43,2.76,2.12,3.1,2.07Z"/>
    <path class="cls-4" d="M76.73,51.82c-.16-.32-1.96-.2-5.38.34-.39,2.53-.67,4.34-.76,4.71-.07.32-.14.65-.2.96-.39,1.92-.8,3.89-2.39,5.38,6.92-1.69,10.96-2.9,12.12-3.63.8-.49,1.23-1.05,1.3-1.68v-.26l-.04-.21c-.13-.77-.88-1.8-2.25-3.09-1.4-1.32-2.2-2.16-2.4-2.52Z"/>
    <path class="cls-4" d="M66.89,64.05l-.03.02-.03.02c-3.12,1.64-7.87,2.85-11.27,3.44-.77.13-1.44.23-1.85.26l-.49.1c-.75,3.68-1.28,6.09-1.61,7.21-.06.08-.11.18-.13.29l-.03.09c.17,1,2.71,1.08,7.62.23,4.17-.72,6.36-1.73,6.58-3.03.52-1.55,1.25-4.66,2.2-9.32-.3.26-.62.5-.96.7Z"/>
    <path class="cls-4" d="M79.06,38.63c-1.4-1.33-2.19-2.16-2.37-2.48-.14-.27-1.13-.29-2.97-.06-.46,3.18-1.01,6.88-1.51,10.27,4.28-1.11,6.88-1.95,7.8-2.5.82-.49,1.26-1.05,1.3-1.68l.06-.41c-.14-.76-.9-1.81-2.31-3.14Z"/>
    <path class="cls-4" d="M85.95,61.46c2.54.59,3.99,1.93,4.34,4.02l.02.1v.28c.02.22.02.45-.01.67-.07.64-.22,1.27-.45,1.87l-.76,1.54c-.78,1.18-1.67,2.29-2.66,3.3-1.32,1.16-2.58,1.86-3.78,2.09-.78.15-1.58.11-2.34-.12-1.7-.76-2.7-2.02-3.01-3.8v-.07c-.05-.22-.08-.44-.09-.66-.03-.29-.03-.58-.01-.88.1-1.06.49-2.07,1.11-2.94l2.14-2.86.23-.32c1.13-1.18,2.26-1.88,3.4-2.1.62-.11,1.25-.15,1.88-.14ZM86.64,40.04c.24-.91,1.37-6.16,3.39-15.75.5-1.19,2.33-2.05,5.48-2.6.67-.11,6.82-1.22,9.5-.62,1.7.38,5.72,2.32-5.33,20.19-5.1,8.25-4.51,11.85-8.38,14.22-1.22.75-3.3,1.21-5.65.83-2.9-.46-1.93-2.15-1.3-5.32,1.23-6.06,1.99-9.71,2.29-10.96Z"/>
    <path class="cls-4" d="M274.42,24.14c-.75-1.78-2.31-3.09-4.2-3.52-.8-.18-1.62-.26-2.45-.24h0s-4.19.35-5.76.65h-.04c-1.38.26-5.59,1.05-6.97,4.65l-.14.36-.07.38c-1.75,9.08-2.15,11.01-2.24,11.36v.04s-.01.05-.01.05c-.08.38-.21,1.02-.39,1.94l-1.68-1.96c-1.02-1.21-2.15-2.32-3.38-3.31h-.04c-3.02-2.37-6.09-3.61-9.14-3.71-.32-.02-.63-.03-.94-.03-4.27.06-8.46,1.2-12.18,3.31v-1.15l-.14-.54c-.39-1.47-1.34-2.73-2.63-3.52-.93-.57-1.94-.99-3.01-1.24h-.02c-1.12-.3-2.27-.46-3.43-.48-.46,0-.93.03-1.38.09-1.44.2-2.69,1.07-3.4,2.33-.22.39-.41.8-.55,1.22-.26.78-.48,1.57-.66,2.37-.29,1.25-.62,2.86-1,4.9-2.89-5.69-4.36-7.51-5.41-8.47-1.07-1.08-2.52-1.69-4.04-1.69-1.14,0-4.66,1.52-5.2,1.88-.82.57-1.51,1.33-2,2.2-.59,1.06-1.07,2.17-1.42,3.33-.39,1.2-.78,2.64-1.18,4.36-.23-.31-.48-.6-.77-.86l-.02-.02-.02-.02c-1.11-1-2.73-2.28-4.7-2.64-1.32-.24-3.63.01-3.88.05-1.9.24-3.81,1.43-6.24,3.83-1.86,1.83-4.09,4.44-6.8,7.96-.23-.36-.46-.7-.7-1.02,1.73-2.34,2.58-4.58,2.58-6.79,0-.34-.02-.68-.07-1.02-.03-.38-.1-.76-.21-1.13-.53-1.89-2.02-4.4-6.05-5.87-1.93-.73-4.77-1.05-8.92-1.05-1.85-.01-3.7.09-5.54.32.05-.57.05-1.14,0-1.71-.61-4.31-3.88-7.09-8.34-7.09-2.41,0-4.1,1.19-5.85,4.09-.36.59-.63,1.24-.79,1.92-.34,0-.7-.02-1.09-.02-.73,0-1.44.02-2.83.06h-.02c-3.1.1-5.54.58-7.46,1.47-2.59,1.21-4.3,3.26-4.84,5.78-.15.68-.23,1.37-.23,2.06,0,.31.02.63.05.95l.02.22.04.22c.04.23.1.45.17.67.47,1.75,1.63,3.23,3.21,4.11.49.27,1,.49,1.53.65-.13,1.35-.24,2.74-.32,4.16-.44,2.56-.73,4-.91,4.81-.51-.01-1.01-.11-1.49-.29-.07-.2-.15-.47-.24-.83-.19-.81-.34-1.53-.44-2.14-.03-.26-.05-.53-.06-.79.02-.16.03-.33.03-.49,0-.16,0-.33-.03-.49v-.19l-.13-.53c-.54-2.14-2.3-3.34-2.94-3.75-1.4-.99-3.07-1.54-4.78-1.56-2.92,0-5.28,1.81-6.18,4.72-.26.91-.39,1.86-.36,2.81,0,.43.02.91.06,1.41.04.85.12,1.69.24,2.5.11.73.24,1.47.41,2.18v.08c.94,3.62,2.52,5.97,4.82,7.18,1.18.69,2.38,1.39,3.55,2.07l.11.06.11.05c2.88,1.47,5.69,2.2,8.35,2.2,3.98,0,7.52-1.56,10.55-4.65.65-.65,1.24-1.54,1.89-3.29,0,.42.03.84.09,1.25l.02.17.04.16c.06.3.14.62.22.93.66,2.7,2.31,5.06,4.62,6.6,2.19,1.5,4.78,2.29,7.43,2.27.59,0,1.18-.05,1.76-.15,3.05-.39,6.04-1.12,8.93-2.16.58,1.78,1.82,3.26,3.46,4.16,1.36.78,3.01,1.25,5.06,1.45l2.47.24,1.48-1.99,2.22-2.98c.78-.39,1.59-.71,2.42-.94h.01c1.72-.54,3.51-.82,5.32-.82h.17l.02.16.11.35c.18.62.43,1.23.75,1.79l.13.23.16.21c1.25,1.66,3.23,2.5,5.87,2.5,1.79,0,3.23-.35,4.4-1.06.98-.57,2.07-1.71,2.36-3.91.06-.52.1-1.05.11-1.57.66.13,1.33.2,2,.2.76.02,1.52-.1,2.24-.34,1.91-.63,3.2-2.41,3.2-4.42v-.34c0-.18.05-1.35.85-7.02,0-.06.02-.12.02-.18,2.95,5.6,3.21,6,3.39,6.27h0c2.48,3.78,5.46,4.57,7.52,4.57,1.38.02,2.72-.39,3.85-1.18.26-.18.5-.38.73-.6.74,1.12,1.63,2.14,2.64,3.03l.04.04.04.03c1.44,1.2,3.34,2.24,5.82,3.18,2.68,1.04,5.53,1.59,8.41,1.62,2.35.03,4.68-.43,6.85-1.35,2.13-.94,4.01-2.36,5.49-4.16l.02-.02.02-.02c.2-.24.4-.52.6-.81.8,1.36,1.98,2.44,3.4,3.12l.21.1.22.08c.77.28,1.59.42,2.41.42.49,0,.98-.05,1.47-.14h.09c1.62-.34,3.2-1.24,4.69-2.67l.09-.09.09-.09c.86-.96,1.63-1.99,2.3-3.09l.15-.24.12-.26.51-1.13.09-.21.07-.21c.26-.76.43-1.55.51-2.35.04-.37.05-.74.03-1.11v-.43l-.04-.24v-.08c-.16-1.09-.55-2.13-1.14-3.06,2.58-1.76,3.45-3.99,4.38-6.36.71-1.9,1.57-3.75,2.56-5.52,2.46-4.35,4.07-7.82,4.89-10.6.92-3,.95-5.27.13-7.16Z"/>
    <path class="cls-2" d="M113.7,49.3v.42c0,.48.04.96.11,1.44.12.73.3,1.59.52,2.57.49,1.85,1.05,2.95,1.68,3.3,1.36.74,2.88,1.14,4.42,1.15,1.61,0,2.83-.56,3.67-1.68.28-.38.78-2.73,1.52-7.04.14-2.74.39-5.34.76-7.8.04-.16.05-.32.05-.49-.05-.26-.28-.39-.68-.39-.09,0-.18,0-.26.03-.29.03-.57.05-.86.05-2.06,0-3.26-.67-3.59-2.02-.03-.09-.06-.19-.08-.29-.02-.19-.02-.38-.02-.55,0-.38.04-.76.13-1.13.49-2.37,3.2-3.64,8.14-3.8,1.33-.03,2.34-.05,3.04-.05,1.66,0,2.74.11,3.26.33.95.35,1.64,1.18,1.82,2.17.24,1.15-.54,2.25-.92,2.79-.59.76-1.52,1.18-2.49,1.13-1.54,0-1.31,1.63-1.31,1.71.04.08.05.16.05.24.04.3.06.59.05.89,0,1.69-.37,4.79-1.1,9.3-1.17,5.11-2.1,8.01-2.8,8.69-2.18,2.22-4.65,3.34-7.43,3.34-1.97,0-4.09-.58-6.36-1.73-1.2-.7-2.42-1.4-3.64-2.12-1.17-.58-2.06-2.05-2.67-4.43-.14-.59-.24-1.2-.34-1.81-.11-.7-.17-1.41-.21-2.15-.03-.42-.05-.79-.05-1.13-.02-.5.03-1.01.16-1.49.33-1.1.99-1.65,1.99-1.65.84.03,1.65.31,2.32.81.66.44,1.04.83,1.13,1.18v.12s.03,0,.03.02c0,0,0,0,0,0,0,.02-.01.03-.02.04Z"/>
    <path class="cls-2" d="M196.66,33.36c.43-.11.83-.29,1.19-.54.53-.33.95-.49,1.27-.49.4.02.77.2,1.03.51,1.05.94,2.64,3.53,4.77,7.77,1.92,3.74,3.62,7.44,5.1,11.1.05.11.1.16.13.16.31,0,1.06-3.36,2.23-10.08,1.17-6.72,1.96-10.11,2.38-10.16.27-.03.54-.05.81-.05.8.02,1.59.13,2.36.34,1.48.38,2.31.92,2.49,1.6v.11c0,.87-1.05,5.36-3.14,13.45-1.96,7.52-2.83,13.15-2.83,13.21v.11c0,.18-.14.36-.42.55-.39.26-.84.39-1.31.37-1.43,0-2.71-.86-3.85-2.59-.26-.4-1.76-3.21-4.5-8.43-2.12-3.97-3.47-5.95-4.07-5.95h-.03c-.61.05-1.03.41-1.25,1.07-.14.44-.26.88-.37,1.34-.12.31-.53,2.87-1.22,7.67-.6,4.21-.89,6.75-.89,7.64v.34c0,.24-.35.36-1.05.36-1.03,0-2.04-.27-2.94-.79-1.05-.57-1.81-1.56-2.1-2.72l-.05-.18c.68-4.28,1.36-8.54,2.04-12.8,1.57-8.45,2.98-12.76,4.21-12.92Z"/>
    <path class="cls-2" d="M232.9,50.36c.59-.19,1.28-.39,2.07-.6,5.04-.44,9.13-1.24,12.25-2.41.21-.09.43-.13.66-.13.51,0,1.21,1.25,2.12,3.74-.44,2.17-.83,3.31-1.18,3.42-.91.28-1.76,1.4-2.57,3.38-1.06,2.64-2.08,4.55-3.04,5.73-2.18,2.61-5.18,3.91-8.98,3.91-2.34-.03-4.67-.48-6.85-1.34-1.99-.75-3.51-1.56-4.55-2.43-1.73-1.54-2.94-3.58-3.46-5.84-.12-.47-.22-.96-.29-1.44-.13-.86-.19-1.72-.18-2.59.01-1.51.17-3.02.47-4.5.45-2.39,1.04-4.24,1.75-5.55,1.69-3.09,4.37-5.4,8.04-6.93,2.46-1.07,5.12-1.63,7.8-1.65.24,0,.49,0,.73.03,2.12.05,4.34.98,6.65,2.77,1.01.82,1.94,1.73,2.77,2.73l-.84,1.18c-.66.92-1.19,1.63-1.57,2.12-.23.19-.47.4-.73.63v-.05s0-.06-.02-.08c-.14-.58-1.75-1.74-4.82-3.48-2.12.16-3.64.38-4.55.65-.79.23-1.9.76-3.33,1.6-1.44.79-2.76,1.79-3.91,2.96-.95,1.11-1.79,2.3-2.51,3.56-.69,1.18-1.07,2.51-1.09,3.88,0,.36.03.72.08,1.07.04.25.09.49.16.73.47,1.94,1.66,3.56,3.57,4.87,1.94,1.32,4.24,2,6.59,1.96,1.96,0,3.7-1.14,5.23-3.42,1.15-1.67,1.73-3.06,1.73-4.16,0-.13,0-.26-.02-.39-.02-.09-.04-.17-.05-.24-1.2.02-2.92.24-5.16.68-.35.05-.7.08-1.05.08-1.05.02-2.08-.33-2.91-.98-.7-.52-1.12-1.1-1.28-1.73-.03-.05-.05-.1-.05-.16v-.08c0-.09.01-.17.05-.24.16-.35.92-.76,2.28-1.25Z"/>
    <path class="cls-2" d="M256.35,54.54c1.71.44,2.68,1.42,2.92,2.96v.28c0,.16,0,.33-.02.49-.05.47-.15.93-.3,1.37l-.51,1.13c-.52.86-1.12,1.67-1.79,2.42-.89.85-1.74,1.37-2.54,1.53-.52.11-1.07.08-1.57-.09-1.11-.52-1.88-1.57-2.02-2.79v-.05c-.02-.17-.04-.33-.05-.49-.02-.21-.02-.43,0-.64.06-.77.32-1.5.73-2.15l1.44-2.1.15-.24c.76-.87,1.52-1.38,2.28-1.54.42-.07.85-.1,1.27-.08ZM256.81,38.81c.16-.67.92-4.52,2.28-11.56.34-.87,1.57-1.51,3.69-1.91.45-.09,4.59-.9,6.39-.45,1.14.28,3.85,1.71-3.59,14.82-3.42,6.06-3.04,8.7-5.63,10.44-.82.55-2.22.89-3.8.61-1.96-.34-1.3-1.58-.88-3.91.82-4.45,1.33-7.13,1.53-8.04Z"/>
    <path class="cls-2" d="M139.64,24.82c2.79,0,5.63,1.5,6.16,5.2.17,1.19-.86,12.83-6.16,12.83-1.39,0-3.55-.36-2.16-3.59.67-1.56,1.21-3.79-.52-6-.71-.9-2.94-2.66-1.28-5.41s2.83-3.03,3.97-3.03"/>
    <path class="cls-2" d="M188.79,59.5c-.24-3.7-.56-6.89-.94-9.55-.28-1.76-.59-3.31-.94-4.63-.42-1.73-.86-2.81-1.34-3.25-1.2-1.08-2.25-1.74-2.96-1.74h-1.22c-2.58.04-5.91,3.68-11.23,10.64-1.57,2.05-2.94,3.94-4.11,5.67,0,0,0-.02,0-.02l-.02-.11c-.6-2.1-1.51-4.1-2.69-5.94-1.03-1.62-2.06-2.78-3.09-3.48,2.77-2.65,4.16-4.95,4.16-6.89,0-.18-.02-.37-.05-.55,0-.12-.02-.25-.05-.37-.35-1.3-1.47-2.3-3.35-2.98-1.4-.52-3.87-.79-7.41-.79-3.12,0-5.6.3-7.44.9-.54,2.04-1.35,4.11-2.55,5.49-.53.64-1.21,1.15-1.98,1.47-1.13,5.32-2.24,10.85-3.35,16.6,0,.26.02.52.05.79.05.24.11.49.18.76.39,1.67,1.41,3.13,2.84,4.07,1.45,1,3.18,1.52,4.94,1.51.37,0,.74-.03,1.1-.11,3.86-.45,7.89-1.65,12.1-3.59,1.28-.58,2.5-1.26,3.67-2.04-1.09,1.96-1.77,3.59-2.06,4.89-.03.24-.05.49-.05.73,0,.13,0,.26.02.39.02.09.04.17.05.26.4,1.55,2.01,2.47,4.82,2.75l2.69-3.61c.91-.68,2.3-1.31,4.19-1.89,2.14-.67,4.38-1.02,6.62-1.02,1.47,0,2.94.15,4.37.49-.03.42-.05.8-.05,1.15,0,.5.03,1,.1,1.49.04.19.06.36.08.49.08.29.19.57.34.84.38.51,1.17.76,2.38.76.98,0,1.71-.15,2.17-.45.21-.1.31-.92.31-2.46s-.11-3.73-.31-6.68ZM148.67,40.75c1.83-.74,3.78-1.14,5.76-1.18,1.59,0,2.47.33,2.64.99l.03.18v.05c0,1.96-1.19,3.47-3.56,4.53-1.64.77-3.68,1.28-6.12,1.54l1.25-6.13ZM158.77,55.01c0,.78-.44,1.67-1.31,2.64-.7.82-1.56,1.49-2.54,1.96-2.34,1.08-4.04,1.62-5.11,1.62-1.45.02-2.83-.57-3.82-1.62-.16-.22-.27-.47-.34-.73-.04-.1-.06-.21-.08-.31-.02-.23-.02-.47-.02-.73,0-.96.22-2.2.65-3.72,3.35-1.27,6.12-1.91,8.3-1.91.72-.03,1.43.1,2.09.37,1.22.49,1.93,1.14,2.12,1.94l.05.21v.29ZM182.89,56.91c0,.32-.55.81-1.65,1.49l-7.78.49c1.26-2.51,2.28-4.35,3.06-5.5,1.5-2.09,2.92-3.14,4.27-3.14.36,0,.72.09,1.05.24.09.03.17.24.26.63.07.3.15.72.24,1.26.09.54.17,1.22.26,2.02.17,1.57.27,2.38.29,2.43v.08Z"/>
  </g>
</svg>