<?xml version="1.0" encoding="UTF-8"?>
<svg id="artwork" xmlns="http://www.w3.org/2000/svg" viewBox="0 0 1024 215">
  <defs>
    <style>
      .cls-1 {
        fill: #fff;
      }

      .cls-2 {
        fill: #599fc6;
      }

      .cls-3 {
        fill: #0b2545;
      }
    </style>
  </defs>
  <g>
    <rect class="cls-1" x="297.24" y="1.98" width="11.9" height="158.12"/>
    <path class="cls-1" d="M395.25,64.88c-7.8-9.45-18.9-14.24-32.97-14.24s-24.73,4.75-32.64,14.11v-12.37h-11.37v107.71h11.37v-65.92c0-9.98,2.97-18.07,8.82-24.05,5.85-5.97,13.86-8.99,23.81-8.99s18.1,3.46,24.1,10.29c5.74,6.51,8.65,14.98,8.65,25.18v63.49h11.14v-60.66c0-14.29-3.68-25.91-10.92-34.56Z"/>
    <path class="cls-1" d="M431.79,20.7c4.1-5.83,9.96-8.67,17.93-8.67,2.16,0,4.36.21,6.54.63l12.64,2.43V4.37l-10.67-2.37c-3.03-.67-6.11-1-9.17-1-10.83,0-19.4,3.95-25.47,11.74-5.58,7.07-8.41,16.2-8.41,27.14v120.21h11.15V63.42h33.86v-10.82h-33.86v-11.74c0-8.29,1.83-15.07,5.46-20.16Z"/>
    <rect class="cls-1" x="473.88" y="52.6" width="11.37" height="107.49"/>
    <path class="cls-1" d="M479.46,16.56c-4.93,0-7.53,2.61-7.53,7.53s2.6,7.75,7.53,7.75,7.86-2.68,7.86-7.75-2.72-7.53-7.86-7.53Z"/>
    <path class="cls-1" d="M573.31,64.88c-7.81-9.45-18.9-14.24-32.98-14.24s-24.72,4.75-32.64,14.12v-12.37h-11.36v107.71h11.36v-65.92c0-9.98,2.97-18.07,8.83-24.05,5.85-5.97,13.86-9,23.81-9s18.1,3.46,24.1,10.29c5.74,6.51,8.65,14.98,8.65,25.18v63.49h11.14v-60.66c0-14.28-3.68-25.91-10.92-34.56Z"/>
    <path class="cls-1" d="M1012.08,64.88c-7.81-9.45-18.9-14.24-32.98-14.24s-24.72,4.75-32.64,14.12v-12.37h-11.36v107.71h11.36v-65.92c0-9.98,2.97-18.07,8.83-24.05,5.85-5.97,13.86-9,23.81-9s18.1,3.46,24.1,10.29c5.74,6.51,8.65,14.98,8.65,25.18v63.49h11.14v-60.66c0-14.28-3.68-25.91-10.92-34.56Z"/>
    <path class="cls-1" d="M600.77,16.56c-4.93,0-7.53,2.61-7.53,7.53s2.6,7.75,7.53,7.75,7.86-2.68,7.86-7.75-2.72-7.53-7.86-7.53Z"/>
    <rect class="cls-1" x="595.2" y="52.6" width="11.36" height="107.49"/>
    <path class="cls-1" d="M671.53,102.18l-21.23-5.97c-13.62-3.82-20.53-9.67-20.53-17.39,0-10.36,6.4-15.39,19.58-15.39h18.62c9.23,0,16.22,2.34,20.77,6.96l.61.62,10-5.96-.79-.99c-6.08-7.59-16.04-11.44-29.61-11.44h-16.22c-22.77,0-34.31,8.65-34.31,25.72,0,13.57,9.1,22.98,27.05,27.97l20.37,5.64c15.42,4.27,23.24,11.26,23.24,20.77,0,11.16-7.9,16.58-24.15,16.58h-17.31c-8.43,0-15.12-2.52-19.89-7.5l-.61-.64-10.01,6,.78.99c6.29,7.93,16.29,11.96,29.72,11.96h10.67c27.97,0,42.16-9.46,42.16-28.11,0-14.35-9.72-24.38-28.9-29.81Z"/>
    <path class="cls-1" d="M813,138.48c-10.36,15.01-27.75,24.5-46.3,24.5-18.55,0-35.38-8.85-45.74-23.87l.06,71.05h-11.59V50.07l11.16-.84v25.91s15.3-24.21,46.11-24.21,56.09,25.66,56.09,53.21c-.02.42-.03,5.25,0,5.64.32,5.06,1.46,9.94,3.39,14.53,6.98,16.58,23.09,27.31,41.05,27.34,24.52-.05,44.52-20.04,44.56-44.58-.05-24.53-20.04-44.53-44.57-44.57-16.62.03-31.74,9.22-39.46,23.98l-1.33,2.55-.72-2.79c-1.21-4.68-4.09-9.55-4.42-10.09l-.36-.61.3-.41c10.48-15.08,27.67-24.09,46-24.09,18.17,0,34.89,8.63,45.43,23.25v-21.68h11.81v107.61l-11.86-.03.04-20.33c-10.54,14.62-27.26,23.24-45.42,23.24-19.54,0-37.36-9.94-47.66-26.6-1.03-1.66-3.66-6.86-3.66-6.86-2.77-6.18-4.39-12.73-4.8-19.46v-.07s.12-4.52.13-4.74c-.88-24.07-20.43-42.95-44.53-42.99-24.53.04-44.52,20.04-44.57,44.58.04,24.53,20.04,44.52,44.57,44.56,16.62-.03,31.74-9.22,39.46-23.98l1.33-2.55.72,2.79c1.21,4.68,4.79,10.7,4.79,10.7"/>
  </g>
  <rect class="cls-2" x="1" y="1" width="209.17" height="209.17"/>
  <g>
    <path class="cls-3" d="M116.81,105.58h0c0-45.31-36.73-82.04-82.04-82.04v22.45c32.86,0,59.6,26.73,59.6,59.6h0c0,45.31,36.73,82.04,82.04,82.04v-22.45c-32.86,0-59.6-26.73-59.6-59.6Z"/>
    <path class="cls-3" d="M90.19,127.46c-8.74,22.07-30.28,37.72-55.42,37.72v22.45c27.48,0,51.78-13.52,66.67-34.26-5.04-7.88-8.89-16.6-11.25-25.91Z"/>
    <path class="cls-3" d="M120.98,83.71c8.74-22.07,30.28-37.72,55.42-37.72v-22.45c-27.48,0-51.78,13.52-66.67,34.26,5.04,7.88,8.89,16.6,11.25,25.91Z"/>
  </g>
</svg>