<?xml version="1.0" encoding="UTF-8"?>
<svg id="Layer_1" data-name="Layer 1" xmlns="http://www.w3.org/2000/svg" xmlns:xlink="http://www.w3.org/1999/xlink" viewBox="0 0 1280 480">
  <defs>
    <style>
      .cls-1 {
        fill: #4d4d4f;
      }

      .cls-2 {
        fill: url(#linear-gradient-2);
      }

      .cls-3 {
        fill: url(#linear-gradient);
      }

      .cls-4 {
        fill: #fff;
      }
    </style>
    <linearGradient id="linear-gradient" x1="13.02" y1="412.18" x2="917.85" y2="-165.7" gradientTransform="translate(0 502) scale(1 -1)" gradientUnits="userSpaceOnUse">
      <stop offset="0" stop-color="#fff"/>
      <stop offset="1" stop-color="#6a8892"/>
    </linearGradient>
    <linearGradient id="linear-gradient-2" x1="268.08" y1="321.24" x2="451.62" y2="84.57" gradientTransform="translate(0 502) scale(1 -1)" gradientUnits="userSpaceOnUse">
      <stop offset=".03" stop-color="#424f56"/>
      <stop offset=".55" stop-color="#6f818b"/>
      <stop offset="1" stop-color="#b0bfc8"/>
    </linearGradient>
  </defs>
  <g>
    <path class="cls-1" d="M193.27,461.04s295.93-115.79,303.87-119.01c6.24-2.56,41.9-16.8,20.29-69.65-20.04-48.97-82.72-181.83-91.67-200.8-.69-1.44-12.29-23.37-40.51-18.64l-47.38,7.88c-2.71.46-5.42-.85-6.87-3.28l-16.7-27.9s-13.36-28.55-45.55-16.8L42.31,94.56S1.11,110.45,11.76,153.51l68.11,268.8s17.39,67.02,113.41,38.66v.07Z"/>
    <path class="cls-3" d="M321.55,63.64c-3.78,1.84-6.55,5.05-7.25,10.11-3.78,2.23-6.99,5.84-7.43,11.42-.06.07-.06.2-.06.26-4.73,2.3-9.39,7.42-9.2,14.44-6.43,2.76-12.22,8.99-11.66,17.33-8.44,2.95-16,11.75-13.99,21.79-10.21,3.54-19.72,14.31-16.32,26.32-12.85,4.46-25.64,17.2-20.41,32.36-15.62,5.78-32.26,19.36-26.46,38.47-.63.98-3.15,2.17-4.35,2.63-18.33,6.24-36.04,24.29-28.04,45.23-.06.13-.06.39,0,.53,0,1.71-4.03,4.2-5.8,4.66-22.37,7.81-42.21,29.08-33.27,54.35h.06c.32,3.28-5.54,7.42-8.69,8.4-16.25,7.15-30.49,16.28-37.8,32.3L30.22,144.12c-4.35-16.41,6.36-32.89,20.54-39.39,3.21-1.38,220.58-80.02,220.58-80.02,0,0,7.31-2.76,10.77-2.76,6.8-.92,12.79,2.1,17.51,7.48,8.51,9.65,21.93,34.2,21.93,34.2h0Z"/>
    <path class="cls-2" d="M485.54,322.8c-45.55,20.15-243.57,100.1-252.83,102.6,13.23-15.43,11.4-37.02.88-53.1-.13-1.84,1.7-4.53,3.21-6.17,22.37-9.72,37.93-36.63,21.74-58.88,0-1.05,2.46-3.54,3.47-4.2.06,0,.13-.07.19-.07h0s.13-.13.19-.2c0,0,.06,0,.06-.07,16.76-8.21,27.28-30.13,15.62-46.93.44-.72,1.32-1.38,1.95-1.84,14.74-6.37,24.57-25.8,14.49-40.5.06-.07.06-.13.13-.13.25-.33.5-.66.82-.79h0s.06-.07.19-.13c11.84-5.78,19.91-21.4,12.1-33.67,9.39-4.73,16-17.46,10.33-27.77,6.55-3.94,11.53-13,8.57-21.2,5.8-3.35,10.33-11.68,7.69-19.1,4.16-2.95,7.43-9.45,5.67-15.29,3.09-2.63,5.54-7.88,4.28-12.6,2.46-3.35,3.47-7.68,2.08-11.49l37.68-6.43c7.37-1.18,21.86-.26,28.67,12.87,0,0,83.73,188.46,85.87,193.32,2.14,4.86,15.12,39.32-13.04,51.79Z"/>
    <path class="cls-4" d="M336.54,82.35h-.06c.63.85,1.01,1.71,1.07,2.69.06.07.06.2.06.26.06,2.56-1.89,4.86-4.85,6.24h.13s-2.52,1.38-.57,3.61h-.06c.69,1.05,1.2,2.3,1.2,3.54.06,3.15-2.33,6.04-6.05,7.75h.19c-1.01.39-2.9,2.56-.95,4.53.88,1.25,1.39,2.76,1.45,4.27.06,3.94-2.96,7.42-7.56,9.58,0,0-4.41,1.9-1.32,5.38h-.06c.82,1.38,1.32,2.95,1.32,4.59.13,4.59-3.34,8.8-8.63,11.29-.5.33-3.28,2.49-1.64,5.78,6.43,7.61,1.76,16.87-7.37,21.2h.13s-4.91,3.87-1.83,8.47c.06,0,.13.2.19.26,0,.07.06.13.13.2h-.06c5.99,9.39.25,19.3-10.14,24.42h.25s-7.37,5.25-2.71,11.22h-.06c7.18,11.68.32,23.76-12.54,30.13h.13s-9.2,5.51-3.4,13.06h-.19c8.25,13.72.38,28.09-14.43,35.91h.13s-11.84,7.42-4.54,16.8h-.25c12.35,18.38-.82,36.63-20.79,46.41-2.84,2.63-9.26,9.98-4.6,18.51,12.41,16.28,7.62,37.02-8.44,50.08h-.06c-1.07.92-2.14,1.77-3.34,2.63h-.06s0,.07-.06.13h-.06c-22.05,17.4-66.53,20.81-92.36,7.68-.38-.13-.76-.33-1.13-.53-.19,0-.32-.13-.5-.2-.5-.26-1.01-.53-1.51-.72-3.59-1.97-6.87-3.87-9.83-6.3-10.14-7.81-16.38-17.99-16.63-29.28-.06-1.25,0-2.49.19-3.68,0,0,0-.13-.06-.13.13,0,0-.39.06-.46.13-1.44.38-2.89.82-4.33h0c3.59-14.77,17.39-27.31,36.29-34.33l-.44-.13s16.7-6.04,12.73-19.36c-6.55-19.23,7.81-35.32,29.42-43.39h-.25s13.1-4.33,9.95-14.97c-5.73-15.95,6.62-29.34,24.7-35.71h-.19s11.15-3.68,7.75-12.67l.13.13c-.38-1.31-.57-2.63-.63-4-.25-10.04,8.51-18.97,21.3-23.3h-.06s8.19-2.89,6.24-9.65c-3.97-10.44,4.03-19.3,15.81-23.57h-.19s6.87-2.36,4.91-8.14c-.44-1.18-.69-2.43-.69-3.61-.19-6.5,5.36-12.28,13.42-15.16.69-.26,5.29-2.17,3.91-6.43-.38-1.05-.63-2.1-.63-3.22-.13-5.38,4.6-10.17,11.53-12.47h-.13s4.47-1.58,3.09-5.25l.13.13c-.25-.72-.38-1.38-.38-2.1-.13-4.59,3.97-8.6,9.83-10.44.76-.33,3.21-1.58,2.27-4.14l.13.13c-.32-.72-.5-1.44-.5-2.23-.13-3.68,3.02-6.83,7.62-8.4.44-.2,2.77-1.18,1.95-3.35-.19-.59-.38-1.12-.38-1.77-.19-3.15,3.21-5.78,6.17-6.76.38-.2,2.14-1.05,1.51-2.76l.13.13c-.25-.53-.38-1.05-.44-1.58-.06-1.9,1.26-3.61,3.34-4.73.19-.13.44-.26.69-.33.17-.04.19-.07.06-.07,4.1-2.03,11.72-.79,13.92,2.56.13.13.19.2.25.33,1.2,2.43.25,5.32-2.39,6.7,0,0-2.21,1.12-.57,2.89h0Z"/>
  </g>
  <path class="cls-1" d="M1215.63,70.86v104.04c-15.37-14.11-28.54-25.53-50.47-25.53-17.07,0-39.44,9.06-55.25,31.84-18.33,10.5-18.33-11.16-18.33-11.16v.13-99.32h-54.12v95.51c-.69,7.75-2.27,12.14-5.99,13.52-7.94,2.89-12.73-3.09-12.73-3.09v.2c-16.19-20.68-39.76-27.64-66.66-27.64-19.59,0-35.91,5.84-49.08,15.62-4.03,2.43-7.62,3.54-11.15,1.31-5.04-3.15-4.91-8.6-4.41-11.55l22.74-84.22h-62.81l-36.98,167.32c-2.65,9.65-5.48,12.87-10.84,12.87-7.81,0-10.52-8.73-11.15-11.49l-33.58-168.7h-65.15l-30.56,162.4v-.26c-1.58,7.42-4.6,14.7-11.28,14.64-6.93,0-9.77-6.83-10.71-10.37l-36.79-166.27h-65.52l83.79,307.8h57.33l35.66-179.99s2.46-11.29,10.84-11.29c6.74,0,8.44,4.59,10.02,11.29l35.66,179.99h59.1l23-85.2v.13s1.7-5.58,5.99-6.3c2.58-.39,7.5-.66,9.7,6.5,9.58,43.06,38.56,78.44,86.38,78.44,23.88,0,47.88-9.12,65.59-26.06h0s.13-.13.19-.2c1.26-1.25,2.52-2.49,3.72-3.81,3.91-3.35,6.99-3.61,10.9-1.97,3.84,1.64,4.79,6.1,4.98,9.06v18.38h54.12v-24.48c.38-3.15,1.83-7.68,6.74-8.66,3.84-.72,6.99,1.18,12.1,7.75,14.93,21.99,36.54,30,59.16,30s35.47-7.29,51.91-22.52l4.79,17.92h43.54V70.86h-54.37ZM953.47,190.92c25.96,0,35.09,23.63,35.09,47.66h-70.25c.69-22.84,10.58-47.66,35.09-47.66h.06ZM991.52,296.08c-4.03,17.92-14.62,34.27-34.02,34.27-27.78,0-42.78-30.46-40.95-56.39h120.9v4.66c-.06,1.12-.13,2.63-.13,4.53,0,21.14-21.74,17.46-23.31,17.2h-.13s-22.37-4.27-22.37-4.27ZM1215.63,299.5c-8.44,13.33-19.03,24.35-35.09,24.35-32.57,0-37.3-41.16-37.3-66.69,0-23.63,6.24-63.28,36.23-63.28,15.75,0,26.71,11.42,36.23,23.24v82.32h0l-.06.07Z"/>
</svg>