<?xml version="1.0" encoding="UTF-8"?>
<svg id="Layer_1" data-name="Layer 1" xmlns="http://www.w3.org/2000/svg" xmlns:xlink="http://www.w3.org/1999/xlink" viewBox="0 0 1280 480">
  <defs>
    <style>
      .cls-1 {
        fill: #4d4d4f;
      }

      .cls-2 {
        fill: url(#linear-gradient-2);
      }

      .cls-3 {
        fill: url(#linear-gradient);
      }

      .cls-4 {
        fill: #fff;
      }
    </style>
    <linearGradient id="linear-gradient" x1="17.45" y1="408.6" x2="925.22" y2="-171.11" gradientTransform="translate(0 502) scale(1 -1)" gradientUnits="userSpaceOnUse">
      <stop offset="0" stop-color="#fff"/>
      <stop offset="1" stop-color="#6a8892"/>
    </linearGradient>
    <linearGradient id="linear-gradient-2" x1="273.34" y1="317" x2="451.39" y2="87.41" gradientTransform="translate(0 502) scale(1 -1)" gradientUnits="userSpaceOnUse">
      <stop offset=".03" stop-color="#424f56"/>
      <stop offset=".55" stop-color="#6f818b"/>
      <stop offset="1" stop-color="#b0bfc8"/>
    </linearGradient>
  </defs>
  <path class="cls-4" d="M286.06,17.61c-5.03,0-10.37.94-15.84,2.89L44.34,98.75c-.5.19-43.68,16.72-32.49,60.21l67.94,257.42c.13.5,3.27,11.82,13.89,23.19,9.74,10.43,27.84,22.88,58.95,22.88,13.39,0,28.22-2.26,44.18-6.79,12.32-4.59,295.51-110.99,303.43-114.07,12.7-4.96,21.37-12.82,25.83-23.51,5.4-12.82,4.09-28.72-3.83-47.39-20.17-47.32-84.28-177.67-91.51-192.38-.13-.19-10.24-20.24-35.51-20.24-2.64,0-5.4.25-8.17.69l-47.26,7.54h-.57c-1.26,0-2.45-.63-3.14-1.76l-16.59-26.58c-1.07-2.07-11.06-20.43-33.37-20.43h0l-.06.06Z"/>
  <path class="cls-1" d="M286.06,20.76c21.43,0,30.61,18.79,30.61,18.79l16.65,26.71c1.26,2.01,3.46,3.21,5.78,3.21.38,0,.69,0,1.07-.06l47.26-7.54c2.7-.44,5.28-.63,7.67-.63,22.56,0,32.05,17.22,32.68,18.48,8.92,18.16,71.46,145.3,91.44,192.25,21.56,50.59-14.02,64.23-20.24,66.68-7.98,3.08-303.11,113.94-303.11,113.94-16.72,4.71-31.05,6.72-43.3,6.72-58.01,0-69.82-43.74-69.82-43.74L14.8,158.2c-10.62-41.17,30.48-56.44,30.48-56.44L271.16,23.52c5.47-1.89,10.37-2.7,14.83-2.7"/>
  <path class="cls-3" d="M323.83,72.04c-3.77,1.76-6.54,4.84-7.23,9.68-3.77,2.14-6.98,5.59-7.42,10.94-.06.06-.06.19-.06.25-4.71,2.2-9.36,7.1-9.18,13.83-6.41,2.64-12.19,8.61-11.63,16.59-8.42,2.83-15.96,11.25-13.95,20.87-10.18,3.39-19.67,13.7-16.28,25.2-12.82,4.27-25.58,16.47-20.36,30.98-15.59,5.53-32.18,18.54-26.4,36.83-.63.94-3.14,2.07-4.34,2.51-18.29,5.97-35.95,23.25-27.97,43.3-.06.13-.06.38,0,.5,0,1.63-4.02,4.02-5.78,4.46-22.31,7.48-42.11,27.84-33.18,52.04h.06c.31,3.14-5.53,7.1-8.67,8.04-16.21,6.85-30.42,15.59-37.71,30.92l-60.52-229.9c-4.34-15.71,6.35-31.49,20.49-37.71,3.21-1.32,220.03-76.61,220.03-76.61,0,0,7.29-2.64,10.75-2.64,6.79-.88,12.76,2.01,17.47,7.16,8.48,9.24,21.87,32.74,21.87,32.74h0Z"/>
  <path class="cls-2" d="M487.48,320.16c-45.44,19.29-242.97,95.84-252.21,98.23,13.2-14.77,11.38-35.45.88-50.84-.13-1.76,1.7-4.34,3.21-5.91,22.31-9.3,37.83-35.07,21.68-56.37,0-1.01,2.45-3.39,3.46-4.02.06,0,.13-.06.19-.06h0s.13-.13.19-.19c0,0,.06,0,.06-.06,16.72-7.86,27.21-28.85,15.59-44.94.44-.69,1.32-1.32,1.95-1.76,14.71-6.1,24.51-24.7,14.46-38.78.06-.06.06-.13.13-.13.25-.31.5-.63.82-.75h0s.06-.06.19-.13c11.82-5.53,19.86-20.49,12.07-32.24,9.36-4.53,15.96-16.72,10.31-26.58,6.54-3.77,11.5-12.44,8.55-20.3,5.78-3.21,10.31-11.19,7.67-18.29,4.15-2.83,7.42-9.05,5.66-14.64,3.08-2.51,5.53-7.54,4.27-12.07,2.45-3.21,3.46-7.35,2.07-11l37.58-6.16c7.35-1.13,21.81-.25,28.6,12.32,0,0,83.52,180.44,85.66,185.09,2.14,4.65,15.08,37.65-13.01,49.59h0Z"/>
  <path class="cls-4" d="M338.78,89.95h-.06c.63.82,1.01,1.63,1.07,2.58.06.06.06.19.06.25.06,2.45-1.89,4.65-4.84,5.97h.13s-2.51,1.32-.57,3.46h-.06c.69,1.01,1.19,2.2,1.19,3.39.06,3.02-2.33,5.78-6.03,7.42h.19c-1.01.38-2.89,2.45-.94,4.34.88,1.19,1.38,2.64,1.45,4.09.06,3.77-2.95,7.1-7.54,9.18,0,0-4.4,1.82-1.32,5.15h-.06c.82,1.32,1.32,2.83,1.32,4.4.13,4.4-3.33,8.42-8.61,10.81-.5.31-3.27,2.39-1.63,5.53,6.41,7.29,1.76,16.15-7.35,20.3h.13s-4.9,3.71-1.82,8.11c.06,0,.13.19.19.25,0,.06.06.13.13.19h-.06c5.97,8.99.25,18.48-10.12,23.38h.25s-7.35,5.03-2.7,10.75h-.06c7.16,11.19.31,22.75-12.51,28.85h.13s-9.18,5.28-3.39,12.51h-.19c8.23,13.14.38,26.9-14.39,34.38h.13s-11.82,7.1-4.53,16.09h-.25c12.32,17.6-.82,35.07-20.74,44.43-2.83,2.51-9.24,9.55-4.59,17.72,12.38,15.59,7.6,35.45-8.42,47.95h-.06c-1.07.88-2.14,1.7-3.33,2.51h-.06s0,.06-.06.13h-.06c-22,16.65-66.37,19.92-92.13,7.35-.38-.13-.75-.31-1.13-.5-.19,0-.31-.13-.5-.19-.5-.25-1.01-.5-1.51-.69-3.58-1.89-6.85-3.71-9.8-6.03-10.12-7.48-16.34-17.22-16.59-28.03-.06-1.19,0-2.39.19-3.52,0,0,0-.13-.06-.13.13,0,0-.38.06-.44.13-1.38.38-2.77.82-4.15h0c3.58-14.14,17.35-26.14,36.2-32.87l-.44-.13s16.65-5.78,12.7-18.54c-6.54-18.41,7.79-33.81,29.35-41.54h-.25s13.07-4.15,9.93-14.33c-5.72-15.27,6.6-28.09,24.64-34.19h-.19s11.12-3.52,7.73-12.13l.13.13c-.38-1.26-.57-2.51-.63-3.83-.25-9.62,8.48-18.16,21.24-22.31h-.06s8.17-2.77,6.22-9.24c-3.96-9.99,4.02-18.48,15.77-22.56h-.19s6.85-2.26,4.9-7.79c-.44-1.13-.69-2.33-.69-3.46-.19-6.22,5.34-11.75,13.39-14.52.69-.25,5.28-2.07,3.9-6.16-.38-1.01-.63-2.01-.63-3.08-.13-5.15,4.59-9.74,11.5-11.94h-.13s4.46-1.51,3.08-5.03l.13.13c-.25-.69-.38-1.32-.38-2.01-.13-4.4,3.96-8.23,9.8-9.99.75-.31,3.21-1.51,2.26-3.96l.13.13c-.31-.69-.5-1.38-.5-2.14-.13-3.52,3.02-6.54,7.6-8.04.44-.19,2.77-1.13,1.95-3.21-.19-.57-.38-1.07-.38-1.7-.19-3.02,3.21-5.53,6.16-6.47.38-.19,2.14-1.01,1.51-2.64l.13.13c-.25-.5-.38-1.01-.44-1.51-.06-1.82,1.26-3.46,3.33-4.53.19-.13.44-.25.69-.31.17-.04.19-.06.06-.06,4.09-1.95,11.69-.75,13.89,2.45.13.13.19.19.25.31,1.19,2.33.25,5.09-2.39,6.41,0,0-2.2,1.07-.57,2.77h0Z"/>
  <path class="cls-4" d="M1215.76,78.95v99.61c-15.33-13.51-28.47-24.45-50.34-24.45-17.03,0-39.34,8.67-55.12,30.48-18.29,10.06-18.29-10.68-18.29-10.68v.13-95.09h-53.99v91.44c-.69,7.42-2.26,11.63-5.97,12.95-7.92,2.77-12.7-2.95-12.7-2.95v.19c-16.15-19.8-39.66-26.46-66.49-26.46-19.55,0-35.82,5.59-48.96,14.96-4.02,2.33-7.6,3.39-11.12,1.26-5.03-3.02-4.9-8.23-4.4-11.06l22.69-80.63h-62.66l-36.89,160.2c-2.64,9.24-5.47,12.32-10.81,12.32-7.79,0-10.5-8.36-11.12-11l-33.5-161.52h-64.98l-30.48,155.49v-.25c-1.57,7.1-4.59,14.08-11.25,14.02-6.91,0-9.74-6.54-10.68-9.93l-36.7-159.19h-65.36l83.59,294.69h57.19l35.57-172.33s2.45-10.81,10.81-10.81c6.72,0,8.42,4.4,9.99,10.81l35.57,172.33h58.95l22.94-81.58v.13s1.7-5.34,5.97-6.03c2.58-.38,7.48-.63,9.68,6.22,9.55,41.23,38.46,75.1,86.16,75.1,23.82,0,47.76-8.74,65.42-24.95h0s.13-.13.19-.19c1.26-1.19,2.51-2.39,3.71-3.65,3.9-3.21,6.98-3.46,10.87-1.89,3.83,1.57,4.78,5.84,4.96,8.67v17.6h53.99v-23.44c.38-3.02,1.82-7.35,6.72-8.3,3.83-.69,6.98,1.13,12.07,7.42,14.89,21.05,36.45,28.72,59.01,28.72s35.38-6.98,51.79-21.56l4.78,17.16h43.43V78.95h-54.24ZM954.25,193.9c25.89,0,35.01,22.63,35.01,45.63h-70.08c.69-21.87,10.56-45.63,35.01-45.63h.06ZM992.21,294.58c-4.02,17.16-14.58,32.81-33.94,32.81-27.72,0-42.67-29.16-40.85-53.99h120.6v4.46c-.06,1.07-.13,2.51-.13,4.34,0,20.24-21.68,16.72-23.25,16.47h-.13s-22.31-4.09-22.31-4.09ZM1215.76,297.91c-8.42,12.76-18.98,23.32-35.01,23.32-32.49,0-37.21-39.41-37.21-63.85,0-22.63,6.22-60.59,36.14-60.59,15.71,0,26.65,10.94,36.14,22.25v78.81h0l-.06.06Z"/>
</svg>