<?xml version="1.0" encoding="UTF-8"?>
<svg id="Layer_1" data-name="Layer 1" xmlns="http://www.w3.org/2000/svg" viewBox="0 0 1024 1024">
  <defs>
    <style>
      .cls-1 {
        fill: #fe4a00;
      }

      .cls-2 {
        fill: #bababa;
      }

      .cls-3 {
        fill: #1e1b22;
      }

      .cls-4 {
        fill: #fff;
      }

      .cls-5 {
        fill: #636466;
      }
    </style>
  </defs>
  <path class="cls-4" d="M936.77,581.46c-11.84-6.68-25.39-10.04-38.96-9.49-12.76-21.19-30.7-32.66-53.5-32.8,5.5-54.96,5.07-128.34,3.22-137.8-60.2-51.41-152.96-93.92-228.18-113.76-24.08-17.86-51.85-25.77-84.86-28.41,1.95-16.76,3.81-30.92-.55-51.62.44-.43.87-.88,1.29-1.33,2.65,2.05,73.65,61.8,78.95,66.11,12.74,10.85,32.36,2.82,38.5-12.38,5.76-12.56,1.26-28.77-11.94-33.48-5.67-2.08-94.14-34.36-96.17-35.11,3.61-9.11,4.03-20.02,1.15-29.38,3.12-1.31,90.35-32.86,96.75-35.32,15.76-5.4,18.49-27.06,8.53-39.53-8.17-11.37-24.23-15.45-34.96-6.4-4.63,3.86-76.82,64.35-78.5,65.74-6.22-7.71-14.91-13.36-24.85-15.74.41-3.28,16.72-94.68,17.78-101.39,2.96-14.97-11.6-27.72-26.37-27.37-14.9-.4-29.46,12.12-26.62,27.29.99,5.74,17.35,98.87,17.66,100.74-10.2,1.57-19.29,6.55-26.09,13.72-2.52-1.94-73.67-61.82-78.87-66.05-12.74-10.85-32.36-2.81-38.5,12.38-5.76,12.56-1.26,28.77,11.94,33.48,0,0,85.19,31.1,85.19,31.1l10.82,3.95c-3.61,9-4.08,20.16-1.17,29.5-2.81,1.19-90.39,32.88-96.56,35.25-15.77,5.4-18.49,27.06-8.53,39.53,8.17,11.37,24.22,15.45,34.96,6.4,0,0,69.53-58.23,69.53-58.23l8.83-7.4c7.23,8.93,17.77,15.08,29.74,16.57,2.22,12.62.06,25.43-1.55,39.9-29.92,3.73-55.07,12.06-77.35,27.93-60.97,4.09-147.3,13.97-175.38,18.06-5.42,47.03-7.1,77.46-7.04,143.57-13.56,18.7-19.63,40-21.46,65.09-7.74,4.9-17.07,15.05-24.24,12.7,24.75-43.5-6.63-104.38-57.02-107.67-31.96-.15-36.16,47.46-4.67,52.94,10.87,1.71,18.71,12.96,16.55,23.75-1.73,11.23-13.71,19.15-24.7,16.36-27.39-9.06-7.64-28.65-18.21-45.24-4.7-8.05-13.63-13.08-22.94-13.04-60.82,6.68-19.81,137.4,69.47,108.26,21.2,20.2,49.3,23.87,73.14,11.03,4.34,12.76,10.38,23.99,17.85,33.09.88,20.39,1.04,23.92,1.47,32.23-.09,1.06.31,2.76.83,3.67,13,39.56,85.53,171.06,119.86,210.57,8.25.28,17.08.62,25.38.85-.38,8.53-.62,16.85-.72,24.89-44.16,5.4-93.3,32.16-94.4,77.27-4.65,39.44,75.57,68.34,116.93,65.33,43.43-1.88,109.09-13.27,116.91-63.78,3.82-45.07-46.61-74.52-90.09-78.94.11-7.81.37-15.93.76-24.27,70.54-.5,145.11-6.41,216.42-16.53-.72,6.82-1.63,14.03-2.72,21.56-40.18,5.27-83.89,30.27-84.87,71.29-4.8,36.61,67.86,64.25,106.49,61.33,37.97,2.83,109.52-23.97,106.46-59.62,3.6-39.37-38.68-67.36-77.12-72.51,1.45-10.74,2.54-20.81,3.25-30.12,71.83-13.03,67.21-13.29,101.15-21.46,9.28-47.59,18.07-97.18,24.64-142.67,6.83,22.49,25.14,45.73,49.71,48.46,17.66.5,31.31-18.42,25.36-35.02-2.85-13.49-19.74-14.78-23.53-27.35-6.27-17.01,14.04-33.74,29.53-24.21,9.19,5.17,12.92,16.34,8.68,25.99-12.45,17.32-.02,43.14,21.64,42.77,13.07.29,22.86-9.71,27.2-21.3,15.34-34.88,1.86-75.27-31.36-93.96Z"/>
  <path class="cls-3" d="M931.37,591.05c-4.17-2.35-8.52-4.19-12.98-5.53-8.66-2.6-17.74-3.26-26.74-1.95-8.45-16.74-19.67-27.28-33.48-31.41-1.68-.5-3.39-.91-5.14-1.22-7.15-1.28-14.16-.82-20.83.46,1.27-13.95,2.34-27.54,3.2-40.7,3.99-60.93,2.18-91.78,2.11-93.06l-.4-6.47-.26-4.2-3.3-2.61-5.09-4.01c-22.72-17.93-48.93-34.68-77.9-49.79-22.98-11.99-47.77-22.99-73.67-32.7-26.6-9.97-48.8-16.51-62.55-20.19-4.54-3.64-9.64-7.02-15.33-10.09-20.84-11.22-48.01-17.51-76.72-17.83.45-4.72.96-9.06,1.44-13.19,2.09-17.86,3.63-31.24-2.05-53.06,9.03-6.24,14.96-16.65,14.96-28.43,0-19.05-15.49-34.54-34.54-34.54s-34.54,15.49-34.54,34.54,15.49,34.54,34.54,34.54c1.12,0,2.23-.06,3.33-.16,4.39,17.7,3.13,28.51,1.19,45.11-.55,4.7-1.15,9.87-1.68,15.72-26.24,1.92-50.87,8.84-70.23,19.84-4.78,2.72-9.17,5.64-13.14,8.73-17.13,1.22-35.41,2.69-54.87,4.45-55.87,5.05-95.43,10.17-95.82,10.23l-11.33,1.48-7.35.96-.78,7.38-1.2,11.36c-2.9,27.36-4.26,67.19-4.07,118.83-3.36,4.05-6.42,8.68-9.09,13.87-7.66,14.84-12.06,33.51-12.63,53.27-2.51,1.73-4.94,3.54-7.31,5.3-8.06,6-16.39,12.21-23.83,13.06-2.29.26-8.47.96-18.44-8.93,5.6-7.62,9.42-16.49,11.14-26.12,2.95-16.52-.71-33.19-10.31-46.96-9.59-13.76-23.98-22.97-40.49-25.92-8.51-1.52-16.66,4.15-18.18,12.67-1.52,8.52,4.15,16.66,12.67,18.18,8.28,1.48,15.48,6.09,20.29,12.99,4.81,6.9,6.64,15.25,5.16,23.53-1.52,8.54-6.34,15.89-13.58,20.69-7.22,4.8-15.88,6.39-24.38,4.47-15.84-3.57-26.27-18.4-24.28-34.5.17-1.35.42-2.69.75-3.99,2.13-8.39-2.94-16.91-11.33-19.04-8.39-2.13-16.91,2.94-19.04,11.33-.65,2.56-1.15,5.2-1.48,7.85-3.99,32.17,16.86,61.8,48.49,68.92,4.67,1.05,9.37,1.57,14.03,1.57,9.05,0,17.93-1.97,26.18-5.8,12.9,13.62,26.67,20.49,41.08,20.49,1.75,0,3.51-.1,5.28-.3,11.93-1.37,22.16-7.14,30.9-13.19,4.15,18.74,11.88,34.59,22,45.74.79,19.46,1.4,31.57,1.42,31.82l.13,2.51.08,1.63.63,1.51.97,2.32c12.91,31.04,35.57,79.83,70.24,136.06,20.8,33.73,36.02,54.1,36.66,54.95l4.16,5.54,2.7,3.6,4.49.16,6.93.24c6.56.23,13.2.4,19.89.53-.86,14.88-1.38,30.24-1.34,45.52-53.68,4.29-93.56,32.17-94.35,67.27v.23s0,.23,0,.23c0,10.66,6.44,26.24,37.13,39.92,20.35,9.07,44.78,14.07,68.79,14.07s48.44-5,68.79-14.07c29.98-13.37,36.82-28.54,37.12-39.17.15-2.87.13-3.93.12-4.39-.46-19.75-13-37.25-35.3-49.26-15.27-8.22-34.43-13.37-54.97-14.91-.03-15.09.51-30.35,1.4-45.16,44.21,0,90.34-2.12,137.11-6.29,33.83-3.01,68.08-7.11,101.96-12.17-.96,13.06-2.73,28.01-5.3,44.41-47.59,4.32-82.77,29.59-83.49,61.33v.23s0,.23,0,.23c0,10.09,5.91,24.76,34.07,37.32,18.18,8.1,39.98,12.57,61.41,12.57s43.23-4.46,61.41-12.57c27.43-12.23,33.75-26.47,34.06-36.53.09-1.69.13-3.04.11-4.02-.43-18.3-11.9-34.42-32.3-45.41-12.99-7-29.11-11.51-46.41-13.14,2.97-19.64,4.6-35.77,5.32-48.99,53.2-8.88,85.77-16.96,87.27-17.34l8.98-2.24,5.82-1.46,1.13-5.9,1.74-9.09c10.63-55.56,19.31-109.31,25.79-159.77,1.76-13.7,3.35-27.15,4.79-40.35,6.79-2.25,13.35-3.83,18.66-2.88,2.27.41,8.39,1.51,15.1,13.84-7.55,5.7-13.76,13.1-18.17,21.83-7.56,14.98-8.84,32-3.6,47.94,5.24,15.94,16.38,28.88,31.36,36.44,7.72,3.9,17.15.8,21.05-6.92,3.9-7.72.8-17.15-6.92-21.05-7.5-3.79-13.09-10.28-15.71-18.26-2.63-7.99-1.99-16.52,1.8-24.02,3.91-7.74,10.64-13.4,18.94-15.93,8.3-2.53,17.05-1.56,24.64,2.71,14.15,7.96,19.89,25.16,13.36,40.01-.55,1.25-1.17,2.46-1.86,3.61-4.45,7.42-2.04,17.05,5.39,21.49,7.43,4.45,17.05,2.04,21.49-5.39,1.36-2.27,2.59-4.66,3.67-7.1,13.05-29.67,1.58-64.04-26.68-79.94Z"/>
  <path class="cls-1" d="M684.7,889.94c-.12.7-.24,1.39-.37,2.1-1.24,6.9-7.24,11.75-14.02,11.75-.84,0-1.68-.07-2.53-.23-6.53-1.17-11.21-6.62-11.69-12.95-34,4.42-59.62,21.39-60.06,40.96,0,10.55,33.63,29.52,75.11,29.52s75.11-18.97,75.11-29.52c.04-.61.11-2.15.1-2.76-.47-19.98-26.98-36.01-61.66-38.87Z"/>
  <path class="cls-1" d="M493.9,953.64c-.53-22.62-30.36-40.78-69.5-44.2.04.87.07,1.74.11,2.61.34,7.53-5.49,13.92-13.02,14.26-.21,0-.42.01-.63.01-7.25,0-13.29-5.71-13.63-13.03-.06-1.27-.11-2.53-.16-3.8-41.67,3.73-73.86,23.88-74.39,47.3,0,12.02,38.3,33.62,85.55,33.62s85.55-21.6,85.55-33.62c.04-.7.13-2.44.11-3.14Z"/>
  <path class="cls-4" d="M813.67,419.13v.11c0-.05,0-.09,0-.11Z"/>
  <path class="cls-4" d="M813.94,426.33c-227.29,12.99-389.94,21.14-423.13,22.79-3.16,33.23-17.26,195.72-9.43,370.1,14.73.48,29.32.72,43.74.72,191.11,0,349.69-39.64,349.69-39.64,39.64-207.23,39.86-324.78,39.12-353.96ZM530.79,514.22c12.15,0,22,19.32,22,43.15s-9.85,43.15-22,43.15-22-19.32-22-43.15,9.85-43.15,22-43.15ZM605.57,728.37c-58.91,6.25-100.86-39.27-100.86-39.27l194.59-15.17s-34.81,48.2-93.72,54.45ZM707.54,549.16c-1.83,21.53-12.22,38.22-23.19,37.29-10.98-.93-18.39-19.14-16.56-40.67,1.83-21.53,12.22-38.22,23.19-37.29,10.98.93,18.39,19.14,16.56,40.67Z"/>
  <path class="cls-2" d="M636.77,329.18c1.32,4.44,2.09,9.01,2.2,13.71,0,.42.04,1.68-.14,4.93-.2,7.61-3.56,18.2-17.86,26.8-6.83,4.11-16.01,7.65-27.28,10.51-20.81,5.29-48.15,8.21-76.98,8.21s-56.16-2.92-76.98-8.21c-11.27-2.87-20.45-6.41-27.28-10.51-14.77-8.88-17.87-19.87-17.87-27.53v-.46c.18-7.7,2.07-15.15,5.49-22.21-54.2,4.33-98.06,9.36-116.58,11.6,14.49,13.06,60.04,54.54,103.61,98.79,24.63-1.22,186.99-9.3,417.75-22.46-58.06-43.24-125.47-69.5-168.08-83.16Z"/>
  <g>
    <path class="cls-1" d="M519.65,27.4l-15.66,89.33-15.66-89.33c-1.21-6.9,4.82-13.28,13.47-14.24,10.22-1.27,19.42,6.12,17.85,14.24h0Z"/>
    <path class="cls-1" d="M383.06,86.1l69.53,58.23-85.19-31.1c-6.58-2.4-9.09-10.81-5.6-18.79,4.01-9.49,15.01-13.76,21.26-8.34h0Z"/>
    <path class="cls-1" d="M365.61,233.74l85.19-31.1-69.53,58.23c-5.37,4.5-13.91,2.46-19.07-4.54-6.21-8.21-4.41-19.87,3.41-22.58h0Z"/>
    <path class="cls-1" d="M621.32,263.98l-69.53-58.23,85.19,31.1c6.58,2.4,9.09,10.81,5.6,18.79-4.01,9.49-15.01,13.76-21.26,8.34h0Z"/>
    <path class="cls-1" d="M638.78,116.34l-85.19,31.1,69.53-58.23c5.37-4.5,13.91-2.46,19.07,4.54,6.21,8.21,4.41,19.87-3.41,22.58h0Z"/>
  </g>
  <path class="cls-5" d="M376.67,444.85c-44-44.68-90.02-86.51-103.56-98.69-2.11,24.87-2.97,56.87-3.08,90.43,3.93-1.28,7.98-2.01,12.13-2.11.19,0,.41,0,.65,0,.99,0,2.26.05,3.26.11,13.96.4,26.36,11.89,35.9,33.29,7.86,17.63,12.19,38.77,12.19,59.54s-4.33,41.91-12.19,59.54c-9.71,21.78-22.39,33.3-36.66,33.3h-.46c-3.6-.09-7.12-.65-10.52-1.6.41,9.31.69,14.65.69,14.65,31.54,75.85,71.14,138.27,91.13,167.67-6.3-173.64,8.09-331.19,10.52-356.12Z"/>
  <path class="cls-1" d="M285.31,454.94c-.54-.03-1.83-.1-2.5-.1-.06,0-.12,0-.17,0-18.65.44-33.72,24.38-37.18,56.22,3.29-.51,6.69-.51,10.22.2,8.48,1.71,13.98,9.97,12.27,18.45-1.68,8.33-9.68,13.79-18,12.36-.92.18-2.3.88-3.89,1.84,4.66,31.81,20.74,55.55,39.24,55.96,10.18,0,28.48-32.44,28.48-72.47s-18.3-72.47-28.48-72.47Z"/>
  <path class="cls-1" d="M618.6,343.34c-.7-29.72-43.93-52.98-97.64-53.26-.12,3.6-.19,7.43-.19,11.54,0,4.76-3.86,8.62-8.62,8.62s-8.62-3.86-8.62-8.62c0-3.81.06-7.41.16-10.82-49.69,4.38-88.12,28.38-88.75,56.28,0,14.3,45.56,25.89,101.76,25.89s101.76-11.59,101.76-25.89c.05-.83.15-2.91.13-3.74Z"/>
  <path class="cls-1" d="M502.1,157.76c9.56,0,17.3,7.75,17.3,17.3s-7.75,17.3-17.3,17.3-17.31-7.75-17.31-17.3,7.75-17.3,17.31-17.3"/>
</svg>