<?xml version="1.0" encoding="UTF-8"?>
<svg id="Layer_1" data-name="Layer 1" xmlns="http://www.w3.org/2000/svg" xmlns:xlink="http://www.w3.org/1999/xlink" viewBox="0 0 1024 1024">
  <defs>
    <style>
      .cls-1 {
        fill: #4d4d4f;
      }

      .cls-2 {
        fill: url(#linear-gradient-2);
      }

      .cls-3 {
        fill: url(#linear-gradient);
      }

      .cls-4 {
        fill: #fff;
      }
    </style>
    <linearGradient id="linear-gradient" x1="26.34" y1="796.28" x2="1774.29" y2="-319.96" gradientTransform="translate(0 1026) scale(1 -1)" gradientUnits="userSpaceOnUse">
      <stop offset="0" stop-color="#fff"/>
      <stop offset="1" stop-color="#6a8892"/>
    </linearGradient>
    <linearGradient id="linear-gradient-2" x1="519.08" y1="619.9" x2="861.91" y2="177.83" gradientTransform="translate(0 1026) scale(1 -1)" gradientUnits="userSpaceOnUse">
      <stop offset=".03" stop-color="#424f56"/>
      <stop offset=".55" stop-color="#6f818b"/>
      <stop offset="1" stop-color="#b0bfc8"/>
    </linearGradient>
  </defs>
  <path class="cls-4" d="M543.55,83.79c-9.68,0-19.97,1.82-30.5,5.57L78.13,240.02c-.97.36-84.11,32.19-62.56,115.93l130.82,495.68c.24.97,6.29,22.75,26.74,44.65,18.76,20.09,53.61,44.05,113.51,44.05,25.78,0,54.34-4.36,85.07-13.07,23.72-8.83,569.01-213.71,584.26-219.64,24.45-9.56,41.15-24.69,49.74-45.26,10.41-24.69,7.87-55.3-7.38-91.25-38.85-91.12-162.28-342.11-176.2-370.43-.24-.36-19.73-38.97-68.37-38.97-5.08,0-10.41.48-15.73,1.33l-91,14.52h-1.09c-2.42,0-4.72-1.21-6.05-3.39l-31.95-51.19c-2.06-3.99-21.3-39.33-64.26-39.33h0l-.12.12Z"/>
  <path class="cls-1" d="M543.55,89.84c41.27,0,58.93,36.18,58.93,36.18l32.07,51.43c2.42,3.87,6.66,6.17,11.13,6.17.73,0,1.33,0,2.06-.12l91-14.52c5.2-.85,10.17-1.21,14.76-1.21,43.44,0,61.72,33.16,62.93,35.58,17.18,34.97,137.59,279.79,176.08,370.19,41.51,97.42-26.99,123.68-38.97,128.4-15.37,5.93-583.66,219.4-583.66,219.4-32.19,9.08-59.78,12.95-83.38,12.95-111.7,0-134.45-84.23-134.45-84.23L21.25,354.5c-20.45-79.27,58.69-108.67,58.69-108.67l434.93-150.66c10.53-3.63,19.97-5.2,28.56-5.2"/>
  <path class="cls-3" d="M616.28,188.59c-7.26,3.39-12.59,9.32-13.92,18.64-7.26,4.11-13.43,10.77-14.28,21.06-.12.12-.12.36-.12.48-9.08,4.24-18.03,13.67-17.67,26.62-12.34,5.08-23.48,16.58-22.39,31.95-16.22,5.45-30.74,21.66-26.87,40.18-19.6,6.53-37.88,26.38-31.34,48.53-24.69,8.23-49.25,31.71-39.21,59.66-30.01,10.65-61.96,35.7-50.83,70.92-1.21,1.82-6.05,3.99-8.35,4.84-35.22,11.5-69.22,44.78-53.85,83.38-.12.24-.12.73,0,.97,0,3.15-7.74,7.74-11.13,8.59-42.96,14.4-81.08,53.61-63.9,100.2h.12c.61,6.05-10.65,13.67-16.7,15.49-31.22,13.19-58.57,30.01-72.61,59.54L56.71,336.95c-8.35-30.25,12.22-60.63,39.45-72.61,6.17-2.54,423.67-147.52,423.67-147.52,0,0,14.04-5.08,20.69-5.08,13.07-1.69,24.57,3.87,33.64,13.8,16.34,17.79,42.11,63.05,42.11,63.05h0Z"/>
  <path class="cls-2" d="M931.41,666.36c-87.49,37.15-467.85,184.55-485.63,189.15,25.41-28.44,21.9-68.25,1.69-97.9-.24-3.39,3.27-8.35,6.17-11.38,42.96-17.91,72.85-67.53,41.75-108.55,0-1.94,4.72-6.53,6.66-7.74.12,0,.24-.12.36-.12h0s.24-.24.36-.36c0,0,.12,0,.12-.12,32.19-15.13,52.4-55.55,30.01-86.53.85-1.33,2.54-2.54,3.75-3.39,28.32-11.74,47.2-47.56,27.83-74.67.12-.12.12-.24.24-.24.48-.61.97-1.21,1.57-1.45h0s.12-.12.36-.24c22.75-10.65,38.24-39.45,23.23-62.08,18.03-8.71,30.74-32.19,19.85-51.19,12.59-7.26,22.15-23.96,16.46-39.09,11.13-6.17,19.85-21.54,14.76-35.22,7.99-5.45,14.28-17.43,10.89-28.2,5.93-4.84,10.65-14.52,8.23-23.23,4.72-6.17,6.66-14.16,3.99-21.18l72.37-11.86c14.16-2.18,41.99-.48,55.06,23.72,0,0,160.83,347.44,164.94,356.39,4.11,8.96,29.04,72.49-25.05,95.48h0Z"/>
  <path class="cls-4" d="M645.08,223.08h-.12c1.21,1.57,1.94,3.15,2.06,4.96.12.12.12.36.12.48.12,4.72-3.63,8.96-9.32,11.5h.24s-4.84,2.54-1.09,6.66h-.12c1.33,1.94,2.3,4.24,2.3,6.53.12,5.81-4.48,11.13-11.62,14.28h.36c-1.94.73-5.57,4.72-1.82,8.35,1.69,2.3,2.66,5.08,2.78,7.87.12,7.26-5.69,13.67-14.52,17.67,0,0-8.47,3.51-2.54,9.92h-.12c1.57,2.54,2.54,5.45,2.54,8.47.24,8.47-6.41,16.22-16.58,20.81-.97.61-6.29,4.6-3.15,10.65,12.34,14.04,3.39,31.1-14.16,39.09h.24s-9.44,7.14-3.51,15.61c.12,0,.24.36.36.48,0,.12.12.24.24.36h-.12c11.5,17.31.48,35.58-19.48,45.02h.48s-14.16,9.68-5.2,20.69h-.12c13.8,21.54.61,43.81-24.08,55.55h.24s-17.67,10.17-6.53,24.08h-.36c15.85,25.29.73,51.79-27.71,66.2h.24s-22.75,13.67-8.71,30.98h-.48c23.72,33.88-1.57,67.53-39.94,85.56-5.45,4.84-17.79,18.39-8.83,34.13,23.84,30.01,14.64,68.25-16.22,92.33h-.12c-2.06,1.69-4.11,3.27-6.41,4.84h-.12s0,.12-.12.24h-.12c-42.36,32.07-127.79,38.36-177.41,14.16-.73-.24-1.45-.61-2.18-.97-.36,0-.61-.24-.97-.36-.97-.48-1.94-.97-2.9-1.33-6.9-3.63-13.19-7.14-18.88-11.62-19.48-14.4-31.46-33.16-31.95-53.97-.12-2.3,0-4.6.36-6.78,0,0,0-.24-.12-.24.24,0,0-.73.12-.85.24-2.66.73-5.32,1.57-7.99h0c6.9-27.23,33.4-50.34,69.7-63.29l-.85-.24s32.07-11.13,24.45-35.7c-12.59-35.46,15.01-65.11,56.51-79.99h-.48s25.17-7.99,19.12-27.59c-11.01-29.41,12.71-54.09,47.44-65.83h-.36s21.42-6.78,14.88-23.36l.24.24c-.73-2.42-1.09-4.84-1.21-7.38-.48-18.52,16.34-34.97,40.9-42.96h-.12s15.73-5.32,11.98-17.79c-7.62-19.24,7.74-35.58,30.37-43.44h-.36s13.19-4.36,9.44-15.01c-.85-2.18-1.33-4.48-1.33-6.66-.36-11.98,10.29-22.63,25.78-27.95,1.33-.48,10.17-3.99,7.5-11.86-.73-1.94-1.21-3.87-1.21-5.93-.24-9.92,8.83-18.76,22.15-22.99h-.24s8.59-2.9,5.93-9.68l.24.24c-.48-1.33-.73-2.54-.73-3.87-.24-8.47,7.62-15.85,18.88-19.24,1.45-.61,6.17-2.9,4.36-7.62l.24.24c-.61-1.33-.97-2.66-.97-4.11-.24-6.78,5.81-12.59,14.64-15.49.85-.36,5.32-2.18,3.75-6.17-.36-1.09-.73-2.06-.73-3.27-.36-5.81,6.17-10.65,11.86-12.46.73-.36,4.11-1.94,2.9-5.08l.24.24c-.48-.97-.73-1.94-.85-2.9-.12-3.51,2.42-6.66,6.41-8.71.36-.24.85-.48,1.33-.61.32-.08.36-.12.12-.12,7.87-3.75,22.51-1.45,26.74,4.72.24.24.36.36.48.61,2.3,4.48.48,9.8-4.6,12.34,0,0-4.24,2.06-1.09,5.32h0Z"/>
</svg>