<?xml version="1.0" encoding="UTF-8"?>
<svg id="Layer_1" data-name="Layer 1" xmlns="http://www.w3.org/2000/svg" viewBox="0 0 1024 385">
  <defs>
    <style>
      .cls-1 {
        fill: #fe4a00;
      }

      .cls-2 {
        fill: #bababa;
      }

      .cls-3 {
        fill: #1e1b22;
      }

      .cls-4 {
        fill: #fff;
      }

      .cls-5 {
        fill: #636466;
      }
    </style>
  </defs>
  <g>
    <rect class="cls-4" x="719.66" y="182.6" width="42.62" height="134.27"/>
    <path class="cls-4" d="M759.21,115.03c-4.96-4.38-11.05-6.57-18.24-6.57s-13.04,2.19-18.1,6.57c-5.06,4.38-7.59,10.07-7.59,17.08s2.53,12.75,7.59,17.22c5.06,4.48,11.09,6.71,18.1,6.71s13.28-2.23,18.24-6.71c4.96-4.47,7.44-10.22,7.44-17.22s-2.48-12.7-7.44-17.08Z"/>
    <path class="cls-4" d="M850.13,179.68c-14.79,0-28.07,2.92-39.84,8.76-11.78,5.84-21.02,13.96-27.73,24.37-6.71,10.41-10.07,22.72-10.07,36.92s3.36,26.27,10.07,36.78c6.71,10.51,15.95,18.68,27.73,24.52,11.77,5.84,25.05,8.76,39.84,8.76,10.12,0,18.68-1.12,25.69-3.36,7.01-2.23,12.84-5.2,17.51-8.9v-42.91c-2.73,4.28-6.18,7.88-10.36,10.8-4.19,2.92-8.76,5.21-13.72,6.86-4.96,1.66-10.17,2.48-15.62,2.48-6.42,0-12.41-1.46-17.95-4.38-5.55-2.92-9.88-6.96-12.99-12.11-3.11-5.15-4.67-11.33-4.67-18.54,0-6.61,1.56-12.55,4.67-17.81,3.11-5.25,7.44-9.44,12.99-12.55,5.55-3.11,11.53-4.67,17.95-4.67,4.86,0,9.82.78,14.89,2.33,5.06,1.56,9.78,3.79,14.16,6.71,4.38,2.92,7.93,6.52,10.65,10.8v-43.2c-4.67-3.31-10.51-6.08-17.51-8.32-7-2.23-15.57-3.36-25.69-3.36Z"/>
    <path class="cls-4" d="M962.35,219.38c5.55-3.11,11.53-4.67,17.95-4.67,4.86,0,9.82.78,14.89,2.33,5.06,1.56,9.78,3.79,14.16,6.71,4.38,2.92,7.93,6.52,10.65,10.8v-43.2c-4.67-3.31-10.51-6.08-17.51-8.32-7-2.23-15.57-3.36-25.69-3.36-14.79,0-28.07,2.92-39.84,8.76-11.78,5.84-21.02,13.96-27.73,24.37-6.71,10.41-10.07,22.72-10.07,36.92s3.36,26.27,10.07,36.78c6.71,10.51,15.95,18.68,27.73,24.52,11.77,5.84,25.05,8.76,39.84,8.76,10.12,0,18.68-1.12,25.69-3.36,7.01-2.23,12.84-5.2,17.51-8.9v-42.91c-2.73,4.28-6.18,7.88-10.36,10.8-4.19,2.92-8.76,5.21-13.72,6.86-4.96,1.66-10.17,2.48-15.62,2.48-6.42,0-12.41-1.46-17.95-4.38-5.55-2.92-9.88-6.96-12.99-12.11-3.11-5.15-4.67-11.33-4.67-18.54,0-6.61,1.56-12.55,4.67-17.81,3.11-5.25,7.44-9.44,12.99-12.55Z"/>
    <path class="cls-4" d="M494.62,295.3v60.34l44.07,25.45v-198.48h-44.07v21.5c-4.08-7.08-9.23-12.83-15.47-17.26-8.37-5.93-18.49-8.9-30.36-8.9-10.9,0-21.21,2.73-30.94,8.17-9.73,5.45-17.66,13.48-23.79,24.08-6.13,10.61-9.19,23.79-9.19,39.55s3.06,28.71,9.19,39.41c6.13,10.7,14.06,18.78,23.79,24.23,9.73,5.45,20.04,8.17,30.94,8.17,11.87,0,21.99-2.97,30.36-8.9,6.24-4.43,11.39-10.21,15.47-17.34ZM463.39,282.43c-5.84,0-11.19-1.26-16.05-3.79-4.87-2.53-8.76-6.23-11.68-11.09-2.92-4.86-4.38-10.8-4.38-17.81s1.46-12.94,4.38-17.81c2.92-4.86,6.81-8.56,11.68-11.09,4.86-2.53,10.22-3.79,16.05-3.79,5.06,0,9.97,1.22,14.74,3.65,4.77,2.44,8.71,6.08,11.82,10.95,3.11,4.87,4.67,10.9,4.67,18.1s-1.56,13.24-4.67,18.1c-3.11,4.87-7.05,8.51-11.82,10.95-4.77,2.44-9.68,3.65-14.74,3.65Z"/>
    <path class="cls-4" d="M699.67,211.5c-6.13-10.31-14.01-18.19-23.64-23.64-9.63-5.45-19.99-8.17-31.09-8.17s-21.02,2.82-29.77,8.46c-6.32,4.07-11.66,9.41-16.05,15.96v-89.49l-44.03-25.42h-.04v227.67h44.07v-21.58c4.39,6.61,9.74,11.97,16.05,16.04,8.76,5.64,18.68,8.46,29.77,8.46s21.45-2.73,31.09-8.17c9.63-5.45,17.51-13.38,23.64-23.79,6.13-10.41,9.19-23.1,9.19-38.09s-3.06-27.92-9.19-38.24ZM658.07,267.98c-2.92,5.16-6.81,9.15-11.68,11.97-4.87,2.82-10.22,4.23-16.05,4.23-5.06,0-9.97-1.36-14.74-4.09-4.77-2.72-8.71-6.66-11.82-11.82-3.12-5.15-4.67-11.33-4.67-18.54s1.56-13.38,4.67-18.53c3.11-5.15,7.05-9.09,11.82-11.82,4.77-2.72,9.68-4.09,14.74-4.09,5.84,0,11.19,1.41,16.05,4.23,4.86,2.82,8.76,6.81,11.68,11.97,2.92,5.16,4.38,11.24,4.38,18.24s-1.46,13.09-4.38,18.24Z"/>
  </g>
  <g>
    <path class="cls-4" d="M317.42,208.7c-4.18-2.36-8.97-3.55-13.76-3.35-4.51-7.49-10.85-11.54-18.9-11.59,1.94-19.42,1.79-45.34,1.14-48.68-21.27-18.16-54.04-33.18-80.61-40.19-8.51-6.31-18.32-9.1-29.98-10.03.69-5.92,1.35-10.92-.19-18.24.16-.15.31-.31.46-.47.94.72,26.02,21.83,27.89,23.36,4.5,3.83,11.43.99,13.6-4.37,2.04-4.44.45-10.16-4.22-11.83-2-.74-33.26-12.14-33.97-12.4,1.27-3.22,1.42-7.07.41-10.38,1.1-.46,31.92-11.61,34.18-12.48,5.57-1.91,6.53-9.56,3.01-13.96-2.89-4.02-8.56-5.46-12.35-2.26-1.64,1.37-27.14,22.73-27.73,23.22-2.2-2.73-5.27-4.72-8.78-5.56.15-1.16,5.91-33.45,6.28-35.82,1.05-5.29-4.1-9.79-9.32-9.67-5.26-.14-10.41,4.28-9.41,9.64.35,2.03,6.13,34.93,6.24,35.59-3.6.55-6.82,2.31-9.22,4.85-.89-.68-26.02-21.84-27.86-23.33-4.5-3.83-11.43-.99-13.6,4.37-2.04,4.44-.45,10.17,4.22,11.83,0,0,30.09,10.99,30.09,10.99l3.82,1.4c-1.28,3.18-1.44,7.12-.41,10.42-.99.42-31.93,11.62-34.11,12.45-5.57,1.91-6.53,9.56-3.01,13.97,2.89,4.02,8.56,5.46,12.35,2.26,0,0,24.56-20.57,24.56-20.57l3.12-2.61c2.56,3.16,6.28,5.33,10.51,5.86.78,4.46.02,8.98-.55,14.1-10.57,1.32-19.45,4.26-27.33,9.87-21.54,1.44-52.04,4.93-61.96,6.38-1.92,16.61-2.51,27.37-2.49,50.72-4.79,6.61-6.93,14.13-7.58,22.99-2.74,1.73-6.03,5.32-8.56,4.49,8.74-15.37-2.34-36.87-20.14-38.04-11.29-.05-12.77,16.77-1.65,18.7,3.84.6,6.61,4.58,5.85,8.39-.61,3.97-4.84,6.76-8.73,5.78-9.67-3.2-2.7-10.12-6.43-15.98-1.66-2.84-4.82-4.62-8.1-4.61-21.48,2.36-7,48.54,24.54,38.24,7.49,7.13,17.42,8.43,25.84,3.9,1.53,4.51,3.67,8.47,6.31,11.69.31,7.2.37,8.45.52,11.39-.03.37.11.97.29,1.3,4.59,13.97,30.22,60.43,42.34,74.39,2.92.1,6.03.22,8.96.3-.13,3.01-.22,5.95-.25,8.79-15.6,1.91-32.96,11.36-33.35,27.3-1.64,13.93,26.7,24.14,41.31,23.08,15.34-.66,38.54-4.69,41.3-22.53,1.35-15.92-16.46-26.33-31.82-27.89.04-2.76.13-5.63.27-8.57,24.92-.18,51.26-2.27,76.45-5.84-.25,2.41-.58,4.96-.96,7.62-14.19,1.86-29.63,10.69-29.98,25.19-1.7,12.93,23.97,22.7,37.62,21.67,13.41,1,38.69-8.47,37.61-21.06,1.27-13.91-13.66-23.8-27.24-25.61.51-3.79.9-7.35,1.15-10.64,25.37-4.6,23.74-4.69,35.73-7.58,3.28-16.81,6.38-34.33,8.7-50.4,2.41,7.95,8.88,16.16,17.56,17.12,6.24.18,11.06-6.51,8.96-12.37-1.01-4.77-6.97-5.22-8.31-9.66-2.22-6.01,4.96-11.92,10.43-8.55,3.25,1.83,4.56,5.77,3.07,9.18-4.4,6.12,0,15.24,7.65,15.11,4.62.1,8.08-3.43,9.61-7.52,5.42-12.32.66-26.59-11.08-33.19Z"/>
    <path class="cls-3" d="M315.52,212.09c-1.47-.83-3.01-1.48-4.59-1.95-3.06-.92-6.27-1.15-9.45-.69-2.99-5.92-6.95-9.64-11.83-11.1-.59-.18-1.2-.32-1.82-.43-2.53-.45-5-.29-7.36.16.45-4.93.83-9.73,1.13-14.38,1.41-21.52.77-32.42.74-32.88l-.14-2.29-.09-1.48-1.17-.92-1.8-1.42c-8.03-6.33-17.29-12.25-27.52-17.59-8.12-4.23-16.87-8.12-26.02-11.55-9.4-3.52-17.24-5.83-22.1-7.13-1.6-1.29-3.4-2.48-5.41-3.56-7.36-3.96-16.96-6.19-27.1-6.3.16-1.67.34-3.2.51-4.66.74-6.31,1.28-11.04-.72-18.74,3.19-2.2,5.28-5.88,5.28-10.04,0-6.73-5.47-12.2-12.2-12.2s-12.2,5.47-12.2,12.2,5.47,12.2,12.2,12.2c.4,0,.79-.02,1.18-.06,1.55,6.25,1.11,10.07.42,15.93-.19,1.66-.41,3.49-.59,5.55-9.27.68-17.97,3.12-24.81,7.01-1.69.96-3.24,1.99-4.64,3.08-6.05.43-12.51.95-19.38,1.57-19.74,1.78-33.71,3.59-33.85,3.61l-4,.52-2.6.34-.28,2.61-.43,4.01c-1.02,9.67-1.5,23.74-1.44,41.98-1.19,1.43-2.27,3.07-3.21,4.9-2.71,5.24-4.26,11.84-4.46,18.82-.89.61-1.75,1.25-2.58,1.87-2.85,2.12-5.79,4.31-8.42,4.61-.81.09-2.99.34-6.51-3.15,1.98-2.69,3.33-5.83,3.94-9.23,1.04-5.84-.25-11.73-3.64-16.59-3.39-4.86-8.47-8.11-14.3-9.16-3.01-.54-5.88,1.47-6.42,4.48-.54,3.01,1.47,5.88,4.48,6.42,2.92.52,5.47,2.15,7.17,4.59,1.7,2.44,2.35,5.39,1.82,8.31-.54,3.02-2.24,5.61-4.8,7.31-2.55,1.7-5.61,2.26-8.61,1.58-5.59-1.26-9.28-6.5-8.58-12.19.06-.48.15-.95.26-1.41.75-2.96-1.04-5.97-4-6.73-2.96-.75-5.98,1.04-6.73,4-.23.91-.41,1.84-.52,2.77-1.41,11.36,5.96,21.83,17.13,24.35,1.65.37,3.31.56,4.95.56,3.2,0,6.34-.7,9.25-2.05,4.56,4.81,9.42,7.24,14.51,7.24.62,0,1.24-.04,1.86-.11,4.21-.48,7.83-2.52,10.92-4.66,1.46,6.62,4.2,12.22,7.77,16.16.28,6.87.5,11.15.5,11.24l.04.89.03.58.22.53.34.82c4.56,10.96,12.56,28.2,24.81,48.07,7.35,11.92,12.73,19.11,12.95,19.41l1.47,1.96.95,1.27,1.59.06,2.45.09c2.32.08,4.66.14,7.02.19-.3,5.26-.49,10.68-.47,16.08-18.96,1.51-33.05,11.37-33.33,23.76v.08s0,.08,0,.08c0,3.77,2.28,9.27,13.12,14.1,7.19,3.2,15.82,4.97,24.3,4.97s17.11-1.77,24.3-4.97c10.59-4.72,13.01-10.08,13.11-13.84.05-1.01.05-1.39.04-1.55-.16-6.98-4.59-13.16-12.47-17.4-5.39-2.9-12.16-4.72-19.42-5.27-.01-5.33.18-10.72.5-15.95,15.62,0,31.91-.75,48.44-2.22,11.95-1.06,24.05-2.51,36.02-4.3-.34,4.61-.96,9.9-1.87,15.69-16.81,1.52-29.24,10.45-29.49,21.67v.08s0,.08,0,.08c0,3.57,2.09,8.75,12.04,13.18,6.42,2.86,14.12,4.44,21.69,4.44s15.27-1.58,21.69-4.44c9.69-4.32,11.92-9.35,12.03-12.9.03-.6.05-1.07.04-1.42-.15-6.47-4.2-12.16-11.41-16.04-4.59-2.47-10.28-4.07-16.39-4.64,1.05-6.94,1.63-12.64,1.88-17.31,18.79-3.14,30.3-5.99,30.83-6.13l3.17-.79,2.06-.51.4-2.08.61-3.21c3.75-19.63,6.82-38.62,9.11-56.44.62-4.84,1.18-9.59,1.69-14.26,2.4-.79,4.72-1.35,6.59-1.02.8.14,2.96.53,5.33,4.89-2.67,2.01-4.86,4.63-6.42,7.71-2.67,5.29-3.12,11.31-1.27,16.94,1.85,5.63,5.79,10.2,11.08,12.87,2.73,1.38,6.06.28,7.44-2.45,1.38-2.73.28-6.06-2.45-7.44-2.65-1.34-4.62-3.63-5.55-6.45-.93-2.82-.7-5.84.64-8.49,1.38-2.74,3.76-4.73,6.69-5.63,2.93-.89,6.02-.55,8.71.96,5,2.81,7.03,8.89,4.72,14.14-.19.44-.41.87-.66,1.27-1.57,2.62-.72,6.02,1.9,7.59,2.62,1.57,6.02.72,7.59-1.9.48-.8.92-1.64,1.3-2.51,4.61-10.48.56-22.62-9.42-28.24Z"/>
    <path class="cls-1" d="M228.37,317.68c-.04.25-.09.49-.13.74-.44,2.44-2.56,4.15-4.95,4.15-.3,0-.59-.03-.89-.08-2.31-.41-3.96-2.34-4.13-4.57-12.01,1.56-21.06,7.56-21.22,14.47,0,3.73,11.88,10.43,26.53,10.43s26.53-6.7,26.53-10.43c.01-.22.04-.76.04-.98-.17-7.06-9.53-12.72-21.78-13.73Z"/>
    <path class="cls-1" d="M160.97,340.19c-.19-7.99-10.73-14.41-24.55-15.61.01.31.02.62.04.92.12,2.66-1.94,4.92-4.6,5.04-.07,0-.15,0-.22,0-2.56,0-4.7-2.02-4.81-4.6-.02-.45-.04-.9-.06-1.34-14.72,1.32-26.09,8.44-26.28,16.71,0,4.25,13.53,11.88,30.22,11.88s30.22-7.63,30.22-11.88c.01-.25.05-.86.04-1.11Z"/>
    <path class="cls-4" d="M273.93,151.36v.04s0-.03,0-.04Z"/>
    <path class="cls-4" d="M274.03,153.9c-80.29,4.59-137.75,7.47-149.48,8.05-1.11,11.74-6.1,69.14-3.33,130.75,5.21.17,10.36.25,15.45.25,67.51,0,123.54-14,123.54-14,14.01-73.21,14.08-114.73,13.82-125.05ZM174,184.95c4.29,0,7.77,6.82,7.77,15.24s-3.48,15.24-7.77,15.24-7.77-6.82-7.77-15.24,3.48-15.24,7.77-15.24ZM200.42,260.61c-20.81,2.21-35.63-13.87-35.63-13.87l68.74-5.36s-12.3,17.03-33.11,19.24ZM236.44,197.29c-.65,7.61-4.32,13.5-8.19,13.17-3.88-.33-6.5-6.76-5.85-14.37.65-7.61,4.32-13.5,8.19-13.17,3.88.33,6.5,6.76,5.85,14.37Z"/>
    <path class="cls-2" d="M211.44,119.58c.47,1.57.74,3.18.78,4.84,0,.15.01.59-.05,1.74-.07,2.69-1.26,6.43-6.31,9.47-2.41,1.45-5.66,2.7-9.64,3.71-7.35,1.87-17.01,2.9-27.19,2.9s-19.84-1.03-27.19-2.9c-3.98-1.01-7.23-2.26-9.64-3.71-5.22-3.14-6.31-7.02-6.31-9.73v-.16c.06-2.72.73-5.35,1.94-7.85-19.15,1.53-34.64,3.31-41.19,4.1,5.12,4.61,21.21,19.27,36.6,34.9,8.7-.43,66.06-3.29,147.58-7.93-20.51-15.28-44.32-24.55-59.38-29.38Z"/>
    <g>
      <path class="cls-1" d="M170.07,12.97l-5.53,31.56-5.53-31.56c-.43-2.44,1.7-4.69,4.76-5.03,3.61-.45,6.86,2.16,6.31,5.03h0Z"/>
      <path class="cls-1" d="M121.81,33.71l24.56,20.57-30.09-10.99c-2.32-.85-3.21-3.82-1.98-6.64,1.42-3.35,5.3-4.86,7.51-2.95h0Z"/>
      <path class="cls-1" d="M115.65,85.87l30.09-10.99-24.56,20.57c-1.9,1.59-4.91.87-6.74-1.61-2.19-2.9-1.56-7.02,1.2-7.98h0Z"/>
      <path class="cls-1" d="M205.98,96.55l-24.56-20.57,30.09,10.99c2.32.85,3.21,3.82,1.98,6.64-1.42,3.35-5.3,4.86-7.51,2.95h0Z"/>
      <path class="cls-1" d="M212.15,44.39l-30.09,10.99,24.56-20.57c1.9-1.59,4.91-.87,6.74,1.61,2.19,2.9,1.56,7.02-1.2,7.98h0Z"/>
    </g>
    <path class="cls-5" d="M119.55,160.45c-15.54-15.79-31.8-30.56-36.58-34.87-.75,8.79-1.05,20.09-1.09,31.95,1.39-.45,2.82-.71,4.29-.74.07,0,.14,0,.23,0,.35,0,.8.02,1.15.04,4.93.14,9.31,4.2,12.68,11.76,2.78,6.23,4.3,13.7,4.3,21.03s-1.53,14.81-4.3,21.03c-3.43,7.7-7.91,11.76-12.95,11.76h-.16c-1.27-.03-2.51-.23-3.72-.57.15,3.29.24,5.18.24,5.18,11.14,26.8,25.13,48.85,32.19,59.23-2.23-61.34,2.86-117,3.72-125.8Z"/>
    <path class="cls-1" d="M87.28,164.01c-.19-.01-.65-.03-.88-.03-.02,0-.04,0-.06,0-6.59.16-11.91,8.61-13.13,19.86,1.16-.18,2.36-.18,3.61.07,3,.6,4.94,3.52,4.34,6.52-.59,2.94-3.42,4.87-6.36,4.36-.32.06-.81.31-1.37.65,1.65,11.24,7.33,19.62,13.86,19.77,3.6,0,10.06-11.46,10.06-25.6s-6.46-25.6-10.06-25.6Z"/>
    <path class="cls-1" d="M205.02,124.59c-.25-10.5-15.52-18.72-34.49-18.81-.04,1.27-.07,2.62-.07,4.08,0,1.68-1.36,3.04-3.04,3.04s-3.04-1.36-3.04-3.04c0-1.35.02-2.62.06-3.82-17.55,1.55-31.13,10.03-31.35,19.88,0,5.05,16.09,9.14,35.95,9.14s35.95-4.09,35.95-9.14c.02-.29.05-1.03.05-1.32Z"/>
    <path class="cls-1" d="M163.87,59.02c3.38,0,6.11,2.74,6.11,6.11s-2.74,6.11-6.11,6.11-6.11-2.74-6.11-6.11,2.74-6.11,6.11-6.11"/>
  </g>
</svg>