<?xml version="1.0" encoding="UTF-8"?>
<svg id="Layer_1" data-name="Layer 1" xmlns="http://www.w3.org/2000/svg" viewBox="0 0 1024 1500">
  <defs>
    <style>
      .cls-1 {
        fill: #fe4a00;
      }

      .cls-2 {
        fill: #bababa;
      }

      .cls-3 {
        fill: #1e1b22;
      }

      .cls-4 {
        fill: #fff;
      }

      .cls-5 {
        fill: #636466;
      }
    </style>
  </defs>
  <g>
    <path class="cls-4" d="M941.32,584.43c-11.9-6.72-25.52-10.09-39.16-9.54-12.83-21.3-30.86-32.83-53.77-32.97,5.53-55.24,5.1-128.99,3.24-138.5-60.51-51.67-153.74-94.4-229.35-114.35-24.2-17.96-52.11-25.9-85.29-28.55,1.96-16.84,3.83-31.08-.55-51.88.44-.44.87-.88,1.3-1.34,2.67,2.06,74.03,62.12,79.35,66.45,12.8,10.91,32.53,2.83,38.7-12.44,5.79-12.62,1.27-28.92-12-33.65-5.7-2.09-94.62-34.53-96.66-35.29,3.63-9.16,4.05-20.12,1.15-29.53,3.13-1.32,90.81-33.03,97.24-35.5,15.85-5.43,18.58-27.2,8.57-39.73-8.21-11.43-24.35-15.53-35.14-6.44-4.66,3.88-77.22,64.68-78.9,66.07-6.26-7.75-14.98-13.43-24.98-15.82.42-3.29,16.8-95.17,17.87-101.91,2.97-15.05-11.66-27.86-26.5-27.51-14.98-.41-29.61,12.18-26.76,27.43.99,5.77,17.44,99.37,17.75,101.25-10.26,1.58-19.39,6.58-26.22,13.79-2.53-1.95-74.04-62.13-79.27-66.38-12.8-10.91-32.52-2.83-38.69,12.44-5.79,12.62-1.27,28.92,12,33.65,0,0,85.63,31.26,85.63,31.26l10.87,3.97c-3.63,9.05-4.1,20.26-1.17,29.65-2.83,1.19-90.86,33.05-97.06,35.43-15.85,5.43-18.58,27.2-8.57,39.73,8.21,11.42,24.35,15.53,35.14,6.43,0,0,69.88-58.52,69.88-58.52l8.88-7.43c7.27,8.98,17.86,15.16,29.89,16.66,2.23,12.68.06,25.56-1.55,40.11-30.07,3.75-55.35,12.12-77.75,28.07-61.28,4.11-148.06,14.04-176.28,18.15-5.45,47.27-7.14,77.86-7.08,144.31-13.63,18.8-19.73,40.21-21.57,65.42-7.78,4.93-17.16,15.13-24.36,12.76,24.88-43.72-6.66-104.91-57.31-108.23-32.12-.15-36.34,47.71-4.69,53.21,10.92,1.72,18.81,13.02,16.64,23.87-1.74,11.29-13.78,19.24-24.83,16.45-27.53-9.11-7.68-28.79-18.3-45.48-4.73-8.09-13.7-13.15-23.06-13.11-61.13,6.72-19.92,138.1,69.82,108.82,21.31,20.3,49.56,23.99,73.51,11.09,4.36,12.83,10.44,24.11,17.94,33.26.89,20.49,1.05,24.04,1.48,32.4-.09,1.06.31,2.77.83,3.69,13.06,39.76,85.97,171.94,120.48,211.65,8.29.28,17.17.62,25.51.86-.38,8.57-.63,16.93-.72,25.02-44.39,5.43-93.78,32.32-94.89,77.67-4.67,39.64,75.96,68.7,117.53,65.67,43.65-1.89,109.65-13.34,117.51-64.1,3.84-45.3-46.84-74.91-90.55-79.35.11-7.85.37-16.01.77-24.4,70.9-.5,145.85-6.45,217.53-16.61-.72,6.86-1.64,14.1-2.73,21.68-40.38,5.29-84.32,30.42-85.3,71.66-4.83,36.8,68.21,64.58,107.03,61.65,38.16,2.84,110.08-24.1,107.01-59.92,3.62-39.57-38.88-67.71-77.52-72.88,1.46-10.79,2.55-20.92,3.27-30.28,72.19-13.1,67.55-13.36,101.67-21.57,9.33-47.83,18.16-97.68,24.76-143.4,6.86,22.61,25.27,45.97,49.97,48.71,17.75.51,31.47-18.52,25.49-35.2-2.87-13.56-19.84-14.85-23.66-27.49-6.3-17.1,14.12-33.91,29.69-24.33,9.24,5.2,12.99,16.43,8.73,26.12-12.51,17.41-.02,43.37,21.75,42.99,13.14.29,22.98-9.76,27.34-21.41,15.42-35.05,1.87-75.66-31.52-94.44Z"/>
    <path class="cls-3" d="M935.9,594.07c-4.19-2.36-8.57-4.21-13.05-5.56-8.71-2.61-17.84-3.28-26.88-1.96-8.49-16.83-19.77-27.42-33.65-31.57-1.68-.5-3.41-.91-5.17-1.23-7.19-1.28-14.24-.83-20.94.46,1.28-14.02,2.35-27.68,3.22-40.91,4.01-61.24,2.2-92.25,2.12-93.54l-.4-6.5-.26-4.22-3.32-2.62-5.12-4.04c-22.84-18.02-49.18-34.86-78.3-50.05-23.1-12.05-48.01-23.11-74.05-32.87-26.73-10.03-49.05-16.59-62.88-20.3-4.56-3.66-9.68-7.06-15.41-10.14-20.94-11.28-48.25-17.6-77.11-17.92.46-4.75.96-9.1,1.45-13.25,2.1-17.95,3.65-31.4-2.06-53.33,9.07-6.27,15.03-16.74,15.03-28.58,0-19.14-15.57-34.72-34.72-34.72s-34.72,15.57-34.72,34.72,15.57,34.72,34.72,34.72c1.13,0,2.25-.06,3.35-.16,4.41,17.79,3.15,28.66,1.19,45.34-.55,4.72-1.16,9.92-1.69,15.8-26.37,1.93-51.13,8.88-70.59,19.94-4.81,2.73-9.21,5.67-13.21,8.78-17.22,1.23-35.6,2.7-55.15,4.47-56.15,5.07-95.92,10.23-96.32,10.28l-11.39,1.48-7.39.96-.78,7.41-1.21,11.42c-2.91,27.5-4.28,67.53-4.09,119.44-3.38,4.07-6.45,8.73-9.14,13.94-7.7,14.91-12.12,33.68-12.7,53.55-2.52,1.74-4.97,3.56-7.34,5.33-8.1,6.03-16.48,12.27-23.95,13.13-2.3.26-8.51.96-18.53-8.97,5.63-7.66,9.47-16.58,11.2-26.26,2.96-16.6-.72-33.37-10.36-47.2-9.64-13.84-24.1-23.09-40.7-26.05-8.56-1.53-16.74,4.17-18.27,12.74-1.53,8.56,4.17,16.74,12.74,18.27,8.32,1.48,15.56,6.12,20.4,13.05,4.83,6.93,6.68,15.33,5.19,23.65-1.53,8.59-6.38,15.97-13.65,20.8-7.26,4.82-15.97,6.42-24.51,4.5-15.92-3.58-26.41-18.49-24.4-34.67.17-1.36.42-2.71.75-4.01,2.14-8.43-2.96-17-11.39-19.14-8.43-2.14-17,2.96-19.14,11.39-.66,2.58-1.15,5.23-1.48,7.89-4.01,32.33,16.94,62.12,48.74,69.28,4.7,1.06,9.42,1.58,14.1,1.58,9.09,0,18.03-1.98,26.31-5.83,12.97,13.69,26.8,20.59,41.29,20.59,1.76,0,3.53-.1,5.3-.3,11.99-1.37,22.28-7.18,31.06-13.26,4.17,18.84,11.94,34.77,22.11,45.98.8,19.56,1.41,31.73,1.42,31.98l.13,2.52.08,1.64.63,1.51.97,2.33c12.97,31.19,35.75,80.24,70.6,136.76,20.91,33.91,36.21,54.38,36.85,55.23l4.18,5.57,2.71,3.62,4.52.16,6.96.24c6.59.23,13.27.4,19.99.53-.87,14.96-1.38,30.39-1.34,45.75-53.96,4.31-94.04,32.34-94.83,67.61v.23s0,.23,0,.23c0,10.71,6.48,26.37,37.32,40.13,20.45,9.12,45.01,14.14,69.14,14.14s48.69-5.02,69.14-14.14c30.13-13.43,37.01-28.69,37.31-39.37.16-2.89.13-3.95.12-4.42-.47-19.85-13.07-37.44-35.48-49.51-15.34-8.26-34.61-13.44-55.26-14.99-.03-15.17.51-30.5,1.41-45.39,44.44,0,90.8-2.13,137.81-6.32,34.01-3.03,68.43-7.14,102.48-12.23-.96,13.13-2.74,28.16-5.32,44.64-47.83,4.34-83.2,29.74-83.92,61.65v.23s0,.23,0,.23c0,10.15,5.94,24.89,34.25,37.51,18.27,8.15,40.19,12.63,61.72,12.63s43.45-4.49,61.72-12.63c27.57-12.29,33.93-26.6,34.24-36.72.09-1.69.13-3.05.11-4.04-.43-18.4-11.96-34.6-32.47-45.64-13.06-7.03-29.26-11.57-46.65-13.2,2.99-19.74,4.63-35.95,5.35-49.24,53.47-8.93,86.21-17.05,87.72-17.43l9.03-2.26,5.85-1.46,1.13-5.93,1.75-9.13c10.68-55.85,19.41-109.88,25.92-160.58,1.77-13.77,3.37-27.29,4.81-40.56,6.82-2.26,13.42-3.85,18.75-2.9,2.28.41,8.43,1.52,15.18,13.91-7.59,5.73-13.83,13.16-18.26,21.94-7.6,15.05-8.89,32.17-3.62,48.19,5.27,16.02,16.46,29.03,31.52,36.63,7.76,3.92,17.24.81,21.16-6.96,3.92-7.76.8-17.24-6.96-21.16-7.54-3.81-13.15-10.33-15.79-18.36-2.64-8.03-2-16.6,1.81-24.15,3.93-7.78,10.69-13.47,19.04-16.01,8.34-2.54,17.14-1.57,24.77,2.73,14.22,8,19.99,25.29,13.43,40.22-.55,1.25-1.18,2.47-1.87,3.63-4.47,7.46-2.05,17.13,5.41,21.6,7.46,4.47,17.13,2.05,21.6-5.42,1.37-2.28,2.61-4.68,3.69-7.14,13.12-29.82,1.59-64.37-26.81-80.35Z"/>
    <path class="cls-1" d="M687.96,894.49c-.13.71-.24,1.39-.37,2.11-1.24,6.94-7.28,11.81-14.09,11.81-.84,0-1.69-.07-2.54-.23-6.57-1.18-11.26-6.66-11.75-13.01-34.18,4.45-59.93,21.5-60.37,41.17,0,10.61,33.8,29.67,75.5,29.67s75.5-19.06,75.5-29.67c.04-.61.11-2.16.1-2.78-.47-20.08-27.12-36.2-61.97-39.07Z"/>
    <path class="cls-1" d="M496.18,958.53c-.54-22.73-30.52-40.99-69.85-44.42.04.88.07,1.75.11,2.62.34,7.57-5.51,13.99-13.09,14.33-.21,0-.42.01-.63.01-7.29,0-13.36-5.74-13.7-13.1-.06-1.27-.11-2.55-.16-3.82-41.88,3.75-74.24,24-74.77,47.54,0,12.08,38.5,33.79,85.99,33.79s85.99-21.71,85.99-33.79c.04-.7.13-2.46.11-3.16Z"/>
    <path class="cls-4" d="M817.59,421.27v.12c0-.05,0-.09,0-.12Z"/>
    <path class="cls-4" d="M817.86,428.51c-228.45,13.05-391.94,21.25-425.3,22.9-3.17,33.4-17.35,196.72-9.47,372,14.81.49,29.47.72,43.97.72,192.09,0,351.49-39.85,351.49-39.85,39.85-208.3,40.06-326.44,39.32-355.78ZM533.26,516.85c12.21,0,22.11,19.42,22.11,43.37s-9.9,43.37-22.11,43.37-22.11-19.42-22.11-43.37,9.9-43.37,22.11-43.37ZM608.42,732.1c-59.21,6.28-101.38-39.48-101.38-39.48l195.59-15.25s-34.99,48.45-94.2,54.73ZM710.92,551.96c-1.84,21.64-12.28,38.42-23.31,37.48-11.03-.94-18.49-19.24-16.65-40.88,1.84-21.64,12.28-38.42,23.31-37.48,11.03.94,18.49,19.24,16.65,40.88Z"/>
    <path class="cls-2" d="M639.78,330.86c1.33,4.46,2.1,9.06,2.21,13.78,0,.43.04,1.69-.14,4.96-.2,7.65-3.57,18.29-17.95,26.93-6.87,4.13-16.09,7.68-27.42,10.57-20.92,5.32-48.4,8.25-77.37,8.25s-56.45-2.93-77.37-8.25c-11.33-2.88-20.56-6.44-27.42-10.57-14.84-8.93-17.96-19.98-17.96-27.67v-.46c.18-7.74,2.08-15.23,5.52-22.33-54.48,4.35-98.56,9.4-117.18,11.66,14.57,13.13,60.35,54.82,104.14,99.3,24.75-1.22,187.95-9.35,419.9-22.57-58.36-43.46-126.11-69.85-168.95-83.59Z"/>
    <g>
      <path class="cls-1" d="M522.06,27.53l-15.74,89.78-15.74-89.78c-1.22-6.94,4.85-13.34,13.54-14.32,10.27-1.28,19.52,6.15,17.94,14.32h0Z"/>
      <path class="cls-1" d="M384.78,86.53l69.88,58.52-85.63-31.26c-6.61-2.41-9.13-10.87-5.63-18.88,4.03-9.53,15.08-13.83,21.37-8.38h0Z"/>
      <path class="cls-1" d="M367.23,234.93l85.63-31.26-69.88,58.52c-5.4,4.52-13.98,2.48-19.17-4.57-6.24-8.26-4.43-19.98,3.43-22.7h0Z"/>
      <path class="cls-1" d="M624.25,265.32l-69.88-58.52,85.63,31.26c6.61,2.41,9.13,10.87,5.63,18.88-4.03,9.53-15.08,13.83-21.37,8.38h0Z"/>
      <path class="cls-1" d="M641.8,116.93l-85.63,31.26,69.88-58.52c5.4-4.52,13.98-2.48,19.17,4.57,6.24,8.26,4.43,19.98-3.43,22.7h0Z"/>
    </g>
    <path class="cls-5" d="M378.34,447.12c-44.23-44.91-90.48-86.95-104.09-99.2-2.12,25-2.98,57.16-3.1,90.9,3.95-1.28,8.02-2.02,12.2-2.12.19,0,.41,0,.65,0,1,0,2.27.05,3.27.11,14.03.4,26.5,11.95,36.09,33.46,7.9,17.72,12.25,38.97,12.25,59.84s-4.35,42.12-12.25,59.84c-9.76,21.9-22.5,33.47-36.85,33.47h-.46c-3.62-.09-7.15-.65-10.58-1.61.42,9.35.69,14.73.69,14.73,31.71,76.24,71.5,138.98,91.6,168.53-6.33-174.53,8.13-332.89,10.58-357.94Z"/>
    <path class="cls-1" d="M286.52,457.26c-.55-.03-1.84-.1-2.51-.1-.06,0-.12,0-.17,0-18.74.44-33.89,24.51-37.37,56.51,3.3-.51,6.72-.52,10.28.2,8.53,1.71,14.05,10.02,12.33,18.55-1.69,8.38-9.73,13.86-18.09,12.42-.92.18-2.31.88-3.91,1.85,4.68,31.98,20.85,55.83,39.44,56.25,10.23,0,28.62-32.61,28.62-72.84s-18.39-72.84-28.62-72.84Z"/>
    <path class="cls-1" d="M621.52,345.09c-.7-29.87-44.16-53.26-98.14-53.53-.12,3.62-.19,7.46-.19,11.6,0,4.78-3.88,8.66-8.66,8.66s-8.66-3.88-8.66-8.66c0-3.83.06-7.45.16-10.88-49.95,4.4-88.57,28.53-89.2,56.57,0,14.37,45.79,26.02,102.28,26.02s102.28-11.65,102.28-26.02c.05-.83.15-2.92.13-3.76Z"/>
    <path class="cls-1" d="M504.42,158.55c9.6,0,17.39,7.79,17.39,17.39s-7.79,17.39-17.39,17.39-17.39-7.79-17.39-17.39,7.79-17.39,17.39-17.39"/>
  </g>
  <g>
    <rect class="cls-4" x="538.65" y="1222.18" width="58.5" height="184.33"/>
    <path class="cls-4" d="M592.95,1129.41c-6.81-6.01-15.17-9.02-25.05-9.02s-17.9,3.01-24.84,9.02c-6.95,6.01-10.42,13.82-10.42,23.44s3.47,17.5,10.42,23.64c6.94,6.15,15.23,9.22,24.84,9.22s18.23-3.07,25.05-9.22c6.81-6.14,10.22-14.03,10.22-23.64s-3.41-17.43-10.22-23.44Z"/>
    <path class="cls-4" d="M717.77,1218.17c-20.31,0-38.54,4.01-54.7,12.02-16.17,8.01-28.85,19.17-38.07,33.46-9.22,14.29-13.82,31.19-13.82,50.69s4.61,36.07,13.82,50.49c9.22,14.43,21.9,25.65,38.07,33.66,16.16,8.01,34.39,12.02,54.7,12.02,13.89,0,25.65-1.54,35.26-4.61,9.62-3.07,17.63-7.14,24.04-12.22v-58.91c-3.74,5.88-8.48,10.82-14.23,14.83-5.75,4.01-12.02,7.15-18.83,9.42-6.81,2.27-13.96,3.41-21.44,3.41-8.82,0-17.03-2-24.64-6.01-7.61-4.01-13.56-9.55-17.83-16.63-4.28-7.08-6.41-15.56-6.41-25.45,0-9.08,2.13-17.23,6.41-24.44,4.27-7.21,10.22-12.95,17.83-17.23,7.61-4.27,15.83-6.41,24.64-6.41,6.67,0,13.49,1.07,20.44,3.21,6.94,2.14,13.42,5.21,19.43,9.22,6.01,4.01,10.88,8.95,14.63,14.83v-59.31c-6.41-4.54-14.43-8.35-24.04-11.42-9.62-3.07-21.38-4.61-35.26-4.61Z"/>
    <path class="cls-4" d="M871.84,1272.67c7.61-4.27,15.83-6.41,24.64-6.41,6.67,0,13.49,1.07,20.44,3.21,6.94,2.14,13.42,5.21,19.43,9.22,6.01,4.01,10.88,8.95,14.63,14.83v-59.31c-6.41-4.54-14.43-8.35-24.04-11.42-9.62-3.07-21.38-4.61-35.26-4.61-20.31,0-38.54,4.01-54.7,12.02-16.17,8.01-28.85,19.17-38.07,33.46-9.22,14.29-13.82,31.19-13.82,50.69s4.61,36.07,13.82,50.49c9.22,14.43,21.9,25.65,38.07,33.66,16.16,8.01,34.39,12.02,54.7,12.02,13.89,0,25.65-1.54,35.26-4.61,9.62-3.07,17.63-7.14,24.04-12.22v-58.91c-3.74,5.88-8.48,10.82-14.23,14.83-5.75,4.01-12.02,7.15-18.83,9.42-6.81,2.27-13.96,3.41-21.44,3.41-8.82,0-17.03-2-24.64-6.01-7.61-4.01-13.56-9.55-17.83-16.63-4.28-7.08-6.41-15.56-6.41-25.45,0-9.08,2.13-17.23,6.41-24.44,4.27-7.21,10.22-12.95,17.83-17.23Z"/>
    <path class="cls-4" d="M229.71,1376.89v82.84l60.51,34.94v-272.49h-60.51v29.51c-5.6-9.72-12.67-17.62-21.24-23.7-11.49-8.15-25.38-12.22-41.68-12.22-14.96,0-29.12,3.74-42.48,11.22-13.36,7.48-24.24,18.5-32.66,33.06-8.42,14.56-12.62,32.66-12.62,54.3s4.21,39.41,12.62,54.1c8.42,14.69,19.3,25.78,32.66,33.26,13.35,7.48,27.51,11.22,42.48,11.22,16.29,0,30.19-4.08,41.68-12.22,8.56-6.08,15.64-14.02,21.24-23.81ZM186.83,1359.23c-8.01,0-15.37-1.73-22.04-5.21-6.68-3.47-12.02-8.55-16.03-15.23-4.01-6.67-6.01-14.83-6.01-24.44s2-17.76,6.01-24.44c4.01-6.67,9.35-11.75,16.03-15.23,6.67-3.47,14.02-5.21,22.04-5.21,6.94,0,13.69,1.67,20.24,5.01,6.54,3.34,11.95,8.35,16.23,15.03,4.27,6.68,6.41,14.96,6.41,24.84s-2.14,18.17-6.41,24.84c-4.28,6.68-9.69,11.69-16.23,15.03-6.55,3.34-13.29,5.01-20.24,5.01Z"/>
    <path class="cls-4" d="M511.21,1261.85c-8.42-14.16-19.23-24.98-32.46-32.46-13.22-7.48-27.45-11.22-42.68-11.22s-28.85,3.88-40.87,11.62c-8.67,5.59-16.01,12.92-22.04,21.91v-122.86l-60.45-34.9h-.06v312.56h60.51v-29.63c6.03,9.07,13.37,16.43,22.04,22.02,12.02,7.74,25.65,11.62,40.87,11.62s29.45-3.74,42.68-11.22c13.22-7.48,24.04-18.36,32.46-32.66,8.42-14.29,12.62-31.72,12.62-52.29s-4.21-38.33-12.62-52.49ZM454.11,1339.39c-4.01,7.08-9.35,12.56-16.03,16.43-6.68,3.88-14.02,5.81-22.04,5.81-6.95,0-13.69-1.87-20.24-5.61-6.55-3.74-11.96-9.15-16.23-16.23-4.28-7.08-6.41-15.56-6.41-25.45s2.13-18.36,6.41-25.45c4.27-7.08,9.68-12.48,16.23-16.23,6.54-3.74,13.29-5.61,20.24-5.61,8.01,0,15.36,1.94,22.04,5.81,6.67,3.88,12.02,9.35,16.03,16.43,4.01,7.08,6.01,15.43,6.01,25.04s-2,17.97-6.01,25.05Z"/>
  </g>
</svg>