<?xml version="1.0" encoding="UTF-8"?>
<svg id="Layer_1" data-name="Layer 1" xmlns="http://www.w3.org/2000/svg" viewBox="0 0 2670 286">
  <rect x="4" y="4" width="278.72" height="278.72" style="fill: #000; stroke-width: 0px;"/>
  <path d="M231.16,24.81h20.36c1.06,0,1.79,1.06,1.41,2.04-2.89,7.59-11.12,25.68-30.8,39.47-1.05.74-2.49-.09-2.37-1.37,2.08-23.38,7.84-35.28,10.07-39.36.26-.48.77-.78,1.32-.78Z" style="fill: #fff; stroke-width: 0px;"/>
  <path d="M213.34,26.94c-3.04,6.84-5.35,14.41-7.06,22.33-.26,1.18-1.73,1.61-2.56.73-3.23-3.4-9.38-10.96-14.3-23.12-.4-.99.34-2.07,1.4-2.07h21.15c1.09,0,1.82,1.13,1.38,2.13Z" style="fill: #fff; stroke-width: 0px;"/>
  <path d="M112.54,24.81h9.49c.85,0,1.53.7,1.51,1.55-.95,38.16,1.87,72.73,3.71,92.55.1,1.04-.86,1.86-1.87,1.6-4.81-1.21-16.69-4.23-25.37-6.62-.47-.13-.85-.48-1.02-.94-2.96-8.29-10.57-30.27-13.2-39.07-.21-.69.11-1.43.75-1.76,14.16-7.44,21.73-26.71,24.51-45.99.11-.75.74-1.3,1.49-1.3Z" style="fill: #fff; stroke-width: 0px;"/>
  <path d="M104.81,26.62c-1.81,9.06-7.06,29.13-19.77,37.09-.87.54-2.01.07-2.26-.92-3.78-15-5.79-28.2-6.65-36.31-.09-.89.61-1.67,1.5-1.67h25.7c.95,0,1.67.87,1.48,1.81Z" style="fill: #fff; stroke-width: 0px;"/>
  <path d="M26.32,24.81h35.2c.81,0,1.47.64,1.51,1.45.42,9.73,1.49,19.41,3.04,29.01.17,1.03-.74,1.92-1.77,1.73-16.44-3.01-29.31-6.79-38.58-10.69-.56-.23-.92-.78-.92-1.39v-18.6c0-.83.68-1.51,1.51-1.51Z" style="fill: #fff; stroke-width: 0px;"/>
  <path d="M26.92,55.38c14.78,6.4,32.05,10.57,40.53,12.42.58.13,1.03.58,1.15,1.17,2.5,12.09,5.65,24.07,9.1,35.93.34,1.16-.74,2.22-1.9,1.86-9.56-2.99-34.24-10.95-50.23-19.94-.47-.27-.76-.77-.76-1.31v-28.75c0-1.09,1.11-1.82,2.11-1.38Z" style="fill: #fff; stroke-width: 0px;"/>
  <path d="M24.81,262.41v-41.5c0-1.09,1.11-1.82,2.11-1.39,10.92,4.73,49.85,20,116.42,20.85.72,0,1.33.52,1.46,1.22,1.31,6.85,2.67,13.69,4.08,20.52.19.94-.52,1.81-1.48,1.81H26.32c-.83,0-1.51-.68-1.51-1.51Z" style="fill: #fff; stroke-width: 0px;"/>
  <path d="M263.34,174.52c-6.44,4.97-13.27,9.55-20.28,13.75-.96.57-2.18-.04-2.28-1.15-.73-7.93-1.36-34.46,20.53-58.18.94-1.01,2.63-.36,2.63,1.02v43.37c0,.47-.22.91-.59,1.2Z" style="fill: #fff; stroke-width: 0px;"/>
  <path d="M263.52,71.43c-9.59,10.2-22.79,19.9-41.91,28.82-.97.45-2.09-.21-2.15-1.28-.38-6.61-.56-13.44-.42-20.29.01-.52.29-.99.73-1.26,4.92-3,29.96-19.28,39.57-51.52.19-.64.78-1.09,1.45-1.09h1.63c.83,0,1.51.68,1.51,1.51v44.08c0,.38-.14.75-.41,1.04Z" style="fill: #fff; stroke-width: 0px;"/>
  <path d="M64.69,207.02c-5.92-20.66-19.68-41.44-37.31-58.68-.95-.93-2.56-.25-2.56,1.08v45.62c0,.58.33,1.11.85,1.36,14.93,7.18,31.14,11.15,37.24,12.5,1.12.25,2.09-.79,1.78-1.89Z" style="fill: #fff; stroke-width: 0px;"/>
  <g>
    <path d="M232.49,175.68l-6.75-6.24c-.97-.89-2.53-.21-2.53,1.11v26c0,1.13,1.19,1.85,2.19,1.35,2.41-1.21,4.81-2.45,7.19-3.72.55-.3.86-.9.78-1.52-.65-5.21-.77-10.5-.39-15.76.03-.46-.14-.9-.48-1.22Z" style="fill: #fff; stroke-width: 0px;"/>
    <path d="M199.55,132.87l33.09,30.87c.85.79,2.23.37,2.5-.76,1.14-4.71,2.68-9.32,4.59-13.75,5.24-12.12,13.65-22.79,23.67-31.33.34-.29.53-.7.53-1.15v-17.02c0-1.26-1.46-1.96-2.45-1.18-17.8,14.1-39.42,24.4-61.38,31.78-1.08.36-1.38,1.75-.54,2.53Z" style="fill: #fff; stroke-width: 0px;"/>
  </g>
  <path d="M169.81,105.12l9.79,9.14c.38.35.91.49,1.42.36,6.77-1.78,13.5-3.8,20.12-6.1.63-.22,1.04-.82,1.01-1.48-.53-14.14-.2-30.2,1.99-45.66.07-.49-.1-.97-.46-1.31-2.94-2.74-15.62-15.97-19.91-34.1-.16-.68-.77-1.15-1.47-1.15h-15.97c-.84,0-1.52.69-1.51,1.53.18,11.59,2.33,56.86,4.51,77.83.04.36.21.7.47.94Z" style="fill: #fff; stroke-width: 0px;"/>
  <path d="M92.39,169.45l-7.14,6.59c-.61.56-1.56.53-2.13-.08l-3.97-4.25c-.57-.61-.54-1.57.07-2.13l31.55-29.43c.85-.8.52-2.22-.6-2.55-24.8-7.37-58.68-18.4-83.17-30.99-1-.52-2.2.21-2.2,1.34v29.14c0,.44.2.86.53,1.15,33.35,28.38,44.88,57.61,48.47,71.94.14.58.62,1.02,1.2,1.12,6.04,1.06,12.12,1.94,18.22,2.65.9.1,1.68-.6,1.68-1.5v-41.88c0-1.32-1.57-2-2.53-1.11Z" style="fill: #fff; stroke-width: 0px;"/>
  <path d="M158.03,108.16l-53.8,50.3c-.31.29-.48.68-.48,1.1v51.01c0,.83.68,1.51,1.51,1.51h35.52c.83,0,1.51-.68,1.51-1.51v-48.32c0-.83.68-1.51,1.51-1.51h29.91c.83,0,1.51.68,1.51,1.51v48.32c0,.83.68,1.51,1.51,1.51h15.51c.18,0,.35-.03.52-.09,7-2.55,13.92-5.37,20.72-8.42.54-.24.89-.78.89-1.38v-42.63c0-.42-.17-.82-.48-1.1l-53.8-50.3c-.58-.54-1.48-.54-2.06,0Z" style="fill: #fff; stroke-width: 0px;"/>
  <path d="M191.94,239.34c1.14,5.02,4.46,19.25,5.44,23.42.16.68.77,1.16,1.47,1.16h63.57c.83,0,1.51-.68,1.51-1.51v-60.12c0-1.23-1.39-1.94-2.39-1.23-29.28,21.02-62,33.99-68.66,36.53-.7.27-1.1,1.01-.93,1.74Z" style="fill: #fff; stroke-width: 0px;"/>
  <g>
    <path d="M452.8,171.6c-3.67,3.87-7.87,6.9-12.6,9.1-4.73,2.2-9.97,3.3-15.7,3.3-8.27,0-15.6-2.03-22-6.1-6.4-4.07-11.4-9.67-15-16.8-3.6-7.13-5.4-15.37-5.4-24.7s1.77-17.53,5.3-24.6c3.53-7.07,8.47-12.63,14.8-16.7,6.33-4.07,13.57-6.1,21.7-6.1,5.6,0,10.8,1.03,15.6,3.1,4.8,2.07,9.07,4.93,12.8,8.6,3.73,3.67,6.73,7.97,9,12.9l25.4-9.4c-3.33-7.87-8.1-14.83-14.3-20.9-6.2-6.07-13.43-10.8-21.7-14.2-8.27-3.4-17.2-5.1-26.8-5.1-13.6,0-25.63,3.1-36.1,9.3-10.47,6.2-18.7,14.73-24.7,25.6-6,10.87-9,23.37-9,37.5s3,26.63,9,37.5c6,10.87,14.27,19.4,24.8,25.6,10.53,6.2,22.6,9.3,36.2,9.3,9.73,0,18.73-1.73,27-5.2,8.27-3.47,15.5-8.33,21.7-14.6,6.2-6.27,10.97-13.47,14.3-21.6l-25.4-9.2c-2.27,5.07-5.23,9.53-8.9,13.4Z" style="fill: #000; stroke-width: 0px;"/>
    <path d="M574.3,110.7c-7.87-4.47-16.93-6.7-27.2-6.7s-19.13,2.23-27,6.7c-7.87,4.47-14,10.63-18.4,18.5-4.4,7.87-6.6,16.93-6.6,27.2s2.23,19.33,6.7,27.2c4.47,7.87,10.63,14.03,18.5,18.5,7.87,4.47,16.93,6.7,27.2,6.7s19.1-2.23,26.9-6.7c7.8-4.47,13.9-10.63,18.3-18.5,4.4-7.87,6.6-16.93,6.6-27.2s-2.2-19.33-6.6-27.2c-4.4-7.87-10.53-14.03-18.4-18.5ZM569.1,170.9c-2.13,4.2-5.03,7.5-8.7,9.9-3.67,2.4-7.97,3.6-12.9,3.6s-9.33-1.2-13.2-3.6c-3.87-2.4-6.87-5.7-9-9.9-2.13-4.2-3.2-9.03-3.2-14.5s1.07-10.3,3.2-14.5c2.13-4.2,5.1-7.5,8.9-9.9s8.17-3.6,13.1-3.6,9.1,1.2,12.9,3.6,6.77,5.7,8.9,9.9c2.13,4.2,3.2,9.03,3.2,14.5s-1.07,10.3-3.2,14.5Z" style="fill: #000; stroke-width: 0px;"/>
    <path d="M731.09,104c-7.07,0-13.27,1.83-18.6,5.5-5.33,3.67-9.47,8.9-12.4,15.7-2.53-7.2-6.57-12.53-12.1-16-5.53-3.47-12.37-5.2-20.5-5.2-5.87,0-11.2,1.3-16,3.9s-8.73,6.43-11.8,11.5l-1.2-13h-24.8v100h26.4v-52.4c0-8.4,1.7-14.73,5.1-19,3.4-4.27,8.3-6.33,14.7-6.2,3.47,0,6.5.83,9.1,2.5,2.6,1.67,4.6,4.37,6,8.1,1.4,3.73,2.1,9,2.1,15.8v51.2h26.4v-52.4c0-8.4,1.73-14.73,5.2-19,3.47-4.27,8.4-6.33,14.8-6.2,3.47,0,6.47.83,9,2.5,2.53,1.67,4.53,4.37,6,8.1,1.47,3.73,2.2,9,2.2,15.8v51.2h26.4v-57.2c0-15.33-3.07-26.7-9.2-34.1-6.13-7.4-15.07-11.1-26.8-11.1Z" style="fill: #000; stroke-width: 0px;"/>
    <path d="M902.49,104c-7.07,0-13.27,1.83-18.6,5.5-5.33,3.67-9.47,8.9-12.4,15.7-2.53-7.2-6.57-12.53-12.1-16-5.53-3.47-12.37-5.2-20.5-5.2-5.87,0-11.2,1.3-16,3.9-4.8,2.6-8.73,6.43-11.8,11.5l-1.2-13h-24.8v100h26.4v-52.4c0-8.4,1.7-14.73,5.1-19,3.4-4.27,8.3-6.33,14.7-6.2,3.47,0,6.5.83,9.1,2.5,2.6,1.67,4.6,4.37,6,8.1,1.4,3.73,2.1,9,2.1,15.8v51.2h26.4v-52.4c0-8.4,1.73-14.73,5.2-19,3.47-4.27,8.4-6.33,14.8-6.2,3.47,0,6.47.83,9,2.5,2.53,1.67,4.53,4.37,6,8.1,1.47,3.73,2.2,9,2.2,15.8v51.2h26.4v-57.2c0-15.33-3.07-26.7-9.2-34.1-6.13-7.4-15.07-11.1-26.8-11.1Z" style="fill: #000; stroke-width: 0px;"/>
    <path d="M1030.29,110.7c-7.87-4.47-16.93-6.7-27.2-6.7s-19.13,2.23-27,6.7c-7.87,4.47-14,10.63-18.4,18.5-4.4,7.87-6.6,16.93-6.6,27.2s2.23,19.33,6.7,27.2c4.47,7.87,10.63,14.03,18.5,18.5,7.87,4.47,16.93,6.7,27.2,6.7s19.1-2.23,26.9-6.7c7.8-4.47,13.9-10.63,18.3-18.5,4.4-7.87,6.6-16.93,6.6-27.2s-2.2-19.33-6.6-27.2c-4.4-7.87-10.53-14.03-18.4-18.5ZM1025.09,170.9c-2.13,4.2-5.03,7.5-8.7,9.9-3.67,2.4-7.97,3.6-12.9,3.6s-9.33-1.2-13.2-3.6c-3.87-2.4-6.87-5.7-9-9.9-2.13-4.2-3.2-9.03-3.2-14.5s1.07-10.3,3.2-14.5c2.13-4.2,5.1-7.5,8.9-9.9,3.8-2.4,8.17-3.6,13.1-3.6s9.1,1.2,12.9,3.6c3.8,2.4,6.77,5.7,8.9,9.9,2.13,4.2,3.2,9.03,3.2,14.5s-1.07,10.3-3.2,14.5Z" style="fill: #000; stroke-width: 0px;"/>
    <path d="M1145.29,108.8c-5.6-3.2-12.33-4.8-20.2-4.8s-14.23,1.97-19.9,5.9c-3.73,2.59-6.89,5.94-9.52,10.02l-1.18-13.52h-24.8v100h26.4v-52.4c0-8.4,1.83-14.73,5.5-19,3.67-4.27,8.9-6.33,15.7-6.2,3.73,0,7,.83,9.8,2.5,2.8,1.67,4.97,4.37,6.5,8.1,1.53,3.73,2.3,9,2.3,15.8v51.2h26.4v-56.6c.13-10.67-1.27-19.37-4.2-26.1-2.93-6.73-7.2-11.7-12.8-14.9Z" style="fill: #000; stroke-width: 0px;"/>
    <path d="M1256.19,108.8c-5.53-3.2-12.3-4.8-20.3-4.8s-14.23,1.97-19.9,5.9c-3.52,2.45-6.56,5.56-9.1,9.35v-52.85h-26.4v140h26.4v-52.4c0-8.4,1.83-14.73,5.5-19,3.67-4.27,8.9-6.33,15.7-6.2,3.73,0,7,.83,9.8,2.5,2.8,1.67,5,4.37,6.6,8.1,1.6,3.73,2.4,9,2.4,15.8v51.2h26.4v-56.6c0-10.67-1.47-19.37-4.4-26.1-2.93-6.73-7.17-11.7-12.7-14.9Z" style="fill: #000; stroke-width: 0px;"/>
    <path d="M1357.19,109.8c-6.73-3.87-15.17-5.8-25.3-5.8-8.4,0-15.5,1.3-21.3,3.9s-10.5,5.93-14.1,10c-3.6,4.07-6.33,8.23-8.2,12.5l23.2,8c2.4-3.87,5.33-6.73,8.8-8.6,3.47-1.87,7.33-2.8,11.6-2.8,4.67,0,8.37,1.17,11.1,3.5,2.73,2.33,4.73,5.63,6,9.9.51,1.72.91,3.59,1.22,5.6h-23.52c-12.93,0-22.97,2.7-30.1,8.1-7.13,5.4-10.7,13.43-10.7,24.1,0,9.73,3.3,17.27,9.9,22.6,6.6,5.33,15.9,8,27.9,8s20.77-3.8,25.9-11.4c.58-.86,1.12-1.76,1.64-2.7l.46,11.7h24.6l.6-55.4c.13-9.6-1.43-17.9-4.7-24.9-3.27-7-8.27-12.43-15-16.3ZM1347.89,175.7c-2,3.27-4.7,5.93-8.1,8-3.4,2.07-7.3,3.1-11.7,3.1-4.8,0-8.53-.83-11.2-2.5-2.67-1.67-4-3.97-4-6.9,0-3.73,1.67-6.63,5-8.7,3.33-2.07,9.33-3.1,18-3.1h15c0,3.47-1,6.83-3,10.1Z" style="fill: #000; stroke-width: 0px;"/>
    <path d="M1459.29,158.8c0,8.27-1.8,14.57-5.4,18.9-3.6,4.33-8.87,6.43-15.8,6.3-3.6,0-6.83-.83-9.7-2.5-2.87-1.67-5.07-4.4-6.6-8.2-1.53-3.8-2.3-9.03-2.3-15.7v-51.2h-26.4v56.6c0,10.67,1.43,19.37,4.3,26.1,2.87,6.73,7.1,11.7,12.7,14.9,5.6,3.2,12.4,4.8,20.4,4.8s14.2-1.97,19.8-5.9c3.66-2.57,6.8-5.89,9.43-9.94l1.17,13.44h24.8v-100h-26.4v52.4Z" style="fill: #000; stroke-width: 0px;"/>
    <path d="M1571.98,153.9c-3.93-3.53-9.17-6.1-15.7-7.7l-13-3.2c-3.47-.8-6.13-1.77-8-2.9-1.87-1.13-2.8-2.57-2.8-4.3,0-2.67.97-4.77,2.9-6.3,1.93-1.53,4.7-2.3,8.3-2.3s7.2.83,10.8,2.5c3.6,1.67,5.87,3.83,6.8,6.5l21.8-10c-1.47-4.4-4.13-8.27-8-11.6-3.87-3.33-8.5-5.93-13.9-7.8-5.4-1.87-11.23-2.8-17.5-2.8-12.13,0-21.5,2.8-28.1,8.4s-9.9,13.53-9.9,23.8c0,7.2,2.77,13.57,8.3,19.1,5.53,5.53,13.1,9.57,22.7,12.1l9.2,2.4c3.33.8,5.97,1.77,7.9,2.9,1.93,1.13,2.9,2.9,2.9,5.3s-1.2,4.23-3.6,5.5c-2.4,1.27-5.8,1.9-10.2,1.9s-8.53-1.17-12-3.5c-3.47-2.33-6.2-5.1-8.2-8.3l-22.6,10.4c2.4,5.33,5.73,9.83,10,13.5,4.27,3.67,9.2,6.47,14.8,8.4,5.6,1.93,11.6,2.9,18,2.9,7.73,0,14.63-1.27,20.7-3.8,6.07-2.53,10.87-6.1,14.4-10.7,3.53-4.6,5.3-9.9,5.3-15.9,0-4.13-.9-8.37-2.7-12.7-1.8-4.33-4.67-8.27-8.6-11.8Z" style="fill: #000; stroke-width: 0px;"/>
    <polygon points="1652.08 206.4 1679.48 206.4 1679.48 150 1731.48 150 1731.48 125 1679.48 125 1679.48 91.4 1741.88 91.4 1741.88 66.4 1652.08 66.4 1652.08 206.4" style="fill: #000; stroke-width: 0px;"/>
    <path d="M1828.28,110.7c-7.87-4.47-16.93-6.7-27.2-6.7s-19.13,2.23-27,6.7c-7.87,4.47-14,10.63-18.4,18.5-4.4,7.87-6.6,16.93-6.6,27.2s2.23,19.33,6.7,27.2c4.47,7.87,10.63,14.03,18.5,18.5,7.87,4.47,16.93,6.7,27.2,6.7s19.1-2.23,26.9-6.7c7.8-4.47,13.9-10.63,18.3-18.5,4.4-7.87,6.6-16.93,6.6-27.2s-2.2-19.33-6.6-27.2c-4.4-7.87-10.53-14.03-18.4-18.5ZM1823.08,170.9c-2.13,4.2-5.03,7.5-8.7,9.9-3.67,2.4-7.97,3.6-12.9,3.6s-9.33-1.2-13.2-3.6c-3.87-2.4-6.87-5.7-9-9.9-2.13-4.2-3.2-9.03-3.2-14.5s1.07-10.3,3.2-14.5c2.13-4.2,5.1-7.5,8.9-9.9s8.17-3.6,13.1-3.6,9.1,1.2,12.9,3.6,6.77,5.7,8.9,9.9c2.13,4.2,3.2,9.03,3.2,14.5s-1.07,10.3-3.2,14.5Z" style="fill: #000; stroke-width: 0px;"/>
    <path d="M1932.08,158.8c0,8.27-1.8,14.57-5.4,18.9-3.6,4.33-8.87,6.43-15.8,6.3-3.6,0-6.83-.83-9.7-2.5-2.87-1.67-5.07-4.4-6.6-8.2-1.53-3.8-2.3-9.03-2.3-15.7v-51.2h-26.4v56.6c0,10.67,1.43,19.37,4.3,26.1,2.87,6.73,7.1,11.7,12.7,14.9,5.6,3.2,12.4,4.8,20.4,4.8s14.2-1.97,19.8-5.9c3.66-2.57,6.8-5.89,9.43-9.94l1.17,13.44h24.8v-100h-26.4v52.4Z" style="fill: #000; stroke-width: 0px;"/>
    <path d="M2053.87,108.8c-5.6-3.2-12.33-4.8-20.2-4.8s-14.23,1.97-19.9,5.9c-3.73,2.59-6.89,5.94-9.52,10.02l-1.18-13.52h-24.8v100h26.4v-52.4c0-8.4,1.83-14.73,5.5-19,3.67-4.27,8.9-6.33,15.7-6.2,3.73,0,7,.83,9.8,2.5,2.8,1.67,4.97,4.37,6.5,8.1,1.53,3.73,2.3,9,2.3,15.8v51.2h26.4v-56.6c.13-10.67-1.27-19.37-4.2-26.1-2.93-6.73-7.2-11.7-12.8-14.9Z" style="fill: #000; stroke-width: 0px;"/>
    <path d="M2158.67,119.63c-2.44-3.66-5.33-6.75-8.7-9.23-5.8-4.27-12.9-6.4-21.3-6.4-9.2,0-17.17,2.13-23.9,6.4-6.73,4.27-11.97,10.3-15.7,18.1-3.73,7.8-5.6,17.1-5.6,27.9s1.87,19.93,5.6,27.8c3.73,7.87,8.97,13.93,15.7,18.2,6.73,4.27,14.7,6.4,23.9,6.4,8.4,0,15.5-2.13,21.3-6.4,3.53-2.6,6.54-5.87,9.06-9.8l1.04,13.8h25V66.4h-26.4v53.23ZM2147.57,181c-3.53,2.4-7.57,3.6-12.1,3.6-4.8,0-9.03-1.2-12.7-3.6-3.67-2.4-6.57-5.73-8.7-10-2.13-4.27-3.2-9.13-3.2-14.6s1.07-10.33,3.2-14.6c2.13-4.27,5-7.57,8.6-9.9,3.6-2.33,7.8-3.5,12.6-3.5s8.77,1.17,12.3,3.5c3.53,2.33,6.3,5.63,8.3,9.9,1.49,3.17,2.42,6.68,2.8,10.51v8.18c-.38,3.84-1.31,7.34-2.8,10.51-2,4.27-4.77,7.6-8.3,10Z" style="fill: #000; stroke-width: 0px;"/>
    <path d="M2270.77,109.8c-6.73-3.87-15.17-5.8-25.3-5.8-8.4,0-15.5,1.3-21.3,3.9-5.8,2.6-10.5,5.93-14.1,10-3.6,4.07-6.33,8.23-8.2,12.5l23.2,8c2.4-3.87,5.33-6.73,8.8-8.6,3.47-1.87,7.33-2.8,11.6-2.8,4.67,0,8.37,1.17,11.1,3.5,2.73,2.33,4.73,5.63,6,9.9.51,1.72.91,3.59,1.22,5.6h-23.52c-12.93,0-22.97,2.7-30.1,8.1-7.13,5.4-10.7,13.43-10.7,24.1,0,9.73,3.3,17.27,9.9,22.6,6.6,5.33,15.9,8,27.9,8s20.77-3.8,25.9-11.4c.58-.86,1.12-1.76,1.64-2.7l.46,11.7h24.6l.6-55.4c.13-9.6-1.43-17.9-4.7-24.9-3.27-7-8.27-12.43-15-16.3ZM2261.47,175.7c-2,3.27-4.7,5.93-8.1,8-3.4,2.07-7.3,3.1-11.7,3.1-4.8,0-8.53-.83-11.2-2.5-2.67-1.67-4-3.97-4-6.9,0-3.73,1.67-6.63,5-8.7,3.33-2.07,9.33-3.1,18-3.1h15c0,3.47-1,6.83-3,10.1Z" style="fill: #000; stroke-width: 0px;"/>
    <path d="M2357.87,183.5c-1.6.6-3.07.9-4.4.9-3.6,0-6.33-1.1-8.2-3.3-1.87-2.2-2.8-5.43-2.8-9.7v-42.6h25v-22.4h-25v-31.2h-26.4v31.2h-16.2v22.4h16.2v48.4c0,10.13,2.83,17.93,8.5,23.4,5.67,5.47,14.03,8.2,25.1,8.2,3.87,0,7.77-.77,11.7-2.3,3.93-1.53,7.5-3.5,10.7-5.9l-9.2-19.8c-1.73,1.2-3.4,2.1-5,2.7Z" style="fill: #000; stroke-width: 0px;"/>
    <path d="M2400.67,59.8c-4,0-7.53,1.5-10.6,4.5-3.07,3-4.6,6.57-4.6,10.7s1.53,7.7,4.6,10.7c3.07,3,6.6,4.5,10.6,4.5s7.7-1.5,10.7-4.5,4.5-6.57,4.5-10.7-1.5-7.7-4.5-10.7-6.57-4.5-10.7-4.5Z" style="fill: #000; stroke-width: 0px;"/>
    <rect x="2387.47" y="106.4" width="26.4" height="100" style="fill: #000; stroke-width: 0px;"/>
    <path d="M2509.07,110.7c-7.87-4.47-16.93-6.7-27.2-6.7s-19.13,2.23-27,6.7c-7.87,4.47-14,10.63-18.4,18.5-4.4,7.87-6.6,16.93-6.6,27.2s2.23,19.33,6.7,27.2c4.47,7.87,10.63,14.03,18.5,18.5,7.87,4.47,16.93,6.7,27.2,6.7s19.1-2.23,26.9-6.7c7.8-4.47,13.9-10.63,18.3-18.5,4.4-7.87,6.6-16.93,6.6-27.2s-2.2-19.33-6.6-27.2c-4.4-7.87-10.53-14.03-18.4-18.5ZM2503.87,170.9c-2.13,4.2-5.03,7.5-8.7,9.9-3.67,2.4-7.97,3.6-12.9,3.6s-9.33-1.2-13.2-3.6c-3.87-2.4-6.87-5.7-9-9.9-2.13-4.2-3.2-9.03-3.2-14.5s1.07-10.3,3.2-14.5c2.13-4.2,5.1-7.5,8.9-9.9,3.8-2.4,8.17-3.6,13.1-3.6s9.1,1.2,12.9,3.6c3.8,2.4,6.77,5.7,8.9,9.9,2.13,4.2,3.2,9.03,3.2,14.5s-1.07,10.3-3.2,14.5Z" style="fill: #000; stroke-width: 0px;"/>
    <path d="M2636.86,123.7c-2.93-6.73-7.2-11.7-12.8-14.9-5.6-3.2-12.33-4.8-20.2-4.8s-14.23,1.97-19.9,5.9c-3.73,2.59-6.89,5.94-9.52,10.02l-1.18-13.52h-24.8v100h26.4v-52.4c0-8.4,1.83-14.73,5.5-19,3.67-4.27,8.9-6.33,15.7-6.2,3.73,0,7,.83,9.8,2.5,2.8,1.67,4.97,4.37,6.5,8.1,1.53,3.73,2.3,9,2.3,15.8v51.2h26.4v-56.6c.13-10.67-1.27-19.37-4.2-26.1Z" style="fill: #000; stroke-width: 0px;"/>
  </g>
</svg>