<?xml version="1.0" encoding="UTF-8"?>
<svg id="Layer_1" data-name="Layer 1" xmlns="http://www.w3.org/2000/svg" viewBox="0 0 512 512">
  <defs>
    <style>
      .cls-1 {
        fill: #8ab0d6;
      }

      .cls-1, .cls-2 {
        opacity: .7;
      }

      .cls-3 {
        fill: #1b556b;
        opacity: .5;
      }

      .cls-4 {
        fill: #fff;
      }

      .cls-2 {
        fill: #5c86a3;
      }
    </style>
  </defs>
  <g>
    <path class="cls-4" d="M6,278.32s254.08,108.11,498.32-194.53c0,0-221.74,629.47-498.32,194.53Z"/>
    <path class="cls-4" d="M121.81,231.93s195.23,83.07,382.91-149.48c0,0-170.38,483.67-382.91,149.48Z"/>
    <path class="cls-4" d="M220.14,192.1s145.76,62.02,285.86-111.61c0,0-127.2,361.11-285.86,111.61Z"/>
  </g>
  <g>
    <path class="cls-3" d="M6,278.32s254.08,108.11,498.32-194.53c0,0-221.74,629.47-498.32,194.53Z"/>
    <path class="cls-2" d="M121.81,231.93s195.23,83.07,382.91-149.48c0,0-170.38,483.67-382.91,149.48Z"/>
    <path class="cls-1" d="M220.14,192.1s145.76,62.02,285.86-111.61c0,0-127.2,361.11-285.86,111.61Z"/>
  </g>
</svg>