<?xml version="1.0" encoding="UTF-8"?>
<svg id="color" xmlns="http://www.w3.org/2000/svg" xmlns:xlink="http://www.w3.org/1999/xlink" viewBox="0 0 256 256">
  <defs>
    <style>
      .cls-1 {
        fill: url(#linear-gradient-5);
      }

      .cls-2 {
        fill: url(#linear-gradient-4);
      }

      .cls-3 {
        fill: url(#linear-gradient-3);
      }

      .cls-4 {
        fill: url(#linear-gradient-2);
      }

      .cls-5 {
        fill: url(#linear-gradient);
      }
    </style>
    <linearGradient id="linear-gradient" x1="38.59" y1="219.42" x2="222.94" y2="35.08" gradientTransform="translate(0 258) scale(1 -1)" gradientUnits="userSpaceOnUse">
      <stop offset="0" stop-color="#91d443"/>
      <stop offset="1" stop-color="#48bfe0"/>
    </linearGradient>
    <linearGradient id="linear-gradient-2" x1="84.43" y1="265.26" x2="268.78" y2="80.92" gradientTransform="translate(0 258) scale(1 -1)" gradientUnits="userSpaceOnUse">
      <stop offset="0" stop-color="#91d443"/>
      <stop offset="1" stop-color="#48bfe0"/>
    </linearGradient>
    <linearGradient id="linear-gradient-3" x1="130.13" y1="310.96" x2="314.48" y2="126.62" gradientTransform="translate(0 258) scale(1 -1)" gradientUnits="userSpaceOnUse">
      <stop offset="0" stop-color="#91d443"/>
      <stop offset="1" stop-color="#48bfe0"/>
    </linearGradient>
    <linearGradient id="linear-gradient-4" x1="-7.26" y1="173.57" x2="177.08" y2="-10.78" gradientTransform="translate(0 258) scale(1 -1)" gradientUnits="userSpaceOnUse">
      <stop offset="0" stop-color="#91d443"/>
      <stop offset="1" stop-color="#48bfe0"/>
    </linearGradient>
    <linearGradient id="linear-gradient-5" x1="-52.97" y1="127.87" x2="131.38" y2="-56.48" gradientTransform="translate(0 258) scale(1 -1)" gradientUnits="userSpaceOnUse">
      <stop offset="0" stop-color="#91d443"/>
      <stop offset="1" stop-color="#48bfe0"/>
    </linearGradient>
  </defs>
  <path class="cls-5" d="M183.36,223.46c0,17.96,14.55,32.52,32.51,32.54h40.13v-40.16c-.02-17.95-14.56-32.49-32.51-32.51h-7.64c-28.45-.03-51.51-23.09-51.54-51.54v-7.6c-.02-17.95-14.56-32.5-32.51-32.52h-7.62c-28.45-.03-51.51-23.09-51.54-51.54h0v-7.62C72.62,14.56,58.08.02,40.13,0H0v40.13c.02,17.95,14.56,32.49,32.51,32.51h7.64c28.45.03,51.51,23.09,51.54,51.54v7.6c.02,17.95,14.56,32.5,32.51,32.52h7.62c28.45.03,51.51,23.09,51.54,51.54v7.62h0Z"/>
  <path class="cls-4" d="M256,124.17c-.02-17.95-14.56-32.49-32.51-32.51h-7.64c-28.45-.03-51.51-23.09-51.54-51.54v-7.61c-.02-17.95-14.56-32.49-32.51-32.51h-40.1v40.58c.26,17.76,14.73,32.03,32.49,32.05h7.64c28.45.03,51.51,23.09,51.54,51.54h0v7.6c.02,17.9,14.5,32.42,32.4,32.5h40.23v-40.1Z"/>
  <path class="cls-3" d="M256,32.26c-.12-17.36-13.86-31.56-31.2-32.26h-42v40.49c.22,17.8,14.69,32.11,32.49,32.14h40.71v-40.37Z"/>
  <path class="cls-2" d="M0,131.85c.02,17.95,14.56,32.49,32.51,32.51h7.64c28.46.02,51.53,23.08,51.56,51.54v7.61c.03,17.94,14.57,32.47,32.51,32.49h40.11v-40.56c-.26-17.76-14.73-32.03-32.49-32.05h-7.64c-28.45-.03-51.51-23.09-51.54-51.54h0v-7.6c-.02-17.9-14.5-32.42-32.4-32.5H0v40.1Z"/>
  <path class="cls-1" d="M0,223.77c.14,17.35,13.88,31.54,31.22,32.23h42v-40.47c-.22-17.8-14.69-32.11-32.49-32.14H0v40.38Z"/>
</svg>