<?xml version="1.0" encoding="UTF-8"?>
<svg id="Layer_1" data-name="Layer 1" xmlns="http://www.w3.org/2000/svg" viewBox="0 0 256 256">
  <defs>
    <style>
      .cls-1 {
        fill: #496b8c;
      }

      .cls-2 {
        fill: #596d84;
      }

      .cls-3 {
        fill: #4b73a2;
      }

      .cls-4 {
        fill: #8f9495;
      }
    </style>
  </defs>
  <g>
    <path class="cls-4" d="M145.78,178.69c-41.15,0-64.11-22.38-64.64-63.01-.11-8.36.85-37.45,2.68-48.94,0,0,18.27-7.79,18.67-7.79.12,0,16.4,11.45,16.4,11.45-.87,9.8-1.3,39.78-1.23,44.8.32,24.4,9.97,36.76,28.69,36.76h.55c23.97-.32,28.74-20.45,28.51-37.28-.04-3.41-1-36.66-1.72-43.96l17.88-11.54,18.28,8.01c.71,6.91,1.79,42.16,1.85,47.03.54,41.01-22.35,63.91-64.45,64.45-.5,0-.99.02-1.48.02Z"/>
    <path class="cls-1" d="M231.79,129.51s4.4,14.21,11.07-1.25c6.66-15.46,3.29-37.51,3.29-37.51,0,0,20.96,44.58-12.18,77.56,0,0-7.36,8.41-23.31,13.17,0,0,24.99-21.06,21.13-51.97Z"/>
    <path class="cls-2" d="M51.18,147.36c39.25,15.61,59.09,48.92,117.78,36.4,58.7-12.52,50.09-72,50.09-72,0,0,12.91,29.94-7.04,61.05-17.5,27.28-71.02,49.3-139.69-2.74,0,0-39.92-33.66-70.44-16.05,0,0,17.32-19.37,49.31-6.65Z"/>
  </g>
  <path class="cls-3" d="M83.01,154.46c-2.25-3.63-5.39-9.23-6.54-13.86,0,0-14.5-13.72-32.86-8.82-9.35,1.71-15.38,7.81-15.38,7.81,15.55-4.62,21.48-3.45,36.44,5.08,12.5,7.13,27.92,20.96,18.34,9.79Z"/>
</svg>