<?xml version="1.0" encoding="UTF-8"?>
<svg id="Layer_1" data-name="Layer 1" xmlns="http://www.w3.org/2000/svg" viewBox="0 0 1280 320">
  <defs>
    <style>
      .cls-1 {
        fill: #c4bfad;
      }

      .cls-2 {
        fill: #e5e1d6;
      }

      .cls-3 {
        fill: #fff;
      }

      .cls-4 {
        fill: #d3c734;
      }
    </style>
  </defs>
  <path class="cls-4" d="M29,46.03H10V13.58h93.03c38.05,0,64.66,23.38,64.66,62.59s-25.75,52.97-34.52,54.73v.6s6.45,2.92,10.23,10.53l20.16,40.06c3.23,6.15,8.21,6.75,14.61,6.75h3.78v32.45h-20.21c-15.52,0-22.22-2.37-28.98-15.52l-26.61-52.36c-4.38-8.21-8.77-9.68-19.6-9.68h-19.3v77.51H28.95V46.03h.05ZM97.79,110.94c19.3,0,30.74-11.99,30.74-32.76s-11.39-32.2-30.14-32.2h-30.99v64.96h30.44-.05Z"/>
  <path class="cls-4" d="M188.25,46.03h-19V13.58h125.54c13.76,0,19.91,6.15,19.91,19.91v31.6h-34.82v-12.6c0-4.08-2.32-6.45-6.45-6.45h-46.82v54.43h67.28v32.45h-67.28v49.44c0,4.08,2.32,6.45,6.45,6.45h47.98c4.08,0,6.45-2.37,6.45-6.45v-12.6h34.82v31.6c0,14.06-6.15,19.91-19.91,19.91h-94.19c-14.06,0-19.91-5.85-19.91-19.91V45.98l-.05.05Z"/>
  <path class="cls-4" d="M466.99,163.61c0-68.19-97.72-61.13-97.72-96.56,0-13.15,12.85-22.22,30.44-22.22,13.76,0,27.52,6.45,27.52,16.08v9.37h34.52v-19.3c0-29.53-37.44-40.97-61.74-40.97-40.06,0-69.34,24.85-69.34,58.51,0,64.66,97.72,61.74,97.72,97.11,0,16.08-14.06,24.59-29.83,24.59-28.98,0-50.35-24.59-50.35-24.59l-21.67,26.91s25.45,32.15,71.36,32.15,69.04-28.07,69.04-61.13l.05.05Z"/>
  <path class="cls-4" d="M540.52,47.65h-31.95c-4.08,0-6.45,2.37-6.45,6.45v15.82h-33.71v-36.03c0-13.76,4.69-18.75,18.75-18.75h145.09c14.06,0,18.75,4.99,18.75,18.75v36.03h-33.71v-15.82c0-4.08-2.37-6.45-6.45-6.45h-31.95v175.53h-38.4V47.65h.05Z"/>
  <g>
    <path class="cls-1" d="M1269.9,91.49l-10.33-5.34-49.94-62.94-17.03,13.56,15.77,19.91c-6.4-2.42-13.05-3.88-19.7-4.38h0l-35.63-17.94-9.78,19.45,9.93,4.99c-8.11,3.78-15.62,9.02-21.97,15.87-2.42,2.52-4.64,5.24-6.65,8.21,0,0,0,.05-.05.1l-2.97,4.64-9.88,15.32-15.12,23.38,12.2,6.65,3.88,2.12h0c1.01,6.6,2.97,13,5.85,19.1,4.13,8.92,10.18,17.13,17.99,23.84l-1.86,7.86h0l-1.51,6.2c-2.12,8.52-7.61,20.81-7.61,20.81l.5.35s9.63-9.37,16.63-14.51l5.59-4.13,6.75-4.99c9.12,4.03,18.85,5.95,28.42,5.95,1.16,0,2.37,0,3.53-.1,10.13-.5,20.11-3.12,29.23-7.76,10.13-5.19,19.2-12.85,26.16-22.88,2.07-2.92,3.88-6,5.39-9.12,5.04-10.13,7.46-21.02,7.46-31.85,0-3.23-.2-6.4-.66-9.63l15.52-22.78-.1.05Z"/>
    <path class="cls-2" d="M1186.8,195.51l-31.2,23.03-7.51-23.89,6.75-4.99c9.12,4.03,18.85,5.95,28.42,5.95,1.16,0,2.37,0,3.53-.1Z"/>
    <path class="cls-3" d="M678.05,48.3h-19V15.85h125.49c13.76,0,19.91,6.15,19.91,19.91v31.6h-34.82v-12.6c0-4.08-2.32-6.45-6.45-6.45h-46.82v54.43h67.28v32.45h-67.28v49.44c0,4.08,2.32,6.45,6.45,6.45h47.98c4.08,0,6.45-2.32,6.45-6.45v.35h34.82v18.7c0,14.06-6.15,19.91-19.91,19.91h-94.19c-14.06,0-19.91-5.85-19.91-19.91V48.3Z"/>
    <path class="cls-3" d="M907.75,129.94h4.69v-1.16c0-21.37-8.47-29.28-27.52-29.28-6.75,0-19.91,1.76-19.91,9.93v7.91h-34.52v-15.77c0-27.77,39.21-30.74,54.73-30.74,49.74,0,64.36,26.05,64.36,59.42v55.59c0,4.08,2.32,6.45,6.45,6.45h11.69v31.3h-33.36c-13.76,0-19-7.61-19-16.38,0-3.78.3-6.45.3-6.45h-.6s-11.39,26.31-45.05,26.31c-26.61,0-50.9-16.68-50.9-46.52,0-46.82,64.36-50.6,88.65-50.6h0ZM879.08,198.08c19.91,0,33.92-21.07,33.92-39.21v-3.53h-6.45c-19.3,0-50.04,2.62-50.04,23.38,0,9.93,7.31,19.3,22.53,19.3l.05.05Z"/>
    <path class="cls-3" d="M989.34,176.16s19,21.92,44.45,21.92c11.39,0,20.21-4.69,20.21-14.61,0-21.07-78.72-20.76-78.72-69.04,0-29.83,26.91-43.59,57.9-43.59,20.21,0,52.36,6.75,52.36,30.99v15.52h-32.76v-7.31c0-7.01-10.53-10.53-18.75-10.53-13.15,0-22.22,4.69-22.22,13.46,0,23.43,79.27,18.75,79.27,68.44,0,28.07-24.85,45.66-57.35,45.66-40.97,0-62.04-26.61-62.04-26.61l17.54-24.29h.1Z"/>
    <path class="cls-3" d="M1131.06,74.61c-2.42,2.52-4.64,5.24-6.65,8.21,0,0,0,.05-.05.1l-2.97,4.64-9.88,15.32c-1.26-1.36-2.87-2.57-4.43-3.63l-3.88-2.67,19.4-27.87,8.52,5.95-.05-.05Z"/>
    <path class="cls-3" d="M1239.96,135.44l-18.24-11.84,14.77-22.78-74.84-37.7h0c-9.07,3.28-17.54,8.57-24.54,15.72-2.37,2.47-4.59,5.14-6.65,8.06l-23.74,36.79,24.34,13.3-3.53,6.4-6.75-3.68c1.92,7.76,5.34,15.17,10.13,21.82h0c.76.2,1.71.4,2.82.66.4.05.86.2,1.31.3,1.36.25,2.97.45,4.74.66h0c1.92.2,4.08.35,6.35.35,5.9,0,12.7-.86,19.65-3.53,5.49-2.12,11.09-5.39,16.33-10.33.55-.45,1.11-1.01,1.61-1.51-2.27-2.37-4.18-5.44-4.84-9.37l7.11-1.16c.71,5.49,7.41,9.42,11.09,10.84,1.16.45,1.86.66,1.86.66l-1.97,7.01s-3.58-1.01-7.51-3.33c-14.06,14.56-30.69,18.14-43.09,18.14h-.2c-2.77,0-5.34-.2-7.66-.4,2.07,2.07,4.28,3.88,6.65,5.59.4.35.81.66,1.26.91.81.55,1.61,1.11,2.47,1.61h0c4.13,2.57,8.37,4.69,12.8,6.2,7.01,2.57,14.31,3.78,21.52,3.78,10.18,0,20.31-2.47,29.43-7.11,9.17-4.64,17.29-11.54,23.53-20.56,2.07-2.97,3.83-6.05,5.34-9.17,4.23-8.82,6.25-18.19,6.25-27.57l-7.81,11.44v-.2Z"/>
    <path class="cls-1" d="M1095.08,195.36c-.3,1.36-.81,3.78-1.26,5.75-.1.5-.2,1.01-.35,1.51-.05.3-.15.6-.2.86v.3c-.2.6-.4,1.51-.66,2.67-.2,1.01-.4,1.97-.6,2.82-.15.55-.25,1.16-.4,1.81-1.97,9.17-4.99,23.23-5.85,27.21-.76.76-30.94,23.08-51.56,33.66-.1.05-.25.15-.4.2-18.55,7.71-39.01,11.54-60.32,12.25-36.94.66-78.32-7.71-114.9-19.7-.55-.2-1.16-.4-1.71-.55-15.47-5.34-30.44-11.44-44.6-17.94-12.4-5.69-24.09-11.69-35.03-17.79h-.05l-.2-.1h-.1s-.1-.1-.15-.1h0s-.05-.15-.1-.15c-.05-.1-.1-.15-.1-.15l1.46-15.52,3.28,1.92c.25-3.63.4-12.85-4.03-18.29-5.59-6.9-.4-30.69,1.71-30.69,8.42-.66,18.65,42.79,19.86,52.56,1.01-3.73,4.03-16.68-.76-25.3-5.59-10.13,6.5-39.41,9.27-38.91,1.92.4,3.53,2.22,4.99,4.99,7.96,15.82,8.42,64.05,8.92,74.23,96.05,29.03,192.66,19.65,206.83,18.04,23.79-11.09,49.39-31.75,67.03-55.49v-.1Z"/>
    <path class="cls-1" d="M973.52,284.36c-37.34,1.26-77.36-6.9-114.9-19.7,36.54,11.99,77.96,20.36,114.9,19.7Z"/>
    <path class="cls-3" d="M1259.16,163.86l-19.45,27.87c-4.69-3.17-8.97-7.46-14.61-3.28,0,0-42.89,28.42-82.5,54.58-33.61,22.22-64.86,42.89-65.26,43.14-1.46.91-4.59,2.77-4.74,2.82-37.19,22.07-69.14,27.77-151.54,13.2-38.86-6.35-78.21-25.35-108.86-46.06-13.25-8.92-24.85-18.14-34.17-26.76-.15-.15-1.01-.91-1.21-1.16h.05l.2.1c6.45,3.88,17.79,9.88,25.2,13.46,1.51.66,3.07,1.41,4.64,2.22,1.61.76,3.23,1.51,4.94,2.32h0s.2.05.3.15c13.35,6.3,28.52,12.35,44.6,17.69.55.2,1.16.4,1.71.55,36.54,11.99,77.96,20.36,114.9,19.7,17.34-.25,33.66-2.52,48.13-7.36,3.23-.71,7.46-2.47,12.2-4.89.15-.05.3-.15.4-.2,20.66-10.58,50.8-32.86,51.56-33.66.86-3.98,3.88-18.04,5.85-27.21.2-.66.3-1.26.4-1.81.2-.91.4-1.86.6-2.82.25-1.16.4-2.07.55-2.67v-.3s.2-.55.25-.86c.15-.5.25-1.01.35-1.51.4-1.97.96-4.38,1.26-5.75h0l13.46-62.39,3.88,2.12h0c1.01,6.6,2.97,13,5.85,19.1-.55,2.57-2.47,11.69-2.92,14.06h0l-.4,2.02h0l-2.57,12.25h0l-3.23,15.42,25.25-12.04-1.51,6.15c-2.12,8.52-7.61,20.81-7.61,20.81l.5.35s9.63-9.37,16.63-14.51l.2-.15,5.39-3.98,7.51,23.89,31.2-23.03c1.26,0,2.57-.15,3.78-.3,5.09-.45,10.08-1.51,14.87-3.12,1.01-.3,1.97-.66,2.97-1.01l1.36-.55c.86-.3,1.61-.66,2.47-1.01.2-.05.35-.2.55-.25.96-.4,1.86-.86,2.82-1.31,1.01-.55,2.02-1.06,3.02-1.61.66-.35,1.26-.71,1.86-1.11,1.16-.71,2.32-1.46,3.48-2.27,1.16-.76,2.27-1.61,3.33-2.42,1.11-.86,2.17-1.71,3.23-2.67,1.01-.91,2.07-1.86,3.07-2.82,1.01-1.01,2.07-2.07,3.02-3.17,1.01-1.11,1.97-2.22,2.87-3.43,1.01-1.16,1.86-2.42,2.72-3.63.55-.76,1.01-1.51,1.51-2.22.55-.76,1.01-1.51,1.41-2.27.45-.76.91-1.51,1.26-2.27.4-.76.81-1.56,1.21-2.32l11.64,8.11.15.1Z"/>
    <path class="cls-2" d="M1136.3,178.02l-1.86,7.86h0l-25.25,12.04,9.17-43.74c4.13,8.92,10.18,17.13,17.99,23.84h-.05Z"/>
    <path class="cls-1" d="M1181.76,119.61c-4.79,4.99-16.08,11.44-25.35,8.01-9.27-3.48-13.56-15.77-13.86-22.68,3.43,4.99,5.49,13.25,16.58,17.39,9.83,3.68,16.78-1.21,22.63-2.72Z"/>
  </g>
</svg>