<?xml version="1.0" encoding="UTF-8"?>
<svg id="Layer_1" data-name="Layer 1" xmlns="http://www.w3.org/2000/svg" viewBox="0 0 1280 910">
  <defs>
    <style>
      .cls-1 {
        fill: #c4bfad;
      }

      .cls-2 {
        fill: #fff;
      }

      .cls-3 {
        fill: #d3c734;
      }

      .cls-4 {
        fill: #e4e0d5;
      }
    </style>
  </defs>
  <path class="cls-1" d="M1114.31,477.69l-18.43-9.56-50.13-63.14-1.75-314.86h-55.58c-6.55,0-10.15,3.61-10.15,10.16v23.78h-62.7v-59.8c0-25.65,9.09-34.74,34.74-34.74h258.42c25.65,0,34.75,9.09,34.75,34.74v59.8h-62.7v-23.78c0-6.55-3.61-10.16-10.16-10.16h-55.56l2.16,387.57h-2.89Z"/>
  <path class="cls-3" d="M1208.72,30.85h-258.42c-25.06,0-33.41,8.87-33.41,33.41v58.47h60.04v-22.45c0-7.31,4.17-11.49,11.48-11.49h56.9l1.76,315.72,49.67,62.56,17.89,9.28h1.23l-2.16-387.57h56.9c7.31,0,11.49,4.18,11.49,11.49v22.45h60.04v-58.47c0-24.54-8.36-33.41-33.42-33.41Z"/>
  <path class="cls-1" d="M451.97,398.62c-25.82,0-36.83-11.02-36.83-36.83V85.9h-33.94V25.3h225.29c25.13,0,36.83,11.7,36.83,36.83v57.71h-64.79v-23.79c0-6.55-3.61-10.15-10.16-10.15h-82.19v94.44h120.08v60.61h-120.08v86.9c0,6.55,3.61,10.16,10.15,10.16h85.62c6.55,0,10.16-3.61,10.16-10.16v-23.78h64.79v57.71c0,25.47-11.36,36.83-36.83,36.83h-168.1Z"/>
  <path class="cls-3" d="M416.47,84.57h-33.94V26.63h223.96c24.53,0,35.5,10.96,35.5,35.5v56.38h-62.12v-22.46c0-7.3-4.17-11.48-11.49-11.48h-83.53v97.1h120.07v57.95h-120.07v88.23c0,7.31,4.18,11.49,11.49,11.49h85.62c7.31,0,11.49-4.18,11.49-11.49v-22.45h62.13v56.38c0,25.06-10.96,35.5-35.5,35.5h-168.1c-25.06,0-35.5-10.44-35.5-35.5V84.57Z"/>
  <path class="cls-1" d="M790.69,404.88c-81.67,0-127.96-57.35-128.42-57.92l-.66-.83,40.29-50.1,1.04,1.2c.38.43,38.33,43.4,88.79,43.4,35.86,0,51.92-21.36,51.92-42.53,0-26.01-31.05-40.28-67.01-56.81-50.33-23.13-107.36-49.35-107.36-116.51,0-61.27,52.59-105.74,125.06-105.74,43.1,0,111.48,20.2,111.48,74.42v35.79h-64.26v-18.04c0-16.91-24.78-27.38-47.74-27.38-31.18,0-52.96,15.77-52.96,38.35,0,25.58,30.28,38.63,65.33,53.73,48.58,20.93,109.03,46.98,109.03,118.55,0,65.02-51.21,110.44-124.53,110.44Z"/>
  <path class="cls-3" d="M913.89,294.44c0-121.64-174.36-109.11-174.36-172.28,0-23.49,22.97-39.68,54.29-39.68,24.54,0,49.07,11.49,49.07,28.71v16.71h61.6v-34.45c0-52.73-66.82-73.09-110.15-73.09-71.52,0-123.73,44.38-123.73,104.41,0,115.37,174.37,110.15,174.37,173.32,0,28.71-25.06,43.86-53.25,43.86-51.68,0-89.8-43.86-89.8-43.86l-38.63,48.04s45.41,57.42,127.38,57.42,123.2-50.12,123.2-109.11Z"/>
  <path class="cls-1" d="M369.38,398.62c-28.31,0-40.55-4.29-52.87-28.39l-47.51-93.45c-7.56-14.12-15.07-16.5-33.79-16.5h-33.13v87.24h-71.05V85.9h-33.94V25.3h167.34c70.9,0,116.71,44.37,116.71,113.05s-45.46,93.86-60.59,98.4c3.59,2.08,11.74,7.71,17.12,18.47l36.02,71.52c5.47,10.45,14.15,11.28,24.92,11.28h8.12v60.61h-37.35ZM255.05,199.13c33.99,0,53.48-20.82,53.48-57.13s-19.6-56.1-52.43-56.1h-54.01v113.23h52.97Z"/>
  <path class="cls-3" d="M132.37,84.57h-33.94V26.63h166.01c67.87,0,115.38,41.76,115.38,111.72s-45.94,94.5-61.6,97.62v1.04s11.48,5.22,18.27,18.8l36.02,71.52c5.74,10.96,14.62,12.01,26.11,12.01h6.79v57.95h-36.02c-27.67,0-39.68-4.18-51.68-27.67l-47.51-93.45c-7.83-14.62-15.66-17.23-34.98-17.23h-34.46v87.24h-68.38V84.57ZM255.05,200.47c34.46,0,54.81-21.4,54.81-58.46s-20.35-57.43-53.77-57.43h-55.34v115.89h54.3Z"/>
  <g>
    <path class="cls-1" d="M1109.74,481.03l-18.42-9.52-89.03-112.21-30.37,24.17,28.12,35.49c-11.41-4.31-23.27-6.92-35.13-7.82h0l-63.52-31.98-17.43,34.68,17.7,8.89c-14.46,6.74-27.85,16.08-39.17,28.3-4.31,4.49-8.27,9.34-11.86,14.64,0,0,0,.09-.09.18l-5.3,8.27-17.61,27.31-26.95,41.69,21.74,11.86,6.92,3.77h0c1.8,11.77,5.3,23.18,10.42,34.05,7.37,15.9,18.15,30.55,32.07,42.49l-3.32,14.01h0l-2.7,11.05c-3.77,15.18-13.57,37.1-13.57,37.1l.9.63s17.16-16.71,29.65-25.87l9.97-7.37,12.04-8.89c16.26,7.19,33.6,10.6,50.67,10.6,2.07,0,4.22,0,6.29-.18,18.06-.9,35.85-5.57,52.11-13.84,18.06-9.25,34.23-22.91,46.63-40.79,3.68-5.21,6.92-10.69,9.61-16.26,8.98-18.06,13.3-37.46,13.3-56.78,0-5.75-.36-11.41-1.17-17.16l27.67-40.61-.18.09Z"/>
    <path class="cls-4" d="M961.6,666.46l-55.61,41.06-13.39-42.58,12.04-8.89c16.26,7.19,33.6,10.6,50.67,10.6,2.07,0,4.22,0,6.29-.18Z"/>
    <path class="cls-2" d="M54.68,404.04H20.81v-57.86h223.7c24.53,0,35.49,10.96,35.49,35.49v56.33h-62.08v-22.46c0-7.28-4.13-11.5-11.5-11.5h-83.46v97.03h119.93v57.86h-119.93v88.13c0,7.28,4.13,11.5,11.5,11.5h85.53c7.28,0,11.5-4.13,11.5-11.5v.63h62.08v33.33c0,25.07-10.96,35.49-35.49,35.49H90.16c-25.06,0-35.49-10.42-35.49-35.49v-276.97Z"/>
    <path class="cls-2" d="M464.16,549.58h8.35v-2.07c0-38.09-15.09-52.2-49.05-52.2-12.04,0-35.49,3.14-35.49,17.7v14.1h-61.54v-28.12c0-49.5,69.89-54.8,97.56-54.8,88.67,0,114.72,46.45,114.72,105.92v99.09c0,7.28,4.13,11.5,11.5,11.5h20.84v55.79h-59.47c-24.53,0-33.87-13.57-33.87-29.2,0-6.74.54-11.5.54-11.5h-1.08s-20.3,46.9-80.32,46.9c-47.43,0-90.74-29.74-90.74-82.92,0-83.46,114.72-90.2,158.03-90.2h0ZM413.04,671.04c35.49,0,60.46-37.55,60.46-69.89v-6.29h-11.5c-34.41,0-89.21,4.67-89.21,41.69,0,17.7,13.03,34.41,40.16,34.41l.09.09Z"/>
    <path class="cls-2" d="M609.61,631.96s33.87,39.08,79.24,39.08c20.3,0,36.03-8.36,36.03-26.05,0-37.55-140.33-37.01-140.33-123.08,0-53.18,47.97-77.71,103.22-77.71,36.03,0,93.34,12.04,93.34,55.25v27.67h-58.4v-13.03c0-12.49-18.78-18.78-33.42-18.78-23.45,0-39.62,8.36-39.62,23.99,0,41.78,141.32,33.42,141.32,122,0,50.04-44.29,81.39-102.24,81.39-73.04,0-110.59-47.43-110.59-47.43l31.26-43.3h.18Z"/>
    <path class="cls-2" d="M862.24,450.94c-4.31,4.49-8.27,9.34-11.86,14.64,0,0,0,.09-.09.18l-5.3,8.27-17.61,27.31c-2.25-2.43-5.12-4.58-7.91-6.47l-6.92-4.76,34.59-49.68,15.18,10.6-.09-.09Z"/>
    <path class="cls-2" d="M1056.38,559.37l-32.52-21.11,26.32-40.61-133.41-67.2h0c-16.17,5.84-31.26,15.27-43.75,28.03-4.22,4.4-8.18,9.16-11.86,14.37l-42.31,65.58,43.39,23.72-6.29,11.41-12.04-6.56c3.41,13.84,9.52,27.04,18.06,38.9h0c1.35.36,3.05.72,5.03,1.17.72.09,1.53.36,2.34.54,2.43.45,5.3.81,8.44,1.17h0c3.41.36,7.28.63,11.32.63,10.51,0,22.64-1.53,35.04-6.29,9.79-3.77,19.76-9.61,29.11-18.42.99-.81,1.98-1.8,2.87-2.7-4.04-4.22-7.46-9.7-8.62-16.71l12.67-2.07c1.26,9.79,13.21,16.8,19.76,19.32,2.07.81,3.32,1.17,3.32,1.17l-3.5,12.49s-6.38-1.8-13.39-5.93c-25.07,25.96-54.71,32.34-76.81,32.34h-.36c-4.94,0-9.52-.36-13.66-.72,3.68,3.68,7.64,6.92,11.86,9.97.72.63,1.44,1.17,2.25,1.62,1.44.99,2.87,1.98,4.4,2.87h0c7.37,4.58,14.91,8.36,22.82,11.05,12.49,4.58,25.51,6.74,38.36,6.74,18.15,0,36.21-4.4,52.47-12.67,16.35-8.27,30.81-20.57,41.95-36.65,3.68-5.3,6.83-10.78,9.52-16.35,7.55-15.72,11.14-32.43,11.14-49.14l-13.92,20.39v-.36Z"/>
    <path class="cls-1" d="M798.09,666.19c-.54,2.43-1.44,6.74-2.25,10.24-.18.9-.36,1.8-.63,2.7-.09.54-.27,1.08-.36,1.53v.54c-.36,1.08-.72,2.7-1.17,4.76-.36,1.8-.72,3.5-1.08,5.03-.27.99-.45,2.07-.72,3.23-3.5,16.35-8.89,41.42-10.42,48.51-1.35,1.35-55.16,41.15-91.91,60.01-.18.09-.45.27-.72.36-33.06,13.75-69.54,20.57-107.54,21.83-65.85,1.17-139.61-13.75-204.83-35.13-.99-.36-2.07-.72-3.05-.99-27.58-9.52-54.26-20.39-79.51-31.98-22.1-10.15-42.94-20.84-62.44-31.71h-.09l-.36-.18h-.18s-.18-.18-.27-.18h0s-.09-.27-.18-.27c-.09-.18-.18-.27-.18-.27l2.61-27.67,5.84,3.41c.45-6.47.72-22.91-7.19-32.61-9.97-12.31-.72-54.71,3.05-54.71,15-1.17,33.24,76.27,35.4,93.7,1.8-6.65,7.19-29.74-1.35-45.1-9.97-18.06,11.59-70.25,16.53-69.36,3.41.72,6.29,3.95,8.89,8.89,14.19,28.21,15,114.19,15.9,132.33,171.23,51.75,343.45,35.04,368.7,32.16,42.4-19.76,88.04-56.6,119.49-98.91v-.18Z"/>
    <path class="cls-1" d="M581.4,824.85c-66.57,2.25-137.9-12.31-204.83-35.13,65.13,21.38,138.98,36.29,204.83,35.13Z"/>
    <path class="cls-2" d="M1090.61,610.04l-34.68,49.68c-8.35-5.66-15.99-13.3-26.05-5.84,0,0-76.45,50.67-147.07,97.3-59.92,39.62-115.62,76.45-116.34,76.9-2.61,1.62-8.18,4.94-8.44,5.03-66.3,39.35-123.26,49.5-270.15,23.54-69.27-11.32-139.43-45.19-194.05-82.11-23.63-15.9-44.29-32.34-60.91-47.7-.27-.27-1.8-1.62-2.16-2.07h.09l.36.18c11.5,6.92,31.71,17.61,44.92,23.99,2.7,1.17,5.48,2.52,8.27,3.95,2.87,1.35,5.75,2.7,8.8,4.13h0s.36.09.54.27c23.81,11.23,50.85,22.01,79.51,31.53.99.36,2.07.72,3.05.99,65.13,21.38,138.98,36.29,204.83,35.13,30.9-.45,60.01-4.49,85.8-13.12,5.75-1.26,13.3-4.4,21.74-8.71.27-.09.54-.27.72-.36,36.83-18.87,90.56-58.57,91.91-60.01,1.53-7.1,6.92-32.16,10.42-48.51.36-1.17.54-2.25.72-3.23.36-1.62.72-3.32,1.08-5.03.45-2.07.72-3.68.99-4.76v-.54s.36-.99.45-1.53c.27-.9.45-1.8.63-2.7.72-3.5,1.71-7.82,2.25-10.24h0l23.99-111.22,6.92,3.77h0c1.8,11.77,5.3,23.18,10.42,34.05-.99,4.58-4.4,20.84-5.21,25.07h0l-.72,3.59h0l-4.58,21.83h0l-5.75,27.49,45.01-21.47-2.7,10.96c-3.77,15.18-13.57,37.1-13.57,37.1l.9.63s17.16-16.71,29.65-25.87l.36-.27,9.61-7.1,13.39,42.58,55.61-41.06c2.25,0,4.58-.27,6.74-.54,9.07-.81,17.97-2.7,26.5-5.57,1.8-.54,3.5-1.17,5.3-1.8l2.43-.99c1.53-.54,2.87-1.17,4.4-1.8.36-.09.63-.36.99-.45,1.71-.72,3.32-1.53,5.03-2.34,1.8-.99,3.59-1.89,5.39-2.87,1.17-.63,2.25-1.26,3.32-1.98,2.07-1.26,4.13-2.61,6.2-4.04,2.07-1.35,4.04-2.87,5.93-4.31,1.98-1.53,3.86-3.05,5.75-4.76,1.8-1.62,3.68-3.32,5.48-5.03,1.8-1.8,3.68-3.68,5.39-5.66,1.8-1.98,3.5-3.95,5.12-6.11,1.8-2.07,3.32-4.31,4.85-6.47.99-1.35,1.8-2.7,2.7-3.95.99-1.35,1.8-2.7,2.52-4.04.81-1.35,1.62-2.7,2.25-4.04.72-1.35,1.44-2.79,2.16-4.13l20.75,14.46.27.18Z"/>
    <path class="cls-4" d="M871.58,635.29l-3.32,14.01h0l-45.01,21.47,16.35-77.98c7.37,15.9,18.15,30.55,32.07,42.49h-.09Z"/>
    <path class="cls-1" d="M952.61,531.16c-8.53,8.89-28.66,20.39-45.19,14.28-16.53-6.2-24.17-28.12-24.71-40.43,6.11,8.89,9.79,23.63,29.56,30.99,17.52,6.56,29.92-2.16,40.34-4.85Z"/>
  </g>
</svg>