<?xml version="1.0" encoding="UTF-8"?>
<svg id="Layer_1" data-name="Layer 1" xmlns="http://www.w3.org/2000/svg" viewBox="0 0 1280 400">
  <defs>
    <style>
      .cls-1 {
        fill: #dfeef6;
      }

      .cls-2 {
        fill: #d4dfe5;
      }

      .cls-3 {
        fill: #e1eef4;
        opacity: .5;
      }

      .cls-3, .cls-4 {
        isolation: isolate;
      }

      .cls-5, .cls-4 {
        fill: #fff;
      }

      .cls-6 {
        fill: #293644;
      }

      .cls-4 {
        opacity: .7;
      }
    </style>
  </defs>
  <g>
    <path class="cls-5" d="M19.59,95.29l38.84,180.9h10.33l42.1-178.19h10.87l43.43,178.19h10.33l37.51-180.9h9.49l-39.14,190.14h-26.09l-41.01-174.63-39.68,174.63h-26.09L10,95.29h9.59Z"/>
    <path class="cls-5" d="M243.68,95.29h9.49v14.92h-9.49v-14.92ZM243.68,149.64h9.49v135.79h-9.49v-135.79Z"/>
    <path class="cls-5" d="M287.95,87.18h9.49v198.3h-9.49V87.18Z"/>
    <path class="cls-5" d="M426.46,285.43h-9.49v-11.41s-22.29,13.84-46.99,13.84c-16.85,0-45.91-2.42-45.91-68.44,0-46.7,12.5-72.24,57.02-72.24,12.75,0,29.06,2.17,35.87,3.26v-55.15h9.49s0,190.14,0,190.14ZM416.97,265.07v-105.94c-7.07-.79-25.25-3.26-35.87-3.26-38.59,0-47.54,23.08-47.54,64.39,0,54.06,21.2,58.95,36.42,58.95,23.37,0,46.99-14.13,46.99-14.13Z"/>
    <path class="cls-5" d="M457.44,98.01h118.99v35.87h-82.03v54.06h65.72v35.58h-65.72v61.92h-36.96s0-187.43,0-187.43Z"/>
    <path class="cls-5" d="M587.25,95.29h36.37v190.14h-36.37V95.29Z"/>
    <path class="cls-5" d="M664.39,149.89l24.71,99.96h6.23l24.71-99.96h35.87l-47.54,192.32h-35.87l13.84-56.78h-24.46l-33.4-135.54h35.92Z"/>
  </g>
  <g>
    <path class="cls-4" d="M892.63,183.84c-4.69-1.43-9.54-2.57-14.38-3.66-2.42-.54-4.84-1.04-7.31-1.53-2.42-.49-4.89-.99-7.36-1.43-1.24-.2-2.47-.44-3.66-.59l-3.71-.49c-2.47-.35-4.99-.69-7.46-.94-2.47-.25-4.94-.54-7.46-.69l-7.51-.54c-5.04-.25-10.08-.49-15.12-.59-2.52-.1-5.04-.1-7.61-.15-2.52,0-5.09-.05-7.61,0-5.04,0-10.23.1-15.22.25l-7.71.35-7.51.59-7.61.79c-2.57.3-5.04.64-7.61.99-5.09.74-10.13,1.53-15.22,2.42-5.09.89-10.18,1.88-15.27,2.92-10.23,2.08-20.46,4.2-30.59,6.67-5.09,1.24-10.13,2.57-15.17,4.05-2.57.79-5.19,1.58-7.71,2.47.94.3,1.88.54,2.87.74,3.56.79,7.31,1.28,11.17,1.78,1.93.25,3.9.54,5.88.89l2.92.54,1.24.2,1.33.15c3.56.35,7.31.25,11.07.05,7.51-.4,15.12-1.38,22.78-2.17,3.85-.4,7.71-.69,11.61-.79,2.03,0,3.85,0,5.78.05l5.73.1c3.8.1,7.61.25,11.41.44h.2c.3-.05.59-.2.94-.25l.94-.25,1.04-.25c.69-.2,1.38-.3,2.08-.44,1.38-.25,2.72-.44,4.05-.59,2.72-.3,5.34-.44,7.96-.54,5.24-.15,10.38-.05,15.52.05,5.09.15,10.18.3,15.22.49,5.04.25,10.08.94,15.12,1.48,5.04.59,10.08.79,15.07.54l5.58-.3-5.29,1.58c-3.66,1.09-7.31,1.53-11.02,1.88-3.71.4-7.41.59-11.12.74-7.46.3-14.92.4-22.43.3-2.96-.05-5.98-.2-8.99-.4-2.42,0-4.84.1-7.26.25-2.47.15-4.94.35-7.31.64-1.19.15-2.37.35-3.51.59-.54.15-1.14.25-1.68.4l-.84.2-.89.25c-2.32.69-4.64,1.48-6.67,2.37-.4.2-.79.4-1.19.59.84.35,1.73.69,2.67.99,2.27.69,4.64,1.28,7.12,1.83,2.42.54,4.94.99,7.31,1.38,1.28.2,2.57.4,3.71.54,1.19.15,2.42.3,3.66.4,4.89.49,9.83.69,14.82.64,4.94-.05,9.93-.3,14.87-.74,9.88-.89,19.67-2.32,29.35-4.3,4.84-.99,9.64-2.03,14.38-3.26l3.56-.89,3.51-.94c2.42-.64,4.6-1.33,6.92-1.98,4.6-1.43,9.14-3.01,13.84-4.45,4.64-1.48,9.39-2.87,14.28-3.8l.4-.59c.44-1.09-.15-2.17-1.53-3.26-.79-.49-1.63-.94-2.47-1.33-2.17-.99-4.55-1.73-6.87-2.42h0Z"/>
    <path class="cls-4" d="M987.4,217.98c1.98,1.33,3.8,2.72,5.93,4.05l3.01,2.03,3.06,1.98c4.15,2.62,8.35,5.19,12.6,7.61,8.55,4.94,17.39,9.39,26.49,13.34,4.55,1.98,9.19,3.76,13.84,5.39,4.69,1.63,9.49,3.01,14.28,4.1,1.19.25,2.42.54,3.61.74,1.14.25,2.42.44,3.71.64,2.42.4,4.94.74,7.41.99s4.94.44,7.31.49c.99,0,1.98,0,2.87-.1-.3-.3-.59-.64-.94-.94-1.63-1.53-3.61-2.96-5.58-4.4l-.79-.54-.69-.44c-.44-.3-.99-.59-1.48-.89-.99-.59-2.08-1.14-3.16-1.68-2.17-1.04-4.45-2.03-6.77-2.92-2.22-.89-4.5-1.68-6.77-2.47-2.92-.74-5.78-1.58-8.65-2.47-7.16-2.27-14.23-4.69-21.2-7.36-3.46-1.33-6.92-2.72-10.33-4.25-3.36-1.53-6.72-3.11-9.83-5.29l-4.5-3.16,5.19,2.03c4.64,1.83,9.54,3.21,14.48,4.25,4.94,1.09,9.93,2.03,14.82,3.36,4.89,1.38,9.73,2.87,14.63,4.35s9.83,3.01,14.73,4.84c2.47.89,4.94,1.88,7.41,3.01,1.24.54,2.47,1.19,3.66,1.83.59.35,1.24.69,1.83,1.09l.89.54.84.54c.25.15.54.35.79.54h.15c3.66,1.09,7.31,2.12,10.97,3.26l5.48,1.68c1.83.59,3.61,1.09,5.48,1.78,3.71,1.28,7.26,2.82,10.82,4.4,7.07,3.16,13.93,6.47,20.95,9.24,3.51,1.33,7.02,2.62,10.53,3.46l1.28.3,1.24.2,2.92.4c2.03.3,3.95.64,5.88,1.04,3.8.74,7.56,1.48,11.17,1.83.99.1,1.98.15,2.96.2-2.12-1.63-4.3-3.21-6.52-4.74-4.3-2.96-8.65-5.83-13.09-8.6-8.85-5.58-17.89-10.82-26.93-16.01-4.5-2.57-8.99-5.14-13.54-7.61s-9.09-4.84-13.69-7.12c-2.32-1.09-4.6-2.22-6.92-3.31l-6.97-3.16-6.97-2.92-7.21-2.77c-4.69-1.68-9.59-3.41-14.38-5.04-2.42-.84-4.84-1.58-7.26-2.37-2.42-.79-4.84-1.53-7.26-2.27-4.84-1.48-9.69-2.82-14.58-4.2l-7.31-1.83c-2.42-.64-4.84-1.09-7.26-1.68-2.42-.59-4.89-.99-7.36-1.48l-3.66-.69c-1.19-.2-2.42-.4-3.66-.54-2.47-.35-4.94-.69-7.41-.94-2.47-.3-4.94-.59-7.41-.84-4.94-.49-9.88-.89-14.82-1.04-2.47-.05-4.89-.1-7.31.15-.94.1-1.88.25-2.77.49-1.63.64-2.57,1.48-2.52,2.62l.2.69c4.3,2.42,8.4,5.24,12.35,8.1,3.95,2.87,7.81,5.83,11.71,8.6l.05-.1Z"/>
  </g>
  <path class="cls-3" d="M787.77,170.64c-22.14.35-43.09,3.9-64.93,8.35-15.66,3.16-43.78,9.24-58.31,15.61,6.13,5.63,21,5.63,29.55,7.26,13.89,2.62,36.96-3.21,51.49-3.31,9.98-.1,19.72-.1,29.55.44-1.83.25-3.56.59-5.14,1.04-3.36.94-13.74,3.8-13.09,7.12.69,3.76,18.13,6.87,21.49,7.51,26.58,4.79,59.74-.79,86.87-8.3,14.68-4.05,23.57-9.19,37.9-14.82-4.84.94-9.64,2.32-14.28,3.8-4.69,1.48-9.24,3.06-13.84,4.45-2.32.64-4.5,1.33-6.92,1.98l-3.51.94-3.56.89c-4.74,1.19-9.54,2.27-14.38,3.26-9.69,1.98-19.47,3.41-29.35,4.3-4.94.44-9.88.69-14.87.74-4.99.05-9.93-.15-14.82-.64-1.24-.15-2.47-.25-3.66-.4-1.19-.15-2.42-.35-3.71-.54-2.37-.4-4.94-.89-7.31-1.38-2.42-.54-4.84-1.14-7.12-1.83-.94-.3-1.88-.64-2.67-.99.4-.2.79-.4,1.19-.59,2.03-.94,4.35-1.68,6.67-2.37l.89-.25.84-.2c.54-.15,1.14-.25,1.68-.4,1.14-.25,2.32-.44,3.51-.59,2.37-.3,4.84-.49,7.31-.64,2.37-.15,4.79-.2,7.26-.25,3.01.2,5.98.3,8.99.4,7.51.1,14.97,0,22.43-.3,3.71-.15,7.41-.4,11.12-.74,3.71-.4,7.36-.79,11.02-1.88l5.29-1.58-5.58.3c-4.99.25-10.03,0-15.07-.54s-10.08-1.24-15.12-1.48-10.13-.35-15.22-.49c-5.14-.15-10.28-.25-15.52-.05-2.62.1-5.29.25-7.96.54-1.33.15-2.72.35-4.05.59-.69.15-1.38.25-2.08.44l-1.04.25-.94.25c-.3.1-.59.2-.94.25h-.2c-3.8-.2-7.61-.35-11.41-.44l-5.73-.1c-1.93,0-3.76-.1-5.78-.05-3.95.05-7.81.4-11.61.79-7.66.74-15.27,1.78-22.78,2.17-3.76.2-7.51.3-11.07-.05l-1.33-.15-1.24-.2-2.92-.54c-1.98-.35-3.95-.59-5.88-.89-3.85-.49-7.61-.99-11.17-1.78-.99-.2-1.93-.49-2.87-.74,2.52-.89,5.09-1.68,7.71-2.47,4.99-1.48,10.08-2.82,15.17-4.05,10.13-2.47,20.36-4.64,30.59-6.67,5.09-1.04,10.18-2.03,15.27-2.92,5.09-.89,10.13-1.73,15.22-2.42,2.52-.3,5.04-.69,7.61-.99l7.61-.79,7.51-.59,7.71-.35c4.99-.15,10.18-.2,15.22-.25h7.61c2.52,0,5.09,0,7.61.15,5.04.1,10.08.35,15.12.59l7.51.54c2.52.2,4.94.49,7.46.69,2.47.2,4.99.59,7.46.94l3.71.49c1.19.2,2.42.4,3.66.59,2.42.44,4.89.94,7.36,1.43,2.42.49,4.89.99,7.31,1.53,4.84,1.09,9.69,2.27,14.38,3.66,2.32.74,4.69,1.48,6.87,2.42.89.4,1.73.84,2.47,1.33-7.46-6.03-37.41-12.11-42.74-13-22.48-3.66-48.82-4.35-71.5-4v-.05Z"/>
  <g>
    <path class="cls-6" d="M905.23,188.24c-.35-.69-.79-1.28-1.33-1.73-.99-.94-2.12-1.68-3.26-2.32-2.27-1.33-4.6-2.37-6.92-3.31-4.74-1.93-9.59-3.41-14.43-4.79-4.89-1.38-9.78-2.57-14.77-3.66-1.24-.25-2.47-.54-3.8-.74l-3.8-.59c-2.52-.4-4.99-.79-7.51-1.09-2.52-.3-5.09-.64-7.66-.89l-7.61-.69c-5.09-.35-10.23-.74-15.32-.94-2.57-.15-5.14-.2-7.71-.3s-5.14-.15-7.71-.2c-5.19-.1-10.23-.1-15.52-.05l-7.71.2-7.91.44-7.81.69c-2.62.3-5.19.64-7.81.94-5.19.69-10.38,1.48-15.52,2.37-5.19.89-10.33,1.83-15.47,2.87-5.14.99-10.28,2.12-15.42,3.21-5.14,1.14-10.33,2.32-15.47,3.61-5.19,1.28-10.33,2.67-15.47,4.2-5.19,1.58-10.33,3.26-15.42,5.44l-4.89,2.12,3.9,3.46c1.93,1.68,4.05,2.77,6.13,3.56s4.15,1.33,6.18,1.73c4.05.84,8.05,1.24,11.91,1.63,1.93.2,3.85.4,5.68.64l2.82.44c.49.1,1.09.15,1.63.2l1.58.15c4.15.25,8.15,0,12.11-.35,7.86-.79,15.42-2.12,22.93-3.21,3.76-.54,7.51-1.04,11.17-1.24,3.71-.15,7.61-.25,11.37-.35h3.06c-.79.4-1.58.84-2.42,1.43-.74.54-1.53,1.19-2.32,2.37-.35.64-.74,1.38-.79,2.42v1.14l.05.2v.3l.1.1s.1.3.15.44c.15.35.25.54.35.74.89,1.53,1.83,2.08,2.62,2.67.79.54,1.53.89,2.22,1.24,1.43.64,2.72,1.14,4.05,1.58,2.67.89,5.24,1.53,7.81,2.12,2.62.59,5.14,1.14,7.81,1.58,1.28.2,2.52.44,3.9.64s2.67.35,4,.49c5.29.54,10.57.74,15.86.69,5.24,0,10.43-.4,15.57-.89,2.57-.25,5.14-.54,7.66-.89,2.52-.35,5.09-.74,7.61-1.19,5.04-.84,9.98-1.88,14.92-2.96,4.94-1.14,9.78-2.37,14.63-3.71l3.61-1.04.44-.15.49-.15.89-.3,1.78-.59c2.32-.69,4.74-1.68,7.07-2.62,4.6-1.93,8.99-4.15,13.24-6.52,4.25-2.37,8.4-4.79,12.5-7.41-14.33,5.63-23.22,10.72-37.9,14.82-27.13,7.51-60.33,13.09-86.87,8.3-3.41-.64-20.8-3.71-21.49-7.51-.59-3.31,9.73-6.18,13.09-7.12,1.53-.44,3.26-.74,5.14-1.04-9.83-.54-19.57-.54-29.55-.44-14.53.15-37.55,5.98-51.49,3.31-8.55-1.63-23.42-1.63-29.55-7.26,14.58-6.32,42.64-12.4,58.31-15.61,21.89-4.45,42.79-8.01,64.93-8.35,22.68-.35,49.02.35,71.5,4,5.34.89,35.28,6.97,42.74,13,.2.1.4.2.54.35.44.35.84.69,1.04,1.04.15.2.2.35.25.54v.2s-.05.25-.05.4l1.48.44s.1-.2.15-.49c.05-.25.1-.44.05-.64,0-.44-.15-.84-.3-1.19l-.05.05Z"/>
    <path class="cls-6" d="M1190.64,276.29c-4.15-3.71-8.5-6.92-12.95-10.03-4.4-3.11-8.85-6.03-13.34-8.89-4.5-2.87-8.99-5.63-13.54-8.35-4.55-2.72-9.04-5.39-13.64-7.96-4.55-2.57-9.14-5.14-13.79-7.61-4.6-2.47-9.29-4.84-13.98-7.16-2.37-1.14-4.69-2.27-7.12-3.36l-7.21-3.11-7.31-2.92-7.26-2.62c-4.99-1.68-9.83-3.31-14.73-4.84-2.42-.79-4.89-1.53-7.36-2.27-2.47-.74-4.89-1.48-7.41-2.17-4.94-1.43-9.88-2.67-14.82-3.95l-7.46-1.73c-2.47-.59-5.04-1.04-7.56-1.58-2.52-.54-4.99-.94-7.46-1.38l-3.8-.64c-1.33-.2-2.57-.35-3.85-.49-5.04-.59-10.13-.99-15.17-1.19-5.04-.2-10.13-.3-15.22,0-2.52.15-5.09.44-7.66.94-1.28.3-2.57.59-3.8,1.19-.64.3-1.24.69-1.78,1.24-.25.3-.49.64-.64,1.04-.05.2-.15.4-.15.64v.49h1.53s0-.35.05-.35c0,0,.05-.1.1-.2.1-.15.2-.3.4-.44.35-.25.84-.49,1.33-.64.2-.05.4-.1.64-.15,8.94-3.36,39.28.35,44.67,1.19,22.48,3.61,47.68,11.32,69.13,18.78,20.9,7.31,39.63,17.29,59,28.41,13.89,7.96,38.59,22.58,50.4,33.21-7.61,3.41-21.69-1.28-30.34-2.42-14.03-1.88-34.1-14.68-47.78-19.42-9.44-3.26-18.73-6.32-28.17-8.89,1.68.84,3.21,1.68,4.55,2.57,2.92,1.93,11.81,7.96,10.18,10.87-1.88,3.36-19.37.79-22.78.3-26.73-3.85-56.48-19.62-79.8-35.28-12.65-8.5-19.47-16.16-31.28-26.04,3.06,3.8,6.28,7.36,9.54,10.97,3.26,3.61,6.77,7.07,10.53,10.38,1.93,1.58,3.9,3.31,5.88,4.69l1.48,1.09.74.54.44.3.4.25,3.11,2.12c4.15,2.82,8.4,5.48,12.7,8.1,4.35,2.62,8.75,5.14,13.24,7.56,2.22,1.24,4.55,2.37,6.82,3.51,2.32,1.14,4.64,2.22,7.02,3.26,4.74,2.12,9.54,4.05,14.53,5.78,4.99,1.68,10.03,3.21,15.27,4.35,1.33.25,2.57.54,3.95.79s2.67.44,3.9.64c2.67.4,5.24.69,7.91.94,2.67.25,5.34.44,8.1.44,1.38,0,2.82,0,4.35-.2.79-.1,1.58-.2,2.47-.44.89-.3,1.98-.54,3.31-1.68.15-.15.3-.3.54-.59.1-.1.25-.35.25-.35v-.1l.2-.25.1-.15.15-.35s.2-.44.25-.69c.25-.99.15-1.83,0-2.52-.35-1.38-.94-2.22-1.43-2.96-.59-.84-1.24-1.53-1.88-2.12.94.35,1.93.64,2.87.99,3.51,1.28,7.21,2.62,10.67,3.9,3.41,1.38,6.82,3.01,10.23,4.69,6.82,3.41,13.54,7.07,20.75,10.28,3.61,1.58,7.36,3.06,11.37,4.15l1.53.4c.54.1,1.14.25,1.63.35l2.82.49c1.83.35,3.66.79,5.58,1.19,3.8.84,7.71,1.68,11.86,2.17,2.08.25,4.2.4,6.42.3,2.22-.1,4.6-.44,6.97-1.43l4.79-2.03-4-3.56-.15.05Z"/>
  </g>
  <path class="cls-3" d="M1074.47,262.55c3.41.49,20.9,3.06,22.78-.3,1.63-2.92-7.31-8.94-10.18-10.87-1.33-.89-2.87-1.73-4.55-2.57,9.49,2.57,18.78,5.68,28.17,8.89,13.74,4.69,33.75,17.49,47.78,19.42,8.6,1.19,22.73,5.83,30.34,2.42-11.81-10.62-36.57-25.25-50.4-33.21-19.37-11.12-38.1-21.1-59-28.41-21.45-7.51-46.65-15.17-69.13-18.78-5.39-.84-35.68-4.55-44.67-1.19.89-.25,1.83-.4,2.77-.49,2.37-.25,4.84-.2,7.31-.15,4.89.15,9.88.54,14.82,1.04,2.47.25,4.94.54,7.41.84,2.47.3,4.94.59,7.41.94,1.24.2,2.47.35,3.66.54l3.66.69c2.47.49,4.99.89,7.36,1.48,2.42.54,4.84,1.04,7.26,1.68l7.31,1.83c4.84,1.33,9.73,2.67,14.58,4.2,2.42.69,4.84,1.48,7.26,2.27s4.84,1.53,7.26,2.37c4.79,1.58,9.69,3.31,14.38,5.04l7.21,2.77,6.97,2.92,6.97,3.16c2.32,1.09,4.6,2.22,6.92,3.31,4.6,2.27,9.14,4.64,13.69,7.12,4.55,2.47,9.04,4.99,13.54,7.61,9.04,5.19,18.09,10.43,26.93,16.01,4.45,2.77,8.85,5.63,13.09,8.6,2.22,1.53,4.4,3.11,6.52,4.74-.99,0-1.98-.1-2.96-.2-3.61-.35-7.31-1.09-11.17-1.83-1.93-.35-3.85-.74-5.88-1.04l-2.92-.4-1.24-.2-1.28-.3c-3.51-.79-7.02-2.08-10.53-3.46-7.02-2.77-13.89-6.08-20.95-9.24-3.51-1.58-7.07-3.11-10.82-4.4-1.88-.64-3.66-1.19-5.48-1.78l-5.48-1.68c-3.66-1.14-7.31-2.17-10.97-3.21h-.15c-.25-.25-.54-.4-.79-.59l-.84-.54-.89-.54c-.59-.4-1.24-.69-1.83-1.09-1.24-.69-2.42-1.28-3.66-1.83-2.47-1.14-4.94-2.12-7.41-3.01-4.94-1.83-9.83-3.36-14.73-4.84-4.89-1.48-9.73-2.96-14.63-4.35-4.89-1.33-9.88-2.27-14.82-3.36-4.94-1.04-9.83-2.42-14.48-4.25l-5.19-2.03,4.5,3.16c3.11,2.17,6.47,3.76,9.83,5.29,3.41,1.53,6.87,2.92,10.33,4.25,6.97,2.67,14.03,5.09,21.2,7.36,2.87.89,5.73,1.73,8.65,2.47,2.27.79,4.55,1.63,6.77,2.47,2.32.89,4.6,1.88,6.77,2.92,1.09.54,2.12,1.09,3.16,1.68.49.3.99.59,1.48.89l.69.44.79.54c2.03,1.38,3.95,2.87,5.58,4.4.35.3.64.64.94.94-.89.05-1.88.1-2.87.1-2.37,0-4.84-.25-7.31-.49s-4.99-.59-7.41-.99c-1.28-.2-2.52-.4-3.71-.64-1.19-.2-2.37-.49-3.61-.74-4.79-1.09-9.59-2.47-14.28-4.1-4.69-1.63-9.29-3.41-13.84-5.39-9.09-3.95-17.94-8.4-26.49-13.34-4.3-2.47-8.5-4.99-12.6-7.61l-3.06-1.98-3.01-2.03c-2.12-1.38-3.95-2.72-5.93-4.05-3.9-2.82-7.76-5.73-11.71-8.6-3.95-2.87-8-5.68-12.35-8.1,11.81,9.88,18.68,17.54,31.28,26.04,23.37,15.71,53.12,31.48,79.8,35.28l.05.05Z"/>
  <path class="cls-2" d="M880.27,214.42c-.35,8.75,4.89,17,9.88,24.26,7.36,10.77,3.46,24.81,3.76,36.42.44,18.04-6.18,89.78,9.19,106.78h.05c19.57-8.2,35.43-76.25,41.61-93.05,3.95-10.77,4.74-29.01,15.12-36.17,7.71-5.34,18.33-11.02,20.21-20.7l-46-46.94s-53.81,28.81-53.81,29.4h0Z"/>
  <path class="cls-1" d="M972.83,232.07c-1.28.54-2.57,1.14-3.8,1.73,1.63-1.04,3.21-2.12,4.74-3.41,1.68-1.43-1.48-3.06-2.72-2.77-2.17.49-4.3,1.09-6.47,1.68.99-1.33,1.88-2.77,2.57-4.35.74-1.68-1.73-2.67-3.01-2.47-13.44,2.27-22.68,11.46-34.59,17.39-5.83,2.92-11.91,5.48-18.18,7.46-.84.25-1.68.49-2.47.74-1.58.4-3.21.74-4.84.94-1.43.44-2.52-.1-3.26-1.53,1.14-1.19,4.6-1.73,6.03-2.12,5.63-1.43,10.97-3.31,16.26-5.68,4.69-2.12,9.09-4.69,13.19-7.76,8.65-2.92,16.8-7.21,23.13-13.89,1.33-1.43-2.17-2.62-3.01-2.47-7.31,1.04-12.85,4.79-18.43,9.49-1.78,1.48-3.56,2.87-5.39,4.2-3.51,1.14-7.07,2.08-10.62,2.92-2.37.54-4.89.94-7.41,1.24,3.46-1.88,6.92-3.85,10.43-5.73,9.54-5.09,20.36-8.25,28.17-15.91,1.83-1.78-1.88-3.01-3.21-2.67-10.03,2.82-19.27,7.31-28.71,11.71,0,0,.1,0,.15-.05,8.3-4.15,16.45-8.5,24.46-13.09,1.98-1.14-1.43-2.77-2.92-2.72.74-.4,1.48-.74,2.27-1.14,2.52-1.28-1.14-3.56-2.82-2.87-8.99,3.51-17.69,7.51-26.24,12.11-6.77,3.66-15.27,10.62-23.47,12.55,4.69-4.5,11.86-6.87,17.29-10.08,8.2-4.84,16.31-9.69,24.31-14.77,1.43-.94-.15-2.12-1.63-2.57,1.83-1.09,3.61-2.17,5.39-3.31,1.48-.94-.35-2.37-1.93-2.72.59-.99.74-1.93.25-2.72-.64-.94-1.93-1.53-3.01-1.28-1.48.3-2.62,1.24-3.85,2.03-5.14,3.41-10.03,6.67-15.61,9.39-7.02,3.46-14.33,6.32-21.45,9.69-2.03.59-4.1,1.24-6.18,1.88-1.04.35-1.09.94-.64,1.53-.49.25-.94.49-1.43.74-.49.3-.59,1.04-.25,1.53,1.19,1.93,3.21,2.52,5.53,2.37-1.98.94-4,1.88-6.03,2.82-2.22.99.25,3.06,1.78,3.06s2.96-.25,4.35-.69c-1.43,1.24-2.72,2.57-3.76,4.25-.89,1.43,1.48,2.47,2.52,2.52.99.05,1.98.05,2.92,0-.59.44-1.19.84-1.78,1.28-1.93,1.43,1.93,3.41,3.26,2.67.15-.1.3-.15.4-.25h0c.49-.25.94-.54,1.43-.79-.2.15-.35.3-.54.49-1.73,1.68,1.48,2.87,2.77,2.82,7.81-.4,14.53-5.04,21.05-8.75,6.87-3.95,14.33-7.46,21.94-10.38-5.68,3.16-11.91,5.58-17.69,8.45-6.82,3.46-13.24,7.41-20.21,10.48-3.06.69-6.03,1.68-8.65,3.26-2.17,1.28,2.08,3.01,3.26,2.67,2.62-.74,5.19-1.68,7.66-2.72,3.9-.74,8.05-.94,11.76-1.58,2.08-.35,4.15-.79,6.23-1.28-3.01,1.53-6.08,2.96-9.39,4.2-4.74,1.83-12.65,2.03-16.41,5.83-1.83,1.83.89,4.94,2.67,5.63.25.1.44.15.69.25-.69.35-1.38.64-2.03.99-1.24.69.1,2.22.99,2.52,3.21,1.09,6.32,1.19,9.34.69-2.37.94-4.69,1.88-7.07,2.82-1.98.79-.35,2.37,1.28,2.87-4.3,2.62-7.16,5.34-4.55,7.12,2.57,1.68,6.28,0,8.7-.89,2.52-.94,4.99-1.98,7.46-3.01-.3.2-.64.4-.94.59-.59.4-.64.79-.49,1.19-1.43.84-2.92,1.63-4.35,2.47-.84.49-.69,1.14-.1,1.63-4.35,1.33-8.65,2.96-11.81,6.23-1.43,1.48.89,2.67,2.17,2.82,5.53.54,11.07-.44,16.6-2.12-.79,1.24,1.38,2.37,2.47,2.47,2.87.2,5.63-.15,8.35-.74-.44.25-.89.44-1.33.69-2.03,1.09-4.2,1.98-6.37,2.77-6.52,1.73-13,3.61-19.17,6.32-2.57,1.14,1.09,3.66,2.87,2.87,4.79-2.08,9.78-3.56,14.73-5.14.54-.15,1.04-.3,1.58-.44-6.23,3.26-12.35,6.67-18.09,10.87-2.08,1.53,2.03,3.06,3.26,2.62.99-.35,1.93-.69,2.92-1.09-1.73,1.53-3.31,3.21-4.69,5.14-1.14,1.53,2.03,2.72,3.06,2.47,4.45-1.09,8.65-2.67,12.8-4.45-3.21,2.77-6.08,5.88-8.2,9.59-.64,1.09.4,1.88,1.48,2.22-.99.64-1.98,1.33-3.01,2.03-2.03,1.43,2.17,3.41,3.66,2.42,1.93-1.28,3.85-2.52,5.73-3.85,3.26-2.03,6.72-3.71,10.53-4.3-1.78,2.77-5.39,4.35-8.15,5.58-2.57,1.14,1.09,3.61,2.87,2.87,4.35-1.93,9.93-4.55,10.82-9.78.25-1.33-1.63-2.08-2.62-2.08-1.28,0-2.47.05-3.66.2,2.27-1.98,4.4-4.05,6.47-6.28,1.33-1.48-2.52-2.87-3.56-2.32-4.45,2.42-8.1,6.87-12.4,9.78,6.67-7.41,16.36-12.21,24.11-17.89,1.93-1.43-1.93-3.26-3.21-2.62-9.34,4.5-18.23,9.83-27.97,13.44,7.31-6.52,17.25-10.13,25.2-15.47,1.68-1.14-.64-2.47-2.27-2.67.74-.4,1.43-.79,2.12-1.19h0s.3-.15.4-.25c1.14-.64.49-1.48-.54-2.03,4.84-2.27,9.69-4.94,13.14-8.45,1.78-1.83-1.88-3.01-3.21-2.62-7.12,2.08-14.23,6.62-21.74,8.15,7.41-5.19,16.26-8.89,24.41-12.25,2.62-1.09-1.14-3.41-2.82-2.87-7.21,2.42-14.18,5.63-21.25,8.55-6.08,2.52-12.9,5.58-19.72,6.52,6.47-3.9,15.47-5.44,21.99-8.25,10.97-4.69,21.84-9.39,32.12-15.37,1.68-.99-.69-2.47-2.08-2.72,4.45-2.42,8.89-4.89,13.39-7.26,2.57-1.38-1.19-3.31-2.82-2.87-.74.2-1.48.44-2.22.69,3.76-1.93,7.51-3.76,11.37-5.44,2.52-1.09-1.09-3.61-2.82-2.87l.05-.1ZM917.48,222.68c-4.2,2.27-8.4,5.09-12.85,7.07,4.05-2.67,8.5-4.94,12.85-7.07ZM910.91,251.53c-1.53.54-3.06.99-4.64,1.24.79-.3,1.58-.54,2.42-.79.74-.1,1.48-.25,2.22-.44ZM937.64,239.38c7.56-4.69,14.87-9.88,23.18-12.55-1.43,2.03-3.26,3.76-5.24,5.29-6.08,2.12-12.01,4.6-17.94,7.26ZM905.62,263.94c1.78-1.04,3.66-1.93,5.48-2.82,4.74-2.32,9.69-4.3,14.53-6.32,8.99-3.8,17.49-8.5,26.14-12.95,1.63-.64,3.26-1.24,4.84-1.93-7.51,4-14.92,8.2-22.63,11.86-9.24,4.4-18.83,8.3-28.36,12.16h0ZM942.63,252.62c-.69.35-1.33.69-2.03,1.09h-.1c.2-.1.4-.25.59-.35.54-.25,1.04-.49,1.58-.74h-.05Z"/>
  <path class="cls-6" d="M1037.8,286.86c-1.24-1.24-3.06-3.01-5.39-5.24-4.6-4.55-11.22-11.07-18.97-19.02-3.9-4-8.15-8.3-12.55-13-4.5-4.6-9.14-9.54-14.03-14.63-4.84-5.14-9.88-10.43-15.02-15.81-5.14-5.39-10.33-10.92-15.52-16.45-5.73-6.13-11.46-12.3-17.15-18.38,3.8-2.12,7.61-4.2,11.37-6.28,3.16-1.73,6.28-3.41,9.34-5.09,3.06-1.63,6.08-3.26,8.99-4.84,5.88-3.21,11.37-6.42,16.31-9.59,4.94-3.16,9.34-6.37,13-9.49,3.66-3.11,6.57-6.18,8.7-8.99,2.08-2.82,3.31-5.29,4-7.07.35-.89.54-1.58.64-2.03.15-.49.2-.69.2-.69,0,0-.1.25-.25.69s-.4,1.14-.79,1.98c-.74,1.68-2.17,4.05-4.4,6.62-2.22,2.57-5.29,5.39-9.09,8.2-3.8,2.82-8.3,5.63-13.39,8.4-5.09,2.77-10.77,5.48-16.85,8.2-3.01,1.43-6.13,2.77-9.29,4.35-3.11,1.58-6.28,3.21-9.49,4.89-4.15,2.17-8.4,4.4-12.65,6.67-3.31-3.56-6.62-7.07-9.83-10.48-2.52-2.62-4.99-5.19-7.36-7.71-2.47-2.52-4.99-4.84-7.36-7.16-4.84-4.55-9.29-8.99-13.24-13.24-3.9-4.3-7.26-8.45-9.93-12.35-2.67-3.9-4.64-7.56-5.93-10.72-1.28-3.16-1.83-5.88-1.98-7.71-.1-.94-.1-1.63-.1-2.12v-.74s0,.25-.05.74c0,.49-.1,1.19,0,2.17.05,1.88.4,4.64,1.48,8.01,1.04,3.31,2.82,7.16,5.24,11.32,2.42,4.15,5.53,8.6,9.19,13.19,3.61,4.64,7.76,9.44,12.25,14.43,2.27,2.42,4.55,4.94,6.92,7.51,2.32,2.57,4.74,5.19,7.16,7.86,2.87,3.16,5.78,6.42,8.7,9.69-7.36,3.9-14.77,7.86-22.24,11.76-6.72,3.56-13.44,7.07-20.06,10.48-2.27,1.19-15.42,8.01-19.32,10.03-6.28,3.21-12.3,6.37-18.04,9.19-5.68,2.96-11.12,5.63-16.11,8.15-9.98,4.99-18.33,8.99-24.16,11.81-2.96,1.33-5.24,2.47-6.82,3.21s-2.42,1.14-2.42,1.14c0,0,.89-.3,2.57-.84,1.68-.54,4.1-1.33,7.21-2.37,3.11-1.04,6.82-2.47,11.07-4,4.25-1.58,8.99-3.56,14.23-5.63,5.14-2.22,10.77-4.6,16.65-7.26,5.88-2.67,12.06-5.58,18.43-8.65,2.72-1.33,5.48-2.72,8.25-4.1,0,1.53.25,3.11.59,4.6.84,3.76,2.42,7.26,4.3,10.53,1.83,3.31,4.05,6.42,5.98,9.49,1.83,3.11,2.77,6.72,3.21,10.33.79,7.26-.4,14.58-.54,21.99v.59c-.54.35-.99.74-1.33,1.09-.69.69-1.09,1.33-1.19,1.83-.15.49-.1.79-.1.79,0,0,0-.3.3-.69.25-.4.69-.94,1.43-1.38.3-.15.59-.35.94-.49,0,3.11,0,6.18-.15,9.29l-.4,11.07c-.54,14.73-.94,29.5-.35,44.32.35,7.41.94,14.82,2.22,22.19.64,3.66,1.43,7.36,2.62,10.92,1.19,3.56,2.77,7.12,5.34,10.03l.15.2h.25l.05.1h.54c3.61-1.58,6.28-4.4,8.6-7.31,2.32-2.96,4.25-6.13,6.03-9.39,3.56-6.52,6.42-13.39,9.09-20.31,4.1-10.82,7.61-21.89,10.92-32.91h.2s0-.2-.05-.44c.89-2.96,1.78-5.93,2.67-8.85,1.04-3.51,2.12-7.07,3.21-10.57.54-1.78,1.19-3.46,1.78-5.24.59-1.78,1.04-3.56,1.53-5.39.15-.59.3-1.19.44-1.83.4.3.79.59,1.09.84,1.48,1.09,2.37,1.73,2.37,1.73,0,0-.79-.69-2.17-1.93-.35-.3-.74-.64-1.14-1.04.69-2.87,1.33-5.68,2.08-8.5.94-3.51,2.08-7.02,3.66-10.23,1.58-3.16,3.71-6.08,6.57-8.05,2.92-2.03,5.93-3.9,8.85-6.03,2.92-2.12,5.68-4.45,7.96-7.31,1.04-1.33,1.98-2.87,2.62-4.5,1.09,1.09,2.17,2.17,3.21,3.26,5.04,4.94,9.88,9.73,14.58,14.18,4.64,4.45,9.19,8.55,13.34,12.3,4.25,3.71,8.05,7.12,11.56,9.98,3.51,2.87,6.57,5.44,9.14,7.41,2.57,1.98,4.64,3.51,6.03,4.6,1.38,1.04,2.12,1.58,2.12,1.58,0,0-.64-.64-1.88-1.88l-.4.05ZM946.14,281.92c-.44,1.78-.94,3.56-1.48,5.29-.59,1.73-1.24,3.46-1.78,5.24-1.14,3.51-2.22,7.07-3.26,10.57-.69,2.27-1.38,4.55-2.08,6.82-.2-.54-.44-1.14-.79-1.78-.49-.89-1.14-1.88-1.93-2.87-.79-1.04-1.78-1.98-2.87-2.96-1.14-.89-2.37-1.88-3.71-2.67-1.38-.79-2.82-1.53-4.4-2.08-1.53-.59-3.16-.99-4.74-1.28-3.26-.64-6.52-.69-9.59-.4-1.53.15-2.96.4-4.35.74-1.33.35-2.62.69-3.76,1.19-1.14.44-2.12.94-2.96,1.48-.84.49-1.53.99-2.08,1.48-.54.44-.94.84-1.19,1.14-.25.3-.4.44-.4.44l.1.1s.2-.05.54-.2.84-.35,1.48-.54c.3-.1.69-.2,1.09-.3s.79-.25,1.24-.35c.89-.2,1.88-.4,3.01-.54,1.09-.15,2.32-.25,3.61-.35,1.28,0,2.62-.1,4,0,1.38,0,2.82.1,4.25.25,1.43.15,2.92.35,4.35.59,1.43.25,2.87.54,4.3.89,1.38.35,2.77.74,4.05,1.19,2.62.89,4.89,2.17,6.62,3.66,1.73,1.43,2.82,3.06,3.46,4.25.1.15.2.3.25.49-3.46,11.37-7.07,22.68-11.32,33.75-2.67,6.87-5.58,13.69-9.04,20.11-1.78,3.21-3.66,6.32-5.93,9.14-2.12,2.67-4.55,5.09-7.51,6.52-2.08-2.57-3.51-5.73-4.6-8.99-1.14-3.46-1.93-7.07-2.52-10.67-1.24-7.26-1.78-14.63-2.12-21.94-.69-14.73-.35-29.5.1-44.23l.35-11.07c.1-3.31.05-6.67,0-9.93,1.28-.44,2.87-.84,4.64-1.14,3.01-.54,6.57-.89,10.38-1.04,1.93-.1,3.9-.1,5.88-.1s4-.05,5.98-.05c.99,0,1.98,0,2.87.05,1.04.1,2.08.1,3.01.2,1.88.15,3.85.44,5.68.84,1.83.49,3.61,1.04,5.19,1.78s3.11,1.53,4.4,2.37c1.58.94,2.92,1.88,4.05,2.72-.2.74-.35,1.48-.54,2.27l.05-.1ZM976.09,239.08c-2.17,2.77-4.89,5.04-7.76,7.12-2.87,2.08-5.88,3.95-8.85,5.98-3.06,2.12-5.34,5.19-6.97,8.5-1.63,3.31-2.82,6.87-3.76,10.48-.69,2.62-1.33,5.29-1.98,7.91-1.04-.94-2.22-1.98-3.61-3.06-2.52-2.03-5.68-4.1-9.44-5.83-1.88-.84-3.85-1.63-5.98-2.17-1.09-.35-2.08-.54-3.11-.74-1.14-.25-2.22-.3-3.31-.4-2.17-.15-4.3-.05-6.37.15-2.08.25-4.1.54-6.03.94-3.9.79-7.46,1.68-10.43,2.82-1.53.54-2.87,1.19-4,1.83.15-7.16,1.28-14.43.44-21.84-.44-3.76-1.43-7.51-3.41-10.87-2.03-3.26-4.2-6.18-6.03-9.44-1.83-3.21-3.36-6.62-4.15-10.18-.4-1.63-.54-3.31-.54-4.94,3.36-1.68,6.72-3.36,10.08-5.09,6.62-3.41,13.34-6.97,20.06-10.53,6.77-3.56,13.44-7.21,20.06-10.82,1.09-.59,2.12-1.19,3.21-1.78.79.89,1.58,1.78,2.42,2.67,2.67,2.92,5.34,5.88,8,8.8l.3.4c.79,1.04,1.68,2.08,2.47,3.11.84,1.04,1.63,2.08,2.52,3.11l2.62,3.01c.84,1.04,1.73,1.98,2.67,2.96l2.72,2.87,2.87,2.77c.94.94,1.93,1.78,2.92,2.67.69.64,1.38,1.19,2.08,1.78.59.64,1.19,1.24,1.78,1.88,3.76,3.9,7.46,7.71,11.12,11.41-.64,1.68-1.53,3.21-2.67,4.64l.05-.1Z"/>
  <path class="cls-5" d="M936.21,310.63c-.3-1.04-2.47-1.28-3.26-.79-1.88,1.19-3.61,2.52-5.19,4-.1,0-.2,0-.25.05-8.85,4.05-16.31,11.12-24.26,16.95-1.43,1.09-2.96,1.98-4.5,2.87,4.35-2.47,8.3-6.62,12.3-9.83,5.73-4.64,11.46-9.24,17.1-14.08,1.04-.89-2.57-1.53-3.16-1.24-6.77,2.92-13.34,6.67-20.11,9.69,5.73-5.09,6.42-7.02,7.61-9.69,2.32-.44,4.5-.94,6.03-1.78-.59-.25-2.57-.74-4.45-1.28.64-1.28-2.57-1.53-3.21-1.19-4.35,2.37-9.19,3.21-13.54,5.58-1.33.74,2.03,1.98,2.96,1.43,1.48-.79,3.51-1.28,5.73-1.68-4.1,3.61-8.89,6.92-10.03,12.3-.25,1.24,2.37,1.33,2.96,1.14,6.23-1.98,12.11-4.94,17.94-7.91-7.71,6.32-14.92,11.96-22.53,18.48-.35.3,0,.84.2.99,3.31,2.67,6.87.69,10.03-1.33,5.73-3.71,10.87-8.3,16.31-12.3-6.42,6.72-13.29,13-20.01,19.37-1.04.99,2.57,1.53,3.16,1.24,3.66-1.68,7.07-3.71,10.33-5.93-4.5,5.34-9.24,10.43-14.43,15.07-1.04.89,2.42,1.53,2.87,1.38,3.76-1.19,7.36-2.67,10.87-4.35-4.89,4.79-9.69,9.69-14.13,15.02-.84.99,2.57,1.93,3.41,1.04,3.66-3.95,7.36-7.81,11.12-11.61-2.12,3.95-4.25,7.91-6.32,11.96-2.27,2.32-4.4,4.79-6.08,7.76-.44.79.54,1.24,1.58,1.38-.15.35-.35.74-.49,1.09-.54,1.19,2.92,1.38,3.51.79,4.94-4.64,6.37-7.81,8.85-13.93h0c5.48-7.46,9.49-15.66,13.44-24.36.44-.94-1.38-1.33-2.52-1.04,1.63-3.76,3.06-7.61,4.25-11.56,1.04.54,2.47.49,2.52-.35.1-4.55,4.69-8.85,3.31-13.44l.1.1ZM931.96,316.27c-.4-.3-1.09-.44-1.68-.49.79-.79,1.63-1.53,2.47-2.22-.15.89-.44,1.83-.79,2.72ZM916.69,329.85s-.2.4-.3.59c-.05.15-.1.3-.05.44-1.04.79-2.12,1.58-3.21,2.37,1.19-1.14,2.37-2.22,3.51-3.36l.05-.05ZM925.24,327.38c.54-.74-.49-1.19-1.58-1.28,1.14-1.53,2.37-2.96,3.66-4.35-1.98,7.16-4.79,13.84-7.96,20.36-3.85,2.08-7.71,4.05-11.66,5.73,6.37-6.28,12.21-13.09,17.54-20.41v-.05Z"/>
  <path class="cls-3" d="M981.87,208c.84-.35,1.78-.59,2.67-.79,1.78-.4,3.61-.59,5.39-.74,1.78-.15,3.56-.2,5.34-.25h5.29c1.78.05,3.51.15,5.19.15l5.24-.1c3.56-.05,7.12-.05,10.67,0,7.12.05,14.13.15,21.15-.2,1.78-.1,3.51-.25,5.24-.35l2.57-.25,2.67-.35,10.67-1.53c7.12-1.04,14.23-2.12,21.35-3.41,7.12-1.24,14.18-2.77,21.1-4.64,6.97-1.88,13.84-4.1,20.26-7.12,5.09-2.37,9.93-5.24,14.03-8.8-.59-.05-1.19-.15-1.83-.2-1.04-.05-2.08-.15-3.16-.2-1.04,0-2.12-.05-3.16,0-1.09,0-2.12,0-3.21.1-1.09,0-2.12.1-3.21.2-2.17.15-4.35.4-6.47.69-2.17.3-4.35.64-6.47,1.04-2.12.4-4.3.79-6.42,1.28-2.12.49-4.3.94-6.42,1.48l-6.37,1.48c3.71-.99,7.46-2.03,11.17-3.11.99-.3,2.03-.59,3.01-.89l4.79-1.48c2.12-.64,4.25-1.28,6.37-1.88.79-.2,1.63-.44,2.42-.64,1.93-.54,3.85-1.09,5.78-1.63,3.76-1.09,7.56-2.08,11.32-2.96l5.73-1.38c1.88-.44,3.76-.89,5.58-1.43,3.71-1.04,7.36-2.22,11.02-3.56,3.61-1.33,7.21-2.82,10.77-4.35s7.12-3.16,10.62-4.84l10.62-5.14c3.56-1.73,7.07-3.51,10.72-5.19,7.26-3.36,14.63-6.37,21.84-9.59,3.61-1.63,7.12-3.31,10.53-5.19,1.73-.94,3.41-1.93,5.04-2.92.79-.49,1.63-.99,2.42-1.53l2.42-1.63c3.31-2.32,6.62-4.5,9.78-6.77,2.12-1.53,4.1-3.21,6.03-4.89-5.58-1.09-11.22-1.93-16.9-2.47-6.92-.64-13.93-.99-20.9-1.04-6.97,0-13.98.15-20.9.49-6.97.35-13.89.84-20.8,1.48-3.46.3-6.87.69-10.33,1.04-3.41.4-6.82.89-10.23,1.28l-10.18,1.58c-3.36.64-6.77,1.19-10.08,1.83l-4.99,1.04c-1.63.35-3.31.69-4.99,1.09l-5.04,1.19-2.42.59-2.47.64c-6.62,1.68-13.24,3.41-19.77,5.14-13.09,3.56-26.04,7.36-38.74,11.71-6.32,2.17-12.65,4.4-18.88,6.77-3.11,1.19-6.23,2.37-9.29,3.66-3.11,1.19-6.13,2.52-9.19,3.8-3.01,1.33-5.98,2.57-9.04,4-3.01,1.43-6.03,2.82-9.09,4.25l-9.09,4.15c-3.01,1.33-5.98,2.72-8.94,4.15-5.93,2.82-11.76,5.78-17.25,9.24-2.77,1.73-5.44,3.51-7.91,5.58-2.47,2.08-4.74,4.35-6.42,7.16h-.15s-.64,1.93-.59,3.51c.05,1.58,3.16,2.82,5.83,4.35,2.67,1.53,16.26,10.87,16.26,10.87v-.89h0c0-.3.2-.49.35-.69l-.2-.2c.59-.74,1.48-1.24,2.37-1.58l-.1-.25Z"/>
  <path class="cls-6" d="M1266.79,111.2c-6.97-1.68-14.03-2.82-21.15-3.56-7.07-.74-14.18-1.14-21.3-1.33-7.07-.2-14.13-.2-21.2,0-7.02.2-14.03.49-21.05.99-3.51.2-6.97.54-10.48.79-3.46.3-6.97.69-10.43,1.04l-10.38,1.33c-3.46.54-6.87.99-10.33,1.63l-5.19.94c-1.73.3-3.46.64-5.14.99l-5.04,1.04-1.28.25-1.33.3-2.52.59c-6.72,1.53-13.39,3.21-20.01,4.94s-13.19,3.61-19.77,5.48c-6.57,1.98-13.05,3.9-19.52,6.08-6.47,2.08-12.85,4.4-19.22,6.82-6.32,2.42-12.6,5.04-18.78,7.86-6.23,2.92-12.16,5.98-17.99,9.09l-8.85,4.64c-2.92,1.58-5.88,3.21-8.75,4.89-2.92,1.68-5.73,3.46-8.55,5.34-2.82,1.83-5.53,3.8-8.15,5.93s-5.14,4.4-7.41,6.87c-1.14,1.24-2.12,2.62-3.06,4-.89,1.38-1.68,2.92-2.22,4.45h.15l.15.1c1.68-2.82,3.95-5.09,6.42-7.16,2.47-2.08,5.19-3.85,7.91-5.58,5.53-3.41,11.37-6.37,17.25-9.24,2.96-1.43,5.93-2.82,8.94-4.15l9.09-4.15c3.06-1.38,6.03-2.82,9.09-4.25s6.03-2.67,9.04-4c3.06-1.28,6.08-2.57,9.19-3.8,3.06-1.28,6.18-2.47,9.29-3.66,6.23-2.37,12.55-4.6,18.88-6.77,12.7-4.35,25.65-8.15,38.74-11.71,6.57-1.78,13.14-3.46,19.77-5.14l2.47-.64,2.42-.59,5.04-1.19c1.68-.4,3.36-.79,4.99-1.09l4.99-1.04c3.31-.69,6.72-1.24,10.08-1.83l10.18-1.58c3.41-.44,6.82-.89,10.23-1.28,3.46-.35,6.87-.79,10.33-1.04,6.92-.64,13.84-1.14,20.8-1.48,6.92-.35,13.93-.54,20.9-.49,6.97.05,13.98.4,20.9,1.04,5.68.54,11.37,1.33,16.9,2.47-1.93,1.73-3.9,3.36-6.03,4.89-3.16,2.27-6.47,4.5-9.78,6.77l-2.42,1.63c-.79.54-1.63,1.04-2.42,1.53-1.63.99-3.31,1.98-5.04,2.92-3.41,1.83-6.97,3.56-10.53,5.19-7.17,3.21-14.53,6.18-21.84,9.59-3.66,1.68-7.17,3.46-10.72,5.19l-10.62,5.14c-3.51,1.68-7.07,3.31-10.62,4.84-3.56,1.58-7.12,3.01-10.77,4.35-3.61,1.33-7.31,2.52-11.02,3.56-1.83.54-3.71.99-5.58,1.43l-5.73,1.38c-3.8.94-7.56,1.88-11.32,2.96-1.93.54-3.85,1.09-5.78,1.63-.79.2-1.63.4-2.42.64-2.12.59-4.25,1.24-6.37,1.88l-4.79,1.48c-.99.3-2.03.59-3.01.89-3.71,1.09-7.41,2.08-11.17,3.11l11.22-2.92s.25-.05.35-.1c-3.85,1.04-7.71,2.08-11.56,3.01l6.37-1.48c2.12-.49,4.3-.99,6.42-1.48,2.12-.49,4.3-.89,6.42-1.28,2.17-.4,4.35-.74,6.47-1.04,2.17-.3,4.35-.49,6.47-.69,1.09-.1,2.17-.15,3.21-.2,1.09-.05,2.12-.05,3.21-.1h3.16c1.04,0,2.12.15,3.16.2.59.05,1.19.15,1.83.2-4.1,3.56-8.94,6.47-14.03,8.8-6.47,2.96-13.34,5.19-20.26,7.12-6.97,1.88-13.98,3.36-21.1,4.64-7.07,1.24-14.18,2.37-21.35,3.41l-10.67,1.53-2.67.35-2.57.25c-1.73.15-3.51.25-5.24.35-7.02.35-14.03.25-21.15.2h-10.67l-5.24.1c-1.68,0-3.46-.1-5.19-.1h-5.29c-1.78,0-3.56.05-5.34.2-1.78.15-3.61.35-5.39.74-.89.2-1.78.44-2.67.79s-1.73.84-2.37,1.58l.2.2h.05c1.43-.84,3.21-.79,4.89-.84,1.68,0,3.41.1,5.14.25,1.73.15,3.46.3,5.14.44l5.19.49c1.73.15,3.51.3,5.34.35,1.93.1,3.61,0,5.34,0,3.51,0,7.02.1,10.53.25,7.07.2,14.23.49,21.49.25,1.83,0,3.66-.15,5.44-.3l2.77-.25,2.67-.3,10.77-1.43c7.16-.94,14.38-1.98,21.59-3.31,7.21-1.33,14.43-2.87,21.59-4.84,7.16-1.98,14.28-4.45,21.15-7.76,6.82-3.31,13.44-7.51,18.58-13.34l2.67-3.01-3.9-.69c-.94-.15-1.83-.3-2.77-.4l1.73-.3c1.98-.35,3.9-.69,5.88-1.19,3.9-.84,7.76-1.88,11.56-3.06,3.8-1.19,7.61-2.47,11.37-3.9,3.71-1.43,7.41-2.96,11.07-4.6,3.66-1.58,7.21-3.31,10.82-4.99l10.67-5.09c7.12-3.31,14.43-6.47,21.64-10.13,3.61-1.83,7.21-3.76,10.67-5.83,1.73-1.04,3.46-2.12,5.19-3.26.84-.59,1.73-1.19,2.52-1.78l2.42-1.78c3.06-2.37,6.37-4.64,9.59-7.07s6.42-5.04,9.24-7.96l2.37-2.47-3.36-.79.15.25Z"/>
  <path class="cls-3" d="M910.91,185.07c-.69-3.21-2.12-6.08-3.85-8.8-1.68-2.77-3.71-5.29-5.73-7.81-4.15-4.99-8.75-9.64-13.49-14.18-2.32-2.27-4.74-4.55-7.16-6.77l-7.31-6.77c-2.47-2.32-4.84-4.6-7.26-6.87-2.42-2.32-4.84-4.45-7.31-6.67-2.47-2.17-4.94-4.4-7.51-6.47-2.52-2.17-5.09-4.3-7.66-6.37-5.19-4.2-10.43-8.3-15.76-12.35-10.67-8.15-21.79-15.86-33.06-23.32-5.68-3.76-11.41-7.46-17.15-11.12l-2.17-1.38-2.12-1.33-4.4-2.72c-1.48-.94-2.92-1.78-4.4-2.62l-4.4-2.52c-2.96-1.68-5.98-3.31-8.99-4.94l-9.14-4.69c-3.11-1.48-6.18-3.01-9.34-4.45-3.16-1.43-6.28-2.92-9.44-4.25-6.32-2.77-12.75-5.44-19.27-7.96-6.47-2.52-13.05-4.89-19.72-7.07-6.62-2.17-13.39-4-20.16-5.63-5.58-1.28-11.22-2.32-16.9-3.01,1.28,2.22,2.67,4.45,4.25,6.57,2.27,3.16,4.74,6.28,7.16,9.54l1.78,2.32c.59.79,1.24,1.48,1.83,2.22,1.24,1.48,2.52,2.92,3.85,4.35,2.67,2.82,5.48,5.58,8.35,8.25,5.78,5.29,11.86,10.48,17.69,15.96,2.96,2.77,5.68,5.53,8.55,8.3l8.45,8.2c2.82,2.72,5.68,5.39,8.55,7.96,2.87,2.62,5.83,5.14,8.85,7.56,3.01,2.42,6.13,4.69,9.34,6.87,1.58,1.09,3.21,2.08,4.84,3.11l4.99,3.11c3.31,2.08,6.62,4.15,9.83,6.42,1.88,1.28,3.76,2.57,5.63,3.85.44.3.94.59,1.43.89,1.88,1.24,3.66,2.52,5.44,3.8l4.15,2.96c.84.59,1.68,1.19,2.52,1.73,3.16,2.22,6.37,4.35,9.64,6.47l-5.58-3.46c-1.88-1.14-3.76-2.27-5.63-3.41s-3.8-2.17-5.73-3.26c-1.93-1.04-3.85-2.08-5.83-3.01-1.98-.94-3.95-1.88-5.93-2.72-.99-.44-1.98-.84-3.01-1.19-.99-.4-2.03-.74-3.01-1.09s-2.03-.64-3.01-.94c-1.04-.3-2.03-.54-3.06-.79-.59-.15-1.19-.25-1.78-.4,2.72,4.69,6.42,8.94,10.53,12.8,5.19,4.89,11.02,9.14,17,13.14,5.98,3.95,12.21,7.61,18.58,11.07,6.32,3.41,12.75,6.72,19.17,9.93l9.64,4.79,2.42,1.14,2.37,1.04c1.63.69,3.21,1.38,4.84,2.03,6.52,2.57,13.24,4.69,20.01,6.87,3.36,1.09,6.77,2.17,10.13,3.36l4.94,1.78c1.58.54,3.31,1.04,4.99,1.53l5.04,1.63c1.68.59,3.36,1.19,4.99,1.93,1.63.69,3.31,1.48,4.84,2.42.79.44,1.53.99,2.27,1.58.69.59,1.38,1.33,1.73,2.22l-.25.1c.1.25.15.49.1.79h0l-.3.84s15.81-4.6,18.88-5.19c3.01-.59,6.32-.79,6.92-2.27.54-1.48.59-3.56.59-3.56h-.2l-.05-.1Z"/>
  <path class="cls-6" d="M910.52,180.13c-.44-1.63-.99-3.21-1.68-4.74-1.33-3.11-3.01-6.03-4.84-8.89-1.83-2.82-3.8-5.58-5.88-8.2-2.08-2.62-4.2-5.24-6.42-7.76-2.22-2.52-4.5-4.99-6.77-7.41l-6.92-7.21c-4.55-4.79-9.24-9.59-14.23-14.28-4.94-4.64-10.08-9.09-15.32-13.39-5.24-4.3-10.57-8.55-16.06-12.55-5.44-4.1-11.02-8.01-16.6-11.91-5.63-3.9-11.27-7.71-17.05-11.46-5.73-3.76-11.56-7.46-17.44-11.02l-2.22-1.33-1.14-.69-1.14-.64-4.45-2.57c-1.48-.89-3.01-1.73-4.55-2.57l-4.6-2.52c-3.06-1.68-6.23-3.21-9.29-4.79l-9.44-4.55c-3.21-1.43-6.37-2.92-9.59-4.3-3.21-1.33-6.42-2.77-9.69-4.05-6.52-2.62-13.05-5.14-19.67-7.56-6.67-2.42-13.34-4.64-20.16-6.67-6.82-2.03-13.69-3.9-20.65-5.44-6.97-1.53-14.08-2.67-21.2-3.31l-3.46-.3,1.48,3.11c1.78,3.71,3.95,7.16,6.28,10.48,2.27,3.31,4.69,6.47,6.87,9.73l1.73,2.47c.59.84,1.24,1.63,1.83,2.47,1.28,1.63,2.52,3.21,3.9,4.74,2.67,3.06,5.44,6.03,8.3,8.89,5.68,5.73,11.61,11.07,17.34,16.45l8.55,8.2c2.87,2.72,5.73,5.48,8.7,8.15,2.96,2.67,5.98,5.29,9.04,7.86,3.11,2.52,6.28,4.99,9.54,7.26,3.26,2.32,6.57,4.55,10.03,6.57,1.68,1.04,3.46,1.98,5.19,2.96l1.58.84c-.89-.2-1.83-.35-2.77-.49l-3.9-.59,1.58,3.71c3.06,7.16,8,13.24,13.44,18.53s11.41,9.88,17.59,14.03c6.18,4.1,12.55,7.86,18.97,11.41s12.95,6.77,19.47,9.93l9.73,4.74,2.47,1.14,2.57,1.14c1.68.69,3.41,1.38,5.09,1.98,6.82,2.52,13.69,4.5,20.46,6.52,3.36.99,6.72,2.03,10.08,3.11,1.68.54,3.26,1.14,5.09,1.68,1.73.49,3.46.94,5.14,1.33l5.09,1.19c1.68.35,3.36.79,5.04,1.19,1.68.4,3.31.89,4.94,1.38,1.58.59,3.26,1.14,4.35,2.37h.1l.25-.15c-.35-.89-1.04-1.63-1.73-2.22s-1.48-1.14-2.27-1.58c-1.58-.94-3.21-1.68-4.84-2.42-1.68-.69-3.31-1.28-4.99-1.93l-5.04-1.63c-1.68-.54-3.36-.99-4.99-1.53l-4.94-1.78c-3.36-1.19-6.72-2.32-10.13-3.36-6.77-2.17-13.49-4.3-20.01-6.87-1.63-.64-3.26-1.33-4.84-2.03l-2.37-1.04-2.42-1.14-9.64-4.79c-6.42-3.21-12.85-6.52-19.17-9.93-6.32-3.46-12.55-7.07-18.58-11.07-5.98-4-11.81-8.25-17-13.14-4.1-3.85-7.81-8.1-10.53-12.8.59.1,1.19.25,1.78.4.99.25,2.03.49,3.06.79,1.04.3,2.03.59,3.01.94.99.35,2.03.69,3.01,1.09s2.03.79,3.01,1.19c1.98.84,4,1.73,5.93,2.72,1.98.94,3.9,1.98,5.83,3.01,1.93,1.09,3.85,2.12,5.73,3.26,1.88,1.14,3.76,2.27,5.63,3.41l5.58,3.46c-3.21-2.12-6.42-4.25-9.64-6.47-.84-.59-1.68-1.19-2.52-1.73l-4.15-2.96c-1.78-1.28-3.61-2.57-5.44-3.8-.44-.3-.94-.59-1.43-.89-1.88-1.28-3.76-2.57-5.63-3.85-3.21-2.22-6.52-4.35-9.83-6.42l-4.99-3.11c-1.63-1.04-3.26-2.03-4.84-3.11-3.21-2.12-6.28-4.45-9.34-6.87-3.01-2.42-5.93-4.94-8.85-7.56-2.92-2.57-5.73-5.24-8.55-7.96l-8.45-8.2c-2.82-2.77-5.58-5.53-8.55-8.3-5.83-5.48-11.91-10.67-17.69-15.96-2.92-2.67-5.68-5.39-8.35-8.25-1.33-1.43-2.62-2.87-3.85-4.35-.59-.74-1.24-1.43-1.83-2.22l-1.78-2.32c-2.42-3.21-4.84-6.37-7.16-9.54-1.53-2.12-2.96-4.35-4.25-6.57,5.63.69,11.27,1.73,16.9,3.01,6.77,1.58,13.54,3.46,20.16,5.63,6.62,2.17,13.19,4.55,19.72,7.07,6.47,2.52,12.9,5.19,19.27,7.96,3.21,1.33,6.32,2.87,9.44,4.25,3.11,1.43,6.23,2.96,9.34,4.45l9.14,4.69c3.01,1.63,6.03,3.26,8.99,4.94l4.4,2.52c1.48.84,2.92,1.68,4.4,2.62l4.4,2.72,2.12,1.33,2.17,1.38c5.73,3.71,11.46,7.41,17.15,11.12,11.32,7.46,22.38,15.22,33.06,23.32,5.34,4.05,10.57,8.15,15.76,12.35,2.57,2.12,5.14,4.2,7.66,6.37,2.57,2.12,5.04,4.3,7.51,6.47,2.42,2.22,4.89,4.35,7.31,6.67,2.42,2.32,4.79,4.6,7.26,6.87l7.31,6.77c2.42,2.22,4.84,4.5,7.16,6.77,4.74,4.55,9.34,9.19,13.49,14.18,2.08,2.52,4.05,5.09,5.73,7.81,1.68,2.77,3.11,5.63,3.85,8.8h.3c0-1.58-.3-3.26-.69-4.89v.05Z"/>
</svg>