<?xml version="1.0" encoding="UTF-8"?>
<svg id="Layer_1" data-name="Layer 1" xmlns="http://www.w3.org/2000/svg" viewBox="0 0 1280 950">
  <defs>
    <style>
      .cls-1 {
        fill: #dfeef6;
      }

      .cls-2 {
        fill: #e1eef4;
        opacity: .5;
      }

      .cls-3 {
        opacity: .7;
      }

      .cls-3, .cls-4 {
        fill: #fff;
      }

      .cls-5 {
        fill: #d4dfe5;
      }

      .cls-6 {
        fill: #293644;
      }

      .cls-7 {
        fill: #243446;
      }
    </style>
  </defs>
  <g>
    <path class="cls-6" d="M24.07,514.63l65.62,305.61h17.43l71.13-301.02h18.35l73.42,301.02h17.44l63.32-305.61h16.07l-66.08,321.2h-44.05l-69.29-295.04-67,295.04h-44.05L8,514.63h16.07Z"/>
    <path class="cls-6" d="M402.61,514.63h16.06v25.23h-16.06v-25.23ZM402.61,606.4h16.06v229.43h-16.06v-229.43Z"/>
    <path class="cls-6" d="M477.41,500.87h16.06v334.97h-16.06v-334.97Z"/>
    <path class="cls-6" d="M711.42,835.83h-16.05v-19.27s-37.64,23.4-79.39,23.4c-28.45,0-77.55-4.14-77.55-115.64,0-78.93,21.12-122.06,96.37-122.06,21.56,0,49.1,3.66,60.58,5.5v-93.15h16.05v321.2ZM695.37,801.42v-178.96c-11.94-1.38-42.69-5.51-60.58-5.51-65.16,0-80.3,39-80.3,108.75,0,91.32,35.8,99.58,61.49,99.58,39.46,0,79.39-23.86,79.39-23.86Z"/>
    <path class="cls-7" d="M763.72,519.22h200.99v60.57h-138.58v91.31h111.05v60.11h-111.05v104.61h-62.41v-316.61Z"/>
    <path class="cls-7" d="M983.06,514.63h61.48v321.2h-61.48v-321.2Z"/>
    <path class="cls-7" d="M1113.36,606.86l41.77,168.86h10.55l41.76-168.86h60.56l-80.29,324.88h-60.57l23.4-95.91h-41.3l-56.44-228.97h60.57Z"/>
  </g>
  <g>
    <path class="cls-3" d="M545.58,262.4c-6.84-2.05-13.85-3.74-20.9-5.32-3.51-.79-7.07-1.54-10.61-2.25-3.55-.73-7.11-1.43-10.66-2.08-1.77-.31-3.57-.63-5.29-.89l-5.37-.72c-3.62-.48-7.27-1.03-10.84-1.33-3.61-.33-7.17-.77-10.82-1.03l-10.91-.8c-7.31-.36-14.62-.75-21.97-.89-3.67-.13-7.34-.17-11.02-.2-3.68-.03-7.38-.09-11.07-.05-7.35.01-14.88.14-22.12.33l-11.19.49-10.93.85-11.02,1.17c-3.7.42-7.35.94-11.04,1.4-7.36,1.05-14.73,2.21-22.09,3.53-7.38,1.33-14.77,2.75-22.16,4.26-14.85,2.98-29.7,6.1-44.44,9.71-7.38,1.81-14.74,3.74-21.99,5.88-3.76,1.12-7.51,2.29-11.19,3.56,1.35.41,2.75.78,4.16,1.1,5.15,1.17,10.6,1.84,16.2,2.59,2.8.38,5.64.77,8.54,1.28l4.2.79,1.83.27,1.92.21c5.2.49,10.63.34,16.08.09,10.92-.57,21.95-2.02,33.1-3.13,5.56-.55,11.17-1.03,16.89-1.12,2.92-.04,5.6.07,8.4.1l8.31.17c5.55.14,11.08.34,16.6.62l.26.02c.45-.12.89-.27,1.33-.38l1.37-.37,1.5-.37c1.01-.27,2-.43,3-.64,1.99-.37,3.95-.65,5.89-.86,3.91-.43,7.76-.65,11.58-.78,7.6-.23,15.09-.09,22.53.1,7.42.23,14.79.4,22.13.74,7.32.38,14.63,1.38,21.95,2.16,7.3.84,14.62,1.18,21.87.81l8.09-.43-7.66,2.31c-5.28,1.59-10.63,2.2-16,2.76-5.37.54-10.76.86-16.16,1.11-10.83.46-21.69.57-32.59.42-4.33-.09-8.66-.25-13.03-.55-3.52.05-7.04.15-10.51.32-3.61.19-7.18.47-10.65.93-1.74.23-3.45.52-5.1.85-.82.19-1.65.35-2.43.57l-1.19.32-1.31.39c-3.4,1.02-6.76,2.14-9.71,3.48-.6.26-1.18.56-1.72.84,1.2.5,2.52.99,3.91,1.43,3.27,1.03,6.78,1.88,10.3,2.65,3.5.76,7.18,1.46,10.65,2.03,1.85.31,3.7.6,5.39.81,1.7.24,3.53.4,5.29.6,7.12.69,14.31.99,21.53.9,7.19-.09,14.39-.42,21.56-1.07,14.31-1.31,28.57-3.37,42.6-6.22,7.01-1.42,13.96-2.97,20.86-4.72l5.16-1.32,5.08-1.38c3.54-.9,6.71-1.93,10.05-2.87,6.66-2.06,13.3-4.34,20.09-6.49,6.75-2.17,13.66-4.15,20.72-5.54l.57-.88c.64-1.55-.25-3.16-2.23-4.76-1.12-.73-2.33-1.38-3.62-1.95-3.18-1.42-6.58-2.49-9.98-3.55Z"/>
    <path class="cls-3" d="M683.18,311.98c2.87,1.95,5.56,3.93,8.63,5.9l4.38,2.91,4.48,2.89c6,3.83,12.1,7.5,18.31,11.05,12.41,7.14,25.29,13.6,38.45,19.35,6.6,2.89,13.33,5.46,20.12,7.82,6.82,2.35,13.74,4.34,20.72,5.93,1.74.37,3.52.81,5.21,1.1,1.67.35,3.52.65,5.36.95,3.48.54,7.19,1.05,10.75,1.43,3.59.38,7.18.68,10.6.73,1.44.02,2.85-.02,4.16-.12-.43-.44-.87-.9-1.36-1.34-2.37-2.2-5.21-4.33-8.12-6.36l-1.12-.78-1.03-.68c-.68-.46-1.41-.87-2.12-1.32-1.46-.84-2.99-1.64-4.56-2.42-3.15-1.52-6.46-2.91-9.82-4.24-3.23-1.27-6.53-2.46-9.85-3.62-4.25-1.1-8.43-2.32-12.56-3.61-10.4-3.3-20.66-6.84-30.8-10.68-5.05-1.94-10.06-3.94-14.99-6.14-4.9-2.23-9.79-4.5-14.3-7.67l-6.52-4.61,7.53,2.96c6.76,2.64,13.81,4.63,21.01,6.14,7.18,1.57,14.44,2.92,21.5,4.88,7.08,1.99,14.12,4.15,21.24,6.28,7.12,2.17,14.27,4.39,21.41,7.02,3.58,1.32,7.17,2.74,10.73,4.38,1.79.82,3.56,1.71,5.32,2.68.89.51,1.78.98,2.65,1.55l1.31.83,1.18.78c.39.25.76.53,1.15.79l.24.07c5.34,1.49,10.64,3.04,15.94,4.66l7.95,2.45c2.66.85,5.24,1.6,7.99,2.56,5.41,1.89,10.57,4.12,15.68,6.4,10.23,4.56,20.23,9.41,30.42,13.41,5.09,1.96,10.2,3.82,15.29,4.99l1.88.4,1.82.32,4.24.59c2.92.44,5.73.97,8.51,1.48,5.55,1.06,10.94,2.15,16.19,2.65,1.44.15,2.88.23,4.29.26-3.08-2.35-6.26-4.65-9.47-6.89-6.21-4.32-12.59-8.46-19.02-12.51-12.84-8.09-25.95-15.73-39.11-23.25-6.53-3.76-13.09-7.45-19.67-11.03-6.58-3.57-13.2-7-19.85-10.32-3.35-1.6-6.67-3.25-10.04-4.82l-10.09-4.58-10.1-4.25-10.46-3.99c-6.81-2.47-13.92-4.97-20.89-7.3-3.48-1.21-7.01-2.32-10.51-3.45-3.5-1.14-7-2.26-10.53-3.3-7.02-2.18-14.08-4.12-21.13-6.09l-10.61-2.69c-3.54-.9-7.05-1.61-10.58-2.43-3.48-.84-7.13-1.47-10.71-2.16l-5.31-1.02c-1.73-.3-3.53-.55-5.3-.81-3.58-.51-7.18-.97-10.77-1.4-3.59-.45-7.19-.86-10.78-1.22-7.19-.73-14.37-1.33-21.5-1.54-3.57-.07-7.14-.14-10.6.21-1.39.14-2.76.37-4.04.71-2.39.9-3.74,2.13-3.63,3.82l.27,1.01c6.26,3.55,12.2,7.6,17.91,11.8,5.77,4.18,11.35,8.45,17.02,12.5Z"/>
  </g>
  <path class="cls-2" d="M393.28,243.28c-32.12.49-62.53,5.66-94.28,12.1-22.75,4.63-63.54,13.44-84.68,22.66,8.91,8.14,30.49,8.19,42.89,10.54,20.2,3.82,53.68-4.63,74.75-4.83,14.48-.14,28.67-.13,42.91.66-2.68.38-5.2.86-7.43,1.48-4.88,1.36-19.91,5.55-19.02,10.34,1.03,5.48,26.3,9.99,31.24,10.89,38.58,6.94,86.77-1.14,126.15-12.07,21.29-5.91,34.23-13.33,55.04-21.5-7.06,1.39-13.97,3.36-20.72,5.54-6.8,2.15-13.43,4.43-20.09,6.49-3.34.94-6.51,1.97-10.05,2.87l-5.08,1.38-5.16,1.32c-6.9,1.75-13.85,3.3-20.86,4.72-14.03,2.85-28.29,4.92-42.6,6.22-7.18.65-14.37.98-21.56,1.07-7.22.08-14.41-.21-21.53-.9-1.76-.19-3.59-.35-5.29-.6-1.7-.21-3.54-.5-5.39-.81-3.47-.57-7.14-1.27-10.65-2.03-3.53-.77-7.03-1.62-10.3-2.65-1.38-.44-2.7-.93-3.91-1.43.53-.28,1.12-.57,1.72-.84,2.95-1.34,6.31-2.46,9.71-3.48l1.31-.39,1.19-.32c.78-.23,1.61-.38,2.43-.57,1.65-.34,3.35-.62,5.1-.85,3.47-.46,7.04-.74,10.65-.93,3.47-.18,6.99-.27,10.51-.32,4.37.29,8.7.46,13.03.55,10.91.15,21.76.03,32.59-.42,5.4-.24,10.79-.56,16.16-1.11,5.36-.56,10.72-1.17,16-2.76l7.66-2.31-8.09.43c-7.25.37-14.57.04-21.87-.81-7.32-.78-14.63-1.78-21.95-2.16-7.34-.34-14.71-.51-22.13-.74-7.44-.19-14.93-.33-22.53-.1-3.82.13-7.67.34-11.58.78-1.94.21-3.91.49-5.89.86-1,.21-1.99.37-3,.64l-1.5.37-1.37.37c-.44.12-.89.26-1.33.38l-.26-.02c-5.53-.27-11.05-.47-16.6-.62l-8.31-.17c-2.79-.03-5.48-.14-8.4-.1-5.72.09-11.33.57-16.89,1.12-11.15,1.11-22.17,2.55-33.1,3.13-5.45.25-10.89.4-16.08-.09l-1.92-.21-1.83-.27-4.2-.79c-2.9-.5-5.75-.89-8.54-1.28-5.6-.75-11.06-1.42-16.2-2.59-1.42-.31-2.81-.68-4.16-1.1,3.68-1.27,7.43-2.44,11.19-3.56,7.26-2.14,14.61-4.07,21.99-5.88,14.74-3.61,29.59-6.74,44.44-9.71,7.4-1.51,14.78-2.93,22.16-4.26,7.36-1.31,14.72-2.48,22.09-3.53,3.69-.46,7.34-.98,11.04-1.4l11.02-1.17,10.93-.85,11.19-.49c7.24-.19,14.77-.32,22.12-.33,3.69-.04,7.39.01,11.07.05,3.68.03,7.35.07,11.02.2,7.35.14,14.67.53,21.97.89l10.91.8c3.65.26,7.21.7,10.82,1.03,3.57.3,7.22.86,10.84,1.33l5.37.72c1.72.26,3.52.58,5.29.89,3.55.65,7.11,1.35,10.66,2.08,3.54.71,7.1,1.45,10.61,2.25,7.05,1.58,14.06,3.27,20.9,5.32,3.4,1.06,6.79,2.13,9.98,3.55,1.28.57,2.5,1.22,3.62,1.95-10.82-8.74-54.29-17.56-62.07-18.83-32.63-5.32-70.88-6.29-103.83-5.78Z"/>
  <g>
    <path class="cls-6" d="M563.81,268.82c-.47-1.03-1.17-1.83-1.91-2.53-1.46-1.38-3.08-2.42-4.7-3.39-3.27-1.9-6.65-3.45-10.07-4.81-6.88-2.77-13.91-4.96-20.97-6.97-7.08-1.99-14.23-3.76-21.45-5.29-1.81-.38-3.61-.76-5.51-1.1l-5.5-.86c-3.63-.55-7.21-1.16-10.94-1.55-3.69-.43-7.41-.95-11.1-1.28l-11.08-1.02c-7.4-.52-14.82-1.05-22.26-1.34-3.71-.2-7.44-.32-11.16-.42-3.73-.11-7.45-.24-11.19-.26-7.51-.14-14.87-.16-22.53-.1l-11.22.27-11.45.66-11.35,1c-3.79.41-7.53.91-11.32,1.36-7.54,1.02-15.06,2.17-22.54,3.47-7.51,1.28-14.99,2.68-22.45,4.15-7.5,1.44-14.94,3.07-22.42,4.7-7.49,1.65-14.99,3.39-22.47,5.26-7.5,1.87-15,3.87-22.48,6.11-7.5,2.26-14.96,4.71-22.41,7.9l-7.13,3.07,5.63,4.99c2.78,2.45,5.9,4.01,8.92,5.15,3.03,1.15,6.04,1.91,9,2.52,5.91,1.2,11.7,1.82,17.31,2.4,2.81.28,5.58.55,8.23.91l4.11.62c.72.11,1.59.19,2.37.28l2.29.18c6.02.37,11.84.07,17.56-.47,11.41-1.11,22.41-3.07,33.33-4.63,5.45-.78,10.88-1.49,16.23-1.81,5.35-.24,11.01-.38,16.47-.52,1.48-.03,2.94-.02,4.42-.05-1.14.56-2.31,1.21-3.52,2.08-1.05.79-2.23,1.7-3.34,3.44-.54.91-1.07,2.03-1.16,3.49-.04.35-.03.7,0,1.07l.05.54.03.26.1.42.05.16c.01.07.13.43.19.63.2.53.34.81.49,1.08,1.33,2.23,2.65,3.05,3.77,3.86,1.14.77,2.2,1.3,3.22,1.79,2.05.95,3.97,1.66,5.91,2.31,3.83,1.26,7.6,2.23,11.36,3.11,3.8.88,7.46,1.63,11.33,2.33,1.84.32,3.67.65,5.69.92,1.98.3,3.86.5,5.79.74,7.7.82,15.38,1.08,23,1.01,7.6-.07,15.15-.57,22.63-1.3,3.74-.36,7.46-.82,11.15-1.29,3.69-.54,7.37-1.09,11.02-1.73,7.31-1.25,14.52-2.72,21.68-4.33,7.15-1.64,14.22-3.42,21.22-5.37l5.24-1.48.66-.19.72-.23,1.28-.41,2.56-.83c3.36-1.02,6.87-2.45,10.27-3.77,6.7-2.8,13.08-6.01,19.24-9.45,6.15-3.45,12.19-6.92,18.15-10.73-20.81,8.17-33.74,15.59-55.04,21.5-39.39,10.93-87.57,19.01-126.15,12.07-4.94-.9-30.21-5.4-31.24-10.89-.89-4.79,14.13-8.98,19.02-10.34,2.24-.62,4.75-1.09,7.43-1.48-14.24-.8-28.43-.8-42.91-.66-21.07.2-54.55,8.65-74.75,4.83-12.4-2.35-33.98-2.4-42.89-10.54,21.14-9.22,61.93-18.03,84.68-22.66,31.75-6.44,62.16-11.61,94.28-12.1,32.95-.51,71.2.47,103.83,5.78,7.78,1.27,51.25,10.1,62.07,18.83.25.16.54.31.78.49.61.48,1.18.98,1.54,1.5.18.26.31.52.35.77.03.14.04.24.05.32.04.05-.07.37-.1.55l2.12.67c.08-.23.16-.3.23-.69.1-.34.12-.67.1-.97-.01-.62-.19-1.21-.44-1.72Z"/>
    <path class="cls-6" d="M978.23,396.63c-6.06-5.39-12.37-10.05-18.77-14.57-6.39-4.49-12.87-8.74-19.4-12.88-6.52-4.14-13.08-8.15-19.66-12.09-6.59-3.91-13.14-7.81-19.8-11.53-6.61-3.76-13.28-7.44-19.98-11.04-6.69-3.59-13.46-7.06-20.3-10.4-3.44-1.62-6.85-3.28-10.31-4.86l-10.47-4.53-10.65-4.24-10.55-3.79c-7.25-2.47-14.25-4.77-21.42-7.01-3.55-1.16-7.12-2.21-10.69-3.28-3.56-1.07-7.14-2.15-10.73-3.13-7.15-2.07-14.35-3.91-21.54-5.74l-10.83-2.54c-3.61-.84-7.31-1.52-10.95-2.28-3.65-.8-7.25-1.36-10.86-1.98l-5.49-.92c-1.91-.27-3.72-.48-5.57-.69-7.33-.83-14.67-1.4-22.01-1.75-7.34-.32-14.7-.46-22.1-.01-3.68.22-7.38.62-11.08,1.39-1.85.4-3.71.89-5.54,1.73-.9.42-1.83.97-2.61,1.79-.39.42-.74.92-.96,1.5-.11.27-.19.59-.21.95-.06.38,0,.47,0,.73l2.23.04c.02-.18.01-.53.07-.55.03-.07.08-.17.14-.29.14-.22.32-.43.58-.61.5-.38,1.2-.68,1.95-.94.28-.1.6-.14.9-.22,13.02-4.87,57.05.47,64.84,1.72,32.63,5.25,69.23,16.4,100.34,27.28,30.32,10.61,57.55,25.11,85.64,41.25,20.13,11.56,56.05,32.8,73.2,48.22-11.03,4.92-31.52-1.85-44.03-3.54-20.37-2.74-49.47-21.32-69.41-28.17-13.69-4.7-27.15-9.18-40.92-12.93,2.42,1.22,4.67,2.46,6.59,3.76,4.2,2.82,17.14,11.55,14.79,15.81-2.71,4.88-28.12,1.18-33.09.46-38.78-5.58-81.97-28.46-115.89-51.25-18.35-12.34-28.28-23.47-45.43-37.78,4.45,5.49,9.1,10.7,13.83,15.91,4.76,5.21,9.8,10.27,15.27,15.05,2.82,2.32,5.7,4.79,8.57,6.82l2.17,1.59,1.08.79.62.46.56.38,4.5,3.05c6.03,4.07,12.17,7.99,18.43,11.79,6.29,3.79,12.67,7.47,19.22,10.96,3.26,1.76,6.57,3.44,9.91,5.12,3.35,1.61,6.74,3.22,10.17,4.75,6.87,3.05,13.88,5.91,21.06,8.37,7.22,2.47,14.58,4.65,22.15,6.3,1.9.38,3.76.8,5.72,1.13,2.01.37,3.85.65,5.69.92,3.9.56,7.61,1,11.49,1.37,3.84.35,7.72.62,11.77.64,2.03,0,4.09-.05,6.34-.31,1.12-.14,2.28-.32,3.61-.68,1.31-.41,2.84-.78,4.79-2.47.23-.22.46-.43.82-.88.12-.16.34-.47.37-.53l.09-.14.23-.37.11-.24.21-.51c.15-.34.26-.66.34-1.01.37-1.41.21-2.64,0-3.68-.5-2-1.33-3.24-2.09-4.31-.89-1.22-1.79-2.21-2.69-3.1,1.39.49,2.79.95,4.19,1.44,5.12,1.86,10.46,3.78,15.46,5.7,4.98,1.99,9.89,4.37,14.82,6.83,9.88,4.93,19.69,10.26,30.16,14.91,5.26,2.33,10.69,4.44,16.53,6l2.22.55c.78.16,1.63.35,2.33.48l4.11.71c2.61.5,5.34,1.11,8.09,1.74,5.5,1.22,11.19,2.45,17.19,3.18,3,.35,6.09.59,9.32.45,3.24-.13,6.69-.63,10.09-2.08l6.93-2.96-5.8-5.16Z"/>
  </g>
  <path class="cls-2" d="M809.57,376.72c4.97.71,30.38,4.42,33.09-.46,2.35-4.26-10.59-12.99-14.79-15.81-1.92-1.29-4.17-2.54-6.59-3.76,13.77,3.75,27.23,8.22,40.92,12.93,19.94,6.85,49.04,25.42,69.41,28.17,12.51,1.69,33,8.46,44.03,3.54-17.16-15.42-53.07-36.66-73.2-48.22-28.1-16.14-55.33-30.64-85.64-41.25-31.11-10.88-67.71-22.02-100.34-27.28-7.79-1.25-51.82-6.59-64.84-1.72,1.28-.34,2.65-.57,4.04-.71,3.46-.35,7.03-.28,10.6-.21,7.13.21,14.31.81,21.5,1.54,3.59.35,7.19.77,10.78,1.22,3.59.43,7.2.89,10.77,1.4,1.77.26,3.58.51,5.3.81l5.31,1.02c3.58.69,7.23,1.32,10.71,2.16,3.53.82,7.04,1.54,10.58,2.43l10.61,2.69c7.05,1.97,14.11,3.91,21.13,6.09,3.52,1.04,7.02,2.16,10.53,3.3,3.51,1.12,7.03,2.24,10.51,3.45,6.97,2.33,14.09,4.83,20.89,7.3l10.46,3.99,10.1,4.25,10.09,4.58c3.37,1.57,6.69,3.22,10.04,4.82,6.66,3.32,13.28,6.75,19.85,10.32,6.58,3.59,13.14,7.27,19.67,11.03,13.16,7.52,26.26,15.16,39.11,23.25,6.43,4.05,12.81,8.2,19.02,12.51,3.21,2.24,6.39,4.54,9.47,6.89-1.41-.03-2.85-.11-4.29-.26-5.24-.51-10.64-1.59-16.19-2.65-2.78-.51-5.59-1.04-8.51-1.48l-4.24-.59-1.82-.32-1.88-.4c-5.09-1.17-10.2-3.03-15.29-4.99-10.19-4-20.19-8.85-30.42-13.41-5.12-2.28-10.28-4.51-15.68-6.4-2.76-.96-5.34-1.71-7.99-2.56l-7.95-2.45c-5.31-1.62-10.61-3.17-15.94-4.66l-.24-.07c-.38-.26-.76-.54-1.15-.79l-1.18-.78-1.31-.83c-.87-.57-1.76-1.04-2.65-1.55-1.76-.97-3.53-1.86-5.32-2.68-3.56-1.65-7.15-3.06-10.73-4.38-7.14-2.63-14.29-4.86-21.41-7.02-7.11-2.13-14.16-4.29-21.24-6.28-7.07-1.96-14.33-3.31-21.5-4.88-7.19-1.5-14.25-3.49-21.01-6.14l-7.53-2.96,6.52,4.61c4.51,3.18,9.4,5.44,14.3,7.67,4.92,2.2,9.94,4.21,14.99,6.14,10.14,3.85,20.4,7.39,30.8,10.68,4.13,1.28,8.31,2.51,12.56,3.61,3.32,1.15,6.61,2.35,9.85,3.62,3.36,1.33,6.67,2.72,9.82,4.24,1.57.78,3.1,1.58,4.56,2.42.71.45,1.45.86,2.12,1.32l1.03.68,1.12.78c2.91,2.04,5.75,4.16,8.12,6.36.49.44.93.9,1.36,1.34-1.3.1-2.71.14-4.16.12-3.42-.06-7.01-.35-10.6-.73-3.56-.38-7.27-.89-10.75-1.43-1.85-.3-3.69-.6-5.36-.95-1.69-.29-3.48-.73-5.21-1.1-6.98-1.59-13.9-3.58-20.72-5.93-6.79-2.37-13.52-4.94-20.12-7.82-13.17-5.76-26.05-12.21-38.45-19.35-6.21-3.55-12.32-7.23-18.31-11.05l-4.48-2.89-4.38-2.91c-3.08-1.97-5.76-3.95-8.63-5.9-5.67-4.05-11.25-8.32-17.02-12.5-5.71-4.19-11.66-8.25-17.91-11.8,17.16,14.32,27.09,25.45,45.43,37.78,33.92,22.79,77.11,45.67,115.89,51.25Z"/>
  <path class="cls-5" d="M527.59,306.81c-.52,12.72,7.1,24.68,14.33,35.24,10.69,15.67,5,36.02,5.45,52.87.67,26.22-8.98,130.38,13.35,155.07h0l.09.03c28.39-11.9,51.48-110.75,60.43-135.09,5.77-15.65,6.87-42.09,21.97-52.54,11.2-7.76,26.65-15.97,29.36-30.09l-66.81-68.18s-78.12,41.86-78.16,42.69Z"/>
  <path class="cls-1" d="M662,332.42c-1.86.8-3.7,1.64-5.54,2.49,2.36-1.51,4.67-3.1,6.86-4.93,2.47-2.06-2.13-4.44-3.93-4.02-3.16.73-6.28,1.56-9.38,2.44,1.47-1.92,2.75-4.01,3.74-6.31,1.05-2.45-2.5-3.9-4.36-3.59-19.52,3.33-32.96,16.63-50.24,25.25-8.47,4.22-17.29,7.94-26.37,10.81-1.22.33-2.42.69-3.62,1.05-2.32.59-4.66,1.06-7.06,1.34-2.05.62-3.62-.11-4.72-2.2,1.65-1.69,6.69-2.54,8.74-3.06,8.21-2.05,15.92-4.83,23.62-8.27,6.83-3.05,13.22-6.8,19.15-11.27,12.59-4.21,24.39-10.46,33.6-20.15,1.97-2.06-3.16-3.77-4.36-3.59-10.63,1.5-18.65,6.94-26.73,13.77-2.56,2.18-5.16,4.2-7.8,6.1-5.08,1.64-10.25,3.03-15.4,4.24-3.44.82-7.08,1.35-10.79,1.82,5.04-2.72,10.03-5.57,15.14-8.3,13.81-7.36,29.56-11.97,40.9-23.1,2.65-2.6-2.76-4.4-4.68-3.86-14.57,4.09-28.02,10.6-41.71,17.03.06-.03.11-.06.18-.09,12.06-6.01,23.9-12.34,35.53-19,2.9-1.66-2.05-4-4.21-3.93,1.09-.55,2.18-1.08,3.27-1.65,3.64-1.87-1.62-5.16-4.09-4.19-13.03,5.06-25.72,10.89-38.07,17.55-9.83,5.28-22.14,15.44-34.06,18.22,6.8-6.51,17.26-9.97,25.13-14.6,11.89-7,23.7-14.07,35.29-21.45,2.11-1.33-.18-3.09-2.37-3.74,2.62-1.59,5.24-3.17,7.85-4.79,2.17-1.34-.51-3.43-2.8-3.94.85-1.45,1.11-2.82.33-3.97-.92-1.35-2.82-2.19-4.37-1.86-2.12.46-3.84,1.78-5.61,2.96-7.44,4.95-14.56,9.67-22.65,13.63-10.21,5-20.81,9.18-31.14,14.03-2.98.87-5.96,1.76-8.96,2.71-1.54.49-1.59,1.4-.93,2.25-.69.38-1.39.73-2.08,1.11-.74.42-.84,1.51-.39,2.22,1.72,2.78,4.65,3.63,8.04,3.44-2.89,1.39-5.79,2.75-8.73,4.07-3.2,1.45.4,4.43,2.6,4.44,2.21,0,4.3-.37,6.31-.99-2.06,1.78-3.94,3.76-5.44,6.15-1.32,2.09,2.15,3.56,3.63,3.66,1.44.1,2.85.08,4.23-.04-.85.63-1.73,1.2-2.58,1.85-2.78,2.1,2.78,4.94,4.77,3.89.21-.11.41-.22.61-.33h.01c.7-.37,1.38-.76,2.08-1.13-.26.24-.53.45-.78.69-2.51,2.41,2.18,4.16,4.03,4.07,11.35-.54,21.11-7.31,30.59-12.72,10-5.72,20.83-10.86,31.84-15.1-8.28,4.58-17.32,8.07-25.66,12.29-9.91,5.03-19.23,10.78-29.32,15.22-4.47,1.01-8.74,2.45-12.57,4.73-3.18,1.89,3,4.39,4.77,3.88,3.84-1.1,7.52-2.45,11.12-3.97,5.68-1.1,11.71-1.4,17.08-2.32,3.04-.53,6.04-1.18,9.04-1.84-4.34,2.25-8.85,4.28-13.62,6.13-6.87,2.66-18.38,2.91-23.8,8.44-2.62,2.68,1.28,7.15,3.9,8.19.32.13.66.22,1,.33-.98.48-2,.92-2.94,1.46-1.79,1.01.16,3.26,1.41,3.68,4.66,1.58,9.18,1.7,13.59,1-3.43,1.36-6.84,2.74-10.27,4.09-2.86,1.13-.53,3.44,1.89,4.14-6.21,3.78-10.43,7.76-6.57,10.31,3.74,2.47,9.08.03,12.59-1.27,3.65-1.35,7.22-2.87,10.8-4.4-.46.3-.92.58-1.37.89-.83.55-.97,1.15-.71,1.7-2.11,1.19-4.23,2.38-6.32,3.62-1.23.73-.99,1.62-.15,2.37-6.34,1.97-12.52,4.33-17.16,9.06-2.08,2.13,1.32,3.91,3.19,4.08,8.03.77,16.09-.62,24.07-3.07-1.18,1.79,2.04,3.44,3.58,3.56,4.15.3,8.17-.19,12.11-1.11-.65.32-1.32.64-1.96.98-2.98,1.57-6.08,2.85-9.26,3.98-9.46,2.54-18.89,5.23-27.86,9.2-3.74,1.66,1.6,5.28,4.15,4.17,6.94-3.04,14.22-5.15,21.42-7.43.76-.21,1.5-.44,2.26-.65-9.03,4.74-17.96,9.66-26.25,15.76-3.01,2.22,2.91,4.44,4.75,3.83,1.42-.48,2.81-1.02,4.21-1.56-2.49,2.22-4.78,4.67-6.81,7.43-1.64,2.25,2.97,3.94,4.45,3.57,6.46-1.6,12.58-3.86,18.57-6.43-4.66,4.01-8.82,8.51-11.94,13.9-.93,1.61.55,2.72,2.14,3.24-1.45.97-2.9,1.96-4.35,2.97-2.96,2.08,3.14,4.92,5.34,3.48,2.81-1.84,5.58-3.69,8.32-5.6,4.76-2.96,9.73-5.36,15.26-6.27-2.56,4-7.84,6.35-11.81,8.11-3.71,1.65,1.58,5.27,4.13,4.14,6.29-2.79,14.39-6.61,15.72-14.24.33-1.93-2.38-3.01-3.8-3.04-1.83-.05-3.6.09-5.34.3,3.27-2.86,6.41-5.86,9.37-9.12,1.97-2.18-3.63-4.19-5.14-3.37-6.45,3.54-11.75,9.95-17.98,14.23,9.66-10.77,23.72-17.7,35.01-26,2.8-2.07-2.76-4.75-4.7-3.82-13.53,6.5-26.49,14.3-40.63,19.53,10.6-9.48,25.04-14.71,36.61-22.43,2.42-1.61-.92-3.56-3.28-3.89,1.04-.57,2.09-1.14,3.12-1.72h0c.2-.11.4-.22.6-.33,1.67-.95.72-2.13-.8-2.94,7.05-3.31,14.09-7.17,19.08-12.28,2.6-2.67-2.72-4.41-4.68-3.83-10.32,3.05-20.7,9.58-31.59,11.85,10.79-7.53,23.63-12.93,35.43-17.78,3.8-1.57-1.63-4.97-4.09-4.16-10.5,3.49-20.62,8.2-30.87,12.43-8.83,3.64-18.73,8.13-28.65,9.48,9.41-5.68,22.47-7.91,31.93-11.97,15.92-6.83,31.73-13.66,46.64-22.29,2.45-1.42-.99-3.56-3.05-3.96,6.48-3.54,12.95-7.08,19.45-10.57,3.73-2.01-1.7-4.81-4.07-4.15-1.11.3-2.17.66-3.26.98,5.43-2.77,10.89-5.46,16.48-7.9,3.65-1.6-1.57-5.22-4.06-4.16ZM581.63,318.8c-6.13,3.29-12.23,7.37-18.66,10.28,5.92-3.9,12.33-7.16,18.66-10.28ZM572.11,360.71c-2.22.82-4.47,1.46-6.72,1.79,1.14-.41,2.31-.8,3.5-1.16,1.07-.17,2.14-.38,3.22-.64ZM610.89,343.09c10.97-6.83,21.59-14.37,33.68-18.22-2.1,2.93-4.7,5.47-7.64,7.69-8.8,3.11-17.43,6.68-26.04,10.52ZM564.45,378.7c2.59-1.51,5.34-2.8,7.99-4.09,6.9-3.37,14.04-6.23,21.09-9.21,13.05-5.5,25.42-12.35,37.97-18.76,2.37-.9,4.71-1.82,7.04-2.77-10.9,5.79-21.69,11.87-32.87,17.19-13.42,6.38-27.32,12.06-41.22,17.64ZM618.13,362.27c-.98.51-1.96,1.03-2.94,1.55-.06.02-.12.04-.17.06.28-.17.57-.33.85-.5.76-.37,1.51-.75,2.27-1.11Z"/>
  <path class="cls-6" d="M756.34,412.03c-1.79-1.78-4.42-4.37-7.82-7.62-6.7-6.62-16.27-16.09-27.58-27.66-5.64-5.83-11.85-12.06-18.25-18.84-6.54-6.65-13.3-13.84-20.37-21.21-7.05-7.43-14.35-15.11-21.78-22.95-7.45-7.83-15-15.84-22.51-23.92-8.36-8.91-16.67-17.86-24.87-26.67,5.56-3.07,11.07-6.11,16.47-9.08,4.6-2.49,9.12-4.95,13.54-7.37,4.45-2.38,8.82-4.72,13.05-7,8.51-4.68,16.5-9.3,23.66-13.94,7.19-4.62,13.57-9.23,18.88-13.77,5.34-4.51,9.58-9,12.61-13.04,3.05-4.06,4.84-7.69,5.81-10.26.51-1.27.78-2.28.96-2.97.18-.69.28-1.04.28-1.04,0,0-.13.34-.35,1.01-.24.67-.57,1.67-1.17,2.88-1.11,2.45-3.14,5.88-6.38,9.64-3.26,3.74-7.69,7.83-13.22,11.89-5.51,4.08-12.08,8.18-19.47,12.21-7.41,4.01-15.64,7.94-24.43,11.9-4.36,2.05-8.94,4.02-13.5,6.35-4.51,2.31-9.13,4.69-13.8,7.08-6.03,3.14-12.19,6.38-18.39,9.66-4.81-5.15-9.59-10.26-14.29-15.21-3.63-3.8-7.22-7.54-10.72-11.2-3.56-3.69-7.23-7.05-10.67-10.42-7.03-6.62-13.51-13.03-19.19-19.24-5.67-6.23-10.54-12.25-14.41-17.91-3.91-5.65-6.74-10.96-8.59-15.56-1.85-4.62-2.63-8.52-2.9-11.2-.15-1.34-.15-2.39-.14-3.1v-1.07s-.03.37-.08,1.07c-.06.71-.13,1.76-.07,3.13.07,2.75.59,6.75,2.14,11.59,1.54,4.82,4.07,10.44,7.64,16.45,3.53,6.03,8.05,12.47,13.34,19.19,5.25,6.73,11.28,13.72,17.79,20.92,3.27,3.54,6.62,7.18,10.05,10.89,3.38,3.72,6.86,7.53,10.38,11.39,4.14,4.6,8.38,9.3,12.65,14.04-10.66,5.66-21.47,11.41-32.32,17.1-9.73,5.18-19.5,10.29-29.1,15.24-3.33,1.73-22.38,11.6-28.08,14.56-9.1,4.65-17.83,9.23-26.19,13.38-8.27,4.31-16.17,8.16-23.41,11.82-14.48,7.22-26.61,13.05-35.11,17.12-4.27,1.96-7.61,3.55-9.89,4.65-2.26,1.08-3.49,1.67-3.49,1.67,0,0,1.3-.42,3.71-1.18,2.41-.78,5.96-1.91,10.45-3.41,4.5-1.49,9.86-3.56,16.06-5.83,6.2-2.31,13.08-5.18,20.65-8.21,7.48-3.23,15.63-6.66,24.14-10.55,8.54-3.89,17.49-8.11,26.73-12.54,3.92-1.95,7.93-3.94,11.95-5.94.06,2.25.33,4.48.83,6.67,1.2,5.43,3.53,10.53,6.22,15.31,2.63,4.8,5.91,9.3,8.71,13.79,2.63,4.55,4.04,9.77,4.63,15,1.18,10.56-.57,21.15-.77,31.94,0,.29,0,.58,0,.87-.76.52-1.43,1.06-1.97,1.6-.99.97-1.57,1.96-1.75,2.68-.19.73-.15,1.12-.15,1.12,0,0,.06-.41.4-1.01.33-.61,1.02-1.36,2.1-2.02.39-.25.88-.47,1.37-.7.02,4.54-.04,8.98-.22,13.51l-.56,16.04c-.79,21.39-1.38,42.87-.5,64.39.47,10.76,1.37,21.53,3.2,32.21.92,5.34,2.11,10.66,3.83,15.88,1.75,5.16,3.98,10.33,7.74,14.59l.23.27.35.09.1.02.4.11.35-.15c5.21-2.29,9.1-6.38,12.46-10.6,3.36-4.29,6.17-8.92,8.76-13.65,5.14-9.5,9.32-19.44,13.17-29.5,5.99-15.72,11.04-31.75,15.87-47.82l.28-.09s-.03-.22-.09-.54c1.29-4.29,2.57-8.58,3.84-12.87,1.53-5.13,3.06-10.27,4.68-15.35.8-2.55,1.71-5.01,2.58-7.57.84-2.59,1.54-5.19,2.19-7.8.21-.88.41-1.75.62-2.62.57.42,1.11.83,1.59,1.18,2.16,1.59,3.41,2.49,3.41,2.49,0,0-1.16-1.02-3.18-2.79-.51-.44-1.07-.95-1.68-1.5.99-4.14,1.94-8.29,3.03-12.36,1.38-5.12,3.02-10.18,5.33-14.84,2.31-4.62,5.41-8.85,9.54-11.73,4.24-2.93,8.64-5.68,12.86-8.75,4.2-3.05,8.28-6.43,11.58-10.64,1.53-1.95,2.84-4.15,3.83-6.51,1.54,1.58,3.12,3.19,4.65,4.75,7.29,7.21,14.35,14.13,21.16,20.59,6.77,6.46,13.35,12.38,19.36,17.88,6.16,5.35,11.72,10.31,16.81,14.52,5.12,4.17,9.51,7.87,13.27,10.76,3.75,2.89,6.73,5.13,8.76,6.64,2.02,1.51,3.11,2.33,3.11,2.33,0,0-.95-.95-2.75-2.72ZM623.25,404.83c-.64,2.59-1.34,5.17-2.15,7.66-.85,2.49-1.81,5.02-2.6,7.59-1.66,5.11-3.2,10.24-4.75,15.36-.99,3.3-2,6.59-2.99,9.88-.3-.8-.67-1.63-1.15-2.56-.71-1.3-1.63-2.74-2.82-4.15-1.12-1.48-2.57-2.86-4.15-4.29-1.64-1.32-3.43-2.7-5.4-3.85-1.99-1.15-4.12-2.19-6.36-3-2.24-.84-4.57-1.47-6.92-1.89-4.71-.9-9.49-1.02-13.89-.58-2.21.2-4.33.57-6.29,1.06-1.97.51-3.81,1.02-5.44,1.74-1.64.66-3.1,1.38-4.33,2.12-1.23.73-2.26,1.44-3.04,2.12-.81.62-1.36,1.21-1.75,1.61-.36.4-.57.61-.57.61l.13.18s.27-.09.78-.27c.5-.21,1.23-.47,2.16-.76.46-.16.98-.31,1.55-.44.56-.15,1.15-.34,1.82-.47,1.3-.27,2.75-.57,4.38-.78,1.6-.22,3.36-.39,5.21-.5,1.86-.06,3.8-.12,5.81-.06,2,.02,4.1.18,6.19.37,2.09.22,4.21.49,6.32.86,2.09.39,4.18.77,6.21,1.3,2.03.49,4.02,1.06,5.9,1.74,3.78,1.3,7.13,3.15,9.6,5.28,2.48,2.12,4.07,4.47,4.99,6.14.15.24.25.45.37.69-5.02,16.5-10.24,32.93-16.41,48.98-3.85,9.98-8.07,19.85-13.14,29.19-2.56,4.66-5.34,9.2-8.6,13.3-3.06,3.86-6.63,7.43-10.87,9.49-3.04-3.72-5.08-8.33-6.66-13.04-1.63-5.04-2.79-10.24-3.67-15.5-1.79-10.52-2.57-21.21-3.1-31.88-.98-21.39-.5-42.8.17-64.19l.48-16.06c.15-4.78.11-9.67.05-14.43,1.9-.66,4.14-1.24,6.74-1.68,4.36-.76,9.54-1.31,15.09-1.5,2.78-.11,5.64-.17,8.55-.17,2.86-.04,5.78-.07,8.68-.11,1.43-.01,2.86,0,4.19.09,1.49.12,3.02.17,4.36.3,2.75.18,5.57.68,8.25,1.25,2.64.71,5.21,1.52,7.53,2.59,2.32,1.08,4.49,2.21,6.41,3.42,2.26,1.38,4.2,2.73,5.89,3.95-.26,1.09-.52,2.19-.78,3.27ZM666.73,342.62c-3.14,4.01-7.1,7.3-11.24,10.31-4.16,3.03-8.55,5.74-12.83,8.72-4.43,3.08-7.72,7.57-10.11,12.37-2.4,4.83-4.07,9.99-5.47,15.18-1.04,3.82-1.93,7.67-2.84,11.51-1.5-1.35-3.22-2.86-5.23-4.46-3.63-2.94-8.27-5.96-13.68-8.45-2.73-1.22-5.56-2.4-8.67-3.19-1.59-.49-3.02-.76-4.51-1.05-1.64-.32-3.24-.45-4.81-.55-3.15-.18-6.24-.08-9.25.24-3.01.34-5.94.8-8.75,1.35-5.64,1.12-10.86,2.45-15.16,4.06-2.19.82-4.16,1.71-5.84,2.64.19-10.44,1.87-20.96.66-31.73-.64-5.42-2.11-10.9-4.94-15.77-2.96-4.71-6.1-9-8.73-13.74-2.64-4.68-4.89-9.6-6.05-14.78-.55-2.38-.81-4.8-.8-7.21,4.84-2.42,9.74-4.88,14.67-7.41,9.64-4.97,19.4-10.09,29.14-15.28,9.8-5.16,19.52-10.5,29.13-15.73,1.55-.86,3.08-1.7,4.63-2.56,1.17,1.3,2.31,2.57,3.49,3.87,3.87,4.24,7.75,8.51,11.66,12.79l.41.54c1.18,1.54,2.42,3.02,3.62,4.53,1.22,1.5,2.39,3.02,3.64,4.5l3.78,4.35c1.25,1.48,2.54,2.9,3.88,4.29l3.96,4.19,4.13,4.03c1.34,1.36,2.83,2.58,4.24,3.88.97.9,2.01,1.73,3.03,2.57.85.9,1.71,1.82,2.56,2.71,5.42,5.66,10.81,11.16,16.12,16.57-.93,2.42-2.25,4.69-3.85,6.73Z"/>
  <path class="cls-4" d="M608.8,446.5c-.46-1.54-3.6-1.84-4.71-1.12-2.74,1.72-5.24,3.68-7.55,5.83-.16.02-.31.05-.39.09-12.85,5.9-23.67,16.13-35.21,24.64-2.1,1.56-4.28,2.91-6.53,4.19,6.3-3.59,12.07-9.62,17.84-14.28,8.33-6.74,16.65-13.45,24.79-20.43,1.49-1.29-3.72-2.21-4.6-1.81-9.84,4.26-19.34,9.67-29.19,14.08,8.34-7.36,9.31-10.16,11.08-14.05,3.4-.61,6.55-1.34,8.76-2.55-.84-.33-3.75-1.12-6.46-1.86.93-1.84-3.73-2.21-4.65-1.71-6.35,3.42-13.32,4.65-19.66,8.08-1.97,1.06,2.91,2.84,4.31,2.08,2.13-1.14,5.09-1.86,8.31-2.45-5.95,5.25-12.89,10.03-14.53,17.89-.37,1.76,3.46,1.96,4.33,1.69,9.01-2.89,17.55-7.18,26.07-11.49-11.18,9.19-21.67,17.37-32.73,26.87-.52.45,0,1.19.28,1.41,4.83,3.84,9.97,1.01,14.57-1.97,8.3-5.35,15.75-12.07,23.71-17.88-9.31,9.79-19.27,18.84-29.09,28.12-1.5,1.42,3.76,2.21,4.62,1.81,5.28-2.43,10.24-5.34,15.01-8.6-6.5,7.78-13.4,15.12-20.95,21.92-1.47,1.31,3.48,2.2,4.17,1.97,5.42-1.73,10.66-3.9,15.81-6.33-7.07,6.99-14.05,14.1-20.55,21.78-1.21,1.42,3.76,2.8,4.95,1.52,5.34-5.71,10.69-11.35,16.16-16.85-3.06,5.75-6.17,11.51-9.2,17.34-3.33,3.38-6.39,6.96-8.85,11.27-.66,1.14.8,1.81,2.31,1.97-.25.53-.5,1.06-.75,1.6-.78,1.71,4.21,2.03,5.1,1.18,7.14-6.77,9.26-11.3,12.88-20.2,0-.02,0-.03,0-.03,7.95-10.85,13.78-22.71,19.51-35.36.63-1.39-2.01-1.92-3.65-1.52,2.34-5.44,4.44-11.03,6.19-16.81,1.51.82,3.61.69,3.64-.51.11-6.57,6.79-12.88,4.83-19.5ZM602.64,454.72c-.58-.44-1.55-.65-2.45-.7,1.14-1.12,2.34-2.2,3.6-3.23-.23,1.31-.66,2.63-1.15,3.93ZM580.46,474.42c-.14.28-.28.54-.41.83-.1.22-.11.42-.08.62-1.53,1.18-3.08,2.33-4.64,3.44,1.71-1.61,3.43-3.25,5.13-4.89ZM592.93,470.85c.76-1.05-.73-1.72-2.3-1.89,1.69-2.2,3.46-4.3,5.34-6.32-2.9,10.38-6.96,20.09-11.55,29.55-5.56,3.01-11.18,5.85-16.94,8.33,9.28-9.09,17.69-18.99,25.46-29.66Z"/>
  <path class="cls-2" d="M675.1,297.54c1.25-.51,2.56-.87,3.85-1.15,2.6-.6,5.21-.87,7.8-1.1,2.6-.21,5.18-.27,7.76-.34l7.68.04c2.55.05,5.09.17,7.55.16l7.58-.17c5.18-.1,10.34-.07,15.48-.03,10.31.08,20.54.22,30.71-.32,2.56-.15,5.08-.33,7.62-.53l3.73-.38,3.87-.49,15.46-2.21c10.36-1.49,20.68-3.11,30.97-4.92,10.31-1.83,20.56-3.99,30.65-6.71,10.1-2.75,20.07-5.97,29.45-10.3,7.4-3.42,14.45-7.6,20.37-12.79-.87-.1-1.75-.23-2.63-.3-1.51-.1-3.02-.25-4.57-.31-1.53-.06-3.07-.09-4.62-.07-1.55.03-3.1.04-4.66.12-1.56.06-3.12.16-4.69.27-3.13.25-6.28.58-9.43.99-3.14.42-6.28.92-9.42,1.48-3.12.59-6.26,1.18-9.36,1.88-3.1.71-6.22,1.38-9.32,2.12l-9.28,2.18c5.41-1.47,10.82-2.91,16.21-4.51,1.46-.42,2.92-.86,4.37-1.28l6.98-2.15c3.05-.95,6.14-1.88,9.25-2.72,1.18-.32,2.36-.62,3.54-.92,2.79-.8,5.59-1.58,8.38-2.39,5.46-1.6,10.95-2.98,16.46-4.32l8.32-2.01c2.71-.66,5.43-1.29,8.1-2.07,5.39-1.48,10.71-3.22,15.98-5.17,5.25-1.94,10.46-4.06,15.62-6.34,5.17-2.24,10.31-4.57,15.43-7.04l15.4-7.43c5.16-2.5,10.23-5.08,15.56-7.53,10.56-4.91,21.27-9.25,31.69-13.91,5.21-2.36,10.33-4.82,15.3-7.51,2.48-1.34,4.94-2.76,7.31-4.21,1.18-.75,2.36-1.44,3.52-2.23l3.54-2.38c4.8-3.34,9.62-6.54,14.23-9.85,3.11-2.24,5.99-4.64,8.75-7.13-8.08-1.6-16.29-2.77-24.55-3.56-10.08-.92-20.21-1.44-30.36-1.51-10.13-.07-20.28.21-30.35.69-10.12.53-20.18,1.24-30.2,2.16-5.01.4-9.99,1.04-14.98,1.54-4.97.55-9.93,1.26-14.88,1.88l-14.77,2.27c-4.88.91-9.81,1.7-14.65,2.69l-7.22,1.49c-2.4.48-4.82,1-7.26,1.6l-7.29,1.72-3.55.86-3.61.92c-9.61,2.44-19.2,4.93-28.73,7.5-19.01,5.13-37.81,10.67-56.27,16.99-9.19,3.13-18.34,6.39-27.39,9.81-4.51,1.72-9.02,3.46-13.46,5.3-4.51,1.73-8.91,3.64-13.33,5.5-4.39,1.95-8.7,3.73-13.12,5.81-4.41,2.07-8.73,4.12-13.19,6.15l-13.18,5.99c-4.37,1.96-8.71,3.96-13,6.03-8.58,4.11-17.05,8.42-25.07,13.38-3.98,2.52-7.91,5.12-11.48,8.13-3.6,3.01-6.89,6.3-9.34,10.39l-.19-.09s-.93,2.88-.84,5.17c.1,2.3,4.57,4.1,8.48,6.31,3.91,2.21,23.6,15.76,23.6,15.76l-.03-1.29h.06c.06-.41.26-.74.5-1.04l-.28-.26c.88-1.09,2.15-1.79,3.42-2.28Z"/>
  <path class="cls-6" d="M1088.78,156.96c-10.12-2.42-20.4-4.06-30.73-5.17-10.29-1.09-20.62-1.63-30.92-1.96-10.29-.31-20.52-.28-30.8-.03-10.19.3-20.38.75-30.55,1.41-5.07.27-10.14.77-15.21,1.15-5.05.43-10.09,1.01-15.15,1.51l-15.08,1.92c-5.01.79-10.01,1.46-15.02,2.34l-7.52,1.35c-2.52.43-4.99.91-7.42,1.43l-7.32,1.53-1.84.38-1.91.42-3.65.85c-9.74,2.21-19.44,4.63-29.07,7.17-9.64,2.51-19.19,5.22-28.72,7.99-9.51,2.85-18.98,5.68-28.37,8.82-9.38,3.04-18.67,6.41-27.88,9.94-9.21,3.5-18.28,7.34-27.23,11.44-9.03,4.21-17.66,8.65-26.13,13.19l-12.87,6.74c-4.25,2.32-8.52,4.69-12.72,7.14-4.23,2.43-8.36,5.03-12.43,7.72-4.09,2.68-8.05,5.55-11.86,8.62-3.82,3.06-7.46,6.36-10.73,10.01-1.63,1.83-3.12,3.77-4.47,5.79-1.3,2.04-2.43,4.25-3.2,6.43l.21.09.19.09c2.44-4.09,5.74-7.38,9.34-10.39,3.58-3.01,7.5-5.61,11.48-8.13,8.02-4.96,16.49-9.27,25.07-13.38,4.29-2.07,8.64-4.07,13-6.03l13.18-5.99c4.46-2.03,8.78-4.08,13.19-6.15,4.42-2.08,8.72-3.86,13.12-5.81,4.42-1.86,8.82-3.77,13.33-5.5,4.43-1.84,8.95-3.58,13.46-5.3,9.05-3.42,18.19-6.68,27.39-9.81,18.46-6.31,37.26-11.86,56.27-16.99,9.53-2.57,19.12-5.05,28.73-7.5l3.61-.92,3.55-.86,7.29-1.72c2.44-.6,4.86-1.13,7.26-1.6l7.22-1.49c4.83-.99,9.76-1.78,14.65-2.69l14.77-2.27c4.95-.62,9.91-1.32,14.88-1.88,4.98-.51,9.97-1.14,14.98-1.54,10.02-.92,20.09-1.63,30.2-2.16,10.07-.48,20.22-.76,30.35-.69,10.15.08,20.29.6,30.36,1.51,8.26.79,16.47,1.95,24.55,3.56-2.76,2.49-5.65,4.89-8.75,7.13-4.6,3.3-9.42,6.51-14.23,9.85l-3.54,2.38c-1.17.79-2.35,1.48-3.52,2.23-2.37,1.44-4.83,2.87-7.31,4.21-4.97,2.69-10.09,5.15-15.3,7.51-10.42,4.66-21.13,9-31.69,13.91-5.33,2.44-10.4,5.02-15.56,7.53l-15.4,7.43c-5.12,2.47-10.26,4.8-15.43,7.04-5.16,2.28-10.37,4.4-15.62,6.34-5.27,1.95-10.59,3.69-15.98,5.17-2.67.78-5.39,1.41-8.1,2.07l-8.32,2.01c-5.51,1.33-11,2.72-16.46,4.32-2.79.81-5.59,1.6-8.38,2.39-1.18.3-2.36.6-3.54.92-3.11.84-6.21,1.78-9.25,2.72l-6.98,2.15c-1.46.42-2.91.86-4.37,1.28-5.39,1.6-10.8,3.04-16.21,4.51l16.28-4.22c.17-.05.34-.09.51-.13-5.59,1.49-11.17,3.02-16.79,4.35l9.28-2.18c3.1-.73,6.22-1.41,9.32-2.12,3.1-.7,6.25-1.28,9.36-1.88,3.14-.56,6.28-1.06,9.42-1.48,3.15-.42,6.3-.75,9.43-.99,1.57-.11,3.13-.21,4.69-.27,1.56-.07,3.12-.08,4.66-.12,1.54-.02,3.08.01,4.62.07,1.55.06,3.05.2,4.57.31.89.07,1.76.19,2.63.3-5.91,5.19-12.97,9.37-20.37,12.79-9.38,4.33-19.35,7.55-29.45,10.3-10.09,2.73-20.33,4.88-30.65,6.71-10.29,1.81-20.61,3.43-30.97,4.92l-15.46,2.21-3.87.49-3.73.38c-2.53.2-5.06.38-7.62.53-10.17.53-20.4.39-30.71.32-5.13-.04-10.3-.06-15.48.03l-7.58.17c-2.47,0-5-.11-7.55-.16l-7.68-.04c-2.58.07-5.16.13-7.76.34-2.6.23-5.2.51-7.8,1.1-1.29.28-2.59.64-3.85,1.15-1.26.49-2.53,1.2-3.42,2.28l.28.26.11.09c2.07-1.27,4.65-1.21,7.07-1.31,2.48.02,4.96.13,7.44.35,2.5.19,5,.4,7.48.67l7.54.72c2.55.22,5.1.41,7.73.54,2.78.12,5.2,0,7.77.04,5.07.02,10.17.16,15.29.32,10.25.31,20.63.7,31.17.37,2.64-.07,5.28-.23,7.93-.42l4.05-.37,3.9-.45,15.61-2.05c10.42-1.4,20.88-2.84,31.36-4.79,10.47-1.9,20.97-4.16,31.39-7.01,10.43-2.87,20.76-6.49,30.7-11.24,9.89-4.79,19.5-10.92,26.97-19.37l3.88-4.38-5.68-1c-1.34-.24-2.67-.42-4.01-.58l2.53-.45c2.84-.53,5.69-1.04,8.51-1.7,5.66-1.24,11.28-2.75,16.81-4.48,5.56-1.7,11.05-3.62,16.47-5.68,5.4-2.09,10.75-4.33,16.05-6.65,5.31-2.29,10.51-4.78,15.71-7.23l15.53-7.37c10.33-4.83,20.96-9.42,31.4-14.73,5.24-2.63,10.45-5.42,15.52-8.45,2.54-1.51,5.04-3.1,7.51-4.76,1.21-.85,2.5-1.69,3.68-2.55l3.51-2.6c4.47-3.47,9.23-6.73,13.9-10.27,4.69-3.52,9.34-7.3,13.45-11.58l3.44-3.58-4.9-1.18Z"/>
  <path class="cls-2" d="M572.07,264.21c-1.02-4.65-3.11-8.81-5.57-12.81-2.45-3.99-5.35-7.7-8.34-11.34-6.04-7.24-12.71-14-19.57-20.61-3.41-3.32-6.9-6.58-10.43-9.82l-10.62-9.84c-3.6-3.34-7.04-6.64-10.57-10-3.54-3.36-7.06-6.42-10.61-9.66-3.61-3.15-7.18-6.35-10.9-9.42-3.64-3.15-7.37-6.23-11.1-9.28-7.52-6.1-15.16-12.07-22.9-17.95-15.52-11.82-31.62-23.02-48.03-33.88-8.24-5.44-16.55-10.82-24.89-16.18l-3.14-2.01-3.1-1.94-6.37-3.94c-2.12-1.34-4.25-2.6-6.39-3.81l-6.38-3.69c-4.27-2.47-8.7-4.77-13.05-7.17l-13.29-6.81c-4.51-2.16-8.99-4.39-13.53-6.49-4.57-2.05-9.1-4.22-13.73-6.19-9.21-4.04-18.53-7.89-27.96-11.58-9.42-3.63-18.96-7.1-28.59-10.23-9.65-3.13-19.44-5.84-29.29-8.15-8.12-1.86-16.3-3.35-24.51-4.38,1.84,3.25,3.9,6.43,6.15,9.55,3.33,4.59,6.88,9.14,10.38,13.83l2.61,3.38c.87,1.12,1.77,2.15,2.64,3.23,1.8,2.12,3.69,4.25,5.61,6.31,3.87,4.12,7.95,8.07,12.16,11.95,8.42,7.71,17.2,15.21,25.68,23.2,4.29,4,8.28,8.05,12.39,12.05l12.27,11.9c4.07,3.96,8.22,7.79,12.43,11.55,4.17,3.79,8.43,7.45,12.81,10.95,4.39,3.51,8.88,6.84,13.53,9.95,2.29,1.58,4.68,3.04,7.04,4.52l7.25,4.53c4.81,3,9.58,6.06,14.26,9.3,2.73,1.89,5.47,3.75,8.21,5.62.68.44,1.39.84,2.05,1.29,2.71,1.78,5.33,3.64,7.93,5.5l6.02,4.3c1.22.84,2.44,1.7,3.67,2.54,4.61,3.21,9.28,6.29,13.95,9.4l-8.11-5c-2.72-1.67-5.45-3.3-8.17-4.95-2.73-1.64-5.52-3.18-8.3-4.73-2.79-1.53-5.63-2.98-8.47-4.38-2.85-1.39-5.73-2.7-8.63-3.92-1.44-.61-2.9-1.19-4.36-1.75-1.45-.55-2.93-1.05-4.38-1.58-1.46-.51-2.94-.96-4.41-1.39-1.47-.43-2.96-.78-4.43-1.15-.86-.21-1.73-.37-2.59-.54,3.99,6.79,9.36,12.98,15.29,18.56,7.54,7.07,15.98,13.27,24.69,19.07,8.7,5.77,17.75,11.06,26.96,16.04,9.19,4.96,18.48,9.76,27.83,14.44l13.99,6.97,3.51,1.69,3.42,1.53c2.34,1,4.69,1.98,7.05,2.92,9.49,3.72,19.25,6.82,29.05,9.99,4.9,1.57,9.8,3.18,14.67,4.91l7.15,2.56c2.33.78,4.77,1.47,7.21,2.23l7.3,2.38c2.42.88,4.86,1.75,7.26,2.78,2.38,1.03,4.77,2.13,7.05,3.51,1.14.68,2.26,1.42,3.29,2.31,1.03.86,2.03,1.94,2.53,3.24l-.35.16c.13.36.22.74.13,1.14l.06.02h0l-.44,1.22s22.97-6.64,27.38-7.5c4.41-.86,9.22-1.16,10.03-3.3.82-2.14.85-5.14.85-5.17h.07s-.28.02-.28.02Z"/>
  <path class="cls-6" d="M571.5,257.05c-.65-2.34-1.45-4.66-2.42-6.91-1.95-4.49-4.35-8.77-7.02-12.88-2.65-4.11-5.49-8.09-8.53-11.92-3.02-3.84-6.11-7.61-9.35-11.25-3.22-3.65-6.51-7.24-9.83-10.79l-10.07-10.45c-6.61-6.99-13.4-13.93-20.64-20.77-7.19-6.72-14.59-13.23-22.23-19.45-7.62-6.25-15.37-12.38-23.32-18.23-7.92-5.94-16.01-11.62-24.13-17.32-8.16-5.64-16.38-11.22-24.73-16.65-8.34-5.44-16.78-10.8-25.32-15.97l-3.2-1.95-1.67-1.01-1.62-.94-6.47-3.77c-2.13-1.26-4.34-2.5-6.59-3.7l-6.71-3.66c-4.47-2.42-9.01-4.63-13.51-6.96l-13.71-6.58c-4.64-2.06-9.23-4.21-13.9-6.21-4.69-1.95-9.34-4.04-14.07-5.89-9.45-3.84-18.98-7.47-28.54-10.97-9.68-3.49-19.38-6.75-29.24-9.7-9.88-2.93-19.85-5.68-29.96-7.89-10.14-2.21-20.42-3.91-30.79-4.8l-5.01-.43,2.13,4.49c2.55,5.36,5.76,10.41,9.11,15.23,3.31,4.83,6.79,9.42,9.94,14.13l2.52,3.58c.85,1.19,1.79,2.39,2.69,3.58,1.84,2.36,3.69,4.65,5.63,6.88,3.85,4.48,7.92,8.77,12.05,12.92,8.23,8.32,16.88,16.05,25.16,23.89l12.4,11.89c4.17,3.96,8.32,7.97,12.63,11.82,4.29,3.87,8.66,7.69,13.13,11.38,4.49,3.67,9.1,7.21,13.83,10.58,4.7,3.39,9.56,6.59,14.55,9.56,2.46,1.51,5,2.9,7.53,4.3l2.26,1.22c-1.32-.26-2.65-.52-3.99-.71l-5.71-.85,2.29,5.38c4.43,10.37,11.62,19.22,19.49,26.89,7.92,7.64,16.59,14.34,25.57,20.36,8.99,5.99,18.24,11.44,27.58,16.56,9.31,5.15,18.8,9.82,28.24,14.44l14.17,6.87,3.56,1.66,3.72,1.62c2.45,1.02,4.92,2.01,7.4,2.9,9.9,3.64,19.86,6.55,29.7,9.49,4.9,1.46,9.79,2.94,14.6,4.52,2.44.77,4.7,1.65,7.38,2.41,2.55.71,5.02,1.33,7.49,1.93l7.4,1.7c2.45.53,4.89,1.11,7.31,1.72,2.43.59,4.82,1.26,7.17,2.02,2.27.86,4.74,1.62,6.31,3.47l.13-.06.35-.16c-.49-1.31-1.49-2.38-2.53-3.24-1.03-.89-2.15-1.63-3.29-2.31-2.28-1.38-4.67-2.47-7.05-3.51-2.4-1.02-4.84-1.9-7.26-2.78l-7.3-2.38c-2.44-.76-4.89-1.44-7.21-2.23l-7.15-2.56c-4.88-1.73-9.78-3.34-14.67-4.91-9.79-3.17-19.56-6.27-29.05-9.99-2.36-.94-4.72-1.91-7.05-2.92l-3.42-1.53-3.51-1.69-13.99-6.97c-9.36-4.68-18.64-9.48-27.83-14.44-9.21-4.99-18.26-10.27-26.96-16.04-8.71-5.8-17.15-12-24.69-19.07-5.93-5.59-11.3-11.78-15.29-18.56.86.17,1.73.33,2.59.54,1.47.37,2.96.72,4.43,1.15,1.47.43,2.94.88,4.41,1.39,1.45.52,2.93,1.02,4.38,1.58,1.46.56,2.92,1.13,4.36,1.75,2.9,1.22,5.78,2.52,8.63,3.92,2.84,1.4,5.68,2.85,8.47,4.38,2.78,1.55,5.58,3.1,8.3,4.73,2.72,1.65,5.45,3.28,8.17,4.95l8.11,5c-4.67-3.1-9.35-6.18-13.95-9.4-1.23-.84-2.45-1.7-3.67-2.54l-6.02-4.3c-2.6-1.86-5.22-3.73-7.93-5.5-.66-.45-1.38-.85-2.05-1.29-2.73-1.87-5.48-3.73-8.21-5.62-4.68-3.24-9.45-6.29-14.26-9.3l-7.25-4.53c-2.35-1.49-4.74-2.94-7.04-4.52-4.65-3.11-9.14-6.44-13.53-9.95-4.38-3.49-8.64-7.15-12.81-10.95-4.21-3.76-8.35-7.59-12.43-11.55l-12.27-11.9c-4.11-4.01-8.11-8.05-12.39-12.05-8.48-8-17.26-15.49-25.68-23.2-4.21-3.88-8.28-7.83-12.16-11.95-1.93-2.05-3.81-4.18-5.61-6.31-.87-1.08-1.77-2.11-2.64-3.23l-2.61-3.38c-3.5-4.69-7.06-9.24-10.38-13.83-2.25-3.12-4.31-6.3-6.15-9.55,8.2,1.03,16.39,2.52,24.51,4.38,9.85,2.31,19.64,5.02,29.29,8.15,9.63,3.13,19.18,6.6,28.59,10.23,9.43,3.69,18.75,7.54,27.96,11.58,4.63,1.97,9.17,4.14,13.73,6.19,4.55,2.1,9.02,4.33,13.53,6.49l13.29,6.81c4.35,2.4,8.78,4.7,13.05,7.17l6.38,3.69c2.13,1.21,4.27,2.47,6.39,3.81l6.37,3.94,3.1,1.94,3.14,2.01c8.34,5.35,16.65,10.73,24.89,16.18,16.41,10.87,32.52,22.07,48.03,33.88,7.74,5.88,15.38,11.85,22.9,17.95,3.73,3.06,7.45,6.13,11.1,9.28,3.72,3.06,7.29,6.27,10.9,9.42,3.55,3.24,7.08,6.29,10.61,9.66,3.54,3.35,6.97,6.66,10.57,10l10.62,9.84c3.53,3.23,7.02,6.5,10.43,9.82,6.86,6.61,13.53,13.38,19.57,20.61,2.99,3.64,5.89,7.35,8.34,11.34,2.47,4,4.55,8.16,5.57,12.81l.28-.03h.15c-.04-2.33-.41-4.78-1-7.12Z"/>
</svg>