<?xml version="1.0" encoding="UTF-8"?>
<svg id="Layer_1" data-name="Layer 1" xmlns="http://www.w3.org/2000/svg" viewBox="0 0 1280 400">
  <defs>
    <style>
      .cls-1 {
        fill: #dfeef6;
      }

      .cls-2 {
        fill: #e1eef4;
        opacity: .5;
      }

      .cls-3 {
        opacity: .7;
      }

      .cls-3, .cls-4 {
        fill: #fff;
      }

      .cls-5 {
        fill: #d4dfe5;
      }

      .cls-6 {
        fill: #293644;
      }

      .cls-7 {
        fill: #243446;
      }
    </style>
  </defs>
  <g>
    <path class="cls-6" d="M19.51,95.33l38.84,180.89h10.32l42.1-178.17h10.86l43.46,178.17h10.32l37.48-180.89h9.51l-39.11,190.12h-26.07l-41.01-174.64-39.65,174.64h-26.07L10,95.33h9.51Z"/>
    <path class="cls-6" d="M243.57,95.33h9.51v14.94h-9.51v-14.94ZM243.57,149.65h9.51v135.8h-9.51v-135.8Z"/>
    <path class="cls-6" d="M287.83,87.18h9.51v198.27h-9.51V87.18Z"/>
    <path class="cls-6" d="M426.35,285.45h-9.5v-11.41s-22.28,13.85-46.99,13.85c-16.84,0-45.9-2.45-45.9-68.44,0-46.71,12.5-72.24,57.04-72.24,12.76,0,29.06,2.17,35.85,3.26v-55.13h9.5v190.12ZM416.84,265.08v-105.93c-7.07-.81-25.26-3.26-35.85-3.26-38.57,0-47.53,23.09-47.53,64.37,0,54.05,21.19,58.94,36.4,58.94,23.36,0,46.99-14.12,46.99-14.12Z"/>
    <path class="cls-7" d="M457.3,98.04h118.96v35.85h-82.02v54.05h65.73v35.58h-65.73v61.93h-36.94V98.04Z"/>
    <path class="cls-7" d="M587.12,95.33h36.39v190.12h-36.39V95.33Z"/>
    <path class="cls-7" d="M664.25,149.92l24.72,99.95h6.24l24.72-99.95h35.85l-47.53,192.29h-35.85l13.85-56.77h-24.45l-33.41-135.53h35.85Z"/>
  </g>
  <g>
    <path class="cls-3" d="M892.52,183.83c-4.71-1.41-9.54-2.58-14.39-3.67-2.42-.55-4.87-1.06-7.31-1.55-2.44-.5-4.89-.99-7.34-1.43-1.22-.22-2.46-.44-3.64-.62l-3.7-.49c-2.49-.33-5.01-.71-7.47-.92-2.49-.23-4.94-.53-7.45-.71l-7.51-.55c-5.03-.25-10.07-.52-15.13-.61-2.52-.09-5.05-.12-7.59-.14-2.54-.02-5.08-.06-7.62-.03-5.06,0-10.25.09-15.24.23l-7.71.33-7.53.58-7.59.8c-2.55.29-5.06.65-7.6.96-5.07.72-10.14,1.52-15.22,2.43-5.08.91-10.17,1.89-15.26,2.93-10.23,2.05-20.46,4.2-30.61,6.69-5.09,1.25-10.15,2.58-15.15,4.05-2.59.77-5.17,1.58-7.7,2.45.93.29,1.89.54,2.87.76,3.54.8,7.3,1.27,11.16,1.78,1.92.26,3.88.53,5.88.88l2.89.54,1.26.19,1.32.15c3.58.34,7.32.24,11.08.06,7.52-.4,15.12-1.39,22.79-2.15,3.83-.37,7.69-.71,11.63-.77,2.01-.03,3.86.05,5.78.07l5.72.12c3.82.1,7.63.24,11.43.42h.18c.3-.07.61-.17.91-.26l.95-.25,1.03-.25c.7-.18,1.38-.3,2.07-.44,1.36-.25,2.72-.44,4.06-.59,2.69-.3,5.34-.44,7.98-.53,5.24-.16,10.39-.06,15.52.07,5.11.16,10.18.27,15.24.51,5.04.26,10.08.95,15.12,1.49,5.02.58,10.07.81,15.06.56l5.57-.3-5.27,1.59c-3.64,1.1-7.32,1.51-11.02,1.9-3.7.37-7.41.59-11.13.76-7.46.31-14.94.39-22.45.29-2.98-.06-5.97-.17-8.97-.38-2.43.04-4.85.1-7.24.22-2.49.13-4.95.32-7.34.64-1.2.16-2.37.36-3.51.59-.56.13-1.14.24-1.68.4l-.82.22-.9.27c-2.34.7-4.66,1.47-6.69,2.39-.41.18-.81.38-1.18.58.83.35,1.74.68,2.69.98,2.26.71,4.67,1.29,7.09,1.82,2.42.52,4.94,1,7.34,1.4,1.28.21,2.55.41,3.71.55,1.17.17,2.43.28,3.65.41,4.9.48,9.86.68,14.82.62,4.95-.06,9.91-.29,14.85-.74,9.86-.9,19.68-2.32,29.34-4.29,4.83-.98,9.62-2.05,14.37-3.25l3.56-.91,3.5-.95c2.44-.62,4.62-1.33,6.92-1.98,4.59-1.42,9.16-2.99,13.84-4.47,4.65-1.5,9.4-2.86,14.27-3.81l.39-.6c.44-1.07-.17-2.17-1.53-3.28-.77-.5-1.61-.95-2.49-1.34-2.19-.98-4.53-1.71-6.87-2.44Z"/>
    <path class="cls-3" d="M987.28,217.98c1.98,1.35,3.83,2.7,5.95,4.06l3.02,2,3.09,1.99c4.13,2.63,8.34,5.17,12.61,7.61,8.54,4.92,17.41,9.36,26.48,13.33,4.55,1.99,9.19,3.76,13.86,5.39,4.7,1.62,9.46,2.99,14.27,4.09,1.2.26,2.42.56,3.59.76,1.15.24,2.42.45,3.69.65,2.4.38,4.95.72,7.4.99,2.47.26,4.94.47,7.3.5,1,.01,1.96-.01,2.86-.08-.29-.3-.6-.62-.94-.92-1.63-1.52-3.59-2.98-5.59-4.38l-.77-.54-.71-.47c-.46-.32-.97-.6-1.46-.91-1.01-.58-2.06-1.13-3.14-1.66-2.17-1.05-4.44-2.01-6.76-2.92-2.23-.87-4.5-1.69-6.78-2.49-2.92-.76-5.8-1.6-8.65-2.49-7.16-2.27-14.23-4.71-21.21-7.36-3.48-1.33-6.93-2.72-10.32-4.23-3.38-1.54-6.74-3.09-9.85-5.28l-4.5-3.17,5.19,2.04c4.66,1.82,9.51,3.19,14.47,4.23,4.94,1.08,9.94,2.01,14.81,3.36,4.87,1.37,9.72,2.86,14.62,4.33,4.9,1.49,9.83,3.03,14.75,4.84,2.47.91,4.94,1.88,7.39,3.02,1.23.57,2.45,1.17,3.66,1.85.61.35,1.22.67,1.82,1.07l.9.57.82.54c.26.17.53.37.79.54l.17.05c3.67,1.02,7.32,2.09,10.98,3.21l5.47,1.69c1.83.59,3.61,1.1,5.5,1.76,3.72,1.3,7.28,2.84,10.8,4.4,7.04,3.14,13.93,6.48,20.95,9.24,3.51,1.35,7.03,2.63,10.53,3.44l1.3.28,1.25.22,2.92.4c2.01.3,3.95.66,5.86,1.02,3.82.73,7.54,1.48,11.15,1.83.99.1,1.98.16,2.95.18-2.12-1.62-4.31-3.2-6.53-4.75-4.28-2.97-8.67-5.83-13.1-8.62-8.84-5.57-17.87-10.83-26.93-16.01-4.5-2.59-9.02-5.13-13.55-7.6-4.53-2.46-9.08-4.83-13.67-7.11-2.31-1.1-4.59-2.24-6.91-3.32l-6.95-3.16-6.96-2.93-7.2-2.75c-4.69-1.7-9.59-3.42-14.39-5.02-2.4-.83-4.83-1.6-7.24-2.37-2.41-.78-4.82-1.56-7.25-2.27-4.84-1.5-9.7-2.84-14.55-4.19l-7.3-1.85c-2.43-.62-4.86-1.11-7.29-1.68-2.4-.58-4.91-1.01-7.38-1.49l-3.66-.7c-1.19-.21-2.43-.38-3.65-.56-2.46-.35-4.94-.67-7.42-.96-2.47-.31-4.96-.59-7.42-.84-4.95-.5-9.9-.91-14.81-1.06-2.46-.05-4.92-.09-7.3.14-.96.1-1.9.26-2.78.49-1.65.62-2.58,1.47-2.5,2.63l.18.69c4.31,2.44,8.41,5.24,12.34,8.12,3.97,2.88,7.82,5.82,11.72,8.61Z"/>
  </g>
  <path class="cls-2" d="M787.62,170.66c-22.12.34-43.07,3.9-64.93,8.34-15.67,3.19-43.76,9.25-58.32,15.6,6.14,5.61,21,5.64,29.54,7.26,13.91,2.63,36.96-3.19,51.48-3.33,9.97-.1,19.74-.09,29.55.45-1.85.27-3.58.59-5.12,1.02-3.37.94-13.71,3.82-13.1,7.12.71,3.77,18.11,6.88,21.52,7.5,26.57,4.78,59.76-.78,86.88-8.31,14.66-4.07,23.58-9.18,37.9-14.81-4.87.96-9.62,2.32-14.27,3.81-4.68,1.48-9.25,3.05-13.84,4.47-2.3.65-4.48,1.36-6.92,1.98l-3.5.95-3.56.91c-4.75,1.2-9.54,2.27-14.37,3.25-9.66,1.97-19.48,3.39-29.34,4.29-4.94.45-9.9.67-14.85.74-4.97.06-9.92-.15-14.82-.62-1.21-.13-2.47-.24-3.65-.41-1.17-.14-2.44-.34-3.71-.55-2.39-.39-4.92-.87-7.34-1.4-2.42-.53-4.84-1.12-7.09-1.82-.95-.3-1.86-.64-2.69-.98.37-.2.77-.4,1.18-.58,2.03-.92,4.35-1.69,6.69-2.39l.9-.27.82-.22c.54-.16,1.11-.26,1.68-.4,1.14-.23,2.31-.43,3.51-.59,2.39-.32,4.85-.51,7.34-.64,2.39-.12,4.81-.19,7.24-.22,3.01.2,5.99.31,8.97.38,7.51.1,14.99.02,22.45-.29,3.72-.17,7.43-.39,11.13-.76,3.7-.39,7.38-.8,11.02-1.9l5.27-1.59-5.57.3c-4.99.26-10.04.03-15.06-.56-5.04-.54-10.07-1.23-15.12-1.49-5.06-.24-10.13-.36-15.24-.51-5.13-.13-10.28-.23-15.52-.07-2.63.09-5.28.23-7.98.53-1.34.15-2.69.34-4.06.59-.69.15-1.37.26-2.07.44l-1.03.25-.95.25c-.3.08-.61.18-.91.27h-.18c-3.81-.2-7.61-.34-11.43-.44l-5.72-.12c-1.92-.02-3.77-.1-5.78-.07-3.94.06-7.8.4-11.63.77-7.68.76-15.27,1.76-22.79,2.15-3.76.17-7.5.28-11.08-.06l-1.32-.15-1.26-.19-2.89-.54c-2-.34-3.96-.61-5.88-.88-3.86-.52-7.62-.98-11.16-1.78-.98-.22-1.94-.47-2.87-.76,2.53-.87,5.11-1.68,7.7-2.45,5-1.47,10.06-2.8,15.15-4.05,10.15-2.49,20.38-4.64,30.61-6.69,5.09-1.04,10.18-2.02,15.26-2.93,5.07-.91,10.14-1.71,15.22-2.43,2.54-.32,5.06-.67,7.6-.96l7.59-.8,7.53-.58,7.71-.33c4.99-.13,10.18-.22,15.24-.23,2.54-.03,5.09,0,7.62.03,2.54.02,5.07.05,7.59.14,5.06.1,10.1.36,15.13.61l7.51.55c2.51.18,4.97.48,7.45.71,2.46.21,4.97.59,7.47.92l3.7.49c1.18.18,2.42.4,3.64.62,2.45.44,4.9.93,7.34,1.43,2.44.49,4.89,1,7.31,1.55,4.85,1.09,9.68,2.25,14.39,3.67,2.34.73,4.68,1.47,6.87,2.44.88.39,1.72.84,2.49,1.34-7.45-6.02-37.39-12.1-42.75-12.97-22.47-3.66-48.81-4.33-71.51-3.98Z"/>
  <g>
    <path class="cls-6" d="M905.07,188.25c-.33-.71-.81-1.26-1.31-1.74-1.01-.95-2.12-1.67-3.24-2.33-2.25-1.31-4.58-2.38-6.94-3.32-4.74-1.9-9.58-3.41-14.44-4.8-4.88-1.37-9.8-2.59-14.77-3.64-1.25-.27-2.48-.53-3.79-.76l-3.79-.59c-2.5-.38-4.97-.8-7.54-1.07-2.54-.3-5.11-.65-7.65-.89l-7.63-.7c-5.1-.36-10.21-.73-15.33-.92-2.56-.14-5.13-.22-7.69-.29-2.57-.08-5.13-.16-7.71-.18-5.17-.1-10.24-.11-15.52-.07l-7.72.18-7.89.46-7.82.69c-2.61.28-5.19.63-7.79.93-5.19.71-10.38,1.49-15.53,2.39-5.17.89-10.32,1.85-15.46,2.86-5.16.99-10.29,2.11-15.44,3.24-5.16,1.14-10.32,2.34-15.47,3.62-5.17,1.29-10.33,2.66-15.48,4.21-5.17,1.56-10.31,3.24-15.44,5.44l-4.91,2.11,3.88,3.44c1.91,1.69,4.06,2.76,6.14,3.55,2.09.79,4.16,1.32,6.19,1.73,4.07.83,8.06,1.26,11.92,1.65,1.93.19,3.84.38,5.67.62l2.83.43c.5.08,1.09.13,1.63.2l1.58.13c4.15.25,8.16.05,12.1-.33,7.86-.77,15.43-2.11,22.95-3.19,3.76-.54,7.49-1.03,11.17-1.24,3.69-.17,7.59-.26,11.34-.36,1.01-.02,2.02-.02,3.04-.03-.79.38-1.59.83-2.43,1.43-.72.54-1.53,1.17-2.3,2.37-.37.63-.74,1.4-.81,2.4-.03.24-.02.48,0,.74l.03.37.03.18.06.29.03.11s.09.3.13.43c.14.37.23.56.34.75.91,1.54,1.83,2.1,2.59,2.66.79.53,1.52.89,2.22,1.23,1.41.65,2.74,1.14,4.07,1.59,2.64.87,5.24,1.54,7.83,2.14,2.61.6,5.14,1.12,7.8,1.6,1.27.22,2.53.44,3.91.63,1.37.21,2.66.34,3.99.51,5.3.56,10.59.74,15.84.69,5.23-.04,10.43-.39,15.58-.89,2.58-.25,5.14-.56,7.68-.89,2.54-.37,5.07-.75,7.59-1.19,5.03-.86,10-1.88,14.93-2.99,4.93-1.13,9.8-2.35,14.62-3.7l3.6-1.02.45-.13.5-.16.88-.28,1.76-.57c2.31-.7,4.73-1.68,7.07-2.59,4.61-1.93,9.01-4.14,13.26-6.51,4.23-2.38,8.39-4.77,12.5-7.39-14.33,5.63-23.24,10.74-37.9,14.81-27.13,7.53-60.32,13.09-86.88,8.31-3.4-.62-20.81-3.72-21.52-7.5-.61-3.3,9.74-6.19,13.1-7.12,1.54-.43,3.27-.75,5.12-1.02-9.81-.55-19.58-.55-29.55-.45-14.51.14-37.57,5.96-51.48,3.33-8.54-1.62-23.4-1.65-29.54-7.26,14.56-6.35,42.65-12.42,58.32-15.6,21.87-4.43,42.81-8,64.93-8.34,22.69-.35,49.04.32,71.51,3.98,5.36.87,35.3,6.95,42.75,12.97.17.12.37.22.54.34.42.33.82.68,1.06,1.03.13.18.21.36.25.53.02.09.03.17.04.22.03.04-.05.26-.07.38l1.46.46c.05-.16.11-.21.16-.48.06-.24.08-.46.07-.66-.01-.43-.13-.83-.3-1.19Z"/>
    <path class="cls-6" d="M1190.48,276.28c-4.17-3.71-8.52-6.93-12.93-10.04-4.4-3.09-8.87-6.02-13.36-8.87-4.49-2.85-9.01-5.62-13.54-8.33-4.53-2.69-9.05-5.38-13.63-7.94-4.56-2.59-9.15-5.13-13.77-7.6-4.6-2.47-9.27-4.86-13.98-7.17-2.37-1.11-4.72-2.26-7.1-3.34l-7.21-3.12-7.34-2.92-7.27-2.61c-4.99-1.7-9.81-3.29-14.75-4.83-2.44-.8-4.91-1.52-7.36-2.26-2.46-.74-4.92-1.48-7.39-2.16-4.93-1.43-9.88-2.69-14.84-3.96l-7.46-1.75c-2.49-.58-5.03-1.05-7.54-1.57-2.51-.55-5-.94-7.48-1.36l-3.78-.64c-1.32-.18-2.57-.33-3.84-.47-5.05-.57-10.11-.97-15.16-1.2-5.06-.22-10.12-.32-15.22,0-2.54.15-5.08.42-7.64.96-1.27.28-2.55.61-3.81,1.19-.62.29-1.26.67-1.8,1.23-.27.29-.51.63-.66,1.03-.07.18-.13.4-.14.65-.04.26,0,.33,0,.5l1.53.03c.01-.12,0-.36.05-.38.02-.05.05-.11.1-.2.09-.15.22-.29.4-.42.35-.26.83-.47,1.34-.65.19-.07.41-.1.62-.15,8.97-3.36,39.29.32,44.66,1.19,22.48,3.62,47.68,11.29,69.11,18.78,20.88,7.31,39.63,17.29,58.99,28.41,13.86,7.96,38.6,22.59,50.41,33.21-7.59,3.39-21.71-1.28-30.32-2.44-14.03-1.89-34.07-14.69-47.8-19.4-9.43-3.24-18.7-6.32-28.19-8.9,1.67.84,3.21,1.7,4.54,2.59,2.89,1.94,11.8,7.96,10.18,10.89-1.86,3.36-19.37.81-22.79.32-26.71-3.85-56.46-19.6-79.81-35.3-12.63-8.5-19.48-16.16-31.29-26.02,3.07,3.78,6.27,7.37,9.53,10.96,3.28,3.59,6.75,7.07,10.52,10.36,1.94,1.6,3.93,3.3,5.9,4.7l1.49,1.1.74.54.43.32.38.26,3.1,2.1c4.15,2.8,8.38,5.5,12.7,8.12,4.33,2.61,8.73,5.15,13.23,7.55,2.24,1.21,4.52,2.37,6.82,3.52,2.31,1.11,4.64,2.22,7.01,3.27,4.73,2.1,9.56,4.07,14.5,5.76,4.97,1.7,10.05,3.2,15.25,4.34,1.31.26,2.59.55,3.94.77,1.39.26,2.65.45,3.92.64,2.69.38,5.24.69,7.91.94,2.65.24,5.32.43,8.1.44,1.4,0,2.82-.04,4.36-.22.77-.1,1.57-.22,2.49-.47.91-.29,1.95-.53,3.3-1.7.16-.15.31-.29.56-.6.08-.11.23-.32.26-.37l.07-.1.16-.25.08-.17.15-.35c.1-.24.18-.45.23-.7.25-.97.15-1.82,0-2.54-.35-1.38-.92-2.23-1.44-2.97-.61-.84-1.23-1.52-1.85-2.14.96.34,1.92.65,2.88.99,3.53,1.28,7.21,2.61,10.65,3.93,3.42,1.37,6.81,3.01,10.21,4.71,6.8,3.39,13.56,7.07,20.77,10.27,3.62,1.6,7.36,3.06,11.38,4.13l1.53.38c.54.11,1.12.24,1.61.33l2.83.49c1.8.35,3.68.77,5.57,1.2,3.79.84,7.71,1.69,11.84,2.19,2.06.24,4.19.4,6.42.31,2.23-.09,4.6-.43,6.95-1.43l4.77-2.04-3.99-3.55Z"/>
  </g>
  <path class="cls-2" d="M1074.33,262.57c3.42.49,20.92,3.04,22.79-.32,1.62-2.93-7.29-8.94-10.18-10.89-1.33-.89-2.87-1.75-4.54-2.59,9.48,2.58,18.76,5.66,28.19,8.9,13.73,4.71,33.77,17.51,47.8,19.4,8.62,1.16,22.73,5.83,30.32,2.44-11.82-10.62-36.55-25.25-50.41-33.21-19.35-11.11-38.1-21.1-58.99-28.41-21.43-7.49-46.63-15.17-69.11-18.78-5.36-.86-35.69-4.54-44.66-1.19.88-.23,1.82-.39,2.78-.49,2.38-.24,4.84-.19,7.3-.14,4.91.15,9.86.56,14.81,1.06,2.47.24,4.95.53,7.42.84,2.47.3,4.96.61,7.42.96,1.22.18,2.47.35,3.65.56l3.66.7c2.47.48,4.98.91,7.38,1.49,2.43.57,4.85,1.06,7.29,1.68l7.3,1.85c4.86,1.35,9.72,2.69,14.55,4.19,2.43.71,4.84,1.49,7.25,2.27,2.42.77,4.84,1.54,7.24,2.37,4.8,1.6,9.7,3.33,14.39,5.02l7.2,2.75,6.96,2.93,6.95,3.16c2.32,1.08,4.6,2.21,6.91,3.32,4.59,2.29,9.14,4.65,13.67,7.11,4.54,2.47,9.05,5.01,13.55,7.6,9.06,5.18,18.09,10.44,26.93,16.01,4.43,2.79,8.82,5.65,13.1,8.62,2.21,1.55,4.4,3.12,6.53,4.75-.97-.02-1.96-.08-2.95-.18-3.61-.35-7.33-1.1-11.15-1.83-1.91-.35-3.85-.72-5.86-1.02l-2.92-.4-1.25-.22-1.3-.28c-3.51-.81-7.02-2.09-10.53-3.44-7.02-2.75-13.91-6.1-20.95-9.24-3.52-1.57-7.08-3.11-10.8-4.4-1.9-.66-3.68-1.18-5.5-1.76l-5.47-1.69c-3.65-1.12-7.31-2.18-10.98-3.21l-.17-.05c-.26-.18-.52-.37-.79-.54l-.82-.54-.9-.57c-.6-.39-1.21-.71-1.82-1.07-1.22-.67-2.43-1.28-3.66-1.85-2.45-1.14-4.93-2.11-7.39-3.02-4.92-1.81-9.85-3.34-14.75-4.84-4.9-1.47-9.75-2.95-14.62-4.33-4.87-1.35-9.87-2.28-14.81-3.36-4.95-1.03-9.81-2.41-14.47-4.23l-5.19-2.04,4.5,3.17c3.1,2.19,6.47,3.75,9.85,5.28,3.39,1.52,6.85,2.9,10.32,4.23,6.98,2.65,14.05,5.09,21.21,7.36,2.85.89,5.73,1.73,8.65,2.49,2.29.79,4.56,1.62,6.78,2.49,2.32.91,4.59,1.87,6.76,2.92,1.08.53,2.13,1.09,3.14,1.66.49.31,1,.59,1.46.91l.71.47.77.54c2.01,1.4,3.96,2.87,5.59,4.38.34.3.64.62.94.92-.9.07-1.86.09-2.86.08-2.36-.04-4.83-.24-7.3-.5-2.45-.27-5-.61-7.4-.99-1.27-.2-2.54-.41-3.69-.65-1.17-.2-2.39-.5-3.59-.76-4.8-1.1-9.57-2.46-14.27-4.09-4.67-1.63-9.31-3.4-13.86-5.39-9.07-3.97-17.94-8.41-26.48-13.33-4.27-2.45-8.48-4.98-12.61-7.61l-3.09-1.99-3.02-2c-2.12-1.36-3.97-2.72-5.95-4.06-3.9-2.79-7.75-5.73-11.72-8.61-3.93-2.89-8.03-5.68-12.34-8.12,11.82,9.86,18.66,17.53,31.29,26.02,23.36,15.7,53.11,31.45,79.81,35.3Z"/>
  <path class="cls-5" d="M880.13,214.42c-.36,8.76,4.89,16.99,9.87,24.27,7.36,10.79,3.45,24.81,3.75,36.41.46,18.06-6.18,89.8,9.2,106.8h0l.06.02c19.55-8.2,35.45-76.28,41.62-93.04,3.97-10.78,4.73-28.99,15.13-36.18,7.71-5.35,18.35-11,20.21-20.73l-46.01-46.96s-53.8,28.83-53.83,29.4Z"/>
  <path class="cls-1" d="M972.7,232.05c-1.28.55-2.55,1.13-3.82,1.71,1.62-1.04,3.21-2.13,4.72-3.39,1.7-1.42-1.47-3.06-2.71-2.77-2.18.5-4.32,1.08-6.46,1.68,1.01-1.32,1.89-2.76,2.57-4.34.73-1.69-1.72-2.68-3-2.47-13.45,2.3-22.7,11.45-34.6,17.39-5.84,2.91-11.91,5.47-18.16,7.44-.84.23-1.67.47-2.49.72-1.6.4-3.21.73-4.86.93-1.41.43-2.5-.08-3.25-1.51,1.14-1.16,4.61-1.75,6.02-2.11,5.65-1.42,10.96-3.32,16.27-5.7,4.7-2.1,9.1-4.68,13.19-7.76,8.67-2.9,16.8-7.2,23.15-13.88,1.35-1.42-2.18-2.59-3.01-2.47-7.32,1.03-12.84,4.78-18.41,9.49-1.76,1.5-3.55,2.89-5.37,4.2-3.5,1.13-7.06,2.09-10.6,2.92-2.37.56-4.87.93-7.43,1.25,3.47-1.87,6.91-3.83,10.42-5.71,9.51-5.07,20.36-8.25,28.17-15.91,1.83-1.79-1.9-3.03-3.22-2.66-10.03,2.82-19.29,7.3-28.73,11.73.04-.02.08-.04.12-.06,8.3-4.14,16.46-8.5,24.47-13.09,2-1.14-1.41-2.75-2.9-2.71.75-.38,1.5-.75,2.25-1.13,2.5-1.29-1.11-3.55-2.82-2.88-8.97,3.49-17.71,7.5-26.22,12.09-6.77,3.64-15.25,10.63-23.45,12.55,4.68-4.48,11.88-6.87,17.31-10.06,8.19-4.82,16.33-9.69,24.31-14.77,1.45-.92-.13-2.13-1.64-2.58,1.8-1.09,3.61-2.19,5.41-3.3,1.49-.92-.35-2.36-1.93-2.72.58-1,.76-1.94.22-2.74-.63-.93-1.94-1.51-3.01-1.28-1.46.31-2.64,1.22-3.86,2.04-5.12,3.41-10.03,6.66-15.6,9.39-7.03,3.44-14.33,6.33-21.45,9.66-2.05.6-4.11,1.21-6.17,1.87-1.06.34-1.09.96-.64,1.55-.48.26-.96.5-1.44.77-.51.29-.58,1.04-.27,1.53,1.18,1.91,3.2,2.5,5.54,2.37-1.99.95-3.99,1.89-6.01,2.8-2.21,1,.27,3.05,1.79,3.06,1.52,0,2.96-.26,4.35-.68-1.42,1.22-2.71,2.59-3.75,4.23-.91,1.44,1.48,2.46,2.5,2.52.99.07,1.96.05,2.91-.03-.59.43-1.19.83-1.78,1.27-1.91,1.44,1.92,3.4,3.28,2.68.14-.08.28-.15.42-.22h0c.48-.25.95-.52,1.43-.78-.18.16-.36.31-.54.47-1.73,1.66,1.5,2.86,2.77,2.8,7.82-.37,14.54-5.04,21.07-8.76,6.89-3.94,14.34-7.48,21.93-10.4-5.7,3.16-11.92,5.56-17.68,8.47-6.82,3.46-13.24,7.42-20.19,10.48-3.08.7-6.02,1.69-8.66,3.26-2.19,1.3,2.06,3.02,3.28,2.67,2.64-.76,5.18-1.69,7.66-2.74,3.91-.75,8.07-.96,11.76-1.6,2.09-.36,4.16-.81,6.23-1.27-2.99,1.55-6.09,2.95-9.38,4.22-4.73,1.83-12.66,2.01-16.39,5.81-1.81,1.84.88,4.93,2.68,5.64.22.09.46.15.69.23-.67.33-1.37.63-2.02,1-1.23.7.11,2.24.97,2.54,3.21,1.09,6.32,1.17,9.36.69-2.36.94-4.71,1.88-7.08,2.82-1.97.78-.36,2.37,1.31,2.85-4.28,2.6-7.19,5.35-4.53,7.1,2.58,1.7,6.25.02,8.67-.87,2.51-.93,4.97-1.98,7.44-3.03-.32.21-.63.4-.94.61-.57.38-.67.79-.49,1.17-1.45.82-2.91,1.64-4.35,2.49-.85.5-.68,1.12-.1,1.64-4.37,1.36-8.62,2.99-11.81,6.24-1.44,1.47.9,2.69,2.19,2.81,5.53.53,11.08-.43,16.58-2.12-.81,1.23,1.4,2.37,2.46,2.45,2.86.21,5.63-.13,8.34-.77-.45.22-.91.44-1.35.67-2.05,1.08-4.19,1.96-6.38,2.74-6.51,1.75-13.01,3.6-19.18,6.33-2.57,1.14,1.1,3.64,2.86,2.87,4.78-2.09,9.79-3.55,14.75-5.12.52-.15,1.04-.3,1.56-.45-6.22,3.26-12.37,6.65-18.08,10.85-2.07,1.53,2.01,3.06,3.27,2.64.98-.33,1.94-.7,2.9-1.07-1.72,1.53-3.29,3.22-4.69,5.12-1.13,1.55,2.05,2.71,3.07,2.46,4.45-1.1,8.67-2.66,12.79-4.43-3.21,2.76-6.07,5.87-8.22,9.58-.64,1.11.38,1.87,1.47,2.23-1,.67-2,1.35-3,2.05-2.04,1.43,2.16,3.39,3.68,2.4,1.94-1.26,3.85-2.54,5.73-3.85,3.28-2.04,6.7-3.69,10.51-4.31-1.77,2.75-5.4,4.37-8.14,5.59-2.56,1.13,1.09,3.63,2.84,2.85,4.33-1.92,9.91-4.55,10.83-9.81.22-1.34-1.64-2.07-2.62-2.09-1.26-.03-2.48.06-3.67.21,2.25-1.96,4.41-4.03,6.45-6.28,1.36-1.5-2.5-2.89-3.54-2.32-4.44,2.44-8.09,6.85-12.38,9.8,6.65-7.42,16.34-12.19,24.11-17.9,1.93-1.43-1.9-3.27-3.24-2.63-9.32,4.48-18.24,9.85-27.98,13.45,7.3-6.53,17.24-10.13,25.21-15.45,1.67-1.11-.63-2.45-2.26-2.68.72-.39,1.44-.78,2.15-1.19h0c.14-.08.28-.15.41-.23,1.15-.65.5-1.47-.55-2.02,4.86-2.28,9.7-4.94,13.14-8.46,1.79-1.84-1.88-3.03-3.23-2.64-7.1,2.1-14.25,6.6-21.75,8.16,7.43-5.18,16.28-8.9,24.4-12.25,2.61-1.08-1.12-3.42-2.82-2.87-7.23,2.41-14.2,5.65-21.26,8.57-6.08,2.51-12.89,5.6-19.73,6.53,6.48-3.91,15.47-5.45,21.99-8.24,10.96-4.7,21.85-9.4,32.12-15.35,1.69-.98-.68-2.45-2.1-2.73,4.46-2.43,8.92-4.88,13.4-7.28,2.56-1.38-1.17-3.32-2.81-2.86-.76.21-1.49.46-2.25.67,3.74-1.91,7.5-3.76,11.35-5.44,2.51-1.1-1.08-3.59-2.8-2.86ZM917.35,222.68c-4.22,2.26-8.42,5.07-12.85,7.08,4.07-2.68,8.49-4.93,12.85-7.08ZM910.78,251.54c-1.53.57-3.08,1-4.62,1.24.79-.29,1.59-.55,2.41-.8.74-.12,1.47-.26,2.21-.44ZM937.5,239.41c7.56-4.71,14.87-9.9,23.2-12.55-1.44,2.02-3.24,3.77-5.26,5.3-6.06,2.14-12.01,4.6-17.94,7.25ZM905.51,263.93c1.78-1.04,3.68-1.93,5.5-2.82,4.75-2.32,9.67-4.29,14.52-6.34,8.99-3.79,17.51-8.51,26.15-12.92,1.63-.62,3.24-1.26,4.85-1.91-7.5,3.98-14.94,8.18-22.64,11.84-9.24,4.39-18.82,8.31-28.39,12.15ZM942.48,252.61c-.67.36-1.35.71-2.02,1.07-.04.01-.08.03-.12.04.2-.11.39-.23.59-.34.52-.25,1.04-.51,1.56-.76Z"/>
  <path class="cls-6" d="M1037.67,286.89c-1.23-1.23-3.04-3.01-5.39-5.25-4.61-4.56-11.2-11.08-19-19.05-3.89-4.01-8.16-8.3-12.57-12.97-4.5-4.58-9.16-9.53-14.03-14.61-4.85-5.12-9.88-10.41-15-15.8-5.13-5.39-10.33-10.91-15.51-16.48-5.75-6.14-11.48-12.3-17.13-18.37,3.83-2.11,7.63-4.21,11.34-6.26,3.17-1.72,6.28-3.41,9.32-5.07,3.07-1.64,6.07-3.25,8.99-4.82,5.86-3.22,11.36-6.4,16.29-9.6,4.95-3.18,9.35-6.36,13-9.48,3.67-3.11,6.6-6.2,8.69-8.98,2.1-2.8,3.33-5.29,4-7.06.35-.88.54-1.57.66-2.05.13-.47.2-.71.2-.71,0,0-.08.24-.24.69-.16.46-.39,1.15-.8,1.99-.77,1.69-2.16,4.05-4.39,6.64-2.25,2.58-5.3,5.39-9.11,8.19-3.8,2.81-8.32,5.63-13.41,8.41-5.1,2.76-10.76,5.47-16.83,8.19-3,1.42-6.15,2.77-9.29,4.37-3.1,1.59-6.29,3.23-9.51,4.88-4.15,2.16-8.39,4.39-12.66,6.65-3.32-3.55-6.61-7.06-9.84-10.48-2.5-2.62-4.97-5.19-7.38-7.72-2.45-2.54-4.98-4.86-7.35-7.17-4.84-4.56-9.3-8.98-13.22-13.25-3.9-4.29-7.26-8.44-9.92-12.34-2.69-3.89-4.64-7.55-5.92-10.72-1.27-3.18-1.81-5.87-1.99-7.72-.11-.92-.1-1.65-.1-2.14,0-.49,0-.74,0-.74,0,0-.02.25-.06.74-.04.49-.09,1.21-.05,2.15.05,1.89.41,4.65,1.48,7.98,1.06,3.32,2.8,7.19,5.26,11.33,2.43,4.15,5.55,8.59,9.19,13.21,3.61,4.64,7.77,9.45,12.25,14.41,2.25,2.44,4.56,4.94,6.91,7.5,2.33,2.56,4.72,5.19,7.15,7.85,2.85,3.17,5.77,6.41,8.71,9.67-7.34,3.89-14.79,7.86-22.25,11.78-6.71,3.57-13.43,7.08-20.04,10.5-2.29,1.19-15.41,7.99-19.34,10.03-6.27,3.2-12.28,6.36-18.04,9.21-5.69,2.97-11.14,5.62-16.12,8.14-9.97,4.97-18.33,8.99-24.18,11.79-2.95,1.35-5.25,2.45-6.81,3.2-1.56.74-2.4,1.15-2.4,1.15,0,0,.89-.29,2.56-.82,1.66-.53,4.1-1.31,7.19-2.35,3.1-1.03,6.8-2.45,11.06-4.01,4.27-1.59,9-3.57,14.22-5.66,5.15-2.22,10.77-4.59,16.63-7.26,5.88-2.68,12.04-5.59,18.41-8.64,2.7-1.34,5.46-2.71,8.23-4.09.04,1.55.23,3.09.57,4.59.83,3.74,2.43,7.25,4.28,10.55,1.81,3.3,4.07,6.4,6,9.5,1.81,3.13,2.78,6.73,3.19,10.33.81,7.27-.39,14.56-.53,22,0,.2,0,.4,0,.6-.52.36-.99.73-1.36,1.1-.68.67-1.08,1.35-1.2,1.85-.13.5-.11.77-.11.77,0,0,.04-.28.28-.69.23-.42.71-.93,1.44-1.39.27-.17.61-.32.95-.48.01,3.12-.03,6.19-.15,9.3l-.39,11.05c-.54,14.73-.95,29.52-.34,44.34.32,7.41.94,14.83,2.2,22.19.63,3.68,1.46,7.34,2.64,10.93,1.2,3.55,2.74,7.11,5.33,10.05l.16.18.24.07h.07s.28.09.28.09l.24-.11c3.59-1.58,6.27-4.39,8.58-7.31,2.31-2.95,4.25-6.14,6.03-9.4,3.54-6.54,6.42-13.39,9.07-20.32,4.12-10.83,7.6-21.87,10.93-32.93l.19-.06s-.02-.15-.06-.37c.89-2.95,1.77-5.91,2.64-8.86,1.06-3.53,2.11-7.07,3.23-10.57.55-1.76,1.18-3.45,1.78-5.22.58-1.78,1.06-3.58,1.51-5.37.15-.6.28-1.2.43-1.81.4.29.77.57,1.1.82,1.49,1.09,2.35,1.71,2.35,1.71,0,0-.8-.7-2.19-1.92-.35-.31-.74-.65-1.16-1.03.68-2.85,1.33-5.71,2.09-8.51.95-3.53,2.08-7.01,3.67-10.22,1.59-3.19,3.73-6.1,6.57-8.08,2.92-2.02,5.95-3.91,8.85-6.03,2.89-2.1,5.7-4.43,7.97-7.33,1.06-1.34,1.96-2.86,2.64-4.49,1.07,1.09,2.16,2.19,3.21,3.27,5.02,4.97,9.89,9.73,14.57,14.18,4.66,4.45,9.19,8.53,13.34,12.31,4.24,3.68,8.07,7.1,11.58,10,3.53,2.87,6.55,5.42,9.14,7.41,2.58,1.99,4.63,3.53,6.03,4.57,1.39,1.04,2.14,1.6,2.14,1.6,0,0-.66-.66-1.89-1.87ZM946.01,281.92c-.44,1.78-.92,3.56-1.48,5.28-.58,1.72-1.24,3.46-1.79,5.23-1.14,3.52-2.2,7.05-3.27,10.58-.68,2.27-1.37,4.53-2.06,6.8-.21-.55-.46-1.12-.79-1.76-.49-.9-1.12-1.89-1.94-2.86-.77-1.02-1.77-1.97-2.86-2.95-1.13-.91-2.36-1.86-3.72-2.65-1.37-.79-2.84-1.51-4.38-2.07-1.54-.58-3.15-1.01-4.76-1.31-3.24-.62-6.54-.7-9.57-.4-1.52.14-2.98.39-4.33.73-1.36.35-2.62.7-3.74,1.2-1.13.45-2.14.95-2.98,1.46-.85.5-1.55.99-2.09,1.46-.56.43-.94.84-1.2,1.11-.25.28-.4.42-.4.42l.09.12s.18-.07.54-.19c.34-.14.84-.32,1.48-.52.32-.11.67-.21,1.07-.3.39-.1.79-.24,1.26-.32.9-.19,1.9-.4,3.02-.54,1.1-.15,2.31-.27,3.58-.34,1.28-.04,2.62-.08,4.01-.04,1.38.01,2.82.12,4.27.25,1.44.15,2.9.34,4.35.59,1.44.27,2.88.53,4.28.9,1.4.33,2.77.73,4.06,1.2,2.6.89,4.91,2.17,6.61,3.64,1.71,1.46,2.8,3.08,3.44,4.23.11.16.17.31.26.47-3.46,11.36-7.05,22.68-11.3,33.73-2.65,6.88-5.56,13.67-9.05,20.1-1.76,3.21-3.68,6.33-5.92,9.16-2.11,2.66-4.56,5.11-7.49,6.53-2.09-2.56-3.5-5.74-4.59-8.98-1.12-3.47-1.92-7.06-2.53-10.67-1.23-7.25-1.77-14.61-2.14-21.96-.68-14.73-.35-29.48.12-44.21l.33-11.06c.1-3.29.07-6.66.03-9.94,1.3-.46,2.85-.86,4.64-1.15,3-.52,6.57-.9,10.39-1.04,1.91-.08,3.89-.12,5.89-.12,1.97-.03,3.98-.05,5.98-.07.99,0,1.97,0,2.88.06,1.02.08,2.08.11,3,.21,1.89.13,3.84.47,5.68.86,1.81.49,3.59,1.05,5.19,1.79,1.6.74,3.09,1.52,4.42,2.35,1.56.95,2.89,1.88,4.06,2.72-.18.75-.35,1.51-.54,2.25ZM975.95,239.08c-2.16,2.76-4.89,5.03-7.74,7.1-2.86,2.08-5.89,3.96-8.83,6-3.05,2.12-5.32,5.21-6.97,8.52-1.65,3.33-2.8,6.88-3.77,10.45-.71,2.63-1.33,5.28-1.96,7.93-1.03-.93-2.21-1.97-3.6-3.07-2.5-2.02-5.7-4.11-9.43-5.82-1.88-.84-3.83-1.65-5.97-2.19-1.09-.34-2.08-.52-3.11-.72-1.13-.22-2.23-.31-3.31-.38-2.17-.12-4.3-.05-6.37.16-2.07.24-4.09.55-6.03.93-3.88.77-7.47,1.69-10.44,2.8-1.51.57-2.87,1.18-4.02,1.81.13-7.19,1.29-14.44.45-21.85-.44-3.73-1.45-7.51-3.4-10.86-2.04-3.24-4.2-6.19-6.01-9.46-1.82-3.22-3.37-6.62-4.16-10.18-.38-1.64-.56-3.3-.55-4.96,3.34-1.67,6.71-3.36,10.1-5.1,6.64-3.43,13.36-6.95,20.07-10.52,6.75-3.55,13.44-7.23,20.06-10.83,1.07-.59,2.12-1.17,3.19-1.76.81.89,1.6,1.77,2.4,2.67,2.66,2.92,5.34,5.86,8.03,8.8l.28.38c.81,1.06,1.66,2.08,2.49,3.12.84,1.03,1.65,2.08,2.51,3.1l2.61,3c.86,1.02,1.75,2,2.67,2.95l2.72,2.88,2.84,2.78c.93.94,1.95,1.78,2.92,2.67.67.62,1.38,1.19,2.09,1.77.59.62,1.18,1.25,1.76,1.86,3.74,3.9,7.44,7.68,11.1,11.41-.64,1.67-1.55,3.23-2.65,4.63Z"/>
  <path class="cls-4" d="M936.06,310.63c-.32-1.06-2.48-1.27-3.24-.77-1.89,1.18-3.61,2.54-5.19,4.01-.11.01-.22.03-.27.06-8.85,4.06-16.3,11.1-24.25,16.96-1.45,1.07-2.95,2-4.5,2.88,4.34-2.47,8.32-6.62,12.29-9.83,5.74-4.64,11.47-9.26,17.07-14.07,1.02-.89-2.56-1.52-3.17-1.25-6.77,2.93-13.32,6.66-20.1,9.7,5.75-5.07,6.41-7,7.63-9.68,2.34-.42,4.51-.93,6.04-1.76-.58-.23-2.59-.77-4.45-1.28.64-1.27-2.56-1.53-3.21-1.18-4.37,2.36-9.17,3.2-13.54,5.57-1.36.73,2,1.96,2.97,1.44,1.46-.79,3.51-1.28,5.72-1.69-4.1,3.61-8.88,6.91-10.01,12.32-.25,1.21,2.38,1.35,2.99,1.16,6.2-1.98,12.08-4.94,17.95-7.91-7.7,6.33-14.93,11.96-22.54,18.5-.36.31,0,.82.19.98,3.33,2.64,6.86.69,10.04-1.36,5.72-3.69,10.85-8.31,16.33-12.32-6.41,6.74-13.27,12.98-20.03,19.37-1.03.98,2.59,1.52,3.19,1.24,3.64-1.67,7.05-3.68,10.34-5.93-4.48,5.35-9.23,10.42-14.43,15.09-1.01.91,2.4,1.52,2.87,1.36,3.74-1.2,7.34-2.69,10.89-4.36-4.87,4.81-9.67,9.71-14.15,15-.83.99,2.59,1.93,3.41,1.05,3.68-3.93,7.36-7.82,11.13-11.61-2.11,3.96-4.25,7.92-6.34,11.94-2.29,2.32-4.4,4.79-6.09,7.75-.45.79.55,1.25,1.6,1.36-.17.37-.35.73-.52,1.1-.53,1.18,2.9,1.4,3.52.81,4.92-4.67,6.37-7.79,8.87-13.92,0,0,0-.02,0-.02,5.48-7.47,9.49-15.64,13.44-24.35.43-.96-1.39-1.32-2.51-1.05,1.62-3.75,3.06-7.59,4.27-11.57,1.04.56,2.49.47,2.5-.35.08-4.53,4.68-8.87,3.32-13.43ZM931.81,316.28c-.4-.3-1.07-.45-1.69-.48.79-.78,1.61-1.52,2.48-2.23-.16.9-.45,1.81-.79,2.71ZM916.54,329.85c-.09.2-.19.38-.28.57-.07.15-.08.29-.05.43-1.06.81-2.12,1.6-3.2,2.37,1.18-1.12,2.36-2.24,3.53-3.37ZM925.13,327.4c.52-.72-.51-1.18-1.59-1.31,1.16-1.51,2.38-2.96,3.68-4.35-2,7.14-4.79,13.84-7.96,20.35-3.83,2.08-7.7,4.03-11.67,5.74,6.39-6.26,12.19-13.08,17.53-20.43Z"/>
  <path class="cls-2" d="M981.72,208.03c.86-.35,1.76-.6,2.65-.79,1.79-.41,3.59-.6,5.37-.76,1.79-.15,3.57-.19,5.34-.24l5.29.03c1.76.04,3.51.12,5.2.11l5.23-.12c3.56-.07,7.12-.05,10.66-.02,7.1.05,14.15.15,21.15-.22,1.76-.1,3.5-.23,5.24-.37l2.57-.26,2.67-.34,10.65-1.52c7.14-1.02,14.24-2.14,21.33-3.39,7.1-1.26,14.16-2.74,21.1-4.62,6.95-1.9,13.82-4.11,20.28-7.1,5.1-2.36,9.95-5.24,14.03-8.81-.6-.07-1.2-.16-1.81-.21-1.04-.07-2.09-.17-3.15-.21-1.05-.04-2.12-.06-3.18-.05-1.07.03-2.14.03-3.21.08-1.08.04-2.15.11-3.23.19-2.16.17-4.32.39-6.49.68-2.17.29-4.33.63-6.49,1.02-2.15.41-4.31.81-6.45,1.29-2.14.49-4.28.96-6.42,1.46l-6.39,1.5c3.73-1.01,7.45-2,11.16-3.11,1-.29,2.01-.59,3.01-.88l4.8-1.48c2.1-.65,4.23-1.3,6.37-1.88.81-.22,1.62-.43,2.44-.63,1.92-.55,3.85-1.09,5.77-1.65,3.76-1.1,7.54-2.06,11.34-2.97l5.73-1.39c1.86-.46,3.74-.89,5.58-1.43,3.71-1.02,7.38-2.22,11-3.56,3.62-1.33,7.21-2.8,10.76-4.36,3.56-1.55,7.1-3.15,10.63-4.85l10.6-5.12c3.56-1.72,7.05-3.5,10.72-5.18,7.27-3.38,14.65-6.37,21.83-9.58,3.59-1.62,7.12-3.32,10.54-5.17,1.71-.92,3.4-1.91,5.04-2.9.81-.51,1.62-.99,2.43-1.54l2.44-1.64c3.31-2.3,6.63-4.51,9.8-6.78,2.14-1.54,4.12-3.19,6.03-4.91-5.57-1.1-11.22-1.91-16.91-2.45-6.94-.63-13.92-.99-20.91-1.04-6.97-.05-13.97.14-20.9.48-6.97.36-13.9.85-20.8,1.49-3.45.28-6.88.71-10.32,1.06-3.42.38-6.84.87-10.25,1.3l-10.17,1.56c-3.36.63-6.76,1.17-10.09,1.85l-4.97,1.03c-1.65.33-3.32.69-5,1.1l-5.02,1.19-2.45.59-2.49.63c-6.62,1.68-13.22,3.4-19.78,5.16-13.09,3.54-26.05,7.35-38.76,11.7-6.33,2.16-12.63,4.4-18.86,6.76-3.11,1.19-6.21,2.38-9.27,3.65-3.1,1.19-6.13,2.51-9.17,3.78-3.02,1.34-5.99,2.57-9.03,4-3.03,1.42-6.01,2.84-9.08,4.23l-9.08,4.13c-3.01,1.35-6,2.72-8.96,4.15-5.91,2.84-11.74,5.8-17.27,9.22-2.74,1.73-5.45,3.52-7.91,5.6-2.48,2.07-4.75,4.34-6.43,7.16l-.13-.06s-.64,1.99-.57,3.56c.07,1.58,3.15,2.82,5.84,4.34,2.69,1.52,16.26,10.85,16.26,10.85l-.03-.89h.04c.04-.28.18-.51.35-.71l-.2-.18c.61-.75,1.48-1.23,2.36-1.57Z"/>
  <path class="cls-6" d="M1266.63,111.22c-6.97-1.67-14.05-2.79-21.16-3.56-7.09-.75-14.2-1.12-21.3-1.35-7.09-.21-14.13-.19-21.21-.02-7.02.21-14.03.51-21.04.97-3.49.18-6.98.53-10.48.79-3.48.29-6.95.7-10.43,1.04l-10.39,1.32c-3.45.55-6.89,1.01-10.35,1.61l-5.17.93c-1.74.3-3.44.63-5.12.99l-5.04,1.06-1.27.27-1.31.29-2.52.58c-6.71,1.52-13.38,3.19-20.02,4.94-6.64,1.73-13.22,3.59-19.78,5.5-6.55,1.96-13.07,3.92-19.53,6.08-6.47,2.09-12.86,4.42-19.2,6.84-6.34,2.41-12.59,5.05-18.76,7.88-6.22,2.9-12.16,5.96-18,9.09l-8.86,4.64c-2.93,1.6-5.87,3.23-8.76,4.91-2.91,1.67-5.75,3.47-8.56,5.31-2.82,1.85-5.54,3.83-8.17,5.94-2.63,2.1-5.14,4.38-7.39,6.89-1.12,1.26-2.14,2.6-3.08,3.99-.9,1.4-1.67,2.93-2.2,4.43l.14.06.13.06c1.68-2.82,3.95-5.08,6.43-7.16,2.46-2.08,5.17-3.87,7.91-5.6,5.52-3.42,11.36-6.38,17.27-9.22,2.96-1.43,5.95-2.8,8.96-4.15l9.08-4.13c3.07-1.39,6.05-2.81,9.08-4.23,3.04-1.43,6.01-2.66,9.03-4,3.04-1.28,6.07-2.59,9.17-3.78,3.06-1.27,6.17-2.47,9.27-3.65,6.23-2.36,12.53-4.6,18.86-6.76,12.71-4.35,25.67-8.17,38.76-11.7,6.57-1.77,13.17-3.48,19.78-5.16l2.49-.63,2.45-.59,5.02-1.19c1.68-.41,3.35-.78,5-1.1l4.97-1.03c3.33-.68,6.72-1.23,10.09-1.85l10.17-1.56c3.41-.43,6.82-.91,10.25-1.3,3.44-.35,6.87-.78,10.32-1.06,6.9-.63,13.83-1.12,20.8-1.49,6.93-.33,13.93-.52,20.9-.48,6.99.05,13.97.41,20.91,1.04,5.69.54,11.34,1.34,16.91,2.45-1.9,1.72-3.89,3.37-6.03,4.91-3.17,2.27-6.49,4.48-9.8,6.78l-2.44,1.64c-.81.55-1.62,1.02-2.43,1.54-1.64.99-3.33,1.98-5.04,2.9-3.42,1.85-6.95,3.55-10.54,5.17-7.18,3.21-14.55,6.2-21.83,9.58-3.67,1.68-7.16,3.46-10.72,5.18l-10.6,5.12c-3.52,1.7-7.06,3.3-10.63,4.85-3.55,1.57-7.14,3.03-10.76,4.36-3.63,1.34-7.29,2.54-11,3.56-1.84.53-3.72.97-5.58,1.43l-5.73,1.39c-3.79.92-7.57,1.87-11.34,2.97-1.92.56-3.85,1.1-5.77,1.65-.81.21-1.63.41-2.44.63-2.15.58-4.27,1.22-6.37,1.88l-4.8,1.48c-1,.29-2.01.59-3.01.88-3.71,1.1-7.43,2.1-11.16,3.11l11.21-2.91c.12-.03.24-.06.35-.09-3.85,1.03-7.69,2.08-11.57,2.99l6.39-1.5c2.13-.5,4.28-.97,6.42-1.46,2.14-.48,4.3-.88,6.45-1.29,2.17-.39,4.33-.73,6.49-1.02,2.17-.29,4.34-.52,6.49-.68,1.08-.08,2.15-.15,3.23-.19,1.07-.05,2.14-.05,3.21-.08,1.07-.01,2.13,0,3.18.05,1.06.04,2.1.14,3.15.21.61.05,1.21.14,1.81.21-4.08,3.57-8.93,6.45-14.03,8.81-6.46,2.98-13.33,5.2-20.28,7.1-6.95,1.88-14,3.37-21.1,4.62-7.09,1.25-14.19,2.36-21.33,3.39l-10.65,1.52-2.67.34-2.57.26c-1.75.14-3.48.27-5.24.37-7.01.37-14.05.27-21.15.22-3.53-.03-7.09-.04-10.66.02l-5.23.12c-1.7,0-3.45-.08-5.2-.11l-5.29-.03c-1.77.05-3.55.09-5.34.24-1.78.16-3.58.35-5.37.76-.89.19-1.78.44-2.65.79-.87.34-1.75.82-2.36,1.57l.2.18.07.06c1.43-.88,3.2-.83,4.88-.9,1.7.01,3.41.09,5.13.24,1.72.13,3.44.28,5.15.46l5.2.49c1.75.15,3.5.28,5.32.37,1.91.08,3.58,0,5.35.03,3.49.02,7,.11,10.53.22,7.06.21,14.21.48,21.47.26,1.81-.05,3.64-.16,5.46-.29l2.79-.26,2.68-.31,10.75-1.41c7.17-.96,14.38-1.96,21.6-3.3,7.21-1.31,14.44-2.87,21.62-4.83,7.19-1.97,14.3-4.47,21.14-7.74,6.81-3.3,13.43-7.52,18.58-13.34l2.67-3.02-3.92-.69c-.92-.17-1.84-.29-2.76-.4l1.74-.31c1.96-.37,3.91-.72,5.86-1.17,3.9-.86,7.77-1.89,11.58-3.08,3.82-1.17,7.61-2.49,11.34-3.91,3.72-1.44,7.4-2.98,11.05-4.58,3.65-1.58,7.24-3.29,10.82-4.98l10.7-5.08c7.11-3.32,14.44-6.49,21.63-10.15,3.61-1.81,7.2-3.73,10.68-5.82,1.75-1.04,3.47-2.13,5.18-3.28.84-.58,1.72-1.17,2.54-1.76l2.42-1.79c3.08-2.39,6.36-4.63,9.57-7.07,3.23-2.43,6.43-5.03,9.26-7.97l2.37-2.47-3.37-.81Z"/>
  <path class="cls-2" d="M910.76,185.08c-.7-3.2-2.14-6.07-3.84-8.82-1.69-2.75-3.69-5.3-5.74-7.81-4.16-4.98-8.76-9.64-13.48-14.19-2.35-2.29-4.75-4.54-7.19-6.76l-7.31-6.78c-2.48-2.3-4.84-4.58-7.28-6.89-2.44-2.32-4.87-4.42-7.31-6.65-2.49-2.17-4.95-4.38-7.51-6.49-2.51-2.17-5.08-4.29-7.64-6.39-5.18-4.2-10.44-8.32-15.77-12.36-10.68-8.14-21.77-15.85-33.08-23.34-5.68-3.75-11.4-7.45-17.14-11.14l-2.16-1.38-2.13-1.33-4.39-2.71c-1.46-.92-2.93-1.79-4.4-2.63l-4.39-2.54c-2.94-1.7-5.99-3.29-8.99-4.94l-9.16-4.69c-3.11-1.48-6.19-3.02-9.32-4.47-3.15-1.41-6.27-2.91-9.46-4.26-6.34-2.78-12.76-5.43-19.26-7.97-6.48-2.5-13.06-4.89-19.69-7.05-6.65-2.16-13.39-4.02-20.17-5.61-5.59-1.28-11.23-2.31-16.87-3.02,1.27,2.24,2.68,4.43,4.23,6.57,2.29,3.16,4.74,6.3,7.15,9.52l1.8,2.33c.6.77,1.22,1.48,1.82,2.23,1.24,1.46,2.54,2.93,3.86,4.34,2.67,2.84,5.47,5.56,8.37,8.23,5.8,5.31,11.85,10.47,17.69,15.98,2.95,2.75,5.7,5.54,8.54,8.3l8.45,8.2c2.8,2.73,5.66,5.36,8.56,7.95,2.87,2.61,5.81,5.13,8.83,7.54,3.02,2.42,6.12,4.71,9.32,6.85,1.58,1.09,3.23,2.09,4.85,3.12l4.99,3.12c3.31,2.07,6.6,4.17,9.82,6.4,1.88,1.3,3.77,2.58,5.65,3.87.47.3.96.58,1.42.89,1.86,1.22,3.67,2.51,5.46,3.79l4.15,2.96c.84.58,1.68,1.17,2.52,1.75,3.17,2.21,6.39,4.33,9.61,6.47l-5.59-3.44c-1.87-1.15-3.76-2.27-5.63-3.41-1.88-1.13-3.8-2.19-5.72-3.26-1.92-1.05-3.88-2.05-5.84-3.01-1.96-.96-3.95-1.85-5.94-2.7-.99-.42-2-.82-3-1.2-1-.38-2.02-.73-3.02-1.08-1.01-.35-2.02-.66-3.04-.96-1.01-.3-2.04-.53-3.05-.79-.59-.14-1.19-.25-1.78-.37,2.74,4.67,6.44,8.94,10.53,12.79,5.19,4.87,11.01,9.14,17,13.13,6,3.97,12.23,7.61,18.57,11.05,6.33,3.42,12.73,6.72,19.17,9.94l9.63,4.81,2.42,1.16,2.36,1.06c1.61.69,3.23,1.36,4.86,2.01,6.53,2.56,13.26,4.7,20,6.88,3.37,1.08,6.75,2.19,10.11,3.38l4.92,1.76c1.6.54,3.29,1.01,4.97,1.53l5.03,1.64c1.67.61,3.34,1.21,5,1.91,1.64.71,3.29,1.47,4.86,2.41.78.47,1.55.98,2.26,1.59.71.59,1.4,1.34,1.74,2.23l-.24.11c.09.25.15.51.1.79h.04s-.3.85-.3.85c0,0,15.82-4.58,18.85-5.17,3.04-.6,6.35-.8,6.91-2.28.56-1.47.58-3.54.58-3.56h.04s-.19.01-.19.01Z"/>
  <path class="cls-6" d="M910.37,180.15c-.45-1.61-1-3.21-1.67-4.75-1.34-3.09-3-6.04-4.84-8.87-1.82-2.83-3.78-5.57-5.88-8.21-2.08-2.64-4.21-5.24-6.44-7.75-2.22-2.51-4.48-4.99-6.77-7.43l-6.94-7.2c-4.55-4.82-9.23-9.59-14.21-14.3-4.96-4.63-10.06-9.11-15.31-13.4-5.25-4.31-10.59-8.53-16.06-12.55-5.45-4.09-11.03-8-16.62-11.93-5.62-3.88-11.28-7.73-17.03-11.46-5.75-3.75-11.56-7.44-17.44-11l-2.2-1.34-1.15-.7-1.11-.65-4.46-2.59c-1.47-.87-2.99-1.72-4.54-2.55l-4.62-2.52c-3.08-1.67-6.2-3.19-9.31-4.79l-9.45-4.53c-3.19-1.42-6.36-2.9-9.57-4.28-3.23-1.35-6.43-2.78-9.69-4.06-6.51-2.64-13.07-5.14-19.66-7.55-6.66-2.4-13.35-4.64-20.14-6.68-6.8-2.02-13.67-3.91-20.63-5.44-6.98-1.52-14.07-2.69-21.21-3.31l-3.45-.3,1.47,3.09c1.76,3.69,3.97,7.17,6.27,10.49,2.28,3.33,4.68,6.49,6.85,9.73l1.73,2.47c.58.82,1.24,1.65,1.85,2.47,1.27,1.62,2.54,3.2,3.88,4.74,2.65,3.09,5.45,6.04,8.3,8.9,5.67,5.73,11.62,11.05,17.32,16.45l8.54,8.19c2.87,2.73,5.73,5.49,8.7,8.14,2.96,2.66,5.96,5.29,9.04,7.83,3.1,2.52,6.27,4.97,9.53,7.29,3.24,2.33,6.58,4.54,10.02,6.58,1.69,1.04,3.45,2,5.18,2.96l1.56.84c-.91-.18-1.82-.36-2.75-.49l-3.93-.58,1.58,3.71c3.04,7.14,8,13.24,13.42,18.52,5.46,5.26,11.42,9.88,17.61,14.02,6.19,4.12,12.56,7.88,19,11.4,6.41,3.55,12.95,6.76,19.45,9.94l9.76,4.73,2.45,1.14,2.56,1.12c1.69.7,3.38,1.38,5.09,2,6.82,2.5,13.68,4.51,20.45,6.53,3.37,1.01,6.74,2.03,10.06,3.11,1.68.53,3.24,1.14,5.08,1.66,1.75.49,3.46.92,5.16,1.33l5.09,1.17c1.69.36,3.37.77,5.04,1.18,1.68.4,3.32.87,4.94,1.39,1.56.59,3.27,1.11,4.34,2.39l.09-.04.24-.11c-.34-.9-1.03-1.64-1.74-2.23-.71-.61-1.48-1.13-2.26-1.59-1.57-.95-3.22-1.7-4.86-2.41-1.66-.7-3.33-1.3-5-1.91l-5.03-1.64c-1.68-.52-3.36-1-4.97-1.53l-4.92-1.76c-3.36-1.19-6.74-2.3-10.11-3.38-6.75-2.19-13.47-4.32-20-6.88-1.63-.65-3.25-1.32-4.86-2.01l-2.36-1.06-2.42-1.16-9.63-4.81c-6.44-3.22-12.84-6.53-19.17-9.94-6.35-3.44-12.57-7.08-18.57-11.05-5.99-3.99-11.81-8.26-17-13.13-4.09-3.85-7.79-8.11-10.53-12.79.59.12,1.19.23,1.78.37,1.01.26,2.04.5,3.05.79,1.01.29,2.03.61,3.04.96,1,.36,2.02.7,3.02,1.08,1.01.38,2.01.78,3,1.2,2,.84,3.98,1.74,5.94,2.7,1.96.96,3.91,1.96,5.84,3.01,1.91,1.07,3.84,2.14,5.72,3.26,1.87,1.14,3.76,2.26,5.63,3.41l5.59,3.44c-3.22-2.14-6.44-4.26-9.61-6.47-.85-.58-1.68-1.17-2.52-1.75l-4.15-2.96c-1.79-1.28-3.6-2.56-5.46-3.79-.46-.31-.95-.59-1.42-.89-1.88-1.29-3.77-2.57-5.65-3.87-3.23-2.23-6.51-4.33-9.82-6.4l-4.99-3.12c-1.62-1.02-3.27-2.03-4.85-3.12-3.2-2.14-6.3-4.43-9.32-6.85-3.01-2.41-5.95-4.93-8.83-7.54-2.9-2.59-5.75-5.23-8.56-7.95l-8.45-8.2c-2.84-2.76-5.58-5.55-8.54-8.3-5.84-5.51-11.89-10.67-17.69-15.98-2.9-2.67-5.7-5.39-8.37-8.23-1.33-1.41-2.63-2.88-3.86-4.34-.6-.74-1.22-1.45-1.82-2.23l-1.8-2.33c-2.41-3.23-4.86-6.37-7.15-9.52-1.55-2.15-2.97-4.34-4.23-6.57,5.65.71,11.29,1.73,16.87,3.02,6.78,1.59,13.53,3.46,20.17,5.61,6.63,2.16,13.21,4.54,19.69,7.05,6.49,2.54,12.92,5.19,19.26,7.97,3.19,1.35,6.31,2.85,9.46,4.26,3.13,1.45,6.21,2.98,9.32,4.47l9.16,4.69c3,1.65,6.04,3.24,8.99,4.94l4.39,2.54c1.47.83,2.94,1.7,4.4,2.63l4.39,2.71,2.13,1.33,2.16,1.38c5.75,3.69,11.46,7.39,17.14,11.14,11.3,7.48,22.4,15.2,33.08,23.34,5.33,4.05,10.6,8.16,15.77,12.36,2.57,2.1,5.14,4.22,7.64,6.39,2.56,2.11,5.02,4.32,7.51,6.49,2.45,2.23,4.87,4.33,7.31,6.65,2.43,2.31,4.8,4.59,7.28,6.89l7.31,6.78c2.43,2.23,4.84,4.48,7.19,6.76,4.72,4.55,9.32,9.21,13.48,14.19,2.06,2.51,4.06,5.07,5.74,7.81,1.69,2.75,3.13,5.62,3.84,8.82l.19-.02h.1c-.03-1.61-.28-3.29-.69-4.91Z"/>
</svg>