<?xml version="1.0" encoding="UTF-8"?>
<svg id="Layer_1" data-name="Layer 1" xmlns="http://www.w3.org/2000/svg" viewBox="0 0 600 150">
  <defs>
    <style>
      .cls-1 {
        fill: #243446;
      }
    </style>
  </defs>
  <g>
    <path class="cls-1" d="M185.82,93.41l-.54-1.25-.18-.18c-1.26-1.44-1.61-1.79-2.33-2.33l-.18-1.44v-.54l.18-3.41v-.18l-.18-1.44-.36-1.26v-1.43l.18-1.61v-4.31c0-.72,0-1.79-.18-2.51l-.72-4.84-.18-1.97v-5.56l.18-2.69.72-4.84.18-1.61v-.18c0-1.08-.36-2.15-1.08-3.05-.36-.72-.72-1.08-.72-1.25q-.18-.18-.18-.36c-.18-.18-.18-.36-.18-.54-.36-.72-.54-1.26-.72-1.26,0-.18-.18-.36-.18-.54l-.72-3.05c-.18-.54-.54-1.26-1.07-1.97-1.08-1.08-1.97-1.79-3.05-2.15l-3.05-1.08-2.15-.9c-1.2-.52-2.24-.86-3.11-.89.1.11.2.24.25.41-.05.62-.81.53-1.34.67-.31-.41-.04-.81.14-1.17l-2.76-.27-.9-.18c-.36,0-.9,0-1.44.18-.54,0-.9.18-1.07.18-.36,0-.54.18-.72.18l-6.63,4.13-1.43.36-1.79-1.61.9-2.69.36-.54.54-.54.36-1.26c0-1.97-1.43-2.69-5.2-2.69-2.15,0-2.69.18-5.38,1.97l-2.15,1.44c-2.33,1.44-4.66,2.51-6.82,2.87l-2.87.54c-2.51.54-4.48,2.69-4.48,4.66v.36l.36,1.43,1.79.72,2.87,1.08c.54.18.9.72,1.08,1.08.18.18.18.36.18.54l-.18,1.08-.36,1.97-.36,1.25v.72c1.43,1.61,1.79,2.51,1.79,4.48v.72l-.18,2.33-.36,2.87-.18,2.87-.05,1.12c.37.24.7.52,1.26.56.15.42.01.3,0,.81-.32.17-.81.17-1.07.4-.11,0-.19-.03-.26-.07l-.06,1.3-.06,1.05c1.41.23.89,2.17-.15,2.29l-.15,1.32.07.9c.4-.01.84-.06,1.04.13.02.33.02.65-.13.81-.26-.18-.61-.28-.87-.46l.08,1.14-.36,5.2.18,2.69v.36c0,1.25-.18,2.51-1.08,5.02l-.36.18-.72,1.79c-.54,1.26-1.08,1.97-1.43,2.15l-2.51.9c-1.26.54-2.33,2.51-2.33,4.66,0,1.07.72,1.97,1.79,1.97l2.51.36,1.61.36,1.61.18,4.48.18h1.44l1.97-.18,8.07.18,2.69-.18h2.33c1.61,0,2.87-1.8,2.87-3.95,0-.72-.18-1.08-.72-1.79-.18-.36-.36-.72-.54-.72l-2.15-1.26c-.72-.54-1.08-.72-2.15-1.79-.54-.72-.9-1.25-1.08-1.43l-.9-2.15v-.36c-.72-2.33-1.07-5.74-1.07-12.02v-4.13l.36-1.07.9-5.02v-3.94l.18-4.31.18-1.79v-1.44l.18-1.08v-.18l.54-1.07.72-1.97c1.43-3.95,5.02-6.46,9.15-6.46,6.64,0,10.58,4.48,10.58,12.2v7.53l-.18,1.08-.36,3.05v2.33l.36,3.23v3.41l.18,2.87v.72c0,1.26-.18,2.87-.54,5.02l-.36,2.15v1.26c0,1.61-.9,3.05-2.87,4.3-4.66,2.87-5.38,3.77-5.38,5.74,0,2.33,1.08,3.05,4.66,3.05h4.12l1.97-.36,3.23-.18,3.41-.36h1.43l3.77-.18h.18l2.69.36h.36c1.97,0,3.23-1.08,3.41-2.87l-.54-1.97-.54-1.08ZM132.77,66.89c.43-.02.89-.41,1.21-.13-.06.59.18.67,0,1.07-.62.29-1.37-.04-1.21-.94ZM133.87,96.63c-.04-.31.02-.51.13-.67.3-.04.5.03.54.27.06.42-.29.43-.67.4ZM141.09,33.34v.54c-.31.07-.68.27-.94,0-.21-.69.6-.81.94-.54ZM136.8,54.14c.27-.05.42.03.4.27h-.4v-.27ZM134.95,93.81v-.4c.39-.2.39.6,0,.4ZM136.56,81.6c.04-.31.36-.31.54-.13-.04.31-.36.31-.54.13ZM137.34,58.57c-.65.13-.25-.71,0-.27v.27ZM138.03,88.57h-.54c-.11-.52.64-.52.54,0ZM140.69,56.15c-.42.06-.38-.34-.54-.54-.27-.04-.36-.27-.54-.4,0-.49.47-.51.67-.81.58.23,1.05.56.94,1.48-.2.07-.34.2-.54.27ZM141.39,70.32c-.17-.18-.17-.5,0-.67.44-.03.6.74,0,.67ZM142.03,61.25h-.4v-.4h.4v.4ZM142.44,73.6c.06-.32-.24-.29-.13-.67.2-.2.88-.2,1.07,0,.06.6-.4.67-.94.67ZM164.07,96.09c-.22-.04-.23.12-.4.13-.9-.23-.87-1.24-.27-1.74h.67c.21.31.21,1.3,0,1.61ZM171.02,93.32c-.06-.26.62-.43.67-.13.13.48-.58.24-.67.13ZM175.58,92.92c-.07-.07.1-.17.13-.13.07.07-.1.17-.13.13ZM175.85,49.31c.44-.03.65.16.67.54-.46.05-.76-.04-.67-.54ZM176.14,73.41v-.4c.39-.2.39.6,0,.4ZM176.14,87.9c.05-.16.36-.11.4,0,.12.29-.49.31-.4,0ZM177.62,73.95v-.27c.11.02.13-.05.13-.13.26-.05.19.61-.13.4ZM178.02,73.41c-.04-.31-.26-.55,0-.8.22-.04.23.13.4.13-.02.34-.03.69-.4.67ZM178.56,64.55c-.01.44-.61.29-.4.94-.58.05-.3.96-1.07.8-.21-.2-.24-.92.27-.8-.66-.11-.1-1.42-.94-1.34-.14-1.11,1.6-1.7,2.01-.67-.03.24.13.67-.27.54-.04.35.52.11.4.54ZM179.77,73.95v-.4c.28-.06.35.09.54.13-.03.24-.23.31-.54.27ZM179.9,70.06h.67c0,.31-.81.73-.67,0ZM184.17,95.87c.59.08,1.06.29.94,1.07-.62-.05-.99-.35-.94-1.07Z"/>
    <path class="cls-1" d="M177.22,64.29c.03-.1.11-.16.27-.14v-.27c-.13,0-.16-.11-.27-.13-.04.08-.33.52,0,.54Z"/>
    <path class="cls-1" d="M243.74,89.11l-4.12-.9c-2.15-.54-2.87-2.15-2.87-6.46v-2.33l.18-1.79.36-4.66.36-8.43.18-7.18v-1.43l-.18-3.77-.19-2.99c-.16-.12-.2-.36-.25-.59.07-.06.14-.09.21-.11l-.12-1.87v-1.44l.18-1.79v-.18c0-2.87-1.61-6.1-3.76-7.53l-2.51-1.61-1.97-1.26-1.97-.72c-.36-.18-1.08-.36-2.69-.54-1.26-.36-2.51-.54-3.77-.72-.72-.18-1.79-.18-2.51-.18h-1.97c-3.05,0-5.38.54-7.89,1.79l-2.51,1.26-.72.36-1.26,1.07-.54.18-.36.36c-.36.18-1.08.9-1.79,1.43q-.18.18-.36.36l-.9,1.79-1.08,1.44-.36.72v1.97l-.09.64s.05.04.07.06c-.01.14-.06.24-.12.33l-.03.22c1.07.9,2.87,1.62,4.3,1.62h.9l1.25-.18h2.33l1.61-.36,2.15-.18c.54,0,1.25-.54,2.15-1.08.72-.54,1.43-1.26,1.79-1.62l.72-1.08c.36-.36.9-.9,1.43-1.61.36-.36.54-.54.72-.72l1.97-.36h.36c2.69,0,3.95,2.51,3.95,8.61,0,2.51-.18,4.12-.72,5.56l-.54,1.44-.54,1.97-.54.72-1.08,1.08-1.61,1.79c-.72.72-2.33,1.97-3.59,2.69l-4.3,2.33-8.25,3.23-4.48,3.23c-4.66,3.41-5.92,6.28-5.92,13.81,0,10.4,4.12,15.24,13.09,15.24h4.48c2.69,0,4.3-.18,5.02-.72l3.77-2.33,2.15-.54,1.97.72,2.15,2.15c1.08,1.07,2.87,1.44,6.99,1.44s5.92-.36,7.89-1.44l.9-.54c2.33-1.44,3.77-3.41,3.95-5.38l.18-2.51v-.36c0-.54-.18-1.07-1.08-1.97l-.18-.18ZM195.84,77.22c.06-.2.12.01.27,0-.03.17-.27.13-.27,0ZM197.61,82.53c-.54.15-.66-.41-.4-.67h.4v.67ZM200.84,91.8c.35-.04.58.05.54.4-.25.27-.65.08-.54-.4ZM205.37,83.26c-.07-.07.1-.17.13-.13.07.07-.1.17-.13.13ZM205.8,79.72c-.11-.46.15-.57.27-.81.18.05.21.24.4.27-.02.38-.23.57-.67.54ZM207.68,87.77h-.27v-.27h.27v.27ZM211.28,97.35c-.12-.37-.32-.66-.4-1.07.66-.6,1.22-.22,2.01,0,.04.93-.81.98-1.61,1.07ZM213.58,97.57c-.47-.06-.57-.28-.4-.67h.54c.04.31-.02.51-.13.67ZM214.9,98.96c-.23,0-.42-.03-.54-.13.03-.23.23-.31.54-.27v.4ZM215.19,98.37c.32-.09.85-.31.81.27-.2.21-.92.24-.81-.27ZM222.57,97.16c-.07-.07.1-.17.13-.13.07.07-.1.17-.13.13ZM222.94,78.35c-.36,1.26-.36,1.97-.36,2.69v1.44l.18,1.61-.18,1.08-.9,1.8-.72,1.61c-1.44,1.08-3.05,1.61-4.84,1.61-5.2,0-7.53-2.51-7.53-7.89,0-2.87.72-5.74,1.79-7.35l1.07-1.61.72-1.08.36-.36.9-.9c.22-.15.44-.33.67-.52-.22-.16-.19-.58-.02-.76.31.03.43.19.45.4.21-.18.43-.36.68-.55,1.43-1.26,2.33-1.79,2.69-2.15.9-.54,2.15-.9,3.05-.9h.36l1.08.18v2.15l-.54,4.66v.18l.36,1.44v.72c.18.36.18.54.36,1.08l.54.18-.18.72v.54ZM223.25,91.8h-.27v-.27h.27v.27ZM225.8,75.15c-.07-.07.1-.17.13-.13.07.07-.1.17-.13.13ZM228.21,84.95c-.4.18-.83.17-1.07-.13-.16-1.11,1.35-.98,1.07.13ZM231.03,86.83v-.4c.22-.2.99-.2,1.21,0-.04.58-.84.53-1.21.4ZM232.1,74.35c-.18-.4-.14-.68.13-.94.39-.03.46.25.67.4-.02.43-.31.59-.81.54ZM233.31,46.97h-.27v-.4c.22-.04.23.13.4.13-.03.11-.13.13-.13.27ZM235.73,40.67c0-.13-.16-.1-.27-.13-.25-.93.75-.95.94-.4-.03.38-.23.57-.67.54Z"/>
    <path class="cls-1" d="M281.16,97.18c-.19.21-.8.21-.61-.29.27-.04.45.02.6.1l-.09-1.79-.72-1.08-1.25-1.97-.54-.72-1.26-1.08-.9-.72c-1.26-.9-1.43-1.97-1.61-6.28l-.18-6.64v-2.19c-.42-.34-1.37-.16-1.16-1.13.48-.08.86-.05,1.16.04v-7.3l.18-2.15v-1.19c-.67-.12-.94-.12-1.61,0-.32-.39-.52-.91-.54-1.61.34-.3.95-.05,1.21.13.49.03.62-.14.94-.04v-.38c-.14-.17-.35-.26-.53-.38-.12-.47.44-.23.54-.13,0-.26.04-.7.18-1.24v-1.44l-.18-.36v-.54s0-.04,0-.05c-.06.45-.87.31-.67-.27h.54c-.02.16.03.24.13.27,0-.72.18-1.77.36-3.18v-.36c0-.06,0-.13,0-.22h-.62c-.06-.32.24-.29.13-.67h.36c-.02-.06-.03-.12-.05-.18v-2.15c0-4.31,1.61-6.82,4.48-7.71l.18.36c.27,1.09.61,2.05,1,2.86.1-.01.18-.05.2-.15.39.12.15.2.13.54-.03,0-.08,0-.11,0,1.16,2.13,2.84,3.21,5.23,3.21h2.87c3.76,0,5.92-3.77,5.92-10.22,0-2.51-.18-2.87-1.08-4.3-.54-.18-.72-.36-.9-.54l-.54-.36q-.36-.18-.72-.36l-.18-.18c-1.97-1.61-4.13-2.51-6.1-2.51h-.18l-3.94.9-2.51.72-1.26.9-1.61,1.08-1.08.72-.72.18c-.36-3.23-.72-3.95-2.15-3.95h-.36l-.72.18c-1.44.36-2.51.72-2.87,1.08l-3.95,3.05-2.51,1.44-1.07.36-1.29.7c.29-.07.64-.24.88.01-.16.33-.14.84-.81.67-.11-.15-.17-.35-.13-.66l-.98.53-5.38,2.69c-1.61.72-2.33,1.79-2.33,3.05,0,.72.72,1.61,1.79,2.15l3.94,1.79c1.26,1.08,2.15,2.15,2.33,2.87l.36,1.26.36.72.72,2.51.18,1.44v4.31l-.18,1.97-.18,2.87-.36,3.41v1.08l.72,3.94v2.33l-.18,3.95-.18,2.15v.9l-.72,4.84-.54,1.25-.36.54-.18.36-2.69,2.15-.72.54-1.61,1.79-.9.9c-.36.72-.72,1.61-.72,2.15v.18l.18,1.25c.54.9,1.25,1.25,2.69,1.25,2.72,0,4.97-.33,8.85-1.58.04-.22.17-.45.23-.63.42-.07.55.17.67.4,0,0,0,.01,0,.02h2.8l2.51-.18h6.81l2.88-.32s.02-.03.02-.06c.03,0,.05.03.07.05l.25-.03.4-.04c-.02-.08-.03-.16-.05-.25.31,0,.53.08.73.19l.9-.08-.08-1.43ZM290.61,36.37h.67c.21.71-.89.71-.67,0ZM287.26,43.49c-.17-.06-.28-.17-.27-.4.16.06.28.17.27.4ZM285.91,38.25h.54c.14.4-.3.24-.54.27v-.27ZM285.65,48.45c-.12.24-.47.35-.67.13.01-.34.5-.32.67-.13ZM283.9,47.91c.4-.14.24.3.27.54-.23-.12-.52-.3-.27-.54ZM276.66,43.35c.07.07-.1.17-.13.13-.07-.07.1-.17.13-.13ZM274.51,42.81c-.03.15-.13.07-.13,0,.03-.15.13-.07.13,0ZM274.11,45.63h.54c.13.4-.3.24-.54.27v-.27ZM255.86,47.51c-.06-.42.12-.6.54-.54.06.42-.12.6-.54.54ZM258.54,98.1c-.35.21-1.61.55-1.88,0-.09-.45.22-.49.54-.54.06-.32-.24-.29-.13-.67.98-1,1.91.4,2.28,1.21-.09.1-.75.3-.8,0ZM260.02,99.85c-.12-.03-.13.05-.14.13h-.27c.02-.12-.05-.13-.13-.13v-.27c.11.02.13-.05.13-.13h.27c-.02.12.05.13.14.13v.27ZM262.97,54.09c-.49.45-.64-.25-.94-.4.1-.18,1.04-.07.94.4ZM262.7,74.08h.27c.06.28-.19.25-.4.27.03-.11.13-.13.13-.27ZM262.43,61.2c-.17-.18-.17-.49,0-.67.63,0,.63.67,0,.67ZM262.16,44.56c-.31.04-.52-.02-.67-.13.01-.4.8-.36.67.13ZM259.61,51c.26-.25.99-.2.81.4-.26.24-.83.04-.81-.4ZM260.28,62.54c.26-.39,1.03-.28.94.4-.33.29-.99.1-.94-.4ZM261.36,58.78c.46-.06.76.04.67.54h-.67v-.54ZM262.83,87.37c-.42.06-.52-.19-.81-.27-.03-.84.5-1.11,1.21-1.21-.14.49-.28.97-.4,1.48ZM273.97,57.71c.43-.47.72.28,0,0h0ZM273.97,58.51c-.02.34-.2.52-.54.54-.25-.2-.41-.48-.4-.94.51-.06.84.06.94.4ZM273.3,56.37v-.27h.27v.27h-.27ZM273.84,43.62c-.46.14-1.43-.24-1.34-1.07.88-.08,1.35.26,1.34,1.07ZM273.7,51.4c-.41.09-.26.09-.67,0,.04-.31.47-.25.4-.67.45-.14.21.42.27.67ZM273.43,49.12c-.2.21-.76.2-.67-.27.2-.21.77-.2.67.27ZM273.7,49.66c0,.36.05.77-.13.94-.38-.02-.24-.56-.27-.94h.4ZM272.49,51.67c.57-.03.95.12,1.34.27.02.33.02.65-.13.81-.25-.02-.45-.09-.54-.27-.38.02-.17.64-.67.54-.12-.33-.31-.58-.27-1.07.12-.06.24-.12.27-.27ZM272.23,56.91c.03-.24.23-.31.54-.27.14.4-.3.24-.54.27ZM271.83,50.6c.35-.04.58.05.54.4-.35.04-.67.04-.54-.4ZM271.42,50.33c-.31.43-.54-.47,0,0h0ZM271.02,52.48h.67c-.02.34.3.33.4.54-.26.6-1.2.09-1.07-.54ZM271.69,58.25c-.42-.03-.99.09-1.21-.13-.15-1.09,1.51-1.03,1.21.13ZM269.54,51.94c-.11-.84,1.35-.87,1.21,0-.5-.08-.85.34-1.21,0ZM270.08,51.14c-.04-.31.02-.52.13-.67.6-.1.5.9-.13.67ZM270.35,48.58c-.1.12-.14.3-.13.54-.59.08-.46-.72.13-.54ZM270.08,43.49c.04.76-.56.87-.54,1.61-.61-.02-.4-.85-.54-1.34.33-.12.58-.31,1.07-.27ZM268.74,76.77c-.28-.27,0-.57.27-.67-.04-.32-.47-.25-.4-.67.59-.14.44.45.94.4-.17.42-.3.87-.81.94ZM269.41,81.86v.27c-.37-.01-.27.22-.54,0v-.27c.27-.22.17.01.54,0ZM269.14,58.11v.54c-.44.03-.53-.63,0-.54ZM269.14,57.31h-.67c-.14-.66.81-.66.67,0ZM268.47,72.6c.49.2.66.8.27,1.21-.52.12-.48-.33-.8-.4-.02-.47.45-.44.54-.81ZM268.47,80.93c-.02.34-.2.52-.54.54-.09-.45.22-.49.54-.54ZM267.4,72.07c.06.42-.12.6-.54.54v-.54h.54ZM266.99,70.32c.5.41-.41.45,0,0h0ZM267.13,63.88c-.43-.02-.59-.3-.54-.8.4-.39,1.07-.29.94.54-.18.05-.21.24-.4.27ZM265.65,71.26c-.84.08-1.04-.48-1.61-.67-.02-.33-.02-.65.13-.8.74-.16.47.7,1.07.67.44-.19.64-.62.94-.94.41.04.55.76.27,1.07-.32.24-1.03-.32-.8.67ZM266.73,58.92c.18.36.8.27.8.81-.62-.1-1.07.44-1.48.13-.24-.59,1.03-.83.27-1.07-.1-.41.37-.26.27-.67.57-.1.47.73.13.8ZM266.86,44.69c-.03.5-.55.52-.94.67v-.81c.36,0,.77-.05.94.14ZM265.52,44.16c.27-.04.42.03.4.27h-.4v-.27ZM266.05,53.01c-.59-.06-.67.18-1.07,0-.31-.89,1.41-.96,1.07,0ZM264.17,53.15c.51-.06.86.04,1.07.27-.26.41-.35.99-1.07.94-.2-.22-.2-.99,0-1.21ZM264.44,72.6c-.16-.02-.24.03-.27.13-.34-.01-.31-.5-.13-.67.19.12.52.11.4.54ZM265.52,82c.03-.11.13-.13.13-.27.16.06.28.17.27.4-.22.04-.23-.13-.4-.14ZM265.92,74.35h-.67c-.25-.29-.36-.71-.4-1.21.24.02.28-.16.54-.13.14-.5-.33-.38-.27-.8.44-.24.91-1.08,1.48-.4.09.8-.12,1.31-.13,2.01-.42.07-.47-.24-.94-.13-.14.5.5.21.4.67ZM266.32,78.65c.07.07-.1.17-.13.13-.07-.07.1-.17.13-.13ZM266.19,82.8c-.04-.35.19-.44.54-.4.04.36-.19.44-.54.4ZM266.59,76.9c-.2-.39-.38-.79,0-1.07.41.26.7.64,1.07.94-.09.49-.54-.03-1.07.13ZM267.13,75.02c.46-.06.76.04.67.54-.33.32-.84.05-.67-.54ZM267.67,73.41c-.07-.07.1-.17.13-.13.07.07-.1.17-.13.13ZM267.93,94.48v-.4c.39-.2.39.6,0,.4ZM269.14,94.61c.09-.81-.79-.65-.94-1.21.37-.2.8.19,1.07-.27.6.21,1.06,1.56-.13,1.48ZM270.48,85.35c-.45-.22-1.03-.31-1.48-.54.04-.72.63-1.46,1.34-1.07.1.37-.27.27-.27.54.14.34.63.78.4,1.07ZM269.81,80.25c0-.13.16-.1.27-.13,0,.13-.16.1-.27.13ZM272.23,96.49c-.24.17-.97-.02-1.21-.27.18-.35.49-.58,1.07-.54.15.16.15.48.13.81ZM271.83,73.95c-.35.04-.58-.05-.54-.4.35-.04.67-.04.54.4ZM271.69,85.22c-.07-.07.1-.17.13-.13.07.07-.1.17-.13.13ZM270.75,60.39c-.55-.39-.47-1.41-1.21-1.61v-.4c.11-.07.22-.14.4-.13.36-.09.26.28.4.4.4.05.68.22.94.4.19-.03.05-.4.27-.4.61.06.64.7.8,1.21.9.2.77-.93,1.48-.54.16.76-.47.79-.94,1.07-.12.07-.13.35-.4.27-.16-.8-1.02-.1-1.74-.27ZM272.9,65.49c.03-.17.27-.14.27,0-.06.19-.12-.01-.27,0ZM274.24,90.99c.07.07-.1.17-.13.13-.07-.07.1-.17.13-.13ZM274.11,91.93c.19-.21.69-.12,1.07-.13.15.73-.42.74-.94.81-.11-.16-.18-.36-.13-.67ZM274.78,94.35c-.05-.18-.24-.21-.27-.4-.03-.43.48-.33.67-.54,0-.27-.36-.17-.27-.54.68-.48.94.44,1.48.54-.25.6-.97.73-1.61.94ZM276.52,92.6h-.67c-.18-.17-.18-.63,0-.81.5-.06.79.11.81.54-.13,0-.1.16-.13.27ZM277.06,94.35c.07.07-.1.17-.13.13-.07-.07.1-.17.13-.13ZM276.92,95.96v-.4c.28-.06.36.09.54.13-.03.24-.23.31-.54.27ZM278.13,94.61c-.2-1.13,1.11-.82,1.21-.13-.32.24-.78.35-1.21.13Z"/>
    <path class="cls-1" d="M274.77,62.75v-.22c-.01.06-.01.13,0,.22Z"/>
    <path class="cls-1" d="M308.33,96.49v.4h.4c.02-.29-.11-.43-.4-.4Z"/>
    <path class="cls-1" d="M348.35,89.11l-4.13-.9c-2.02-.51-2.77-1.96-2.86-5.68,0,0-.02,0-.03,0-.67-.05-.77-.66-1.34-.8.37-.79-.23-.89-.4-1.48-.72.04-1.27-.07-1.34-.67.2-.16.89-.53,1.07-.27.64-.38,1.34-.7,2.14-.93l.08-.76.36-4.66.36-8.43.18-7.18v-1.43l-.18-3.77-.36-5.56v-1.43l.18-1.79v-.18c0-2.87-1.61-6.1-3.77-7.53l-2.51-1.61-1.97-1.25-1.97-.72c-.36-.18-1.08-.36-2.69-.54-1.26-.36-2.51-.54-3.77-.72-.71-.18-1.79-.18-2.51-.18h-1.97c-3.05,0-5.38.54-7.89,1.79l-2.51,1.26-.72.36-1.26,1.08-.54.18-.36.36c-.36.18-1.08.9-1.79,1.43q-.18.18-.36.36l-.9,1.79-1.08,1.44-.36.72v1.97l-.18,1.26c1.07.9,2.87,1.62,4.3,1.62h.9l1.26-.18h2.33l.98-.22c-.14-.19-.12-.47,0-.75.31-.04.52.02.67.14,0,.24-.09.38-.2.51l.15-.03.41-.03c.05-.39.53-.96.98-.57,0,.23-.06.39-.17.5l.93-.08c.54,0,1.26-.54,2.15-1.08.71-.54,1.43-1.26,1.79-1.62l.72-1.08c.35-.36.9-.9,1.43-1.61.36-.36.54-.54.72-.72l1.97-.36h.36c1.99,0,3.19,1.38,3.68,4.55.51-.03,1.01-.05,1.03.41.31-.23.57-.51.94-.67.28.08.29.21.14.4.14.35.55.44,1.07.4.11.16.18.36.13.67.1.3.47.34.67.54-.09.72.76.5.67,1.21.02.29-.11.43-.4.4-.12.43.44.18.4.54-.31.77-1.01,1.13-1.21,2.01-.69-.11-.64.52-1.07.67-.46.11-.57-.15-.8-.27-.3.27-.91.45-1.41.36-.1,1.15-.3,2.09-.62,2.95l-.54,1.44-.54,1.97-.54.72-.49.49c.45.08.56.49,1.05.53.07.56-.39.59-.27,1.21-.58.21-1.34,1.1-2.01.4.2-.54.42-1.06.66-1.56h0s-1.61,1.8-1.61,1.8c-.72.72-2.33,1.97-3.59,2.69l-4.31,2.33-8.25,3.23-4.48,3.23c-1.01.74-1.85,1.45-2.56,2.19.02.29-.04.58-.28.59-.04-.02-.11-.05-.17-.1-2.22,2.57-2.91,5.58-2.91,11.13,0,10.4,4.12,15.25,13.09,15.25h.89c-.13-.09-.21-.29-.16-.65.39-.12.41-.12.8,0,.02.32-.11.55-.27.65h3.23c2.59,0,4.18-.17,4.93-.66-.04,0-.08,0-.13.01v-.4c.2-.21.36-.03.48.18l.26-.16c.03-.08.06-.18.06-.28h.39l2.79-1.73,2.15-.54,1.97.72,2.15,2.15c1.07,1.07,2.87,1.44,6.99,1.44s5.92-.36,7.89-1.44l.9-.54c2.33-1.44,3.77-3.41,3.95-5.38l.18-2.51v-.36c0-.54-.18-1.07-1.07-1.97l-.18-.18ZM339.73,49.79c.07.07-.1.17-.13.14-.07-.07.1-.17.13-.14ZM339.05,63.75c-.38.14-.57.15-.54-.4.35-.04.58.05.54.4ZM307.65,37.18h-.27v-.27h.27v.27ZM309.94,42.41c-.5-.13-.94-.31-.94-.94.29-.11.46-.35.94-.27.2.21.18.63.4.81.04.31-.39.15-.4.4ZM315.97,37.45c.04.35-.05.58-.4.54.02-.24-.16-.28-.13-.54h.54ZM313.42,43.89c-1.21.13-.62-1.52-1.88-1.34-.05-.55.14-.85.67-.8.3.65.56,1.32,1.21,1.61-.22.85.66.6.67,1.21-.35.36-1.12-.23-.67-.67ZM314.5,43.75c-.39-.16-1-.61-.67-1.07.38.17.9.71.67,1.07ZM313.69,39.19c.29-.02.43.11.4.4h1.07c-.07,1.14-1.48.18-1.48-.4ZM316.24,40.53c-.39.32-.97-.02-.94-.54.37-.31,1.07-.07.94.54ZM319.2,42.68c.02-.11.13-.13.13-.27h.27c.06.29-.19.26-.4.27ZM320.27,34.36v-.27c.29-.06.26.19.27.4-.11-.02-.13-.13-.27-.13ZM319.73,32.21c-.1-.52.82-.78.94-.27-.07.48-.61.38-.94.27ZM321.88,35.43c-.35.04-.58-.05-.54-.4.12-.1.3-.14.54-.13v.54ZM322.01,33.69c.66.03.89-.92,1.61-.4.21.93-1.51,1.37-1.61.4ZM309,75.42h.54c.11.52-.64.52-.54,0ZM308.86,74.62c.04.31-.39.15-.4.4-.18-.04-.11-.34-.13-.54.28-.06.36.09.54.13ZM308.46,75.83c.07.07-.1.17-.13.13-.07-.07.1-.17.13-.13ZM307.25,69.92h.4c.28.35.2,1.19-.54.94-.08-.44.09-.62.13-.94ZM307.12,75.83c-.48.04-.36-.53-.81-.54v-.4c.55-.47,1.26.41.81.94ZM306.85,71.67c.19.77-.27.89-.54,1.21-.14-.26,0-.67-.13-1.21h.67ZM305.91,75.83c.06.28-.09.35-.13.54-.34-.02-.52-.19-.54-.54.18-.17.5-.17.67,0ZM304.97,74.62c.04.32.21.5.13.94-.73.15-.74-.42-.8-.94h.67ZM303.76,75.42c.41.26,1.14.77.94,1.21-.66.03-.94-.32-1.21-.67-.1-.37.27-.27.27-.54ZM301.89,75.69c.38.02.92-.12.94.27,0,.8-1.49.31-.94-.27ZM302.02,82.13c-.29.2-.25-.25-.53-.4-.3-.16-.63,0-.81-.27-.15-.24-.18-.5,0-.8-.05-.44-.39-.59-.54-.94.03-.78.38-1.23.67-1.74h1.08c.34.2.43.64,1.07.54.12.42.25.82.67.94-.08.57.1.89.13,1.34-.47.06-.49.58-.67.94-.42.07-.75.23-1.07.4ZM303.23,87.5v-.4c.39-.2.39.6,0,.4ZM303.63,94.35c.05-.16.36-.11.4,0,.12.29-.49.31-.4,0ZM303.23,91.66c-.08-.67.39-1.33.94-.94.08.7-.35.9-.94.94ZM305.1,87.5c-.49-.09-.65-.51-1.07-.67-.04-.99-.77-1.29-.67-2.41.13,0,.11-.16.13-.27.46-.33.9-.68,1.61-.4.07.2.2.34.27.54.71.05,1,.52,1.34.94.02.33-.21.42-.27.67.19.4.68,1.03.27,1.61-.86.15-1.1-.5-1.61,0ZM307.12,97.16c-.06-.28.09-.35.13-.54-.5-.14-.38.33-.8.27.15-.39.17-.91.67-.94.1.12.15.3.13.54.45-.04.39-.59.81-.67-.08-.43.04-.67.27-.8.74.29,1.55.5,1.34,1.74-.54.31-1.2.5-1.74.81-.41,0-.52-.28-.81-.4ZM310.07,98.37h-.67c-.09-.49.09-.71.27-.94.53.03.58.55.4.94ZM308.59,85.62c-.42-.78.38-1.13.67-1.61.63.13,1.13.39,1.34.94-.11.78-1.15.64-2.01.67ZM324.7,65.36h.27v.27h-.27v-.27ZM323.76,61.06h.4c.03.39.02.73-.4.67v-.67ZM324.16,62.81c-.06.17-.17.28-.4.27.06-.16.17-.27.4-.27ZM317.85,67.1h.27v.27h-.27v-.27ZM314.1,76.23c-.53.13-.4-.4-.94-.27-.56,0-.66.46-1.21.13-.29-1.51,2.45-1.1,2.15.13ZM312.89,77.84c.04.23-.75.24-.54-.13.28-.06.35.09.54.13ZM311.41,76.9c-.04.17-.23.21-.27.4-.56-.09-.06-.83.27-.4ZM311.01,99.58v-.27c.27-.05.42.03.4.27h-.4ZM313.16,88.57c-.7-.32-1.51.11-1.75-.81.17-.18.64-.08.81-.27-.08-.32-.83.02-.94-.27-.08-.44.09-.63.13-.94.85.18,1.16.9,1.88,1.21-.04.22.13.23.13.4.02.33-.21.42-.27.67ZM315.97,90.99h-.4c-.29-.28-.03-.6.13-.8.32.07.56.52.27.8ZM316.11,89.65c.33-.09.69-.27.67.27-.44-.02-.64.31-.67-.27ZM317.18,94.61c.38-.03.73-.02.67.4-.26.26-.82.14-.67-.4ZM318.66,95.96c.26-.24.83-.04.8.4-.26.24-.82.04-.8-.4ZM327.55,77.81v.54c-.36,1.26-.36,1.97-.36,2.69v1.44l.18,1.61-.18,1.08-.9,1.8-.71,1.61c-1.44,1.08-3.05,1.61-4.84,1.61-5.2,0-7.53-2.51-7.53-7.89,0-2.87.72-5.74,1.79-7.35l1.08-1.61.72-1.08.36-.36.9-.9c.54-.36,1.08-.9,1.79-1.43,1.44-1.26,2.33-1.79,2.69-2.15.9-.54,2.15-.9,3.05-.9h.36l1.08.18v1.27c.03.12.09.22.24.22-.03.08-.12.12-.24.14v.52l-.54,4.66v.18l.36,1.44v.72c.18.36.18.54.36,1.08l.54.18-.18.72ZM329.13,61.6c.21,0,.51-.06.54.13.15.47-.82.36-.54-.13ZM329.66,60.53c-.38-.11-.77-.22-.67-.8h.8c.02.33.02.65-.13.8ZM336.64,43.22c.54-.13.54.8,0,.67v-.67ZM336.78,70.46c-.03.23-.23.31-.54.27-.06-.42.34-.48.54-.27ZM327.65,38.79c.03-.15.13-.07.13,0-.03.15-.13.08-.13,0ZM328.72,40.4h-.27v-.27h.27v.27ZM328.99,38.92c-1.14-.01-2-1.15-1.48-2.01-.1-.43-.75-.32-1.07-.54-.05-.55.14-.85.67-.8.01-.5.15-.38,0-.8.47.07.69-.11.8-.4.7,0,.94.76,1.61.4-.13,1.02.77,1.02,1.34,1.34.25.65-.26.75-.13,1.61-.56.43-1.26.71-1.74,1.21ZM331.81,41.61c-.59-.06-.67.18-1.07,0,.06-.77-.47-.96-.8-1.34.19-.56.86-.66,1.21-1.07h.27c.62,0,.87.38,1.34.54v.4c.25.25.71.35,1.07.54.28.15.82.24.81.67-.55.12-1.09.26-1.21.81-.59-.13-1.38-.06-1.61-.54ZM333.29,63.08c.41-.09.26-.09.67,0,.1.37-.27.27-.27.54-.2-.12-.42-.2-.4-.54ZM332.75,67.91c.07-.11.14-.22.14-.4.31-.04.52.02.67.13.12.51-.6.47-.81.27ZM334.09,67.51c-.03.15-.13.07-.13,0,.03-.15.13-.07.13,0ZM331.41,74.35c.15.3.35.55.27,1.07-.3.1-.52.28-.94.27.1.47-.35.6-.54.4-.04-.35.28-.35.54-.4-.13-.41-.27-.8-.4-1.21.2-.21.69-.12,1.07-.13ZM331.27,63.75c-.22.23-.73.57-1.07.27-.15-.83.81-.5,1.07-.27ZM330.74,85.09c-.34-.01-.69-.02-.67-.4.26-.26.82-.14.67.4ZM331.14,85.62c0-.13.16-.1.27-.13,0,.13-.16.1-.27.13ZM331.68,84.82c-.54,0-.37-.7-.4-1.21-.06-.39-.47-.42-.4-.94.42.03.99-.09,1.21.13.11.69-.11,1.05-.4,1.34-.08.24.39.56,0,.67ZM332.08,59.32c-.79-.64.39-1.56.94-.8.12.43-.44.18-.4.54-.27,0-.17.37-.54.27ZM332.61,71.93c-.09-.5.47-.34.67-.54.16-.55.42-1.02,1.21-.94.16-.06.27-.17.27-.4h.4c-.03.39.03.68.27.8-.17.55-.64.79-1.07,1.07.27.31.27.36,0,.67-.52.12-.48-.33-.81-.4-.42.02-.81,0-.94-.27ZM333.69,74.75c.22-.63.9-.8,1.34-1.21.66-.08.71.45,1.48.27.42.65.8.9.67,1.61-.2,1.07-1.47.99-2.82.94-.17-.59-.61-.91-.67-1.61ZM335.3,95.82c-.07-.07.1-.17.14-.13.07.07-.1.17-.14.13ZM336.24,77.3c.02-.16-.03-.24-.13-.27.07-.43,1.31-.64,1.48-.13.07.65-.84.32-1.34.4ZM339.59,85.35c-.5-.09-.58.23-1.07.14-.12-.24-.43-.39-.13-.67-.13-.45-.8-.37-.94-.8.08-.5.38-.79.54-1.21.38-.11.35.19.67.13.19-.08.33-.21.4-.4h.4c.06.48.64.43.94.67-.12.87-.92,1.04-.8,2.15ZM341.2,86.43h.27v.27h-.27v-.27ZM341.47,97.03c-.39-.03-.33-.64.13-.54.06.28-.09.36-.13.54ZM342.01,98.77v-.67c.16.02.24-.03.27-.14.38.02.57.23.54.67-.16.15-.47.15-.8.13ZM345.6,93.27c0-.13.16-.1.27-.13,0,.13-.16.1-.27.13ZM346.95,91.53c.25.02.45.09.54.27-.02.71-1.05.22-.54-.27ZM348.05,93.14c-.2.21-.92.24-.8-.27.2-.21.92-.24.8.27Z"/>
    <path class="cls-1" d="M417.67,34.04c0-1.25-.9-1.97-2.15-1.97h-2.15l-2.69-.36h-1.79l-3.41.72h-3.59l-5.02-.36h-.36c-1.97,0-3.76,1.08-3.76,2.15v.18l.36,1.97.9,1.43.36,1.62.54,1.61,1.43,2.15.18.72q0,.72.18,1.26v1.79c.18.18.18.36.18.54v2.69l-.9,1.97-.54,3.77-.72,2.33-.54,1.62q-.36,1.25-.72,1.97c0,.36-.36.72-.9,1.26-.36.54-.72.9-1.08,1.25l-1.62,1.44q-.18.36-.18.72l-.18.54-.18.9-.18,1.44-.9,2.87-.36,1.61-.36,1.26-.54,1.26-.72.18-1.25-.9v-1.08c0-.72,0-1.25-.18-2.15q-.18-.36-.18-.54l-1.44-3.95-.18-3.77-.18-1.26-1.44-2.87-1.08-2.51-1.61-2.15-.71-1.61-1.08-3.05-1.61-4.31-.36-1.79-.1-.59c-.06.58.18.66,0,1.06-.62.29-1.37-.04-1.21-.94.43-.02.89-.41,1.21-.14l-.08-.47v-1.08q-.18-.36-.18-.72v-.18c.36-1.43.9-2.87,1.43-3.41l1.25-1.44.36-1.08v-3.59c-.72-.18-1.08-.18-1.43-.18-.72-.18-1.26-.36-1.62-.36h-1.26l-.9.18-4.66.9-3.41.18-5.38-.72-3.05-.18-4.12-.18c-1.97,0-3.41,1.08-3.41,2.69v.18c0,.36.18,1.26.54,2.15.18.54.18.72.36,1.08l1.44.9,2.69,1.97,2.87,1.97.36.36.36.72c.18,0,.36.18.36.54q.18.36.36.54l.18.36.18.54.18.72.36.72.54,1.43.72,1.97,1.44,3.23,1.61,3.59,1.25,2.15.36,1.08.72,1.44c0,.18.18.36.18.9.18.18.18.36.18.54.18.54.36.9.36,1.08l.54,4.48.9,2.33,1.08,3.59,1.25,2.33.9,1.08.9,1.43.36.9.36.72c0,.18.18.36.18.54l.36,3.23.54,1.61.18,2.33.18,1.25,1.25,3.05,1.44,4.84.36.54v.36l-.9,1.61v1.26l-.18,3.23-.72,2.69-1.43,3.95-.72,4.49-.9,1.79-.72,1.62-.72,1.07-2.69,3.59-1.61,3.41-2.33,2.87-1.97,3.23-.9.72-1.61.9-.72.72-2.33,2.51-2.15,1.79-.18.54-.36.9c0,.18,0,.54-.18,1.25,0,.54-.18.9-.18,1.44v.36c0,1.97.9,2.87,2.51,2.87h.36l2.33-.54,1.79-1.08,2.15-.9.72-.72,3.05-3.05,1.26-1.61,2.87-1.8,1.25-2.33.54-1.98.72-1.97,1.08-2.69,1.08-2.51.72-1.44,1.97-5.56.54-.72.72-.9.54-.72.9-3.59.72-2.15.36-1.08,1.08-1.97.51-.76h-.08v-.4h.35l.66-.99,1.43-3.41.9-1.97.54-1.25.36-3.05.72-2.51.36-1.26.36-.72.36-.36,1.08-1.61,2.15-5.2,1.08-1.61.18-1.26.36-1.07,1.26-2.33.9-2.33,1.44-2.33.71-2.51.72-1.97.36-3.23,1.25-3.77.9-4.13,3.59-6.46.54-1.62.54-2.51c.9-4.13,5.02-8.79,9.51-11.12,1.62-.72,2.15-1.61,2.15-2.87ZM357.17,39.46h-.27v-.27h.27v.27ZM357.71,37.31c-.35.04-.58-.05-.54-.4.12.03.13-.05.14-.13.35-.04.44.18.4.54ZM358.25,39.59h.67c.13.54-.8.54-.67,0ZM367.91,60.13c.03-.17.27-.13.27,0-.12.08-.24.16-.27,0ZM369.12,60.53c-.65.13-.25-.71,0-.27v.27ZM370.83,67.77c-.17-.18-.17-.5,0-.67.44-.03.6.74,0,.67ZM369.92,47.38v-1.07c.22-.4.75-.5.94-.94,1.79.26.57,3.21-.94,2.01ZM372.34,42.68c-.32.17-.81.17-1.07.4-.45,0-.46-.44-.94-.4.19-.72-.51-.56-.4-1.21.17-.19.66-.06.67-.4.64.21.96.74,1.74.8.15.42.01.3,0,.81ZM374.08,79.85c-.27.13-.64.44-.94.13-.14-.72.5-.67.4-1.34h.54v1.21ZM379.18,103.07c0-.13.16-.1.27-.13,0,.13-.16.11-.27.13ZM381.06,98.24c-.59.06-.85-.23-.94-.67.44-.34,1.11-.02.94.67ZM383.07,89.78c-.7.41-1.37-.2-1.34-.94.34.43,1.54-.02,1.34.94ZM385.76,94.61c-.43-.12-.42.21-.67.27.32.31.89.36.8,1.07-.16.15-.48.15-.8.14v-.54c-.41-.1-.26.37-.67.27-.47-.35-.13-1.22,0-1.74h1.21c.14-.1.62-.52.8-.13.02.47-.68.21-.67.67ZM389.38,84.55c-.31.04-.52-.02-.67-.13-.03-.65.84-.67.67.13ZM398.1,45.63c-.21-.19-.12-.69-.13-1.07.78-.11,1.21.13,1.07.94-.17.19-.58.13-.94.13Z"/>
    <path class="cls-1" d="M467.61,89.11l-4.13-.9c-1.65-.41-2.46-1.46-2.74-3.87-.1-.01-.2-.04-.27-.06v-.4s.13-.07.22-.1c-.05-.6-.07-1.27-.07-2.02v-2.33l.18-1.79.36-4.66.36-8.43.18-7.18v-1.43l-.18-3.77-.36-5.56v-1.43l.18-1.79v-.18c0-2.87-1.61-6.1-3.77-7.53l-2.51-1.61-1.97-1.25-1.97-.72c-.36-.18-1.08-.36-2.69-.54-1.25-.36-2.51-.54-3.77-.72-.72-.18-1.79-.18-2.51-.18h-1.97c-3.05,0-5.38.54-7.89,1.79l-2.51,1.26-.72.36-1.25,1.08-.54.18-.36.36c-.36.18-1.08.9-1.79,1.43q-.18.18-.36.36l-.9,1.79-1.08,1.44-.36.72v1.97l-.18,1.26c1.08.9,2.87,1.62,4.31,1.62h.9l1.25-.18h2.33l1.61-.36,2.15-.18c.54,0,1.25-.54,2.15-1.08.72-.54,1.44-1.26,1.79-1.62l.72-1.08c.36-.36.9-.9,1.44-1.61.36-.36.54-.54.72-.72l1.97-.36h.36c2.69,0,3.95,2.51,3.95,8.61,0,2.51-.18,4.12-.72,5.56l-.54,1.44-.54,1.97-.54.72-1.08,1.08-1.62,1.79c-.72.72-2.33,1.97-3.59,2.69l-4.3,2.33-8.25,3.23-4.48,3.23c-4.66,3.41-5.92,6.28-5.92,13.81,0,9.01,3.1,13.85,9.76,14.98.02-.04.04-.08.06-.12.52-.07.66.24,1.21.13.01.04.03.09.04.15.65.06,1.31.1,2.02.1h4.48c2.69,0,4.3-.18,5.02-.72l3.76-2.33,2.15-.54,1.97.72,1.85,1.85v-.17h.27v.27h-.17l.2.2c1.08,1.07,2.87,1.44,6.99,1.44s5.92-.36,7.89-1.44l.9-.54c2.33-1.44,3.76-3.41,3.94-5.38l.18-2.51v-.36c0-.54-.18-1.07-1.08-1.97l-.18-.18ZM429.91,40.53c-.48.04-.65-.25-1.07-.27,0-.4-.39-.68-.13-.94h.27c.67.16.66.17,1.21.4.06.42-.19.53-.27.8ZM425.07,73.14c.59.08,1.06.29.94,1.07-.62-.05-.99-.35-.94-1.07ZM427.06,79.98c-.54.15-.66-.41-.4-.67h.4v.67ZM446.41,60.39c.07.07-.1.17-.13.13-.07-.07.1-.17.13-.13ZM430.18,93.27c-.06-.28.09-.35.13-.54.22-.04.23.13.4.13.04.35-.18.44-.53.4ZM430.28,89.24c.35-.04.58.05.54.4-.25.26-.65.08-.54-.4ZM434.06,97.83h-.67c-.28-.3-.1-.89.13-1.07.72,0,.99.61.54,1.07ZM436.08,99.71c.22-.04.23.13.4.13.05.26-.61.2-.4-.13ZM443.03,95.01c-.47-.06-.57-.28-.4-.67h.54c.04.31-.02.51-.13.67ZM444.64,95.82c.32-.09.85-.31.81.27-.2.21-.92.24-.81-.27ZM446.55,90.86h-.4v-.27c.11.02.13-.05.13-.14h.27v.4ZM446.81,77.81v.54c-.36,1.26-.36,1.97-.36,2.69v1.44l.18,1.61-.18,1.08-.9,1.8-.72,1.61c-1.43,1.08-3.05,1.61-4.84,1.61-5.2,0-7.54-2.51-7.54-7.89,0-2.87.72-5.74,1.79-7.35l1.08-1.61.72-1.08.36-.36.9-.9c.54-.36,1.08-.9,1.79-1.43,1.43-1.26,2.33-1.79,2.69-2.15.9-.54,2.15-.9,3.05-.9h.36l1.08.18v2.15l-.54,4.66v.18l.36,1.44v.72c.18.36.18.54.36,1.08l.54.18-.18.72ZM447.46,39.86c-.18-.22-.36-.45-.27-.94.24-.2,1.1-.2,1.34,0-.02.65-.46.88-1.07.94ZM450.95,97.83c.41,0,.88-.08.8.4-.26.25-.99.2-.8-.4ZM452.02,94.61c-.07-.07.1-.17.13-.13.07.07-.1.17-.13.13ZM452.69,89.24h-.27v-.27h.27v.27ZM452.18,74.62c-.12-.37-.32-.66-.4-1.07.66-.6,1.22-.22,2.01,0,.04.93-.81.98-1.61,1.07ZM455,46.97c.5.04.54.45.4.8-.6.18-.65-.54-.4-.8ZM455.37,72.47c.07.07-.1.17-.13.13-.07-.07.1-.17.13-.13ZM455.8,76.23c-.23.01-.42-.03-.54-.13.03-.23.23-.3.54-.27v.4ZM457.65,82.4c-.39.18-.83.17-1.07-.13-.16-1.11,1.35-.99,1.07.13Z"/>
    <path class="cls-1" d="M537.77,94.34h.4c.02-.29-.11-.43-.4-.4v.4Z"/>
    <path class="cls-1" d="M539.51,95.82h-.67c-.09-.49.09-.71.27-.94.23.01.35.13.42.27l-.18-.66-.23-.46c0,.06,0,.11-.01.18-.54.31-1.2.5-1.75.81-.41,0-.52-.28-.8-.4-.06-.28.09-.36.13-.54-.5-.14-.38.33-.8.27.15-.39.17-.91.67-.94.1.12.14.3.13.54.45-.04.39-.59.81-.67-.08-.43.04-.67.27-.8.27.11.55.2.79.34l-.28-.65-.18-.18c-1.25-1.44-1.61-1.79-2.33-2.33l-.18-1.44v-.54l.14-2.72c-.53-.07-.77-.41-1.18,0-.49-.09-.65-.51-1.07-.67-.04-.99-.77-1.29-.67-2.42.13,0,.1-.16.13-.27.46-.33.9-.68,1.61-.4.07.2.2.34.27.54.23.02.4.09.56.17l-.15-.51v-1.43l.18-1.61v-4.31c0-.72,0-1.79-.18-2.51l-.72-4.84-.18-1.97v-5.56l.18-2.69.72-4.84.18-1.61v-.18c0-1.08-.36-2.15-1.08-3.05-.36-.72-.72-1.08-.72-1.25q-.18-.18-.18-.36c-.18-.18-.18-.36-.18-.54-.36-.72-.54-1.26-.72-1.26,0-.18-.18-.36-.18-.54l-.72-3.05c-.18-.54-.54-1.25-1.08-1.97-1.07-1.08-1.97-1.79-3.05-2.15l-3.05-1.08-2.15-.9c-1.26-.54-2.33-.9-3.23-.9l-3.59-.36-.9-.18c-.36,0-.9,0-1.43.18-.54,0-.9.18-1.08.18-.36,0-.54.18-.72.18l-6.64,4.13-1.43.36-1.8-1.61.9-2.69.36-.54.54-.54.36-1.26c0-1.97-1.43-2.69-5.2-2.69-2.15,0-2.69.18-5.38,1.97l-2.15,1.44c-2.33,1.44-4.66,2.51-6.81,2.87h-.05c.19.02.35.14.29.4-.25-.06-.81.18-.67-.27.03-.03.07-.05.11-.08l-2.55.48c-2.51.54-4.48,2.69-4.48,4.66v.36l.36,1.43,1.79.72,2.87,1.07c.54.18.9.72,1.08,1.08.18.18.18.36.18.54l-.18,1.08-.36,1.97-.36,1.25v.72c1.44,1.61,1.79,2.51,1.79,4.48v.72l-.18,2.33-.36,2.87-.18,2.87-.18,4.13-.18,3.05-.18,1.62.18,2.51-.36,5.2.08,1.22s.02,0,.03.02c.01.14,0,.25,0,.34l.08,1.12v.36c0,1.25-.18,2.51-1.08,5.02l-.36.18-.72,1.79c-.54,1.26-1.08,1.97-1.43,2.15l-2.51.9c-1.26.54-2.33,2.51-2.33,4.66,0,1.07.72,1.97,1.79,1.97l2.51.36,1.61.36,1.61.18,4.48.18h1.43l1.97-.18,8.07.18,1.37-.09v-.16c.12.03.13-.05.14-.13.21.06.27.14.22.27l.97-.06h2.33c1.61,0,2.87-1.8,2.87-3.95,0-.72-.18-1.08-.72-1.79-.18-.36-.36-.72-.54-.72l-2.15-1.26c-.72-.54-1.07-.72-2.15-1.79-.54-.72-.9-1.25-1.08-1.43l-.9-2.15v-.36c-.72-2.33-1.07-5.74-1.07-12.02v-.2c-.17.16-.55-.16-.99-.03-.2-.39-.38-.79,0-1.07.38.24.66.58.99.87v-1.02c-.3.08-.59-.18-.46-.65.19-.02.34,0,.46.04v-2.05l.36-1.07.9-5.02v-3.94l.18-4.31v-.02c-.31-.08-.34-.54.05-.52l.13-1.25v-1.44l.18-1.08v-.18l.54-1.07.41-1.12c-.29.07-.53.2-.78-.03-.08-.59.61-.77.99-.53l.1-.29c1.43-3.95,5.02-6.46,9.15-6.46,6.63,0,10.58,4.48,10.58,12.2v6.89c.3-.04.5.02.65.13.06.46-.4.4-.54.67-.06,0-.1-.02-.13-.04l-.04.21c.09.2.03.52-.1.64,0,0,0,0,0,0l-.02.11-.36,3.05v2.33l.36,3.23v2.86c.18,0,.35.04.43.23.14.57-.26.62-.39.93l.14,2.27v.72c0,1.26-.18,2.87-.54,5.02l-.36,2.15v1.26c0,1.61-.9,3.05-2.87,4.3-4.66,2.87-5.38,3.77-5.38,5.74,0,2.33,1.08,3.05,4.66,3.05h.84v-.07h.27v.07h2.02c-.04-.4.34-.76.93-.61,0,.24-.03.44-.09.61h.15l1.97-.36,3.23-.18,3.41-.36h1.44l3.76-.18h.18l2.69.36h.36c1.97,0,3.23-1.08,3.4-2.87l-.3-1.12c.02.16,0,.32-.07.47ZM476.84,93c.87-.1,1.2.33,1.61.67-.35.53-1.7.09-1.61-.67ZM481.54,88.57c.39-.04.46.25.67.4-.17.65-1.17,0-.67-.4ZM483.02,91.12c-.35.04-.44-.19-.4-.54-.04-.36-.56-.24-.67-.54-.04-.53.93-.48,1.21-.27-.15.61.03.94-.13,1.34ZM483.69,67.24c.28-.06.35.09.53.13-.03.24-.23.31-.53.27v-.4ZM483.56,90.85c-.03-.45.5-.69.8-.4-.11.29-.33.48-.8.4ZM502.61,97.03c-.55.07-.87.38-1.48.4-.06-.61,1.29-1.28,1.48-.4ZM501.54,93.14c.15.16.15.47.13.81-.24.17-.97-.02-1.21-.27.18-.35.49-.58,1.07-.54ZM498.72,90.59c.6.21,1.06,1.56-.13,1.48.09-.81-.78-.65-.94-1.21.37-.2.8.19,1.07-.27ZM497.38,91.53c.39-.2.39.6,0,.4v-.4ZM496.17,56.37c.18.36.81.27.81.81-.62-.1-1.07.44-1.48.13-.24-.59,1.03-.83.27-1.07-.1-.41.37-.26.27-.67.57-.1.47.73.13.81ZM495.1,68.71c-.84.08-1.04-.48-1.61-.67-.02-.33-.02-.65.13-.8.74-.16.47.69,1.07.67.44-.19.64-.62.94-.94.41.04.55.76.27,1.07-.33.24-1.03-.31-.81.67ZM496.3,42.14c-.03.5-.55.52-.94.67v-.8c.36,0,.77-.05.94.13ZM494.96,41.6c.27-.05.42.03.4.27h-.4v-.27ZM495.5,50.46c-.59-.06-.67.18-1.07,0-.31-.89,1.41-.96,1.07,0ZM493.62,50.6c.51-.06.86.04,1.07.27-.26.41-.36.99-1.07.94-.2-.22-.2-.99,0-1.21ZM492.41,51.53c-.49.45-.64-.25-.94-.4.1-.18,1.04-.07.94.4ZM492.14,71.53h.27c.06.29-.19.26-.4.27.03-.11.13-.13.13-.27ZM491.87,58.65c-.17-.18-.17-.5,0-.67.63,0,.63.67,0,.67ZM491.61,42.01c-.31.04-.51-.02-.67-.13.01-.4.8-.36.67.13ZM488.52,57.84c-.03.17-.27.14-.27,0,.06-.19.12.01.27,0ZM488.65,80.39c.02.56-.26.73-.67.54-.08-.5.36-.83.67-.54ZM487.85,63.21c.09.53-.51.38-.94.4-.21-.66.67-.64.94-.4ZM485.3,44.96c-.06-.42.12-.6.54-.54.06.42-.12.6-.54.54ZM485.84,66.97c.5-.01.38-.15.81,0,.06.42-.19.52-.27.8-.24.02-.28-.16-.54-.13v-.67ZM486.11,82c.31-.04.52.02.67.13.02.33.02.65-.13.8-.38.11-.35-.19-.67-.13-.02-.33-.02-.65.13-.8ZM487.98,95.55c-.35.21-1.61.55-1.88,0-.09-.45.22-.49.54-.54.05-.32-.25-.29-.14-.67.98-1,1.91.4,2.28,1.21-.1.1-.75.3-.8,0ZM488.65,36.1c-.11-.16-.18-.36-.13-.67.31-.06.69-.27.94,0-.16.33-.14.84-.81.67ZM489.46,97.29c-.11-.03-.13.05-.13.13h-.27c.02-.11-.05-.13-.13-.13v-.27c.12.02.13-.05.13-.13h.27c-.03.11.05.13.13.13v.27ZM489.06,48.45c.27-.25.99-.2.8.4-.26.24-.83.04-.8-.4ZM489.73,59.99c.26-.39,1.03-.28.94.4-.33.29-.99.1-.94-.4ZM490.8,56.23c.46-.06.77.04.67.54h-.67v-.54ZM491.47,84.55c-.03-.84.5-1.11,1.21-1.21-.13.49-.28.97-.4,1.48-.42.06-.52-.19-.8-.27ZM492.55,97.43c-.3-.31.03-.76.13-1.07.42-.06.55.17.67.4-.03.46-.4.59-.8.67ZM493.49,69.52c.19.12.52.11.4.54-.15-.02-.24.03-.27.14-.34-.01-.32-.5-.13-.67ZM493.89,99.31c-.51.12-.47-.6-.27-.8h.4c.18.17.23.8-.13.8ZM494.96,79.45c.03-.11.13-.13.13-.27.16.06.28.17.27.4-.22.04-.23-.13-.4-.13ZM496.71,97.56c.04.31-.02.52-.13.67-.4-.05-.68-.21-.94-.4.03-.42.67-.23,1.07-.27ZM495.77,76.09c.07.07-.1.17-.13.13-.07-.07.1-.17.13-.13ZM496.17,79.85c.04.35-.19.44-.54.4-.04-.35.19-.44.54-.4ZM495.9,71.26c-.42.07-.47-.24-.94-.13-.14.5.51.21.4.67h-.67c-.25-.29-.36-.71-.4-1.21.24.02.28-.16.54-.13.15-.5-.33-.38-.27-.8.44-.24.91-1.08,1.48-.4.09.8-.12,1.31-.13,2.01ZM496.3,70.05v-.54h.54c.06.42-.12.6-.54.54ZM496.44,67.77c.5.41-.41.45,0,0h0ZM496.97,61.06c-.18.05-.21.24-.4.27-.43-.02-.59-.3-.54-.8.4-.39,1.07-.29.94.54ZM498.58,54.76h-.67c-.14-.66.81-.66.67,0ZM498.99,42.54c-.61-.02-.4-.85-.54-1.34.33-.12.58-.31,1.07-.27.04.76-.56.87-.54,1.61ZM499.79,46.03c-.11.12-.15.3-.13.54-.59.08-.46-.72.13-.54ZM499.52,48.58c-.04-.31.02-.51.13-.67.6-.1.5.9-.13.67ZM501.94,39.99c.88-.08,1.35.26,1.34,1.07-.46.14-1.42-.24-1.34-1.07ZM503.95,40.26c-.03.15-.14.07-.14,0,.03-.15.14-.08.14,0ZM503.55,43.35v-.27h.54c.13.4-.3.24-.54.27ZM505.97,40.93c-.07-.07.1-.17.13-.13.07.07-.1.17-.13.13ZM515.36,35.97v-.27h.54c.14.4-.3.24-.54.27ZM516.43,40.53c.16.06.27.17.27.4-.17-.06-.28-.17-.27-.4ZM512.41,95.55c.04-.31.36-.31.54-.13-.04.31-.36.31-.54.13ZM514.42,95.01c-.48.08-.65-.16-.94-.27-.09-.64.96-.66,1.34-.4-.08.28-.28.43-.4.67ZM523.28,68.31c-.3-.02-.06-.57-.13-.8.48.11.02.33.13.8ZM521.13,59.86c-.13.14-.69.12-.67-.27.2-.21.77-.2.67.27ZM520.06,33.82h.67c.21.71-.89.71-.67,0ZM520.32,68.44c.5-.05.79.11.81.54-.35.31-.91.02-.81-.54ZM520.19,75.15c.54-.13.54.8,0,.67-.25-.26-.02-.34,0-.67ZM520.86,99.04h-.27v-.27h.27v.27ZM519.65,82.4c-.18-.94.32-1.2,1.21-1.07.19.26.35.54.4.94-.36.49-.87.01-1.61.13ZM521.67,65.09c-.35.04-.58-.05-.54-.4.11.03.13-.05.13-.13.36-.04.44.19.4.54ZM522.34,66.97c-.51-.07-.73-.52-.54-.94.52.01.91.16.8.8-.16-.02-.24.03-.27.14ZM522.87,64.95h.4v.4h-.4v-.4ZM523.01,88.71c.04-.31.36-.31.54-.13-.04.31-.36.31-.54.13ZM523.55,60.26c-.07-.07.1-.17.13-.13.07.07-.1.17-.13.13ZM523.81,69.52c.48-.04.93-.03.81.54-.21.17-.94.05-.81-.54ZM532.67,84.95v-.4c.39-.2.39.6,0,.4ZM535.35,73.27c.06.28-.09.36-.14.54-.34-.02-.52-.19-.54-.54.18-.17.5-.17.67,0ZM534.42,72.07c.04.32.21.5.13.94-.73.15-.74-.42-.81-.94h.67ZM533.74,52.07c-.5.09-.33-.47-.54-.67-.36-.22-.2-.42,0-.67.35.24.83.88.54,1.34ZM533.07,49.25c.34.02.52.2.54.54-.53.14-.78-.3-.54-.54ZM533.21,72.87c.41.26,1.14.77.94,1.21-.66.03-.94-.32-1.21-.67-.1-.37.27-.27.27-.54ZM531.33,73.14c.38.02.92-.12.94.27,0,.8-1.49.31-.94-.27ZM530.79,58.65h.27v.27h-.27v-.27ZM530.39,52.74c0,.13-.16.1-.27.13,0-.13.16-.1.27-.13ZM527.57,69.25h.4v.4h-.4v-.4ZM527.57,70.05h.27v.27h-.27v-.27ZM526.23,64.95c.22.64-.77.74-.67.13.16-.11.36-.18.67-.13ZM526.5,68.85c.13.68-.58,1.04-1.07.67-.12-.78.61-1.26,1.07-.67ZM524.75,62.27c.35-.04.58.05.54.4-.25.26-.65.08-.54-.4ZM526.5,91.12h-1.21c-.36-.61-.12-1-.14-1.88h.4c.46.03.38.6.67.81.31-.04.51.02.67.13-.03.41-.29.6-.4.94ZM527.03,72.07c-.54.15-.67-.41-.4-.67h.4v.67ZM527.44,70.99c.17-.18.63-.18.81,0-.04.49-.87.79-.81,0ZM528.51,94.07c0,.13-.16.1-.27.13,0-.13.16-.1.27-.13ZM528.91,95.28c-.35.04-.58-.05-.54-.4.12.03.13-.05.13-.13.35-.04.44.19.4.54ZM528.91,70.99c.32,0,.4-.23.81-.13.18.2.27,1.06-.13,1.07-.24-.09-.9-.61-.67-.94ZM531.46,79.58c-.29.2-.25-.25-.54-.4-.3-.16-.63,0-.81-.27-.16-.24-.18-.5,0-.81-.05-.44-.39-.59-.54-.94.03-.78.38-1.23.67-1.74h1.07c.34.2.44.64,1.07.54.12.42.25.82.67.94-.08.57.1.89.13,1.34-.47.06-.49.58-.67.94-.42.07-.75.23-1.07.4ZM533.07,91.79c.05-.16.36-.11.4,0,.12.29-.49.31-.4,0ZM532.67,89.11c-.08-.67.39-1.33.94-.94.08.7-.35.9-.94.94Z"/>
    <path class="cls-1" d="M596.74,89.11l-4.12-.9c-2.15-.54-2.87-2.15-2.87-6.46v-2.33l.18-1.79.36-4.66.36-8.43.18-7.18v-1.43l-.18-3.77-.36-5.56v-1.43l.18-1.79v-.18c0-2.07-.84-4.31-2.12-5.95-.12.32-.77.26-.66-.2h.51c-.45-.55-.96-1.02-1.5-1.39l-2.51-1.61-1.97-1.25-1.97-.72c-.36-.18-1.08-.36-2.69-.54-1.26-.36-2.51-.54-3.77-.72-.72-.18-1.79-.18-2.51-.18h-1.97c-3.05,0-5.38.54-7.89,1.79l-1.72.86c.21.08.43.16.62.26.25.65-.26.75-.13,1.61-.56.43-1.26.71-1.74,1.21-.81-.01-1.46-.58-1.6-1.22l-.45.15-.36.36c-.36.18-1.07.9-1.79,1.43q-.18.18-.36.36l-.9,1.79-1.08,1.44-.36.72v1.97l-.18,1.26c.87.73,2.2,1.32,3.44,1.53-.06-.45.05-.74.14-1.06.03-.61-.61-.55-.54-1.21.31-.1.69-.12.94-.27.12-.28-.35-.6-.4-.27-.3-.48.45-1.07.54-1.61.32-.05.29.24.67.13.49-.09.67-.49.94-.8.63.09,1.71-.27,1.75.4.31-.22.57-.51.94-.67.28.08.28.21.13.4.14.35.55.44,1.07.4.11.16.18.36.13.67.11.3.47.34.67.54-.09.72.75.5.67,1.21.02.29-.11.43-.4.4-.12.43.44.18.4.54-.11.28-.28.51-.45.72l1.92-.16c.54,0,1.26-.54,2.15-1.08.72-.54,1.44-1.26,1.79-1.62l.72-1.08c.36-.36.9-.9,1.43-1.61.36-.36.54-.54.72-.72l1.97-.36h.36c2.69,0,3.95,2.51,3.95,8.61,0,2.51-.18,4.12-.72,5.56l-.54,1.44-.54,1.97-.54.72-1.08,1.08-1.61,1.79c-.72.72-2.33,1.97-3.59,2.69l-4.3,2.33-8.25,3.23-4.48,3.23c-4.66,3.41-5.92,6.28-5.92,13.81,0,10.4,4.12,15.25,13.09,15.25h4.48c2.69,0,4.31-.18,5.02-.72l3.77-2.33,2.15-.54,1.97.72,2.15,2.15c1.08,1.07,2.87,1.44,7,1.44s5.92-.36,7.89-1.44l.9-.54c2.33-1.44,3.77-3.41,3.95-5.38l.18-2.51v-.36c0-.54-.18-1.07-1.08-1.97l-.18-.18ZM557.09,36.24c.03-.15.14-.07.14,0-.03.15-.14.08-.14,0ZM558.17,37.85h-.27v-.27h.27v.27ZM562.86,39.59c-.59-.13-1.38-.06-1.61-.54-.59-.06-.67.18-1.07,0,.05-.77-.47-.96-.8-1.34.19-.56.86-.66,1.21-1.07h.27c.62,0,.87.38,1.34.54v.4c.25.25.71.35,1.07.54.28.15.81.24.8.67-.55.12-1.09.26-1.21.81ZM566.08,41.34v-.67c.54-.13.54.8,0,.67ZM545.55,87.1c.33-.09.69-.27.67.27-.44-.02-.64.32-.67-.27ZM546.36,84.68c.83-.09,1.16-.37,1.88,0,0,.36.05.77-.13.94-.7-.27-1.28.16-1.88-.13-.1-.41.14-.49.13-.81ZM546.63,92.06c.38-.03.73-.02.67.4-.26.26-.82.14-.67-.4ZM547.3,86.29c.48-.03.8.09.94.4.01.5-.53.46-.94.54-.19-.18-.19-.76,0-.94ZM548.1,93.4c.26-.24.83-.04.81.4-.26.24-.82.04-.81-.4ZM551.32,82.94c.02-.16-.03-.24-.14-.27.02-.29.34-.29.67-.27.06.42-.12.6-.54.54ZM553.2,79.18c-.25.02-.45.09-.54.27-.33.02-.42-.21-.67-.27-.55-.24-1.27.48-1.34-.13.06-.51.63.03,1.07-.27.24-.12.42-.3.54-.54.36,0,.76-.05.94.13v.81ZM575.34,61.06c.34.01.32.5.13.67-.34-.01-.31-.5-.13-.67ZM573.33,62c-.12.08-.24.16-.27,0,.03-.17.27-.13.27,0ZM566.22,67.91c-.03.24-.23.31-.54.27-.07-.42.34-.48.54-.27ZM562.73,68.85c.17-.55.42-1.02,1.21-.94.16-.06.28-.17.27-.4h.4c-.03.39.03.68.27.8-.17.55-.64.79-1.07,1.07.26.31.26.36,0,.67-.52.12-.48-.33-.81-.4-.42.02-.81,0-.94-.27-.09-.5.47-.33.67-.54ZM560.18,73.14c-.13-.41-.27-.8-.4-1.21.19-.21.69-.12,1.07-.13.15.29.34.55.27,1.07-.3.1-.52.28-.94.27.1.47-.35.6-.54.4-.04-.35.28-.35.54-.4ZM560.18,82.53c-.34-.01-.69-.02-.67-.4.26-.26.82-.14.67.4ZM560.58,83.07c0-.13.16-.1.27-.13,0,.13-.17.11-.27.13ZM561.12,82.27c-.54,0-.37-.7-.4-1.21-.06-.39-.47-.42-.4-.94.42.03.99-.09,1.21.13.11.69-.11,1.05-.4,1.34-.08.24.39.56,0,.67ZM564.74,93.27c-.07-.07.1-.17.13-.13.07.07-.1.17-.13.13ZM570.92,94.48c-.39-.02-.32-.64.13-.54.06.28-.09.35-.13.54ZM571.45,96.22v-.67c.16.02.24-.03.27-.13.38.02.57.23.54.67-.16.15-.47.15-.81.13ZM575.94,77.81v.54c-.36,1.26-.36,1.97-.36,2.69v1.44l.18,1.61-.18,1.08-.9,1.79-.72,1.61c-1.43,1.08-3.05,1.61-4.84,1.61-5.2,0-7.53-2.51-7.53-7.89,0-2.87.72-5.74,1.79-7.35l.74-1.12c-.11,0-.22,0-.33-.01-.17-.59-.61-.91-.67-1.61.22-.63.9-.8,1.34-1.21.67-.08.71.45,1.48.27.03.05.06.08.09.13l.4-.4c.54-.36,1.08-.9,1.79-1.43,1.43-1.26,2.33-1.79,2.69-2.15.9-.54,2.15-.9,3.05-.9h.36l1.07.18v2.15l-.54,4.66v.18l.36,1.43v.72c.18.36.18.54.36,1.08l.54.18-.18.72ZM579.37,59.45c-.61.08-.74-.33-1.21-.4.05-1.24,1.26-.37,1.21.4ZM578.16,75.69c0,.13-.16.1-.27.13,0-.13.16-.1.27-.13ZM576.55,63.61c.4-.27,1.34-.15,1.21.54-.42-.03-.98.09-1.21-.13v-.4ZM577.49,90.59c-.21.21-.92.24-.81-.27.2-.21.92-.24.81.27ZM578.3,95.42c.03-.17.27-.14.27,0-.06.2-.12-.01-.27,0ZM580.31,98.5c.5.41-.41.45,0,0h0ZM580.44,85.75c.02.33.02.65-.13.81-.65.11-1.34.18-2.01.27-.53-.45-.9-1-1.07-1.74-.07-.29.14-.35.13-.54-.01-.32-.36-.37-.27-.67.35-.23.8-.37.94-.8.56-.04.52.18.94,0,.51-.59,1.39.02,1.75.4.02.33-.21.42-.27.67.13.4.47.6.4,1.21.03.29-.11.43-.4.4ZM586.35,36.64h.27v.27h-.27v-.27ZM584.33,48.32c-.04-.67.18-1.07.94-.94.19.17.13.58.13.94-.07.19.52.33.13.4-.08-.45-.95-.12-1.21-.4ZM585.54,95.42c-.34-.24-.34-.83,0-1.07.32.22.97.1,1.07.54.07.61-.76.31-1.07.54ZM586.08,68.31c-.21-1.05,1.38-1.28,1.21-.13-.26.19-.86.44-1.21.13ZM592.79,98.1c0,.44.38.51.27,1.07-.27,0-.17.37-.54.27-.43-.02-.59-.3-.54-.81-1.13-.35-1.83-1.12-2.69-1.74.11-.47-.2-.52-.13-.94.21-.15.28-.43.67-.4-.11-.47.15-.57.27-.81.94.09,2,.05,2.55.54.04.31-.02.52-.13.67.29.29.87.29,1.07.67.16.92-.47,1.06-.81,1.48Z"/>
  </g>
  <g>
    <path class="cls-1" d="M104.46,24.12c-.33.31-.63.5-.08-.26.02,0,.02-.02.04-.03-.11-.72-.24-1.42-.39-2.09-.17-.74-.37-1.45-.6-2.15-.14-.1-.31-.21-.54-.19.04-.22.18-.34.33-.39-.28-.8-.61-1.56-.98-2.3-.28.23-.88.15-1.33.21.07-.49.66-.45,1.19-.47-4.76-9.33-15.63-13.84-26.83-14.4-4.09-.2-7.68.16-11.11,1,.04,0,.07.01.12.02-.16,1.41-2.62.17-.99,1.98-.39,1.14-1.73-.85-2.48-.99-.54.12-.34.98-.99.99.25.63,3.36.33,3.47,2.47-1.18-.8-2.85-1.11-3.96-1.98-1.01.36-1.96,1.55-2.97.49.02-.11.06-.19.12-.25-.76.35-1.53.72-2.3,1.12.16.11.37.17.69.12-.42.74-1.59.72-2.48.99-.05-.03-.1-.06-.14-.1-1.1.6-2.21,1.23-3.36,1.91-.08.09-.21.17-.32.19-.25.15-.5.3-.76.45.04,0,.06.02.11.02-.09.4-.5.49-.5.99-.28-.07-.41-.28-.63-.4-.98.6-2.01,1.24-3.05,1.89.09-.03.17-.04.21,0,.26.26-.36.63-.5.5-.11-.11-.05-.25.06-.36-.42.26-.83.52-1.26.79-.13.08-.24.15-.36.23.36-.02.84-.08,1.57-.17-.27.66-1.59,1.1-2.64.85-1.26.8-2.44,1.57-3.56,2.32-.23.21-.46.37-.71.47-.33.22-.65.45-.98.67.26.27.57.49.95.64-.46.97-1.76,1.09-2.64.54-.11.08-.22.15-.32.23.12.18.15.42,0,.71-.23-.2-.39-.29-.51-.33-4.27,3.13-7.7,6.22-11.5,10.45.3.17.64.29,1.12.27-.01,1.98-1.03,1.27-2.29,1.05-.62.71-1.24,1.44-1.89,2.21-2.74,3.28-4.48,6.13-4.48,6.13C2.83,55.23-2.21,75.11,6.2,88.29c4.68,7.33,19.98,13.26,31.62,11.52,2.87-.43,6.54-1.06,10.41-1.9.02-.04.06-.06.08-.1.07,0,.12.03.17.05,5.48-1.2,11.33-2.83,15.85-4.96,7.16-3.37,12.2-9.26,17.57-14.98,0-.19.08-.39.21-.55.06.04.13.08.21.1,1.63-1.73,3.31-3.43,5.08-5.04-.08-.04-.15-.08-.21-.14-.38.2-.84.32-1.47.27-.17-.35-.29-.4-.13-.8-.22-.41-.68-.57-1.07-.8-.06-.46.05-.75.13-1.07.03-.61-.61-.55-.54-1.2.3-.1.68-.12.94-.27.12-.28-.35-.6-.4-.27-.29-.48.45-1.06.53-1.6.32-.05.29.24.67.13.49-.09.67-.49.94-.8.62.09,1.7-.27,1.74.4.31-.22.57-.5.94-.67.28.08.28.21.13.4.14.35.54.43,1.07.4.11.16.17.36.13.67.1.29.47.33.67.53-.08.62.54.54.65.97,1.54-1.23,2.92-2.43,4.15-3.63-.18-.14-.18-.39.17-.49.08-.02.2,0,.3.02,6.77-6.78,8.79-13.38,8.62-22.35-.12-6.3-.12-12.78-.92-18ZM2.6,69.48c.02-.6.76-.49.8-1.07,1.34.12.18,1.78-.8,1.07ZM93.35,55.04c-.34-.01-.32-.5-.13-.67h.4c.11.43-.12.51-.27.67ZM93.35,23.5c-.3.26-.96.07-.94-.4.27-.23,1.14-.25.94.4ZM93.22,35.66c-.07-.07.1-.17.13-.13.07.07-.1.17-.13.13ZM92.49,38.22c-.01.48-.6.38-.99.5.01-.48.61-.38.99-.5ZM93.48,61.49c-.01.48-.61.39-.99.5.01-.48.61-.38.99-.5ZM91.5,8.51c1.6.61.38-1.6,1.98-.99-.51,2.83-2.51,1.44-3.96.5.49-1.52,1.32.57,1.98.5ZM90.14,6.66c-.53.04-.99,0-1.2-.27.1-.88,1.68-.49,1.2.27ZM86.06,17.42c-.01.48-.61.38-.99.5.01-.48.61-.38.99-.5ZM84.57,16.44c.26.26-.36.63-.5.5-.25-.26.36-.63.5-.5ZM82.79,10.67c.83-.03,1.41.2,1.47.93-.39.17-.95.17-1.34,0-.04-.31-.21-.5-.13-.93ZM81.6,13.46c.26.26-.36.63-.5.5-.25-.26.36-.63.5-.5ZM79.58,14.01c.07.07-.1.17-.13.13-.07-.07.1-.17.13-.13ZM76.16,12.47c-.22.72-.43-.05-.99,0,.12-.62.98-.5.99,0ZM74.67,5.05c.26.26-.36.63-.5.5-.26-.26.36-.63.5-.5ZM74.18,11.98c-.01.48-.61.38-.99.5.01-.48.61-.38.99-.5ZM72.69,11.48c-.1.56-.5.28-.5,0,.1-.56.5-.27.5,0ZM72.19,3.56c.26.26-.36.63-.49.5-.26-.26.36-.63.49-.5ZM70.71,6.53c-1.17,1.59-2-1.74,0,0h0ZM70.21,8.51c-.26-.26.36-.63.5-.5.25.26-.36.63-.5.5ZM70.21,10.99c-1.17,1.59-2-1.74,0,0h0ZM68.23,8.02c.26.26-.36.63-.49.5-.26-.26.36-.63.49-.5ZM66.75,5.54c.02-.48.61-.38.99-.5-.01.48-.61.38-.99.5ZM67.24,2.57c-.02.48-.61.38-.99.5.01-.48.61-.39.99-.5ZM66.75,6.53c.26.26-.36.63-.49.5-.26-.26.36-.63.49-.5ZM66.25,10.99c.26.26-.36.63-.5.49-.26-.26.36-.63.5-.49ZM65.26,8.51c.01-.48.61-.39.99-.5-.01.48-.61.38-.99.5ZM65.76,3.07c.26.26-.36.63-.5.49-.26-.26.36-.63.5-.49ZM63.81,4.26c.17.06.31.16.42.28.01,0,.03,0,.04.02.03.03.04.06.05.09.18.24.28.55.29.95-.41-.12-.74-.33-1.07-.53-.03-.39.3-.41.27-.8ZM61.3,7.52c.26.26-.36.63-.5.5-.26-.26.36-.63.5-.5ZM61.8,10.49c-.01.48-.61.38-.99.5.01-.48.61-.39.99-.5ZM60.81,9.01c1.66-1.2-1.19,1.66,0,0h0ZM58.47,7.2c0,.13-.16.1-.27.13,0-.13.16-.1.27-.13ZM58.33,8.02c-.51.41-.89-.44-.99-.5-1.91-1.1,1.33.22.99.5ZM56.35,7.03c.26.26-.36.63-.49.49-.26-.26.36-.63.49-.49ZM54.37,9.01c.48.01.38.61.49.99.8.14.85-.47,1.48-.5-.36-.46-.9-.75-1.48-.99.8-1.55,1.57,1.02,2.48.99-1.16,1.32-5.67,1.36-7.43.5.69-2.12,3.6.23,4.46-.99ZM49.42,11.48c.26.26-.36.63-.5.5-.26-.26.36-.63.5-.5ZM47.93,13.96c.65.17.78.87,1.49.99.09.42-.19.47-.5.5h-.99v-1.49ZM47.44,16.44c-.4-.26-.8-.52-1.48-.5.15-1.36,1.72-1.04,1.48.5ZM46.95,12.97c-.42,1.45-1.25-.64-2.48,0,.13-1.16,2.18-.28,2.48,0ZM44.47,14.95c.1-.01.53-.75.99-.5,1.63.9-4.32.99-.99.5ZM39.02,20.4c-.01.48-.61.38-.99.49.01-.48.61-.38.99-.49ZM36.55,20.4c-.01.48-.61.38-.99.49.01-.48.61-.38.99-.49ZM33.61,21.36c.37-.2.68.08,1.2-.13.39.28,1.18.16,1.2.8-.33.12-.58.31-1.07.27-.28.21-.78.62-1.2.27-.02-.33-.02-.65.27-.67.04-.35-.52-.11-.4-.54ZM33.58,23.86c-.09.56-.5.27-.49,0,.09-.56.5-.27.49,0ZM30.11,23.37c.73.26,1.25.73,1.98.99.24.65-2.46.22-1.98-.99ZM29.47,24.3c-.41,0-.88.08-.8-.4.31-.29.83-.05.8.4ZM28.63,27.33c.61-.35,1.09-.52.49,0-.58.5-1.17.39-.49,0ZM28.63,31.29c-.01.48-.61.38-.99.5.01-.48.61-.39.99-.5ZM26.65,29.8c.26.26-.36.63-.49.5-.26-.26.36-.63.49-.5ZM25.06,33.93c-.53-.03-1.11.4-1.2-.27.24-.17,1.33-.34,1.2.27ZM23.67,33.27c-.07,1.23-1.68.14-1.98,0,.07-1.23,1.68-.15,1.98,0ZM20.21,38.71c-.06.93-1.64.34-1.49,1.48-.4-.09-.49-.5-.99-.5v-.99c.94-.93.9.29,2.48,0ZM17.74,41.19c-.26-.26.36-.63.49-.5.26.26-.36.63-.49.5ZM17.74,37.72c-.22.72-.44-.05-.99,0,.12-.62.98-.5.99,0ZM17.24,39.7c-.15.67-1.24.41-1.98.5.14-1.15,1.32-1.14,1.98-.5ZM13.28,45.64c-.01.48-.61.38-.99.49.01-.48.61-.38.99-.49ZM9.29,89.52c-.18.13-.27.36-.4.54-.39-.14-.44-.41-.27-.8.43-.03.56.24,1.07.13-.07.28-.21.28-.4.13ZM9.29,86.85c.31-.04.51.02.67.13-.01.4-.8.36-.67-.13ZM9.96,90.59h.8c.17.8-.9.58-.8,0ZM9.96,80.03v-.27c.27-.04.42.03.4.27h-.4ZM12.09,92.46c-.65.13-.25-.71,0-.27v.27ZM11.96,89.39c.07.07-.1.17-.13.13-.07-.07.1-.17.13-.13ZM13.7,92.33v-.4c.28-.06.35.09.53.13-.03.24-.23.31-.53.27ZM16.37,92.46c-.24.02-.28-.16-.54-.13v-.67c.5-.01.38-.15.8,0,.06.42-.19.52-.27.8ZM16.9,88.32c-.21-.65.67-.63.94-.4.09.53-.51.38-.94.4ZM21.98,96.47c.03-.11.13-.13.13-.27h.27c.06.28-.19.25-.4.27ZM23.85,94.73c-.15-.02-.24.03-.27.13-.34-.01-.31-.5-.13-.67.19.12.52.11.4.53ZM25.06,93.4c-.84.08-1.04-.48-1.6-.67-.02-.33-.02-.64.13-.8.74-.16.47.69,1.07.67.44-.19.63-.61.94-.93.41.04.54.75.27,1.07-.32.24-1.02-.31-.8.67ZM25.32,96.47h-.67c-.25-.29-.36-.71-.4-1.2.24.02.28-.16.53-.13.14-.5-.33-.38-.27-.8.43-.24.91-1.07,1.47-.4.09.8-.12,1.31-.13,2-.42.07-.47-.24-.94-.13-.14.5.5.21.4.67ZM25.99,99.01c-.2-.39-.37-.79,0-1.07.41.25.7.64,1.07.94-.09.49-.53-.03-1.07.13ZM26.79,94.2c.06.42-.12.6-.54.53v-.53h.54ZM26.39,92.46c.49.4-.41.45,0,0h0ZM26.53,97.14c.46-.06.76.04.67.53-.33.32-.84.05-.67-.53ZM27.06,95.54c-.07-.07.1-.17.13-.13.07.07-.1.17-.13.13ZM27.33,95.54c-.02-.47.45-.44.54-.8.49.2.65.8.27,1.2-.52.12-.48-.33-.8-.4ZM28.13,98.88c-.28-.27,0-.57.27-.67-.04-.31-.46-.25-.4-.67.59-.14.44.45.94.4-.17.41-.3.86-.8.94ZM31.2,96.07c-.35.04-.58-.05-.54-.4.35-.04.67-.04.54.4ZM34.15,97.27c.19-1.22-1.62-.43-1.34-1.74,1.38-.22,1.97.35,2.14,1.34-.33.07-.29.52-.8.4ZM35.75,94.6c-.27.14-.21.59-.67.54-.11-.42-.43-.64-.67-.94.06-1.04,1.48-.91,1.87-.27,0,.39-.31.5-.53.67ZM38.15,96.34c-.28.05-.35-.09-.53-.13.07-.11.14-.22.13-.4h.4v.54ZM38.29,98.88c-.07-.07.1-.17.13-.13.07.07-.1.17-.13.13ZM38.29,87.92c.2-.07.34-.2.53-.27.42-.06.38.34.54.53.54-.1.76.13.67.67-.43.01-.82.07-1.07.27-.37-.25-.52-.73-.67-1.2ZM39.62,92.33c-.15.11-.36.18-.67.13-.18-.17-.18-.63,0-.8h.53c-.05.32.25.29.13.67ZM40.43,96.47c-.28.06-.35-.09-.54-.13.02-.39.64-.32.54.13ZM41.09,95.94c.02-.15.13-.07.13,0-.03.15-.13.08-.13,0ZM44.84,97.27c-.69.11-.97-.19-1.6-.13-.2-.6-.94-.66-1.07-1.34.7-.58,1.75,0,2.8-.13.34.59-.2.9-.13,1.6ZM43.1,87.65c.16-.16.47-.15.8-.13-.23.26-.16.82-.67.8-.11-.16-.18-.36-.13-.67ZM44.17,90.72v-.27c.11.02.13-.05.13-.13.26-.05.2.61-.13.4ZM45.64,95.94c.02-.16.24-.11.4-.13-.02.16-.24.11-.4.13ZM45.5,87.78c0-.13.16-.1.27-.13,0,.13-.16.1-.27.13ZM46.44,96.47v-.27c.28-.06.25.19.27.4-.11-.03-.13-.13-.27-.13ZM46.44,89.26h.53c.16.46-.75.62-.53,0ZM47.64,89.12c-.51-.03-.88-.19-.94-.67.47-.37,1.03.06.94.67ZM49.51,87.52c-.51.11-.47-.6-.27-.8.5-.11.47.6.27.8ZM49.78,86.71c-.37,0-.32-.63-.13-.8.31-.04.51.02.67.13.06.46-.4.4-.53.67ZM50.18,93.13c.5-.05.79.11.8.54-.35.31-.91.01-.8-.54ZM51.52,89.79c-.35.04-.58-.05-.53-.4.11.03.13-.05.13-.13.35-.04.44.18.4.53ZM52.19,91.66c-.51-.07-.73-.52-.53-.94.52.01.91.16.8.8-.16-.02-.24.03-.27.13ZM53.12,93c-.3-.02-.06-.57-.13-.8.48.12.02.33.13.8ZM52.72,90.06v-.4h.4v.4h-.4ZM53.39,84.98c-.07-.07.1-.17.13-.13.07.07-.1.17-.13.13ZM53.66,94.2c.48-.04.92-.03.8.53-.21.17-.94.05-.8-.53ZM54.59,86.98c.35-.04.57.05.53.4-.25.26-.64.07-.53-.4ZM55.26,94.2c-.12-.77.61-1.25,1.07-.67.13.68-.57,1.03-1.07.67ZM55.4,89.79c.15-.11.36-.17.67-.13.22.63-.77.74-.67.13ZM57.67,95h-.27v-.27h.27v.27ZM57.8,94.33h-.4v-.4h.4v.4ZM59.94,77.63c0-.13.17-.1.27-.13,0,.13-.16.1-.27.13ZM60.87,83.64h-.27v-.27h.27v.27ZM63.55,76.83c-.49.09-.33-.47-.53-.67-.36-.22-.2-.42,0-.67.35.24.83.88.53,1.34ZM62.88,74.02c.34.02.52.19.53.53-.53.14-.78-.3-.53-.53ZM65.82,75.09h-.54c.12-.19.2-.42.54-.4v.4ZM65.69,75.89c-.07-.07.1-.17.13-.13.07.07-.1.17-.13.13ZM66.89,82.04c-.83-.1-1.82-.48-1.34-1.47.56-.02.75.24,1.2,0,.32.19.38,1.12.13,1.47ZM65.95,74.69v-.53c.35-.28,1.18-.19.94.53h-.94ZM67.56,81.77c.03-.15.13-.07.13,0-.02.15-.13.07-.13,0ZM67.42,73.22c.56-.07.64.34.67.8-.28-.21-.83-.15-.67-.8ZM67.24,68.91c.01-.48.61-.38.99-.5-.01.48-.6.38-.99.5ZM67.96,71.08c-.36-.59.4-1.41,1.07-.94.07.74-.27,1.07-1.07.94ZM68.73,69.41c.01-.48.61-.39.99-.5-.01.48-.61.38-.99.5ZM69.96,77.23c-.14,0-.28.19-.53.13-.33-.08-.61-.35-.8-.53.07-.51.57-.59,1.07-.67-.11.46.2.51.13.94.41.1.26-.37.67-.27-.02.15.03.24.13.27.05.44-.37.11-.67.13ZM70.9,74.69c-.44,0-.51-.38-1.07-.27.06-.82-.98-.53-.67-1.61.08-.19.51-.02.53-.27.45.13.41.75.67,1.07.98-.39,1.11.72,2.14.67.04.71-1.05.29-1.6.4ZM72.1,69.34c-.04.49.11,1.18-.13,1.47-.62.09-.86-.21-1.34-.27v-.67c-.04-.27-.59-.03-.53-.4-.07-1.23,1.55-.36,2.01-.13ZM71.97,67.34c.31-.04.52.02.67.13,0,.41-.28.52-.4.8-.43-.12-.45-.54-.27-.94ZM72.1,71.88c-.32-.41-.09-1.18.67-.94.06.59-.22.85-.67.94ZM73.3,77.76h-.4c-.06-.28.09-.35.13-.54.23.03.3.23.27.54ZM73.04,68.14c-.23-.31.39-1.28.94-.8.02.61-.4.76-.94.8ZM74.91,76.96c-.24-.03-.31-.23-.27-.53h.4c.06.28-.09.35-.13.53ZM75.31,71.61c-.07-.07.1-.17.13-.13.07.07-.1.17-.13.13ZM74.88,70.3c.06.03.11.06.16.11.03.48-.19.7-.67.67-.4-.4.04-.95.47-.8-.85-.37-.8-1.42,1.81-.38-.67.56-1.33.57-1.77.39ZM74.37,68.27c.11-.07.22-.14.4-.13.45.26,1.01.41,1.07,1.07-.86.06-1.27-.34-1.47-.94ZM75.66,67.92c.12-.62.98-.5.99,0-.22.72-.44-.05-.99,0ZM76.16,63.96c-.25-.26.36-.63.5-.5.26.26-.36.63-.5.5ZM77.58,71.75v-.27c.27-.05.42.03.4.27h-.4ZM77.64,68.42c-.26-.26.36-.63.5-.5.25.26-.36.63-.5.5ZM77.64,64.95c-.26-.26.36-.63.5-.5.25.26-.36.63-.5.5ZM78.65,80.44c-.26-.09-.36-.36-.4-.67.18-.17.49-.17.67,0,.11.43-.21.42-.27.67ZM78.38,64.93c.02-.11.13-.13.13-.27h.27c.06.29-.19.26-.4.27ZM79.32,71.75c-.07-.07.1-.17.13-.13.07.07-.1.17-.13.13ZM80.61,67.43c-.26-.25.36-.63.49-.5.26.26-.36.63-.49.5ZM81.11,68.91c-1.35-1.51,1.51,1.35,0,0h0ZM67.54,12.17c3.33.03,6.76,0,9.6,1.22,6,2.6,9.89,6.75,10.8,9.09,4.65,12.73,1.71,23.7-5.31,34.08.16,0,.31,0,.46-.03-.05.35-.37.43-.74.45,0,0,0,.01-.02.02-2.21,1.49-4.42,3.61-6.89,5.7,0,.03,0,.05,0,.08-.07.06-.14.08-.21.1-.86.72-1.76,1.45-2.7,2.13.15,0,.31-.01.48-.04,0-.02.01-.04.02-.05.02,0,.05.02.07.04.03,0,.05,0,.08-.01,0,.02-.01.03-.02.05.36.22.74.68.54,1-.27-.11-.63-.36-.73-.66-.12.09-.29.14-.48.15.05.03.09.07.15.1-.22.84.65.59.67,1.2-.35.36-1.11-.23-.67-.67-.54.06-.72-.24-.87-.58-.72.5-1.47.98-2.24,1.42-.31.34-.78.72-.52.29-1.01.54-2.06,1.03-3.17,1.43-.25.24-.47.38-.32.1-.37.12-.73.25-1.12.35-2.32.65-4.7.97-6.97,1.03.35,1.78.38,3.75.4,5.44.07,5.34-1.11,7.15-6.57,9.03-3.96,1.36-7.12,2.43-11.03,2.81-.09,0-.18.02-.27.03.06.07.09.16.06.29-.28.06-.35-.09-.54-.13,0-.04.01-.07.03-.1-1.31.17-2.69.42-3.9.36-1.05-.05-2.08-.13-3.11-.21-.03.05-.07.02-.13-.01-2.33-.19-4.59-.47-6.68-.92-2.32-.5-7.27-.67-8.69-2.19-2.72-2.9-5.46-4.9-6.99-8.38-1.99-4.53-2.14-8.18-1.7-11.23,1.24-8.85,3.97-15.59,7.72-21.32-.39.05-.81.05-1.28.02.42-.49,1.07-.74,1.85-.87,1.2-1.11,2.54-2.69,4.09-4.24.02-.19.18-.32.38-.38h0c.19-.19.38-.37.58-.56-.37-.17-.7-.33-.96-.39.22-.42.77-.29,1.44-.05.14-.13.3-.24.44-.36-.27-.4-.5-.79-.21-1.42.33,0,.55-.1.74-.24-.05-.18.2-.37.38-.42.08-.13.14-.27.21-.41h1.2c.46-.44.86-.14,1.31.09.87-.43,1.76-.8,2.64-1.08-.04-.93.09-1.97.21-2.84.27-2.03.79-3.15,2.41-4.53.02-.02.05-.04.07-.06.46-.38.98-.78,1.63-1.23,1.5-1.04,2.86-1.98,4.32-2.88-.16.02-.33.04-.47.08.01-.48.61-.39.99-.5,0,.06-.03.09-.05.13.7-.42,1.42-.82,2.2-1.23,1.08-.56,2.3-1.3,3.39-1.75,2.83-1.18,5.85-2.37,8.85-3.32.27-.09.6-.2.94-.32-.36-1.34.71-1.25.51-2.42.94-.22,2.98.67,2.47-.99.93-.45,1.18.93,1.49.99.37.07,1.14-.82,1.98-.5.2.08-.26.71-.5.5.1.09.25.16.42.22.77-.23,1.49-.41,2.1-.51.25-.59,1.39-1.23,1.44-.2.48-.01.38-.61.5-.99.8-.09.76.66.99,1.15.89.01,1.78.02,2.69.03M87.6,50.23c-.07-.07.1-.17.13-.13.07.07-.1.17-.13.13ZM86.06,53.07c-.26-.26.36-.63.5-.49.26.26-.36.63-.5.49ZM86.06,55.05c-.26-.26.36-.63.5-.5.26.26-.36.63-.5.5ZM85.56,54.56c-.01.48-.61.38-.99.5.01-.48.61-.39.99-.5ZM82.59,63.47c-.26-.26.36-.63.5-.5.26.26-.36.63-.5.5ZM83.58,58.52c-.26-.26.36-.63.49-.49.26.26-.36.63-.49.49ZM85.07,56.54h.99c.1,1.39-3.7-.14-.99,0ZM86.8,61.06c.03-.15.13-.07.13,0-.03.15-.13.08-.13,0ZM87.87,62.66h-.27v-.27h.27v.27ZM88.14,61.19c-1.14-.01-1.99-1.15-1.47-2.01-.06-.27-.33-.32-.61-.38-.12.17-.41.3-.5.21-.11-.11-.05-.25.06-.35,0,0-.02,0-.02,0-.05-.55.14-.85.67-.8.01-.5.15-.38,0-.8.47.07.69-.11.8-.4.03,0,.06,0,.09.01-.03-.43.26-1.08.39-1.11.49-.11.85.99.99.99.13,0,1.88-1.79.49,0-.09.42.19.47.5.49-.02.69-.42.45-.85.11-.06.92.78.93,1.33,1.24.25.65-.26.75-.13,1.6-.56.42-1.26.7-1.74,1.2ZM92.55,64.4c-.19-.04-.39-.07-.6-.09-.14.14-.37.23-.45.15-.08-.08-.07-.16-.03-.24-.23-.06-.43-.16-.53-.35-.59-.06-.67.18-1.07,0,.05-.77-.47-.96-.8-1.34.19-.56.86-.66,1.2-1.07h.27c.61,0,.87.38,1.34.53v.4c.25.25.71.35,1.07.53.28.15.81.24.8.67-.55.12-1.08.26-1.2.8ZM93.98,64.95v-.99c.99-.17,1.55.1,1.49.99h-1.49ZM94.47,58.52c.02-.48.61-.38.99-.49-.01.48-.61.38-.99.49ZM94.97,62.97c-.26-.26.36-.63.5-.49.26.25-.36.63-.5.49ZM93.75,32.59c.46-.33,1.27-.33,1.74,0,.12.44-.04.76.13,1.34-.71-.36-1.89-.25-1.87-1.34ZM95.49,10.94c.22-.48.97-.48,1.34-.13-.18.61.13.99-.27,1.47h-.4c-.55-.12-.67-.67-.67-1.34ZM96.42,31.39c-.22-.13-.31-.36-.13-.53.31.04.31.36.13.53ZM95.96,61.98c-.26-.26.36-.63.49-.5.26.26-.36.63-.49.5ZM96.45,62.97c.01-.48.61-.38.99-.49-.01.48-.61.38-.99.49ZM97.94,47.13c.26.26-.36.63-.5.49-.26-.26.36-.63.5-.49ZM98.03,54.51c-.37.1-.27-.27-.54-.27.04-.18.33-.11.54-.13v.4ZM97.94,39.7c-.26-.26.36-.63.49-.5.26.26-.36.63-.49.5ZM98.83,37.67c-.47-.16-.73-.52-1.34-.54-.1-.65-.56-.96-.53-1.74.53-.22,1.87-.22,2.4,0,.1.46.09.95.13,1.74-.27.14-.57.23-.67.54ZM99.92,34.26c-.26-.26.36-.63.5-.5.26.26-.36.63-.5.5ZM102.04,29.25c.06.28-.09.35-.13.54-.39-.02-.32-.64.13-.54ZM101.4,33.27c-.26-.26.36-.63.5-.5.26.26-.36.63-.5.5ZM102.17,52.64c-.2.21-.76.2-.67-.27.2-.21.76-.2.67.27ZM102.4,24.36c-.25-.26.36-.63.49-.5.26.26-.36.63-.49.5Z"/>
    <path class="cls-1" d="M87.57,56.79c.34.19.6.46,1.02.29-.44-.35-.89-.73-1.02-.29Z"/>
    <path class="cls-1" d="M57.72,5.24c-.29.13-.58.24-.88.38.3-.06.68-.03.99-.07-.03-.1-.07-.2-.12-.3Z"/>
    <path class="cls-1" d="M56.01,21.34c-.27,0-.56-.09-.85-.18-.25.09-.69-.03-1.08-.3-.13-.02-.27-.05-.39-.04-.54.04-1.14.19-1.75.36.24.09.54.19.95.21-.31.44-.6.89,0,.99-.49,1.52-1.32-.57-1.98-.49.06-.19.11-.34.17-.45-.65.19-1.29.36-1.84.41-.12.07-.25.1-.31.04-.01-.01-.01-.02-.02-.03-.36-.01-.67-.1-.92-.3-.03.22-.44.44-.55.33-.03-.02-.04-.05-.05-.08-2.37,1.29-3.91,1.6-5.17,1.63.07.02.15.04.21.07.01.23-.03.38-.1.48.2-.06.46-.06.66-.12-.01.48-.6.39-.99.5,0-.12.04-.2.1-.26-.24.03-.56-.13-.74-.33.02-.07.06-.12.1-.17-.27.11-.61.27-.97.46-.02.03-.05.06-.06.11.21.32.48.59.8.8-.03.41-.37.52-.54.8-.75-.08-.81-.73-.76-1.43-.24.12-.48.25-.7.37.17.15.11.53-.47.85.11.28.23.51.06.75.04.31.46.25.4.67-.41.45-1.5.53-2,0,.14-.53.84-.49,1.2-.8-.08-.16-.22-.25-.36-.34-.01,0-.02,0-.03,0,0,0,0-.02.01-.03-.12-.08-.23-.17-.29-.31.02-.02.03-.05.04-.07-.07.04-.14.07-.21.1-.06.21-.44.41-.55.3,0,0,0,0,0,0-1.8.99-3.63,2.34-4.91,4.1-.75,1.03-1,1.97-1.25,2.88,1.9-.36,3.64-.35,4.9.07.02,0,.04,0,.06,0,.01-.05.02-.09.04-.16.1.04.22.07.33.11,0,0,0,0,0,0,.26-.19.74-.2,1.08-.03.63.04,1.18.2,1.66.45.02,0,.04,0,.06.02,0,0,0,0,0,0,1.07.59,1.76,1.67,2.12,3.06h.48c.07.3-.18.43-.4.39.01.06.03.11.04.16.21-.08.5-.09.72-.15-.01.36-.35.4-.68.44.17,1.14.14,2.43-.07,3.79.03.02.06.04.11.04-.02.11-.13.13-.13.27-.02,0-.02-.02-.04-.02-.34,2.07-1.08,4.28-2.18,6.35,0,0,0,.01.01.01.29.57-.16.98-.4.69-.31.54-.64,1.06-1,1.57-.7.72-1.43,1.6-2.23,2.6-.24.29-1.26.85-1.42,1.08-.19.29.13,1.04-.11,1.28-.55.56-.94.53-1.41,1.06-3.5,3.97-10.71,6.98-15.25,8.76-.56,6.05,2.88,8.31,6.5,10.69.44-.03.74.06.94.27-.08.13-.15.27-.22.4.39.49.79,1.09,1.18,1.29,1.68.84,3.76,1.76,5.37,2.17.99.14,1.67.21,2.54.11-.05-.09-.11-.74-.06-.89h.54c-.02.16.03.24.13.27,0,.02.07.77.06.79,1.52.3,2.64.24,3.68.32.38.03,1.67-.02,2.92-.25-.11-.31-.13-.65.15-.85.44.02.63.28.67.7.55-.1,1.02-.19,1.31-.22,3.17-.36,6.9-1.65,9.24-4.76,1.13-1.51,1.39-3.09,1.64-4.63h0c-3.17-.32-6.29-.65-7.87-1.33-8.11-2.69-8.38-11.25-5.29-18.73-.2.05-.45.06-.65.11.01-.4.43-.4.79-.46.57-1.31,1.24-2.55,2.03-3.67.72-.74,1.49-1.66,2.31-2.69.25-.3,1.37-.94,1.54-1.18.2-.3-.22-.99.03-1.25.59-.6,1.04-.62,1.54-1.19.83-.94,1.95-1.9,3.23-2.86-.25-.07-.53-.1-.84-.11.02.01.04.02.06.03-.03.38-.23.57-.67.53-.1-.12-.14-.3-.13-.53-.06-.57,1.55-.83,2.26-.42,1.44-1.03,3.08-2.05,4.81-3.05h-.63c.39-1.33.16-1.98,1.49-.5,0,0,0,0,0,.01,3.58-2.01,7.46-3.91,10.8-5.5-1.22-5.72-7.32-5.81-12.63-5.95ZM32.59,31.29c-.26-.26.36-.63.5-.5.26.26-.36.63-.5.5ZM33.58,31.29c.59-1.03,3.62-.36,3.47.99-2.08.6-2.17-.8-3.47-.99ZM36.55,28.32c.09-.56.5-.27.5,0-.09.56-.5.27-.5,0ZM33.21,65.87c-.46.14-1.42-.24-1.34-1.07.88-.08,1.34.26,1.34,1.07ZM33.08,73.62c-.41.09-.26.09-.67,0,.04-.31.47-.25.4-.67.45-.14.21.42.27.67ZM32.81,71.35c-.2.21-.76.2-.67-.27.2-.21.76-.2.67.27ZM33.08,71.88c0,.35.05.76-.13.93-.38-.02-.24-.56-.27-.93h.4ZM30.8,72.55c-.31.43-.54-.47,0,0h0ZM29.47,73.35c-.04-.31.02-.51.13-.67.6-.1.5.89-.13.67ZM29.74,70.81c-.1.12-.14.3-.13.54-.59.08-.46-.72.13-.54ZM24.92,66.4c.27-.04.42.03.4.27h-.4v-.27ZM21.58,66.8c-.31.04-.51-.02-.67-.13.01-.4.8-.36.67.13ZM23.18,62.48c.01-.48.61-.39.99-.5-.01.48-.61.38-.99.5ZM25.46,75.22c-.59-.06-.66.19-1.07,0-.31-.88,1.41-.96,1.07,0ZM25.32,67.61v-.8c.35,0,.76-.05.94.13-.03.5-.55.52-.94.67ZM28.4,66c.33-.12.58-.31,1.07-.27.04.76-.56.87-.53,1.6-.6-.02-.4-.85-.54-1.33ZM28.93,74.15c-.11-.83,1.34-.87,1.2,0-.5-.08-.85.34-1.2,0ZM30.4,74.69h.67c-.02.33.3.32.4.53-.26.6-1.2.09-1.07-.53ZM31.2,72.82c.35-.04.57.05.53.4-.35.04-.67.04-.53-.4ZM31.6,79.1c.03-.24.23-.3.54-.27.13.4-.3.24-.54.27ZM32.94,78.56h-.27v-.27h.27v.27ZM33.08,74.96c-.25-.02-.45-.09-.54-.27-.38.03-.17.64-.67.53-.12-.32-.31-.58-.27-1.07.12-.06.24-.12.27-.27.57-.03.95.12,1.34.27.02.33.02.64-.13.8ZM34.54,73.35h.4v.4h-.4v-.4ZM33.88,65.07c-.03.15-.13.07-.13,0,.03-.15.13-.07.13,0ZM33.48,67.87h.54c.13.4-.3.24-.54.27v-.27ZM35.21,75.22h-1.34c-.06-.32.24-.29.13-.67h1.07c-.05.32.25.29.13.67ZM35.88,65.73c-.07-.07.1-.17.13-.13.07.07-.1.17-.13.13ZM45.5,76.42c.56-.15.56.95,0,.8-.04-.31-.26-.55,0-.8ZM44.97,70.68c-.12.23-.47.35-.67.13.01-.34.5-.32.67-.13ZM44.17,74.15c-.39-.1-.56-.42-.53-.94.45.03.87.54.53.94ZM43.23,70.14c.4-.13.24.3.27.53-.23-.12-.52-.3-.27-.53ZM38.56,51.3c-.03.15-.13.08-.13,0,.02-.15.13-.07.13,0ZM38.42,69.48v-.27h.53c.13.4-.3.24-.53.27ZM40.02,72.28v-.27c.27-.05.42.03.4.27h-.4ZM40.83,76.83h-.27v-.27h.27v.27ZM40.83,73.22c.05-.17.24-.21.27-.4.33.05,0,.52-.27.4ZM42.7,76.02c-.52.08-.78-.11-1.07-.27-.04-.31.02-.51.13-.67.39.23,1.04.21.94.94ZM42.16,71.35c.16.06.27.17.27.4-.22.22-.78.11-.67.67-.5.09-.88.2-.8-.54.71.12.86-.3,1.2-.53ZM40.16,67.61c.29.09.23.16.18.32h.67v.99h-.99v-.79c-.37.02-.81.12-.92-.12-.14-.63,1,.02,1.07-.4ZM39.02,65.94c.26.26-.36.63-.49.5-.26-.26.36-.63.49-.5ZM39.52,47.13c.01-.48.61-.39.99-.5-.01.48-.61.38-.99.5ZM67.24,24.85c.26.25-.36.63-.5.49-.25-.26.36-.63.5-.49ZM64.27,23.37c.26.26-.36.63-.5.49-.26-.26.36-.63.5-.49ZM61.3,22.37c-.01.48-.61.39-.99.5.01-.48.61-.39.99-.5ZM59.82,22.37c-.01.48-.61.39-.99.5.01-.48.61-.39.99-.5ZM57.34,23.86c.26.26-.36.63-.5.5-.26-.26.36-.63.5-.5ZM56.46,27.91c-.14.12-.04.49-.4.4v-.4h.4ZM55.93,23.77c.03-.15.27-.09.27-.27.54.1,0,.63-.27.27ZM56.35,21.88c.11,1.47-1.76,1.74-2.47.99.42-.74,1.59-.72,2.47-.99ZM54.46,23.64c-.01.34-.5.32-.67.13.1-.42.36-.17.67-.13ZM53.88,26.83c-.26-.26.36-.63.5-.5.26.26-.36.63-.5.5ZM51.12,23.1c.37.06.42.43.31.7.65-1.83,2.33,1.51,2.45.06,1.25,1.23-1.66.69-2.48,0,0-.01,0-.02.01-.03-.04.08-.09.16-.16.21-.18-.05-.21-.23-.4-.27-.02-.33.21-.41.27-.67ZM52.72,25.11c-.29.06-.26-.19-.27-.4.16.06.27.17.27.4ZM47.93,22.37v1.49c-.88.11-2.48-.5-1.98.99-.54-.12-.34-.99-.99-.99.29-1.2,1.87-1.1,2.97-1.49ZM47.91,24.57c-.01.34-.5.32-.67.13.01-.34.5-.32.67-.13ZM46.45,27.33c-.22.61-.63,1.02-1.49.99.22-.61.63-1.02,1.49-.99ZM43.97,23.86c-.09.56-.5.27-.5,0,.09-.56.5-.27.5,0ZM43.48,26.83c.26.26-.36.63-.5.49-.26-.26.36-.63.5-.49ZM43.1,24.84c-.28.06-.36-.09-.54-.13.02-.39.64-.32.54.13ZM39.36,28.85c-.08-.81.65-.68,1.2-.54v.67c-.4.19-.72-.06-1.2-.13ZM40.83,30.85c-.04-.31.02-.51.13-.67.3-.04.5.03.53.27.06.42-.29.43-.67.4ZM40.51,29.8c0-.32.29-.38.58-.42-.1-.03-.13-.13-.26-.13.03-.11.13-.13.13-.27.11.02.13.13.27.13-.02.11-.13.14-.13.26.14-.02.28-.04.4-.07-.01.48-.61.39-.99.5ZM41.49,27.78c.34.02.52.19.54.53-.13,0-.1.16-.13.27-.74.16-.76-.56-.4-.8ZM41.9,29.78h.4c.06.28-.09.35-.13.53-.24-.03-.31-.23-.27-.53ZM42.49,34.26c.26.26-.36.63-.5.5-.26-.26.36-.63.5-.5ZM41.5,41.19c-.26-.26.36-.63.49-.5.26.26-.36.63-.49.5ZM42.03,35.66c.38.02.92-.11.94.27,0,.79-1.49.31-.94-.27ZM43.48,31.29c-.26-.26.36-.63.5-.5.26.26-.36.63-.5.5ZM44.03,29.38s-.01,0-.02,0c.05.42-2.01,1.33-1.52.42.05-.09.47-.44.88-.57.03-.38.79-.34.67.15ZM43.97,28.81c-.26-.26.36-.63.49-.5.26.26-.36.63-.49.5ZM44.96,30.3c-.06-.02-.1-.04-.15-.07.11.11.24.19.16.49-.62,0-.78-.47-.8-1.07.2-.05.25.04.29.15-.05-.49.67-1.08,1.44-1.09,0-.28,0-.53.14-.66.5.03.86.21,1.07.53.07.35-.25.44-.59.42.5,1.45-1.74.16-1.56,1.3ZM45.95,33.27c.09-.56.5-.28.49,0-.09.56-.5.27-.49,0ZM46.17,40.61c.17-.23.28-.52.67-.53.02.42-.34.46-.67.53ZM48.18,39.14c-.57-.12-.76.14-.94.4-.42.06-.6-.12-.54-.54.6.07.71-.36.94-.67.44-.03.64.16.67.53-.13,0-.1.16-.13.27ZM50.41,34.26c-.26-.26.36-.63.5-.5.26.26-.36.63-.5.5ZM51.65,32.46c-.41.26-.67.67-1.07.94-.76-.28-.87-.12-1.74,0,.02-.11-.05-.13-.13-.13-.45-.04-.39-.59-.8-.67-.06-.39-.57-.32-.67-.67.23-.71.63-1.49.27-2.41.51-.16,1.02-.32,1.33-.67.58.18.85.06,1.47,0,.56.38.87,1,1.34,1.47-.14.86.24,1.13,0,2.14ZM52.72,34.86c-.07-.11-.14-.22-.13-.4,0-.09-.08-.12-.16-.14.11.25-.41.56-.53.43-.17-.17.05-.4.26-.49-.04-.01-.08-.03-.1-.07-.04-.24.75-.24.54.13.39,0,.75.05.67.53h-.53ZM51.9,30.3c-.18-.84.39-.94.99-.99-.5-.66-.82-1.49-1.49-1.98-.42-.09-.47.19-.49.49-.9-1.87,3-.17,4.95-.49-.49.67-1.32.99-1.98,1.49-1.3-.15-.39,1.92-1.98,1.49ZM53.88,30.79c-.26-.26.36-.63.5-.49.26.26-.36.63-.5.49ZM56.85,30.3c-.77,1.37-2.43-.49-2.47-1.49,1.22-.07,2.38-.08,2.97.49-.28.46-1.38.75-.5.99ZM57.34,27.33c.12-.62.98-.5.99,0-.44.3-.89.6-.99,0ZM58.83,27.82c.01-.48.61-.38.99-.49-.01.48-.61.38-.99.49ZM61.41,29.25h-.27v-.27h.27v.27ZM60.31,26.83c.08-.58.9-.42,1.49-.5-.08.58-.9.42-1.49.5ZM62.79,24.85c-.2-1.23-2.27-.38-1.48.99-.4-.43-1.36-.3-1.49-.99-3.68.11-.4-.76.99-.99,0,1.16,1.35-.18.99-.99,1.32.33,1.81,1.49,2.47,2.48.99-.17,1.55.1,1.49.99-.7-.45-5.26-1.22-2.97-1.48ZM65.26,23.86c-.26-.26.36-.63.5-.49.26.26-.36.63-.5.49ZM66.75,26.34c-.25-.26.36-.63.5-.49.26.26-.36.63-.5.49Z"/>
  </g>
</svg>