<?xml version="1.0" encoding="UTF-8"?>
<svg id="Layer_1" data-name="Layer 1" xmlns="http://www.w3.org/2000/svg" xmlns:xlink="http://www.w3.org/1999/xlink" viewBox="0 0 600 147">
  <defs>
    <style>
      .cls-1 {
        fill: url(#linear-gradient-8);
      }

      .cls-2 {
        fill: url(#linear-gradient-7);
      }

      .cls-3 {
        fill: url(#linear-gradient-5);
      }

      .cls-4 {
        fill: url(#linear-gradient-6);
      }

      .cls-5 {
        fill: url(#linear-gradient-9);
      }

      .cls-6 {
        fill: url(#linear-gradient-4);
      }

      .cls-7 {
        fill: url(#linear-gradient-3);
      }

      .cls-8 {
        fill: url(#linear-gradient-2);
      }

      .cls-9 {
        fill: url(#linear-gradient);
      }

      .cls-10 {
        fill: url(#linear-gradient-10);
      }

      .cls-11 {
        fill: url(#linear-gradient-11);
      }

      .cls-12 {
        fill: url(#linear-gradient-12);
      }

      .cls-13 {
        fill: url(#linear-gradient-13);
      }

      .cls-14 {
        fill: url(#linear-gradient-14);
      }

      .cls-15 {
        fill: url(#linear-gradient-15);
      }
    </style>
    <linearGradient id="linear-gradient" x1="154.04" y1="23.86" x2="154.04" y2="100.11" gradientTransform="translate(0 150) scale(1 -1)" gradientUnits="userSpaceOnUse">
      <stop offset="0" stop-color="#886226"/>
      <stop offset="1" stop-color="#e3a732"/>
    </linearGradient>
    <linearGradient id="linear-gradient-2" x1="177.23" y1="23.86" x2="177.23" y2="100.11" xlink:href="#linear-gradient"/>
    <linearGradient id="linear-gradient-3" x1="218.77" y1="23.86" x2="218.77" y2="100.11" xlink:href="#linear-gradient"/>
    <linearGradient id="linear-gradient-4" x1="272.6" y1="23.86" x2="272.6" y2="100.11" xlink:href="#linear-gradient"/>
    <linearGradient id="linear-gradient-5" x1="308.45" y1="23.86" x2="308.45" y2="100.11" xlink:href="#linear-gradient"/>
    <linearGradient id="linear-gradient-6" x1="323.34" y1="23.86" x2="323.34" y2="100.11" xlink:href="#linear-gradient"/>
    <linearGradient id="linear-gradient-7" x1="382.97" y1="23.86" x2="382.97" y2="100.11" xlink:href="#linear-gradient"/>
    <linearGradient id="linear-gradient-8" x1="442.58" y1="23.86" x2="442.58" y2="100.11" xlink:href="#linear-gradient"/>
    <linearGradient id="linear-gradient-9" x1="537.86" y1="23.86" x2="537.86" y2="100.11" xlink:href="#linear-gradient"/>
    <linearGradient id="linear-gradient-10" x1="506.93" x2="506.93" y2="100.11" xlink:href="#linear-gradient"/>
    <linearGradient id="linear-gradient-11" x1="571.72" y1="23.86" x2="571.72" y2="100.11" xlink:href="#linear-gradient"/>
    <linearGradient id="linear-gradient-12" x1="53.69" y1="23.86" x2="53.69" y2="100.11" xlink:href="#linear-gradient"/>
    <linearGradient id="linear-gradient-13" x1="88.04" y1="23.86" x2="88.04" y2="100.11" xlink:href="#linear-gradient"/>
    <linearGradient id="linear-gradient-14" x1="57.33" y1="23.86" x2="57.33" y2="100.11" xlink:href="#linear-gradient"/>
    <linearGradient id="linear-gradient-15" x1="42.94" y1="23.86" x2="42.94" y2="100.11" xlink:href="#linear-gradient"/>
  </defs>
  <path class="cls-9" d="M185.78,93.36l-.54-1.26-.19-.19c-1.26-1.43-1.61-1.8-2.34-2.34l-.19-1.43v-.54l.19-3.41v-.19l-.19-1.43-.35-1.26v-1.43l.19-1.61v-4.3c0-.72,0-1.8-.19-2.5l-.72-4.84-.19-1.96v-5.56l.19-2.69.72-4.84.19-1.61v-.19c0-1.07-.35-2.15-1.07-3.04-.35-.72-.72-1.07-.72-1.26-.12-.12-.19-.24-.19-.35-.19-.19-.19-.35-.19-.54-.35-.72-.54-1.26-.72-1.26,0-.19-.19-.35-.19-.54l-.72-3.04c-.19-.54-.54-1.26-1.07-1.96-1.07-1.07-1.96-1.8-3.04-2.15l-3.04-1.07-2.15-.89c-1.22-.51-2.24-.86-3.11-.89.09.12.19.23.26.4-.05.63-.82.54-1.33.68-.3-.42-.05-.79.14-1.17l-2.76-.28-.89-.19c-.35,0-.89,0-1.43.19-.54,0-.89.19-1.07.19-.35,0-.54.19-.72.19l-6.64,4.11-1.43.35-1.8-1.61.89-2.69.35-.54.54-.54.35-1.26c0-1.96-1.43-2.69-5.21-2.69-2.15,0-2.69.19-5.37,1.96l-2.15,1.43c-2.34,1.43-4.67,2.5-6.82,2.87l-2.87.54c-2.5.54-4.49,2.69-4.49,4.67v.35l.35,1.43,1.8.72,2.87,1.07c.54.19.89.72,1.07,1.07.19.19.19.35.19.54l-.19,1.07-.35,1.96-.35,1.26v.72c1.43,1.61,1.8,2.5,1.8,4.49v.72l-.19,2.34-.35,2.87-.19,2.87-.05,1.12c.37.23.7.51,1.26.56.14.42,0,.3,0,.79-.33.16-.82.16-1.07.4-.12,0-.19-.02-.26-.07l-.05,1.31-.07,1.05c1.4.23.89,2.17-.14,2.29l-.14,1.33.07.89c.4,0,.84-.05,1.03.14,0,.33,0,.65-.14.79-.26-.19-.61-.28-.86-.47l.07,1.15-.35,5.19.19,2.69v.35c0,1.26-.19,2.5-1.07,5.02l-.35.19-.72,1.8c-.54,1.26-1.07,1.96-1.43,2.15l-2.5.89c-1.26.54-2.34,2.52-2.34,4.67,0,1.07.72,1.96,1.8,1.96l2.5.35,1.61.35,1.61.19,4.49.19h1.43l1.96-.19,8.06.19,2.69-.19h2.34c1.61,0,2.87-1.8,2.87-3.95,0-.72-.19-1.07-.72-1.8-.19-.35-.35-.72-.54-.72l-2.15-1.26c-.72-.54-1.07-.72-2.15-1.8-.54-.72-.89-1.26-1.07-1.43l-.89-2.15v-.35c-.72-2.34-1.07-5.75-1.07-12.01v-4.11l.35-1.07.89-5.02v-3.95l.19-4.3.19-1.8v-1.43l.19-1.07v-.19l.54-1.07.72-1.96c1.43-3.95,5.02-6.45,9.14-6.45,6.64,0,10.59,4.49,10.59,12.2v7.52l-.19,1.07-.35,3.04v2.34l.35,3.22v3.41l.19,2.87v.72c0,1.26-.19,2.87-.54,5.02l-.35,2.15v1.26c0,1.61-.89,3.04-2.87,4.3-4.67,2.87-5.37,3.76-5.37,5.75,0,2.34,1.07,3.06,4.67,3.06h4.11l1.96-.35,3.22-.19,3.41-.35h1.43l3.76-.19h.19l2.69.35h.35c1.96,0,3.22-1.07,3.41-2.87l-.54-1.96-.54-1.07v-.07ZM132.73,66.84c.42,0,.89-.42,1.22-.14-.07.58.19.68,0,1.07-.63.28-1.38-.05-1.22-.93ZM133.83,96.58c-.05-.3,0-.51.14-.68.3-.05.51.02.54.26.07.42-.28.42-.68.4v.02ZM141.05,33.3v.54c-.3.07-.68.26-.93,0-.21-.7.61-.82.93-.54ZM136.75,54.1c.26-.05.42.02.4.26h-.4v-.26ZM134.9,93.76v-.4c.4-.19.4.61,0,.4ZM136.52,81.56c.05-.3.35-.3.54-.14-.05.3-.35.3-.54.14ZM137.29,58.52c-.65.14-.26-.72,0-.28v.28ZM137.99,88.52h-.54c-.12-.51.63-.51.54,0ZM140.65,56.11c-.42.07-.37-.33-.54-.54-.28-.05-.35-.26-.54-.4,0-.49.47-.51.68-.79.58.23,1.05.56.93,1.47-.19.07-.33.19-.54.26ZM141.35,70.27c-.16-.19-.16-.49,0-.68.44-.02.61.75,0,.68ZM141.99,61.2h-.4v-.4h.4v.4ZM142.41,73.54c.05-.33-.23-.28-.14-.68.19-.21.89-.21,1.07,0,.07.61-.4.68-.93.68ZM164.02,96.05c-.21-.05-.23.12-.4.14-.89-.23-.86-1.24-.26-1.75h.68c.21.3.21,1.31,0,1.61h-.02ZM170.99,93.27c-.07-.26.61-.44.68-.14.14.49-.58.23-.68.14ZM175.54,92.87s.09-.16.14-.14c.07.07-.09.16-.14.14ZM175.8,49.26c.44-.02.65.16.68.54-.47.05-.77-.05-.68-.54ZM176.1,73.36v-.4c.4-.19.4.61,0,.4ZM176.1,87.84c.05-.16.35-.12.4,0,.12.28-.49.3-.4,0ZM177.58,73.89v-.28s.12-.05.14-.14c.26-.05.19.61-.14.4v.02ZM177.97,73.36c-.05-.3-.26-.56,0-.79.21-.05.23.12.4.14,0,.35-.02.7-.4.68v-.02ZM178.51,64.5c0,.44-.61.28-.4.93-.58.05-.3.96-1.07.79-.21-.21-.23-.91.26-.79-.65-.12-.09-1.43-.93-1.33-.14-1.12,1.61-1.71,2.01-.68-.02.23.14.68-.28.54-.05.35.51.12.4.54h.02ZM179.73,73.89v-.4c.28-.05.35.09.54.14-.02.23-.23.3-.54.28v-.02ZM179.87,70.01h.68c0,.3-.82.72-.68,0ZM184.12,95.81c.58.07,1.05.28.93,1.07-.63-.05-.98-.35-.93-1.07Z"/>
  <path class="cls-8" d="M177.18,64.24s.12-.16.26-.14v-.26c-.14,0-.16-.12-.26-.14-.05.09-.33.51,0,.54Z"/>
  <path class="cls-7" d="M243.69,89.06l-4.11-.89c-2.15-.54-2.87-2.15-2.87-6.45v-2.34l.19-1.8.35-4.65.35-8.44.19-7.17v-1.43l-.19-3.76-.19-2.99c-.16-.12-.21-.35-.26-.58.07-.07.14-.09.21-.12l-.12-1.87v-1.43l.19-1.8v-.19c0-2.87-1.61-6.1-3.76-7.52l-2.5-1.61-1.96-1.26-1.96-.72c-.35-.19-1.07-.35-2.69-.54-1.26-.35-2.5-.54-3.76-.72-.72-.19-1.8-.19-2.5-.19h-1.96c-3.04,0-5.37.54-7.9,1.8l-2.5,1.26-.72.35-1.26,1.07-.54.19-.35.35c-.35.19-1.07.89-1.8,1.43-.12.12-.24.24-.35.35l-.89,1.8-1.07,1.43-.35.72v1.96l-.09.63s.05.05.07.07c0,.14-.07.23-.12.33v.23c1.05.89,2.83,1.61,4.28,1.61h.89l1.26-.19h2.34l1.61-.35,2.15-.19c.54,0,1.26-.54,2.15-1.07.72-.54,1.43-1.26,1.8-1.61l.72-1.07c.35-.35.89-.89,1.43-1.61.35-.35.54-.54.72-.72l1.96-.35h.35c2.69,0,3.95,2.5,3.95,8.6,0,2.5-.19,4.11-.72,5.56l-.54,1.43-.54,1.96-.54.72-1.07,1.07-1.61,1.8c-.72.72-2.34,1.96-3.58,2.69l-4.3,2.34-8.25,3.22-4.49,3.22c-4.67,3.41-5.91,6.29-5.91,13.81,0,10.4,4.11,15.24,13.09,15.24h4.49c2.69,0,4.3-.19,5.02-.72l3.76-2.34,2.15-.54,1.96.72,2.15,2.15c1.07,1.07,2.87,1.43,6.99,1.43s5.91-.35,7.9-1.43l.89-.54c2.34-1.43,3.76-3.41,3.95-5.37l.19-2.5v-.35c0-.54-.19-1.07-1.07-1.96l-.19-.19-.09.02ZM195.8,77.16c.07-.19.12,0,.28,0-.02.16-.26.14-.28,0ZM197.56,82.49c-.54.14-.65-.42-.4-.68h.4v.68ZM200.78,91.75c.35-.05.58.05.54.4-.26.26-.65.07-.54-.4ZM205.31,83.22s.09-.16.14-.14c.07.07-.09.16-.14.14ZM205.76,79.66c-.12-.47.14-.56.26-.79.19.05.21.23.4.28-.02.37-.23.56-.68.54l.02-.02ZM207.63,87.73h-.28v-.26h.28v.26ZM211.23,97.31c-.12-.37-.33-.65-.4-1.07.65-.61,1.22-.21,2.01,0,.05.93-.82.98-1.61,1.07ZM213.54,97.52c-.47-.05-.56-.28-.4-.68h.54c.05.3,0,.51-.14.68ZM214.85,98.9c-.23,0-.42-.02-.54-.14.02-.23.23-.3.54-.26v.4ZM215.15,98.31c.33-.09.84-.3.79.28-.21.21-.91.23-.79-.28ZM222.51,97.12s.09-.16.14-.14c.07.07-.09.16-.14.14ZM222.89,78.29c-.35,1.26-.35,1.96-.35,2.69v1.43l.19,1.61-.19,1.07-.89,1.8-.72,1.61c-1.43,1.07-3.04,1.61-4.84,1.61-5.21,0-7.52-2.5-7.52-7.9,0-2.87.72-5.75,1.8-7.36l1.07-1.61.72-1.07.35-.35.89-.89c.21-.14.44-.33.68-.51-.21-.16-.19-.58,0-.77.3.02.42.19.44.4.21-.19.44-.35.68-.54,1.43-1.26,2.34-1.8,2.69-2.15.89-.54,2.15-.89,3.04-.89h.35l1.07.19v2.15l-.54,4.67v.19l.35,1.43v.72c.19.35.19.54.35,1.07l.54.19-.19.72v.54l.02-.05ZM223.19,91.75h-.26v-.28h.26v.28ZM225.74,75.11s.09-.16.14-.14c.07.07-.09.16-.14.14ZM228.17,84.9c-.4.19-.84.16-1.07-.14-.16-1.12,1.36-.98,1.07.14ZM230.97,86.77v-.4c.21-.21.98-.21,1.22,0-.02.58-.84.54-1.22.4ZM232.05,74.29c-.19-.4-.14-.68.14-.93.4-.02.47.26.68.4,0,.42-.3.58-.82.54ZM233.26,46.93h-.26v-.4c.21-.05.23.12.4.14-.02.12-.14.14-.14.26ZM235.67,40.62c0-.14-.16-.09-.26-.14-.26-.93.75-.96.93-.4-.02.37-.23.56-.68.54Z"/>
  <path class="cls-6" d="M281.1,97.12c-.19.21-.79.21-.61-.28.28-.05.44,0,.61.09l-.09-1.8-.72-1.07-1.26-1.96-.54-.72-1.26-1.07-.89-.72c-1.26-.89-1.43-1.96-1.61-6.29l-.19-6.64v-2.2c-.42-.35-1.38-.16-1.17-1.12.47-.07.86-.05,1.17.05v-7.29l.19-2.15v-1.19c-.68-.12-.93-.12-1.61,0-.33-.4-.51-.91-.54-1.61.35-.3.96-.05,1.22.14.49.02.61-.14.93-.05v-.37c-.14-.16-.35-.26-.54-.37-.12-.47.44-.23.54-.14,0-.26.05-.7.19-1.24v-1.43l-.19-.35v-.58c-.07.44-.86.3-.68-.28h.54c0,.16.02.23.14.26,0-.72.19-1.78.35-3.18v-.56h-.61c-.05-.33.23-.28.14-.68h.37s-.02-.12-.05-.19v-2.15c0-4.3,1.61-6.82,4.49-7.71l.19.35c.28,1.1.61,2.06,1,2.85.09,0,.19-.05.19-.14.4.12.14.21.14.54h-.12c1.17,2.13,2.83,3.2,5.23,3.2h2.87c3.76,0,5.91-3.76,5.91-10.21,0-2.5-.19-2.87-1.07-4.3-.54-.19-.72-.35-.89-.54l-.54-.35c-.23-.12-.48-.24-.72-.35l-.19-.19c-1.96-1.61-4.14-2.5-6.1-2.5h-.19l-3.95.89-2.5.72-1.26.89-1.61,1.07-1.07.72-.72.19c-.35-3.22-.72-3.95-2.15-3.95h-.35l-.72.19c-1.43.35-2.5.72-2.87,1.07l-3.95,3.04-2.5,1.43-1.07.35-1.29.7c.3-.07.65-.23.89,0-.16.33-.14.84-.79.68-.12-.16-.16-.35-.14-.65l-.98.54-5.37,2.69c-1.61.72-2.34,1.8-2.34,3.04,0,.72.72,1.61,1.8,2.15l3.95,1.8c1.26,1.07,2.15,2.15,2.34,2.87l.35,1.26.35.72.72,2.5.19,1.43v4.3l-.19,1.96-.19,2.87-.35,3.41v1.07l.72,3.95v2.34l-.19,3.95-.19,2.15v.89l-.72,4.84-.54,1.26-.35.54-.19.35-2.69,2.15-.72.54-1.61,1.8-.89.89c-.35.72-.72,1.61-.72,2.15v.19l.19,1.26c.54.89,1.26,1.26,2.69,1.26,2.71,0,4.98-.33,8.86-1.59.05-.21.16-.44.23-.63.42-.07.54.16.68.4h2.8l2.5-.19h6.82l2.87-.33v-.05s.05.02.07.05h.26l.4-.07c0-.09-.02-.16-.05-.26.3,0,.54.09.72.19l.89-.09-.07-1.43-.02.05ZM290.54,36.34h.68c.21.7-.89.7-.68,0ZM287.2,43.44c-.16-.05-.28-.16-.28-.4.16.07.28.16.28.4ZM285.84,38.21h.54c.14.4-.3.23-.54.28v-.28ZM285.59,48.4c-.12.23-.47.35-.68.14,0-.35.49-.33.68-.14ZM283.83,47.86c.4-.14.23.3.28.54-.23-.12-.51-.3-.28-.54ZM276.59,43.3s-.09.16-.14.14c-.07-.07.09-.16.14-.14ZM274.44,42.77c-.02.16-.14.07-.14,0,.02-.16.14-.07.14,0ZM274.04,45.59h.54c.14.4-.3.23-.54.26v-.26ZM255.79,47.46c-.07-.42.12-.61.54-.54.07.42-.12.61-.54.54ZM258.48,98.06c-.35.21-1.61.54-1.87,0-.09-.44.23-.49.54-.54.05-.33-.23-.28-.14-.68.98-1,1.92.4,2.29,1.22-.09.09-.75.3-.79,0h-.02ZM259.95,99.78s-.12.05-.14.14h-.26s-.05-.14-.14-.14v-.28s.12-.05.14-.14h.26s.05.12.14.14v.28ZM262.92,54.05c-.49.44-.63-.26-.93-.4.09-.19,1.05-.07.93.4ZM262.64,74.03h.28c.07.28-.19.26-.4.26.02-.12.14-.14.14-.26h-.02ZM262.38,61.16c-.16-.19-.16-.49,0-.68.63,0,.63.68,0,.68ZM262.1,44.52c-.3.05-.51,0-.68-.14,0-.4.79-.35.68.14ZM259.55,50.97c.26-.26.98-.21.79.4-.26.23-.82.05-.79-.4ZM260.23,62.49c.26-.4,1.03-.28.93.4-.33.28-1,.09-.93-.4ZM261.31,58.75c.47-.05.77.05.68.54h-.68v-.54ZM262.78,87.31c-.42.07-.51-.19-.79-.28-.02-.84.51-1.1,1.22-1.22-.14.49-.28.98-.4,1.47l-.02.02ZM273.9,57.67c.42-.47.72.28,0,0h0ZM273.9,58.47c0,.35-.19.51-.54.54-.26-.21-.42-.49-.4-.93.51-.07.84.05.93.4ZM273.25,56.32v-.28h.26v.28h-.26ZM273.78,43.58c-.47.14-1.43-.23-1.33-1.07.89-.07,1.36.26,1.33,1.07ZM273.64,51.37c-.42.09-.26.09-.68,0,.05-.3.47-.26.4-.68.44-.14.21.42.26.68h.02ZM273.36,49.08c-.21.21-.77.19-.68-.28.21-.21.77-.19.68.28ZM273.64,49.61c0,.35.05.77-.14.93-.37,0-.23-.56-.26-.93h.4ZM272.43,51.62c.56-.02.96.12,1.33.26,0,.33,0,.65-.14.79-.26,0-.44-.09-.54-.28-.37.02-.16.63-.68.54-.12-.33-.3-.58-.26-1.07.12-.07.23-.12.26-.26l.02.02ZM272.17,56.86c.02-.23.23-.3.54-.28.14.4-.3.23-.54.28ZM271.77,50.55c.35-.05.58.05.54.4-.35.05-.68.05-.54-.4ZM271.35,50.29c-.3.42-.54-.47,0,0h0ZM270.96,52.44h.68c-.02.33.3.33.4.54-.26.61-1.22.09-1.07-.54h0ZM271.63,58.21c-.42-.02-.98.09-1.22-.14-.16-1.1,1.52-1.03,1.22.14ZM269.48,51.9c-.12-.84,1.36-.86,1.22,0-.49-.09-.84.35-1.22,0ZM270.02,51.08c-.05-.3,0-.51.14-.68.61-.09.49.89-.14.68ZM270.28,48.54c-.09.12-.14.3-.14.54-.58.07-.47-.72.14-.54ZM270.02,43.44c.05.75-.56.86-.54,1.61-.61,0-.4-.84-.54-1.33.33-.12.58-.3,1.07-.28h0ZM268.67,76.72c-.28-.26,0-.58.28-.68-.05-.3-.47-.26-.4-.68.58-.14.44.44.93.4-.16.42-.3.86-.82.93v.02ZM269.34,81.81v.28c-.37,0-.28.21-.54,0v-.28c.26-.23.16,0,.54,0ZM269.09,58.07v.54c-.44.02-.54-.63,0-.54ZM269.09,57.25h-.68c-.14-.65.82-.65.68,0ZM268.41,72.56c.49.21.65.79.26,1.22-.51.12-.47-.33-.79-.4-.02-.47.44-.44.54-.79v-.02ZM268.41,80.88c0,.35-.19.51-.54.54-.09-.44.23-.49.54-.54ZM267.33,72.02c.07.42-.12.61-.54.54v-.54h.54ZM266.94,70.27c.49.4-.4.44,0,0h0ZM267.08,63.84c-.42,0-.58-.3-.54-.79.4-.37,1.07-.28.93.54-.19.05-.21.23-.4.28v-.02ZM265.58,71.21c-.84.09-1.05-.49-1.61-.68,0-.33,0-.65.14-.79.75-.16.47.7,1.07.68.44-.19.63-.61.93-.93.4.05.54.75.26,1.07-.33.23-1.03-.3-.79.68v-.02ZM266.66,58.87c.19.35.79.26.79.79-.61-.09-1.07.44-1.47.14-.23-.58,1.03-.84.28-1.07-.09-.42.37-.26.26-.68.56-.09.47.72.14.79v.02ZM266.8,44.66c-.02.51-.56.51-.93.68v-.79c.35,0,.77-.05.93.14v-.02ZM265.47,44.12c.26-.05.42.02.4.26h-.4v-.26ZM266,52.98c-.58-.07-.65.19-1.07,0-.3-.89,1.4-.96,1.07,0ZM264.11,53.09c.51-.07.86.05,1.07.28-.26.42-.35.98-1.07.93-.21-.21-.21-.98,0-1.22ZM264.39,72.56c-.16,0-.23.02-.28.14-.35,0-.3-.49-.14-.68.19.12.51.12.4.54h.02ZM265.47,81.95s.14-.14.14-.26c.16.05.28.16.26.4-.21.05-.23-.14-.4-.14ZM265.86,74.29h-.68c-.26-.28-.35-.72-.4-1.22.23,0,.28-.16.54-.14.14-.49-.33-.37-.26-.79.44-.23.91-1.07,1.47-.4.09.79-.12,1.31-.14,2.01-.42.07-.47-.23-.93-.14-.14.49.51.21.4.68h0ZM266.26,78.59s-.09.16-.14.14c-.07-.07.09-.16.14-.14ZM266.12,82.75c-.05-.35.19-.44.54-.4.05.35-.19.44-.54.4ZM266.54,76.86c-.19-.4-.37-.79,0-1.07.42.26.7.63,1.07.93-.09.49-.54-.02-1.07.14ZM267.08,74.97c.47-.05.77.05.68.54-.33.33-.84.05-.68-.54ZM267.62,73.36s.09-.16.14-.14c.07.07-.09.16-.14.14ZM267.87,94.43v-.4c.4-.19.4.61,0,.4ZM269.09,94.57c.09-.82-.79-.65-.93-1.22.37-.19.79.19,1.07-.26.61.21,1.05,1.57-.14,1.47h0ZM270.42,85.3c-.44-.23-1.03-.3-1.47-.54.05-.72.63-1.45,1.33-1.07.09.37-.26.28-.26.54.14.35.63.79.4,1.07ZM269.74,80.2c0-.14.16-.09.28-.14,0,.14-.16.09-.28.14ZM272.17,96.44c-.23.16-.96,0-1.22-.26.19-.35.49-.58,1.07-.54.16.16.14.47.14.79ZM271.77,73.89c-.35.05-.58-.05-.54-.4.35-.05.68-.05.54.4ZM271.63,85.18s.09-.16.14-.14c.07.07-.09.16-.14.14ZM270.7,60.34c-.56-.37-.47-1.4-1.22-1.61v-.4s.21-.14.4-.14c.35-.09.26.28.4.4.4.05.68.21.93.4.19-.02.05-.4.28-.4.61.05.63.7.79,1.22.91.19.77-.93,1.47-.54.16.77-.47.79-.93,1.07-.12.07-.14.35-.4.28-.16-.79-1.03-.09-1.75-.28h.02ZM272.83,65.46c.02-.16.26-.14.26,0-.05.19-.12,0-.26,0ZM274.18,90.95s-.09.16-.14.14c-.07-.07.09-.16.14-.14ZM274.04,91.89c.19-.21.68-.12,1.07-.14.14.72-.42.75-.93.79-.12-.16-.19-.35-.14-.68v.02ZM274.72,94.29c-.05-.19-.23-.21-.26-.4-.02-.42.47-.33.68-.54,0-.26-.37-.16-.26-.54.68-.49.93.44,1.47.54-.26.61-.98.72-1.61.93h-.02ZM276.45,92.54h-.68c-.19-.16-.19-.63,0-.79.49-.05.79.12.82.54-.14,0-.09.16-.14.28v-.02ZM276.99,94.29s-.09.16-.14.14c-.07-.07.09-.16.14-.14ZM276.87,95.91v-.4c.28-.07.35.09.54.14-.02.23-.23.3-.54.28v-.02ZM278.06,94.57c-.21-1.12,1.12-.82,1.22-.14-.33.23-.77.35-1.22.14Z"/>
  <path class="cls-3" d="M308.25,96.44v.4h.4c.02-.3-.12-.42-.4-.4Z"/>
  <path class="cls-4" d="M348.28,89.06l-4.14-.89c-2.01-.51-2.78-1.96-2.85-5.68h-.02c-.68-.05-.77-.65-1.33-.79.37-.79-.23-.89-.4-1.47-.72.05-1.26-.07-1.36-.68.21-.16.89-.54,1.07-.26.65-.37,1.33-.7,2.13-.93l.07-.75.35-4.67.35-8.44.19-7.17v-1.43l-.19-3.76-.35-5.56v-1.43l.19-1.8v-.19c0-2.87-1.61-6.1-3.76-7.52l-2.52-1.61-1.96-1.26-1.96-.72c-.35-.19-1.07-.35-2.69-.54-1.26-.35-2.5-.54-3.76-.72-.72-.19-1.8-.19-2.5-.19h-1.96c-3.04,0-5.37.54-7.9,1.8l-2.5,1.26-.72.35-1.26,1.07-.54.19-.35.35c-.35.19-1.07.89-1.8,1.43-.12.12-.24.24-.35.35l-.89,1.8-1.07,1.43-.35.72v1.96l-.19,1.26c1.07.89,2.87,1.61,4.3,1.61h.89l1.26-.19h2.34l.98-.21c-.14-.19-.12-.47,0-.75.3-.05.51,0,.68.14,0,.23-.09.37-.21.51h.16l.42-.07c.05-.4.54-.96.98-.58,0,.23-.07.4-.16.51l.93-.07c.54,0,1.26-.54,2.15-1.07.72-.54,1.43-1.26,1.8-1.61l.72-1.07c.35-.35.89-.89,1.43-1.61.35-.35.54-.54.72-.72l1.96-.35h.35c1.99,0,3.18,1.38,3.67,4.56.51-.02,1-.05,1.03.4.3-.23.56-.51.93-.68.28.07.28.21.14.4.14.35.54.44,1.07.4.12.16.19.35.14.68.09.3.47.33.68.54-.09.72.75.49.68,1.22,0,.28-.12.42-.4.4-.12.42.44.19.4.54-.3.77-1,1.15-1.22,2.01-.7-.12-.63.51-1.07.68-.47.12-.56-.14-.79-.28-.3.26-.91.44-1.4.35-.09,1.15-.3,2.08-.63,2.94l-.54,1.43-.54,1.96-.54.72-.49.49c.44.07.56.49,1.05.54.07.56-.4.58-.28,1.22-.58.21-1.36,1.1-2.01.4.21-.54.42-1.05.65-1.57h0l-1.61,1.8c-.72.72-2.34,1.96-3.58,2.69l-4.3,2.34-8.25,3.22-4.49,3.22c-1,.72-1.85,1.45-2.55,2.2,0,.28-.05.58-.28.58-.05,0-.12-.05-.16-.09-2.22,2.57-2.9,5.59-2.9,11.12,0,10.4,4.11,15.24,13.09,15.24h.89c-.14-.09-.21-.3-.16-.65.4-.12.42-.12.79,0,0,.33-.12.54-.28.65h3.22c2.59,0,4.18-.16,4.93-.65h-.14v-.4c.21-.21.37-.02.49.19l.26-.16s.05-.19.07-.28h.4l2.78-1.73,2.15-.54,1.96.72,2.15,2.15c1.07,1.07,2.87,1.43,6.99,1.43s5.91-.35,7.9-1.43l.89-.54c2.34-1.43,3.76-3.41,3.95-5.37l.19-2.5v-.35c0-.54-.19-1.07-1.07-1.96l-.19-.19h-.05ZM339.66,49.75s-.09.16-.14.14c-.07-.07.09-.16.14-.14ZM338.98,63.7c-.37.14-.56.16-.54-.4.35-.05.58.05.54.4ZM307.6,37.13h-.26v-.28h.26v.28ZM309.87,42.37c-.49-.12-.93-.3-.93-.93.28-.12.47-.35.93-.26.19.21.19.63.4.79.05.3-.4.14-.4.4ZM315.89,37.41c.05.35-.05.58-.4.54,0-.23-.16-.28-.14-.54h.54ZM313.35,43.84c-1.22.14-.63-1.52-1.87-1.33-.05-.54.14-.84.68-.79.3.65.56,1.31,1.22,1.61-.21.84.65.61.68,1.22-.35.35-1.12-.23-.68-.68l-.02-.02ZM314.42,43.7c-.4-.16-1-.61-.68-1.07.37.16.89.72.68,1.07ZM313.63,39.14c.3-.02.42.12.4.4h1.07c-.07,1.15-1.47.19-1.47-.4ZM316.18,40.5c-.4.33-.96-.02-.93-.54.37-.3,1.07-.07.93.54ZM319.12,42.65s.14-.14.14-.28h.28c.07.28-.19.26-.4.28h-.02ZM320.19,34.31v-.26c.28-.07.26.19.28.4-.12-.02-.14-.14-.28-.14ZM319.66,32.18c-.09-.51.82-.77.93-.26-.07.47-.61.37-.93.26ZM321.81,35.38c-.35.05-.58-.05-.54-.4.12-.09.3-.14.54-.14v.54ZM321.95,33.65c.65.02.89-.91,1.61-.4.21.93-1.52,1.38-1.61.4ZM308.93,75.36h.54c.12.51-.63.51-.54,0ZM308.79,74.57c.05.3-.4.14-.4.4-.19-.05-.12-.33-.14-.54.28-.05.35.09.54.14ZM308.39,75.79s-.09.16-.14.14c-.07-.07.09-.16.14-.14ZM307.18,69.87h.4c.28.35.19,1.19-.54.93-.07-.44.09-.63.14-.93ZM307.06,75.79c-.49.05-.37-.54-.79-.54v-.4c.54-.47,1.26.42.79.93ZM306.78,71.63c.19.77-.28.89-.54,1.22-.14-.26,0-.68-.14-1.22h.68ZM305.85,75.79c.05.28-.09.35-.14.54-.35,0-.51-.19-.54-.54.19-.16.49-.16.68,0ZM304.91,74.57c.05.33.21.51.14.93-.72.14-.75-.42-.79-.93h.68-.02ZM303.7,75.36c.42.26,1.15.77.93,1.22-.65.02-.93-.33-1.22-.68-.09-.37.26-.28.28-.54h0ZM301.83,75.65c.37,0,.91-.12.93.28,0,.79-1.5.3-.93-.28ZM301.94,82.09c-.28.21-.26-.26-.54-.4-.3-.16-.63,0-.82-.28-.16-.23-.19-.49,0-.79-.05-.44-.4-.58-.54-.93.02-.77.37-1.24.68-1.75h1.07c.33.21.44.63,1.07.54.12.42.26.82.68.93-.07.56.09.89.14,1.33-.47.07-.49.58-.68.93-.42.07-.75.23-1.07.4v.02ZM303.16,87.45v-.4c.4-.19.4.61,0,.4ZM303.56,94.29c.05-.16.35-.12.4,0,.12.28-.49.3-.4,0ZM303.16,91.61c-.07-.68.4-1.33.93-.93.07.7-.35.89-.93.93ZM305.03,87.45c-.49-.09-.65-.51-1.07-.68-.05-.98-.77-1.29-.68-2.41.14,0,.12-.16.14-.28.47-.33.91-.68,1.61-.4.07.21.21.33.28.54.7.05,1,.51,1.33.93,0,.33-.21.42-.28.68.19.4.68,1.03.28,1.61-.86.14-1.1-.49-1.61,0ZM307.06,97.12c-.05-.28.09-.35.14-.54-.49-.14-.37.33-.79.28.14-.4.16-.91.68-.93.09.12.14.3.14.54.44-.05.4-.58.79-.68-.07-.44.05-.68.28-.79.75.28,1.54.51,1.33,1.75-.54.3-1.19.49-1.75.79-.4,0-.51-.28-.79-.4l-.02-.02ZM310.01,98.31h-.68c-.09-.49.09-.72.26-.93.54.02.58.56.4.93h.02ZM308.53,85.58c-.42-.77.37-1.12.68-1.61.63.12,1.12.4,1.33.93-.12.79-1.15.63-2.01.68ZM324.63,65.32h.28v.26h-.28v-.26ZM323.68,61.02h.4c.02.37,0,.72-.4.68v-.68ZM324.1,62.77c-.07.16-.16.28-.4.26.07-.16.16-.28.4-.26ZM317.79,67.07h.28v.26h-.28v-.26ZM314.03,76.18c-.54.14-.4-.4-.93-.26-.56,0-.65.47-1.22.14-.3-1.52,2.45-1.1,2.15.14v-.02ZM312.81,77.8c.05.23-.75.23-.54-.14.28-.07.35.09.54.14ZM311.34,76.86c-.05.16-.23.21-.26.4-.56-.09-.07-.84.26-.4ZM310.94,99.53v-.26c.28-.05.42.02.4.26h-.4ZM313.09,88.52c-.7-.33-1.52.12-1.75-.82.16-.19.63-.07.82-.26-.09-.33-.82,0-.93-.26-.07-.44.09-.63.14-.93.84.19,1.17.91,1.87,1.22-.05.21.12.23.14.4,0,.33-.21.42-.28.68v-.02ZM315.89,90.95h-.4c-.3-.28-.02-.61.14-.79.33.07.56.51.26.79ZM316.03,89.6c.33-.09.7-.28.68.26-.44-.02-.65.3-.68-.26ZM317.11,94.57c.37-.02.72,0,.68.4-.26.26-.82.14-.68-.4ZM318.58,95.91c.26-.23.82-.05.79.4-.26.23-.82.05-.79-.4ZM327.49,77.75v.54c-.35,1.26-.35,1.96-.35,2.69v1.43l.19,1.61-.19,1.07-.89,1.8-.72,1.61c-1.43,1.07-3.06,1.61-4.84,1.61-5.21,0-7.52-2.5-7.52-7.9,0-2.87.72-5.75,1.8-7.36l1.07-1.61.72-1.07.35-.35.89-.89c.54-.35,1.07-.89,1.8-1.43,1.43-1.26,2.34-1.8,2.69-2.15.89-.54,2.15-.89,3.06-.89h.35l1.07.19v1.26c.02.12.09.21.23.23-.02.07-.12.12-.23.14v.51l-.54,4.67v.19l.35,1.43v.72c.19.35.19.54.35,1.07l.54.19-.19.72v-.05ZM329.05,61.55c.21,0,.51-.07.54.14.14.47-.82.35-.54-.14ZM329.59,60.48c-.37-.12-.77-.21-.68-.79h.79c0,.33,0,.65-.14.79h.02ZM336.58,43.16c.54-.14.54.79,0,.68v-.68ZM336.69,70.41c-.02.23-.23.3-.54.26-.07-.42.33-.49.54-.26ZM327.58,38.75c.02-.16.14-.07.14,0-.02.16-.14.07-.14,0ZM328.65,40.36h-.28v-.26h.28v.26ZM328.91,38.89c-1.15,0-2.01-1.15-1.47-2.01-.09-.44-.75-.33-1.07-.54-.05-.54.14-.84.68-.79,0-.49.14-.37,0-.79.47.07.68-.12.79-.4.7,0,.93.77,1.61.4-.14,1.03.77,1.03,1.33,1.33.26.65-.26.75-.14,1.61-.56.42-1.26.7-1.75,1.22l.02-.02ZM331.74,41.57c-.58-.07-.68.19-1.07,0,.05-.77-.47-.96-.79-1.33.19-.56.86-.65,1.22-1.07h.28c.61,0,.86.37,1.33.54v.4c.26.26.72.35,1.07.54.28.14.82.23.82.68-.56.12-1.07.26-1.22.82-.58-.14-1.38-.05-1.61-.54l-.02-.02ZM333.21,63.03c.42-.09.26-.09.68,0,.09.37-.26.28-.28.54-.19-.12-.42-.21-.4-.54ZM332.67,67.86s.14-.21.14-.4c.3-.05.51,0,.68.14.12.51-.61.47-.82.26h0ZM334.03,67.47c-.02.16-.14.07-.14,0,.02-.16.14-.07.14,0ZM331.34,74.29c.16.3.35.56.28,1.07-.3.09-.51.28-.93.28.09.47-.35.61-.54.4-.05-.35.28-.35.54-.4-.14-.4-.28-.79-.4-1.22.19-.21.68-.12,1.07-.14h-.02ZM331.2,63.7c-.23.23-.72.58-1.07.28-.14-.82.82-.49,1.07-.28ZM330.66,85.04c-.35,0-.68-.02-.68-.4.26-.26.82-.14.68.4ZM331.06,85.58c0-.14.16-.09.28-.14,0,.14-.16.09-.28.14ZM331.6,84.76c-.54,0-.37-.7-.4-1.22-.07-.4-.47-.42-.4-.93.42.02.98-.09,1.22.14.12.7-.12,1.05-.4,1.33-.07.23.4.56,0,.68h-.02ZM332,59.26c-.79-.63.4-1.57.93-.79.12.42-.44.19-.4.54-.26,0-.16.37-.54.26ZM332.53,71.88c-.09-.49.47-.33.68-.54.16-.56.42-1.03,1.22-.93.16-.05.28-.16.26-.4h.4c-.02.37.02.68.26.79-.16.54-.63.79-1.07,1.07.26.3.26.35,0,.68-.51.12-.47-.33-.82-.4-.42,0-.82,0-.93-.28h.02ZM333.61,74.71c.23-.63.91-.79,1.36-1.22.65-.09.7.44,1.47.28.42.65.79.89.68,1.61-.19,1.07-1.47.98-2.8.93-.16-.58-.61-.91-.68-1.61h-.02ZM335.22,95.77s.09-.16.14-.14c.07.07-.09.16-.14.14ZM336.16,77.26c0-.16-.02-.23-.14-.28.07-.42,1.31-.63,1.47-.14.07.65-.84.33-1.33.4v.02ZM339.52,85.3c-.49-.09-.58.23-1.07.14-.12-.23-.42-.4-.14-.68-.14-.44-.79-.37-.93-.79.09-.49.37-.79.54-1.22.37-.12.35.19.68.14.19-.07.33-.21.4-.4h.4c.07.49.63.44.93.68-.12.86-.93,1.05-.79,2.15v-.02ZM341.13,86.37h.28v.26h-.28v-.26ZM341.39,96.98c-.4-.02-.33-.63.14-.54.07.28-.09.35-.14.54ZM341.93,98.71v-.68c.16,0,.23-.02.26-.14.37.02.56.23.54.68-.16.16-.47.16-.79.14ZM345.53,93.22c0-.14.16-.09.28-.14,0,.14-.16.09-.28.14ZM346.88,91.47c.26,0,.44.09.54.28,0,.7-1.05.21-.54-.28ZM347.98,93.08c-.21.21-.91.23-.79-.26.21-.21.91-.23.79.26Z"/>
  <path class="cls-2" d="M417.57,34c0-1.26-.89-1.96-2.15-1.96h-2.15l-2.69-.35h-1.8l-3.41.72h-3.58l-5.02-.35h-.35c-1.96,0-3.76,1.07-3.76,2.15v.19l.35,1.96.89,1.43.35,1.61.54,1.61,1.43,2.15.19.72c0,.48.06.9.19,1.26v1.8c.19.19.19.35.19.54v2.69l-.89,1.96-.54,3.76-.72,2.34-.54,1.61c-.23.84-.48,1.5-.72,1.96,0,.35-.35.72-.89,1.26-.35.54-.72.89-1.07,1.26l-1.61,1.43c-.12.23-.19.48-.19.72l-.19.54-.19.89-.19,1.43-.89,2.87-.35,1.61-.35,1.26-.54,1.26-.72.19-1.26-.89v-1.07c0-.72,0-1.26-.19-2.15-.12-.23-.19-.41-.19-.54l-1.43-3.95-.19-3.76-.19-1.26-1.43-2.87-1.07-2.5-1.61-2.15-.72-1.61-1.07-3.04-1.61-4.3-.35-1.8-.09-.58c-.05.58.19.65,0,1.05-.63.28-1.38-.05-1.22-.93.42,0,.89-.42,1.22-.14l-.07-.47v-1.07c-.12-.23-.19-.48-.19-.72v-.19c.35-1.43.89-2.87,1.43-3.41l1.26-1.43.35-1.07v-3.58c-.72-.19-1.07-.19-1.43-.19-.72-.19-1.26-.35-1.61-.35h-1.26l-.89.19-4.65.89-3.41.19-5.37-.72-3.04-.19-4.11-.19c-1.96,0-3.41,1.07-3.41,2.69v.19c0,.35.19,1.26.54,2.15.19.54.19.72.35,1.07l1.43.89,2.69,1.96,2.87,1.96.35.35.35.72c.19,0,.35.19.35.54.12.23.24.41.35.54l.19.35.19.54.19.72.35.72.54,1.43.72,1.96,1.45,3.22,1.61,3.58,1.26,2.15.35,1.07.72,1.43c0,.19.19.35.19.89.19.19.19.35.19.54.19.54.35.89.35,1.07l.54,4.49.89,2.34,1.07,3.58,1.26,2.34.89,1.07.89,1.43.35.89.35.72c0,.19.19.35.19.54l.35,3.22.54,1.61.19,2.34.19,1.26,1.26,3.06,1.43,4.84.35.54v.35l-.89,1.61v1.26l-.19,3.22-.72,2.69-1.43,3.95-.72,4.49-.89,1.8-.72,1.61-.72,1.07-2.69,3.58-1.61,3.41-2.34,2.87-1.96,3.22-.89.72-1.61.89-.72.72-2.34,2.5-2.15,1.8-.19.54-.35.89c0,.19,0,.54-.19,1.26,0,.54-.19.89-.19,1.43v.35c0,1.96.89,2.87,2.5,2.87h.35l2.34-.54,1.8-1.07,2.15-.89.72-.72,3.04-3.04,1.26-1.61,2.87-1.8,1.26-2.34.54-1.99.72-1.96,1.07-2.69,1.07-2.5.72-1.43,1.96-5.56.54-.72.72-.89.54-.72.89-3.58.72-2.15.35-1.07,1.07-1.96.51-.75h-.09v-.4h.35l.65-.98,1.43-3.41.89-1.96.54-1.26.35-3.04.72-2.5.35-1.26.35-.72.35-.35,1.07-1.61,2.15-5.21,1.07-1.61.19-1.26.35-1.07,1.26-2.34.89-2.34,1.43-2.34.72-2.5.72-1.96.35-3.22,1.26-3.76.89-4.14,3.58-6.45.54-1.61.54-2.5c.89-4.14,5.02-8.79,9.51-11.12,1.61-.72,2.15-1.61,2.15-2.87l.09-.02ZM357.09,39.42h-.26v-.28h.26v.28ZM357.63,37.27c-.35.05-.58-.05-.54-.4.12.02.12-.05.14-.14.35-.05.44.19.4.54ZM358.17,39.54h.68c.14.54-.79.54-.68,0ZM367.82,60.08c.02-.16.26-.14.28,0-.12.09-.23.16-.28,0ZM369.03,60.48c-.65.14-.26-.72,0-.26v.26ZM370.76,67.72c-.16-.19-.16-.49,0-.68.44-.02.61.75,0,.68ZM369.85,47.32v-1.07c.21-.4.75-.49.93-.93,1.78.26.56,3.2-.93,2.01ZM372.26,42.65c-.33.16-.82.16-1.07.4-.44,0-.47-.44-.93-.4.19-.72-.51-.56-.4-1.22.16-.19.65-.07.68-.4.63.21.96.75,1.75.79.14.42,0,.3,0,.79l-.02.02ZM374.01,79.8c-.26.12-.63.44-.93.14-.14-.72.49-.68.4-1.33h.54v1.22-.02ZM379.11,103.01c0-.14.16-.09.26-.14,0,.14-.16.12-.26.14ZM380.98,98.2c-.58.05-.84-.23-.93-.68.44-.33,1.12,0,.93.68ZM382.99,89.74c-.7.42-1.38-.21-1.33-.93.33.42,1.54,0,1.33.93ZM385.67,94.57c-.42-.12-.42.21-.68.26.33.3.89.35.79,1.07-.16.16-.47.16-.79.14v-.54c-.42-.09-.26.37-.68.26-.47-.35-.14-1.22,0-1.75h1.22c.14-.09.61-.51.79-.14,0,.47-.68.21-.68.68l.02.02ZM389.3,84.5c-.3.05-.51,0-.68-.14-.02-.65.84-.68.68.14ZM398.01,45.59c-.21-.19-.12-.68-.14-1.07.77-.12,1.22.14,1.07.93-.16.19-.58.14-.93.14h0Z"/>
  <path class="cls-1" d="M467.51,89.06l-4.14-.89c-1.66-.42-2.45-1.47-2.73-3.88-.09,0-.21-.05-.28-.07v-.4s.14-.07.21-.09c-.05-.61-.07-1.26-.07-2.03v-2.34l.19-1.8.35-4.67.35-8.44.19-7.17v-1.43l-.19-3.76-.35-5.56v-1.43l.19-1.8v-.19c0-2.87-1.61-6.1-3.76-7.52l-2.5-1.61-1.96-1.26-1.96-.72c-.35-.19-1.07-.35-2.69-.54-1.26-.35-2.5-.54-3.76-.72-.72-.19-1.8-.19-2.5-.19h-1.96c-3.04,0-5.37.54-7.9,1.8l-2.5,1.26-.72.35-1.26,1.07-.54.19-.35.35c-.35.19-1.07.89-1.8,1.43-.12.12-.24.24-.35.35l-.89,1.8-1.07,1.43-.35.72v1.96l-.19,1.26c1.07.89,2.87,1.61,4.3,1.61h.89l1.26-.19h2.34l1.61-.35,2.15-.19c.54,0,1.26-.54,2.15-1.07.72-.54,1.43-1.26,1.8-1.61l.72-1.07c.35-.35.89-.89,1.43-1.61.35-.35.54-.54.72-.72l1.96-.35h.35c2.69,0,3.95,2.5,3.95,8.6,0,2.5-.19,4.11-.72,5.56l-.54,1.43-.54,1.96-.54.72-1.07,1.07-1.61,1.8c-.72.72-2.34,1.96-3.58,2.69l-4.3,2.34-8.25,3.22-4.49,3.22c-4.67,3.41-5.91,6.29-5.91,13.81,0,9.02,3.11,13.83,9.77,14.98,0-.05.05-.07.07-.12.51-.07.65.23,1.22.14,0,.05.02.09.05.14.65.07,1.31.09,2.01.09h4.49c2.69,0,4.3-.19,5.02-.72l3.76-2.34,2.15-.54,1.96.72,1.85,1.85v-.16h.28v.28h-.16l.21.21c1.07,1.07,2.87,1.43,6.99,1.43s5.91-.35,7.9-1.43l.89-.54c2.34-1.43,3.76-3.41,3.95-5.37l.19-2.5v-.35c0-.54-.19-1.07-1.07-1.96l-.19-.19-.09.05ZM429.82,40.5c-.49.05-.65-.26-1.07-.26,0-.4-.4-.68-.14-.93h.26c.68.16.65.16,1.22.4.07.42-.19.54-.28.79h.02ZM424.98,73.1c.58.07,1.05.28.93,1.07-.63-.05-.98-.35-.93-1.07ZM426.97,79.94c-.54.14-.65-.42-.4-.68h.4v.68ZM446.31,60.34s-.09.16-.14.14c-.07-.07.09-.16.14-.14ZM430.1,93.22c-.05-.28.09-.35.14-.54.21-.05.23.12.4.14.05.35-.19.44-.54.4ZM430.19,89.2c.35-.05.58.05.54.4-.26.26-.65.07-.54-.4ZM433.98,97.78h-.68c-.28-.3-.09-.89.14-1.07.72,0,.98.61.54,1.07ZM435.99,99.67c.21-.05.23.12.4.14.05.26-.61.19-.4-.14ZM442.95,94.97c-.47-.07-.56-.28-.4-.68h.54c.05.3,0,.51-.14.68ZM444.54,95.77c.33-.09.84-.3.82.28-.21.21-.91.23-.82-.28ZM446.45,90.81h-.4v-.26s.12-.05.14-.14h.26v.4ZM446.71,77.75v.54c-.35,1.26-.35,1.96-.35,2.69v1.43l.19,1.61-.19,1.07-.89,1.8-.72,1.61c-1.43,1.07-3.04,1.61-4.84,1.61-5.21,0-7.52-2.5-7.52-7.9,0-2.87.72-5.75,1.8-7.36l1.07-1.61.72-1.07.35-.35.89-.89c.54-.35,1.07-.89,1.8-1.43,1.43-1.26,2.34-1.8,2.69-2.15.89-.54,2.15-.89,3.04-.89h.35l1.07.19v2.15l-.54,4.67v.19l.35,1.43v.72c.19.35.19.54.35,1.07l.54.19-.19.72.02-.05ZM447.37,39.82c-.19-.23-.35-.44-.28-.93.23-.21,1.1-.21,1.33,0-.02.65-.47.89-1.07.93h.02ZM450.85,97.78c.4,0,.89-.07.79.4-.26.26-.98.21-.79-.4ZM451.92,94.55s.09-.16.14-.14c.07.07-.09.16-.14.14ZM452.6,89.2h-.26v-.26h.26v.26ZM452.09,74.57c-.12-.37-.33-.65-.4-1.07.65-.61,1.22-.21,2.01,0,.05.93-.82.98-1.61,1.07ZM454.91,46.93c.49.05.54.44.4.79-.61.19-.65-.54-.4-.79ZM455.29,72.42s-.09.16-.14.14c-.07-.07.09-.16.14-.14ZM455.71,76.18c-.23,0-.42-.02-.54-.14.02-.23.23-.3.54-.26v.4ZM457.55,82.35c-.4.19-.84.16-1.07-.14-.16-1.12,1.36-.98,1.07.14Z"/>
  <path class="cls-5" d="M537.66,94.29h.4c.02-.3-.12-.42-.4-.4v.4Z"/>
  <path class="cls-10" d="M539.42,95.77h-.68c-.09-.49.09-.72.26-.93.23,0,.35.12.42.28l-.19-.65-.23-.44v.19c-.54.3-1.19.49-1.75.79-.4,0-.51-.28-.79-.4-.05-.28.09-.35.14-.54-.49-.14-.37.33-.79.28.14-.4.16-.91.68-.93.09.12.14.3.14.54.44-.05.4-.58.79-.68-.07-.44.05-.68.26-.79.28.12.56.21.79.35l-.28-.65-.19-.19c-1.26-1.43-1.61-1.8-2.34-2.34l-.19-1.43v-.54l.14-2.71c-.54-.07-.77-.4-1.19,0-.49-.09-.65-.51-1.07-.68-.05-.98-.77-1.29-.68-2.41.14,0,.09-.16.14-.28.47-.33.91-.68,1.61-.4.07.19.19.33.26.54.23,0,.4.09.56.16l-.14-.51v-1.43l.19-1.61v-4.3c0-.72,0-1.8-.19-2.5l-.72-4.84-.19-1.96v-5.56l.19-2.69.72-4.84.19-1.61v-.19c0-1.07-.35-2.15-1.07-3.04-.35-.72-.72-1.07-.72-1.26-.12-.12-.19-.24-.19-.35-.19-.19-.19-.35-.19-.54-.35-.72-.54-1.26-.72-1.26,0-.19-.19-.35-.19-.54l-.72-3.04c-.19-.54-.54-1.26-1.07-1.96-1.07-1.07-1.96-1.8-3.04-2.15l-3.04-1.07-2.15-.89c-1.26-.54-2.34-.89-3.22-.89l-3.58-.35-.89-.19c-.35,0-.89,0-1.43.19-.54,0-.89.19-1.07.19-.35,0-.54.19-.72.19l-6.64,4.11-1.43.35-1.8-1.61.89-2.69.35-.54.54-.54.35-1.26c0-1.96-1.43-2.69-5.21-2.69-2.15,0-2.69.19-5.37,1.96l-2.15,1.43c-2.34,1.43-4.67,2.5-6.82,2.87h-.05c.19,0,.35.14.3.4-.26-.07-.82.19-.68-.28.02-.02.07-.05.12-.07l-2.55.47c-2.5.54-4.49,2.69-4.49,4.67v.35l.35,1.43,1.8.72,2.87,1.07c.54.19.89.72,1.07,1.07.19.19.19.35.19.54l-.19,1.07-.35,1.96-.35,1.26v.72c1.43,1.61,1.8,2.5,1.8,4.49v.72l-.19,2.34-.35,2.87-.19,2.87-.19,4.14-.19,3.04-.19,1.61.19,2.5-.35,5.19.09,1.22h.02v.35l.07,1.12v.35c0,1.26-.19,2.5-1.07,5.02l-.35.19-.72,1.8c-.54,1.26-1.07,1.96-1.43,2.15l-2.5.89c-1.26.54-2.34,2.52-2.34,4.67,0,1.07.72,1.96,1.8,1.96l2.5.35,1.61.35,1.61.19,4.49.19h1.43l1.96-.19,8.06.19,1.38-.09v-.16s.12-.05.14-.14c.21.05.26.14.21.26l.96-.07h2.34c1.61,0,2.87-1.8,2.87-3.95,0-.72-.19-1.07-.72-1.8-.19-.35-.35-.72-.54-.72l-2.15-1.26c-.72-.54-1.07-.72-2.15-1.8-.54-.72-.89-1.26-1.07-1.43l-.89-2.15v-.35c-.72-2.34-1.07-5.75-1.07-12.01v-.21c-.16.16-.54-.16-1-.02-.19-.4-.37-.79,0-1.07.37.23.65.58,1,.86v-1.03c-.3.07-.58-.19-.47-.65.19,0,.33,0,.47.05v-2.06l.35-1.07.89-5.02v-3.95l.19-4.3h0c-.3-.09-.35-.56.05-.54l.12-1.24v-1.43l.19-1.07v-.19l.54-1.07.4-1.12c-.28.07-.54.21-.77-.02-.07-.58.61-.77.98-.54l.09-.28c1.43-3.95,5.02-6.45,9.14-6.45,6.64,0,10.59,4.49,10.59,12.2v6.89c.3-.05.49.02.65.14.07.47-.4.4-.54.68-.05,0-.09,0-.14-.05v.21c.05.21,0,.51-.14.63h0v.12l-.37,3.04v2.34l.35,3.22v2.85c.19,0,.35.05.42.23.14.58-.26.61-.4.93l.14,2.27v.72c0,1.26-.19,2.87-.54,5.02l-.35,2.15v1.26c0,1.61-.89,3.04-2.87,4.3-4.65,2.87-5.37,3.76-5.37,5.75,0,2.34,1.07,3.06,4.67,3.06h.84v-.07h.28v.07h2.01c-.05-.4.35-.77.93-.61,0,.23-.02.44-.09.61h.16l1.96-.35,3.22-.19,3.41-.35h1.43l3.76-.19h.19l2.69.35h.35c1.96,0,3.22-1.07,3.41-2.87l-.3-1.12c0,.16,0,.33-.07.47l.07-.12ZM476.74,92.94c.86-.09,1.19.33,1.61.68-.35.54-1.71.09-1.61-.68ZM481.44,88.52c.4-.05.47.26.68.4-.16.65-1.17,0-.68-.4ZM482.93,91.07c-.35.05-.44-.19-.4-.54-.05-.37-.56-.23-.68-.54-.05-.51.93-.49,1.22-.28-.14.61.02.93-.14,1.33v.02ZM483.59,67.19c.28-.05.35.09.54.14-.02.23-.23.3-.54.28v-.42ZM483.45,90.81c-.02-.44.49-.7.79-.4-.12.28-.33.47-.79.4ZM502.52,96.98c-.56.07-.86.37-1.47.4-.05-.61,1.29-1.29,1.47-.4ZM501.44,93.08c.16.16.14.47.14.79-.23.16-.96-.02-1.22-.26.19-.35.49-.58,1.07-.54ZM498.61,90.53c.61.21,1.05,1.57-.14,1.47.09-.82-.79-.65-.93-1.22.37-.19.79.19,1.07-.26h0ZM497.28,91.47c.4-.19.4.61,0,.4v-.4ZM496.07,56.32c.19.35.79.26.79.79-.61-.09-1.07.44-1.47.14-.23-.58,1.03-.84.26-1.07-.09-.42.37-.26.28-.68.56-.09.47.72.14.79v.02ZM494.99,68.66c-.84.09-1.05-.49-1.61-.68,0-.33,0-.65.14-.79.75-.16.47.7,1.07.68.44-.19.63-.61.93-.93.4.05.54.75.28,1.07-.33.23-1.03-.3-.79.68l-.02-.02ZM496.21,42.09c-.02.51-.56.51-.93.68v-.79c.35,0,.77-.05.93.14v-.02ZM494.85,41.55c.28-.05.42.02.4.26h-.4v-.26ZM495.39,50.41c-.58-.07-.68.19-1.07,0-.3-.89,1.4-.96,1.07,0ZM493.52,50.55c.51-.07.86.05,1.07.26-.26.42-.35.98-1.07.93-.21-.21-.21-.98,0-1.22v.02ZM492.3,51.48c-.49.44-.63-.26-.93-.4.09-.19,1.05-.07.93.4ZM492.05,71.49h.28c.07.28-.19.26-.4.26.02-.12.14-.14.14-.26h-.02ZM491.77,58.61c-.16-.19-.16-.49,0-.68.63,0,.63.68,0,.68ZM491.51,41.97c-.3.05-.51,0-.68-.14,0-.4.79-.35.68.14ZM488.42,57.79c-.02.16-.26.14-.28,0,.07-.19.12,0,.28,0ZM488.57,80.34c0,.56-.26.72-.68.54-.07-.49.35-.84.68-.54ZM487.75,63.17c.09.54-.51.37-.93.4-.21-.65.68-.63.93-.4ZM485.2,44.92c-.07-.42.12-.61.54-.54.07.42-.12.61-.54.54ZM485.74,66.93c.49,0,.37-.14.79,0,.07.42-.19.51-.26.79-.23,0-.28-.16-.54-.14v-.68.02ZM486.02,81.95c.3-.05.51,0,.68.14,0,.33,0,.65-.14.79-.37.12-.35-.19-.68-.14,0-.33,0-.65.14-.79ZM487.89,95.51c-.35.21-1.61.56-1.87,0-.09-.44.23-.49.54-.54.05-.33-.26-.28-.14-.68.98-1,1.92.4,2.29,1.22-.09.09-.75.3-.79,0h-.02ZM488.57,36.06c-.12-.16-.19-.35-.14-.68.3-.07.68-.26.93,0-.16.33-.14.84-.79.68ZM489.36,97.24s-.12.05-.14.14h-.26s-.05-.12-.14-.14v-.26s.12-.05.14-.14h.26s.05.12.14.14v.26ZM488.96,48.4c.26-.26.98-.21.79.4-.26.23-.82.05-.79-.4ZM489.64,59.94c.26-.4,1.03-.28.93.4-.33.28-.98.09-.93-.4ZM490.69,56.18c.47-.05.77.05.68.54h-.68v-.54ZM491.37,84.5c-.02-.84.51-1.1,1.22-1.22-.14.49-.28.98-.4,1.47-.42.07-.51-.19-.79-.28l-.02.02ZM492.44,97.38c-.3-.3.02-.77.14-1.07.42-.07.54.16.68.4-.02.47-.4.58-.79.68h-.02ZM493.38,69.48c.19.12.51.12.4.54-.16,0-.23.02-.28.14-.35,0-.33-.49-.14-.68h.02ZM493.8,99.25c-.51.12-.47-.61-.28-.79h.4c.19.16.23.79-.14.79h.02ZM494.85,79.41s.14-.14.14-.26c.16.07.28.16.26.4-.21.05-.23-.12-.4-.14ZM496.6,97.52c.05.3-.02.51-.14.68-.4-.05-.68-.21-.93-.4.02-.42.68-.23,1.07-.28h0ZM495.67,76.04s-.09.16-.14.14c-.07-.07.09-.16.14-.14ZM496.07,79.8c.05.35-.19.44-.54.4-.05-.35.19-.44.54-.4ZM495.81,71.21c-.42.07-.47-.23-.93-.14-.14.49.51.21.4.68h-.68c-.26-.28-.35-.72-.4-1.22.23,0,.28-.16.54-.14.14-.49-.33-.37-.26-.79.44-.23.91-1.07,1.47-.4.09.79-.12,1.31-.14,2.01h0ZM496.21,70.01v-.54h.54c.07.42-.12.61-.54.54ZM496.35,67.72c.49.4-.4.44,0,0h0ZM496.88,61.02c-.19.05-.21.23-.4.28-.42,0-.58-.3-.54-.79.4-.4,1.07-.28.93.54v-.02ZM498.47,54.71h-.68c-.14-.65.82-.65.68,0ZM498.89,42.51c-.61,0-.4-.84-.54-1.33.33-.12.58-.3,1.07-.26.05.75-.56.86-.54,1.61v-.02ZM499.69,45.99c-.12.12-.14.3-.14.54-.58.07-.47-.72.14-.54ZM499.43,48.54c-.05-.3,0-.51.14-.68.61-.09.49.89-.14.68ZM501.84,39.96c.89-.07,1.36.26,1.33,1.07-.47.14-1.43-.23-1.33-1.07ZM503.85,40.22c-.02.16-.14.07-.14,0,.02-.16.14-.07.14,0ZM503.45,43.3v-.26h.54c.14.4-.3.23-.54.26ZM505.86,40.9s.09-.16.14-.14c.07.07-.09.16-.14.14ZM515.25,35.92v-.26h.54c.14.4-.3.23-.54.26ZM516.33,40.5c.16.05.28.16.28.4-.16-.05-.28-.16-.28-.4ZM512.31,95.51c.05-.3.35-.3.54-.14-.05.3-.35.3-.54.14ZM514.32,94.97c-.49.07-.65-.16-.93-.26-.09-.63.96-.65,1.33-.4-.07.28-.28.44-.4.68v-.02ZM523.17,68.26c-.3,0-.05-.56-.14-.79.47.12,0,.33.14.79ZM521.02,59.8c-.14.14-.7.12-.68-.26.21-.21.77-.19.68.26ZM519.95,33.79h.68c.21.7-.89.7-.68,0ZM520.23,68.4c.49-.05.79.12.82.54-.35.3-.91,0-.82-.54ZM520.09,75.11c.54-.14.54.79,0,.68-.26-.26,0-.33,0-.68ZM520.77,98.99h-.26v-.28h.26v.28ZM519.55,82.35c-.19-.93.3-1.19,1.22-1.07.19.26.35.54.4.93-.35.49-.86,0-1.61.14ZM521.56,65.04c-.35.05-.58-.05-.54-.4.12.02.12-.05.14-.14.35-.05.44.19.4.54ZM522.24,66.93c-.51-.07-.72-.51-.54-.93.51,0,.91.16.79.79-.16,0-.23.02-.28.14h.02ZM522.78,64.92h.4v.4h-.4v-.4ZM522.89,88.66c.05-.3.35-.3.54-.14-.05.3-.35.3-.54.14ZM523.43,60.22s.09-.16.14-.14c.07.07-.09.16-.14.14ZM523.71,69.48c.49-.05.93-.02.79.54-.21.16-.93.05-.79-.54ZM532.57,84.9v-.4c.4-.19.4.61,0,.4ZM535.26,73.21c.05.28-.09.35-.14.54-.35,0-.51-.19-.54-.54.19-.16.49-.16.68,0ZM534.32,72.02c.05.3.21.51.14.93-.72.14-.75-.42-.79-.93h.68-.02ZM533.64,52.02c-.49.09-.33-.47-.54-.68-.35-.21-.19-.42,0-.68.35.23.84.89.54,1.33v.02ZM532.97,49.22c.35,0,.51.19.54.54-.54.14-.77-.3-.54-.54ZM533.11,72.82c.42.26,1.15.77.93,1.22-.65.02-.93-.33-1.22-.68-.09-.37.26-.28.26-.54h.02ZM531.21,73.1c.37,0,.91-.12.93.26,0,.79-1.5.3-.93-.26ZM530.68,58.61h.26v.26h-.26v-.26ZM530.28,52.7c0,.14-.16.09-.28.14,0-.14.16-.09.28-.14ZM527.47,69.2h.4v.4h-.4v-.4ZM527.47,70.01h.26v.28h-.26v-.28ZM526.12,64.92c.23.63-.77.75-.68.14.16-.12.35-.19.68-.14ZM526.4,68.8c.12.68-.58,1.03-1.07.68-.12-.77.61-1.26,1.07-.68ZM524.65,62.23c.35-.05.58.05.54.4-.26.26-.65.07-.54-.4ZM526.4,91.07h-1.22c-.37-.61-.12-1-.14-1.87h.4c.47.02.37.61.68.79.3-.05.51,0,.68.14-.02.42-.28.61-.4.93h0ZM526.94,72.02c-.54.14-.65-.42-.4-.68h.4v.68ZM527.33,70.95c.16-.19.63-.19.82,0-.05.49-.86.79-.82,0ZM528.41,94.01c0,.14-.16.09-.26.14,0-.14.16-.09.26-.14ZM528.81,95.23c-.35.05-.58-.05-.54-.4.12.02.14-.05.14-.14.35-.05.44.19.4.54ZM528.81,70.95c.33,0,.4-.23.82-.14.19.19.28,1.07-.14,1.07-.23-.09-.91-.61-.68-.93h0ZM531.35,79.52c-.28.21-.26-.26-.54-.4-.3-.16-.63,0-.82-.28-.16-.23-.19-.49,0-.79-.05-.44-.4-.58-.54-.93.02-.77.37-1.22.68-1.75h1.07c.35.21.44.63,1.07.54.12.42.26.82.68.93-.07.56.09.89.14,1.33-.47.07-.49.58-.68.93-.42.07-.75.23-1.07.4v.02ZM532.97,91.75c.05-.16.35-.12.4,0,.12.28-.49.3-.4,0ZM532.57,89.06c-.07-.68.4-1.33.93-.93.07.7-.35.89-.93.93Z"/>
  <path class="cls-11" d="M596.62,89.06l-4.11-.89c-2.15-.54-2.87-2.15-2.87-6.45v-2.34l.19-1.8.35-4.67.35-8.44.19-7.17v-1.43l-.19-3.76-.35-5.56v-1.43l.19-1.8v-.19c0-2.06-.84-4.3-2.13-5.94-.12.33-.77.26-.65-.21h.51c-.44-.56-.96-1.03-1.5-1.38l-2.5-1.61-1.96-1.26-1.96-.72c-.35-.19-1.07-.35-2.69-.54-1.26-.35-2.5-.54-3.76-.72-.72-.19-1.8-.19-2.5-.19h-1.96c-3.04,0-5.37.54-7.9,1.8l-1.73.86c.21.09.44.16.63.26.26.65-.26.75-.14,1.61-.56.42-1.26.7-1.75,1.22-.82,0-1.45-.58-1.59-1.22l-.44.14-.35.35c-.35.19-1.07.89-1.8,1.43-.12.12-.24.24-.35.35l-.89,1.8-1.07,1.43-.35.72v1.96l-.19,1.26c.86.72,2.2,1.33,3.44,1.54-.05-.44.05-.75.14-1.05.02-.61-.61-.56-.54-1.22.3-.09.68-.12.93-.28.12-.28-.35-.61-.4-.28-.3-.47.44-1.07.54-1.61.33-.05.28.23.68.14.49-.09.68-.49.93-.79.63.09,1.71-.28,1.75.4.3-.23.56-.51.93-.68.28.07.28.21.14.4.14.35.54.44,1.07.4.12.16.19.35.14.68.12.3.47.33.68.54-.09.72.75.49.68,1.22.02.28-.12.42-.4.4-.12.42.44.19.4.54-.12.28-.28.51-.44.72l1.92-.16c.54,0,1.26-.54,2.15-1.07.72-.54,1.43-1.26,1.8-1.61l.72-1.07c.35-.35.89-.89,1.43-1.61.35-.35.54-.54.72-.72l1.96-.35h.35c2.69,0,3.95,2.5,3.95,8.6,0,2.5-.19,4.11-.72,5.56l-.54,1.43-.54,1.96-.54.72-1.07,1.07-1.61,1.8c-.72.72-2.34,1.96-3.58,2.69l-4.3,2.34-8.25,3.22-4.49,3.22c-4.67,3.41-5.91,6.29-5.91,13.81,0,10.4,4.11,15.24,13.09,15.24h4.49c2.69,0,4.3-.19,5.02-.72l3.76-2.34,2.15-.54,1.96.72,2.15,2.15c1.07,1.07,2.87,1.43,6.99,1.43s5.91-.35,7.9-1.43l.89-.54c2.34-1.43,3.76-3.41,3.95-5.37l.19-2.5v-.35c0-.54-.19-1.07-1.07-1.96l-.19-.19-.12.05ZM556.99,36.2c.02-.16.14-.07.14,0-.02.16-.14.07-.14,0ZM558.06,37.81h-.28v-.26h.28v.26ZM562.76,39.54c-.58-.14-1.38-.05-1.61-.54-.58-.07-.68.19-1.07,0,.05-.77-.47-.96-.79-1.33.19-.56.86-.65,1.22-1.07h.28c.61,0,.86.37,1.33.54v.4c.26.26.7.35,1.07.54.28.14.82.23.79.68-.54.12-1.07.26-1.22.79ZM565.96,41.29v-.68c.54-.14.54.79,0,.68ZM545.44,87.05c.33-.09.68-.28.68.28-.44-.02-.65.33-.68-.28ZM546.24,84.64c.84-.09,1.17-.37,1.87,0,0,.35.05.77-.14.93-.7-.26-1.29.16-1.87-.14-.09-.42.14-.49.14-.79h0ZM546.52,92c.37-.02.72,0,.68.4-.26.26-.82.14-.68-.4ZM547.2,86.23c.47-.02.79.09.93.4,0,.51-.51.47-.93.54-.19-.19-.19-.77,0-.93ZM547.99,93.36c.26-.23.82-.05.79.4-.26.23-.82.05-.79-.4ZM551.22,82.89c0-.16-.02-.23-.14-.26,0-.3.33-.28.68-.28.07.42-.12.61-.54.54ZM553.09,79.13c-.26,0-.44.09-.54.26-.33,0-.42-.21-.68-.26-.56-.23-1.26.49-1.33-.14.07-.51.63.02,1.07-.28.23-.12.42-.3.54-.54.35,0,.77-.05.93.14v.82ZM575.24,61.02c.35,0,.33.49.14.68-.35,0-.3-.49-.14-.68ZM573.21,61.95c-.12.09-.23.16-.26,0,.02-.16.26-.14.26,0ZM566.1,67.86c-.02.23-.23.3-.54.26-.07-.42.33-.49.54-.26ZM562.62,68.8c.16-.56.42-1.03,1.22-.93.16-.07.28-.16.26-.4h.4c-.02.37.02.68.26.79-.16.54-.63.79-1.07,1.07.26.3.26.35,0,.68-.51.12-.47-.33-.82-.4-.42,0-.82,0-.93-.28-.09-.49.47-.33.68-.54h.02ZM560.07,73.1c-.14-.4-.28-.79-.4-1.22.19-.21.68-.12,1.07-.14.14.3.35.54.26,1.07-.3.09-.51.28-.93.26.09.47-.35.61-.54.4-.05-.35.28-.35.54-.4v.02ZM560.07,82.49c-.35,0-.7-.02-.68-.4.26-.26.82-.14.68.4ZM560.47,83.03c0-.14.16-.09.28-.14,0,.14-.16.12-.28.14ZM561.01,82.21c-.54,0-.37-.7-.4-1.22-.07-.4-.47-.42-.4-.93.42.02.98-.09,1.22.14.12.7-.12,1.05-.4,1.33-.07.23.4.56,0,.68h-.02ZM564.63,93.22s.09-.16.14-.14c.07.07-.09.16-.14.14ZM570.8,94.43c-.4-.02-.33-.63.14-.54.05.28-.09.35-.14.54ZM571.34,96.16v-.68c.16,0,.23-.02.28-.14.37.02.56.23.54.68-.16.16-.47.16-.79.14h-.02ZM575.82,77.75v.54c-.35,1.26-.35,1.96-.35,2.69v1.43l.19,1.61-.19,1.07-.89,1.8-.72,1.61c-1.43,1.07-3.04,1.61-4.84,1.61-5.21,0-7.52-2.5-7.52-7.9,0-2.87.72-5.75,1.8-7.36l.75-1.12h-.33c-.16-.58-.61-.91-.68-1.61.23-.63.91-.79,1.33-1.22.65-.09.7.44,1.47.28.02.05.07.09.09.12l.4-.4c.54-.35,1.07-.89,1.8-1.43,1.43-1.26,2.34-1.8,2.69-2.15.89-.54,2.15-.89,3.04-.89h.35l1.07.19v2.15l-.54,4.67v.19l.35,1.43v.72c.19.35.19.54.35,1.07l.54.19-.19.72.02-.02ZM579.26,59.4c-.61.07-.75-.33-1.22-.4.05-1.24,1.26-.37,1.22.4ZM578.04,75.65c0,.14-.16.09-.26.14,0-.14.16-.09.26-.14ZM576.43,63.56c.4-.28,1.36-.16,1.22.54-.42-.02-.98.09-1.22-.14v-.4ZM577.39,90.53c-.21.21-.91.23-.79-.28.21-.21.91-.23.79.28ZM578.18,95.37c.02-.16.26-.14.28,0-.07.19-.12,0-.28,0ZM580.19,98.45c.49.4-.4.44,0,0h0ZM580.33,85.69c0,.33,0,.65-.14.82-.65.12-1.33.19-2.01.26-.54-.44-.91-1-1.07-1.75-.07-.3.14-.35.14-.54,0-.33-.35-.37-.26-.68.35-.23.79-.37.93-.79.56-.05.51.19.93,0,.51-.58,1.4,0,1.75.4,0,.33-.21.42-.28.68.14.4.47.61.4,1.22.02.3-.12.42-.4.4h0ZM586.22,36.6h.28v.26h-.28v-.26ZM584.21,48.28c-.05-.68.19-1.07.93-.93.19.16.14.58.14.93-.07.19.51.33.14.4-.09-.44-.96-.12-1.22-.4ZM585.43,95.37c-.33-.23-.33-.82,0-1.07.33.21.98.09,1.07.54.07.61-.77.3-1.07.54ZM585.97,68.26c-.21-1.05,1.38-1.29,1.22-.14-.26.19-.86.44-1.22.14ZM592.67,98.06c0,.44.37.51.28,1.07-.26,0-.16.37-.54.26-.42,0-.58-.3-.54-.79-1.12-.35-1.82-1.12-2.69-1.75.12-.47-.21-.51-.14-.93.21-.14.28-.44.68-.4-.12-.47.14-.56.28-.79.93.09,2.01.05,2.55.54.05.3,0,.51-.14.68.28.28.86.3,1.07.68.16.91-.47,1.05-.79,1.47l-.02-.02Z"/>
  <g>
    <path class="cls-12" d="M104.43,24.09c-.33.3-.63.49-.09-.26,0,0,.02,0,.05-.02-.12-.72-.23-1.43-.4-2.08-.16-.75-.37-1.45-.61-2.15-.14-.09-.3-.21-.54-.19.05-.21.16-.33.33-.4-.28-.79-.61-1.57-.98-2.29-.28.23-.89.16-1.33.21.07-.49.65-.44,1.19-.47-4.77-9.32-15.63-13.83-26.83-14.4-4.09-.21-7.69.16-11.12,1h.12c-.16,1.4-2.62.16-.98,1.99-.4,1.15-1.73-.84-2.48-.98-.54.12-.33.98-.98.98.26.63,3.37.33,3.46,2.48-1.17-.79-2.85-1.12-3.95-1.99-1,.35-1.96,1.54-2.97.49,0-.12.07-.19.12-.26-.77.35-1.52.72-2.29,1.12.16.12.37.16.7.12-.42.72-1.59.72-2.48.98-.05-.02-.09-.05-.14-.09-1.1.61-2.2,1.24-3.37,1.92-.09.09-.21.16-.33.19-.26.14-.51.3-.75.44h.12c-.09.4-.49.49-.49.98-.28-.07-.42-.28-.63-.4-.98.61-2.01,1.24-3.04,1.89.09-.02.16-.05.21,0,.26.26-.35.63-.49.49-.12-.12-.05-.26.07-.35-.42.26-.84.51-1.26.79-.12.07-.23.16-.37.23.37,0,.84-.07,1.57-.16-.26.65-1.59,1.1-2.64.84-1.26.79-2.43,1.57-3.55,2.31-.23.21-.47.37-.7.47-.33.23-.65.44-.98.68.26.28.56.49.96.63-.47.96-1.75,1.1-2.64.54-.12.07-.21.16-.33.23.12.19.14.42,0,.72-.23-.19-.4-.28-.51-.33-4.28,3.13-7.69,6.22-11.5,10.45.3.16.63.28,1.12.28,0,1.99-1.03,1.26-2.29,1.05-.61.7-1.24,1.43-1.89,2.22-2.73,3.27-4.49,6.12-4.49,6.12C2.83,55.2-2.2,75.06,6.19,88.24c4.67,7.34,19.98,13.27,31.62,11.52,2.87-.42,6.54-1.05,10.4-1.89.02-.05.07-.05.07-.09.07,0,.12.02.16.05,5.49-1.19,11.33-2.83,15.84-4.95,7.15-3.37,12.2-9.25,17.57-14.98,0-.19.07-.4.21-.56.07.05.14.07.21.09,1.64-1.73,3.29-3.44,5.09-5.02-.07-.05-.14-.09-.21-.14-.37.21-.84.33-1.47.26-.16-.35-.28-.4-.14-.79-.21-.4-.68-.56-1.07-.79-.07-.47.05-.75.14-1.07.02-.61-.61-.56-.54-1.19.3-.09.68-.12.93-.28.12-.28-.35-.61-.4-.26-.3-.47.44-1.07.54-1.61.33-.05.28.23.68.14.49-.09.68-.49.93-.79.63.09,1.71-.28,1.73.4.3-.23.56-.49.93-.68.28.07.28.21.14.4.14.35.54.44,1.07.4.12.16.16.35.14.68.09.3.47.33.68.54-.07.61.54.54.65.96,1.54-1.22,2.92-2.43,4.16-3.62-.19-.14-.19-.4.16-.49h.3c6.78-6.78,8.79-13.37,8.62-22.34-.12-6.29-.12-12.78-.91-17.99h-.02ZM2.59,69.43c0-.61.75-.49.79-1.07,1.33.12.19,1.78-.79,1.07ZM93.31,54.99c-.35,0-.33-.49-.14-.65h.4c.12.42-.12.51-.26.65ZM93.31,23.46c-.3.26-.96.07-.93-.4.28-.23,1.15-.26.93.4ZM93.19,35.61s.09-.16.14-.14c.07.07-.09.16-.14.14ZM92.47,38.19c0,.49-.61.37-.98.49,0-.49.61-.37.98-.49ZM93.45,61.44c0,.49-.61.4-.98.49,0-.49.61-.37.98-.49ZM91.46,8.48c1.61.61.37-1.61,1.99-.98-.51,2.83-2.5,1.45-3.95.49.49-1.52,1.33.56,1.99.49h-.02ZM90.11,6.64c-.54.05-.98,0-1.19-.26.09-.89,1.68-.49,1.19.26ZM86.02,17.39c0,.49-.61.37-.98.49,0-.49.61-.37.98-.49ZM84.55,16.41c.26.26-.35.63-.49.49-.26-.26.35-.63.49-.49ZM82.77,10.63c.84-.02,1.4.19,1.47.93-.4.16-.96.16-1.33,0-.05-.3-.21-.49-.14-.93ZM81.58,13.44c.26.26-.35.63-.49.49-.26-.26.35-.63.49-.49ZM79.54,13.98s-.09.16-.14.14c-.07-.07.09-.16.14-.14ZM76.13,12.43c-.21.72-.44-.05-.98,0,.12-.63.98-.49.98,0ZM74.64,5c.26.26-.35.63-.49.49-.26-.26.35-.63.49-.49ZM74.15,11.94c0,.49-.61.37-.98.49,0-.49.61-.37.98-.49ZM72.67,11.45c-.09.56-.49.28-.49,0,.09-.56.49-.28.49,0ZM72.16,3.53c.26.26-.35.63-.49.49-.26-.26.35-.63.49-.49ZM70.69,6.5c-1.17,1.59-2.01-1.73,0,0h0ZM70.2,8.48c-.26-.26.35-.63.49-.49.26.26-.35.63-.49.49ZM70.2,10.96c-1.17,1.59-2.01-1.75,0,0h0ZM68.21,7.99c.26.26-.35.63-.49.49-.26-.26.35-.63.49-.49ZM66.72,5.52c0-.49.61-.37.98-.49,0,.49-.61.37-.98.49ZM67.23,2.52c0,.49-.61.37-.98.49,0-.49.61-.37.98-.49ZM66.72,6.5c.26.26-.35.63-.49.49-.26-.26.35-.63.49-.49ZM66.22,10.96c.26.26-.35.63-.49.49-.26-.26.35-.63.49-.49ZM65.24,8.48c0-.49.61-.4.98-.49,0,.49-.61.37-.98.49ZM65.73,3.04c.26.26-.35.63-.49.49-.26-.26.35-.63.49-.49ZM63.79,4.23c.16.07.3.16.42.28h.05s.05.07.05.09c.19.23.28.56.28.96-.42-.12-.72-.33-1.07-.54-.02-.4.3-.42.26-.79h.02ZM61.27,7.48c.26.26-.35.63-.49.49-.26-.26.35-.63.49-.49ZM61.78,10.45c0,.49-.61.37-.98.49,0-.49.61-.37.98-.49ZM60.78,8.97c1.66-1.19-1.19,1.66,0,0h0ZM58.44,7.15c0,.14-.16.09-.26.14,0-.14.16-.09.26-.14ZM58.3,7.99c-.51.42-.89-.44-.98-.49-1.92-1.1,1.33.21.98.49ZM56.32,6.99c.26.26-.35.63-.49.49-.26-.26.35-.63.49-.49ZM54.35,8.97c.49,0,.37.61.49.98.79.14.84-.47,1.47-.49-.37-.47-.89-.75-1.47-.98.79-1.54,1.57,1,2.48.98-1.17,1.31-5.68,1.36-7.43.49.7-2.13,3.6.23,4.46-.98ZM49.4,11.45c.26.26-.35.63-.49.49-.26-.26.35-.63.49-.49ZM47.9,13.93c.65.16.77.86,1.5.98.09.42-.19.47-.49.49h-.98v-1.5l-.02.02ZM47.41,16.41c-.4-.26-.79-.51-1.5-.49.16-1.36,1.73-1.05,1.5.49ZM46.92,12.92c-.42,1.45-1.24-.65-2.48,0,.12-1.17,2.17-.28,2.48,0ZM44.45,14.91s.54-.75.98-.49c1.64.89-4.32.98-.98.49ZM39,20.36c0,.49-.61.37-.98.49,0-.49.61-.37.98-.49ZM36.52,20.36c0,.49-.61.37-.98.49,0-.49.61-.37.98-.49ZM33.58,21.31c.37-.19.68.07,1.22-.14.4.28,1.17.16,1.19.79-.33.12-.58.3-1.07.26-.28.21-.79.63-1.19.26,0-.33-.02-.65.26-.68.05-.35-.51-.12-.4-.54v.05ZM33.56,23.81c-.09.56-.49.28-.49,0,.09-.56.49-.28.49,0ZM30.1,23.32c.72.26,1.24.72,1.99.98.23.65-2.45.21-1.99-.98ZM29.44,24.26c-.4,0-.89.07-.79-.4.3-.28.84-.05.79.4ZM28.6,27.3c.61-.35,1.07-.51.49,0s-1.17.4-.49,0ZM28.6,31.24c0,.49-.61.37-.98.49,0-.49.61-.37.98-.49ZM26.61,29.77c.26.26-.35.63-.49.49-.26-.26.35-.63.49-.49ZM25.05,33.89c-.54-.02-1.1.4-1.22-.26.23-.16,1.33-.33,1.22.26ZM23.65,33.23c-.07,1.24-1.68.14-1.99,0,.07-1.24,1.68-.14,1.99,0ZM20.19,38.68c-.05.93-1.64.35-1.5,1.5-.4-.09-.49-.49-.98-.49v-.98c.93-.93.89.28,2.48,0v-.02ZM17.71,41.15c-.26-.26.35-.63.49-.49.26.26-.35.63-.49.49ZM17.71,37.67c-.21.72-.44-.05-.98,0,.12-.63.98-.49.98,0ZM17.22,39.66c-.16.68-1.24.42-1.99.49.14-1.15,1.33-1.15,1.99-.49ZM13.27,45.59c0,.49-.61.37-.98.49,0-.49.61-.37.98-.49ZM9.28,89.48c-.19.14-.26.35-.4.54-.4-.14-.44-.4-.26-.79.42-.02.56.23,1.07.14-.07.28-.21.28-.4.14l-.02-.02ZM9.28,86.79c.3-.05.51,0,.68.14,0,.4-.79.35-.68-.14ZM9.93,90.53h.79c.16.79-.89.58-.79,0ZM9.93,79.99v-.28c.26-.05.42.02.4.28h-.4ZM12.08,92.42c-.65.14-.26-.7,0-.28v.28ZM11.94,89.34s-.09.16-.14.14c-.07-.07.09-.16.14-.14ZM13.67,92.28v-.4c.28-.05.35.09.54.14-.02.23-.23.3-.54.26ZM16.36,92.42c-.23,0-.28-.16-.54-.14v-.68c.49,0,.37-.14.79,0,.07.42-.19.51-.26.79v.02ZM16.89,88.26c-.21-.65.65-.63.93-.4.09.54-.51.37-.93.4ZM21.96,96.42s.14-.14.14-.26h.26c.07.28-.19.26-.4.26ZM23.83,94.69c-.16,0-.23.02-.26.14-.35,0-.3-.49-.14-.68.19.12.51.12.4.54ZM25.05,93.36c-.84.09-1.03-.47-1.61-.68,0-.33,0-.65.14-.79.75-.16.47.7,1.07.68.44-.19.63-.61.93-.93.4.05.54.75.26,1.07-.33.23-1.03-.3-.79.68v-.02ZM25.31,96.42h-.68c-.26-.28-.35-.7-.4-1.19.23,0,.28-.16.54-.14.14-.49-.33-.37-.26-.79.44-.23.91-1.07,1.47-.4.09.79-.12,1.31-.14,2.01-.42.07-.47-.23-.93-.14-.14.49.49.21.4.68v-.02ZM25.98,98.97c-.19-.37-.37-.79,0-1.07.42.26.7.63,1.07.93-.09.49-.54-.02-1.07.14ZM26.78,94.15c.07.42-.12.61-.54.54v-.54h.54ZM26.38,92.42c.49.4-.4.44,0,0h0ZM26.5,97.1c.47-.05.77.05.68.54-.33.33-.84.05-.68-.54ZM27.04,95.49s.09-.16.14-.14c.07.07-.09.16-.14.14ZM27.32,95.49c-.02-.47.44-.44.54-.79.49.21.65.79.26,1.19-.51.12-.47-.33-.79-.4ZM28.11,98.83c-.28-.26,0-.56.26-.68-.05-.3-.47-.26-.4-.68.58-.14.44.44.93.4-.16.42-.3.86-.79.93v.02ZM31.2,96.02c-.35.05-.58-.05-.54-.4.35-.02.68-.05.54.4ZM34.12,97.21c.19-1.22-1.61-.44-1.33-1.73,1.38-.23,1.96.35,2.15,1.33-.33.07-.28.51-.79.4h-.02ZM35.73,94.55c-.26.14-.21.58-.68.54-.12-.42-.42-.63-.68-.93.05-1.03,1.47-.91,1.87-.26,0,.4-.3.49-.54.68l.02-.02ZM38.14,96.28c-.28.05-.35-.09-.54-.14.07-.12.14-.21.14-.4h.4v.54ZM38.28,98.83s.09-.16.14-.14c.07.07-.09.16-.14.14ZM38.28,87.87c.19-.07.33-.21.54-.26.42-.07.37.33.54.54.54-.09.77.14.68.68-.44,0-.82.07-1.07.28-.37-.26-.51-.72-.68-1.19v-.05ZM39.61,92.28c-.16.12-.35.19-.68.14-.19-.16-.19-.63,0-.79h.54c-.05.33.26.28.14.68v-.02ZM40.4,96.42c-.28.05-.35-.09-.54-.14.02-.4.63-.33.54.14ZM41.08,95.88c.02-.14.14-.07.14,0-.02.16-.14.07-.14,0ZM44.82,97.21c-.68.12-.98-.19-1.61-.14-.21-.61-.93-.65-1.07-1.33.7-.58,1.75,0,2.8-.14.33.58-.19.91-.14,1.61h.02ZM43.07,87.61c.16-.16.47-.14.79-.14-.23.26-.16.82-.68.79-.12-.16-.19-.35-.14-.68l.02.02ZM44.14,90.67v-.26s.12-.05.14-.14c.26-.05.19.61-.14.4ZM45.61,95.88c0-.16.23-.12.4-.14,0,.16-.23.12-.4.14ZM45.47,87.73c0-.14.16-.09.26-.14,0,.14-.16.09-.26.14ZM46.41,96.42v-.26c.28-.07.26.19.26.4-.12-.02-.14-.14-.26-.14ZM46.41,89.2h.54c.16.47-.75.61-.54,0ZM47.62,89.08c-.51-.02-.89-.19-.93-.68.47-.37,1.03.05.93.68ZM49.49,87.47c-.51.12-.47-.61-.26-.79.51-.12.47.61.26.79ZM49.75,86.68c-.37,0-.33-.63-.14-.79.3-.05.51,0,.68.14.05.47-.4.4-.54.68v-.02ZM50.15,93.08c.49-.05.79.12.79.54-.35.3-.91,0-.79-.54ZM51.5,89.74c-.35.05-.58-.05-.54-.4.12.02.12-.05.14-.14.35-.05.44.19.4.54ZM52.16,91.61c-.51-.07-.72-.51-.54-.93.51,0,.91.16.79.79-.16,0-.23.02-.26.14ZM53.09,92.94c-.3,0-.05-.56-.14-.79.47.12,0,.33.14.79ZM52.69,90.02v-.4h.4v.4h-.4ZM53.37,84.92s.09-.16.14-.14c.07.07-.09.16-.14.14ZM53.63,94.15c.49-.05.93-.02.79.54-.21.16-.93.05-.79-.54ZM54.56,86.93c.35-.05.58.05.54.4-.26.26-.65.07-.54-.4ZM55.24,94.15c-.12-.77.61-1.24,1.07-.65.12.68-.56,1.03-1.07.65ZM55.38,89.74c.16-.12.35-.16.68-.14.23.63-.77.75-.68.14ZM57.65,94.95h-.26v-.26h.26v.26ZM57.77,94.29h-.4v-.4h.4v.4ZM59.92,77.58c0-.14.16-.09.26-.14,0,.14-.16.09-.26.14ZM60.85,83.59h-.26v-.26h.26v.26ZM63.51,76.77c-.49.09-.33-.47-.54-.68-.35-.21-.19-.42,0-.68.35.23.82.89.54,1.33v.02ZM62.86,73.96c.33,0,.51.19.54.54-.51.14-.77-.3-.54-.54ZM65.8,75.04h-.54c.12-.19.21-.42.54-.4v.4ZM65.66,75.83s.09-.16.14-.14c.07.07-.09.16-.14.14ZM66.86,82c-.82-.09-1.82-.49-1.33-1.47.56,0,.75.23,1.19,0,.33.19.37,1.12.14,1.47ZM65.92,74.64v-.54c.35-.28,1.19-.19.93.54h-.93ZM67.53,81.72c.02-.14.14-.07.14,0-.02.16-.14.07-.14,0ZM67.39,73.17c.56-.07.63.33.68.79-.28-.21-.82-.16-.68-.79ZM67.23,68.87c0-.49.61-.37.98-.49,0,.49-.61.37-.98.49ZM67.93,71.04c-.35-.58.4-1.4,1.07-.93.07.75-.28,1.07-1.07.93ZM68.7,69.36c0-.49.61-.4.98-.49,0,.49-.61.37-.98.49ZM69.94,77.19c-.14,0-.28.19-.54.14-.33-.07-.61-.35-.79-.54.07-.51.56-.58,1.07-.68-.12.47.21.51.14.93.42.09.26-.37.68-.26,0,.16.02.23.14.26.05.44-.37.12-.68.14h-.02ZM70.88,74.64c-.44,0-.51-.37-1.07-.26.07-.82-.98-.54-.68-1.61.07-.19.51,0,.54-.26.44.12.42.75.68,1.07.98-.4,1.12.72,2.13.68.05.7-1.05.28-1.61.4l.02-.02ZM72.07,69.29c-.05.49.12,1.19-.14,1.47-.63.09-.86-.21-1.33-.26v-.68c-.05-.28-.58-.02-.54-.4-.07-1.24,1.54-.35,2.01-.14ZM71.95,67.28c.3-.05.51,0,.68.14,0,.4-.28.51-.4.79-.42-.12-.44-.54-.26-.93h-.02ZM72.07,71.84c-.33-.42-.09-1.17.68-.93.05.58-.23.84-.68.93ZM73.28,77.72h-.4c-.07-.28.09-.35.14-.54.23.02.3.23.26.54ZM73,68.1c-.23-.3.37-1.29.93-.79.02.61-.4.77-.93.79ZM74.87,76.91c-.23-.02-.3-.23-.26-.54h.4c.05.28-.09.35-.14.54ZM75.27,71.56s.09-.16.14-.14c.07.07-.09.16-.14.14ZM74.85,70.25s.12.07.16.12c.02.47-.19.7-.68.68-.4-.4.05-.96.47-.79-.84-.37-.79-1.43,1.8-.37-.68.56-1.33.56-1.78.4l.02-.02ZM74.33,68.21s.21-.14.4-.14c.44.26,1,.42,1.07,1.07-.86.05-1.26-.35-1.47-.93ZM75.64,67.89c.12-.63.98-.49.98,0-.21.72-.44-.05-.98,0ZM76.13,63.91c-.26-.26.35-.63.49-.49.26.26-.35.63-.49.49ZM77.56,71.7v-.26c.26-.05.42.02.4.26h-.4ZM77.61,68.38c-.26-.26.35-.63.49-.49.26.26-.35.63-.49.49ZM77.61,64.9c-.26-.26.35-.63.49-.49.26.26-.35.63-.49.49ZM78.61,80.39c-.26-.09-.35-.35-.4-.68.19-.16.49-.16.68,0,.12.42-.21.42-.26.68h-.02ZM78.35,64.9s.14-.14.14-.28h.26c.07.28-.19.26-.4.28ZM79.29,71.7s.09-.16.14-.14c.07.07-.09.16-.14.14ZM80.57,67.37c-.26-.26.35-.63.49-.49.26.26-.35.63-.49.49ZM81.09,68.87c-1.36-1.5,1.5,1.36,0,0h0ZM67.51,12.13c3.32.02,6.75,0,9.6,1.22,6.01,2.59,9.88,6.75,10.8,9.09,4.65,12.74,1.71,23.7-5.3,34.07.16,0,.3,0,.47-.02-.05.35-.37.42-.75.44h0c-2.22,1.5-4.42,3.6-6.89,5.7v.09c-.07.05-.14.09-.21.09-.86.72-1.75,1.45-2.69,2.13.14,0,.3,0,.49-.05,0,0,0-.05.02-.05,0,0,.05.02.07.05h.09v.05c.35.21.75.68.54,1-.26-.12-.63-.35-.72-.65-.12.09-.28.14-.49.16.05.02.09.07.14.09-.21.84.65.58.68,1.22-.35.35-1.12-.23-.68-.68-.54.07-.72-.23-.86-.58-.72.49-1.47.98-2.24,1.43-.3.33-.77.72-.51.28-1,.54-2.06,1.03-3.18,1.43-.26.23-.47.37-.33.09-.37.12-.72.26-1.12.35-2.31.65-4.7.98-6.96,1.03.35,1.78.37,3.76.4,5.44.07,5.33-1.12,7.15-6.57,9.02-3.97,1.36-7.13,2.43-11.03,2.8-.09,0-.19.02-.28.02.07.07.09.16.07.28-.28.05-.35-.09-.54-.14,0-.05,0-.07.02-.09-1.31.16-2.69.42-3.9.35-1.05-.05-2.08-.14-3.11-.21-.02.05-.07.02-.14,0-2.34-.19-4.58-.47-6.68-.91-2.31-.49-7.27-.68-8.69-2.17-2.71-2.9-5.47-4.88-6.99-8.39-1.99-4.53-2.15-8.18-1.71-11.22,1.24-8.86,3.97-15.59,7.71-21.31-.37.05-.82.05-1.29,0,.42-.49,1.07-.72,1.85-.86,1.19-1.1,2.55-2.69,4.09-4.25.02-.19.19-.33.37-.37h0c.19-.19.37-.37.58-.56-.37-.16-.7-.33-.96-.37.21-.42.77-.28,1.45-.05.14-.12.3-.23.44-.37-.26-.4-.51-.79-.21-1.43.33,0,.56-.09.75-.23-.05-.19.21-.37.37-.42.07-.12.14-.26.21-.4h1.19c.47-.44.86-.14,1.31.09.86-.42,1.75-.79,2.64-1.07-.05-.93.09-1.96.21-2.85.28-2.03.79-3.15,2.41-4.53,0,0,.05-.05.07-.05.47-.37.98-.77,1.64-1.24,1.5-1.05,2.85-1.99,4.32-2.87-.16.02-.33.05-.47.09,0-.49.61-.4.98-.49,0,.07-.02.09-.05.14.7-.42,1.43-.82,2.2-1.24,1.07-.56,2.29-1.29,3.39-1.75,2.83-1.17,5.84-2.36,8.86-3.32.28-.09.58-.19.93-.33-.35-1.33.7-1.24.51-2.43.93-.21,2.99.68,2.48-.98.93-.44,1.17.93,1.5.98.37.07,1.15-.82,1.99-.49.21.07-.26.7-.49.49.09.09.26.16.42.21.77-.23,1.5-.42,2.1-.51.26-.58,1.38-1.24,1.43-.21.49,0,.37-.61.49-.98.79-.09.77.65.98,1.15.89,0,1.78,0,2.69.02M87.58,50.2s.09-.16.14-.14c.07.07-.09.16-.14.14ZM86.02,53.02c-.26-.26.35-.63.49-.49.26.26-.35.63-.49.49ZM86.02,55.01c-.26-.26.35-.63.49-.49.26.26-.35.63-.49.49ZM85.53,54.52c0,.49-.61.37-.98.49,0-.49.61-.37.98-.49ZM82.56,63.42c-.26-.26.35-.63.49-.49.26.26-.35.63-.49.49ZM83.54,58.47c-.26-.26.35-.63.49-.49.26.26-.35.63-.49.49ZM85.04,56.48h.98c.09,1.4-3.69-.14-.98,0ZM86.77,61.02c.02-.16.14-.07.14,0-.02.16-.14.07-.14,0ZM87.84,62.61h-.26v-.26h.26v.26ZM88.1,61.13c-1.15,0-1.99-1.15-1.47-2.01-.07-.26-.33-.33-.61-.37-.12.16-.42.3-.49.21-.12-.12-.05-.26.05-.35h0c-.05-.54.14-.84.68-.79,0-.49.14-.37,0-.79.47.07.68-.12.79-.4h.09c-.02-.42.26-1.07.4-1.12.49-.12.84.98.98.98.12,0,1.89-1.78.49,0-.09.42.19.47.49.49,0,.7-.42.44-.84.12-.05.91.79.93,1.33,1.24.26.65-.26.75-.14,1.61-.56.42-1.26.7-1.73,1.19h-.02ZM92.51,64.36c-.19-.05-.4-.07-.58-.09-.14.14-.37.23-.44.14-.07-.07-.07-.16-.02-.23-.23-.07-.44-.16-.54-.35-.58-.07-.65.19-1.07,0,.05-.77-.47-.96-.79-1.33.19-.56.86-.65,1.19-1.07h.26c.61,0,.86.37,1.33.54v.4c.26.26.7.35,1.07.54.28.14.82.23.79.68-.54.12-1.07.26-1.19.79ZM93.94,64.9v-.98c.98-.16,1.54.09,1.5.98h-1.5ZM94.43,58.47c0-.49.61-.37.98-.49,0,.49-.61.37-.98.49ZM94.94,62.93c-.26-.26.35-.63.49-.49.26.26-.35.63-.49.49ZM93.73,32.55c.47-.33,1.29-.33,1.73,0,.12.44-.05.75.14,1.33-.7-.35-1.89-.26-1.87-1.33ZM95.46,10.89c.21-.47.98-.49,1.33-.14-.19.61.14,1-.26,1.47h-.4c-.56-.12-.68-.68-.68-1.33ZM96.39,31.34c-.21-.14-.3-.35-.14-.54.3.05.3.35.14.54ZM95.93,61.93c-.26-.26.35-.63.49-.49.26.26-.35.63-.49.49ZM96.42,62.93c0-.47.61-.37.98-.49,0,.49-.61.37-.98.49ZM97.91,47.09c.26.26-.35.63-.49.49-.26-.26.35-.63.49-.49ZM98.01,54.47c-.37.09-.28-.26-.54-.26.05-.19.33-.12.54-.14v.4ZM97.91,39.66c-.26-.26.35-.63.49-.49.26.26-.35.63-.49.49ZM98.8,37.62c-.47-.16-.72-.51-1.33-.54-.09-.65-.56-.96-.54-1.73.54-.21,1.87-.21,2.41,0,.09.47.09.96.14,1.73-.26.14-.56.23-.68.54ZM99.88,34.21c-.26-.26.35-.63.49-.49.26.26-.35.63-.49.49ZM102,29.21c.05.28-.09.35-.14.54-.4-.02-.33-.63.14-.54ZM101.37,33.23c-.26-.26.35-.63.49-.49.26.26-.35.63-.49.49ZM102.14,52.6c-.21.21-.77.19-.68-.28.19-.21.77-.19.68.28ZM102.35,24.33c-.26-.26.35-.63.49-.49.26.26-.35.63-.49.49Z"/>
    <path class="cls-13" d="M87.54,56.74c.35.19.58.47,1,.28-.44-.35-.89-.72-1-.28Z"/>
    <path class="cls-14" d="M57.7,5.21c-.28.12-.58.23-.86.37.3-.05.68-.02,1-.07-.02-.09-.07-.19-.12-.3h-.02Z"/>
    <path class="cls-15" d="M55.99,21.29c-.28,0-.56-.09-.84-.19-.26.09-.68-.02-1.07-.3-.14-.02-.26-.05-.4-.05-.54.05-1.15.19-1.75.35.23.09.54.19.96.21-.3.44-.61.89,0,.98-.49,1.52-1.31-.56-1.99-.49.05-.19.12-.33.16-.44-.65.19-1.29.37-1.85.4-.12.07-.26.09-.3.05v-.02c-.35,0-.68-.09-.91-.3-.02.21-.44.44-.54.33-.02-.02-.05-.05-.05-.07-2.38,1.29-3.9,1.61-5.16,1.64.07,0,.14.05.21.07,0,.23-.02.37-.09.47.21-.05.44-.07.65-.12,0,.49-.61.4-.98.49,0-.12.05-.19.09-.26-.23.02-.56-.12-.72-.33,0-.07.07-.12.09-.16-.28.12-.61.28-.98.47-.02.02-.05.07-.07.12.21.33.47.58.79.79-.02.42-.37.51-.54.79-.75-.09-.82-.72-.77-1.43-.23.12-.47.26-.7.37.16.14.12.54-.47.84.12.28.23.51.07.75.05.3.47.26.4.68-.4.44-1.5.54-2.01,0,.14-.54.84-.49,1.22-.79-.07-.16-.21-.26-.35-.35h-.02v-.02c-.12-.09-.23-.16-.28-.3,0,0,.02-.05.05-.07-.07.05-.14.07-.21.09-.07.21-.44.4-.54.3h0c-1.8.98-3.62,2.34-4.91,4.11-.75,1.03-1,1.96-1.26,2.87,1.89-.37,3.65-.35,4.91.07h.07s0-.09.05-.16c.09.05.21.07.33.12h0c.26-.19.75-.19,1.07-.02.63.05,1.19.19,1.66.44h.05c1.07.58,1.75,1.68,2.13,3.06h.49c.07.3-.19.42-.4.4,0,.05.02.12.05.16.21-.09.49-.09.72-.16,0,.37-.35.4-.68.44.16,1.15.14,2.43-.07,3.79.02,0,.07.05.12.05-.02.12-.14.14-.14.26h-.02c-.35,2.06-1.07,4.28-2.17,6.36h0c.28.58-.16.98-.4.68-.3.54-.63,1.07-1,1.57-.7.72-1.43,1.61-2.22,2.59-.23.28-1.26.84-1.43,1.07-.19.28.12,1.03-.12,1.29-.56.56-.93.54-1.4,1.05-3.51,3.97-10.7,6.99-15.24,8.76-.56,6.05,2.87,8.32,6.5,10.68.44-.02.75.07.93.28-.07.14-.14.26-.21.4.4.49.79,1.1,1.17,1.29,1.68.84,3.76,1.78,5.37,2.17.98.14,1.66.21,2.55.12-.05-.09-.12-.75-.05-.89h.54c0,.16.02.23.14.26,0,0,.07.77.07.79,1.52.3,2.64.23,3.67.33.37.02,1.68-.02,2.92-.26-.12-.3-.14-.65.16-.86.44,0,.63.28.68.7.54-.09,1.03-.19,1.31-.23,3.18-.37,6.89-1.66,9.23-4.77,1.12-1.5,1.4-3.08,1.64-4.63h0c-3.18-.33-6.29-.65-7.88-1.33-8.11-2.69-8.39-11.24-5.28-18.72-.21.05-.44.05-.65.12,0-.4.42-.4.79-.47.56-1.31,1.24-2.55,2.03-3.67.72-.75,1.5-1.66,2.31-2.69.26-.3,1.38-.93,1.54-1.17.21-.3-.21-.98.02-1.24.58-.61,1.03-.63,1.54-1.19.84-.93,1.94-1.89,3.22-2.85-.26-.07-.54-.09-.84-.12,0,0,.05,0,.05.02-.02.37-.23.56-.68.54-.09-.12-.14-.3-.14-.54-.07-.56,1.54-.82,2.27-.42,1.45-1.03,3.08-2.06,4.81-3.04h-.63c.4-1.33.16-1.99,1.5-.49h0c3.58-2.01,7.45-3.9,10.8-5.49-1.22-5.73-7.31-5.8-12.64-5.94l-.05.02ZM32.57,31.24c-.26-.26.35-.63.49-.49.26.26-.35.63-.49.49ZM33.56,31.24c.58-1.03,3.62-.35,3.46.98-2.08.61-2.17-.79-3.46-.98ZM36.52,28.28c.09-.56.49-.28.49,0-.09.56-.49.28-.49,0ZM33.18,65.83c-.47.14-1.43-.23-1.33-1.07.89-.07,1.33.26,1.33,1.07ZM33.06,73.57c-.42.09-.26.09-.68,0,.05-.3.47-.26.4-.68.44-.14.21.42.26.68h.02ZM32.78,71.3c-.21.21-.77.19-.68-.26.21-.21.77-.19.68.26ZM33.06,71.84c0,.35.05.77-.14.93-.37,0-.23-.56-.26-.93h.4ZM30.77,72.49c-.3.42-.54-.47,0,0h0ZM29.44,73.31c-.05-.3,0-.51.14-.68.61-.09.49.89-.14.68ZM29.72,70.76c-.09.12-.14.3-.14.54-.58.07-.47-.72.14-.54ZM24.91,66.34c.26-.05.42.02.4.26h-.4v-.26ZM21.57,66.77c-.3.05-.51,0-.68-.14,0-.4.79-.35.68.14ZM23.16,62.44c0-.49.61-.4.98-.49,0,.49-.61.37-.98.49ZM25.45,75.18c-.58-.07-.65.19-1.07,0-.3-.89,1.4-.96,1.07,0ZM25.31,67.56v-.79c.35,0,.77-.05.93.14-.02.49-.54.51-.93.68v-.02ZM28.37,65.95c.33-.12.58-.3,1.07-.28.05.75-.56.86-.54,1.61-.61,0-.4-.84-.54-1.33ZM28.91,74.1c-.12-.84,1.33-.86,1.19,0-.49-.07-.84.35-1.19,0ZM30.38,74.64h.68c-.02.33.3.33.4.54-.26.61-1.19.09-1.07-.54ZM31.2,72.77c.35-.05.58.05.54.4-.35.05-.68.05-.54-.4ZM31.59,79.06c.02-.23.23-.3.54-.26.14.4-.3.23-.54.26ZM32.92,78.52h-.26v-.26h.26v.26ZM33.06,74.9c-.26,0-.44-.09-.54-.28-.37.02-.16.63-.68.54-.12-.33-.3-.58-.26-1.07.12-.07.23-.12.26-.26.56-.02.93.12,1.33.26,0,.33,0,.65-.14.79l.02.02ZM34.51,73.31h.4v.4h-.4v-.4ZM33.86,65.01c-.02.16-.14.07-.14,0,.02-.16.14-.07.14,0ZM33.46,67.82h.54c.14.4-.3.23-.54.26v-.26ZM35.19,75.18h-1.33c-.05-.33.23-.28.14-.65h1.07c-.05.33.26.28.14.65h-.02ZM35.87,65.69s.09-.16.14-.14c.07.07-.09.16-.14.14ZM45.47,76.37c.56-.14.56.96,0,.79-.05-.3-.26-.56,0-.79ZM44.94,70.62c-.12.23-.47.35-.68.14,0-.35.49-.33.68-.14ZM44.14,74.1c-.4-.09-.56-.42-.54-.93.44.02.86.54.54.93ZM43.21,70.11c.4-.14.23.3.26.54-.23-.12-.51-.3-.26-.54ZM38.53,51.25c-.02.16-.14.07-.14,0,.02-.14.14-.07.14,0ZM38.39,69.43v-.26h.54c.14.4-.3.23-.54.26ZM40.01,72.23v-.26c.26-.05.42.02.4.26h-.4ZM40.8,76.77h-.26v-.26h.26v.26ZM40.8,73.17c.05-.16.23-.21.26-.4.33.05,0,.51-.26.4ZM42.67,75.97c-.51.07-.77-.12-1.07-.26-.05-.3,0-.51.14-.68.4.23,1.03.21.93.93ZM42.13,71.3c.16.05.28.16.26.4-.23.23-.79.12-.68.68-.49.09-.89.21-.79-.54.7.12.86-.3,1.22-.54ZM40.15,67.56c.28.09.23.16.19.33h.68v.98h-.98v-.79c-.37,0-.82.12-.93-.12-.14-.63,1,0,1.07-.4h-.02ZM39,65.9c.26.26-.35.63-.49.49-.26-.26.35-.63.49-.49ZM39.49,47.09c0-.49.61-.4.98-.49,0,.49-.61.37-.98.49ZM67.23,24.82c.26.26-.35.63-.49.49-.26-.26.35-.63.49-.49ZM64.24,23.32c.26.26-.35.63-.49.49-.26-.26.35-.63.49-.49ZM61.27,22.34c0,.49-.61.4-.98.49,0-.49.61-.4.98-.49ZM59.8,22.34c0,.49-.61.4-.98.49,0-.49.61-.4.98-.49ZM57.32,23.81c.26.26-.35.63-.49.49-.26-.26.35-.63.49-.49ZM56.43,27.88c-.14.12-.05.49-.4.4v-.4h.4ZM55.9,23.72c.02-.14.26-.09.26-.26.54.09,0,.63-.26.26ZM56.32,21.85c.12,1.47-1.75,1.75-2.48.98.42-.72,1.59-.72,2.48-.98ZM54.42,23.6c0,.35-.49.3-.68.14.09-.42.35-.16.68-.14ZM53.86,26.78c-.26-.26.35-.63.49-.49.26.26-.35.63-.49.49ZM51.08,23.07c.37.07.42.42.3.7.65-1.82,2.34,1.52,2.45.07,1.24,1.24-1.66.68-2.48,0v-.02c-.05.09-.09.16-.16.21-.19-.05-.21-.23-.4-.26,0-.33.21-.42.26-.68l.02-.02ZM52.69,25.08c-.28.07-.26-.19-.26-.4.16.07.28.16.26.4ZM47.9,22.34v1.5c-.89.12-2.48-.49-1.99.98-.54-.12-.33-.98-.98-.98.28-1.19,1.87-1.1,2.97-1.5ZM47.88,24.54c0,.35-.49.3-.68.14,0-.35.49-.33.68-.14ZM46.43,27.3c-.21.61-.63,1-1.5.98.21-.61.63-1.03,1.5-.98ZM43.95,23.81c-.09.56-.49.28-.49,0,.09-.56.49-.28.49,0ZM43.46,26.78c.26.26-.35.63-.49.49-.26-.26.35-.63.49-.49ZM43.07,24.8c-.28.05-.35-.09-.54-.14.02-.4.63-.33.54.14ZM39.33,28.81c-.09-.82.65-.68,1.19-.54v.68c-.4.19-.72-.07-1.19-.14ZM40.8,30.8c-.05-.3,0-.51.14-.68.3-.05.49.02.54.26.07.42-.28.42-.68.4v.02ZM40.5,29.77c0-.33.28-.37.58-.42-.09-.02-.14-.14-.26-.14.02-.12.14-.14.14-.26.12,0,.14.14.26.14-.02.12-.12.14-.14.26.14,0,.28-.05.4-.07,0,.49-.61.4-.98.49ZM41.48,27.74c.35,0,.51.19.54.54-.14,0-.09.16-.14.26-.75.16-.77-.56-.4-.79ZM41.87,29.75h.4c.07.28-.09.35-.14.54-.23-.02-.3-.23-.26-.54ZM42.46,34.21c.26.26-.35.63-.49.49-.26-.26.35-.63.49-.49ZM41.48,41.15c-.26-.26.35-.63.49-.49.26.26-.35.63-.49.49ZM42.01,35.61c.37,0,.91-.12.93.26,0,.79-1.5.3-.93-.26ZM43.46,31.24c-.26-.26.35-.63.49-.49.26.26-.35.63-.49.49ZM44,29.35h0c.05.42-2.01,1.33-1.52.42.05-.09.47-.44.89-.56.02-.37.79-.35.65.14h-.02ZM43.95,28.77c-.26-.26.35-.63.49-.49.26.26-.35.63-.49.49ZM44.94,30.26l-.14-.07c.12.12.23.19.16.49-.61,0-.77-.47-.79-1.07.21-.05.26.05.28.14-.05-.49.68-1.07,1.45-1.1,0-.28,0-.54.14-.65.49.02.86.21,1.07.54.07.35-.26.44-.58.42.49,1.45-1.75.16-1.57,1.29l-.02.02ZM45.94,33.23c.09-.56.49-.28.49,0-.09.56-.49.28-.49,0ZM46.15,40.57c.16-.23.28-.51.68-.54,0,.42-.35.47-.68.54ZM48.16,39.1c-.56-.12-.75.14-.93.4-.42.07-.61-.12-.54-.54.61.07.7-.35.93-.68.44-.02.65.16.68.54-.12,0-.09.16-.14.26v.02ZM50.38,34.21c-.26-.26.35-.63.49-.49.26.26-.35.63-.49.49ZM51.62,32.41c-.42.26-.68.65-1.07.93-.77-.28-.86-.12-1.73,0,.02-.12-.05-.12-.14-.14-.44-.05-.4-.58-.79-.68-.07-.37-.58-.33-.68-.68.23-.7.63-1.5.26-2.41.51-.16,1.03-.33,1.33-.68.58.19.84.07,1.47,0,.56.37.86,1,1.33,1.47-.14.86.23,1.12,0,2.15l.02.02ZM52.69,34.82s-.14-.21-.14-.4c0-.09-.07-.12-.16-.14.12.26-.4.56-.54.42-.16-.16.05-.4.26-.49-.05,0-.09-.02-.09-.07-.05-.23.75-.23.54.14.4,0,.75.05.68.54h-.54ZM51.88,30.26c-.19-.84.4-.93.98-.98-.49-.65-.82-1.5-1.5-1.99-.42-.09-.47.19-.49.49-.91-1.87,2.99-.16,4.95-.49-.49.68-1.33.98-1.99,1.5-1.31-.14-.4,1.92-1.99,1.5l.02-.02ZM53.86,30.75c-.26-.26.35-.63.49-.49.26.26-.35.63-.49.49ZM56.83,30.26c-.77,1.38-2.43-.49-2.48-1.5,1.22-.07,2.38-.07,2.97.49-.28.47-1.38.75-.49.98v.02ZM57.32,27.3c.12-.63.98-.49.98,0-.44.3-.89.61-.98,0ZM58.79,27.79c0-.49.61-.37.98-.49,0,.49-.61.37-.98.49ZM61.39,29.21h-.26v-.26h.26v.26ZM60.29,26.78c.07-.58.91-.42,1.5-.49-.09.58-.91.42-1.5.49ZM62.77,24.82c-.21-1.24-2.27-.37-1.5.98-.4-.42-1.36-.3-1.5-.98-3.69.12-.4-.77.98-.98,0,1.17,1.36-.19.98-.98,1.31.33,1.82,1.5,2.48,2.48,1-.16,1.54.09,1.5.98-.7-.44-5.26-1.22-2.97-1.47l.02-.02ZM65.24,23.81c-.26-.26.35-.63.49-.49.26.26-.35.63-.49.49ZM66.72,26.29c-.26-.26.35-.63.49-.49.26.26-.35.63-.49.49Z"/>
  </g>
</svg>