<?xml version="1.0" encoding="UTF-8"?>
<svg id="Layer_1" data-name="Layer 1" xmlns="http://www.w3.org/2000/svg" xmlns:xlink="http://www.w3.org/1999/xlink" viewBox="0 0 256 256">
  <defs>
    <style>
      .cls-1 {
        fill: url(#linear-gradient-4);
      }

      .cls-2 {
        fill: url(#linear-gradient-3);
      }

      .cls-3 {
        fill: url(#linear-gradient-2);
      }

      .cls-4 {
        fill: url(#linear-gradient);
      }
    </style>
    <linearGradient id="linear-gradient" x1="128" y1="-53.09" x2="128" y2="132.79" gradientTransform="translate(0 258) scale(1 -1)" gradientUnits="userSpaceOnUse">
      <stop offset="0" stop-color="#886226"/>
      <stop offset="1" stop-color="#e3a732"/>
    </linearGradient>
    <linearGradient id="linear-gradient-2" x1="211.74" y1="-53.09" x2="211.74" y2="132.79" xlink:href="#linear-gradient"/>
    <linearGradient id="linear-gradient-3" x1="136.89" y1="-53.09" x2="136.89" y2="132.79" xlink:href="#linear-gradient"/>
    <linearGradient id="linear-gradient-4" x1="101.81" y1="-53.09" x2="101.81" y2="132.79" xlink:href="#linear-gradient"/>
  </defs>
  <path class="cls-4" d="M251.7,62.32c-.8.74-1.54,1.2-.23-.63,0,0,.06,0,.11-.06-.28-1.77-.57-3.47-.97-5.07-.4-1.82-.91-3.53-1.48-5.24-.34-.23-.74-.51-1.31-.46.11-.51.4-.8.8-.97-.68-1.94-1.48-3.82-2.39-5.58-.68.57-2.16.4-3.25.51.17-1.2,1.6-1.08,2.91-1.14-11.62-22.73-38.11-33.72-65.4-35.09-9.97-.51-18.74.4-27.12,2.45h.28c-.4,3.42-6.38.4-2.39,4.84-.97,2.79-4.22-2.05-6.04-2.39-1.31.28-.8,2.39-2.39,2.39.63,1.54,8.2.8,8.43,6.04-2.85-1.94-6.95-2.73-9.63-4.84-2.45.85-4.79,3.76-7.23,1.2,0-.28.17-.46.28-.63-1.88.85-3.7,1.77-5.58,2.73.4.28.91.4,1.71.28-1.03,1.77-3.87,1.77-6.04,2.39-.11-.06-.23-.11-.34-.23-2.68,1.48-5.35,3.02-8.2,4.67-.23.23-.51.4-.8.46-.63.34-1.25.74-1.82,1.08h.28c-.23.97-1.2,1.2-1.2,2.39-.68-.17-1.03-.68-1.54-.97-2.39,1.48-4.9,3.02-7.41,4.61.23-.06.4-.11.51,0,.63.63-.85,1.54-1.2,1.2-.28-.28-.11-.63.17-.85-1.03.63-2.05,1.25-3.08,1.94-.28.17-.57.4-.91.57.91,0,2.05-.17,3.82-.4-.63,1.6-3.87,2.68-6.44,2.05-3.08,1.94-5.92,3.82-8.66,5.64-.57.51-1.14.91-1.71,1.14-.8.57-1.6,1.08-2.39,1.65.63.68,1.37,1.2,2.34,1.54-1.14,2.34-4.27,2.68-6.44,1.31-.28.17-.51.4-.8.57.28.46.34,1.03,0,1.77-.57-.46-.97-.68-1.25-.8-10.42,7.63-18.74,15.15-28.03,25.46.74.4,1.54.68,2.73.68,0,4.84-2.51,3.08-5.58,2.56-1.48,1.71-3.02,3.47-4.61,5.41-6.66,7.98-10.94,14.92-10.94,14.92C4.01,138.15-8.23,186.57,12.22,218.7c11.39,17.89,48.71,32.36,77.07,28.08,7.01-1.03,15.95-2.56,25.35-4.61.06-.11.17-.11.17-.23.17,0,.28.06.4.11,13.39-2.91,27.63-6.89,38.62-12.08,17.43-8.2,29.74-22.56,42.84-36.51,0-.46.17-.97.51-1.37.17.11.34.17.51.23,3.99-4.22,8.03-8.37,12.42-12.25-.17-.11-.34-.23-.51-.34-.91.51-2.05.8-3.59.63-.4-.85-.68-.97-.34-1.94-.51-.97-1.65-1.37-2.62-1.94-.17-1.14.11-1.82.34-2.62.06-1.48-1.48-1.37-1.31-2.91.74-.23,1.65-.28,2.28-.68.28-.68-.85-1.48-.97-.63-.74-1.14,1.08-2.62,1.31-3.93.8-.11.68.57,1.65.34,1.2-.23,1.65-1.2,2.28-1.94,1.54.23,4.16-.68,4.22.97.74-.57,1.37-1.2,2.28-1.65.68.17.68.51.34.97.34.85,1.31,1.08,2.62.97.28.4.4.85.34,1.65.23.74,1.14.8,1.65,1.31-.17,1.48,1.31,1.31,1.6,2.34,3.76-2.96,7.12-5.92,10.14-8.83-.46-.34-.46-.97.4-1.2h.74c16.52-16.52,21.42-32.58,21.02-54.46-.28-15.32-.28-31.16-2.22-43.86h-.06ZM3.44,172.84c0-1.48,1.82-1.2,1.94-2.62,3.25.28.46,4.33-1.94,2.62ZM224.58,137.63c-.85,0-.8-1.2-.34-1.6h.97c.28,1.03-.28,1.25-.63,1.6ZM224.58,60.79c-.74.63-2.34.17-2.28-.97.68-.57,2.79-.63,2.28.97ZM224.3,90.41s.23-.4.34-.34c.17.17-.23.4-.34.34ZM222.53,96.67c0,1.2-1.48.91-2.39,1.2,0-1.2,1.48-.91,2.39-1.2ZM224.93,153.36c0,1.2-1.48.97-2.39,1.2,0-1.2,1.48-.91,2.39-1.2ZM220.08,24.27c3.93,1.48.91-3.93,4.84-2.39-1.25,6.89-6.1,3.53-9.63,1.2,1.2-3.7,3.25,1.37,4.84,1.2h-.06ZM216.78,19.77c-1.31.11-2.39,0-2.91-.63.23-2.16,4.1-1.2,2.91.63ZM206.81,45.98c0,1.2-1.48.91-2.39,1.2,0-1.2,1.48-.91,2.39-1.2ZM203.22,43.58c.63.63-.85,1.54-1.2,1.2-.63-.63.85-1.54,1.2-1.2ZM198.89,29.51c2.05-.06,3.42.46,3.59,2.28-.97.4-2.34.4-3.25,0-.11-.74-.51-1.2-.34-2.28ZM195.99,36.35c.63.63-.85,1.54-1.2,1.2-.63-.63.85-1.54,1.2-1.2ZM191.03,37.66s-.23.4-.34.34c-.17-.17.23-.4.34-.34ZM182.71,33.9c-.51,1.77-1.08-.11-2.39,0,.28-1.54,2.39-1.2,2.39,0ZM179.07,15.78c.63.63-.85,1.54-1.2,1.2-.63-.63.85-1.54,1.2-1.2ZM177.87,32.7c0,1.2-1.48.91-2.39,1.2,0-1.2,1.48-.91,2.39-1.2ZM174.28,31.51c-.23,1.37-1.2.68-1.2,0,.23-1.37,1.2-.68,1.2,0ZM173.03,12.19c.63.63-.85,1.54-1.2,1.2-.63-.63.85-1.54,1.2-1.2ZM169.44,19.43c-2.85,3.87-4.9-4.22,0,0h0ZM168.24,24.27c-.63-.63.85-1.54,1.2-1.2.63.63-.85,1.54-1.2,1.2ZM168.24,30.31c-2.85,3.87-4.9-4.27,0,0h0ZM163.4,23.08c.63.63-.85,1.54-1.2,1.2-.63-.63.85-1.54,1.2-1.2ZM159.76,17.04c0-1.2,1.48-.91,2.39-1.2,0,1.2-1.48.91-2.39,1.2ZM161.01,9.75c0,1.2-1.48.91-2.39,1.2,0-1.2,1.48-.91,2.39-1.2ZM159.76,19.43c.63.63-.85,1.54-1.2,1.2-.63-.63.85-1.54,1.2-1.2ZM158.56,30.31c.63.63-.85,1.54-1.2,1.2-.63-.63.85-1.54,1.2-1.2ZM156.17,24.27c0-1.2,1.48-.97,2.39-1.2,0,1.2-1.48.91-2.39,1.2ZM157.36,11c.63.63-.85,1.54-1.2,1.2-.63-.63.85-1.54,1.2-1.2ZM152.64,13.9c.4.17.74.4,1.03.68h.11c.06.06.11.17.11.23.46.57.68,1.37.68,2.34-1.03-.28-1.77-.8-2.62-1.31-.06-.97.74-1.03.63-1.94h.06ZM146.48,21.82c.63.63-.85,1.54-1.2,1.2-.63-.63.85-1.54,1.2-1.2ZM147.74,29.06c0,1.2-1.48.91-2.39,1.2,0-1.2,1.48-.91,2.39-1.2ZM145.29,25.47c4.04-2.91-2.91,4.04,0,0h0ZM139.59,21.02c0,.34-.4.23-.63.34,0-.34.4-.23.63-.34ZM139.25,23.08c-1.25,1.03-2.16-1.08-2.39-1.2-4.67-2.68,3.25.51,2.39,1.2ZM134.41,20.63c.63.63-.85,1.54-1.2,1.2-.63-.63.85-1.54,1.2-1.2ZM129.62,25.47c1.2,0,.91,1.48,1.2,2.39,1.94.34,2.05-1.14,3.59-1.2-.91-1.14-2.16-1.82-3.59-2.39,1.94-3.76,3.82,2.45,6.04,2.39-2.85,3.19-13.84,3.3-18.12,1.2,1.71-5.18,8.77.57,10.88-2.39ZM117.55,31.51c.63.63-.85,1.54-1.2,1.2-.63-.63.85-1.54,1.2-1.2ZM113.9,37.54c1.6.4,1.88,2.11,3.65,2.39.23,1.03-.46,1.14-1.2,1.2h-2.39v-3.65l-.06.06ZM112.7,43.58c-.97-.63-1.94-1.25-3.65-1.2.4-3.3,4.22-2.56,3.65,1.2ZM111.51,35.1c-1.03,3.53-3.02-1.6-6.04,0,.28-2.85,5.3-.68,6.04,0ZM105.47,39.94s1.31-1.82,2.39-1.2c3.99,2.16-10.54,2.39-2.39,1.2ZM92.2,53.21c0,1.2-1.48.91-2.39,1.2,0-1.2,1.48-.91,2.39-1.2ZM86.16,53.21c0,1.2-1.48.91-2.39,1.2,0-1.2,1.48-.91,2.39-1.2ZM78.98,55.55c.91-.46,1.65.17,2.96-.34.97.68,2.85.4,2.91,1.94-.8.28-1.42.74-2.62.63-.68.51-1.94,1.54-2.91.63,0-.8-.06-1.6.63-1.65.11-.85-1.25-.28-.97-1.31v.11ZM78.92,61.64c-.23,1.37-1.2.68-1.2,0,.23-1.37,1.2-.68,1.2,0ZM70.49,60.44c1.77.63,3.02,1.77,4.84,2.39.57,1.6-5.98.51-4.84-2.39ZM68.9,62.72c-.97,0-2.16.17-1.94-.97.74-.68,2.05-.11,1.94.97ZM66.85,70.13c1.48-.85,2.62-1.25,1.2,0s-2.85.97-1.2,0ZM66.85,79.76c0,1.2-1.48.91-2.39,1.2,0-1.2,1.48-.91,2.39-1.2ZM62,76.17c.63.63-.85,1.54-1.2,1.2-.63-.63.85-1.54,1.2-1.2ZM58.19,86.19c-1.31-.06-2.68.97-2.96-.63.57-.4,3.25-.8,2.96.63ZM54.77,84.6c-.17,3.02-4.1.34-4.84,0,.17-3.02,4.1-.34,4.84,0ZM46.34,97.87c-.11,2.28-3.99.85-3.65,3.65-.97-.23-1.2-1.2-2.39-1.2v-2.39c2.28-2.28,2.16.68,6.04,0v-.06ZM40.3,103.91c-.63-.63.85-1.54,1.2-1.2.63.63-.85,1.54-1.2,1.2ZM40.3,95.42c-.51,1.77-1.08-.11-2.39,0,.28-1.54,2.39-1.2,2.39,0ZM39.1,100.26c-.4,1.65-3.02,1.03-4.84,1.2.34-2.79,3.25-2.79,4.84-1.2ZM29.48,114.73c0,1.2-1.48.91-2.39,1.2,0-1.2,1.48-.91,2.39-1.2ZM19.74,221.71c-.46.34-.63.85-.97,1.31-.97-.34-1.08-.97-.63-1.94,1.03-.06,1.37.57,2.62.34-.17.68-.51.68-.97.34l-.06-.06ZM19.74,215.16c.74-.11,1.25,0,1.65.34,0,.97-1.94.85-1.65-.34ZM21.33,224.28h1.94c.4,1.94-2.16,1.42-1.94,0ZM21.33,198.59v-.68c.63-.11,1.03.06.97.68h-.97ZM26.57,228.89c-1.6.34-.63-1.71,0-.68v.68ZM26.23,221.37s-.23.4-.34.34c-.17-.17.23-.4.34-.34ZM30.44,228.55v-.97c.68-.11.85.23,1.31.34-.06.57-.57.74-1.31.63ZM37,228.89c-.57,0-.68-.4-1.31-.34v-1.65c1.2,0,.91-.34,1.94,0,.17,1.03-.46,1.25-.63,1.94v.06ZM38.31,218.75c-.51-1.6,1.6-1.54,2.28-.97.23,1.31-1.25.91-2.28.97ZM50.67,238.63s.34-.34.34-.63h.63c.17.68-.46.63-.97.63ZM55.22,234.42c-.4,0-.57.06-.63.34-.85,0-.74-1.2-.34-1.65.46.28,1.25.28.97,1.31ZM58.19,231.17c-2.05.23-2.51-1.14-3.93-1.65,0-.8,0-1.6.34-1.94,1.82-.4,1.14,1.71,2.62,1.65,1.08-.46,1.54-1.48,2.28-2.28.97.11,1.31,1.82.63,2.62-.8.57-2.51-.74-1.94,1.65v-.06ZM58.81,238.63h-1.65c-.63-.68-.85-1.71-.97-2.91.57,0,.68-.4,1.31-.34.34-1.2-.8-.91-.63-1.94,1.08-.57,2.22-2.62,3.59-.97.23,1.94-.28,3.19-.34,4.9-1.03.17-1.14-.57-2.28-.34-.34,1.2,1.2.51.97,1.65v-.06ZM60.47,244.84c-.46-.91-.91-1.94,0-2.62,1.03.63,1.71,1.54,2.62,2.28-.23,1.2-1.31-.06-2.62.34ZM62.4,233.11c.17,1.03-.28,1.48-1.31,1.31v-1.31h1.31ZM61.43,228.89c1.2.97-.97,1.08,0,0h0ZM61.72,240.29c1.14-.11,1.88.11,1.65,1.31-.8.8-2.05.11-1.65-1.31ZM63.03,236.35s.23-.4.34-.34c.17.17-.23.4-.34.34ZM63.71,236.35c-.06-1.14,1.08-1.08,1.31-1.94,1.2.51,1.6,1.94.63,2.91-1.25.28-1.14-.8-1.94-.97ZM65.65,244.5c-.68-.63,0-1.37.63-1.65-.11-.74-1.14-.63-.97-1.65,1.42-.34,1.08,1.08,2.28.97-.4,1.03-.74,2.11-1.94,2.28v.06ZM73.17,237.66c-.85.11-1.42-.11-1.31-.97.85-.06,1.65-.11,1.31.97ZM80.29,240.57c.46-2.96-3.93-1.08-3.25-4.22,3.36-.57,4.79.85,5.24,3.25-.8.17-.68,1.25-1.94.97h-.06ZM84.22,234.08c-.63.34-.51,1.42-1.65,1.31-.28-1.03-1.03-1.54-1.65-2.28.11-2.51,3.59-2.22,4.56-.63,0,.97-.74,1.2-1.31,1.65l.06-.06ZM90.09,238.29c-.68.11-.85-.23-1.31-.34.17-.28.34-.51.34-.97h.97v1.31ZM90.43,244.5s.23-.4.34-.34c.17.17-.23.4-.34.34ZM90.43,217.78c.46-.17.8-.51,1.31-.63,1.03-.17.91.8,1.31,1.31,1.31-.23,1.88.34,1.65,1.65-1.08,0-1.99.17-2.62.68-.91-.63-1.25-1.77-1.65-2.91v-.11ZM93.68,228.55c-.4.28-.85.46-1.65.34-.46-.4-.46-1.54,0-1.94h1.31c-.11.8.63.68.34,1.65v-.06ZM95.61,238.63c-.68.11-.85-.23-1.31-.34.06-.97,1.54-.8,1.31.34ZM97.27,237.32c.06-.34.34-.17.34,0-.06.4-.34.17-.34,0ZM106.38,240.57c-1.65.28-2.39-.46-3.93-.34-.51-1.48-2.28-1.6-2.62-3.25,1.71-1.42,4.27,0,6.84-.34.8,1.42-.46,2.22-.34,3.93h.06ZM102.11,217.16c.4-.4,1.14-.34,1.94-.34-.57.63-.4,1.99-1.65,1.94-.28-.4-.46-.85-.34-1.65l.06.06ZM104.73,224.62v-.63s.28-.11.34-.34c.63-.11.46,1.48-.34.97ZM108.32,237.32c0-.4.57-.28.97-.34,0,.4-.57.28-.97.34ZM107.98,217.44c0-.34.4-.23.63-.34,0,.34-.4.23-.63.34ZM110.25,238.63v-.63c.68-.17.63.46.63.97-.28-.06-.34-.34-.63-.34ZM110.25,221.03h1.31c.4,1.14-1.82,1.48-1.31,0ZM113.22,220.75c-1.25-.06-2.16-.46-2.28-1.65,1.14-.91,2.51.11,2.28,1.65ZM117.77,216.82c-1.25.28-1.14-1.48-.63-1.94,1.25-.28,1.14,1.48.63,1.94ZM118.4,214.88c-.91,0-.8-1.54-.34-1.94.74-.11,1.25,0,1.65.34.11,1.14-.97.97-1.31,1.65v-.06ZM119.37,230.49c1.2-.11,1.94.28,1.94,1.31-.85.74-2.22,0-1.94-1.31ZM122.67,222.34c-.85.11-1.42-.11-1.31-.97.28.06.28-.11.34-.34.85-.11,1.08.46.97,1.31ZM124.27,226.9c-1.25-.17-1.77-1.25-1.31-2.28,1.25,0,2.22.4,1.94,1.94-.4,0-.57.06-.63.34ZM126.55,230.15c-.74,0-.11-1.37-.34-1.94,1.14.28,0,.8.34,1.94ZM125.58,223.02v-.97h.97v.97h-.97ZM127.23,210.61s.23-.4.34-.34c.17.17-.23.4-.34.34ZM127.86,233.11c1.2-.11,2.28-.06,1.94,1.31-.51.4-2.28.11-1.94-1.31ZM130.13,215.51c.85-.11,1.42.11,1.31.97-.63.63-1.6.17-1.31-.97ZM131.79,233.11c-.28-1.88,1.48-3.02,2.62-1.6.28,1.65-1.37,2.51-2.62,1.6ZM132.13,222.34c.4-.28.85-.4,1.65-.34.57,1.54-1.88,1.82-1.65.34ZM137.65,235.04h-.63v-.63h.63v.63ZM137.94,233.45h-.97v-.97h.97v.97ZM143.18,192.72c0-.34.4-.23.63-.34,0,.34-.4.23-.63.34ZM145.46,207.36h-.63v-.63h.63v.63ZM151.95,190.73c-1.2.23-.8-1.14-1.31-1.65-.85-.51-.46-1.03,0-1.65.85.57,1.99,2.16,1.31,3.25v.06ZM150.36,183.89c.8,0,1.25.46,1.31,1.31-1.25.34-1.88-.74-1.31-1.31ZM157.54,186.51h-1.31c.28-.46.51-1.03,1.31-.97v.97ZM157.19,188.45s.23-.4.34-.34c.17.17-.23.4-.34.34ZM160.1,203.49c-1.99-.23-4.44-1.2-3.25-3.59,1.37,0,1.82.57,2.91,0,.8.46.91,2.73.34,3.59ZM157.82,185.54v-1.31c.85-.68,2.91-.46,2.28,1.31h-2.28ZM161.75,202.8c.06-.34.34-.17.34,0-.06.4-.34.17-.34,0ZM161.41,181.95c1.37-.17,1.54.8,1.65,1.94-.68-.51-1.99-.4-1.65-1.94ZM161.01,171.47c0-1.2,1.48-.91,2.39-1.2,0,1.2-1.48.91-2.39,1.2ZM162.72,176.77c-.85-1.42.97-3.42,2.62-2.28.17,1.82-.68,2.62-2.62,2.28ZM164.6,172.67c0-1.2,1.48-.97,2.39-1.2,0,1.2-1.48.91-2.39,1.2ZM167.62,191.75c-.34,0-.68.46-1.31.34-.8-.17-1.48-.85-1.94-1.31.17-1.25,1.37-1.42,2.62-1.65-.28,1.14.51,1.25.34,2.28,1.03.23.63-.91,1.65-.63,0,.4.06.57.34.63.11,1.08-.91.28-1.65.34h-.06ZM169.9,185.54c-1.08,0-1.25-.91-2.62-.63.17-1.99-2.39-1.31-1.65-3.93.17-.46,1.25,0,1.31-.63,1.08.28,1.03,1.82,1.65,2.62,2.39-.97,2.73,1.77,5.18,1.65.11,1.71-2.56.68-3.93.97l.06-.06ZM172.8,172.5c-.11,1.2.28,2.91-.34,3.59-1.54.23-2.11-.51-3.25-.63v-1.65c-.11-.68-1.42-.06-1.31-.97-.17-3.02,3.76-.85,4.9-.34ZM172.52,167.6c.74-.11,1.25,0,1.65.34,0,.97-.68,1.25-.97,1.94-1.03-.28-1.08-1.31-.63-2.28h-.06ZM172.8,178.71c-.8-1.03-.23-2.85,1.65-2.28.11,1.42-.57,2.05-1.65,2.28ZM175.76,193.06h-.97c-.17-.68.23-.85.34-1.31.57.06.74.57.63,1.31ZM175.08,169.59c-.57-.74.91-3.13,2.28-1.94.06,1.48-.97,1.88-2.28,1.94ZM179.64,191.07c-.57-.06-.74-.57-.63-1.31h.97c.11.68-.23.85-.34,1.31ZM180.61,178.02s.23-.4.34-.34c.17.17-.23.4-.34.34ZM179.58,174.83s.28.17.4.28c.06,1.14-.46,1.71-1.65,1.65-.97-.97.11-2.34,1.14-1.94-2.05-.91-1.94-3.47,4.39-.91-1.65,1.37-3.25,1.37-4.33.97l.06-.06ZM178.33,169.88s.51-.34.97-.34c1.08.63,2.45,1.03,2.62,2.62-2.11.11-3.08-.85-3.59-2.28ZM181.52,169.08c.28-1.54,2.39-1.2,2.39,0-.51,1.77-1.08-.11-2.39,0ZM182.71,159.39c-.63-.63.85-1.54,1.2-1.2.63.63-.85,1.54-1.2,1.2ZM186.19,178.36v-.63c.63-.11,1.03.06.97.63h-.97ZM186.3,170.27c-.63-.63.85-1.54,1.2-1.2.63.63-.85,1.54-1.2,1.2ZM186.3,161.79c-.63-.63.85-1.54,1.2-1.2.63.63-.85,1.54-1.2,1.2ZM188.75,199.55c-.63-.23-.85-.85-.97-1.65.46-.4,1.2-.4,1.65,0,.28,1.03-.51,1.03-.63,1.65h-.06ZM188.13,161.79s.34-.34.34-.68h.63c.17.68-.46.63-.97.68ZM190.4,178.36s.23-.4.34-.34c.17.17-.23.4-.34.34ZM193.54,167.82c-.63-.63.85-1.54,1.2-1.2.63.63-.85,1.54-1.2,1.2ZM194.79,171.47c-3.3-3.65,3.65,3.3,0,0h0ZM161.69,33.16c8.09.06,16.46,0,23.41,2.96,14.64,6.32,24.1,16.46,26.32,22.16,11.34,31.05,4.16,57.76-12.93,83.06.4,0,.74,0,1.14-.06-.11.85-.91,1.03-1.82,1.08h0c-5.41,3.65-10.77,8.77-16.8,13.9v.23c-.17.11-.34.23-.51.23-2.11,1.77-4.27,3.53-6.55,5.18.34,0,.74,0,1.2-.11,0,0,0-.11.06-.11,0,0,.11.06.17.11h.23v.11c.85.51,1.82,1.65,1.31,2.45-.63-.28-1.54-.85-1.77-1.6-.28.23-.68.34-1.2.4.11.06.23.17.34.23-.51,2.05,1.6,1.42,1.65,2.96-.85.85-2.73-.57-1.65-1.65-1.31.17-1.77-.57-2.11-1.42-1.77,1.2-3.59,2.39-5.47,3.47-.74.8-1.88,1.77-1.25.68-2.45,1.31-5.01,2.51-7.75,3.47-.63.57-1.14.91-.8.23-.91.28-1.77.63-2.73.85-5.64,1.6-11.45,2.39-16.98,2.51.85,4.33.91,9.17.97,13.27.17,12.99-2.73,17.43-16.01,21.99-9.68,3.3-17.37,5.92-26.89,6.84-.23,0-.46.06-.68.06.17.17.23.4.17.68-.68.11-.85-.23-1.31-.34,0-.11,0-.17.06-.23-3.19.4-6.55,1.03-9.51.85-2.56-.11-5.07-.34-7.58-.51-.06.11-.17.06-.34,0-5.7-.46-11.17-1.14-16.29-2.22-5.64-1.2-17.72-1.65-21.19-5.3-6.61-7.06-13.33-11.91-17.03-20.45-4.84-11.05-5.24-19.94-4.16-27.34,3.02-21.59,9.68-38,18.8-51.95-.91.11-1.99.11-3.13,0,1.03-1.2,2.62-1.77,4.5-2.11,2.91-2.68,6.21-6.55,9.97-10.37.06-.46.46-.8.91-.91h0c.46-.46.91-.91,1.42-1.37-.91-.4-1.71-.8-2.34-.91.51-1.03,1.88-.68,3.53-.11.34-.28.74-.57,1.08-.91-.63-.97-1.25-1.94-.51-3.47.8,0,1.37-.23,1.82-.57-.11-.46.51-.91.91-1.03.17-.28.34-.63.51-.97h2.91c1.14-1.08,2.11-.34,3.19.23,2.11-1.03,4.27-1.94,6.44-2.62-.11-2.28.23-4.79.51-6.95.68-4.96,1.94-7.69,5.87-11.05,0,0,.11-.11.17-.11,1.14-.91,2.39-1.88,3.99-3.02,3.65-2.56,6.95-4.84,10.54-7.01-.4.06-.8.11-1.14.23,0-1.2,1.48-.97,2.39-1.2,0,.17-.06.23-.11.34,1.71-1.03,3.47-1.99,5.35-3.02,2.62-1.37,5.58-3.13,8.26-4.27,6.89-2.85,14.24-5.75,21.59-8.09.68-.23,1.42-.46,2.28-.8-.85-3.25,1.71-3.02,1.25-5.92,2.28-.51,7.29,1.65,6.04-2.39,2.28-1.08,2.85,2.28,3.65,2.39.91.17,2.79-1.99,4.84-1.2.51.17-.63,1.71-1.2,1.2.23.23.63.4,1.03.51,1.88-.57,3.65-1.03,5.13-1.25.63-1.42,3.36-3.02,3.47-.51,1.2,0,.91-1.48,1.2-2.39,1.94-.23,1.88,1.6,2.39,2.79,2.16,0,4.33,0,6.55.06M210.63,125.96s.23-.4.34-.34c.17.17-.23.4-.34.34ZM206.81,132.85c-.63-.63.85-1.54,1.2-1.2.63.63-.85,1.54-1.2,1.2ZM206.81,137.69c-.63-.63.85-1.54,1.2-1.2.63.63-.85,1.54-1.2,1.2ZM205.61,136.49c0,1.2-1.48.91-2.39,1.2,0-1.2,1.48-.91,2.39-1.2ZM198.38,158.2c-.63-.63.85-1.54,1.2-1.2.63.63-.85,1.54-1.2,1.2ZM200.77,146.12c-.63-.63.85-1.54,1.2-1.2.63.63-.85,1.54-1.2,1.2ZM204.42,141.28h2.39c.23,3.42-9-.34-2.39,0ZM208.63,152.33c.06-.4.34-.17.34,0-.06.4-.34.17-.34,0ZM211.25,156.2h-.63v-.63h.63v.63ZM211.88,152.62c-2.79,0-4.84-2.79-3.59-4.9-.17-.63-.8-.8-1.48-.91-.28.4-1.03.74-1.2.51-.28-.28-.11-.63.11-.85h0c-.11-1.31.34-2.05,1.65-1.94,0-1.2.34-.91,0-1.94,1.14.17,1.65-.28,1.94-.97h.23c-.06-1.03.63-2.62.97-2.73,1.2-.28,2.05,2.39,2.39,2.39.28,0,4.61-4.33,1.2,0-.23,1.03.46,1.14,1.2,1.2,0,1.71-1.03,1.08-2.05.28-.11,2.22,1.94,2.28,3.25,3.02.63,1.6-.63,1.82-.34,3.93-1.37,1.03-3.08,1.71-4.22,2.91h-.06ZM222.65,160.48c-.46-.11-.97-.17-1.42-.23-.34.34-.91.57-1.08.34-.17-.17-.17-.4-.06-.57-.57-.17-1.08-.4-1.31-.85-1.42-.17-1.6.46-2.62,0,.11-1.88-1.14-2.34-1.94-3.25.46-1.37,2.11-1.6,2.91-2.62h.63c1.48,0,2.11.91,3.25,1.31v.97c.63.63,1.71.85,2.62,1.31.68.34,1.99.57,1.94,1.65-1.31.28-2.62.63-2.91,1.94ZM226.12,161.79v-2.39c2.39-.4,3.76.23,3.65,2.39h-3.65ZM227.32,146.12c0-1.2,1.48-.91,2.39-1.2,0,1.2-1.48.91-2.39,1.2ZM228.57,157c-.63-.63.85-1.54,1.2-1.2.63.63-.85,1.54-1.2,1.2ZM225.61,82.95c1.14-.8,3.13-.8,4.22,0,.28,1.08-.11,1.82.34,3.25-1.71-.85-4.61-.63-4.56-3.25ZM229.82,30.14c.51-1.14,2.39-1.2,3.25-.34-.46,1.48.34,2.45-.63,3.59h-.97c-1.37-.28-1.65-1.65-1.65-3.25ZM232.1,79.98c-.51-.34-.74-.85-.34-1.31.74.11.74.85.34,1.31ZM230.96,154.55c-.63-.63.85-1.54,1.2-1.2.63.63-.85,1.54-1.2,1.2ZM232.16,157c0-1.14,1.48-.91,2.39-1.2,0,1.2-1.48.91-2.39,1.2ZM235.81,118.38c.63.63-.85,1.54-1.2,1.2-.63-.63.85-1.54,1.2-1.2ZM236.03,136.38c-.91.23-.68-.63-1.31-.63.11-.46.8-.28,1.31-.34v.97ZM235.81,100.26c-.63-.63.85-1.54,1.2-1.2.63.63-.85,1.54-1.2,1.2ZM237.97,95.31c-1.14-.4-1.77-1.25-3.25-1.31-.23-1.6-1.37-2.34-1.31-4.22,1.31-.51,4.56-.51,5.87,0,.23,1.14.23,2.34.34,4.22-.63.34-1.37.57-1.65,1.31ZM240.59,86.99c-.63-.63.85-1.54,1.2-1.2.63.63-.85,1.54-1.2,1.2ZM245.77,74.8c.11.68-.23.85-.34,1.31-.97-.06-.8-1.54.34-1.31ZM244.24,84.6c-.63-.63.85-1.54,1.2-1.2.63.63-.85,1.54-1.2,1.2ZM246.12,131.82c-.51.51-1.88.46-1.65-.68.46-.51,1.88-.46,1.65.68ZM246.63,62.89c-.63-.63.85-1.54,1.2-1.2.63.63-.85,1.54-1.2,1.2Z"/>
  <path class="cls-3" d="M210.51,141.91c.85.46,1.42,1.14,2.45.68-1.08-.85-2.16-1.77-2.45-.68Z"/>
  <path class="cls-2" d="M137.77,16.3c-.68.28-1.42.57-2.11.91.74-.11,1.65-.06,2.45-.17-.06-.23-.17-.46-.28-.74h-.06Z"/>
  <path class="cls-1" d="M133.61,55.49c-.68,0-1.37-.23-2.05-.46-.63.23-1.65-.06-2.62-.74-.34-.06-.63-.11-.97-.11-1.31.11-2.79.46-4.27.85.57.23,1.31.46,2.34.51-.74,1.08-1.48,2.16,0,2.39-1.2,3.7-3.19-1.37-4.84-1.2.11-.46.28-.8.4-1.08-1.6.46-3.13.91-4.5.97-.28.17-.63.23-.74.11v-.06c-.85,0-1.65-.23-2.22-.74-.06.51-1.08,1.08-1.31.8-.06-.06-.11-.11-.11-.17-5.81,3.13-9.51,3.93-12.59,3.99.17,0,.34.11.51.17,0,.57-.06.91-.23,1.14.51-.11,1.08-.17,1.6-.28,0,1.2-1.48.97-2.39,1.2,0-.28.11-.46.23-.63-.57.06-1.37-.28-1.77-.8,0-.17.17-.28.23-.4-.68.28-1.48.68-2.39,1.14-.06.06-.11.17-.17.28.51.8,1.14,1.42,1.94,1.94-.06,1.03-.91,1.25-1.31,1.94-1.82-.23-1.99-1.77-1.88-3.47-.57.28-1.14.63-1.71.91.4.34.28,1.31-1.14,2.05.28.68.57,1.25.17,1.82.11.74,1.14.63.97,1.65-.97,1.08-3.65,1.31-4.9,0,.34-1.31,2.05-1.2,2.96-1.94-.17-.4-.51-.63-.85-.85h-.06v-.06c-.28-.23-.57-.4-.68-.74,0,0,.06-.11.11-.17-.17.11-.34.17-.51.23-.17.51-1.08.97-1.31.74h0c-4.39,2.39-8.83,5.7-11.96,10.03-1.82,2.51-2.45,4.79-3.08,7.01,4.61-.91,8.89-.85,11.96.17h.17c0-.11,0-.23.11-.4.23.11.51.17.8.28h0c.63-.46,1.82-.46,2.62-.06,1.54.11,2.91.46,4.04,1.08h.11c2.62,1.42,4.27,4.1,5.18,7.46h1.2c.17.74-.46,1.03-.97.97,0,.11.06.28.11.4.51-.23,1.2-.23,1.77-.4,0,.91-.85.97-1.65,1.08.4,2.79.34,5.92-.17,9.23.06,0,.17.11.28.11-.06.28-.34.34-.34.63h-.06c-.85,5.01-2.62,10.42-5.3,15.49h0c.68,1.42-.4,2.39-.97,1.65-.74,1.31-1.54,2.62-2.45,3.82-1.71,1.77-3.47,3.93-5.41,6.32-.57.68-3.08,2.05-3.47,2.62-.46.68.28,2.51-.28,3.13-1.37,1.37-2.28,1.31-3.42,2.56-8.54,9.68-26.09,17.03-37.14,21.36-1.37,14.75,7.01,20.28,15.84,26.03,1.08-.06,1.82.17,2.28.68-.17.34-.34.63-.51.97.97,1.2,1.94,2.68,2.85,3.13,4.1,2.05,9.17,4.33,13.1,5.3,2.39.34,4.04.51,6.21.28-.11-.23-.28-1.82-.11-2.16h1.31c0,.4.06.57.34.63,0,0,.17,1.88.17,1.94,3.7.74,6.44.57,8.94.8.91.06,4.1-.06,7.12-.63-.28-.74-.34-1.6.4-2.11,1.08,0,1.54.68,1.65,1.71,1.31-.23,2.51-.46,3.19-.57,7.75-.91,16.8-4.04,22.5-11.62,2.73-3.65,3.42-7.52,3.99-11.28h0c-7.75-.8-15.32-1.6-19.2-3.25-19.77-6.55-20.45-27.4-12.87-45.63-.51.11-1.08.11-1.6.28,0-.97,1.03-.97,1.94-1.14,1.37-3.19,3.02-6.21,4.96-8.94,1.77-1.82,3.65-4.04,5.64-6.55.63-.74,3.36-2.28,3.76-2.85.51-.74-.51-2.39.06-3.02,1.42-1.48,2.51-1.54,3.76-2.91,2.05-2.28,4.73-4.61,7.86-6.95-.63-.17-1.31-.23-2.05-.28,0,0,.11,0,.11.06-.06.91-.57,1.37-1.65,1.31-.23-.28-.34-.74-.34-1.31-.17-1.37,3.76-1.99,5.53-1.03,3.53-2.51,7.52-5.01,11.73-7.41h-1.54c.97-3.25.4-4.84,3.65-1.2h0c8.72-4.9,18.17-9.51,26.32-13.39-2.96-13.96-17.83-14.13-30.82-14.47l-.11.06ZM76.53,79.76c-.63-.63.85-1.54,1.2-1.2.63.63-.85,1.54-1.2,1.2ZM78.92,79.76c1.42-2.51,8.83-.85,8.43,2.39-5.07,1.48-5.3-1.94-8.43-2.39ZM86.16,72.52c.23-1.37,1.2-.68,1.2,0-.23,1.37-1.2.68-1.2,0ZM78.01,164.07c-1.14.34-3.47-.57-3.25-2.62,2.16-.17,3.25.63,3.25,2.62ZM77.73,182.92c-1.03.23-.63.23-1.65,0,.11-.74,1.14-.63.97-1.65,1.08-.34.51,1.03.63,1.65h.06ZM77.04,177.4c-.51.51-1.88.46-1.65-.63.51-.51,1.88-.46,1.65.63ZM77.73,178.71c0,.85.11,1.88-.34,2.28-.91,0-.57-1.37-.63-2.28h.97ZM72.14,180.3c-.74,1.03-1.31-1.14,0,0h0ZM68.9,182.29c-.11-.74,0-1.25.34-1.65,1.48-.23,1.2,2.16-.34,1.65ZM69.58,176.08c-.23.28-.34.74-.34,1.31-1.42.17-1.14-1.77.34-1.31ZM57.85,165.32c.63-.11,1.03.06.97.63h-.97v-.63ZM49.7,166.34c-.74.11-1.25,0-1.65-.34,0-.97,1.94-.85,1.65.34ZM53.57,155.81c0-1.2,1.48-.97,2.39-1.2,0,1.2-1.48.91-2.39,1.2ZM59.16,186.85c-1.42-.17-1.6.46-2.62,0-.74-2.16,3.42-2.34,2.62,0ZM58.81,168.28v-1.94c.85,0,1.88-.11,2.28.34-.06,1.2-1.31,1.25-2.28,1.65v-.06ZM66.28,164.35c.8-.28,1.42-.74,2.62-.68.11,1.82-1.37,2.11-1.31,3.93-1.48,0-.97-2.05-1.31-3.25ZM67.59,184.23c-.28-2.05,3.25-2.11,2.91,0-1.2-.17-2.05.85-2.91,0ZM71.18,185.54h1.65c-.06.8.74.8.97,1.31-.63,1.48-2.91.23-2.62-1.31ZM73.17,180.98c.85-.11,1.42.11,1.31.97-.85.11-1.65.11-1.31-.97ZM74.14,196.31c.06-.57.57-.74,1.31-.63.34.97-.74.57-1.31.63ZM77.38,195h-.63v-.63h.63v.63ZM77.73,186.17c-.63,0-1.08-.23-1.31-.68-.91.06-.4,1.54-1.65,1.31-.28-.8-.74-1.42-.63-2.62.28-.17.57-.28.63-.63,1.37-.06,2.28.28,3.25.63,0,.8,0,1.6-.34,1.94l.06.06ZM81.26,182.29h.97v.97h-.97v-.97ZM79.66,162.07c-.06.4-.34.17-.34,0,.06-.4.34-.17.34,0ZM78.69,168.91h1.31c.34.97-.74.57-1.31.63v-.63ZM82.91,186.85h-3.25c-.11-.8.57-.68.34-1.6h2.62c-.11.8.63.68.34,1.6h-.06ZM84.56,163.72s.23-.4.34-.34c.17.17-.23.4-.34.34ZM107.98,189.76c1.37-.34,1.37,2.34,0,1.94-.11-.74-.63-1.37,0-1.94ZM106.66,175.74c-.28.57-1.14.85-1.65.34,0-.85,1.2-.8,1.65-.34ZM104.73,184.23c-.97-.23-1.37-1.03-1.31-2.28,1.08.06,2.11,1.31,1.31,2.28ZM102.45,174.49c.97-.34.57.74.63,1.31-.57-.28-1.25-.74-.63-1.31ZM91.06,128.52c-.06.4-.34.17-.34,0,.06-.34.34-.17.34,0ZM90.71,172.84v-.63h1.31c.34.97-.74.57-1.31.63ZM94.65,179.67v-.63c.63-.11,1.03.06.97.63h-.97ZM96.58,190.73h-.63v-.63h.63v.63ZM96.58,181.95c.11-.4.57-.51.63-.97.8.11,0,1.25-.63.97ZM101.14,188.79c-1.25.17-1.88-.28-2.62-.63-.11-.74,0-1.25.34-1.65.97.57,2.51.51,2.28,2.28ZM99.83,177.4c.4.11.68.4.63.97-.57.57-1.94.28-1.65,1.65-1.2.23-2.16.51-1.94-1.31,1.71.28,2.11-.74,2.96-1.31ZM94.99,168.28c.68.23.57.4.46.8h1.65v2.39h-2.39v-1.94c-.91,0-1.99.28-2.28-.28-.34-1.54,2.45,0,2.62-.97h-.06ZM92.2,164.24c.63.63-.85,1.54-1.2,1.2-.63-.63.85-1.54,1.2-1.2ZM93.39,118.38c0-1.2,1.48-.97,2.39-1.2,0,1.2-1.48.91-2.39,1.2ZM161.01,64.09c.63.63-.85,1.54-1.2,1.2-.63-.63.85-1.54,1.2-1.2ZM153.72,60.44c.63.63-.85,1.54-1.2,1.2-.63-.63.85-1.54,1.2-1.2ZM146.48,58.05c0,1.2-1.48.97-2.39,1.2,0-1.2,1.48-.97,2.39-1.2ZM142.89,58.05c0,1.2-1.48.97-2.39,1.2,0-1.2,1.48-.97,2.39-1.2ZM136.86,61.64c.63.63-.85,1.54-1.2,1.2-.63-.63.85-1.54,1.2-1.2ZM134.69,71.55c-.34.28-.11,1.2-.97.97v-.97h.97ZM133.38,61.41c.06-.34.63-.23.63-.63,1.31.23,0,1.54-.63.63ZM134.41,56.86c.28,3.59-4.27,4.27-6.04,2.39,1.03-1.77,3.87-1.77,6.04-2.39ZM129.79,61.13c0,.85-1.2.74-1.65.34.23-1.03.85-.4,1.65-.34ZM128.43,68.88c-.63-.63.85-1.54,1.2-1.2.63.63-.85,1.54-1.2,1.2ZM121.65,59.82c.91.17,1.03,1.03.74,1.71,1.6-4.44,5.7,3.7,5.98.17,3.02,3.02-4.04,1.65-6.04,0v-.06c-.11.23-.23.4-.4.51-.46-.11-.51-.57-.97-.63,0-.8.51-1.03.63-1.65l.06-.06ZM125.58,64.72c-.68.17-.63-.46-.63-.97.4.17.68.4.63.97ZM113.9,58.05v3.65c-2.16.28-6.04-1.2-4.84,2.39-1.31-.28-.8-2.39-2.39-2.39.68-2.91,4.56-2.68,7.23-3.65ZM113.84,63.41c0,.85-1.2.74-1.65.34,0-.85,1.2-.8,1.65-.34ZM110.31,70.13c-.51,1.48-1.54,2.45-3.65,2.39.51-1.48,1.54-2.51,3.65-2.39ZM104.27,61.64c-.23,1.37-1.2.68-1.2,0,.23-1.37,1.2-.68,1.2,0ZM103.08,68.88c.63.63-.85,1.54-1.2,1.2-.63-.63.85-1.54,1.2-1.2ZM102.11,64.03c-.68.11-.85-.23-1.31-.34.06-.97,1.54-.8,1.31.34ZM92.99,73.83c-.23-1.99,1.6-1.65,2.91-1.31v1.65c-.97.46-1.77-.17-2.91-.34ZM96.58,78.67c-.11-.74,0-1.25.34-1.65.74-.11,1.2.06,1.31.63.17,1.03-.68,1.03-1.65.97v.06ZM95.84,76.17c0-.8.68-.91,1.42-1.03-.23-.06-.34-.34-.63-.34.06-.28.34-.34.34-.63.28,0,.34.34.63.34-.06.28-.28.34-.34.63.34,0,.68-.11.97-.17,0,1.2-1.48.97-2.39,1.2ZM98.23,71.21c.85,0,1.25.46,1.31,1.31-.34,0-.23.4-.34.63-1.82.4-1.88-1.37-.97-1.94ZM99.2,76.11h.97c.17.68-.23.85-.34,1.31-.57-.06-.74-.57-.63-1.31ZM100.63,86.99c.63.63-.85,1.54-1.2,1.2-.63-.63.85-1.54,1.2-1.2ZM98.23,103.91c-.63-.63.85-1.54,1.2-1.2.63.63-.85,1.54-1.2,1.2ZM99.54,90.41c.91,0,2.22-.28,2.28.63,0,1.94-3.65.74-2.28-.63ZM103.08,79.76c-.63-.63.85-1.54,1.2-1.2.63.63-.85,1.54-1.2,1.2ZM104.39,75.14h0c.11,1.03-4.9,3.25-3.7,1.03.11-.23,1.14-1.08,2.16-1.37.06-.91,1.94-.85,1.6.34h-.06ZM104.27,73.72c-.63-.63.85-1.54,1.2-1.2.63.63-.85,1.54-1.2,1.2ZM106.66,77.36l-.34-.17c.28.28.57.46.4,1.2-1.48,0-1.88-1.14-1.94-2.62.51-.11.63.11.68.34-.11-1.2,1.65-2.62,3.53-2.68,0-.68,0-1.31.34-1.6,1.2.06,2.11.51,2.62,1.31.17.85-.63,1.08-1.42,1.03,1.2,3.53-4.27.4-3.82,3.13l-.06.06ZM109.11,84.6c.23-1.37,1.2-.68,1.2,0-.23,1.37-1.2.68-1.2,0ZM109.63,102.49c.4-.57.68-1.25,1.65-1.31,0,1.03-.85,1.14-1.65,1.31ZM114.53,98.9c-1.37-.28-1.82.34-2.28.97-1.03.17-1.48-.28-1.31-1.31,1.48.17,1.71-.85,2.28-1.65,1.08-.06,1.6.4,1.65,1.31-.28,0-.23.4-.34.63v.06ZM119.94,86.99c-.63-.63.85-1.54,1.2-1.2.63.63-.85,1.54-1.2,1.2ZM122.96,82.6c-1.03.63-1.65,1.6-2.62,2.28-1.88-.68-2.11-.28-4.22,0,.06-.28-.11-.28-.34-.34-1.08-.11-.97-1.42-1.94-1.65-.17-.91-1.42-.8-1.65-1.65.57-1.71,1.54-3.65.63-5.87,1.25-.4,2.51-.8,3.25-1.65,1.42.46,2.05.17,3.59,0,1.37.91,2.11,2.45,3.25,3.59-.34,2.11.57,2.73,0,5.24l.06.06ZM125.58,88.47s-.34-.51-.34-.97c0-.23-.17-.28-.4-.34.28.63-.97,1.37-1.31,1.03-.4-.4.11-.97.63-1.2-.11,0-.23-.06-.23-.17-.11-.57,1.82-.57,1.31.34.97,0,1.82.11,1.65,1.31,0,0-1.31,0-1.31,0ZM123.58,77.36c-.46-2.05.97-2.28,2.39-2.39-1.2-1.6-1.99-3.65-3.65-4.84-1.03-.23-1.14.46-1.2,1.2-2.22-4.56,7.29-.4,12.08-1.2-1.2,1.65-3.25,2.39-4.84,3.65-3.19-.34-.97,4.67-4.84,3.65l.06-.06ZM128.43,78.56c-.63-.63.85-1.54,1.2-1.2.63.63-.85,1.54-1.2,1.2ZM135.66,77.36c-1.88,3.36-5.92-1.2-6.04-3.65,2.96-.17,5.81-.17,7.23,1.2-.68,1.14-3.36,1.82-1.2,2.39v.06ZM136.86,70.13c.28-1.54,2.39-1.2,2.39,0-1.08.74-2.16,1.48-2.39,0ZM140.45,71.33c0-1.2,1.48-.91,2.39-1.2,0,1.2-1.48.91-2.39,1.2ZM146.77,74.8h-.63v-.63h.63v.63ZM144.09,68.88c.17-1.42,2.22-1.03,3.65-1.2-.23,1.42-2.22,1.03-3.65,1.2ZM150.13,64.09c-.51-3.02-5.53-.91-3.65,2.39-.97-1.03-3.3-.74-3.65-2.39-9,.28-.97-1.88,2.39-2.39,0,2.85,3.3-.46,2.39-2.39,3.19.8,4.44,3.65,6.04,6.04,2.45-.4,3.76.23,3.65,2.39-1.71-1.08-12.82-2.96-7.23-3.59l.06-.06ZM156.17,61.64c-.63-.63.85-1.54,1.2-1.2.63.63-.85,1.54-1.2,1.2ZM159.76,67.68c-.63-.63.85-1.54,1.2-1.2.63.63-.85,1.54-1.2,1.2Z"/>
</svg>