<?xml version="1.0" encoding="UTF-8"?>
<svg id="Layer_1" data-name="Layer 1" xmlns="http://www.w3.org/2000/svg" viewBox="0 0 1024 1024">
  <defs>
    <style>
      .cls-1 {
        fill: #dce1de;
      }

      .cls-2 {
        fill: #1f2421;
      }

      .cls-3 {
        fill: #49a078;
      }
    </style>
  </defs>
  <g>
    <polygon class="cls-2" points="102.75 840.57 69.93 840.57 30.96 890.07 30.96 840.57 3.33 840.57 3.33 984.15 30.96 984.15 30.96 920.36 75.22 984.15 107.63 984.15 52.61 904.65 102.75 840.57"/>
    <path class="cls-2" d="M154.1,875.22c-4.88,0-9.37,1.37-13.47,4.1-4.1,2.73-7.39,6.73-9.86,12.01v-13.37h-22.84v106.2h26.45v-42.95l-.1-5.17c0-14.84,1.42-24.79,4.25-29.87,2.83-5.08,6.3-7.61,10.4-7.61,2.02,0,4.59.78,7.71,2.34l8.3-22.94c-3.77-1.82-7.39-2.73-10.83-2.73Z"/>
    <path class="cls-2" d="M266.89,903.14c-4.95-8.59-11.83-15.39-20.64-20.4-8.82-5.01-18.24-7.52-28.26-7.52-13.86,0-26.13,4.82-36.8,14.45-12.17,11.06-18.25,24.89-18.25,41.48,0,15.49,5.38,28.65,16.15,39.48,10.77,10.83,23.77,16.25,39,16.25,10.35,0,19.81-2.46,28.4-7.37,8.59-4.91,15.37-11.73,20.35-20.45,4.98-8.72,7.47-18.09,7.47-28.11s-2.47-19.23-7.42-27.82ZM239.16,953.41c-5.54,5.79-12.48,8.69-20.83,8.69s-15.24-2.86-20.68-8.59c-5.44-5.72-8.16-13.21-8.16-22.45s2.75-16.35,8.26-22.11c5.51-5.76,12.4-8.64,20.68-8.64s15.43,2.85,20.87,8.54c5.44,5.7,8.16,13.1,8.16,22.21s-2.77,16.56-8.31,22.35Z"/>
    <polygon class="cls-2" points="431.08 944.59 403.49 877.95 379.76 877.95 376.26 877.95 349.33 877.95 328.45 906.9 307.46 877.95 276.52 877.95 313.02 928.29 272.71 984.15 303.14 984.15 328.27 949.32 353.53 984.15 384.47 984.15 343.7 927.93 377.53 881.04 416.63 976.23 394.8 1023 422.32 1023 488.83 877.95 461.52 877.95 431.08 944.59"/>
    <rect class="cls-2" x="491.08" y="836.96" width="26.65" height="147.19"/>
    <rect class="cls-2" x="529.01" y="877.95" width="26.65" height="106.2"/>
    <path class="cls-2" d="M542.34,834.22c-4.67,0-8.66,1.66-11.97,4.98-3.31,3.32-4.96,7.32-4.96,12.01s1.67,9.03,5.01,12.45c3.34,3.42,7.38,5.12,12.12,5.12s8.56-1.67,11.87-5.03c3.31-3.35,4.96-7.4,4.96-12.15s-1.67-8.91-5.01-12.3c-3.34-3.38-7.35-5.08-12.02-5.08Z"/>
    <path class="cls-2" d="M624.96,900.01c5.47,0,10.24.85,14.32,2.54,4.07,1.69,8.19,4.72,12.36,9.08l22.18-12.2c-5.34-7.74-12.2-13.71-20.6-17.91-8.39-4.2-17.86-6.3-28.4-6.3-11.39,0-21.69,2.47-30.89,7.42-9.21,4.95-16.38,11.75-21.52,20.4-5.14,8.66-7.71,18.12-7.71,28.4,0,14.84,5.29,27.79,15.86,38.85,10.57,11.06,25.2,16.59,43.88,16.59,20.76,0,36.83-7.4,48.22-22.22l-21.01-14.39c-6.65,8.14-15.93,12.2-27.85,12.2-9.64,0-17.43-2.86-23.36-8.58-5.93-5.72-8.89-13.09-8.89-22.12s3.08-16.91,9.23-22.85c6.15-5.94,14.22-8.92,24.19-8.92Z"/>
    <path class="cls-2" d="M698.24,834.22c-4.67,0-8.66,1.66-11.97,4.98-3.31,3.32-4.96,7.32-4.96,12.01s1.67,9.03,5.01,12.45c3.34,3.42,7.38,5.12,12.12,5.12s8.56-1.67,11.87-5.03c3.31-3.35,4.96-7.4,4.96-12.15s-1.67-8.91-5.01-12.3c-3.34-3.38-7.35-5.08-12.02-5.08Z"/>
    <rect class="cls-2" x="684.91" y="877.95" width="26.65" height="106.2"/>
    <path class="cls-2" d="M803.91,882.74c-8.82-5.01-18.24-7.52-28.26-7.52-13.86,0-26.13,4.82-36.8,14.45-12.17,11.06-18.25,24.89-18.25,41.48,0,15.49,5.38,28.65,16.15,39.48,10.77,10.83,23.77,16.25,38.99,16.25,10.35,0,19.81-2.46,28.4-7.37,8.59-4.91,15.37-11.73,20.35-20.45,4.98-8.72,7.47-18.09,7.47-28.11s-2.47-19.23-7.42-27.82c-4.95-8.59-11.83-15.39-20.64-20.4ZM796.82,953.41c-5.54,5.79-12.48,8.69-20.83,8.69s-15.24-2.86-20.68-8.59c-5.44-5.72-8.16-13.21-8.16-22.45s2.75-16.35,8.26-22.11c5.51-5.76,12.4-8.64,20.68-8.64s15.43,2.85,20.87,8.54c5.44,5.7,8.16,13.1,8.16,22.21s-2.77,16.56-8.31,22.35Z"/>
    <path class="cls-2" d="M910.31,929.98c0,10.02-.56,16.56-1.66,19.62-1.5,4.1-3.8,7.21-6.9,9.32-3.1,2.12-6.87,3.17-11.3,3.17s-8.17-1.07-11.2-3.22c-3.03-2.15-5.24-5.16-6.61-9.03-1.37-3.87-2.05-10.79-2.05-20.74v-51.15h-26.94v44.22c0,16.98,1.04,28.7,3.12,35.14,2.93,9.31,7.99,16.56,15.18,21.77,7.19,5.21,16.61,7.81,28.26,7.81,10.74,0,19.59-2.23,26.55-6.69,6.96-4.46,12.23-10.85,15.81-19.18,2.93-6.83,4.39-19.52,4.39-38.07v-45h-26.65v52.03Z"/>
    <path class="cls-2" d="M1014.91,935.25c-3.84-5.27-10.9-10.44-21.18-15.52l-9.76-4.88c-4.23-2.08-6.88-3.72-7.96-4.93-1.07-1.2-1.61-2.52-1.61-3.95,0-1.89.85-3.47,2.54-4.73,1.69-1.27,4.03-1.9,7.03-1.9,5.47,0,11.55,3.32,18.25,9.96l16.5-16.5c-4.23-5.66-9.39-10-15.47-13.03-6.09-3.03-12.58-4.54-19.47-4.54-10.09,0-18.37,2.98-24.84,8.93-6.48,5.95-9.71,13.13-9.71,21.52,0,13.02,8.59,23.85,25.77,32.5l8.98,4.49c7.74,3.9,11.61,7.91,11.61,12.01,0,2.21-1.07,4.17-3.22,5.86-2.15,1.69-4.98,2.54-8.49,2.54-3.25,0-6.98-1.12-11.18-3.37-4.2-2.24-7.86-5.19-10.98-8.83l-16.4,17.86c9.24,12.1,21.6,18.16,37.09,18.16,11.65,0,20.94-3.16,27.87-9.47,6.93-6.31,10.4-14.19,10.4-23.62,0-7.09-1.92-13.27-5.76-18.55Z"/>
  </g>
  <g>
    <path class="cls-2" d="M879.07,55.49c-13.82-7.03-26.51-8.46-37.73-4.23-12.26,4.62-19.56,14.93-23.56,22.91-8.64,1.65-17.83,3.24-27.45,4.76-3.87-8.11-12.29-17.51-30.59-19.54-18.69-2.08-34.01,8.34-42.63,28.77-58.7,5.88-112.66,8.18-133.79,8.91-2.96-26.39-19.4-65.27-67.89-71.73-22.47-3-44.78,6.39-55.41,11.82-23.99-24.47-64.62-32.3-107.04-27.63-63.02,5.28-109.48,40.17-105.9,107.18-53.49,25.64-81.42,66.79-83.02,122.34-1.35,47.08,15.5,96.68,30.37,140.45,10.16,29.92,19.87,58.47,19.75,76.96-12.77-5.06-32.82-11.18-47.26-7.1-6.7,1.9-11.85,5.87-14.88,11.48-11.72,21.72,19.56,47.15,37.12,59.18-4.59,10.58-10.25,23.53-11.45,25.79-1.26,1.99-5.72,8.59-10.88,16.21-10.17,15.02-24.09,35.59-32.41,48.72-1.22,1.94-2.48,3.87-3.72,5.8-12.34,19.09-27.69,42.86-9.02,60.65,17.03,16.22,42.28,18.93,111.64,11.61,16.24,9.98,46.88,25.82,61.28,33.16-.28.81-.55,1.61-.8,2.4-9.21,28.67-.85,41.35,7.78,46.94,8.22,5.32,17.01,7.49,26.24,7.49,20.09,0,42.32-10.3,65.42-21l3.41-1.58c15.47,3.42,28.95,6.04,43.22,7.68,101.81,11.72,248.89-19.39,332.95-101.54,47.49-46.41,69.51-104.51,63.67-168.02l-1.93-20.88-14.65,15c-.49.5-49.08,49.67-124.06,78.27-16.36-4.79-28.49-1.7-35.84,2.7-9.08-3.22-18.94-2.37-28.87,2.56-2.93,1.46-5.52,3.1-7.65,4.64-3.95-2.18-8.31-3.35-12.93-3.43-9.85-.14-18.88,4.54-25.05,8.79-4.83-4.07-9.82-5.71-13.7-6.31-8.37-1.3-16.25,1.34-21.99,4.25-4.05-5.06-8.55-8.62-13.44-10.71,1.18-23.71,6.38-55.49,19.01-97.84l.11-.38c7.36-24.7,18.22-61.1,3.52-106.15,33.52-7.34,84.31-17.61,133.05-27.02l32.66,46.95,8.12-54.7c37.64-7.03,70.22-12.76,87.19-15.11,1.23,3.94,8.62,27.42,8.62,27.42,0,0,33.71-66.03,40.39-92.97,1.07-3.48,13.04-43,21.04-85.37,12.1-64.07,8.6-98.56-11.01-108.55Z"/>
    <path class="cls-1" d="M824.92,265.08c3.09,10.14,6.76,22.12,8.59,28.01,5-10.93,9.3-22.47,12.91-34.5l-21.5,6.49Z"/>
    <g>
      <path class="cls-3" d="M870.29,72.75c-8.77-4.46-16.21-5.59-22.11-3.37-8.07,3.04-12.63,11.91-14.63,16.92l-1.95,4.89-55.85,9.53-1.6-9.35c-.81-4.77-3.41-11.27-16.55-12.73-13.74-1.51-20.82,10.89-24.34,21.58l-1.96,5.95-167.04,10.79.2-10.11c.03-2.23.16-55.42-51.58-62.32-11.66-1.55-26.69,1.6-41.1,8.44,8.38,15.14,12.13,34.42,9.46,58.38-8.75-78.1-64.02-90.44-132.21-82.02-53.57,6.74-88.01,32.03-92.39,88.74-1.29,15.95-.13,32.35,2.72,48.17-4.35-9.32-7.47-19.17-9.55-29.26-43.31,22.57-65.06,56.2-66.4,102.61-1.25,43.59,15,91.44,29.34,133.66,14.68,43.22,26.28,77.36,18.05,100.35l-3.92,10.94-10.05-5.82c-4.93-2.74-32.42-14.32-44.76-10.71-2.28.67-2.79,1.61-3.01,2.01-2.68,4.97,14.03,23.54,37.34,38.15l7.05,4.42-3.3,7.64c-12.18,28.13-14.77,33.81-15.95,35.7-1.32,2.11-5.53,8.33-11.35,16.93-10.1,14.92-23.92,35.34-32.08,48.22-1.26,1.99-2.54,3.97-3.82,5.95-13.39,20.72-18.01,30.32-11.93,36.11,11.03,10.5,33.87,11.85,72.76,8.62-2.84-2.66-26.15-27.48-33.32-38.21l1.35-1.39c5.61,3.19,110.59,63.83,126.21,71.82,5.23-16.4,52.01-84.54,46.04-55.1-4.2,20.72-27.2,59.06-28.96,63.73l-3.42,8.3c-1.34,3.26-2.5,6.4-3.44,9.34-4.14,12.88-3.65,21.45-.14,24.75,11.25,10.56,44.26-1.5,73-14.82l9.39-4.33,3.19.71c16.24,3.63,30.01,6.39,44.41,8.05,97.29,11.19,237.47-18.24,317.19-96.15,38.65-37.77,58.37-82.15,58.78-132.15-21.23,18.05-62.84,49.06-118.59,69.7l-3.27,1.21-3.29-1.15c-16.17-5.65-21.35-2.05-24.28.94-2.93,2.99-5.09,6.98-5.09,6.98l-7.15-5.01c-12-7.08-25.07,6.14-25.63,6.71l-7.05,7.25-6.98-7.32c-1.98-2.1-3.98-3.05-6.5-3.11-.08,0-.15,0-.23,0-7.27,0-16.28,7.17-18.89,9.71l-8.56,8.33-6.41-10.07c-2.86-4.53-5.53-5.43-7.28-5.71-5.9-.96-13.47,4-15.66,5.8l-8.97,7.39-5.69-10.12c-.59-1.06-1.19-2.03-1.79-2.95,2.9,31.29,14.31,39.79,14.51,39.93-.08-.06.39.13.93.36,6.56-2.83,14.57-2.46,21.99,1.51.9.45,1.85,1,2.82,1.62,10.4-10.5,24.78-14.36,37.37-6.59.7-.7,1.41-1.4,2.14-2.11,8.74-8.79,22.26-14.52,33.97-9.59,8.65-9.94,21.75-16.84,34.73-13.2,1.68-1.84,3.7-3.32,5.86-4.58,8.43-4.67,18.35-4.62,27.54-3.12l-.18,1.93c-9.9.13-19.34,1.14-26.7,8.69-2.23,2.28-2.94,5.57-2.98,5.75l-3.3-.97c-11.48-2.5-22.66,6.75-27.86,16.82l-2.57,5.46c-3.67-1.75-9.36-5.55-13.38-4.87-8.29,1.17-14.9,9.44-18.75,16.6,0,0-3.56,8.34-3.56,8.34l-10.05-6.55c-2.14-1.39-4.18-2.67-5.9-2.76-6.41-1.01-12.71,4.42-17.31,8.72,0,0-9.04,7.04-9.04,7.04-10.69-12.85-18.76-18.79-35.86-4.69,0,0-1.69-.95-1.69-.95.01-.05.03-.1.05-.15-9.37-6.91-44.74-50.89-2.76-191.74l.11-.38c7.12-23.89,16.71-56.07,3.19-96.04-67.6,16.96-126.16,38.38-181.55,46.2-57.37,8.25-87.75-14.03-106.33-74.92-4.6-14.96-7.35-30.05-8.79-45.36l1.87-.52c6.76,13.76,12.77,27.67,19.59,40.69,8.47,16.26,17.45,30.16,31.9,39.28,21.28,12.37,46.92,12.81,70.94,11.3,29.73-2.26,148.84-32.79,178.59-38.28h0c31.37-7.03,82.97-17.54,133.63-27.36l-16.12-23.17c-87.91,15.39-191.64,31.19-245.51,30.9-31.12-.18-59.07-9.26-83.32-26.96.04.91-.02,1.82-.26,2.76-.86,4.1-2.15,8.45-5.41,14.72l-1.77.79c-7.72-3.13-12.35-10.3-12.74-18.2-.02-3.02,1.02-5.98,2.14-8.76,2.43-6.83,5.94-13.57,11.41-18.36,3.94-3.79,8.8-6.36,13.75-8.29l1.13,1.57c-2.26,3.29-4.73,6.82-6.3,10.52,23.32,20.54,49.99,30.64,81.48,30.83.5,0,1,0,1.51,0,101.76,0,399.74-60.82,399.74-60.82l31.42-6.62c3.42-13.01,16.78-64.22,19.96-81.07,14.57-77.28.82-86.73-.8-87.55ZM337.28,520.5s1.44.89,1.44.89c-4.85,13.42-14.04,40.18-6.87,53,3.28,4.75,8.72,1.48,12.48-1.59,3.61-2.82,7.43-6.19,11.51-9.51,8.23-6.68,16.52-14.12,26.7-20.69l1.41.94c-4.1,17.4-14.71,34.96-30.95,43.62-15.88,8.71-33.94,2.43-34.47-17.31.52-18.48,9.08-34.35,18.74-49.35ZM346.67,129.17c-8.39,0-15.19-10.99-15.19-24.54s6.8-24.54,15.19-24.54,15.19,10.99,15.19,24.54-6.8,24.54-15.19,24.54Z"/>
      <path class="cls-3" d="M806.28,270.49c-12.24,2.46-36.1,7.2-66.5,12.95l-3.92,26.38c32.96-6.12,61.52-11.13,78.34-13.59-2.51-8.08-5.31-17.16-7.92-25.73Z"/>
    </g>
    <polygon class="cls-1" points="670.88 286.16 717.24 352.8 728.68 275.73 670.88 286.16"/>
  </g>
</svg>