<?xml version="1.0" encoding="UTF-8"?>
<svg id="Layer_1" data-name="Layer 1" xmlns="http://www.w3.org/2000/svg" viewBox="0 0 600 160">
  <defs>
    <style>
      .cls-1, .cls-2 {
        fill: #fff;
      }

      .cls-1, .cls-3 {
        fill-rule: evenodd;
      }

      .cls-3, .cls-4 {
        fill: #bcae79;
      }
    </style>
  </defs>
  <polygon class="cls-4" points="62.91 68.72 45.37 99.14 45.37 99.14 27.84 68.72 45.37 38.35 62.91 68.72 62.91 68.72"/>
  <polygon class="cls-2" points="80.46 38.35 45.38 38.35 62.92 68.72 98 68.72 80.46 38.35"/>
  <polygon class="cls-4" points="80.45 99.16 97.99 68.74 97.99 68.74 115.52 99.16 97.99 129.53 80.45 99.16 80.45 99.16"/>
  <polygon class="cls-2" points="62.9 129.53 97.98 129.53 80.44 99.15 45.35 99.16 62.9 129.53"/>
  <polygon class="cls-2" points="179.11 98.71 179.11 38.7 169.51 38.7 169.51 63.5 141.16 63.5 141.16 38.7 131.47 38.7 131.47 98.71 141.16 98.71 141.16 71.77 169.51 71.77 169.51 98.71 179.11 98.71 179.11 98.71"/>
  <polygon class="cls-2" points="206.92 98.71 206.92 38.7 197.23 38.7 197.23 98.71 206.92 98.71 206.92 98.71"/>
  <path class="cls-1" d="M264.94,80.57c0-6.22-3.64-12.18-11.47-13.69v-.18c6.13-2.13,10.22-7.56,10.22-13.69,0-9.25-6.76-14.58-19.82-14.58-7.29,0-14.13.18-18.85.27v60c6.67.09,12.71.27,16.36.27,18.4,0,23.56-10.58,23.56-18.4h0ZM253.56,54.53c0,6.04-4.71,9.69-13.69,9.69-2.04,0-3.56,0-5.16-.09v-17.78c2.31-.09,4.89-.18,7.56-.18,8.53,0,11.29,3.47,11.29,8.36h0ZM254.72,80.75c0,6.05-4.18,10.31-12.98,10.31-3.11,0-5.51-.18-7.02-.45v-19.11c1.33-.09,4.44-.09,5.42-.09,8.45,0,14.58,2.49,14.58,9.33h0Z"/>
  <polygon class="cls-2" points="310.89 98.71 310.89 90.44 288.94 90.44 288.94 71.77 309.83 71.77 309.83 63.86 288.94 63.86 288.94 46.79 310.89 46.79 310.89 38.7 279.25 38.7 279.25 98.71 310.89 98.71 310.89 98.71"/>
  <path class="cls-1" d="M366.97,98.71l-15.82-20.89c-1.51-1.96-3.38-4.27-5.07-6.4,9.78-1.07,16.98-7.2,16.98-16.8,0-11.91-8.53-16.27-20.98-16.27-6.76,0-11.73.09-16.09.36v60h9.69v-25.96h.44l18.67,25.96h12.18ZM352.92,55.68c0,5.96-4.71,9.96-12.53,9.96-2.13,0-3.82-.09-4.71-.18v-19.02c1.42-.09,3.2-.18,5.07-.18,8.09,0,12.18,2.84,12.18,9.42h0Z"/>
  <path class="cls-4" d="M427.56,98.71v-60h-9.42v17.78c0,8.8.27,21.69.62,28.54-2.22-4.36-4.62-9.16-7.29-13.6l-19.82-32.71h-12.71v60h9.42v-20.18c0-8.53-.18-20.71-.54-26.58,1.87,4,4,8.27,6.67,12.62l20.53,34.14h12.53Z"/>
  <path class="cls-3" d="M491.64,98.71l-21.78-60h-10.76l-21.51,60h9.78l4.62-13.25h24.27l4.62,13.25h10.76ZM473.68,77.73h-19.2l6.76-18.58c1.16-3.2,2.13-6.49,2.76-9.51h.18c.71,3.29,1.51,6.13,2.67,9.25l6.84,18.84h0Z"/>
  <polygon class="cls-4" points="532.25 46.88 532.25 38.7 489.58 38.7 489.58 46.88 506.03 46.88 506.03 98.71 515.72 98.71 515.72 46.88 532.25 46.88 532.25 46.88"/>
  <polygon class="cls-4" points="573.92 98.71 573.92 90.44 551.96 90.44 551.96 71.77 572.85 71.77 572.85 63.86 551.96 63.86 551.96 46.79 573.92 46.79 573.92 38.7 542.27 38.7 542.27 98.71 573.92 98.71 573.92 98.71"/>
</svg>