<?xml version="1.0" encoding="UTF-8"?>
<svg id="Layer_1" data-name="Layer 1" xmlns="http://www.w3.org/2000/svg" viewBox="0 0 256 256">
  <defs>
    <style>
      .cls-1 {
        fill: #fff;
      }

      .cls-2 {
        fill: #bcae79;
      }
    </style>
  </defs>
  <polygon class="cls-2" points="111.72 68.34 80.01 123.32 80.01 123.32 48.32 68.34 80.02 13.44 111.72 68.34"/>
  <polygon class="cls-1" points="143.43 13.44 80.04 13.44 111.74 68.35 175.15 68.34 143.43 13.44"/>
  <polygon class="cls-2" points="143.41 123.35 175.12 68.37 175.12 68.37 206.81 123.35 175.11 178.25 143.41 123.35"/>
  <polygon class="cls-1" points="111.7 178.25 175.09 178.25 143.4 123.35 79.99 123.35 111.7 178.25"/>
  <polygon class="cls-1" points="30.32 241.02 30.32 207.41 24.94 207.41 24.94 221.3 9.06 221.3 9.06 207.41 3.63 207.41 3.63 241.02 9.06 241.02 9.06 225.93 24.94 225.93 24.94 241.02 30.32 241.02"/>
  <polygon class="cls-1" points="45.9 241.02 45.9 207.41 40.47 207.41 40.47 241.02 45.9 241.02"/>
  <path class="cls-1" d="M78.4,230.86c0-3.48-2.04-6.82-6.42-7.67v-.1c3.44-1.19,5.73-4.23,5.73-7.67,0-5.18-3.78-8.17-11.1-8.17-4.09,0-7.92.1-10.56.15v33.62c3.74.05,7.12.15,9.16.15,10.31,0,13.2-5.93,13.2-10.31h0ZM72.03,216.27c0,3.39-2.64,5.43-7.67,5.43-1.14,0-1.99,0-2.89-.05v-9.96c1.29-.05,2.74-.1,4.23-.1,4.78,0,6.32,1.94,6.32,4.68h0ZM72.68,230.96c0,3.39-2.34,5.78-7.27,5.78-1.74,0-3.09-.1-3.94-.25v-10.71c.75-.05,2.49-.05,3.04-.05,4.73,0,8.17,1.39,8.17,5.23h0Z"/>
  <polygon class="cls-1" points="104.15 241.02 104.15 236.39 91.85 236.39 91.85 225.93 103.55 225.93 103.55 221.5 91.85 221.5 91.85 211.94 104.15 211.94 104.15 207.41 86.42 207.41 86.42 241.02 104.15 241.02"/>
  <path class="cls-1" d="M135.56,241.02l-8.86-11.7c-.84-1.1-1.89-2.39-2.84-3.59,5.48-.6,9.51-4.03,9.51-9.41,0-6.67-4.78-9.11-11.75-9.11-3.79,0-6.57.05-9.01.2v33.62h5.43v-14.54h.25l10.46,14.54h6.82ZM127.69,216.92c0,3.34-2.64,5.58-7.02,5.58-1.2,0-2.14-.05-2.64-.1v-10.66c.8-.05,1.79-.1,2.84-.1,4.53,0,6.82,1.59,6.82,5.28h0Z"/>
  <path class="cls-2" d="M169.51,241.02v-33.62h-5.28v9.96c0,4.93.15,12.15.35,15.99-1.25-2.44-2.59-5.13-4.08-7.62l-11.11-18.33h-7.12v33.62h5.28v-11.3c0-4.78-.1-11.6-.3-14.89,1.05,2.24,2.24,4.63,3.74,7.07l11.5,19.12h7.02Z"/>
  <path class="cls-2" d="M205.4,241.02l-12.2-33.62h-6.02l-12.05,33.62h5.48l2.59-7.42h13.59l2.59,7.42h6.02ZM195.34,229.27h-10.76l3.78-10.41c.65-1.79,1.2-3.64,1.55-5.33h.1c.4,1.84.85,3.44,1.5,5.18l3.83,10.56h0Z"/>
  <polygon class="cls-2" points="228.16 211.99 228.16 207.41 204.25 207.41 204.25 211.99 213.47 211.99 213.47 241.02 218.89 241.02 218.89 211.99 228.16 211.99"/>
  <polygon class="cls-2" points="251.5 241.02 251.5 236.39 239.2 236.39 239.2 225.93 250.9 225.93 250.9 221.5 239.2 221.5 239.2 211.94 251.5 211.94 251.5 207.41 233.77 207.41 233.77 241.02 251.5 241.02"/>
</svg>