<?xml version="1.0" encoding="UTF-8"?>
<svg id="Layer_1" data-name="Layer 1" xmlns="http://www.w3.org/2000/svg" viewBox="0 0 1024 1024">
  <defs>
    <style>
      .cls-1 {
        fill: #1f2421;
      }

      .cls-2 {
        fill: #dce1de;
      }

      .cls-3 {
        fill: #49a078;
      }
    </style>
  </defs>
  <path class="cls-2" d="M346.57,9.7h0c-9.77,0-19.88.57-30.06,1.68-43.69,3.68-80.05,18-105.15,41.41-26.33,24.55-39.73,58.79-38.96,99.32-32.92,16.7-58.54,38.34-76.21,64.38-18.72,27.58-28.75,60.41-29.82,97.58-1.78,61.91,20.07,126.24,39.35,182.98,10.46,30.8,20.45,60.19,23.69,81.97-11.25-3.56-24.29-6.53-36.5-6.53-5.88,0-11.32.69-16.15,2.06-11.05,3.13-19.58,9.77-24.67,19.21-12.89,23.89,2.78,53.34,44.16,83.36-7.62,17.5-10.33,23.46-11.18,25.15-1.81,2.81-7.52,11.26-13.56,20.18-13.04,19.26-30.89,45.63-41.62,62.58-1.54,2.43-3.1,4.85-4.66,7.26l-.06.09c-8.2,12.7-17.5,27.08-21.77,41.9-5.47,18.94-1.55,34.9,11.63,47.46,16.66,15.87,38.61,22.34,75.76,22.34,18,0,40.74-1.48,71.36-4.66,18.79,11.29,49.01,27.12,69.37,37.58-4.68,16.33-5.47,30.42-2.35,41.93,2.8,10.33,8.83,18.73,17.45,24.31,11.36,7.35,24.35,11.08,38.61,11.08,27.76,0,56.83-13.47,87.61-27.73l1.54-.71c16.4,3.58,34.12,7.12,53.19,9.31,17.94,2.06,37.01,3.11,56.68,3.11,65.4,0,136.36-11.68,199.79-32.88,71.58-23.92,132.83-59.45,177.14-102.76,62.84-61.41,91.97-138.35,84.24-222.5l-2.46-26.72-1.84-19.98-14.02,14.35-18.75,19.19c-.59.6-60.69,61.08-152.62,96.89-6.79-1.74-13.45-2.62-19.84-2.62-11.54,0-20.39,2.83-26.51,5.82-4.31-1.14-8.73-1.72-13.21-1.72-8.9,0-17.94,2.25-26.88,6.69-2.19,1.09-4.36,2.3-6.49,3.63-4.92-1.93-10.13-2.95-15.56-3.05-.27,0-.5,0-.73,0-10.03,0-20.71,3.21-31.2,9.35-5.05-3.09-10.63-5.16-16.42-6.06-2.33-.36-4.73-.54-7.13-.54-6.56,0-13.28,1.32-20.04,3.94-3.14-3.14-6.47-5.79-9.98-7.93,2.27-32.82,10.2-72.19,23.6-117.12l.14-.47c9.09-30.49,22.57-75.69,7.37-131.57,39.83-8.59,96.2-20.01,154.36-31.26l16.05,23.08,22.3,32.06,13.34,19.18,3.43-23.11,5.74-38.63,3.69-24.84c42.6-7.92,76.34-13.81,96.9-16.92.14.44.22.69.23.72l8.44,26.84,6.32,20.08,10.55-18.22,14.1-24.36c16.79-29,29.74-61.57,38.5-96.8,2.02-6.61,16.94-56.2,27.1-110,16.59-87.84,10.73-133.76-19-148.89-12.33-6.28-24.31-9.46-35.59-9.46-6.98,0-13.76,1.22-20.16,3.63-16.41,6.18-26.77,18.85-32.96,29.71-7.72,1.44-15.81,2.85-24.17,4.21-6.92-10.55-19.66-21.45-43.02-24.05-2.33-.26-4.67-.39-6.95-.39-23.26,0-43,13.67-54.84,37.73-66.18,6.47-127.09,9.38-157.04,10.54-7.32-40.56-35.12-83.62-93.61-91.42-4.08-.54-8.32-.82-12.62-.82-22.9,0-44.34,7.79-57.77,13.98-25.56-23-63.26-35.12-109.57-35.12h0Z"/>
  <path class="cls-1" d="M990.67,79.43c-17.68-9-33.92-10.83-48.28-5.42-15.69,5.91-25.03,19.11-30.15,29.32-11.06,2.11-22.82,4.15-35.13,6.09-4.95-10.38-15.72-22.4-39.15-25.01-23.92-2.66-43.53,10.67-54.56,36.82-75.12,7.53-144.18,10.47-171.22,11.4-3.78-33.77-24.83-83.53-86.88-91.8-28.76-3.84-57.31,8.18-70.92,15.13-30.7-31.31-82.69-41.33-136.99-35.36-80.65,6.76-140.1,51.41-135.52,137.16-68.45,32.81-104.2,85.47-106.25,156.56-1.73,60.24,19.83,123.73,38.86,179.74,13.01,38.28,25.42,74.83,25.28,98.48-16.34-6.47-42-14.31-60.48-9.09-8.58,2.43-15.16,7.51-19.04,14.69-15,27.8,25.03,60.34,47.51,75.74-5.87,13.53-13.11,30.11-14.65,33.01-1.61,2.54-7.33,10.99-13.92,20.74-13.01,19.22-30.83,45.54-41.47,62.34-1.57,2.48-3.17,4.95-4.76,7.42-15.79,24.44-35.44,54.85-11.54,77.61,21.8,20.76,54.11,24.22,142.87,14.85,20.79,12.77,60,33.04,78.43,42.44-.36,1.04-.7,2.06-1.02,3.07-11.78,36.69-1.09,52.92,9.96,60.06,10.51,6.8,21.76,9.59,33.59,9.59,25.72,0,54.15-13.18,83.72-26.88l4.37-2.02c19.8,4.37,37.05,7.73,55.3,9.83,130.29,15,318.51-24.82,426.08-129.94,60.77-59.39,88.95-133.75,81.49-215.02l-2.46-26.72-18.75,19.19c-.63.64-62.81,63.57-158.76,100.16-20.94-6.13-36.46-2.18-45.86,3.46-11.62-4.12-24.24-3.03-36.95,3.28-3.75,1.86-7.06,3.97-9.79,5.94-5.05-2.79-10.64-4.29-16.55-4.39-12.61-.18-24.16,5.8-32.06,11.25-6.18-5.21-12.57-7.31-17.54-8.08-10.72-1.66-20.8,1.71-28.14,5.44-5.19-6.47-10.94-11.03-17.2-13.71,1.5-30.34,8.17-71.02,24.32-125.2l.14-.48c9.42-31.6,23.31-78.19,4.5-135.84,42.9-9.4,107.89-22.54,170.27-34.57l19.5,28.03,22.3,32.06,5.74-38.63,4.66-31.37c48.16-9,89.86-16.33,111.57-19.33,1.58,5.04,2.55,8.12,2.58,8.24l8.45,26.85,14.1-24.36c16.39-28.31,29.04-60.15,37.58-94.62,1.36-4.46,16.69-55.03,26.93-109.24,15.48-81.99,11-126.13-14.1-138.91Z"/>
  <path class="cls-2" d="M921.37,347.65c3.96,12.97,8.65,28.31,10.99,35.84,6.4-13.99,11.9-28.75,16.52-44.15l-27.51,8.31Z"/>
  <g>
    <path class="cls-3" d="M979.43,101.52c-11.22-5.71-20.74-7.16-28.3-4.31-10.33,3.89-16.16,15.24-18.72,21.65l-2.5,6.26-6.6,1.31c-16.2,3.22-33.99,6.28-52.86,9.09l-12.01,1.79-2.04-11.97c-1.04-6.1-4.37-14.43-21.18-16.29-17.58-1.93-26.64,13.94-31.15,27.62l-2.51,7.62-7.98.83c-100.2,10.41-191.94,12.66-192.86,12.68l-12.93.3.25-12.94c.04-2.86.2-70.92-66.01-79.75-14.92-1.99-34.16,2.05-52.6,10.8,10.72,19.37,15.53,44.04,12.11,74.71-11.19-99.95-81.93-115.73-169.19-104.97-68.56,8.63-112.63,40.98-118.23,113.57-1.65,20.42-.16,41.4,3.48,61.65-5.57-11.93-9.56-24.53-12.22-37.44-55.43,28.89-83.26,71.91-84.97,131.31-1.6,55.78,19.2,117.02,37.55,171.05,18.79,55.31,33.63,98.99,23.1,128.41l-5.01,14-12.86-7.45c-6.31-3.5-41.49-18.33-57.28-13.71-2.92.85-3.57,2.06-3.85,2.57-3.43,6.35,17.95,30.13,47.79,48.82l9.03,5.65-4.23,9.78c-15.59,36-18.91,43.27-20.42,45.69-1.69,2.7-7.07,10.65-14.53,21.67-12.92,19.09-30.62,45.23-41.05,61.71-1.61,2.54-3.25,5.08-4.89,7.61-17.14,26.52-23.04,38.8-15.26,46.21,14.11,13.44,43.34,15.16,93.11,11.03-3.63-3.4-6.77-7.43-10.3-10.85-11.73-11.6-23.17-24.32-32.35-38.05l1.72-1.78c7.18,4.08,14.26,8.17,21.4,12.09,6.1,3.45,14.98,8.34,21.15,11.9,3.52,1.96,29.7,17.89,37,22.89l3.68,2.36c17.78,11.42,58.3,32.44,78.29,42.66,6.69-20.99,66.56-108.18,58.92-70.51-5.38,26.52-34.81,75.58-37.07,81.56l-4.38,10.63c-1.72,4.17-3.2,8.19-4.41,11.96-5.29,16.48-4.68,27.45-.18,31.68,14.39,13.51,56.64-1.92,93.41-18.97l12.02-5.54,4.08.91c20.79,4.65,38.4,8.18,56.83,10.31,124.5,14.33,303.9-23.34,405.92-123.04,49.46-48.34,74.7-105.13,75.23-169.11-27.16,23.1-80.42,62.79-151.77,89.19l-4.18,1.55-4.21-1.47c-20.69-7.23-27.33-2.63-31.07,1.2-3.75,3.83-6.51,8.93-6.51,8.93l-9.15-6.41c-15.35-9.06-32.09,7.86-32.8,8.58l-9.02,9.28-8.93-9.37c-2.53-2.68-5.1-3.91-8.32-3.98-.1,0-.2,0-.3,0-9.3,0-20.83,9.18-24.17,12.43l-10.95,10.66-8.2-12.89c-3.66-5.8-7.07-6.95-9.32-7.3-7.56-1.23-17.24,5.12-20.04,7.43l-11.47,9.45-7.28-12.95c-.75-1.35-1.52-2.59-2.3-3.77,3.72,40.05,18.31,50.91,18.57,51.1-.11-.07.49.17,1.2.46,8.4-3.62,18.65-3.14,28.14,1.93,1.15.58,2.36,1.28,3.61,2.07,13.3-13.44,31.71-18.37,47.83-8.44.89-.9,1.8-1.79,2.74-2.7,11.19-11.25,28.49-18.59,43.47-12.27,11.07-12.72,27.83-21.56,44.45-16.9,2.15-2.36,4.74-4.25,7.5-5.86,10.79-5.97,23.48-5.91,35.25-3.99l-.22,2.47c-12.66.16-24.75,1.46-34.17,11.12-2.85,2.92-3.77,7.13-3.82,7.36l-4.23-1.25c-14.69-3.19-29,8.64-35.65,21.53l-3.29,6.98c-4.7-2.25-11.98-7.1-17.12-6.23-10.61,1.49-19.07,12.08-24,21.24,0,0-4.56,10.67-4.56,10.67l-12.86-8.38c-2.74-1.78-5.35-3.42-7.55-3.54-8.2-1.29-16.26,5.65-22.15,11.16,0,0-11.56,9.02-11.56,9.02-13.68-16.44-24.01-24.04-45.89-6,0,0-2.16-1.22-2.16-1.22.02-.06.04-.12.06-.19-11.99-8.85-57.25-65.13-3.53-245.37l.14-.48c9.12-30.57,21.39-71.75,4.08-122.91-86.51,21.7-161.45,49.11-232.33,59.13-73.42,10.56-112.29-17.96-136.08-95.87-5.89-19.15-9.41-38.45-11.25-58.04l2.39-.67c8.66,17.61,16.34,35.4,25.07,52.07,10.84,20.81,22.32,38.59,40.83,50.26,27.24,15.84,60.05,16.39,90.79,14.46,38.05-2.9,190.47-41.96,228.55-48.99h0c40.15-9,106.18-22.44,171.01-35.02l-20.62-29.64c-112.51,19.7-245.24,39.91-314.19,39.55-39.83-.23-75.59-11.86-106.63-34.51.05,1.16-.03,2.33-.33,3.53-1.1,5.24-2.75,10.81-6.92,18.84l-2.26,1.01c-9.88-4-15.8-13.18-16.3-23.29-.02-3.86,1.31-7.65,2.74-11.21,3.11-8.74,7.6-17.36,14.6-23.49,5.04-4.85,11.26-8.14,17.6-10.61l1.44,2.01c-2.89,4.21-6.05,8.73-8.07,13.47,29.84,26.28,63.98,39.22,104.28,39.45.64,0,1.28,0,1.93,0,130.23,0,511.56-77.83,511.56-77.83l40.2-8.47c4.37-16.65,21.47-82.18,25.54-103.74,18.65-98.9,1.05-110.99-1.02-112.04ZM297.33,674.52s1.85,1.14,1.85,1.14c-6.2,17.18-17.97,51.42-8.79,67.82,4.2,6.08,11.16,1.9,15.97-2.03,4.62-3.61,9.51-7.92,14.72-12.17,10.53-8.55,21.14-18.06,34.17-26.47l1.81,1.2c-5.24,22.27-18.83,44.74-39.61,55.82-20.32,11.15-43.43,3.11-44.11-22.15.67-23.64,11.62-43.95,23.99-63.16ZM309.35,173.72c-10.74,0-19.44-14.06-19.44-31.4s8.7-31.4,19.44-31.4,19.44,14.06,19.44,31.4-8.7,31.4-19.44,31.4Z"/>
    <path class="cls-3" d="M897.52,354.57c-15.66,3.15-46.19,9.22-85.1,16.57l-5.01,33.75c42.18-7.83,78.73-14.24,100.25-17.39-3.21-10.35-6.8-21.96-10.14-32.93Z"/>
  </g>
  <polygon class="cls-2" points="724.24 374.62 783.57 459.91 798.22 361.28 724.24 374.62"/>
</svg>