<?xml version="1.0" encoding="UTF-8"?>
<svg xmlns="http://www.w3.org/2000/svg" xmlns:xlink="http://www.w3.org/1999/xlink" viewBox="0 0 1024 1024">
  <defs>
    <style>
      .cls-1 {
        fill: url(#radial-gradient-2);
      }

      .cls-2 {
        fill: url(#radial-gradient);
        mix-blend-mode: multiply;
      }

      .cls-3 {
        isolation: isolate;
      }

      .cls-4 {
        fill: #7b1e1e;
      }
    </style>
    <radialGradient id="radial-gradient" cx="512" cy="262.52" fx="512" fy="262.52" r="255.52" gradientUnits="userSpaceOnUse">
      <stop offset="0" stop-color="#8c8f91"/>
      <stop offset="1" stop-color="#fff"/>
    </radialGradient>
    <radialGradient id="radial-gradient-2" cx="511.36" cy="263.63" fx="511.36" fy="263.63" r="222.86" gradientUnits="userSpaceOnUse">
      <stop offset="0" stop-color="#fff"/>
      <stop offset="1" stop-color="#f3d99f"/>
    </radialGradient>
  </defs>
  <g class="cls-3">
    <g id="Layer_1" data-name="Layer 1">
      <g>
        <g>
          <rect class="cls-4" x="258.5" y="5" width="507" height="515.05"/>
          <rect class="cls-2" x="258.5" y="5" width="507" height="515.05"/>
          <path class="cls-1" d="M668.65,374.58l-110.95-110.95,110.95-110.96v65.11h65.56V40.78h-177.01v65.56h32.78s32.3-.01,32.3-.01l-110.95,110.95-110.94-110.95h65.09V40.78h-176.99v176.99h65.56v-65.08s110.94,110.94,110.94,110.94l-110.95,110.95v-65.09h-65.54v177h176.99v-65.55h-65.09l110.95-110.95,110.96,110.95h-65.1v65.55h177v-177h-65.56v65.09Z"/>
        </g>
        <g>
          <path class="cls-4" d="M702.46,701.02v-16.69h-227.88v16.69c34.8,1.9,44.81,10.01,47.2,30.51.95,13.83,3.81,36.23,3.81,78.18v83.9h-1.9l-182.11-209.28h-141.59v16.69c30.51,6.2,31.94,10.96,22.88,28.12-11.44,20.98-28.13,47.2-42.9,66.74-19.55-31.94-34.8-56.73-42.91-71.99-5.72-11.44-6.67-16.69,20.02-22.88v-16.69H13.1v16.69c31.94,3.34,44.81,11.92,58.64,34.32,25.26,39.57,44.81,72.46,67.69,110.12-27.17,41-60.54,83.9-77.7,105.83-13.83,15.73-30.99,23.36-56.73,26.22v16.69h119.66v-16.69c-32.42-5.24-36.71-9.06-25.27-29.56,10.49-19.07,29.56-50.06,52.44-83.9,34.8,59.11,45.76,77.23,50.53,85.33,8.58,15.73,10.49,22.41-20.98,28.13v16.69h194.03v-16.69c-35.28-1.43-43.38-10.49-45.76-31.47-1.43-14.3-3.81-35.28-3.81-77.23v-107.26h1.43l198.32,237.41h22.88v-189.26c0-41.95,2.86-64.36,4.29-79.13,1.82-16.77,8.13-24.32,22.5-27.6,20.81,3.69,23.75,11.82,23.75,45.24v182.58c0,40.04-4.29,43.38-39.57,46.72v16.69h143.02v-16.69c-35.28-3.34-39.57-6.67-39.57-46.72v-182.58c0-40.52,4.29-43.86,39.57-47.2ZM192.35,812.57c22.88-31.46,42.9-59.59,59.59-78.66,10.93-13.06,19.78-20.46,30.79-25.19,3.89,2.38,7.21,5.44,10.22,9.46,9.06,10.96,10.01,20.02,10.01,51.01v99.63c0,41.95-2.86,62.93-4.77,78.66-.65,6.98-2.38,12.43-5.39,16.71-7-5.71-13.42-13.94-21.31-26.24-27.65-42.9-51.01-81.04-79.13-125.38Z"/>
          <path class="cls-4" d="M861.68,677.66c86.28,0,157.32,63.88,157.32,158.27,0,102.98-73.89,165.43-163.52,165.43-95.35,0-161.61-70.08-161.61-161.61,0-82,58.16-162.09,167.33-162.09h.48ZM852.15,697.2c-47.67,0-85.33,51.01-85.33,133.48s36.23,150.65,97.25,150.65c45.29,0,82-44.34,82-132.05,0-94.87-38.61-152.08-93.44-152.08h-.48Z"/>
        </g>
      </g>
    </g>
  </g>
</svg>