<?xml version="1.0" encoding="UTF-8"?>
<svg xmlns="http://www.w3.org/2000/svg" xmlns:xlink="http://www.w3.org/1999/xlink" viewBox="0 0 1024 1024">
  <defs>
    <style>
      .cls-1 {
        fill: url(#radial-gradient-4);
      }

      .cls-2 {
        fill: url(#radial-gradient-2);
      }

      .cls-3 {
        fill: url(#radial-gradient);
      }

      .cls-4 {
        isolation: isolate;
      }

      .cls-5 {
        fill: #7b1e1e;
      }

      .cls-6 {
        fill: url(#radial-gradient-3);
        mix-blend-mode: multiply;
      }
    </style>
    <radialGradient id="radial-gradient" cx="424.13" cy="3070.13" fx="424.13" fy="3070.13" r="581.13" gradientTransform="translate(0 3826.23) scale(1 -1)" gradientUnits="userSpaceOnUse">
      <stop offset="0" stop-color="#fff"/>
      <stop offset="1" stop-color="#f3d99f"/>
    </radialGradient>
    <radialGradient id="radial-gradient-2" cx="424.13" cy="3070.13" fx="424.13" fy="3070.13" r="581.13" xlink:href="#radial-gradient"/>
    <radialGradient id="radial-gradient-3" cx="507.94" cy="262.52" fx="507.94" fy="262.52" r="255.52" gradientUnits="userSpaceOnUse">
      <stop offset="0" stop-color="#8c8f91"/>
      <stop offset="1" stop-color="#fff"/>
    </radialGradient>
    <radialGradient id="radial-gradient-4" cx="507.3" cy="263.63" fx="507.3" fy="263.63" r="222.86" gradientUnits="userSpaceOnUse">
      <stop offset="0" stop-color="#fff"/>
      <stop offset="1" stop-color="#f3d99f"/>
    </radialGradient>
  </defs>
  <g class="cls-4">
    <g id="Layer_1" data-name="Layer 1">
      <g>
        <g>
          <path class="cls-3" d="M698.41,701.07v-16.68h-227.89v16.68c34.78,1.88,44.84,9.99,47.17,30.5.97,13.82,3.83,36.21,3.83,78.19v83.9h-1.88l-182.14-209.33h-141.59v16.68c30.5,6.23,31.92,10.97,22.91,28.1-11.42,20.96-28.16,47.17-42.89,66.77-19.53-31.92-34.78-56.71-42.89-72.03-5.71-11.42-6.68-16.68,20.05-22.91v-16.68H9.11v16.68c31.92,3.31,44.84,11.94,58.66,34.33,25.24,39.58,44.84,72.48,67.68,110.11-27.19,41.01-60.54,83.9-77.74,105.83-13.82,15.7-31.02,23.36-56.71,26.21v16.68h119.65v-16.68c-32.44-5.26-36.73-9.08-25.24-29.59,10.51-19.08,29.59-50.09,52.43-83.9,34.78,59.11,45.75,77.22,50.55,85.33,8.57,15.7,10.51,22.39-20.96,28.16v16.68h194.08v-16.68c-35.3-1.43-43.41-10.51-45.75-31.47-1.43-14.28-3.83-35.3-3.83-77.22v-107.26h1.43l198.36,237.42h22.91v-189.28c0-41.98,2.86-64.37,4.28-79.16,1.82-16.74,8.11-24.33,22.52-27.58,20.83,3.7,23.75,11.81,23.75,45.23v182.59c0,40.04-4.28,43.41-39.58,46.72v16.68h143.01v-16.68c-35.3-3.31-39.58-6.68-39.58-46.72v-182.59c0-40.55,4.28-43.86,39.58-47.17l-.19.13ZM188.27,812.61c22.91-31.47,42.89-59.57,59.57-78.64,10.9-13.04,19.79-20.44,30.76-25.18,3.89,2.4,7.2,5.45,10.19,9.47,9.08,10.97,9.99,20.05,9.99,51v99.67c0,41.98-2.86,62.94-4.74,78.64-.65,7.01-2.4,12.46-5.39,16.74-7.01-5.71-13.43-13.95-21.28-26.28-27.64-42.89-51-81.04-79.16-125.36l.06-.06Z"/>
          <path class="cls-2" d="M857.65,677.71c86.3,0,157.35,63.91,157.35,158.26,0,102.98-73.91,165.46-163.52,165.46-95.38,0-161.64-70.08-161.64-161.64,0-82.02,58.14-162.09,167.35-162.09h.45ZM848.11,697.24c-47.69,0-85.33,51-85.33,133.47s36.21,150.67,97.27,150.67c45.29,0,82.02-44.32,82.02-132.05,0-94.87-38.61-152.1-93.44-152.1h-.52Z"/>
        </g>
        <g>
          <rect class="cls-5" x="254.44" y="5" width="507" height="515.05"/>
          <rect class="cls-6" x="254.44" y="5" width="507" height="515.05"/>
          <path class="cls-1" d="M664.59,374.58l-110.95-110.95,110.95-110.96v65.11h65.56V40.78h-177.01v65.56h32.78s32.3-.01,32.3-.01l-110.95,110.95-110.94-110.95h65.09V40.78h-176.99v176.99h65.56v-65.08s110.94,110.94,110.94,110.94l-110.95,110.95v-65.09h-65.54v177h176.99v-65.55h-65.09l110.95-110.95,110.96,110.95h-65.1v65.55h177v-177h-65.56v65.09Z"/>
        </g>
      </g>
    </g>
  </g>
</svg>