<?xml version="1.0" encoding="UTF-8"?>
<svg id="Layer_1" data-name="Layer 1" xmlns="http://www.w3.org/2000/svg" xmlns:xlink="http://www.w3.org/1999/xlink" viewBox="0 0 1080 270">
  <defs>
    <style>
      .cls-1 {
        fill: url(#radial-gradient-4);
      }

      .cls-2 {
        fill: url(#radial-gradient-2);
      }

      .cls-3 {
        fill: url(#radial-gradient-3);
        mix-blend-mode: multiply;
      }

      .cls-3, .cls-4 {
        isolation: isolate;
      }

      .cls-5 {
        fill: url(#radial-gradient);
      }

      .cls-6 {
        fill: #7b1e1e;
      }
    </style>
    <radialGradient id="radial-gradient" cx="-178.48" cy="2629.3" fx="-178.48" fy="2629.3" r="222.9" gradientTransform="translate(982.98 5098.56) scale(1.91 -1.91)" gradientUnits="userSpaceOnUse">
      <stop offset="0" stop-color="#fff"/>
      <stop offset="1" stop-color="#f3d99f"/>
    </radialGradient>
    <radialGradient id="radial-gradient-2" cy="2629.3" fy="2629.3" r="222.9" xlink:href="#radial-gradient"/>
    <radialGradient id="radial-gradient-3" cx="-445.04" cy="2597.93" fx="-445.04" fy="2597.93" r="67.33" gradientTransform="translate(982.98 5098.56) scale(1.91 -1.91)" gradientUnits="userSpaceOnUse">
      <stop offset="0" stop-color="#8c8f91"/>
      <stop offset="1" stop-color="#fff"/>
    </radialGradient>
    <radialGradient id="radial-gradient-4" cx="-445.24" cy="2597.67" fx="-445.24" fy="2597.67" r="58.74" xlink:href="#radial-gradient"/>
  </defs>
  <g class="cls-4">
    <g id="Layer_1-2" data-name="Layer 1">
      <g>
        <path class="cls-5" d="M842.98,34.39v-12.22h-167.02v12.22c25.49,1.38,32.86,7.32,34.57,22.35.71,10.13,2.81,26.54,2.81,57.3v61.49h-1.38L578.47,22.12h-103.77v12.22c22.35,4.57,23.4,8.04,16.79,20.59-8.37,15.36-20.64,34.57-31.43,48.93-14.31-23.4-25.49-41.56-31.43-52.79-4.18-8.37-4.9-12.22,14.69-16.79v-12.22h-105.53v12.22c23.4,2.43,32.86,8.75,42.99,25.16,18.5,29.01,32.86,53.12,49.6,80.7-19.93,30.06-44.37,61.49-56.97,77.56-10.13,11.51-22.73,17.12-41.56,19.21v12.22h87.69v-12.22c-23.78-3.85-26.92-6.66-18.5-21.69,7.7-13.98,21.69-36.71,38.42-61.49,25.49,43.32,33.53,56.59,37.05,62.54,6.28,11.51,7.7,16.41-15.36,20.64v12.22h142.24v-12.22c-25.87-1.05-31.81-7.7-33.53-23.06-1.05-10.46-2.81-25.87-2.81-56.59v-78.61h1.05l145.38,174.01h16.79V113.95c0-30.77,2.09-47.18,3.14-58.02,1.33-12.27,5.94-17.83,16.5-20.21,15.27,2.71,17.41,8.66,17.41,33.15v133.82c0,29.34-3.14,31.81-29.01,34.24v12.22h104.81v-12.22c-25.87-2.43-29.01-4.9-29.01-34.24V68.87c0-29.72,3.14-32.15,29.01-34.57l-.14.1ZM469.09,116.14c16.79-23.06,31.43-43.66,43.66-57.64,7.99-9.56,14.5-14.98,22.54-18.45,2.85,1.76,5.28,3.99,7.47,6.94,6.66,8.04,7.32,14.69,7.32,37.38v73.05c0,30.77-2.09,46.13-3.47,57.64-.48,5.14-1.76,9.13-3.95,12.27-5.14-4.18-9.84-10.22-15.6-19.26-20.26-31.43-37.38-59.4-58.02-91.88l.05-.05Z"/>
        <path class="cls-2" d="M959.68,17.27c63.25,0,115.32,46.84,115.32,115.99,0,75.47-54.17,121.27-119.84,121.27-69.91,0-118.46-51.36-118.46-118.46,0-60.11,42.61-118.79,122.65-118.79h.33ZM952.69,31.58c-34.95,0-62.54,37.38-62.54,97.82s26.54,110.42,71.29,110.42c33.19,0,60.11-32.48,60.11-96.78,0-69.53-28.3-111.47-68.48-111.47h-.38Z"/>
      </g>
      <g>
        <rect class="cls-6" x="5" y="5" width="255.28" height="259.32"/>
        <rect class="cls-3" x="5" y="5" width="255.28" height="259.32"/>
        <path class="cls-1" d="M211.49,191.04l-55.88-55.88,55.88-55.88v32.77h33V22.93h-89.12v33h32.77l-55.88,55.88-55.88-55.88h32.77V22.93H20.03v89.12h33v-32.77l55.88,55.88-55.88,55.88v-32.77H20.03v89.12h89.12v-33h-32.77l55.88-55.88,55.88,55.88h-32.77v33h89.12v-89.12h-33v32.77Z"/>
      </g>
    </g>
  </g>
</svg>