<?xml version="1.0" encoding="UTF-8"?>
<svg id="Layer_1" data-name="Layer 1" xmlns="http://www.w3.org/2000/svg" xmlns:xlink="http://www.w3.org/1999/xlink" viewBox="0 0 1024 1024">
  <defs>
    <style>
      .cls-1 {
        fill: #f6ee70;
      }

      .cls-2 {
        fill: url(#radial-gradient);
      }

      .cls-3 {
        fill: #fff;
      }

      .cls-4 {
        fill: #221f1f;
      }

      .cls-5 {
        fill: #94aebd;
      }

      .cls-6 {
        fill: #8e1f1e;
      }
    </style>
    <radialGradient id="radial-gradient" cx="354.17" cy="334.95" fx="354.17" fy="334.95" r="327.25" gradientUnits="userSpaceOnUse">
      <stop offset="0" stop-color="#b6c542"/>
      <stop offset="1" stop-color="#567636"/>
    </radialGradient>
  </defs>
  <path class="cls-3" d="M960.94,261.48l-.07-.25-.09-.22c-.54-1.47-1.38-2.89-2.43-3.92-.45-.44-.87-.76-1.1-.93l-.21-.19-.44-.31c-.77-.53-1.57-.97-2.34-1.36-1.51-.75-3.21-1.46-5.34-2.27-4.18-1.62-10-3.59-17.46-5.87-14.92-4.55-36.31-10.31-63.15-16.36-6.44-1.45-13.21-2.91-20.28-4.38.3-.78.51-1.62.6-2.49.04-.38.05-.68.05-.96-.02-4.41-3.02-8.25-7.42-9.25-72.84-16.45-129.13-27.86-224.62-55.35l7.21-11.98c.9-1.5,1.35-3.2,1.35-4.89,0-1.19-.22-2.33-.63-3.41-.25-.63-.55-1.23-.91-1.78,13.13-19.78,39.55-53.83,76.62-75.92l8.33-4.98-7.93-5.61c-.36-.25-19.43-13.72-51.63-24.6l.2-.33-8.08-2.17c-18.49-4.95-45.95-10.32-72.44-11.42h-.4v-.08l-3.69-.09-.98-.04v.02s-1.51-.04-1.51-.04c-2.55-.04-5.14-.08-7.76-.08-21.45,0-45.2,1.91-71.23,6.56l-3.06.56c-46.11,5.83-78.18,21.33-83.83,23.63l-.53.22-.04-.06-2.61,1.15-2.5,1.02.02.06-.08.04c-31.81,13.92-57.79,32.65-78.69,52.41l-5.69,5.37,2.59,1.78c-.42-.01-.83-.04-1.22-.06l-2.85-.11-1.98,2.04c-40.67,41.94-59.7,85.83-64.43,97.12-9.67,23.16-8.57,43.51-9.76,60.2-1.32,16.75-3.82,29.09-19.56,42.09-.87.47-2.43,1.35-4.12,2.54-1.24.88-2.56,1.92-3.82,3.32-1.18,1.41-2.74,3.3-2.85,6.77-.06,2.27,1.15,4.76,2.69,6.15,1.54,1.43,3.16,2.19,4.89,2.78,1.66.54,3.26.73,4.82.73,7.96-.18,15.96-4.29,23.69-9.53,7.62-5.4,14.47-11.81,17.97-19.02,2.99-6.43,11.74-28.85,21.49-50.91,4.85-10.97,9.92-21.78,14.46-30.1,4.25-8.25,9.22-14.34,9.64-14.17,6.52-3.72,13.95-7.23,20.29-9.01.55,1.12,1.32,2.13,2.27,2.94l14.14,12.17c-5.65,6.51-9.44,11.47-10.67,12.44-1.7,1.8-8.72,4.85-14.41,6.29-2.98.81-5.7,1.41-7.67,1.79-.99.2-1.79.35-2.33.44-.27.06-.49.09-.64.11-.07.01-.12.03-.17.04-.02,0-.03,0-.05,0-.04,0-.09.01-.13.03h-.07c-2.91.54-5.5,2.44-6.83,5.19-.61,1.21-.96,2.67-.96,4.14,0,1.58.41,3.2,1.19,4.59.09.14,9.77,17.84,12.25,21.61l.19.3.22.27c1.47,2.27,5.23,3.87,7.08,3.82l.18.06,1.09-.04c1.55-.09,3.12-.32,4.84-.69-4.06,5.81-8.09,14.16-12.7,28.09-8.85,8.52-65.33,64.43-116.24,151.32-52.33,89.73-90.58,215.86-90.81,264.58,0,2.9.13,5.58.45,8.05.2,2.04,1.27,4.64,3.41,6.25,2.11,1.61,4.33,1.88,5.91,1.88,3.08-.06,5.27-.86,7.39-1.4,1.78-.51,3.39-.87,4.27-.93.1.46.19,1.2.18,2.21,0,2.65-.59,7.08-2.22,13.39-1.54,4.59-37.6,111.7-49.53,156.63-3.45,13.05-5.08,27.27-5.08,41.13.02,18.15,2.76,35.65,8.41,49.27,2.85,6.8,6.42,12.69,11.12,17.16,4.64,4.42,10.71,7.33,17.39,7.33h1.09c17.33-.83,29.47-12.8,37.85-27.98,8.53-15.32,14.26-34.78,19-54.39,8.54-35.34,34.95-137.77,39.43-155.12l9.19-5.51c.61,3.02,1.59,6.4,3.21,9.81,3.67,8.24,12.73,16.61,26.77,16.4,9.58-.03,21.13-3.36,35.85-11.18,61.18-32.67,177.42-120.94,274.15-216.27,66.01-65.24,84.82-99.95,90.09-116.85.69.48,1.38.96,2.08,1.4,1.89,1.04,3.23,2.23,6.85,2.45,1.45.06,3.91-.56,5.53-2.45,1.6-1.88,1.85-3.85,1.85-5.16-.05-2.25-.6-3.83-1.36-5.82-.67-1.65-1.83-4.32-3.03-7.28.54.15,1.2.26,2.01.32,1.95.19,4.93-1.45,5.82-3.31,1-1.78,1-3,1.02-3.95-.09-2.9-.83-5.02-2.26-9.07-1.05-2.83-2.51-6.42-4.53-11.01.62.12,1.32.21,2.1.25,1.24,0,3.23-.25,5.09-1.86,1.88-1.65,2.5-4.12,2.45-5.64-.14-3.25-1.19-5.01-2.65-7.72-1.43-2.49-3.46-5.49-6.38-9.34.42-.34.8-.73,1.1-1.18,1.34-1.88,1.42-3.47,1.44-4.53-.1-2.71-.78-4.12-1.46-5.94-1.05-2.58-2.43-5.31-3.51-7.59-.54-1.11-1.01-2.13-1.27-2.77-.07-.18-.12-.32-.16-.44l-.05-.29s-1.57-9.36-1.54-15.96c0-1.46.09-2.77.21-3.61.95-.63,1.56-1.3,2.37-2.04,6.94-7.08,19.66-25.37,25.82-37.79,16.5-2.3,154.55-21.01,208.06-21.06h.41c24.65,0,41.2-.59,52.39-1.64,10.94-1.29,17.14-1.86,22.8-6.41,1.93-1.81,3.32-3.94,3.81-6.74l.19-.34v-1.67c0-1.13-.14-2.15-.45-3.23Z"/>
  <path class="cls-4" d="M535.43,293.33c-5.01,0-10.4-5.92-18.97-15.33-15.82-17.35-39.69-43.4-72.45-43-33.97.61-80.62,14.31-108.48,22.5-22.69,6.66-24.45,7.09-26.27,4.33-1.84-2.76-10.94-19.29-11.98-21.17-.5-.9-.52-2-.07-2.92.46-.92,1.34-1.57,2.36-1.73,5.74-.88,22.05-4.42,28.42-10.16,0,0,0,0,0,0,1.46-1.31,3.42-3.68,5.91-6.68,2.57-3.11,5.67-6.85,9.58-11.1l-18.97-16.33c-.66-.57-1.06-1.39-1.1-2.27-.03-.87.29-1.72.91-2.35,24.99-25.35,57.45-45.78,96.49-60.73,2.05-.58,5-2.07,8.73-3.96,12.75-6.45,34.1-17.25,63.81-17.49,13.6.31,27.63,2.38,41.82,7.12,29.05,9.63,55.69,17.95,81.43,25.43.94.27,1.7.97,2.06,1.88.36.92.27,1.94-.23,2.78l-11.44,19.03c85.31,24.79,138.55,36.66,200.05,50.37,10.71,2.39,21.6,4.81,32.87,7.36,1.56.35,2.61,1.81,2.45,3.4-.16,1.59-1.48,2.81-3.08,2.84-1.4.03-140.5,3.05-158.31,4.53-9.43.8-16.67-4.47-23.04-9.11-3.61-2.63-7.04-5.13-10.61-6.44-1.57,1.28-3.31,2.36-5.29,3.28-5.23,2.41-18.6,7.56-29.99,3.26-5.65-2.13-9.85-6.22-12.48-12.15-3.58-8.04-10.17-14.28-17.62-16.68-4.96-1.61-9.74-1.31-13.43.85-5.61,3.27-10.49,10.4-12.13,17.72-1.02,4.57-1.31,11.37,3.13,17.83,9.93,14.45,18.51,26.93,12.91,37.02-5.07,9.14-23.97,26-35.95,28-.34.06-.69.09-1.03.09Z"/>
  <path class="cls-2" d="M954.87,263.27c-.7-1.83-1.35-1.93-1.82-2.38-.51-.35-1.01-.63-1.61-.93-1.2-.61-2.75-1.27-4.77-2.03-3.98-1.54-9.69-3.48-17.06-5.73-14.72-4.48-35.99-10.21-62.68-16.23-15.17-3.41-32.16-6.91-50.62-10.33-40.59.93-122.01,2.9-135.36,4.01-9.43.8-16.67-4.47-23.04-9.11-3.61-2.63-7.04-5.13-10.61-6.44-1.57,1.28-3.31,2.36-5.29,3.28-5.23,2.41-18.6,7.56-29.99,3.26-5.65-2.13-9.85-6.22-12.48-12.15-3.58-8.04-10.17-14.28-17.62-16.68-4.96-1.61-9.74-1.31-13.43.85-5.61,3.27-10.49,10.4-12.13,17.72-1.02,4.57-1.31,11.37,3.13,17.83,9.93,14.45,18.51,26.93,12.91,37.02-5.07,9.14-23.97,26-35.95,28-.34.06-.69.09-1.03.09-5.01,0-10.4-5.92-18.97-15.33-15.82-17.35-39.69-43.4-72.45-43-32.65.59-76.83,13.22-104.97,21.47-.34.43-.72.88-1.21,1.4-9.25,9.82-16.14,8.05-27.43,42.74,0,0-61.48,57.47-116.28,151.04-54.8,93.56-94.37,230.1-89.56,268.65,1.34,10.7,29.64-17.83,18.71,24.06,0,0-37.42,110.95-49.46,156.39-12.02,45.44-1.33,108.26,26.73,106.93,28.07-1.33,41.44-38.77,50.8-77.53,9.36-38.76,40.1-157.71,40.1-157.71l20.04-12.04s-2.67,52.13,57.48,20.06c60.16-32.09,176.44-120.3,272.67-215.2,96.23-94.9,90.14-124.24,90.14-124.24,0,0,18.69,17.6,13.48,4.66-2.54-6.33-15.46-34.35.58-19.66,0,0,13.14,17.4-4.06-20.22-9.24-20.23,2.89-6.36,2.89-6.36,0,0,19.43,13.18.58-11.56-9.25-12.14-5.78-10.41,0-8.1,5.78,2.32-4.62-13.87-4.62-16.75,0,0-4.05-23.7.58-25.43,4.21-1.58,23.75-29.5,28.51-41.47l.36.56,2.2-.31c13.76-1.93,155-21.22,209.91-21.2,24.54,0,40.97-.61,51.81-1.64,10.92-1.18,15.91-2.06,19.31-4.93.98-.88,1.79-2.38,1.77-3.92,0-.52-.07-1.02-.2-1.44Z"/>
  <path class="cls-1" d="M939.28,263.74c-.77-2.7-58.98-21.78-150.71-37.43-42.14,1.02-96.88,2.47-107.62,3.36-9.43.8-16.67-4.47-23.04-9.11-3.01-2.2-5.92-4.14-8.86-5.54-.16,3.78-1.46,8.01-5.29,11.85-10.06,10.05-45.25,22.9-45.25,22.9,0,0,.78.04,2.09.12l-.82-.19s180.13,1.53,213.02,6.98c0,0-3.93,1.22-7.4,1.16-2.97-.08-132.5-1.13-169.49-1.44,3.45,2.13,3.5,4.9-3.32,8.46-23.46,12.29-21.23,13.97,8.39,13.41,15.5-.29,23.64,6.61,27.89,13.26,13.4-1.85,149.77-20.52,203.38-20.52,56.42,0,68.15-3.36,67.04-7.26Z"/>
  <path class="cls-6" d="M325.4,186.08c24.85-24.86,56.91-44.96,95.41-59.7,2.05-.58,5-2.07,8.73-3.96,12.75-6.45,34.1-17.25,63.81-17.49,13.6.31,27.63,2.38,41.82,7.12,28.47,9.43,54.61,17.6,79.86,24.97,11.96-18.92,40.09-58.02,81.99-83.04,0,0-19.83-14.03-53.16-24.8-4.31,3.32-7.33,7.78-10.56,17.91-3.07,9.64,0-8.8,6.23-19.25-18.08-4.85-45.25-10.16-71.05-11.21l-6.47,24.6v-24.82c-23.01-.51-48.92,1.23-77.73,6.38.91,11.38,2.71,35.29,2.17,39.18-.63,4.51-3.93-25.87-5.28-38.63-45.39,5.73-76.52,20.8-82.5,23.25l12.75,34.01-18.35-31.64c-31.07,13.6-56.43,31.88-76.88,51.22,7.54,5.19,23.29,16.16,15.42,12.35-4.78-2.32-16.97-3.2-24.36-3.53-39.85,41.07-58.55,84.18-63.14,95.16-18.18,43.47,3.95,76.68-31.62,105.14,0,0-14.23,7.1-4.74,10.27,9.49,3.16,33.2-12.65,38.73-24.51,5.53-11.86,35.57-90.9,48.22-98.01,9.69-5.45,21.22-10.86,30.71-10.97Z"/>
  <path class="cls-3" d="M445.1,228.66c34.96,0,59.64,27.09,76.04,45.08,5.4,5.93,12.07,13.57,14.31,13.26,9.63-1.61,27.14-17.08,31.44-24.82,3.7-6.66-3.85-17.65-12.6-30.37-4.53-6.6-5.95-14.49-4.08-22.8,2.03-9.07,7.96-17.63,15.11-21.8,5.27-3.07,11.85-3.57,18.56-1.4,9.14,2.95,17.16,10.48,21.45,20.14,1.95,4.39,4.87,7.27,8.94,8.8,9.4,3.54,21.59-1.46,25.1-3.08,1.98-.92,3.57-1.99,5-3.37.8-.76,1.92-1.06,2.99-.78,5.29,1.37,9.87,4.71,14.3,7.94,6.01,4.38,11.74,8.49,18.78,7.91,13.38-1.11,91.26-3.01,132.8-3.97-2.54-.57-5.06-1.13-7.58-1.69-59.95-13.36-116.57-25.98-204.38-51.62-.94-.27-1.7-.97-2.06-1.88-.36-.91-.27-1.94.23-2.78l11.44-19.03c-24.59-7.21-50.07-15.19-77.72-24.35-13.51-4.51-26.86-6.8-39.69-6.8h-.1c-28.2.23-48.72,10.61-60.98,16.81-4.21,2.13-7.26,3.67-9.63,4.32-36.66,14.06-67.53,33.18-91.55,56.78l18.89,16.25c.66.57,1.05,1.38,1.09,2.24.05.87-.27,1.71-.87,2.34-4.85,5.1-8.57,9.59-11.56,13.2-2.65,3.2-4.74,5.73-6.55,7.35h0c-6.7,6.04-20.26,9.46-27.28,10.9,2.84,5.12,6.84,12.3,8.74,15.51,3.23-.59,11.44-3,20.06-5.53,28.17-8.27,75.33-22.12,110.15-22.75.4,0,.8-.01,1.21-.01Z"/>
  <g>
    <path class="cls-5" d="M579.27,160.03c2.61.78,5.18,1.57,7.74,2.33l10.54-17.98s-65.28-19.99-80.81-24.42c-15.54-4.44-55.5-1.33-76.37,10.66-20.87,11.99-39.06,16.88-50.61,23.09-11.55,6.22-37.74,24.87-37.74,24.87l11.02,15.17c15.17-12.7,37.01-26.89,69.08-39.32,21.49-8.32,43.83-27.81,86.53-13.66,21.77,7.22,41.88,13.59,60.63,19.27"/>
    <path class="cls-5" d="M669.22,196.08c32.35,8.01,60.72,14.05,88.13,19.7-34.47.9-68.72,1.91-77.47,2.63-.27.03-.57.04-.89.04-2.81.06-5.95-1.4-10.03-4.19-1.79-2.31-4.82-6.5-6.38-10.47-1.75-4.44,3.86-6.81,6.64-7.7Z"/>
    <path class="cls-5" d="M336.38,236.61h0c6.02-5.7,11.7-14.69,24.23-26.64,1.16,5.79,4.16,12.55,13.38,15.69,13.73,4.69,43.52-9.37,75.34-5.35,20.97,2.65,37.84,13.4,60.94,11.05,15.27-1.55,18.75-13.06,15.8-25.71-2.97-12.72,13.76-17.32,27.53-29.3,8.84-7.7,16.96-6.18,18.34-3.12,2.67,6.24-7.15,8.28-9.87,9.87-10.88,6.66-18.76,19.35-19.03,34.22-.02,6.45,1.79,13.32,5.98,19.43,8.13,11.26,13.03,20.64,12.48,22.81-.03.59-.05.59-.2.9-1.03,2.08-6.4,8.2-12.2,12.9-4.51,3.85-9.88,7.04-12.87,8.25-1.32-1.08-3.4-3.1-5.8-5.69-4.92-5.24-11.36-12.73-19.22-20.37-15.61-15.16-37.41-31.79-66.16-31.86-.42,0-.94,0-1.32.01-25.2.48-55.27,7.35-80.86,14.19-19.78,5.35-37.69,10.88-46.12,13.16-.72-1.28-1.5-2.68-2.28-4.06,7.05-2.08,15.26-4.63,21.93-10.39Z"/>
    <path class="cls-5" d="M608.61,179.91c9.37,2.68,18.39,5.18,27.12,7.51,1.5.81,4.4,2.67,6.79,6.26,2.57,3.85.75,10.47-5.88,13.59-4.46,2.1-10.38,3.77-15,3.74-5.7-.37-8.02-1.13-10.61-6.27-4.14-9.15-10.71-16.16-18.34-20.46-3.37-3.05,10.16-5.82,15.91-4.37Z"/>
  </g>
  <path d="M592.92,212.24c0,6.83-5.98,12.37-13.36,12.37s-13.36-5.54-13.36-12.37,5.98-12.37,13.36-12.37,13.36,5.53,13.36,12.37Z"/>
  <path class="cls-3" d="M578.72,205.93c0,1.85-1.51,3.36-3.36,3.36s-3.37-1.51-3.37-3.36,1.51-3.37,3.37-3.37,3.36,1.5,3.36,3.37Z"/>
</svg>