<?xml version="1.0" encoding="utf-8"?>
<!-- Generator: Adobe Illustrator 28.3.0, SVG Export Plug-In . SVG Version: 6.00 Build 0)  -->
<svg version="1.1" id="company-default" xmlns="http://www.w3.org/2000/svg" xmlns:xlink="http://www.w3.org/1999/xlink" x="0px"
	 y="0px" viewBox="0 0 552 138" style="enable-background:new 0 0 552 138;" xml:space="preserve">
<style type="text/css">
	.st0{fill:#4D7343;}
	.st1{fill:#78A658;}
	.st2{fill:#A9D962;}
	.st3{fill:#012626;}
</style>
<rect class="st0" width="552" height="138"/>
<path class="st1" d="M190.1,23c1.8-1.4,3.6-3,5.2-4.5c5.4-5.3,9.9-11.7,13.6-18.5h-27.4c1.5,7.3,3.2,14.6,5.1,21.8
	C187.1,23.3,188.9,23.9,190.1,23z"/>
<path class="st2" d="M162.5,18.7c1.5,0.2,2.8-1.1,2.5-2.5c-1-5.4-1.8-10.8-2.6-16.2h-39.2c0.9,0.8,1.7,1.5,2.6,2.2
	C136.3,10.8,149.1,16.5,162.5,18.7z"/>
<path class="st2" d="M474.8,39.3c19.2,3.8,39.1,4.5,58.5,1.7c6.4-0.9,12.6-2.4,18.7-4.3V0h-36.6c-13.4,12.3-27.3,24.2-41.6,35.5
	C472.4,36.6,472.9,39,474.8,39.3z"/>
<path class="st1" d="M389.1,34.3c-4,3-8.2,6-12.5,8.5c-0.7,0.4-1.1,1.1-1.1,1.9c-0.1,6,0,11.9,0.2,17.5c0,1.6,1.7,2.6,3.1,1.9
	c16.8-8.2,33.2-17.3,49-27.2c18.3-11.4,36-23.7,53.1-36.8h-59.7C412.3,12.9,401.5,24.6,389.1,34.3z"/>
<path class="st1" d="M81.6,46.1c-0.1,1.3-0.1,2.6-0.2,3.9c-0.1,0.9,0.4,1.8,1.3,2.1c31.3,13.6,63.6,24.9,96.5,33.7
	c1.6,0.4,3.1-1.1,2.6-2.7c-4.8-16-9.4-32.2-13.1-48.6c-0.2-0.9-0.9-1.5-1.8-1.7c-6.9-1-13.8-2.9-20.3-5.4
	c-15.1-5.6-27.6-15.4-37.3-27.5H76c0.2,0.7,0.4,1.4,0.6,2.1C80.3,16.4,82.2,31.3,81.6,46.1z"/>
<path class="st1" d="M356,6.6c1.2,1.3,3.4,0.8,3.7-1c0.4-1.9,0.9-3.8,1.3-5.6h-10.4c1.5,1.9,3,3.8,4.5,5.6
	C355.4,5.9,355.7,6.2,356,6.6z"/>
<path class="st2" d="M379.5,30.1C391.7,22,402.3,11.4,411.6,0h-32.1c-1.7,9.2-2.8,18.7-3.4,28.1C376,29.9,378,31.1,379.5,30.1z"/>
<path class="st1" d="M507.4,56.9c1.7,21,14.9,40.1,31.7,52.3c4.1,3,8.4,5.8,12.9,8.2V47.1c-13.7,4.5-28.1,6.8-42.5,7.4
	C508.3,54.6,507.3,55.7,507.4,56.9z"/>
<path class="st2" d="M66.9,45c1.5-0.9,1.6-0.9,3.1-1.8c0.9-10.3,0.4-20.7-0.9-30.9c-0.2-1.2-1.1-6.9-1.3-8.2c0,0,0-0.1,0-0.1
	c-0.3-1.2-0.6-2.6-0.9-4H0v7.7c6.3,4.2,12.8,8.3,18.9,11.8C34.1,28.7,50.8,37.4,66.9,45z"/>
<path class="st1" d="M81.1,73.8c-4.3-2-8.6-4.1-12.8-6.2C44.8,55.9,21.7,42.4,0,27.5v89.9c29.7-6.9,57.4-21.3,81.5-39.9
	C82.8,76.5,82.6,74.5,81.1,73.8z"/>
<path class="st3" d="M533.3,41c-19.3,2.9-39.2,2.1-58.5-1.7c-1.8-0.4-2.4-2.7-0.9-3.8C488.1,24.2,502,12.3,515.4,0h-34.5
	c-17.1,13.1-34.8,25.5-53.1,36.8c-15.8,9.9-32.2,19-49,27.2c-1.4,0.7-3.1-0.3-3.1-1.9c-0.2-5.6-0.3-11.5-0.2-17.5
	c0-0.8,0.4-1.5,1.1-1.9c4.4-2.5,8.5-5.4,12.5-8.5c12.3-9.7,23.2-21.4,32.1-34.3h-9.7c-9.3,11.4-19.8,22-32.1,30.1
	c-1.5,1-3.5-0.2-3.4-2c0.6-9.5,1.7-19,3.4-28.1H361c-0.5,1.9-0.9,3.7-1.3,5.6c-0.4,1.7-2.6,2.3-3.7,1c-0.3-0.3-0.6-0.7-0.9-1
	c-1.6-1.8-3.1-3.7-4.5-5.6h-9.8c4.5,7.1,9.5,13.9,15.3,20c0.5,0.5,0.7,1.1,0.6,1.8c-2.8,18-3.9,36.3-4.1,52.4c0,0.9-0.5,1.7-1.4,2
	c-13.6,5.5-27.4,10.5-41.5,14.1c-1.3,0.3-2.5-0.5-2.7-1.8c-0.3-2.5-0.6-5-0.9-7.5c-3-26.8-5.6-53.9-7-81h-51.4
	c0,6.6,0,13.3,0.1,19.9c0.5,26.2,1.5,52.3,3.2,78.4c0.1,1.4-1.1,2.5-2.5,2.3c-12.4-2-24.7-4.3-37-6.9c-0.7-0.2-1.3-0.7-1.6-1.4
	c-6.5-17.5-12.9-35.1-18.3-52.9c-0.3-0.9,0-1.9,0.8-2.4c1.7-1.2,3.4-2.5,4.9-3.9c10.1-8.9,17.4-20.6,22.4-33.1h-10.9
	c-3.7,6.8-8.2,13.1-13.6,18.5c-1.7,1.6-3.4,3.1-5.2,4.5c-1.2,0.9-3,0.3-3.4-1.2c-1.9-7.2-3.6-14.5-5.1-21.8h-19.2
	c0.7,5.4,1.6,10.8,2.6,16.2c0.3,1.5-1,2.8-2.5,2.5c-13.4-2.2-26.2-7.9-36.7-16.5c-0.9-0.7-1.8-1.5-2.6-2.2h-13.8
	c9.7,12.1,22.2,21.8,37.3,27.5c6.5,2.5,13.3,4.4,20.3,5.4c0.9,0.1,1.6,0.8,1.8,1.7c3.7,16.3,8.2,32.5,13.1,48.6
	c0.5,1.6-1,3.2-2.6,2.7c-33-8.8-65.3-20.1-96.5-33.7c-0.8-0.4-1.4-1.2-1.3-2.1c0.1-1.3,0.2-2.6,0.2-3.9c0.6-14.8-1.3-29.7-4.9-44
	C76.4,1.4,76.2,0.7,76,0h-9.2c0.3,1.4,0.6,2.9,0.9,4c0,0,0,0.1,0,0.1c0.2,1.2,1.1,7,1.3,8.2c1.3,10.2,1.8,20.6,0.9,30.9
	c-1.5,0.9-1.6,0.9-3.1,1.8c-16.1-7.6-32.8-16.3-48-25.5C12.8,15.9,6.3,11.8,0,7.7v19.8c21.7,14.9,44.8,28.4,68.3,40.1
	c4.3,2.1,8.5,4.2,12.8,6.2c1.5,0.7,1.7,2.7,0.4,3.7c-24.1,18.6-51.9,33-81.5,39.9v7.6C34.9,119,68.2,103.4,96.3,82
	c0.6-0.5,1.4-0.6,2.2-0.3c20.1,8.8,40.5,16.7,61.3,23.6c1.3,0.4,1.9,1.9,1.2,3.1c-3.6,6.4-7.4,12.7-11.2,18.9
	c-2.2,3.5-4.3,7-6.5,10.6h20.4c5.4-8.1,10.7-16.4,15.9-24.7c0.5-0.8,1.5-1.2,2.4-0.9c19.4,5.8,39.1,10.8,59,15
	c3.5,0.7,7.1,1.4,10.8,2.1c1,0.2,1.7,1,1.8,1.9c0.2,2.2,0.4,4.4,0.6,6.6h59.6c-0.6-3.9-1.2-7.7-1.7-11.6c-0.2-1.1,0.5-2.1,1.5-2.4
	c7.5-2.2,15-4.8,22.3-7.6c17.2-6.7,33.9-14.5,50.2-23.1c1.1-0.6,2.6-0.1,3,1.1c4.6,11.6,10.9,22.7,18.4,33c0.6,0.8,0.5,2-0.2,2.8
	c-2.3,2.4-4.4,5-6.4,7.7h99.6c-16.3-4.6-33.5-7.1-50.5-5.3c-4.5,0.5-9,1.2-13.4,2.4c-0.8,0.2-1.7,0-2.2-0.7
	c-5.5-6.3-10.6-13-15.2-20c-6-9.3-10.9-19.3-14.3-29.7c-0.3-1,0.1-2,1-2.5c16.9-9.9,33.2-20.8,49-32.3c0.5-0.4,1.2-0.5,1.8-0.4
	c3.1,0.8,6.3,1.4,9.5,2c9.8,1.7,19.7,2.8,29.7,3.1c1.1,0,2,0.8,2.1,1.9c0.7,6.8,2.6,13.5,5.1,19.8c8.9,21.9,27.8,37.9,48.8,47.7
	v-6.5c-4.5-2.5-8.8-5.2-12.9-8.2c-16.8-12.3-30-31.3-31.7-52.3c-0.1-1.2,0.8-2.3,2.1-2.4c14.4-0.6,28.8-2.9,42.5-7.4V36.7
	C545.9,38.6,539.6,40.1,533.3,41z"/>
</svg>
