<?xml version="1.0" encoding="UTF-8"?>
<svg id="Layer_1" data-name="Layer 1" xmlns="http://www.w3.org/2000/svg" viewBox="0 0 600 133.98">
  <defs>
    <style>
      .cls-1 {
        fill: #4c74a2;
      }

      .cls-2 {
        fill: #4b5d75;
      }

      .cls-3 {
        fill: #4a6c8d;
      }

      .cls-4 {
        fill: #909495;
      }
    </style>
  </defs>
  <g>
    <path class="cls-4" d="M268.39,110.07c-3.83,2.58-9.31,5.48-15.73,5.48-8.76,0-12.44-5.01-12.44-12.99v-28.95h12.91v25.9c0,3.52.94,6.1,4.77,6.1,3.6,0,7.9-2.43,10.48-4.77v-27.23h12.83v41.07h-12.83v-4.61h0Z"/>
    <path class="cls-4" d="M300.77,78.23c3.75-2.5,9.15-5.48,15.57-5.48,8.92,0,12.52,5.08,12.52,13.06v28.87h-12.83v-25.89c0-3.52-.94-6.1-4.85-6.1s-8.06,2.5-10.4,4.77v27.22h-12.83v-41.07h12.83v4.61Z"/>
    <path class="cls-4" d="M363.12,114.68v-4.22c-3.44,2.82-7.59,5.09-13.54,5.09-9.62,0-16.12-7.27-16.12-21.36s6.49-21.44,16.12-21.44c5.95,0,10.09,2.35,13.54,5.16v-25.2l12.83,7.59v54.38h-12.83ZM363.12,100.45v-12.52c-2.97-3.36-6.26-4.85-9.47-4.85-4.77,0-7.2,3.83-7.2,11.03s2.43,11.11,7.2,11.11c3.21,0,6.49-1.48,9.47-4.77Z"/>
    <path class="cls-4" d="M393.79,96.84c.62,6.1,3.29,9.23,8.22,9.23,4.3,0,9.94-2.19,15.02-4.85l4.69,7.98c-3.13,1.72-11.42,6.34-21.04,6.34-11.11,0-20.03-6.57-20.03-21.28,0-13.54,7.82-21.51,20.97-21.51s19.87,7.74,19.87,18.23c0,3.44-.7,5.87-.7,5.87h-26.99ZM393.86,90.12h15.1c-.08-5.4-2.5-8.29-7.28-8.29-4.62,0-7.12,2.97-7.82,8.29Z"/>
    <path class="cls-4" d="M439.31,82.14c.94-2.35,4.93-9.7,15.33-9v12.05c-13.85,0-15.33,13.22-15.33,13.22v16.27h-12.83v-41.07h12.83v8.53Z"/>
    <path class="cls-4" d="M456.29,73.61h5.63v-11.21l12.75-7.87v19.08h11.19v9.39h-11.19v17.6c0,3.44,1.88,3.76,3.44,3.76,1.88,0,5.01-1.33,6.02-1.72l4.46,9.47c-2.82,1.25-8.14,3.44-13.93,3.44-8.61,0-12.75-4.85-12.75-15.02v-17.53h-5.63v-9.39h0Z"/>
    <path class="cls-4" d="M510.35,115.54c-14.08,0-21.91-7.82-21.91-21.44s7.75-21.36,21.91-21.36,21.91,7.9,21.91,21.44-7.75,21.36-21.91,21.36ZM510.35,82.61c-6.18,0-8.84,4.22-8.84,11.5s2.66,11.58,8.84,11.58,8.92-4.23,8.92-11.5-2.74-11.58-8.92-11.58Z"/>
    <path class="cls-4" d="M564.64,88.95l-7.67,25.74h-12.05l-12.6-41.07h13.61l6.02,27.3,7.43-27.3h10.48l7.43,27.3,6.02-27.3h13.61l-12.75,41.07h-11.97l-7.58-25.74Z"/>
  </g>
  <g>
    <path class="cls-4" d="M127.07,109.28c-35.48,0-55.28-19.29-55.73-54.32-.09-7.21.73-32.29,2.31-42.2,0,0,15.75-6.72,16.1-6.72.11,0,14.14,9.88,14.14,9.88-.75,8.45-1.12,34.3-1.06,38.63.27,21.03,8.6,31.7,24.74,31.69h.47c20.67-.27,24.78-17.63,24.59-32.14-.04-2.94-.87-31.61-1.48-37.91l15.42-9.95,15.76,6.9c.61,5.96,1.54,36.35,1.59,40.55.46,35.37-19.27,55.11-55.57,55.58-.43,0-.85.01-1.28.01Z"/>
    <path class="cls-3" d="M201.23,66.89s3.79,12.25,9.54-1.08c5.74-13.33,2.83-32.34,2.83-32.34,0,0,18.07,38.44-10.5,66.87,0,0-6.34,7.26-20.09,11.36,0,0,21.54-18.16,18.22-44.8Z"/>
    <path class="cls-2" d="M45.51,82.28c33.84,13.45,50.95,42.17,101.55,31.38,50.61-10.8,43.19-62.08,43.19-62.08,0,0,11.13,25.81-6.07,52.63-15.09,23.52-61.23,42.51-120.44-2.36,0,0-34.41-29.02-60.73-13.83,0,0,14.93-16.7,42.51-5.74Z"/>
  </g>
  <path class="cls-1" d="M72.95,88.4c-1.94-3.14-4.65-7.96-5.64-11.96,0,0-12.5-11.83-28.33-7.6-8.06,1.48-13.26,6.73-13.26,6.73,13.4-3.98,18.52-2.97,31.42,4.39,10.78,6.14,24.08,18.07,15.82,8.44Z"/>
</svg>