<?xml version="1.0" encoding="UTF-8"?>
<svg id="Layer_1" data-name="Layer 1" xmlns="http://www.w3.org/2000/svg" viewBox="0 0 600 294.4">
  <defs>
    <style>
      .cls-1 {
        fill: #4c74a2;
      }

      .cls-2 {
        fill: #4b5d75;
      }

      .cls-3 {
        fill: #4a6c8d;
      }

      .cls-4 {
        fill: #909495;
      }
    </style>
  </defs>
  <g>
    <path class="cls-4" d="M49.78,280.73c-6.37,4.29-15.46,9.1-26.12,9.1-14.55,0-20.66-8.31-20.66-21.57v-48.08h21.44v43.01c0,5.85,1.56,10.14,7.93,10.14,5.98,0,13.12-4.03,17.41-7.93v-45.22h21.31v68.22h-21.31v-7.67Z"/>
    <path class="cls-4" d="M103.57,227.85c6.23-4.16,15.2-9.1,25.86-9.1,14.81,0,20.79,8.44,20.79,21.7v47.95h-21.31v-43.01c0-5.85-1.56-10.13-8.06-10.13s-13.38,4.16-17.28,7.92v45.22h-21.31v-68.22h21.31v7.67h0Z"/>
    <path class="cls-4" d="M207.13,288.4v-7.02c-5.72,4.68-12.6,8.44-22.48,8.44-15.98,0-26.77-12.08-26.77-35.47s10.79-35.6,26.77-35.6c9.88,0,16.76,3.9,22.48,8.58v-41.85l21.31,12.6v90.32h-21.31ZM207.13,264.75v-20.79c-4.94-5.59-10.39-8.06-15.72-8.06-7.93,0-11.95,6.37-11.95,18.32s4.03,18.45,11.95,18.45c5.33,0,10.79-2.47,15.72-7.92Z"/>
    <path class="cls-4" d="M258.06,258.77c1.04,10.13,5.46,15.33,13.64,15.33,7.14,0,16.5-3.64,24.95-8.06l7.79,13.25c-5.2,2.86-18.97,10.52-34.95,10.52-18.45,0-33.27-10.91-33.27-35.34,0-22.48,12.99-35.73,34.82-35.73s33,12.87,33,30.27c0,5.72-1.17,9.75-1.17,9.75h-44.83ZM258.19,247.6h25.08c-.13-8.97-4.16-13.77-12.09-13.77s-11.82,4.94-12.99,13.77Z"/>
    <path class="cls-4" d="M333.68,234.34c1.56-3.9,8.19-16.11,25.47-14.94v20.01c-23,0-25.47,21.96-25.47,21.96v27.03h-21.31v-68.22h21.31v14.16Z"/>
    <path class="cls-4" d="M361.87,220.18h9.36v-18.62l21.18-13.07v31.69h18.58v15.59h-18.58v29.24c0,5.72,3.12,6.24,5.72,6.24,3.12,0,8.32-2.21,10-2.86l7.41,15.72c-4.68,2.08-13.52,5.72-23.13,5.72-14.29,0-21.18-8.06-21.18-24.95v-29.11h-9.36v-15.59Z"/>
    <path class="cls-4" d="M451.66,289.83c-23.39,0-36.38-12.99-36.38-35.6s12.87-35.47,36.38-35.47,36.38,13.13,36.38,35.6-12.87,35.47-36.38,35.47ZM451.66,235.12c-10.27,0-14.68,7.02-14.68,19.1s4.42,19.23,14.68,19.23,14.81-7.01,14.81-19.1-4.55-19.23-14.81-19.23Z"/>
    <path class="cls-4" d="M541.83,245.65l-12.74,42.75h-20.01l-20.92-68.22h22.61l10,45.35,12.34-45.35h17.41l12.34,45.35,10.01-45.35h22.61l-21.18,68.22h-19.88l-12.6-42.75Z"/>
  </g>
  <g>
    <path class="cls-4" d="M295.07,171.47c-58.93,0-91.81-32.04-92.57-90.22-.16-11.97,1.22-53.64,3.83-70.08,0,0,26.16-11.16,26.73-11.16.18,0,23.49,16.4,23.49,16.4-1.25,14.03-1.85,56.97-1.76,64.15.46,34.93,14.29,52.64,41.1,52.64h.79c34.32-.46,41.15-29.28,40.83-53.38-.06-4.88-1.44-52.49-2.46-62.96L360.66.33l26.17,11.46c1.02,9.89,2.56,60.37,2.65,67.34.77,58.74-32.01,91.52-92.29,92.31-.71,0-1.41.01-2.12.01Z"/>
    <path class="cls-3" d="M418.24,101.05s6.3,20.35,15.84-1.8c9.54-22.14,4.71-53.71,4.71-53.71,0,0,30.02,63.84-17.44,111.06,0,0-10.53,12.06-33.37,18.87,0,0,35.78-30.17,30.26-74.41Z"/>
    <path class="cls-2" d="M159.61,126.62c56.2,22.34,84.62,70.05,168.67,52.11,84.05-17.93,71.73-103.1,71.73-103.1,0,0,18.49,42.87-10.09,87.42-25.06,39.06-101.71,70.6-200.05-3.92,0,0-57.16-48.19-100.87-22.98,0,0,24.79-27.74,70.61-9.53Z"/>
  </g>
  <path class="cls-1" d="M205.19,136.79c-3.23-5.21-7.72-13.22-9.38-19.86,0,0-20.75-19.64-47.06-12.61-13.38,2.45-22.02,11.17-22.02,11.17,22.26-6.61,30.75-4.93,52.19,7.29,17.9,10.21,39.99,30.02,26.27,14.01Z"/>
</svg>