<?xml version="1.0" encoding="UTF-8"?>
<svg xmlns="http://www.w3.org/2000/svg" xmlns:xlink="http://www.w3.org/1999/xlink" viewBox="0 0 1080 270">
  <defs>
    <style>
      .cls-1 {
        fill: url(#radial-gradient-2);
      }

      .cls-2 {
        fill: url(#radial-gradient);
        mix-blend-mode: multiply;
      }

      .cls-3 {
        isolation: isolate;
      }

      .cls-4 {
        fill: #7b1e1e;
      }
    </style>
    <radialGradient id="radial-gradient" cx="132.63" cy="134.66" fx="132.63" fy="134.66" r="128.65" gradientUnits="userSpaceOnUse">
      <stop offset="0" stop-color="#8c8f91"/>
      <stop offset="1" stop-color="#fff"/>
    </radialGradient>
    <radialGradient id="radial-gradient-2" cx="132.31" cy="135.22" fx="132.31" fy="135.22" r="112.21" gradientUnits="userSpaceOnUse">
      <stop offset="0" stop-color="#fff"/>
      <stop offset="1" stop-color="#f3d99f"/>
    </radialGradient>
  </defs>
  <g class="cls-3">
    <g id="Layer_1" data-name="Layer 1">
      <g>
        <g>
          <path class="cls-4" d="M842.98,34.42v-12.23h-167.03v12.23c25.51,1.4,32.85,7.34,34.59,22.36.7,10.13,2.79,26.56,2.79,57.31v61.5h-1.4L578.47,22.19h-103.78v12.23c22.36,4.54,23.41,8.04,16.77,20.61-8.39,15.38-20.62,34.59-31.45,48.92-14.33-23.41-25.51-41.58-31.45-52.76-4.19-8.39-4.89-12.23,14.68-16.77v-12.23h-105.53v12.23c23.41,2.45,32.85,8.73,42.98,25.16,18.52,29,32.84,53.11,49.62,80.72-19.92,30.05-44.38,61.5-56.96,77.57-10.13,11.53-22.71,17.12-41.58,19.22v12.23h87.7v-12.23c-23.76-3.84-26.91-6.64-18.52-21.66,7.69-13.98,21.67-36.69,38.44-61.5,25.51,43.33,33.54,56.61,37.04,62.55,6.29,11.53,7.69,16.42-15.38,20.62v12.23h142.22v-12.23c-25.86-1.05-31.8-7.69-33.54-23.06-1.05-10.48-2.8-25.86-2.8-56.61v-78.62h1.05l145.36,174.01h16.77V114.09c0-30.75,2.1-47.17,3.14-58,1.34-12.29,5.96-17.83,16.49-20.23,15.25,2.71,17.41,8.66,17.41,33.16v133.83c0,29.35-3.15,31.8-29,34.24v12.23h104.83v-12.23c-25.86-2.45-29-4.89-29-34.24V69.01c0-29.7,3.15-32.15,29-34.59ZM469.09,116.18c16.77-23.06,31.45-43.68,43.68-57.65,8.01-9.57,14.5-14.99,22.57-18.46,2.85,1.75,5.28,3.99,7.49,6.93,6.64,8.03,7.34,14.68,7.34,37.39v73.03c0,30.75-2.1,46.13-3.49,57.66-.48,5.11-1.75,9.11-3.95,12.25-5.13-4.18-9.84-10.21-15.62-19.24-20.27-31.45-37.39-59.4-58-91.9Z"/>
          <path class="cls-4" d="M959.69,17.3c63.24,0,115.31,46.82,115.31,116.01,0,75.48-54.16,121.25-119.85,121.25-69.89,0-118.45-51.37-118.45-118.45,0-60.1,42.63-118.8,122.65-118.8h.35ZM952.7,31.63c-34.94,0-62.55,37.39-62.55,97.84s26.55,110.42,71.28,110.42c33.2,0,60.1-32.5,60.1-96.79,0-69.54-28.3-111.47-68.49-111.47h-.35Z"/>
        </g>
        <g>
          <rect class="cls-4" x="5" y="5" width="255.27" height="259.32"/>
          <rect class="cls-2" x="5" y="5" width="255.27" height="259.32"/>
          <path class="cls-1" d="M211.51,191.08l-55.86-55.86,55.86-55.86v32.78h33.01V23.02h-89.12v33.01h16.5s16.26,0,16.26,0l-55.86,55.86-55.86-55.86h32.77V23.01H20.11v89.11h33.01v-32.77s55.86,55.86,55.86,55.86l-55.86,55.86v-32.77H20.11v89.12h89.11v-33.01h-32.77l55.86-55.86,55.87,55.86h-32.78v33.01h89.12v-89.12h-33.01v32.77Z"/>
        </g>
      </g>
    </g>
  </g>
</svg>