<?xml version="1.0" encoding="UTF-8"?>
<svg id="Layer_1" data-name="Layer 1" xmlns="http://www.w3.org/2000/svg" viewBox="0 0 649.47 223.49">
  <defs>
    <style>
      .cls-1 {
        fill: #b2c7df;
      }

      .cls-2 {
        fill: #8ab0d6;
      }

      .cls-2, .cls-3 {
        opacity: .7;
      }

      .cls-4 {
        fill: #1b556b;
        opacity: .5;
      }

      .cls-5 {
        fill: #fff;
      }

      .cls-3 {
        fill: #5c86a3;
      }
    </style>
  </defs>
  <g>
    <path class="cls-1" d="M306.25,125.59c0,3.71,0,7-.29,11.86-1.01,16.57-11.01,27.85-31.87,27.84-18.28,0-29.13-11.3-29.56-29.72l-.14-5.86h12.28s.29,5.86.29,5.86c.71,13.57,7.13,20,18.85,20,11.43,0,17.14-7.28,18-18.85.14-2.86.15-6.43.15-11.57l.03-60.42h12.29s-.03,60.86-.03,60.86Z"/>
    <path class="cls-1" d="M393.95,136.48c0,16.28-12.58,25.28-26.86,26.42-4,.43-6.71.43-10.43.42h-28.56s.04-98.57.04-98.57h25.85c4.14.01,6.71.01,11.57.3,15.14,1.29,24.71,9.72,24.7,23.58,0,12.14-7.01,20.14-18.29,22.56,14.57,2.72,21.99,11.72,21.99,25.29ZM388.1,136.91c0-11.57-5.85-21.57-22.55-22.44-3.29-.29-5.29-.29-7.57-.29h-24.43s-.02,44.41-.02,44.41h25.29c2.28.01,4.71-.13,6.57-.27,11.43-.85,22.71-7.13,22.72-21.42ZM333.54,109.46h22.57c2.29.01,4.71-.13,7.85-.27,10.29-.85,20.44-5.99,20.44-19.85,0-14.14-10.42-19.15-21.13-19.72-3.15-.14-5.57-.14-9-.14h-20.71s-.02,39.99-.02,39.99Z"/>
    <path class="cls-1" d="M469.52,127.23l-59.99-.02c.84,24.42,14.27,33.57,27.41,33.58,11.43,0,22.29-6.56,26.01-20.85h5.57c-4.15,17-17.29,25.42-31.86,25.42-18,0-32.85-13.44-32.84-39.87,0-23.85,15.02-39.42,34.16-39.41,21.29,0,31.71,18.01,31.7,37.58,0,.71,0,1.71-.15,3.57ZM409.53,122.49l54.57.02c-.85-23.29-13.7-31.86-26.41-31.87-13.14,0-27.29,10.28-28.15,31.85Z"/>
    <path class="cls-1" d="M513.82,86.54v4.43c-13.57-1-23.15,7.85-23.16,30.71l-.02,41.71h-5.42s.03-75.28.03-75.28h5.42s0,15.29,0,15.29l4-9.14c3.72-5.14,9.15-8.14,15.29-8.14,1.43,0,2.71.14,3.86.43Z"/>
    <path class="cls-1" d="M583.51,127.27l-59.99-.02c.85,24.43,14.27,33.57,27.41,33.57,11.43,0,22.29-6.56,26-20.84h5.57c-4.15,17-17.3,25.42-31.87,25.42-18,0-32.85-13.44-32.84-39.87.01-23.85,15.01-39.42,34.16-39.41,21.28,0,31.7,18.01,31.7,37.58,0,.71,0,1.71-.15,3.57ZM523.52,122.54l54.56.02c-.85-23.29-13.7-31.86-26.41-31.87-13.14,0-27.28,10.27-28.15,31.84Z"/>
    <path class="cls-1" d="M622.07,159.71v4.29c-2.29.29-5.29.43-8,.42-7.43,0-11.28-3.29-11.85-10.58-.29-3.14-.29-5.71-.29-10l.02-50.85h-9.28v-4.29h9.28s0-15.99,0-15.99h5.43s0,16,0,16h14.57s0,4.29,0,4.29h-14.57s-.02,51.13-.02,51.13c0,3.71,0,5.57.14,7.57.57,7.42,3.85,9.57,14.57,8Z"/>
  </g>
  <g>
    <path class="cls-5" d="M22.07,117.14s108.66,46.24,213.11-83.19c0,0-94.83,269.2-213.11,83.19Z"/>
    <path class="cls-5" d="M71.59,97.3s83.5,35.52,163.76-63.93c0,0-72.87,206.85-163.76,63.93Z"/>
    <path class="cls-5" d="M113.65,80.27s62.34,26.52,122.25-47.73c0,0-54.4,154.43-122.25,47.73Z"/>
  </g>
  <g>
    <path class="cls-4" d="M22.07,117.14s108.66,46.24,213.11-83.19c0,0-94.83,269.2-213.11,83.19Z"/>
    <path class="cls-3" d="M71.59,97.3s83.5,35.52,163.76-63.93c0,0-72.87,206.85-163.76,63.93Z"/>
    <path class="cls-2" d="M113.65,80.27s62.34,26.52,122.25-47.73c0,0-54.4,154.43-122.25,47.73Z"/>
  </g>
</svg>