<?xml version="1.0" encoding="UTF-8"?>
<svg id="Layer_1" data-name="Layer 1" xmlns="http://www.w3.org/2000/svg" viewBox="0 0 649.47 636.49">
  <defs>
    <style>
      .cls-1 {
        fill: #15355e;
      }

      .cls-2 {
        fill: #8ab0d6;
      }

      .cls-2, .cls-3 {
        opacity: .7;
      }

      .cls-4 {
        fill: #1b556b;
        opacity: .5;
      }

      .cls-5 {
        fill: #fff;
      }

      .cls-3 {
        fill: #5c86a3;
      }
    </style>
  </defs>
  <g>
    <path class="cls-1" d="M123.01,509.41c0,5.9,0,11.12-.47,18.84-1.6,26.33-17.49,44.25-50.62,44.23-29.05,0-46.29-17.94-46.97-47.23l-.22-9.3h19.52s.44,9.31.44,9.31c1.13,21.56,11.33,31.78,29.95,31.79,18.16,0,27.24-11.57,28.61-29.95.23-4.54.23-10.22.24-18.39l.03-96h19.52s-.03,96.69-.03,96.69Z"/>
    <path class="cls-1" d="M262.33,526.72c0,25.87-19.99,40.16-42.68,41.97-6.35.68-10.66.68-16.57.67l-45.39-.02.07-156.59,41.07.02c6.58,0,10.67,0,18.38.46,24.06,2.05,39.26,15.45,39.25,37.46,0,19.29-11.13,32-29.06,35.85,23.14,4.32,34.94,18.62,34.93,40.18ZM253.03,527.39c0-18.38-9.3-34.28-35.85-35.65-5.22-.46-8.4-.46-12.03-.46h-38.81s-.02,70.57-.02,70.57h40.17c3.63.02,7.49-.21,10.44-.44,18.16-1.35,36.09-11.33,36.1-34.03ZM166.35,483.78l35.86.02c3.63,0,7.49-.23,12.48-.45,16.34-1.35,32.45-9.52,32.46-31.53,0-22.47-16.55-30.42-33.58-31.33-4.99-.23-8.84-.23-14.29-.23h-32.91s-.03,63.53-.03,63.53Z"/>
    <path class="cls-1" d="M382.39,512.01l-95.32-.04c1.35,38.81,22.67,53.34,43.55,53.35,18.15,0,35.4-10.42,41.32-33.12h8.85c-6.59,27-27.47,40.39-50.62,40.38-28.6,0-52.2-21.35-52.18-63.34.02-37.89,23.85-62.63,54.27-62.61,33.81.01,50.37,28.61,50.36,59.71,0,1.14,0,2.72-.23,5.68ZM287.07,504.48l86.7.03c-1.35-36.99-21.76-50.62-41.96-50.62-20.88,0-43.36,16.32-44.74,50.59Z"/>
    <path class="cls-1" d="M452.76,447.35v7.03c-21.55-1.59-36.77,12.47-36.79,48.78l-.03,66.27h-8.62l.04-119.6h8.63v24.29s6.35-14.53,6.35-14.53c5.91-8.17,14.53-12.93,24.29-12.92,2.27,0,4.32.23,6.13.68Z"/>
    <path class="cls-1" d="M563.48,512.08l-95.31-.04c1.35,38.81,22.67,53.34,43.55,53.35,18.15,0,35.4-10.43,41.31-33.12h8.85c-6.59,27.01-27.47,40.39-50.62,40.38-28.6-.01-52.2-21.36-52.18-63.34.02-37.9,23.85-62.63,54.27-62.61,33.81.01,50.37,28.61,50.36,59.71,0,1.13,0,2.72-.24,5.67ZM468.17,504.56l86.7.03c-1.35-37-21.76-50.62-41.96-50.63-20.88,0-43.36,16.32-44.74,50.6Z"/>
    <path class="cls-1" d="M624.73,563.62v6.81c-3.63.45-8.4.68-12.71.68-11.8,0-17.92-5.23-18.83-16.8-.45-5-.45-9.08-.44-15.89l.03-80.79h-14.75v-6.82h14.76s0-25.41,0-25.41h8.62v25.42s23.14,0,23.14,0v6.81h-23.15s-.03,81.24-.03,81.24c0,5.9,0,8.85.23,12.03.91,11.8,6.12,15.21,23.14,12.72Z"/>
  </g>
  <g>
    <g>
      <path class="cls-5" d="M127.28,233.37s217.75,92.65,427.08-166.72c0,0-190.03,539.48-427.08,166.72Z"/>
      <path class="cls-5" d="M226.54,193.61s167.31,71.19,328.16-128.11c0,0-146.02,414.52-328.16,128.11Z"/>
      <path class="cls-5" d="M310.81,159.48s124.92,53.15,244.99-95.65c0,0-109.01,309.48-244.99,95.65Z"/>
    </g>
    <g>
      <path class="cls-4" d="M127.28,233.37s217.75,92.65,427.08-166.72c0,0-190.03,539.48-427.08,166.72Z"/>
      <path class="cls-3" d="M226.54,193.61s167.31,71.19,328.16-128.11c0,0-146.02,414.52-328.16,128.11Z"/>
      <path class="cls-2" d="M310.81,159.48s124.92,53.15,244.99-95.65c0,0-109.01,309.48-244.99,95.65Z"/>
    </g>
  </g>
</svg>