<?xml version="1.0" encoding="UTF-8"?>
<svg id="Layer_1" data-name="Layer 1" xmlns="http://www.w3.org/2000/svg" xmlns:xlink="http://www.w3.org/1999/xlink" viewBox="0 0 1024 215">
  <defs>
    <style>
      .cls-1 {
        fill: #4a5d75;
      }

      .cls-2 {
        fill: #f6ee70;
      }

      .cls-3 {
        fill: url(#linear-gradient-4);
      }

      .cls-4 {
        fill: url(#linear-gradient-3);
      }

      .cls-5 {
        fill: url(#linear-gradient-2);
      }

      .cls-6 {
        fill: url(#radial-gradient);
      }

      .cls-7 {
        fill: url(#linear-gradient);
      }

      .cls-8 {
        fill: #fff;
      }

      .cls-9 {
        fill: #221f1f;
      }

      .cls-10 {
        fill: #94aebd;
      }

      .cls-11 {
        fill: #8e1f1e;
      }
    </style>
    <radialGradient id="radial-gradient" cx="66.88" cy="73.39" fx="66.88" fy="73.39" r="63.84" gradientUnits="userSpaceOnUse">
      <stop offset="0" stop-color="#b6c542"/>
      <stop offset="1" stop-color="#567636"/>
    </radialGradient>
    <linearGradient id="linear-gradient" x1="151" y1="179.4" x2="196.08" y2="215.79" gradientUnits="userSpaceOnUse">
      <stop offset="0" stop-color="#4a5d75"/>
      <stop offset=".3" stop-color="#fff"/>
      <stop offset=".37" stop-color="#94aebd"/>
      <stop offset="1" stop-color="#4a5d75"/>
    </linearGradient>
    <linearGradient id="linear-gradient-2" x1="185.71" y1="136.4" x2="230.79" y2="172.79" xlink:href="#linear-gradient"/>
    <linearGradient id="linear-gradient-3" x1="221.14" y1="92.52" x2="266.22" y2="128.91" xlink:href="#linear-gradient"/>
    <linearGradient id="linear-gradient-4" x1="126.16" y1="200.54" x2="163.44" y2="230.64" xlink:href="#linear-gradient"/>
  </defs>
  <g>
    <path class="cls-8" d="M185.24,59.06v-.05s-.03-.04-.03-.04c-.11-.29-.27-.56-.47-.77-.09-.09-.17-.15-.21-.18l-.04-.04-.08-.06c-.15-.1-.31-.19-.46-.26-.29-.15-.63-.29-1.04-.44-.82-.32-1.95-.7-3.41-1.15-2.91-.89-7.08-2.01-12.32-3.19-1.26-.28-2.58-.57-3.96-.85.06-.15.1-.32.12-.49,0-.07,0-.13,0-.19,0-.86-.59-1.61-1.45-1.8-14.21-3.21-25.19-5.44-43.82-10.8l1.41-2.34c.18-.29.26-.62.26-.95,0-.23-.04-.45-.12-.67-.05-.12-.11-.24-.18-.35,2.56-3.86,7.71-10.5,14.95-14.81l1.63-.97-1.55-1.09c-.07-.05-3.79-2.68-10.07-4.8l.04-.06-1.58-.42c-3.61-.97-8.96-2.01-14.13-2.23h-.08v-.02l-.72-.02h-.19s0,0,0,0h-.29c-.5-.02-1-.02-1.51-.02-4.18,0-8.82.37-13.89,1.28l-.6.11c-8.99,1.14-15.25,4.16-16.35,4.61l-.1.04h0s-.51.21-.51.21l-.49.2h0s-.02.02-.02.02c-6.21,2.71-11.27,6.37-15.35,10.22l-1.11,1.05.5.35c-.08,0-.16,0-.24-.01l-.56-.02-.39.4c-7.93,8.18-11.65,16.74-12.57,18.95-1.89,4.52-1.67,8.49-1.9,11.74-.26,3.27-.74,5.67-3.81,8.21-.17.09-.47.26-.8.5-.24.17-.5.37-.75.65-.23.28-.54.64-.56,1.32-.01.44.22.93.52,1.2.3.28.62.43.95.54.32.11.64.14.94.14,1.55-.03,3.11-.84,4.62-1.86,1.49-1.05,2.82-2.3,3.5-3.71.58-1.25,2.29-5.63,4.19-9.93.95-2.14,1.94-4.25,2.82-5.87.83-1.61,1.8-2.8,1.88-2.76,1.27-.73,2.72-1.41,3.96-1.76.11.22.26.41.44.57l2.76,2.37c-1.1,1.27-1.84,2.24-2.08,2.43-.33.35-1.7.95-2.81,1.23-.58.16-1.11.27-1.5.35-.19.04-.35.07-.45.08-.05.01-.1.02-.12.02-.01,0-.02,0-.03,0,0,0,0,0,0,0,0,0-.02,0-.03,0h-.01c-.57.1-1.07.48-1.33,1.01-.12.24-.19.52-.19.81,0,.31.08.62.23.89.02.03,1.91,3.48,2.39,4.21l.04.06.04.05c.29.44,1.02.75,1.38.75h.04s.21,0,.21,0c.3-.02.61-.06.94-.13-.79,1.13-1.58,2.76-2.48,5.48-1.73,1.66-12.74,12.57-22.68,29.52-10.21,17.5-17.67,42.11-17.72,51.61,0,.57.03,1.09.09,1.57.04.4.25.91.66,1.22.41.31.84.37,1.15.37.6-.01,1.03-.17,1.44-.27.35-.1.66-.17.83-.18.02.09.04.23.04.43,0,.52-.12,1.38-.43,2.61-.3.89-7.34,21.79-9.66,30.55-.67,2.55-.99,5.32-.99,8.02,0,3.54.54,6.95,1.64,9.61.56,1.33,1.25,2.48,2.17,3.35.9.86,2.09,1.43,3.39,1.43h.21c3.38-.16,5.75-2.5,7.38-5.46,1.66-2.99,2.78-6.78,3.71-10.61,1.66-6.89,6.82-26.88,7.69-30.26l1.79-1.08c.12.59.31,1.25.63,1.91.72,1.61,2.48,3.24,5.22,3.2,1.87,0,4.12-.66,6.99-2.18,11.93-6.37,34.61-23.59,53.48-42.19,12.88-12.73,16.55-19.5,17.57-22.79.13.09.27.19.41.27.37.2.63.43,1.34.48.28.01.76-.11,1.08-.48.31-.37.36-.75.36-1.01,0-.44-.12-.75-.27-1.14-.13-.32-.36-.84-.59-1.42.11.03.23.05.39.06.38.04.96-.28,1.13-.65.19-.35.19-.59.2-.77-.02-.56-.16-.98-.44-1.77-.2-.55-.49-1.25-.88-2.15.12.02.26.04.41.05.24,0,.63-.05.99-.36.37-.32.49-.8.48-1.1-.03-.63-.23-.98-.52-1.51-.28-.49-.68-1.07-1.24-1.82.08-.07.16-.14.21-.23.26-.37.28-.68.28-.88-.02-.53-.15-.8-.28-1.16-.2-.5-.47-1.04-.68-1.48-.11-.22-.2-.41-.25-.54-.01-.03-.02-.06-.03-.09v-.06s-.32-1.83-.31-3.11c0-.29.02-.54.04-.7.19-.12.3-.25.46-.4,1.35-1.38,3.83-4.95,5.04-7.37,3.22-.45,30.15-4.1,40.59-4.11h.08c4.81,0,8.04-.12,10.22-.32,2.13-.25,3.34-.36,4.45-1.25.38-.35.65-.77.74-1.31l.04-.07v-.33c0-.22-.03-.42-.09-.63Z"/>
    <path class="cls-9" d="M102.23,65.27c-.98,0-2.03-1.16-3.7-2.99-3.09-3.38-7.74-8.47-14.13-8.39-6.63.12-15.73,2.79-21.16,4.39-4.43,1.3-4.77,1.38-5.12.84-.36-.54-2.13-3.76-2.34-4.13-.1-.18-.1-.39-.01-.57.09-.18.26-.31.46-.34,1.12-.17,4.3-.86,5.54-1.98,0,0,0,0,0,0,.28-.26.67-.72,1.15-1.3.5-.61,1.11-1.34,1.87-2.17l-3.7-3.18c-.13-.11-.21-.27-.21-.44,0-.17.06-.34.18-.46,4.87-4.94,11.21-8.93,18.82-11.85.4-.11.97-.4,1.7-.77,2.49-1.26,6.65-3.37,12.45-3.41,2.65.06,5.39.46,8.16,1.39,5.67,1.88,10.86,3.5,15.88,4.96.18.05.33.19.4.37.07.18.05.38-.04.54l-2.23,3.71c16.64,4.84,27.03,7.15,39.02,9.83,2.09.47,4.21.94,6.41,1.44.3.07.51.35.48.66-.03.31-.29.55-.6.55-.27,0-27.41.59-30.88.88-1.84.16-3.25-.87-4.49-1.78-.7-.51-1.37-1-2.07-1.26-.31.25-.65.46-1.03.64-1.02.47-3.63,1.48-5.85.64-1.1-.42-1.92-1.21-2.43-2.37-.7-1.57-1.98-2.78-3.44-3.25-.97-.31-1.9-.25-2.62.16-1.09.64-2.05,2.03-2.37,3.46-.2.89-.26,2.22.61,3.48,1.94,2.82,3.61,5.25,2.52,7.22-.99,1.78-4.68,5.07-7.01,5.46-.07.01-.13.02-.2.02Z"/>
    <path class="cls-6" d="M184.06,59.41c-.14-.36-.26-.38-.35-.46-.1-.07-.2-.12-.31-.18-.23-.12-.54-.25-.93-.4-.78-.3-1.89-.68-3.33-1.12-2.87-.87-7.02-1.99-12.23-3.17-2.96-.67-6.27-1.35-9.88-2.01-7.92.18-23.8.57-26.4.78-1.84.16-3.25-.87-4.49-1.78-.7-.51-1.37-1-2.07-1.26-.31.25-.65.46-1.03.64-1.02.47-3.63,1.48-5.85.64-1.1-.42-1.92-1.21-2.43-2.37-.7-1.57-1.98-2.78-3.44-3.25-.97-.31-1.9-.25-2.62.16-1.09.64-2.05,2.03-2.37,3.46-.2.89-.26,2.22.61,3.48,1.94,2.82,3.61,5.25,2.52,7.22-.99,1.78-4.68,5.07-7.01,5.46-.07.01-.13.02-.2.02-.98,0-2.03-1.16-3.7-2.99-3.09-3.38-7.74-8.47-14.13-8.39-6.37.11-14.99,2.58-20.48,4.19-.07.08-.14.17-.24.27-1.8,1.92-3.15,1.57-5.35,8.34,0,0-11.99,11.21-22.68,29.46-10.69,18.25-18.41,44.89-17.47,52.41.26,2.09,5.78-3.48,3.65,4.69,0,0-7.3,21.64-9.65,30.51-2.35,8.86-.26,21.12,5.21,20.86,5.48-.26,8.08-7.56,9.91-15.12,1.83-7.56,7.82-30.76,7.82-30.76l3.91-2.35s-.52,10.17,11.21,3.91c11.74-6.26,34.42-23.47,53.19-41.98,18.77-18.51,17.58-24.24,17.58-24.24,0,0,3.65,3.43,2.63.91-.5-1.23-3.02-6.7.11-3.84,0,0,2.56,3.39-.79-3.94-1.8-3.95.56-1.24.56-1.24,0,0,3.79,2.57.11-2.25-1.8-2.37-1.13-2.03,0-1.58,1.13.45-.9-2.71-.9-3.27,0,0-.79-4.62.11-4.96.82-.31,4.63-5.76,5.56-8.09l.07.11.43-.06c2.68-.38,30.24-4.14,40.95-4.14,4.79,0,7.99-.12,10.11-.32,2.13-.23,3.1-.4,3.77-.96.19-.17.35-.46.34-.76,0-.1-.01-.2-.04-.28Z"/>
    <path class="cls-2" d="M181.01,59.5c-.15-.53-11.5-4.25-29.4-7.3-8.22.2-18.9.48-20.99.66-1.84.16-3.25-.87-4.49-1.78-.59-.43-1.15-.81-1.73-1.08-.03.74-.28,1.56-1.03,2.31-1.96,1.96-8.83,4.47-8.83,4.47,0,0,.15,0,.41.02l-.16-.04s35.14.3,41.55,1.36c0,0-.77.24-1.44.23-.58-.02-25.85-.22-33.06-.28.67.42.68.96-.65,1.65-4.58,2.4-4.14,2.72,1.64,2.62,3.02-.06,4.61,1.29,5.44,2.59,2.61-.36,29.22-4,39.67-4,11.01,0,13.29-.66,13.08-1.42Z"/>
    <path class="cls-11" d="M61.26,44.35c4.85-4.85,11.1-8.77,18.61-11.65.4-.11.97-.4,1.7-.77,2.49-1.26,6.65-3.37,12.45-3.41,2.65.06,5.39.46,8.16,1.39,5.55,1.84,10.65,3.43,15.58,4.87,2.33-3.69,7.82-11.32,15.99-16.2,0,0-3.87-2.74-10.37-4.84-.84.65-1.43,1.52-2.06,3.49-.6,1.88,0-1.72,1.21-3.76-3.53-.95-8.83-1.98-13.86-2.19l-1.26,4.8v-4.84c-4.49-.1-9.54.24-15.16,1.25.18,2.22.53,6.88.42,7.64-.12.88-.77-5.05-1.03-7.54-8.85,1.12-14.93,4.06-16.09,4.54l2.49,6.63-3.58-6.17c-6.06,2.65-11.01,6.22-15,9.99,1.47,1.01,4.54,3.15,3.01,2.41-.93-.45-3.31-.62-4.75-.69-7.77,8.01-11.42,16.42-12.32,18.56-3.55,8.48.77,14.96-6.17,20.51,0,0-2.78,1.39-.93,2,1.85.62,6.48-2.47,7.56-4.78,1.08-2.31,6.94-17.73,9.41-19.12,1.89-1.06,4.14-2.12,5.99-2.14Z"/>
    <path class="cls-8" d="M84.61,52.66c6.82,0,11.63,5.28,14.83,8.79,1.05,1.16,2.35,2.65,2.79,2.59,1.88-.31,5.29-3.33,6.13-4.84.72-1.3-.75-3.44-2.46-5.92-.88-1.29-1.16-2.83-.8-4.45.4-1.77,1.55-3.44,2.95-4.25,1.03-.6,2.31-.7,3.62-.27,1.78.58,3.35,2.04,4.19,3.93.38.86.95,1.42,1.74,1.72,1.83.69,4.21-.29,4.9-.6.39-.18.7-.39.97-.66.16-.15.37-.21.58-.15,1.03.27,1.93.92,2.79,1.55,1.17.85,2.29,1.66,3.66,1.54,2.61-.22,17.8-.59,25.91-.77-.49-.11-.99-.22-1.48-.33-11.69-2.61-22.74-5.07-39.87-10.07-.18-.05-.33-.19-.4-.37-.07-.18-.05-.38.05-.54l2.23-3.71c-4.8-1.41-9.77-2.96-15.16-4.75-2.64-.88-5.24-1.33-7.74-1.33h-.02c-5.5.04-9.5,2.07-11.9,3.28-.82.42-1.42.72-1.88.84-7.15,2.74-13.17,6.47-17.86,11.08l3.68,3.17c.13.11.2.27.21.44,0,.17-.05.33-.17.46-.95,1-1.67,1.87-2.26,2.58-.52.62-.93,1.12-1.28,1.43h0c-1.31,1.18-3.95,1.85-5.32,2.13.55,1,1.33,2.4,1.7,3.03.63-.11,2.23-.58,3.91-1.08,5.5-1.61,14.69-4.32,21.49-4.44.08,0,.16,0,.24,0Z"/>
    <g>
      <path class="cls-10" d="M110.79,39.27c.51.15,1.01.31,1.51.45l2.06-3.51s-12.73-3.9-15.76-4.76c-3.03-.87-10.83-.26-14.9,2.08-4.07,2.34-7.62,3.29-9.87,4.5-2.25,1.21-7.36,4.85-7.36,4.85l2.15,2.96c2.96-2.48,7.22-5.25,13.48-7.67,4.19-1.62,8.55-5.43,16.88-2.66,4.25,1.41,8.17,2.65,11.83,3.76"/>
      <path class="cls-10" d="M128.33,46.3c6.31,1.56,11.85,2.74,17.19,3.84-6.72.18-13.41.37-15.11.51-.05,0-.11,0-.17,0-.55.01-1.16-.27-1.96-.82-.35-.45-.94-1.27-1.24-2.04-.34-.87.75-1.33,1.29-1.5Z"/>
      <path class="cls-10" d="M63.4,54.21h0c1.17-1.11,2.28-2.87,4.73-5.2.23,1.13.81,2.45,2.61,3.06,2.68.91,8.49-1.83,14.7-1.04,4.09.52,7.38,2.61,11.89,2.16,2.98-.3,3.66-2.55,3.08-5.01-.58-2.48,2.68-3.38,5.37-5.72,1.72-1.5,3.31-1.21,3.58-.61.52,1.22-1.39,1.62-1.92,1.93-2.12,1.3-3.66,3.77-3.71,6.68,0,1.26.35,2.6,1.17,3.79,1.59,2.2,2.54,4.03,2.43,4.45,0,.12-.01.12-.04.18-.2.41-1.25,1.6-2.38,2.52-.88.75-1.93,1.37-2.51,1.61-.26-.21-.66-.6-1.13-1.11-.96-1.02-2.22-2.48-3.75-3.97-3.04-2.96-7.3-6.2-12.91-6.21-.08,0-.18,0-.26,0-4.92.09-10.78,1.43-15.77,2.77-3.86,1.04-7.35,2.12-9,2.57-.14-.25-.29-.52-.45-.79,1.38-.4,2.98-.9,4.28-2.03Z"/>
      <path class="cls-10" d="M116.51,43.15c1.83.52,3.59,1.01,5.29,1.47.29.16.86.52,1.33,1.22.5.75.15,2.04-1.15,2.65-.87.41-2.02.74-2.93.73-1.11-.07-1.56-.22-2.07-1.22-.81-1.79-2.09-3.15-3.58-3.99-.66-.59,1.98-1.14,3.1-.85Z"/>
    </g>
    <path d="M113.45,49.45c0,1.33-1.17,2.41-2.61,2.41s-2.61-1.08-2.61-2.41,1.17-2.41,2.61-2.41,2.61,1.08,2.61,2.41Z"/>
    <path class="cls-8" d="M110.68,48.22c0,.36-.29.66-.66.66s-.66-.3-.66-.66.29-.66.66-.66.66.29.66.66Z"/>
  </g>
  <g>
    <path class="cls-7" d="M99.06,198.67v-68.79h58.92c10.31,0,15.46,4.45,15.46,13.33v16.13c0,8.89-5.15,13.33-15.46,13.33h-9.06l31.73,25.99h-22.93l-27.73-25.99h-15.2v25.99h-15.73ZM150.79,141.61h-35.99v19.33h35.99c2.49,0,4.22-.27,5.2-.81,1.33-.8,2-2.37,2-4.7v-8.32c0-2.32-.67-3.89-2-4.7-.98-.54-2.71-.81-5.2-.81Z"/>
    <path class="cls-5" d="M177.85,146.14c0-6.4,1.2-10.71,3.6-12.93,2.4-2.22,6.89-3.33,13.46-3.33h50.66c6.58,0,11.06,1.11,13.46,3.33,2.4,2.22,3.6,6.53,3.6,12.93v36.26c0,6.4-1.2,10.71-3.6,12.93-2.4,2.22-6.89,3.33-13.46,3.33h-50.66c-6.58,0-11.06-1.11-13.46-3.33-2.4-2.22-3.6-6.53-3.6-12.93v-36.26ZM193.84,185.74h52.79v-43.59h-52.79v43.59Z"/>
    <path class="cls-4" d="M269.56,198.67v-68.79h10.93l48.39,40.53c3.47,2.93,6.09,5.42,7.86,7.47-.45-6.4-.67-10.35-.67-11.86v-36.13h14.4v68.79h-10.93l-50.52-42.53c-2.13-1.78-4.05-3.64-5.73-5.6.44,4.45.67,8.09.67,10.93v37.19h-14.4Z"/>
    <path class="cls-1" d="M395.67,198.67c-6.22,0-10.44-1.13-12.66-3.4-2.22-2.27-3.33-6.55-3.33-12.86v-13.73l11.46-2.4v22.8h36.79v-59.19h11.46v52.52c0,6.31-1.13,10.6-3.4,12.86-2.27,2.27-6.51,3.4-12.73,3.4h-27.6Z"/>
    <path class="cls-1" d="M452.72,198.67l37.59-68.79h12.26l38.26,68.79h-12.67l-8.8-16.93h-46.52l-8.8,16.93h-11.33ZM477.65,172.94h37.06l-18.53-35.19-18.53,35.19Z"/>
    <path class="cls-1" d="M613.36,139.08h-47.73v49.99h47.73v-17.2l11.46,2.4v8.13c0,6.4-1.11,10.71-3.33,12.93-2.22,2.22-6.44,3.33-12.66,3.33h-38.53c-6.22,0-10.46-1.13-12.73-3.4-2.27-2.27-3.4-6.55-3.4-12.86v-36.26c0-6.31,1.13-10.6,3.4-12.86,2.27-2.27,6.51-3.4,12.73-3.4h38.53c6.22,0,10.44,1.1,12.66,3.29,2.22,2.19,3.33,6.47,3.33,12.84v6.53l-11.46,2.13v-15.6Z"/>
    <path class="cls-1" d="M633.62,198.67l37.59-68.79h12.26l38.26,68.79h-12.67l-8.8-16.93h-46.52l-8.8,16.93h-11.33ZM658.55,172.94h37.06l-18.53-35.19-18.53,35.19Z"/>
    <path class="cls-1" d="M745.2,142.14c.35,2.67.53,6.04.53,10.13v46.39h-9.73v-68.79h9.33l33.46,44.79,31.19-44.79h10.66v68.79h-10.66v-46.39l.53-10.13c-1.51,3.2-2.89,5.69-4.13,7.47l-26.26,38.26h-2.93l-27.33-37.19c-1.07-1.42-2.62-4.27-4.67-8.53Z"/>
    <path class="cls-1" d="M834.92,198.67l37.59-68.79h12.26l38.26,68.79h-12.66l-8.8-16.93h-46.52l-8.8,16.93h-11.33ZM859.85,172.94h37.06l-18.53-35.19-18.53,35.19Z"/>
    <path class="cls-1" d="M937.3,198.67v-68.79h55.35c5.06,0,8.74,1.05,11.04,3.13,2.3,2.09,3.46,5.49,3.46,10.2v15.33c0,4.71-1.16,8.11-3.46,10.2-2.31,2.09-5.99,3.13-11.04,3.13h-10.11l31.46,26.79h-17.06l-27.96-26.79h-20.21v26.79h-11.46ZM988.22,138.81h-39.46v24.13h39.46c2.75,0,4.69-.49,5.8-1.47,1.11-.98,1.67-2.84,1.67-5.6v-10c0-2.67-.56-4.51-1.67-5.53-1.11-1.02-3.04-1.53-5.8-1.53Z"/>
    <path class="cls-3" d="M74.53,145.21v53.46h16v-66.69c-5.4,4.74-10.83,9.22-16,13.23Z"/>
  </g>
</svg>