<?xml version="1.0" encoding="UTF-8"?>
<svg id="Layer_1" data-name="Layer 1" xmlns="http://www.w3.org/2000/svg" xmlns:xlink="http://www.w3.org/1999/xlink" viewBox="0 0 1280 860">
  <defs>
    <style>
      .cls-1 {
        fill: #f6ee70;
      }

      .cls-2 {
        fill: url(#radial-gradient);
      }

      .cls-3 {
        fill: #fff;
      }

      .cls-4 {
        fill: #221f1f;
      }

      .cls-5 {
        fill: #94aebd;
      }

      .cls-6 {
        fill: #8e1f1e;
      }
    </style>
    <radialGradient id="radial-gradient" cx="220.38" cy="244.47" fx="220.38" fy="244.47" r="236.13" gradientUnits="userSpaceOnUse">
      <stop offset="0" stop-color="#b6c542"/>
      <stop offset="1" stop-color="#567636"/>
    </radialGradient>
  </defs>
  <path class="cls-3" d="M658.2,191.46l-.05-.18-.07-.16c-.39-1.06-.99-2.08-1.75-2.83-.32-.32-.63-.55-.79-.67l-.15-.13-.31-.22c-.56-.38-1.13-.7-1.69-.98-1.09-.54-2.32-1.05-3.85-1.64-3.02-1.17-7.22-2.59-12.6-4.24-10.77-3.28-26.2-7.44-45.57-11.8-4.65-1.04-9.54-2.1-14.64-3.16.22-.56.37-1.17.43-1.8.03-.27.03-.49.03-.69-.01-3.18-2.18-5.96-5.36-6.68-52.56-11.87-93.17-20.1-162.08-39.94l5.2-8.64c.65-1.08.97-2.31.97-3.53,0-.86-.16-1.68-.46-2.46-.18-.45-.4-.88-.66-1.28,9.47-14.27,28.54-38.84,55.29-54.78l6.01-3.59-5.72-4.05c-.26-.18-14.02-9.9-37.26-17.75l.15-.24-5.83-1.56c-13.34-3.57-33.15-7.45-52.27-8.24h-.29v-.06l-2.66-.07-.71-.03v.02s-1.09-.03-1.09-.03c-1.84-.03-3.71-.06-5.6-.06-15.48,0-32.61,1.38-51.39,4.73l-2.21.4c-33.27,4.2-56.41,15.39-60.49,17.05l-.38.16-.03-.04-1.88.83-1.8.74.02.04-.06.03c-22.95,10.04-41.7,23.56-56.78,37.82l-4.1,3.88,1.87,1.28c-.3-.01-.6-.03-.88-.04l-2.06-.08-1.43,1.47c-29.35,30.26-43.08,61.93-46.49,70.08-6.98,16.71-6.19,31.4-7.04,43.44-.95,12.09-2.75,20.99-14.11,30.37-.63.34-1.76.98-2.97,1.83-.9.64-1.85,1.38-2.76,2.39-.85,1.02-1.98,2.38-2.06,4.88-.04,1.64.83,3.43,1.94,4.44,1.11,1.03,2.28,1.58,3.53,2.01,1.2.39,2.35.53,3.48.53,5.74-.13,11.51-3.1,17.09-6.88,5.5-3.9,10.44-8.52,12.96-13.73,2.16-4.64,8.47-20.82,15.51-36.74,3.5-7.92,7.16-15.71,10.43-21.72,3.07-5.95,6.66-10.35,6.95-10.23,4.71-2.69,10.06-5.22,14.64-6.5.4.81.95,1.53,1.63,2.12l10.2,8.78c-4.08,4.69-6.81,8.28-7.7,8.98-1.23,1.3-6.29,3.5-10.4,4.54-2.15.58-4.12,1.01-5.54,1.29-.72.14-1.29.25-1.68.31-.2.04-.35.07-.46.08-.05.01-.09.02-.13.03-.02,0-.02,0-.04,0-.03,0-.06.01-.09.02h-.05c-2.1.39-3.97,1.76-4.93,3.75-.44.87-.69,1.92-.69,2.99,0,1.14.3,2.31.86,3.31.06.1,7.05,12.87,8.84,15.59l.14.22.16.2c1.06,1.64,3.78,2.79,5.11,2.76l.13.04.79-.03c1.12-.06,2.25-.23,3.49-.49-2.93,4.19-5.83,10.22-9.17,20.27-6.38,6.15-47.14,46.49-83.87,109.19-37.76,64.75-65.36,155.76-65.53,190.91,0,2.1.1,4.03.33,5.81.15,1.47.92,3.35,2.46,4.51,1.52,1.16,3.12,1.36,4.26,1.36,2.22-.05,3.8-.62,5.33-1.01,1.28-.37,2.45-.63,3.08-.67.07.33.13.86.13,1.6,0,1.91-.43,5.11-1.6,9.66-1.11,3.31-27.13,80.6-35.74,113.01-2.49,9.42-3.67,19.68-3.67,29.68.01,13.1,1.99,25.72,6.07,35.55,2.05,4.91,4.63,9.16,8.03,12.38,3.35,3.19,7.73,5.29,12.55,5.29h.79c12.5-.6,21.27-9.23,27.31-20.19,6.15-11.06,10.29-25.1,13.71-39.25,6.16-25.5,25.22-99.41,28.45-111.93l6.63-3.98c.44,2.18,1.15,4.62,2.31,7.08,2.65,5.95,9.18,11.98,19.32,11.83,6.92-.02,15.25-2.42,25.87-8.07,44.15-23.57,128.02-87.26,197.81-156.05,47.63-47.07,61.2-72.12,65.01-84.31.49.35.99.7,1.5,1.01,1.37.75,2.33,1.61,4.94,1.77,1.04.04,2.82-.41,3.99-1.77,1.15-1.35,1.34-2.78,1.34-3.73-.03-1.63-.43-2.76-.98-4.2-.48-1.19-1.32-3.11-2.19-5.25.39.11.87.19,1.45.23,1.41.14,3.56-1.04,4.2-2.39.72-1.29.72-2.17.74-2.85-.06-2.09-.6-3.62-1.63-6.54-.76-2.04-1.81-4.63-3.27-7.94.45.09.95.15,1.52.18.9,0,2.33-.18,3.67-1.34,1.36-1.19,1.8-2.97,1.77-4.07-.1-2.34-.86-3.62-1.91-5.57-1.03-1.8-2.5-3.96-4.6-6.74.3-.24.58-.52.79-.85.97-1.36,1.03-2.51,1.04-3.27-.07-1.96-.57-2.97-1.05-4.29-.76-1.86-1.75-3.83-2.53-5.48-.39-.8-.73-1.53-.92-2-.05-.13-.09-.23-.12-.32l-.04-.21s-1.13-6.75-1.11-11.51c0-1.06.06-2,.15-2.6.69-.46,1.12-.94,1.71-1.47,5.01-5.11,14.18-18.3,18.63-27.27,11.9-1.66,111.52-15.16,150.13-15.2h.3c17.79,0,29.73-.43,37.8-1.18,7.9-.93,12.37-1.34,16.45-4.62,1.39-1.31,2.4-2.85,2.75-4.86l.14-.24v-1.2c0-.82-.1-1.55-.33-2.33Z"/>
  <g>
    <path class="cls-3" d="M339.59,707.51v-250.77h214.81c37.58,0,56.38,16.21,56.38,48.6v58.8c0,32.4-18.79,48.6-56.38,48.6h-33.04l115.66,94.77h-83.59l-101.08-94.77h-55.41v94.77h-57.35ZM528.16,499.5h-131.22v70.47h131.22c9.07,0,15.39-.98,18.95-2.94,4.86-2.93,7.29-8.65,7.29-17.13v-30.34c0-8.47-2.43-14.19-7.29-17.12-3.57-1.96-9.89-2.94-18.95-2.94Z"/>
    <path class="cls-3" d="M626.81,516.03c0-23.33,4.37-39.04,13.12-47.14,8.75-8.1,25.11-12.15,49.09-12.15h184.68c23.97,0,40.33,4.05,49.09,12.15,8.74,8.11,13.12,23.81,13.12,47.14v132.19c0,23.33-4.38,39.05-13.12,47.14-8.76,8.11-25.12,12.15-49.09,12.15h-184.68c-23.98,0-40.34-4.04-49.09-12.15-8.75-8.1-13.12-23.81-13.12-47.14v-132.19ZM685.13,660.36h192.45v-158.92h-192.45v158.92Z"/>
    <path class="cls-3" d="M961.17,707.51v-250.77h39.85l176.41,147.74c12.64,10.69,22.19,19.77,28.67,27.21-1.62-23.32-2.42-37.74-2.42-43.25v-131.71h52.48v250.77h-39.85l-184.19-155.03c-7.78-6.47-14.75-13.28-20.9-20.41,1.62,16.21,2.43,29.49,2.43,39.85v135.59h-52.49Z"/>
    <g>
      <path class="cls-3" d="M260.37,848.4c-10.16,0-17.05-1.85-20.68-5.55-3.63-3.7-5.44-10.7-5.44-21.01v-22.42l18.72-3.92v37.22h60.08v-96.65h18.72v85.76c0,10.31-1.85,17.3-5.55,21.01-3.7,3.7-10.63,5.55-20.79,5.55h-45.06Z"/>
      <path class="cls-3" d="M353.53,848.4l61.38-112.32h20.03l62.47,112.32h-20.68l-14.37-27.64h-75.97l-14.37,27.64h-18.5ZM394.24,806.39h60.51l-30.26-57.46-30.26,57.46Z"/>
      <path class="cls-3" d="M615.82,751.1h-77.93v81.63h77.93v-28.08l18.72,3.92v13.28c0,10.45-1.82,17.49-5.44,21.12-3.63,3.63-10.52,5.44-20.68,5.44h-62.91c-10.16,0-17.09-1.85-20.79-5.55-3.7-3.7-5.55-10.7-5.55-21.01v-59.21c0-10.3,1.85-17.3,5.55-21.01s10.63-5.55,20.79-5.55h62.91c10.15,0,17.05,1.79,20.68,5.37,3.63,3.58,5.44,10.57,5.44,20.98v10.67l-18.72,3.48v-25.47Z"/>
      <path class="cls-3" d="M648.91,848.4l61.38-112.32h20.02l62.47,112.32h-20.68l-14.37-27.64h-75.96l-14.37,27.64h-18.5ZM689.61,806.39h60.51l-30.26-57.46-30.26,57.46Z"/>
      <path class="cls-3" d="M831.1,756.11c.58,4.35.87,9.87.87,16.54v75.75h-15.89v-112.32h15.24l54.64,73.14,50.93-73.14h17.42v112.32h-17.42v-75.75l.87-16.54c-2.47,5.22-4.72,9.29-6.75,12.19l-42.88,62.47h-4.79l-44.62-60.73c-1.74-2.32-4.28-6.96-7.62-13.93Z"/>
      <path class="cls-3" d="M977.59,848.4l61.38-112.32h20.02l62.47,112.32h-20.68l-14.37-27.64h-75.96l-14.37,27.64h-18.5ZM1018.3,806.39h60.51l-30.26-57.46-30.26,57.46Z"/>
      <path class="cls-3" d="M1144.76,848.4v-112.32h90.38c8.26,0,14.26,1.71,18.03,5.12,3.77,3.41,5.65,8.96,5.65,16.65v25.03c0,7.69-1.88,13.24-5.65,16.65-3.77,3.41-9.78,5.11-18.03,5.11h-16.51l51.37,43.75h-27.86l-45.66-43.75h-33v43.75h-18.72ZM1227.91,750.67h-64.43v39.4h64.43c4.5,0,7.65-.8,9.47-2.39,1.81-1.6,2.72-4.65,2.72-9.14v-16.32c0-4.36-.91-7.37-2.72-9.03-1.81-1.67-4.97-2.5-9.47-2.5Z"/>
    </g>
    <path class="cls-3" d="M250.18,508.99v198.51h58.32v-246.85c-19.67,17.29-39.46,33.63-58.32,48.34Z"/>
  </g>
  <path class="cls-4" d="M351.17,214.44c-3.61,0-7.5-4.27-13.69-11.06-11.41-12.52-28.64-31.31-52.28-31.03-24.51.44-58.17,10.33-78.28,16.23-16.37,4.8-17.64,5.11-18.96,3.12-1.33-1.99-7.9-13.92-8.64-15.28-.36-.65-.38-1.44-.05-2.11.33-.67.97-1.13,1.7-1.25,4.14-.63,15.91-3.19,20.51-7.33,0,0,0,0,0,0,1.05-.95,2.47-2.66,4.26-4.82,1.85-2.24,4.09-4.94,6.91-8.01l-13.69-11.78c-.48-.41-.76-1.01-.79-1.64-.02-.63.21-1.24.66-1.69,18.03-18.29,41.46-33.03,69.62-43.82,1.48-.42,3.61-1.49,6.3-2.85,9.2-4.66,24.61-12.45,46.04-12.62,9.81.22,19.93,1.72,30.18,5.13,20.96,6.95,40.19,12.95,58.76,18.35.68.2,1.23.7,1.49,1.36.26.66.2,1.4-.17,2.01l-8.25,13.73c61.56,17.89,99.97,26.45,144.35,36.34,7.73,1.72,15.58,3.47,23.72,5.31,1.13.25,1.88,1.31,1.77,2.46-.12,1.14-1.07,2.03-2.22,2.05-1.01.02-101.38,2.2-114.23,3.27-6.8.58-12.03-3.23-16.62-6.57-2.6-1.9-5.08-3.7-7.65-4.64-1.13.92-2.39,1.7-3.82,2.36-3.77,1.74-13.42,5.46-21.64,2.36-4.08-1.54-7.11-4.48-9.01-8.77-2.58-5.8-7.34-10.3-12.72-12.04-3.58-1.16-7.02-.94-9.69.61-4.05,2.36-7.57,7.5-8.75,12.79-.74,3.29-.95,8.2,2.26,12.87,7.16,10.43,13.35,19.43,9.32,26.71-3.66,6.59-17.3,18.76-25.94,20.2-.25.04-.5.06-.74.06Z"/>
  <path class="cls-2" d="M653.82,192.75c-.51-1.32-.98-1.39-1.31-1.71-.37-.25-.73-.45-1.16-.67-.87-.44-1.99-.92-3.44-1.46-2.87-1.11-6.99-2.51-12.31-4.14-10.62-3.23-25.97-7.37-45.23-11.71-10.95-2.46-23.2-4.99-36.53-7.45-29.29.67-88.04,2.1-97.67,2.9-6.8.58-12.03-3.23-16.62-6.57-2.6-1.9-5.08-3.7-7.65-4.64-1.13.92-2.39,1.7-3.82,2.36-3.77,1.74-13.42,5.46-21.64,2.36-4.08-1.54-7.11-4.48-9.01-8.77-2.58-5.8-7.34-10.3-12.72-12.04-3.58-1.16-7.02-.94-9.69.61-4.05,2.36-7.57,7.5-8.75,12.79-.74,3.29-.95,8.2,2.26,12.87,7.16,10.43,13.35,19.43,9.32,26.71-3.66,6.59-17.3,18.76-25.94,20.2-.25.04-.5.06-.74.06-3.61,0-7.5-4.27-13.69-11.06-11.41-12.52-28.64-31.31-52.28-31.03-23.56.42-55.44,9.54-75.74,15.49-.25.31-.52.63-.87,1.01-6.67,7.09-11.65,5.81-19.79,30.84,0,0-44.36,41.47-83.9,108.98-39.54,67.51-68.1,166.03-64.62,193.85.97,7.72,21.39-12.86,13.5,17.36,0,0-27,80.06-35.69,112.84-8.68,32.79-.96,78.12,19.29,77.15,20.26-.96,29.9-27.97,36.65-55.94,6.76-27.96,28.94-113.8,28.94-113.8l14.46-8.69s-1.93,37.61,41.47,14.47c43.41-23.15,127.31-86.8,196.75-155.28,69.43-68.48,65.04-89.65,65.04-89.65,0,0,13.49,12.7,9.73,3.36-1.84-4.57-11.15-24.78.42-14.19,0,0,9.48,12.55-2.93-14.59-6.67-14.6,2.09-4.59,2.09-4.59,0,0,14.02,9.51.42-8.34-6.67-8.76-4.17-7.51,0-5.84,4.17,1.67-3.34-10.01-3.34-12.09,0,0-2.92-17.1.42-18.35,3.04-1.14,17.13-21.29,20.57-29.92l.26.4,1.59-.22c9.93-1.39,111.84-15.31,151.46-15.3,17.71,0,29.56-.44,37.38-1.18,7.88-.85,11.48-1.49,13.93-3.56.71-.63,1.29-1.71,1.27-2.83,0-.38-.05-.74-.14-1.04Z"/>
  <path class="cls-1" d="M642.57,193.09c-.56-1.95-42.55-15.72-108.74-27.01-30.41.74-69.91,1.78-77.65,2.43-6.8.58-12.03-3.23-16.62-6.57-2.17-1.58-4.27-2.99-6.4-4-.11,2.72-1.05,5.78-3.82,8.55-7.26,7.25-32.65,16.52-32.65,16.52,0,0,.56.03,1.51.08l-.59-.14s129.98,1.1,153.7,5.03c0,0-2.84.88-5.34.84-2.14-.06-95.61-.82-122.29-1.04,2.49,1.54,2.52,3.54-2.4,6.1-16.93,8.87-15.32,10.08,6.05,9.68,11.19-.21,17.06,4.77,20.13,9.57,9.67-1.34,108.07-14.81,146.75-14.81,40.71,0,49.17-2.42,48.37-5.24Z"/>
  <path class="cls-6" d="M199.62,137.05c17.93-17.94,41.07-32.44,68.84-43.08,1.48-.42,3.61-1.49,6.3-2.85,9.2-4.66,24.61-12.45,46.04-12.62,9.81.22,19.93,1.72,30.18,5.13,20.54,6.81,39.4,12.7,57.63,18.02,8.63-13.65,28.93-41.86,59.16-59.92,0,0-14.31-10.12-38.36-17.9-3.11,2.39-5.29,5.61-7.62,12.92-2.21,6.96,0-6.35,4.49-13.89-13.05-3.5-32.65-7.33-51.27-8.09l-4.67,17.75V14.63c-16.6-.37-35.3.89-56.09,4.61.65,8.21,1.96,25.46,1.57,28.27-.45,3.25-2.84-18.66-3.81-27.88-32.75,4.13-55.21,15.01-59.53,16.78l9.2,24.54-13.24-22.83c-22.42,9.81-40.72,23-55.48,36.96,5.44,3.74,16.8,11.66,11.12,8.91-3.45-1.67-12.25-2.31-17.58-2.55-28.75,29.64-42.25,60.74-45.56,68.66-13.12,31.37,2.85,55.33-22.81,75.86,0,0-10.27,5.13-3.42,7.41,6.84,2.28,23.95-9.13,27.95-17.68,3.99-8.56,25.67-65.59,34.79-70.72,6.99-3.94,15.31-7.83,22.16-7.92Z"/>
  <path class="cls-3" d="M285.99,167.78c25.23,0,43.03,19.55,54.86,32.53,3.9,4.28,8.71,9.79,10.33,9.57,6.95-1.16,19.58-12.33,22.68-17.91,2.67-4.81-2.78-12.74-9.09-21.91-3.27-4.77-4.29-10.45-2.95-16.45,1.46-6.54,5.75-12.72,10.91-15.73,3.8-2.22,8.55-2.57,13.39-1.01,6.6,2.13,12.38,7.56,15.48,14.53,1.41,3.17,3.52,5.24,6.45,6.35,6.78,2.55,15.58-1.06,18.11-2.23,1.43-.66,2.57-1.43,3.61-2.43.57-.55,1.38-.76,2.16-.56,3.82.99,7.12,3.4,10.32,5.73,4.34,3.16,8.47,6.13,13.55,5.71,9.65-.8,65.85-2.17,95.83-2.86-1.83-.41-3.65-.81-5.47-1.22-43.26-9.64-84.11-18.75-147.47-37.25-.68-.2-1.23-.7-1.49-1.36-.26-.66-.19-1.4.17-2.01l8.25-13.73c-17.75-5.2-36.12-10.96-56.08-17.57-9.75-3.25-19.38-4.9-28.64-4.9h-.08c-20.35.17-35.16,7.66-44,12.13-3.04,1.54-5.24,2.65-6.95,3.11-26.45,10.14-48.72,23.94-66.06,40.97l13.63,11.73c.47.41.76.99.79,1.62.03.63-.19,1.24-.63,1.69-3.5,3.68-6.18,6.92-8.34,9.52-1.91,2.31-3.42,4.13-4.73,5.31h0c-4.83,4.35-14.62,6.83-19.69,7.87,2.05,3.7,4.94,8.88,6.31,11.19,2.33-.42,8.26-2.16,14.48-3.99,20.33-5.97,54.35-15.96,79.48-16.41.29,0,.58,0,.87,0Z"/>
  <g>
    <path class="cls-5" d="M382.8,118.25c1.88.57,3.74,1.13,5.58,1.68l7.61-12.97s-47.1-14.42-58.31-17.62c-11.21-3.2-40.04-.96-55.11,7.69-15.06,8.65-28.18,12.18-36.52,16.66-8.33,4.49-27.23,17.94-27.23,17.94l7.95,10.95c10.95-9.16,26.71-19.4,49.84-28.37,15.51-6.01,31.62-20.07,62.44-9.86,15.71,5.21,30.22,9.81,43.75,13.9"/>
    <path class="cls-5" d="M447.7,144.27c23.34,5.78,43.81,10.13,63.59,14.22-24.87.65-49.58,1.37-55.9,1.89-.2.02-.41.03-.64.03-2.02.04-4.29-1.01-7.24-3.02-1.29-1.67-3.48-4.69-4.6-7.56-1.26-3.21,2.78-4.92,4.79-5.56Z"/>
    <path class="cls-5" d="M207.54,173.51h0c4.34-4.11,8.44-10.6,17.48-19.22.84,4.18,3,9.05,9.65,11.32,9.91,3.38,31.4-6.76,54.36-3.86,15.13,1.91,27.3,9.67,43.97,7.97,11.02-1.12,13.53-9.42,11.4-18.55-2.14-9.18,9.93-12.5,19.86-21.14,6.38-5.55,12.24-4.46,13.23-2.25,1.92,4.5-5.16,5.98-7.12,7.12-7.85,4.8-13.54,13.96-13.73,24.69-.02,4.65,1.29,9.61,4.31,14.02,5.87,8.13,9.4,14.9,9,16.46-.02.43-.04.43-.15.65-.75,1.5-4.61,5.91-8.8,9.31-3.25,2.78-7.13,5.08-9.29,5.95-.95-.78-2.45-2.23-4.19-4.1-3.55-3.78-8.2-9.19-13.87-14.7-11.26-10.94-26.99-22.93-47.74-22.99-.3,0-.68,0-.95.01-18.18.34-39.88,5.31-58.35,10.24-14.28,3.86-27.2,7.85-33.28,9.5-.52-.93-1.09-1.94-1.65-2.93,5.09-1.5,11.01-3.34,15.83-7.5Z"/>
    <path class="cls-5" d="M403.97,132.6c6.76,1.94,13.27,3.74,19.57,5.42,1.08.58,3.17,1.92,4.9,4.52,1.86,2.78.54,7.56-4.24,9.81-3.22,1.51-7.49,2.72-10.82,2.7-4.11-.27-5.79-.81-7.66-4.52-2.99-6.6-7.73-11.66-13.24-14.76-2.43-2.2,7.33-4.2,11.48-3.15Z"/>
  </g>
  <path d="M392.65,155.93c0,4.93-4.31,8.92-9.64,8.92s-9.64-4-9.64-8.92,4.31-8.93,9.64-8.93,9.64,3.99,9.64,8.93Z"/>
  <path class="cls-3" d="M382.4,151.37c0,1.33-1.09,2.42-2.42,2.42s-2.43-1.09-2.43-2.42,1.09-2.43,2.43-2.43,2.42,1.09,2.42,2.43Z"/>
</svg>