<?xml version="1.0" encoding="UTF-8"?>
<svg id="artwork" xmlns="http://www.w3.org/2000/svg" viewBox="0 0 1024 300">
  <defs>
    <style>
      .cls-1 {
        fill: #e4f0d0;
      }
    </style>
  </defs>
  <rect class="cls-1" x="1" y="2.38" width="16.8" height="223.09"/>
  <path class="cls-1" d="M139.28,91.12c-11.01-13.33-26.66-20.09-46.52-20.09s-34.89,6.7-46.05,19.91v-17.45h-16.04v151.97h16.04v-93c0-14.09,4.19-25.5,12.45-33.93,8.25-8.42,19.56-12.69,33.6-12.69s25.54,4.88,34,14.51c8.1,9.18,12.21,21.14,12.21,35.53v89.58h15.72v-85.58c0-20.16-5.19-36.56-15.41-48.76Z"/>
  <path class="cls-1" d="M190.84,28.8c5.78-8.23,14.06-12.23,25.3-12.23,3.05,0,6.15.3,9.23.89l17.83,3.43V5.76l-15.05-3.34c-4.27-.94-8.63-1.42-12.94-1.42-15.29,0-27.38,5.58-35.94,16.56-7.87,9.97-11.86,22.86-11.86,38.3v169.61h15.73V89.07h47.77v-15.26h-47.77v-16.57c0-11.69,2.59-21.26,7.7-28.44Z"/>
  <rect class="cls-1" x="250.23" y="73.81" width="16.04" height="151.66"/>
  <path class="cls-1" d="M258.09,22.96c-6.95,0-10.63,3.68-10.63,10.63s3.67,10.93,10.63,10.93,11.09-3.78,11.09-10.93-3.83-10.63-11.09-10.63Z"/>
  <path class="cls-1" d="M390.51,91.12c-11.02-13.33-26.67-20.08-46.53-20.08s-34.88,6.7-46.05,19.92v-17.45h-16.03v151.97h16.03v-93c0-14.08,4.19-25.5,12.45-33.93,8.26-8.43,19.56-12.7,33.59-12.7s25.54,4.88,34.01,14.52c8.1,9.19,12.21,21.14,12.21,35.53v89.58h15.72v-85.58c0-20.15-5.19-36.56-15.41-48.76Z"/>
  <path class="cls-1" d="M1009.59,91.12c-11.02-13.33-26.67-20.08-46.53-20.08s-34.88,6.7-46.05,19.92v-17.45h-16.03v151.97h16.03v-93c0-14.08,4.19-25.5,12.45-33.93,8.26-8.43,19.56-12.7,33.59-12.7s25.54,4.88,34.01,14.52c8.1,9.19,12.21,21.14,12.21,35.53v89.58h15.72v-85.58c0-20.15-5.19-36.56-15.41-48.76Z"/>
  <path class="cls-1" d="M429.26,22.96c-6.95,0-10.63,3.68-10.63,10.63s3.68,10.93,10.63,10.93,11.09-3.78,11.09-10.93-3.83-10.63-11.09-10.63Z"/>
  <rect class="cls-1" x="421.4" y="73.81" width="16.03" height="151.66"/>
  <path class="cls-1" d="M529.1,143.75l-29.96-8.42c-19.22-5.38-28.97-13.64-28.97-24.54,0-14.62,9.04-21.72,27.62-21.72h26.27c13.02,0,22.88,3.31,29.3,9.82l.86.87,14.12-8.42-1.12-1.4c-8.57-10.71-22.63-16.14-41.77-16.14h-22.89c-32.13,0-48.41,12.21-48.41,36.29,0,19.14,12.84,32.42,38.16,39.46l28.74,7.96c21.76,6.02,32.8,15.88,32.8,29.3,0,15.74-11.15,23.4-34.08,23.4h-24.42c-11.89,0-21.33-3.56-28.06-10.58l-.86-.9-14.12,8.47,1.11,1.4c8.88,11.2,22.98,16.87,41.93,16.87h15.05c39.47,0,59.48-13.34,59.48-39.66,0-20.24-13.72-34.39-40.77-42.06Z"/>
  <path class="cls-1" d="M728.71,194.98c-14.61,21.18-39.15,34.57-65.33,34.57-26.18,0-49.92-12.49-64.53-33.67l.08,100.25h-16.35V70.23l15.75-1.18v36.56s21.58-34.15,65.05-34.15,79.14,36.2,79.14,75.07c-.04.6-.04,7.4,0,7.96.45,7.14,2.05,14.03,4.78,20.5,9.85,23.39,32.58,38.53,57.92,38.58,34.6-.07,62.81-28.28,62.88-62.89-.07-34.61-28.28-62.82-62.88-62.88-23.45.04-44.78,13.01-55.67,33.84l-1.88,3.6-1.02-3.94c-1.7-6.6-5.77-13.47-6.23-14.23l-.51-.86.42-.58c14.79-21.28,39.05-33.99,64.9-33.99,25.63,0,49.23,12.18,64.1,32.81v-30.6h16.66v151.83l-16.73-.04.06-28.69c-14.87,20.63-38.46,32.8-64.08,32.8-27.57,0-52.71-14.03-67.25-37.52-1.46-2.34-5.17-9.68-5.17-9.68-3.91-8.72-6.19-17.96-6.77-27.46v-.1s.17-6.38.18-6.69c-1.24-33.96-28.83-60.6-62.83-60.65-34.61.06-62.82,28.27-62.88,62.89.06,34.61,28.27,62.82,62.89,62.88,23.45-.04,44.78-13.01,55.67-33.84l1.88-3.6,1.02,3.94c1.7,6.6,6.75,15.1,6.75,15.1"/>
</svg>