<?xml version="1.0" encoding="UTF-8"?>
<svg id="colorw_type" data-name="colorw/type" xmlns="http://www.w3.org/2000/svg" xmlns:xlink="http://www.w3.org/1999/xlink" viewBox="0 0 1280 300">
  <defs>
    <style>
      .cls-1 {
        fill: url(#linear-gradient-5);
      }

      .cls-2 {
        fill: url(#linear-gradient-4);
      }

      .cls-3 {
        fill: url(#linear-gradient-3);
      }

      .cls-4 {
        fill: url(#linear-gradient-2);
      }

      .cls-5 {
        fill: url(#linear-gradient);
      }

      .cls-6 {
        fill: #fff;
      }
    </style>
    <linearGradient id="linear-gradient" x1="51.45" y1="51.43" x2="249.42" y2="249.41" gradientUnits="userSpaceOnUse">
      <stop offset="0" stop-color="#91d443"/>
      <stop offset="1" stop-color="#48bfe0"/>
    </linearGradient>
    <linearGradient id="linear-gradient-2" x1="100.68" y1="2.2" x2="298.65" y2="200.17" xlink:href="#linear-gradient"/>
    <linearGradient id="linear-gradient-3" x1="149.75" y1="-46.87" x2="347.72" y2="151.11" xlink:href="#linear-gradient"/>
    <linearGradient id="linear-gradient-4" x1="2.2" y1="100.68" x2="200.17" y2="298.65" xlink:href="#linear-gradient"/>
    <linearGradient id="linear-gradient-5" x1="-46.87" y1="149.75" x2="151.1" y2="347.72" xlink:href="#linear-gradient"/>
  </defs>
  <g>
    <path class="cls-6" d="M376.51,204.01c-9.2-9.31-13.79-21.58-13.79-36.79s4.72-27.34,14.16-36.42c9.44-9.07,20.7-13.61,33.75-13.61s23.57,5.52,31.55,16.55v-53.7h20.6v136.47h-20.6v-14.71c-7.6,10.79-18.7,16.18-33.29,16.18-12.38,0-23.17-4.66-32.37-13.98ZM383.32,168.05c0,9.38,3,17.01,9.01,22.9,6.01,5.89,13.06,8.83,21.15,8.83s14.96-2.97,20.6-8.92c5.64-5.94,8.46-13.58,8.46-22.9s-2.82-17.1-8.46-23.36c-5.64-6.25-12.57-9.38-20.79-9.38s-15.26,3.13-21.15,9.38c-5.89,6.26-8.83,14.07-8.83,23.45Z"/>
    <path class="cls-6" d="M583.61,176.6h-76.69c.49,7.11,3.74,12.84,9.74,17.19,6.01,4.36,12.88,6.53,20.61,6.53,12.25,0,21.57-3.86,27.95-11.58l11.77,12.87c-10.55,10.92-24.28,16.37-41.2,16.37-13.73,0-25.41-4.57-35.03-13.7-9.63-9.14-14.44-21.4-14.44-36.79s4.9-27.62,14.71-36.7c9.81-9.07,21.36-13.61,34.67-13.61s24.62,4.02,33.94,12.05c9.31,8.03,13.97,19.1,13.97,33.2v14.16ZM506.92,160.41h56.09c0-8.21-2.57-14.53-7.72-18.94-5.15-4.41-11.5-6.62-19.04-6.62s-14.31,2.3-20.32,6.9c-6.01,4.6-9.01,10.82-9.01,18.66Z"/>
    <path class="cls-6" d="M658.65,117.19c13.12,0,24.34,4.54,33.66,13.61,9.31,9.08,13.98,21.15,13.98,36.24s-4.63,27.34-13.89,36.78c-9.26,9.44-20.05,14.16-32.37,14.16s-23.39-5.39-33.2-16.18v14.71h-20.6V80.04h20.6v55.73c8.09-12.38,18.7-18.58,31.82-18.58ZM626.46,167.77c0,9.32,2.82,16.95,8.46,22.9,5.64,5.95,12.51,8.92,20.6,8.92s15.14-2.94,21.15-8.83c6.01-5.89,9.01-13.52,9.01-22.9s-2.94-17.16-8.82-23.35c-5.89-6.19-12.94-9.29-21.15-9.29s-15.15,3.1-20.79,9.29c-5.64,6.19-8.46,13.95-8.46,23.26Z"/>
    <path class="cls-6" d="M820.87,176.6h-76.69c.49,7.11,3.74,12.84,9.74,17.19,6.01,4.36,12.88,6.53,20.6,6.53,12.26,0,21.58-3.86,27.96-11.58l11.76,12.87c-10.55,10.92-24.28,16.37-41.2,16.37-13.74,0-25.41-4.57-35.04-13.7-9.62-9.14-14.44-21.4-14.44-36.79s4.91-27.62,14.72-36.7c9.81-9.07,21.36-13.61,34.66-13.61s24.62,4.02,33.94,12.05c9.32,8.03,13.98,19.1,13.98,33.2v14.16ZM744.18,160.41h56.09c0-8.21-2.57-14.53-7.73-18.94-5.15-4.41-11.5-6.62-19.03-6.62s-14.31,2.3-20.32,6.9c-6.01,4.6-9.01,10.82-9.01,18.66Z"/>
    <path class="cls-6" d="M840.37,136.69v-17.66h76.5v18.57l-54.99,61.06h57.93v17.84h-83.13v-20.05l53.52-59.78h-49.84Z"/>
    <path class="cls-6" d="M944.28,99.17c-2.57-2.57-3.86-5.64-3.86-9.2s1.29-6.63,3.86-9.2c2.57-2.57,5.64-3.86,9.2-3.86s6.63,1.29,9.2,3.86c2.57,2.57,3.86,5.64,3.86,9.2s-1.29,6.62-3.86,9.2c-2.57,2.57-5.65,3.86-9.2,3.86s-6.62-1.29-9.2-3.86ZM963.59,216.51h-20.6v-97.85h20.6v97.85Z"/>
    <path class="cls-6" d="M1061.8,171.64v-52.97h20.6v97.85h-20.6v-17.84c-3.31,6.01-7.88,10.73-13.7,14.16-5.83,3.43-12.11,5.15-18.85,5.15-11.04,0-19.96-3.37-26.76-10.12-6.81-6.74-10.21-16.49-10.21-29.24v-59.96h20.6v53.71c0,18.02,7.48,27.04,22.44,27.04,7.11,0,13.3-2.36,18.57-7.08,5.27-4.71,7.91-11.61,7.91-20.69Z"/>
    <path class="cls-6" d="M1132.8,163.54v52.97h-20.6v-97.85h20.6v17.84c2.94-6.01,7.38-10.73,13.33-14.16,5.95-3.43,12.35-5.15,19.22-5.15,15.46,0,25.93,6.38,31.45,19.13,9.69-12.75,21.76-19.13,36.23-19.13,11.04,0,19.96,3.38,26.76,10.12,6.81,6.75,10.21,16.49,10.21,29.24v59.96h-20.6v-53.7c0-18.03-7.48-27.04-22.44-27.04-6.98,0-13.09,2.24-18.3,6.71-5.21,4.48-7.94,11.01-8.18,19.59v54.44h-20.6v-53.7c0-9.32-1.66-16.16-4.96-20.51-3.31-4.35-8.53-6.53-15.64-6.53s-13.3,2.36-18.57,7.08c-5.27,4.72-7.91,11.62-7.91,20.69Z"/>
  </g>
  <g>
    <path class="cls-5" d="M206.92,249.99c0,19.25,15.66,34.91,34.91,34.91h43.1v-43.1c0-19.25-15.66-34.91-34.91-34.91h-8.2c-30.52,0-55.35-24.83-55.35-55.35v-8.17c0-19.25-15.66-34.91-34.91-34.91h-8.18c-30.52,0-55.35-24.83-55.35-55.35h0v-8.19c0-19.25-15.66-34.91-34.91-34.91H10v43.1c0,19.25,15.66,34.91,34.91,34.91h8.2c30.52,0,55.35,24.83,55.35,55.35v8.17c0,19.25,15.66,34.91,34.91,34.91h8.19c30.52,0,55.35,24.83,55.35,55.35v8.19Z"/>
    <path class="cls-4" d="M284.93,143.35c0-19.25-15.66-34.91-34.91-34.91h-8.2c-30.52,0-55.35-24.83-55.35-55.35v-8.17c0-19.25-15.66-34.91-34.91-34.91h-43.07v43.58c.27,19.03,15.8,34.42,34.89,34.42h8.2c30.52,0,55.35,24.83,55.35,55.35h0s0,0,0,.01v8.17c0,19.21,15.6,34.84,34.8,34.91h43.21v-43.09Z"/>
    <path class="cls-3" d="M284.93,44.64c-.11-18.69-14.97-33.9-33.51-34.64h-45.16v43.48c.21,19.07,15.77,34.52,34.89,34.52h43.77s0-43.36,0-43.36Z"/>
    <path class="cls-2" d="M10.02,151.6c0,19.25,15.66,34.91,34.91,34.91h8.2c30.52,0,55.35,24.83,55.35,55.35v8.17c0,19.25,15.66,34.91,34.91,34.91h43.07v-43.58c-.27-19.03-15.8-34.42-34.89-34.42h-8.2c-30.52,0-55.35-24.83-55.35-55.35h0s0,0,0-.01v-8.17c0-19.21-15.6-34.84-34.8-34.91H10.02v43.09Z"/>
    <path class="cls-1" d="M10.02,250.31c.11,18.69,14.97,33.9,33.51,34.64h45.16v-43.48c-.21-19.07-15.77-34.52-34.89-34.52H10.02s0,43.36,0,43.36Z"/>
  </g>
</svg>