<?xml version="1.0" encoding="UTF-8"?>
<svg id="Layer_1" data-name="Layer 1" xmlns="http://www.w3.org/2000/svg" viewBox="0 0 2000 500">
  <defs>
    <style>
      .cls-1 {
        fill: #43b3d7;
      }

      .cls-2 {
        fill: #f9f9eb;
      }
    </style>
  </defs>
  <path class="cls-2" d="M309.32,87l-58.18,26c-2.49,1.08-3.62,3.98-2.54,6.46.5,1.13,1.4,2.04,2.54,2.54l43.45,19.31,8.58,3.81c1.27.57,2.73.57,4,0l23.32-10.44,9.81-4.39c1.76-.79,2.9-2.55,2.9-4.48v-46.46c0-2.71-2.2-4.91-4.91-4.91-.69,0-1.37.15-2,.43l-11.83,5.3-15.14,6.83Z"/>
  <path class="cls-2" d="M301.92,420.52v1.57c0,2.71,2.19,4.91,4.9,4.92.69,0,1.37-.14,2.01-.43l3.35-1.5,25.51-11.42,79.64-35.66c1.77-.79,2.9-2.55,2.9-4.48v-130.25c0-2.71-2.18-4.91-4.89-4.91-.7,0-1.39.15-2.02.43l-17.45,7.81-16.37,7.33-4.64,2.07-16.37,7.33-20.8,9.32-16.37,7.35-36,16.12-20.07,9-19.75,8.84c-2.49,1.08-3.62,3.98-2.54,6.46.5,1.13,1.4,2.04,2.54,2.54l9.81,4.36,20.1,8.93,23.59,10.4c1.77.79,2.92,2.55,2.92,4.49v69.38Z"/>
  <path class="cls-2" d="M325.29,154.91l-20.07,9-32.79,14.68-29.86,13.41-18.38,8.22c-2.49,1.08-3.62,3.98-2.54,6.46.5,1.13,1.4,2.04,2.54,2.54l63.81,28.28,20.1,8.93,22.12,9.83c1.27.57,2.73.57,4,0l24.24-10.85,16.37-7.33,1.74-.78c1.77-.79,2.91-2.54,2.9-4.48v-94.6c0-2.71-2.18-4.91-4.89-4.91-.7,0-1.39.15-2.02.43l-13,5.82-16.37,7.32-17.9,8.03Z"/>
  <path class="cls-1" d="M278.65,496.55c2.48,1.1,5.38-.02,6.48-2.5.28-.63.42-1.31.42-1.99v-130.29c0-1.94-1.15-3.7-2.92-4.48l-27.27-12.12-20.11-8.94-11.75-5.23-16.36-7.27-24.37-10.82-11.61-5.16-4.76-2.12-15.34-6.82-4.57-2-16.37-7.28-20.8-9.24-16.32-7.29-12.5-5.56c-2.48-1.1-5.38.02-6.48,2.5-.28.63-.42,1.31-.42,1.99v130.3c0,1.94,1.14,3.7,2.91,4.49l130.68,58.06,28.32,12.58,43.14,19.19Z"/>
  <path class="cls-1" d="M130.12,185.25l-13.9-6.18c-2.48-1.1-5.38.02-6.48,2.5-.28.63-.42,1.31-.42,1.99v75.62c0,1.94,1.14,3.7,2.92,4.49l17.88,7.94,16.37,7.28,19.91,8.85,4.73,2.1,11.64,5.16,8.47,3.76,22.11,9.83c1.27.57,2.73.57,4,0l27.79-12.44,20.08-9,36.91-16.52c2.49-1.08,3.62-3.98,2.54-6.46-.5-1.13-1.4-2.04-2.54-2.54l-14.05-6.25-20.08-8.89-73.88-32.83-20.12-8.93-27.48-12.21-16.4-7.27Z"/>
  <path class="cls-1" d="M166,102l-12.59-5.59c-2.48-1.1-5.38.02-6.48,2.5-.28.63-.42,1.31-.42,1.99v70.49c0,1.94,1.14,3.7,2.92,4.49l42.57,18.97c1.27.57,2.73.57,4,0l32.36-14.48,16.71-7.48,18.94-8.48,13.18-5.9c1.93-.89,2.78-3.17,1.9-5.1-.38-.84-1.06-1.51-1.9-1.9l-56.2-25-20.1-8.93-19.83-8.81-15.06-6.77Z"/>
  <path class="cls-1" d="M195.12,97.07l23.88,10.61c1.27.57,2.73.57,4,0l71.8-32.16c2.47-1.11,3.58-4.01,2.47-6.49-.11-.25-.24-.49-.39-.71L254.72,5.2c-1.52-2.26-4.57-2.86-6.83-1.34-.57.38-1.05.87-1.41,1.45l-53.48,84.69c-1.44,2.3-.74,5.33,1.56,6.77.18.11.37.21.56.3Z"/>
  <path class="cls-1" d="M583.47,199.64c-9.13,0-16.21,1.81-21.26,5.42s-7.57,9.03-7.56,16.26c0,6.67,3.67,12.52,11,17.55,7.33,5.03,17.08,9.84,29.24,14.41,8.92,3.13,17.45,7.3,25.4,12.41,7.29,4.96,13.3,11.57,17.53,19.31,4.67,8.18,7,18.55,7,31.1.06,10.62-2.85,21.05-8.41,30.1-5.62,9.23-13.85,16.57-24.69,22-10.84,5.43-23.77,8.14-38.8,8.13-12.66-.02-25.26-1.89-37.38-5.56-12.37-3.72-24.03-9.46-34.52-17l18.26-32.24c7.61,5.53,15.97,9.95,24.82,13.12,9.33,3.43,17.7,5.15,25.11,5.14,8.75,0,16.36-1.85,22.83-5.56s9.7-9.75,9.7-18.12c0-10.84-10.18-20.26-30.53-28.25-10.27-3.96-20.28-8.53-30-13.69-8.25-4.61-15.32-11.05-20.68-18.83-5.81-8.18-8.71-18.45-8.71-30.82,0-18.07,5.95-32.62,17.84-43.65,11.89-11.03,27.73-17.03,47.5-18,15.6,0,28.63,1.76,39.09,5.28,10.77,3.68,21.03,8.72,30.53,15l-15.69,31.67c-18.24-10.12-34.11-15.18-47.62-15.18Z"/>
  <path class="cls-1" d="M878.77,155.41v218.59h-41.37v-100.18l-68.48,97.3h-.56l-65.91-91v93.88h-40v-218.59h.29l106.47,150.94,109-150.94h.56Z"/>
  <path class="cls-1" d="M1019.72,332.88h-69.62l-17.1,41.12h-40.8l94.71-218.3h2.28l94.72,218.3h-47.91l-16.28-41.12ZM1006,298.07l-20.23-51.07-21.12,51.07h41.35Z"/>
  <path class="cls-1" d="M1138.7,164v170h98.72v40h-140.1v-210h41.38Z"/>
  <path class="cls-1" d="M1298.76,164v170h98.72v40h-140.09v-210h41.37Z"/>
  <path class="cls-2" d="M1530.72,374l-44.22-66.8h-27.68v66.8h-41.37v-210h63.63c26.05,0,46.26,6.33,60.63,19s21.55,29.93,21.54,51.78c.08,12.59-2.7,25.03-8.13,36.38-5.38,11.26-14.11,20.58-25,26.68l48.82,76.16h-48.22ZM1458.82,267.29h29.39c11.22,0,19.4-3.28,24.54-9.84s7.71-13.65,7.7-21.26c-.05-7.76-2.32-15.33-6.56-21.83-4.38-6.94-12.85-10.41-25.4-10.41h-29.67v63.34Z"/>
  <path class="cls-2" d="M1765,164l-78.75,144.66v65.34h-41.37v-65.37l-77.35-144.63h51.07l48.22,97,47.07-97h51.11Z"/>
  <path class="cls-2" d="M1922.46,164v39.95h-101.86v44.79h90.16v40h-90.16v45.26h105.85v40h-147.22v-210h143.23Z"/>
</svg>