<?xml version="1.0" encoding="UTF-8"?>
<svg id="Layer_1" data-name="Layer 1" xmlns="http://www.w3.org/2000/svg" viewBox="0 0 500 500">
  <defs>
    <style>
      .cls-1 {
        fill: #322f51;
      }

      .cls-2 {
        fill: #43b3d7;
      }
    </style>
  </defs>
  <path class="cls-2" d="M292.76,87.11l-40.76,18.23c-1.73.78-2.51,2.81-1.74,4.54.35.77.96,1.39,1.74,1.74l30.42,13.51,6,2.67c.89.4,1.91.4,2.8,0l16.33-7.31,6.86-3.07c1.22-.57,2-1.79,2-3.14v-32.49c0-1.9-1.54-3.44-3.44-3.44-.48,0-.96.1-1.4.3l-8.28,3.71-10.53,4.75Z"/>
  <path class="cls-2" d="M287.57,320.6v1.11c0,1.89,1.53,3.43,3.43,3.43.49,0,.97-.1,1.41-.3l2.35-1,17.85-8,55.75-25c1.23-.56,2.01-1.79,2-3.14v-91.17c0-1.9-1.54-3.44-3.44-3.44-.49,0-.97.1-1.41.3l-12.21,5.47-11.42,5.14-3.25,1.45-11.45,5.13-14.57,6.52-11.45,5.13-25.16,11.27-14,6.3-13.91,6.2c-1.73.78-2.51,2.81-1.74,4.54.35.77.96,1.39,1.74,1.74l6.87,3.05,14.04,6.24,16.5,7.33c1.23.56,2.01,1.79,2,3.14v48.56h.07Z"/>
  <path class="cls-2" d="M303.94,134.68l-14.06,6.32-22.95,10.27-20.93,9.33-12.86,5.76c-1.73.78-2.51,2.81-1.74,4.54.35.77.96,1.39,1.74,1.74l44.67,19.85,14.07,6.25,15.48,6.88c.89.4,1.91.4,2.8,0l17-7.6,11.45-5.13,1.22-.55c1.22-.56,2.01-1.78,2-3.13v-66.21c0-1.89-1.53-3.43-3.43-3.43-.49,0-.97.1-1.41.3l-9.1,4.07-11.45,5.13-12.5,5.61Z"/>
  <path class="cls-1" d="M271.28,373.83c1.74.77,3.77,0,4.54-1.74.2-.44.3-.92.3-1.41v-91.2c0-1.35-.77-2.58-2-3.14l-19.12-8.48-14.07-6.26-8.24-3.6-11.46-5.09-17.06-7.58-8.12-3.61-3.33-1.48-10.72-4.82-3.22-1.42-11.46-5.09-14.56-6.47-11.46-5.09-8.75-3.89c-1.73-.77-3.76,0-4.53,1.73-.2.44-.3.92-.3,1.41v91.2c0,1.35.77,2.58,2,3.14l91.47,40.64,19.82,8.81,30.27,13.44Z"/>
  <path class="cls-1" d="M167.32,155.91l-9.73-4.32c-1.73-.77-3.76,0-4.53,1.73-.2.44-.3.92-.3,1.41v52.94c0,1.35.78,2.57,2,3.14l12.52,5.56,11.46,5.09,13.94,6.19,3.31,1.48,8.14,3.62,5.93,2.63,15.48,6.88c.89.39,1.91.39,2.8,0l19.45-8.71,14.06-6.29,25.83-11.57c1.73-.77,2.51-2.8,1.74-4.53-.34-.78-.97-1.4-1.74-1.74l-9.81-4.42-14.07-6.25-51.72-23-14.08-6.2-19.22-8.55-11.46-5.09Z"/>
  <path class="cls-1" d="M192.42,97.66l-8.81-3.91c-1.73-.77-3.76,0-4.53,1.73-.2.44-.3.92-.3,1.41v49.34c0,1.35.77,2.58,2,3.14l29.84,13.26c.89.4,1.91.4,2.8,0l22.65-10.14,11.7-5.24,13.26-5.93,9.22-4.13c1.36-.61,1.97-2.21,1.36-3.57-.27-.61-.76-1.09-1.36-1.36l-39.25-17.48-14.08-6.25-13.92-6.17-10.58-4.7Z"/>
  <path class="cls-1" d="M212.82,94.19l16.71,7.42c.89.4,1.91.4,2.8,0l50.26-22.5c1.73-.8,2.49-2.85,1.69-4.58-.07-.15-.15-.29-.23-.42l-29.51-44.23c-1.05-1.58-3.19-2.01-4.77-.95-.4.27-.74.62-1,1.02l-37.46,59.26c-1.01,1.61-.53,3.73,1.07,4.75.14.09.29.17.44.23Z"/>
  <path class="cls-1" d="M42.66,413.54c-2.46-.15-4.91.48-7,1.79-1.69,1.24-2.63,3.26-2.49,5.35,0,2.19,1.21,4.12,3.62,5.77,3.01,1.96,6.24,3.55,9.62,4.74,2.93,1.03,5.73,2.4,8.35,4.08,2.4,1.63,4.38,3.8,5.78,6.34,1.64,3.15,2.43,6.68,2.3,10.23.02,3.49-.94,6.92-2.77,9.9-1.94,3.14-4.74,5.66-8.07,7.26-3.99,1.87-8.36,2.79-12.77,2.68-4.16,0-8.31-.62-12.29-1.83-4.07-1.22-7.91-3.11-11.36-5.59l6-10.61c2.5,1.83,5.25,3.28,8.16,4.32,2.64,1.03,5.43,1.59,8.26,1.66,2.62.06,5.21-.57,7.51-1.83,2.14-1.21,3.38-3.55,3.19-6,0-3.57-3.33-6.66-10-9.29-3.4-1.3-6.72-2.81-9.94-4.51-2.71-1.51-5.04-3.63-6.8-6.19-2-2.99-3.01-6.54-2.87-10.14,0-5.94,1.96-10.73,5.87-14.36s9.12-5.61,15.63-5.92c4.35-.11,8.69.48,12.86,1.74,3.53,1.21,6.89,2.87,10,4.93l-5.16,10.42c-5.98-3.29-11.19-4.94-15.63-4.94Z"/>
  <path class="cls-1" d="M139.81,399v71.9h-13.62v-32.9l-22.52,32h-.19l-21.68-30v30.88h-13.15v-71.88h.1l35,49.66,35.87-49.66h.19Z"/>
  <path class="cls-1" d="M186.17,457.38h-22.9l-5.63,13.51h-13.42l31.16-71.8h.75l31.16,71.8h-15.77l-5.35-13.51ZM181.67,445.93l-6.67-16.8-6.94,16.8h13.61Z"/>
  <path class="cls-1" d="M225.31,401.81v55.94h32.48v13.14h-46.09v-69.08h13.61Z"/>
  <path class="cls-1" d="M278,401.81v55.94h32.48v13.14h-46.12v-69.08h13.64Z"/>
  <path class="cls-2" d="M354.28,470.89l-14.55-22h-9.1v22h-13.63v-69.08h21c8.57,0,15.22,2.08,19.95,6.24,4.73,4.16,7.09,9.83,7.08,17,.03,4.15-.88,8.25-2.67,12-1.76,3.7-4.63,6.77-8.21,8.77l16,25.06h-15.87ZM330.63,435.79h9.67c3.69,0,6.38-1.08,8.07-3.24,1.62-1.97,2.52-4.45,2.53-7-.02-2.55-.76-5.04-2.15-7.18-1.44-2.29-4.23-3.44-8.36-3.43h-9.76v20.85Z"/>
  <path class="cls-2" d="M431.35,401.81l-25.91,47.59v21.49h-13.61v-21.49l-25.44-47.59h16.8l15.87,31.91,15.48-31.91h16.81Z"/>
  <path class="cls-2" d="M483.16,401.81v13.19h-33.51v14.74h29.66v13.14h-29.66v14.92h34.82v13.14h-48.47v-69.13h47.16Z"/>
  <path class="cls-2" d="M292.76,87.11l-40.76,18.23c-1.73.78-2.51,2.81-1.74,4.54.35.77.96,1.39,1.74,1.74l30.42,13.51,6,2.67c.89.4,1.91.4,2.8,0l16.33-7.31,6.86-3.07c1.22-.57,2-1.79,2-3.14v-32.49c0-1.9-1.54-3.44-3.44-3.44-.48,0-.96.1-1.4.3l-8.28,3.71-10.53,4.75Z"/>
  <path class="cls-2" d="M287.57,320.6v1.11c0,1.89,1.53,3.43,3.43,3.43.49,0,.97-.1,1.41-.3l2.35-1,17.85-8,55.75-25c1.23-.56,2.01-1.79,2-3.14v-91.17c0-1.9-1.54-3.44-3.44-3.44-.49,0-.97.1-1.41.3l-12.21,5.47-11.42,5.14-3.25,1.45-11.45,5.13-14.57,6.52-11.45,5.13-25.16,11.27-14,6.3-13.91,6.2c-1.73.78-2.51,2.81-1.74,4.54.35.77.96,1.39,1.74,1.74l6.87,3.05,14.04,6.24,16.5,7.33c1.23.56,2.01,1.79,2,3.14v48.56h.07Z"/>
  <path class="cls-2" d="M303.94,134.68l-14.06,6.32-22.95,10.27-20.93,9.33-12.86,5.76c-1.73.78-2.51,2.81-1.74,4.54.35.77.96,1.39,1.74,1.74l44.67,19.85,14.07,6.25,15.48,6.88c.89.4,1.91.4,2.8,0l17-7.6,11.45-5.13,1.22-.55c1.22-.56,2.01-1.78,2-3.13v-66.21c0-1.89-1.53-3.43-3.43-3.43-.49,0-.97.1-1.41.3l-9.1,4.07-11.45,5.13-12.5,5.61Z"/>
  <path class="cls-1" d="M271.28,373.83c1.74.77,3.77,0,4.54-1.74.2-.44.3-.92.3-1.41v-91.2c0-1.35-.77-2.58-2-3.14l-19.12-8.48-14.07-6.26-8.24-3.6-11.46-5.09-17.06-7.58-8.12-3.61-3.33-1.48-10.72-4.82-3.22-1.42-11.46-5.09-14.56-6.47-11.46-5.09-8.75-3.89c-1.73-.77-3.76,0-4.53,1.73-.2.44-.3.92-.3,1.41v91.2c0,1.35.77,2.58,2,3.14l91.47,40.64,19.82,8.81,30.27,13.44Z"/>
  <path class="cls-1" d="M167.32,155.91l-9.73-4.32c-1.73-.77-3.76,0-4.53,1.73-.2.44-.3.92-.3,1.41v52.94c0,1.35.78,2.57,2,3.14l12.52,5.56,11.46,5.09,13.94,6.19,3.31,1.48,8.14,3.62,5.93,2.63,15.48,6.88c.89.39,1.91.39,2.8,0l19.45-8.71,14.06-6.29,25.83-11.57c1.73-.77,2.51-2.8,1.74-4.53-.34-.78-.97-1.4-1.74-1.74l-9.81-4.42-14.07-6.25-51.72-23-14.08-6.2-19.22-8.55-11.46-5.09Z"/>
  <path class="cls-1" d="M192.42,97.66l-8.81-3.91c-1.73-.77-3.76,0-4.53,1.73-.2.44-.3.92-.3,1.41v49.34c0,1.35.77,2.58,2,3.14l29.84,13.26c.89.4,1.91.4,2.8,0l22.65-10.14,11.7-5.24,13.26-5.93,9.22-4.13c1.36-.61,1.97-2.21,1.36-3.57-.27-.61-.76-1.09-1.36-1.36l-39.25-17.48-14.08-6.25-13.92-6.17-10.58-4.7Z"/>
  <path class="cls-1" d="M212.82,94.19l16.71,7.42c.89.4,1.91.4,2.8,0l50.26-22.5c1.73-.8,2.49-2.85,1.69-4.58-.07-.15-.15-.29-.23-.42l-29.51-44.23c-1.05-1.58-3.19-2.01-4.77-.95-.4.27-.74.62-1,1.02l-37.46,59.26c-1.01,1.61-.53,3.73,1.07,4.75.14.09.29.17.44.23Z"/>
  <path class="cls-1" d="M42.66,413.54c-2.46-.15-4.91.48-7,1.79-1.69,1.24-2.63,3.26-2.49,5.35,0,2.19,1.21,4.12,3.62,5.77,3.01,1.96,6.24,3.55,9.62,4.74,2.93,1.03,5.73,2.4,8.35,4.08,2.4,1.63,4.38,3.8,5.78,6.34,1.64,3.15,2.43,6.68,2.3,10.23.02,3.49-.94,6.92-2.77,9.9-1.94,3.14-4.74,5.66-8.07,7.26-3.99,1.87-8.36,2.79-12.77,2.68-4.16,0-8.31-.62-12.29-1.83-4.07-1.22-7.91-3.11-11.36-5.59l6-10.61c2.5,1.83,5.25,3.28,8.16,4.32,2.64,1.03,5.43,1.59,8.26,1.66,2.62.06,5.21-.57,7.51-1.83,2.14-1.21,3.38-3.55,3.19-6,0-3.57-3.33-6.66-10-9.29-3.4-1.3-6.72-2.81-9.94-4.51-2.71-1.51-5.04-3.63-6.8-6.19-2-2.99-3.01-6.54-2.87-10.14,0-5.94,1.96-10.73,5.87-14.36s9.12-5.61,15.63-5.92c4.35-.11,8.69.48,12.86,1.74,3.53,1.21,6.89,2.87,10,4.93l-5.16,10.42c-5.98-3.29-11.19-4.94-15.63-4.94Z"/>
  <path class="cls-1" d="M139.81,399v71.9h-13.62v-32.9l-22.52,32h-.19l-21.68-30v30.88h-13.15v-71.88h.1l35,49.66,35.87-49.66h.19Z"/>
  <path class="cls-1" d="M186.17,457.38h-22.9l-5.63,13.51h-13.42l31.16-71.8h.75l31.16,71.8h-15.77l-5.35-13.51ZM181.67,445.93l-6.67-16.8-6.94,16.8h13.61Z"/>
  <path class="cls-1" d="M225.31,401.81v55.94h32.48v13.14h-46.09v-69.08h13.61Z"/>
  <path class="cls-1" d="M278,401.81v55.94h32.48v13.14h-46.12v-69.08h13.64Z"/>
  <path class="cls-2" d="M354.28,470.89l-14.55-22h-9.1v22h-13.63v-69.08h21c8.57,0,15.22,2.08,19.95,6.24,4.73,4.16,7.09,9.83,7.08,17,.03,4.15-.88,8.25-2.67,12-1.76,3.7-4.63,6.77-8.21,8.77l16,25.06h-15.87ZM330.63,435.79h9.67c3.69,0,6.38-1.08,8.07-3.24,1.62-1.97,2.52-4.45,2.53-7-.02-2.55-.76-5.04-2.15-7.18-1.44-2.29-4.23-3.44-8.36-3.43h-9.76v20.85Z"/>
  <path class="cls-2" d="M431.35,401.81l-25.91,47.59v21.49h-13.61v-21.49l-25.44-47.59h16.8l15.87,31.91,15.48-31.91h16.81Z"/>
  <path class="cls-2" d="M483.16,401.81v13.19h-33.51v14.74h29.66v13.14h-29.66v14.92h34.82v13.14h-48.47v-69.13h47.16Z"/>
</svg>