<?xml version="1.0" encoding="UTF-8"?>
<svg id="artwork" xmlns="http://www.w3.org/2000/svg" viewBox="0 0 1024 1024">
  <defs>
    <style>
      .cls-1 {
        fill: #fff;
      }

      .cls-2 {
        fill: #ff6500;
      }
    </style>
  </defs>
  <rect class="cls-1" x="1" y="1" width="1022" height="1022"/>
  <g>
    <path class="cls-2" d="M566.84,512h0c0-221.39-179.47-400.86-400.86-400.86v109.68c160.56,0,291.18,130.62,291.18,291.18h0c0,221.39,179.47,400.86,400.86,400.86v-109.68c-160.56,0-291.18-130.63-291.18-291.18Z"/>
    <path class="cls-2" d="M436.76,618.86c-42.7,107.82-147.94,184.32-270.78,184.32v109.68c134.26,0,253.02-66.07,325.77-167.41-24.64-38.52-43.44-81.11-54.99-126.59Z"/>
    <path class="cls-2" d="M587.24,405.14c42.7-107.82,147.94-184.32,270.78-184.32v-109.68c-134.26,0-253.02,66.07-325.77,167.41,24.64,38.52,43.44,81.11,54.99,126.59Z"/>
  </g>
</svg>