<?xml version="1.0" encoding="UTF-8"?>
<svg id="Layer_1" data-name="Layer 1" xmlns="http://www.w3.org/2000/svg" viewBox="0 0 256 256">
  <defs>
    <style>
      .cls-1 {
        fill: #243446;
      }
    </style>
  </defs>
  <path class="cls-1" d="M251.74,62.35c-.8.75-1.53,1.21-.2-.64.04-.02.06-.04.09-.06-.28-1.75-.59-3.46-.95-5.08-.4-1.81-.9-3.55-1.46-5.24-.34-.23-.75-.52-1.31-.47.1-.53.43-.82.8-.95-.69-1.94-1.5-3.8-2.38-5.6-.69.57-2.14.37-3.24.52.16-1.19,1.61-1.1,2.9-1.15-11.61-22.73-38.1-33.75-65.41-35.1-9.96-.49-18.72.38-27.09,2.43.1.02.18.03.29.04-.38,3.44-6.38.42-2.42,4.82-.95,2.77-4.22-2.08-6.04-2.41-1.31.3-.82,2.4-2.41,2.41.61,1.53,8.18.8,8.45,6.03-2.87-1.96-6.94-2.71-9.65-4.82-2.47.87-4.78,3.78-7.24,1.21.04-.27.16-.45.3-.61-1.85.85-3.72,1.76-5.61,2.73.4.26.91.41,1.69.29-1.02,1.79-3.89,1.74-6.03,2.41-.13-.06-.24-.14-.33-.24-2.67,1.46-5.38,2.99-8.18,4.65-.2.23-.51.4-.77.46-.61.36-1.23.74-1.84,1.11.09.01.16.05.26.05-.23.98-1.21,1.2-1.21,2.41-.68-.16-1.01-.67-1.55-.97-2.4,1.46-4.89,3.01-7.42,4.6.22-.08.42-.1.52,0,.62.62-.87,1.54-1.21,1.21-.28-.28-.13-.61.15-.87-1.02.64-2.03,1.27-3.08,1.93-.31.19-.59.37-.89.56.89-.05,2.05-.19,3.82-.42-.65,1.62-3.87,2.69-6.44,2.07-3.07,1.96-5.95,3.83-8.67,5.64-.57.51-1.12.91-1.73,1.15-.81.55-1.6,1.09-2.38,1.63.63.67,1.39,1.2,2.32,1.56-1.11,2.36-4.3,2.65-6.43,1.32-.26.18-.53.38-.79.56.3.43.36,1.01-.02,1.74-.57-.48-.95-.71-1.25-.8-10.4,7.63-18.77,15.17-28.04,25.47.73.4,1.56.71,2.74.67-.04,4.82-2.51,3.09-5.59,2.56-1.5,1.73-3.03,3.5-4.61,5.39-6.68,8-10.92,14.94-10.92,14.94C4.03,138.16-8.26,186.63,12.24,218.75c11.4,17.87,48.69,32.33,77.08,28.08,7-1.05,15.95-2.58,25.37-4.63.06-.09.16-.14.19-.24.18,0,.29.07.42.11,13.37-2.93,27.62-6.9,38.64-12.09,17.44-8.2,29.73-22.58,42.84-36.52,0-.47.19-.96.52-1.34.15.1.32.18.51.25,3.98-4.21,8.06-8.36,12.39-12.28-.19-.09-.37-.2-.52-.35-.92.49-2.04.78-3.59.65-.41-.84-.71-.98-.33-1.95-.53-.99-1.65-1.39-2.6-1.95-.14-1.12.13-1.83.33-2.61.08-1.49-1.48-1.35-1.31-2.93.74-.24,1.67-.29,2.28-.66.29-.67-.84-1.46-.97-.65-.72-1.16,1.09-2.59,1.3-3.91.79-.13.71.6,1.63.33,1.2-.21,1.62-1.2,2.28-1.95,1.52.22,4.14-.66,4.23.97.76-.54,1.38-1.23,2.28-1.63.68.19.69.51.33.98.34.85,1.33,1.06,2.61.97.27.38.43.88.32,1.63.25.72,1.14.81,1.63,1.3-.19,1.51,1.32,1.32,1.59,2.35,3.76-2.99,7.12-5.92,10.12-8.84-.44-.35-.44-.96.41-1.18.2-.05.48,0,.73.04,16.5-16.53,21.44-32.61,21.01-54.47-.3-15.35-.3-31.14-2.23-43.88ZM3.47,172.89c.05-1.47,1.85-1.2,1.95-2.61,3.26.28.43,4.35-1.95,2.61ZM224.67,137.71c-.83-.03-.77-1.21-.33-1.62h.98c.27,1.04-.29,1.24-.65,1.62ZM224.67,60.83c-.73.63-2.34.18-2.28-.98.66-.56,2.78-.61,2.28.98ZM224.34,90.47c-.17-.17.23-.42.33-.33.17.17-.24.42-.33.33ZM222.58,96.7c-.03,1.17-1.47.94-2.41,1.21.03-1.18,1.48-.94,2.41-1.21ZM224.99,153.42c-.03,1.17-1.48.94-2.41,1.21.03-1.17,1.48-.93,2.41-1.21ZM220.16,24.3c3.91,1.49.93-3.91,4.83-2.42-1.24,6.9-6.11,3.52-9.66,1.21,1.19-3.7,3.22,1.39,4.83,1.21ZM216.85,19.79c-1.3.1-2.41.02-2.93-.65.23-2.15,4.09-1.19,2.93.65ZM206.89,46.02c-.03,1.17-1.47.93-2.41,1.21.04-1.17,1.48-.94,2.41-1.21ZM203.27,43.6c.62.62-.87,1.54-1.21,1.21-.62-.63.87-1.55,1.21-1.21ZM198.93,29.56c2.03-.08,3.43.48,3.58,2.28-.94.42-2.31.42-3.26,0-.1-.76-.51-1.22-.32-2.28ZM196.03,36.36c.63.62-.87,1.54-1.21,1.21-.62-.62.87-1.54,1.21-1.21ZM191.11,37.7c.17.16-.24.41-.33.32-.17-.17.24-.42.33-.32ZM182.75,33.95c-.54,1.75-1.06-.12-2.41,0,.3-1.52,2.4-1.22,2.41,0ZM179.13,15.85c.62.62-.87,1.54-1.21,1.21-.63-.63.87-1.54,1.21-1.21ZM177.93,32.74c-.04,1.18-1.48.94-2.41,1.21.03-1.17,1.48-.94,2.41-1.21ZM174.31,31.53c-.23,1.37-1.22.67-1.21,0,.23-1.37,1.22-.67,1.21,0ZM173.1,12.23c.63.62-.87,1.54-1.2,1.21-.62-.62.87-1.54,1.2-1.21ZM169.48,19.47c-2.85,3.88-4.88-4.24,0,0h0ZM168.27,24.3c-.63-.63.87-1.54,1.21-1.21.62.62-.88,1.54-1.21,1.21ZM168.27,30.33c-2.85,3.88-4.88-4.24,0,0h0ZM163.44,23.09c.63.62-.87,1.54-1.2,1.21-.62-.63.87-1.54,1.2-1.21ZM159.82,17.06c.04-1.17,1.47-.93,2.42-1.21-.03,1.17-1.48.93-2.42,1.21ZM161.03,9.81c-.04,1.17-1.48.94-2.41,1.21.03-1.18,1.48-.94,2.41-1.21ZM159.82,19.47c.62.62-.87,1.54-1.2,1.21-.63-.63.87-1.55,1.2-1.21ZM158.62,30.33c.62.62-.88,1.54-1.21,1.2-.62-.62.87-1.54,1.21-1.2ZM156.2,24.3c.03-1.18,1.47-.94,2.42-1.21-.03,1.17-1.48.94-2.42,1.21ZM157.41,11.02c.62.62-.87,1.54-1.21,1.2-.62-.62.87-1.54,1.21-1.2ZM152.67,13.92c.42.15.75.4,1.03.68.03.01.07.01.09.04.07.07.1.14.13.22.43.58.67,1.34.71,2.32-1.01-.3-1.79-.81-2.61-1.3-.08-.95.74-1,.65-1.95ZM146.55,21.88c.62.62-.87,1.54-1.21,1.21-.62-.62.88-1.54,1.21-1.21ZM147.76,29.12c-.04,1.17-1.48.93-2.42,1.21.03-1.17,1.48-.94,2.42-1.21ZM145.34,25.5c4.05-2.91-2.91,4.05,0,0h0ZM139.64,21.09c0,.32-.4.25-.65.33,0-.32.4-.25.65-.33ZM139.31,23.09c-1.25,1-2.18-1.07-2.41-1.21-4.65-2.69,3.25.54,2.41,1.21ZM134.48,20.68c.63.62-.87,1.54-1.2,1.2-.63-.62.87-1.54,1.2-1.2ZM129.66,25.5c1.17.03.93,1.48,1.21,2.42,1.95.33,2.08-1.15,3.62-1.21-.89-1.13-2.19-1.83-3.62-2.41,1.95-3.77,3.82,2.47,6.03,2.41-2.83,3.21-13.82,3.32-18.1,1.21,1.68-5.17,8.78.56,10.86-2.42ZM117.59,31.53c.62.62-.87,1.54-1.21,1.21-.62-.62.88-1.54,1.21-1.21ZM113.97,37.57c1.58.42,1.9,2.12,3.62,2.41.22,1.03-.47,1.14-1.21,1.21h-2.41v-3.62ZM112.76,43.6c-.97-.64-1.96-1.26-3.62-1.21.37-3.32,4.19-2.54,3.62,1.21ZM111.55,35.15c-1.03,3.54-3.04-1.57-6.04,0,.31-2.82,5.3-.69,6.04,0ZM105.52,39.98c.24-.03,1.29-1.82,2.42-1.21,3.97,2.18-10.53,2.42-2.42,1.21ZM92.24,53.26c-.03,1.18-1.48.93-2.41,1.2.03-1.17,1.48-.93,2.41-1.2ZM86.21,53.26c-.03,1.18-1.48.93-2.41,1.2.03-1.17,1.48-.93,2.41-1.2ZM79.05,55.62c.9-.48,1.66.18,2.93-.33.95.69,2.88.38,2.93,1.96-.8.29-1.41.76-2.61.65-.67.5-1.91,1.51-2.93.65-.05-.81-.06-1.58.65-1.63.09-.86-1.27-.26-.98-1.31ZM78.97,61.7c-.23,1.37-1.21.67-1.21,0,.23-1.37,1.21-.67,1.21,0ZM70.52,60.5c1.78.62,3.04,1.78,4.83,2.41.6,1.58-5.99.53-4.83-2.41ZM68.95,62.79c-.99.01-2.14.19-1.96-.98.75-.71,2.03-.12,1.96.98ZM66.9,70.15c1.49-.86,2.65-1.26,1.2,0-1.4,1.23-2.86.96-1.2,0ZM66.9,79.81c-.03,1.17-1.48.94-2.41,1.21.03-1.17,1.48-.94,2.41-1.21ZM62.07,76.19c.63.62-.87,1.54-1.21,1.21-.62-.63.88-1.55,1.21-1.21ZM58.2,86.24c-1.28-.08-2.7.96-2.93-.65.59-.42,3.24-.82,2.93.65ZM54.83,84.64c-.18,3-4.08.35-4.82,0,.18-3,4.08-.36,4.82,0ZM46.39,97.91c-.14,2.27-3.99.84-3.62,3.62-.98-.23-1.2-1.21-2.41-1.21v-2.41c2.3-2.27,2.18.71,6.03,0ZM40.35,103.94c-.63-.62.87-1.54,1.2-1.21.63.62-.87,1.54-1.2,1.21ZM40.35,95.49c-.54,1.75-1.06-.12-2.41,0,.3-1.52,2.4-1.21,2.41,0ZM39.15,100.32c-.38,1.64-3.02,1-4.83,1.21.34-2.8,3.22-2.78,4.83-1.21ZM29.49,114.8c-.03,1.17-1.48.94-2.41,1.21.03-1.17,1.48-.94,2.41-1.21ZM19.76,221.76c-.44.32-.65.87-.98,1.3-.94-.35-1.08-.99-.65-1.96,1.05-.07,1.38.58,2.6.32-.18.68-.51.69-.97.33ZM19.76,215.24c.76-.1,1.25.05,1.63.33-.03.97-1.94.87-1.63-.33ZM21.39,224.36h1.95c.42,1.96-2.19,1.42-1.95,0ZM21.39,198.63v-.66c.65-.11,1.02.07.98.66h-.98ZM26.6,228.92c-1.59.32-.6-1.74,0-.66v.66ZM26.28,221.43c.17.17-.24.42-.33.33-.17-.17.23-.42.33-.33ZM30.51,228.59v-.97c.68-.14.86.22,1.3.32-.08.57-.56.74-1.3.65ZM37.03,228.92c-.58.04-.69-.4-1.31-.33v-1.63c1.22-.03.93-.36,1.96,0,.16,1.02-.46,1.27-.65,1.95ZM38.33,218.83c-.5-1.59,1.62-1.55,2.28-.98.21,1.3-1.24.93-2.28.98ZM50.71,238.69c.06-.26.33-.32.33-.65h.65c.15.69-.47.62-.98.65ZM55.27,234.46c-.38-.05-.58.07-.65.33-.83-.03-.76-1.21-.32-1.63.47.28,1.26.26.98,1.3ZM58.2,231.2c-2.05.2-2.53-1.17-3.91-1.63-.04-.8-.05-1.57.32-1.95,1.8-.4,1.14,1.69,2.61,1.63,1.06-.45,1.54-1.49,2.28-2.28.99.1,1.33,1.84.65,2.61-.79.58-2.49-.76-1.95,1.63ZM58.85,238.69h-1.63c-.6-.7-.87-1.73-.98-2.93.58.04.69-.4,1.3-.33.35-1.22-.81-.93-.65-1.95,1.06-.59,2.21-2.62,3.58-.98.21,1.95-.3,3.18-.33,4.89-1.03.16-1.15-.58-2.28-.32-.35,1.21,1.22.52.98,1.63ZM60.48,244.88c-.48-.94-.91-1.92,0-2.6,1,.62,1.7,1.55,2.61,2.28-.22,1.19-1.3-.07-2.61.32ZM62.44,233.16c.15,1.02-.28,1.45-1.31,1.3v-1.3h1.31ZM61.46,228.92c1.2.99-.99,1.1,0,0h0ZM61.78,240.32c1.11-.14,1.86.1,1.63,1.3-.81.77-2.04.13-1.63-1.3ZM63.09,236.41c-.17-.17.23-.41.32-.32.17.16-.23.41-.32.32ZM63.74,236.41c-.06-1.14,1.1-1.07,1.31-1.96,1.19.49,1.59,1.95.65,2.93-1.26.28-1.16-.8-1.95-.98ZM65.69,244.56c-.68-.65,0-1.39.65-1.64-.1-.76-1.13-.6-.98-1.63,1.43-.34,1.07,1.1,2.29.98-.4,1-.72,2.1-1.96,2.28ZM73.19,237.72c-.85.09-1.4-.12-1.31-.98.85-.09,1.63-.11,1.31.98ZM80.35,240.65c.47-2.97-3.94-1.06-3.26-4.23,3.37-.55,4.81.84,5.21,3.26-.8.18-.7,1.26-1.95.97ZM84.26,234.13c-.65.33-.52,1.44-1.63,1.3-.27-1.03-1.04-1.56-1.63-2.28.14-2.53,3.61-2.22,4.56-.65-.02.96-.74,1.22-1.3,1.63ZM90.12,238.37c-.68.14-.86-.22-1.3-.33.17-.26.34-.53.33-.98h.98v1.3ZM90.45,244.56c-.17-.17.23-.42.33-.33.16.16-.24.42-.33.33ZM90.45,217.85c.48-.17.82-.48,1.3-.65,1.02-.15.92.82,1.31,1.3,1.32-.23,1.86.31,1.63,1.63-1.06.03-2,.17-2.61.66-.91-.61-1.26-1.78-1.63-2.93ZM93.71,228.59c-.38.28-.87.43-1.63.33-.44-.42-.44-1.54,0-1.95h1.3c-.13.79.6.7.33,1.63ZM95.67,238.69c-.68.14-.86-.22-1.31-.32.06-.94,1.55-.79,1.31.32ZM97.29,237.39c.06-.37.33-.18.33,0-.06.37-.33.18-.33,0ZM106.42,240.65c-1.67.26-2.37-.45-3.91-.32-.49-1.46-2.3-1.61-2.6-3.26,1.7-1.42,4.27.01,6.84-.33.82,1.45-.48,2.2-.32,3.91ZM102.18,217.19c.38-.38,1.15-.37,1.95-.32-.57.62-.38,2-1.63,1.95-.27-.38-.43-.88-.32-1.63ZM104.78,224.69v-.65c.28.06.31-.13.33-.33.63-.13.48,1.49-.33.98ZM108.37,237.39c.05-.38.59-.27.98-.32-.05.38-.59.27-.98.32ZM108.04,217.52c.01-.31.4-.25.65-.32,0,.31-.39.25-.65.32ZM110.32,238.69v-.65c.69-.16.62.46.65.98-.26-.06-.32-.33-.65-.33ZM110.32,221.11h1.3c.38,1.13-1.82,1.51-1.3,0ZM113.25,220.78c-1.24-.06-2.14-.46-2.28-1.63,1.16-.91,2.52.14,2.28,1.63ZM117.81,216.87c-1.23.28-1.15-1.46-.65-1.96,1.23-.28,1.15,1.46.65,1.96ZM118.47,214.91c-.89,0-.78-1.53-.33-1.95.76-.1,1.25.05,1.63.33.14,1.12-.97.98-1.3,1.63ZM119.44,230.55c1.22-.13,1.92.26,1.96,1.31-.85.75-2.21.03-1.96-1.31ZM122.7,222.4c-.85.09-1.4-.12-1.3-.98.27.06.31-.13.32-.32.86-.1,1.07.45.98,1.3ZM124.33,226.97c-1.25-.18-1.77-1.27-1.3-2.28,1.27.03,2.21.4,1.95,1.96-.38-.05-.58.07-.65.33ZM126.61,230.22c-.72-.04-.14-1.38-.33-1.96,1.16.28.04.8.33,1.96ZM125.64,223.06v-.98h.97v.98h-.97ZM127.26,210.68c-.17-.17.24-.41.33-.32.17.16-.24.41-.33.32ZM127.92,233.16c1.17-.09,2.25-.08,1.95,1.3-.5.41-2.3.13-1.95-1.3ZM130.2,215.57c.85-.09,1.4.12,1.3.98-.61.64-1.57.18-1.3-.98ZM131.82,233.16c-.3-1.88,1.48-3.05,2.61-1.63.31,1.65-1.39,2.52-2.61,1.63ZM132.15,222.4c.37-.27.87-.43,1.63-.33.55,1.55-1.88,1.8-1.63.33ZM137.68,235.11h-.65v-.65h.65v.65ZM138.01,233.48h-.98v-.98h.98v.98ZM143.22,192.76c.01-.32.4-.25.65-.33,0,.32-.4.25-.65.33ZM145.5,207.42h-.65v-.66h.65v.66ZM152.02,190.81c-1.21.22-.81-1.15-1.3-1.63-.88-.53-.48-1.03,0-1.63.86.58,2.01,2.14,1.3,3.26ZM150.39,183.97c.83.04,1.26.47,1.3,1.3-1.28.33-1.89-.72-1.3-1.3ZM157.56,186.57h-1.31c.28-.47.49-1.03,1.31-.98v.98ZM157.23,188.53c-.17-.17.23-.42.33-.32.17.16-.24.41-.33.32ZM160.17,203.52c-2.01-.24-4.44-1.18-3.26-3.59,1.37-.04,1.82.59,2.93,0,.78.47.94,2.74.33,3.59ZM157.89,185.59v-1.3c.85-.69,2.88-.47,2.28,1.3h-2.28ZM161.79,202.86c.06-.37.32-.18.32,0-.06.37-.32.18-.32,0ZM161.46,182.01c1.36-.17,1.57.82,1.63,1.96-.69-.51-2.02-.37-1.63-1.96ZM161.03,171.52c.03-1.17,1.47-.94,2.41-1.21-.03,1.17-1.47.94-2.41,1.21ZM162.77,176.8c-.88-1.44.97-3.43,2.61-2.28.18,1.8-.66,2.6-2.61,2.28ZM164.65,172.73c.03-1.17,1.47-.94,2.41-1.21-.03,1.17-1.48.93-2.41,1.21ZM167.66,191.78c-.34.02-.69.47-1.3.33-.8-.18-1.48-.84-1.95-1.3.17-1.24,1.39-1.43,2.6-1.63-.26,1.13.49,1.25.32,2.28,1.01.24.63-.89,1.63-.65-.05.38.07.58.32.65.13,1.06-.91.28-1.63.33ZM169.94,185.59c-1.07-.02-1.24-.92-2.61-.65.15-2-2.39-1.3-1.63-3.91.2-.45,1.25-.05,1.3-.65,1.1.31,1,1.83,1.63,2.61,2.38-.96,2.72,1.76,5.21,1.63.1,1.73-2.56.7-3.91.98ZM172.87,172.56c-.11,1.2.28,2.89-.33,3.58-1.52.22-2.1-.51-3.26-.65v-1.63c-.09-.67-1.44-.07-1.3-.98-.16-3.01,3.78-.87,4.89-.33ZM172.54,167.68c.76-.1,1.26.05,1.63.33.01.99-.69,1.27-.98,1.95-1.04-.29-1.11-1.3-.65-2.28ZM172.87,178.76c-.77-1.01-.21-2.86,1.63-2.28.14,1.44-.54,2.06-1.63,2.28ZM175.8,193.09h-.97c-.14-.68.22-.87.32-1.31.57.08.74.56.65,1.31ZM175.15,169.63c-.57-.74.94-3.12,2.28-1.96.06,1.48-.97,1.86-2.28,1.96ZM179.71,191.13c-.57-.08-.74-.56-.65-1.3h.97c.14.69-.22.86-.32,1.3ZM180.69,178.1c-.17-.17.23-.42.33-.32.17.17-.23.41-.33.32ZM179.64,174.9c.14.07.27.15.39.27.08,1.16-.47,1.7-1.63,1.63-.99-.97.1-2.32,1.14-1.94-2.06-.89-1.96-3.46,4.41-.92-1.64,1.37-3.24,1.39-4.32.96ZM178.41,169.96c.26-.17.53-.34.98-.32,1.1.64,2.47,1.01,2.6,2.61-2.09.14-3.08-.83-3.58-2.28ZM181.55,169.11c.3-1.52,2.4-1.22,2.41,0-.54,1.75-1.06-.12-2.41,0ZM182.75,159.46c-.62-.62.87-1.55,1.21-1.21.62.63-.87,1.54-1.21,1.21ZM186.23,178.43v-.65c.65-.11,1.02.06.97.65h-.97ZM186.38,170.31c-.62-.63.87-1.54,1.21-1.21.62.62-.88,1.54-1.21,1.21ZM186.38,161.87c-.62-.63.87-1.54,1.21-1.21.62.62-.88,1.54-1.21,1.21ZM188.83,199.61c-.64-.23-.87-.87-.98-1.63.43-.42,1.2-.42,1.63,0,.28,1.05-.51,1.01-.65,1.63ZM188.18,161.82c.06-.26.33-.33.32-.66h.65c.15.7-.46.62-.97.66ZM190.46,178.43c-.17-.16.23-.41.32-.32.17.17-.23.42-.32.32ZM193.62,167.9c-.63-.62.87-1.54,1.21-1.21.63.63-.88,1.54-1.21,1.21ZM194.82,171.52c-3.29-3.67,3.67,3.29,0,0h0ZM161.76,33.2c8.11.08,16.47-.02,23.39,2.98,14.63,6.33,24.1,16.46,26.32,22.16,11.33,31.04,4.16,57.78-12.93,83.08.39,0,.77-.02,1.12-.07-.12.85-.9,1.05-1.8,1.11-.01.02-.02.03-.04.05-5.39,3.63-10.78,8.79-16.79,13.89,0,.07,0,.13-.01.2-.16.14-.34.21-.52.25-2.1,1.77-4.29,3.52-6.58,5.19.37,0,.76-.03,1.17-.1.02-.04.03-.09.06-.13.05.03.11.06.16.09.07-.01.13-.02.2-.03,0,.05-.03.07-.05.12.87.53,1.8,1.66,1.31,2.43-.66-.28-1.54-.88-1.78-1.6-.3.22-.7.34-1.18.38.12.07.22.18.36.24-.53,2.06,1.59,1.45,1.63,2.94-.84.87-2.72-.57-1.63-1.63-1.32.15-1.75-.59-2.11-1.4-1.76,1.22-3.58,2.38-5.47,3.46-.76.82-1.89,1.76-1.26.7-2.45,1.31-5.01,2.5-7.74,3.47-.61.57-1.15.93-.77.25-.9.3-1.79.61-2.72.86-5.67,1.58-11.45,2.37-17,2.51.84,4.34.93,9.15.99,13.27.18,13-2.71,17.43-16.01,22-9.66,3.32-17.35,5.93-26.89,6.86-.21.02-.44.06-.66.08.15.16.23.39.16.71-.68.14-.86-.22-1.31-.32,0-.1.04-.18.07-.25-3.2.42-6.56,1.03-9.5.88-2.56-.13-5.08-.31-7.57-.52-.08.13-.18.06-.31-.03-5.68-.47-11.18-1.15-16.27-2.25-5.66-1.22-17.72-1.64-21.19-5.33-6.62-7.06-13.31-11.93-17.04-20.44-4.85-11.05-5.22-19.94-4.15-27.37,3.02-21.56,9.68-38.01,18.81-51.97-.94.12-1.98.13-3.11.05,1.02-1.18,2.62-1.79,4.5-2.12,2.93-2.7,6.2-6.55,9.96-10.34.06-.47.44-.78.94-.93h0c.46-.46.93-.91,1.41-1.36-.9-.42-1.71-.8-2.34-.94.53-1.02,1.87-.7,3.52-.12.35-.31.73-.58,1.08-.89-.66-.96-1.23-1.92-.51-3.46.8,0,1.35-.24,1.81-.59-.12-.43.48-.91.94-1.02.19-.31.35-.65.51-.99h2.93c1.12-1.08,2.11-.34,3.19.23,2.12-1.04,4.28-1.95,6.43-2.63-.11-2.26.22-4.81.52-6.93.67-4.95,1.92-7.68,5.86-11.04.05-.04.12-.09.17-.14,1.11-.93,2.39-1.91,3.97-3,3.66-2.55,6.97-4.83,10.53-7.02-.39.06-.79.1-1.14.2.03-1.17,1.48-.94,2.41-1.21,0,.15-.08.22-.13.33,1.7-1.01,3.46-2.01,5.37-2.99,2.63-1.36,5.61-3.16,8.27-4.27,6.91-2.88,14.26-5.77,21.58-8.1.67-.21,1.45-.48,2.29-.78-.88-3.27,1.72-3.04,1.23-5.91,2.28-.54,7.27,1.64,6.03-2.42,2.26-1.09,2.87,2.27,3.62,2.42.91.17,2.79-2,4.83-1.21.49.2-.64,1.73-1.21,1.21.25.22.62.38,1.03.53,1.88-.56,3.63-1,5.12-1.25.61-1.43,3.39-3,3.5-.49,1.17-.03.94-1.48,1.21-2.41,1.96-.22,1.86,1.61,2.41,2.8,2.16.03,4.35.05,6.55.07M210.65,125.98c-.17-.17.24-.42.33-.33.17.17-.23.41-.33.33ZM206.89,132.9c-.62-.62.88-1.54,1.21-1.2.62.62-.87,1.54-1.21,1.2ZM206.89,137.73c-.62-.62.88-1.55,1.21-1.21.62.63-.87,1.54-1.21,1.21ZM205.68,136.52c-.03,1.17-1.48.94-2.41,1.21.03-1.18,1.48-.94,2.41-1.21ZM198.44,158.25c-.63-.62.87-1.54,1.21-1.21.62.62-.87,1.54-1.21,1.21ZM200.86,146.18c-.62-.62.87-1.54,1.21-1.2.63.63-.87,1.54-1.21,1.2ZM204.47,141.35h2.41c.24,3.4-9.02-.33-2.41,0ZM208.7,152.37c.06-.37.33-.18.33,0-.06.37-.33.19-.33,0ZM211.31,156.28h-.65v-.65h.65v.65ZM211.96,152.69c-2.77-.03-4.86-2.8-3.59-4.89-.15-.65-.81-.79-1.48-.93-.3.42-1,.73-1.21.51-.27-.28-.13-.6.14-.86-.02,0-.04-.01-.06-.02-.13-1.34.34-2.06,1.63-1.96.03-1.22.36-.93,0-1.96,1.15.18,1.68-.28,1.95-.98.08,0,.14.02.21.03-.08-1.05.63-2.63.94-2.71,1.2-.27,2.07,2.42,2.42,2.42.31,0,4.59-4.36,1.2,0-.22,1.03.47,1.14,1.21,1.2-.05,1.69-1.02,1.09-2.08.27-.14,2.23,1.91,2.27,3.25,3.03.6,1.59-.63,1.83-.32,3.91-1.36,1.03-3.06,1.71-4.23,2.93ZM222.71,160.52c-.45-.1-.96-.16-1.45-.22-.34.34-.9.56-1.09.37-.18-.19-.17-.4-.07-.59-.57-.15-1.06-.38-1.29-.86-1.44-.16-1.62.45-2.61,0,.13-1.87-1.14-2.34-1.95-3.26.47-1.37,2.09-1.6,2.93-2.61h.65c1.5.02,2.11.93,3.25,1.3v.98c.61.61,1.73.85,2.61,1.3.67.36,1.98.58,1.95,1.63-1.33.3-2.63.62-2.93,1.96ZM226.2,161.87v-2.41c2.42-.41,3.77.24,3.62,2.41h-3.62ZM227.4,146.18c.04-1.17,1.48-.93,2.42-1.2-.04,1.17-1.48.94-2.42,1.2ZM228.61,157.04c-.62-.62.87-1.54,1.21-1.2.62.62-.87,1.54-1.21,1.2ZM225.64,82.98c1.13-.8,3.11-.8,4.23,0,.28,1.08-.11,1.84.33,3.25-1.72-.88-4.6-.61-4.56-3.25ZM229.87,30.21c.53-1.16,2.37-1.17,3.26-.33-.44,1.49.32,2.42-.65,3.58h-.97c-1.35-.28-1.63-1.63-1.63-3.26ZM232.16,80.05c-.53-.32-.75-.87-.33-1.3.75.09.75.87.33,1.3ZM231.02,154.63c-.63-.62.87-1.54,1.21-1.21.63.63-.87,1.55-1.21,1.21ZM232.23,157.04c.03-1.17,1.48-.94,2.41-1.2-.03,1.17-1.48.93-2.41,1.2ZM235.85,118.42c.63.62-.87,1.53-1.21,1.2-.62-.62.87-1.54,1.21-1.2ZM236.07,136.41c-.89.24-.66-.65-1.31-.65.1-.44.81-.27,1.31-.32v.98ZM235.85,100.32c-.63-.62.87-1.54,1.2-1.21.63.62-.87,1.54-1.2,1.21ZM238.02,95.36c-1.13-.39-1.78-1.26-3.26-1.31-.25-1.59-1.35-2.33-1.3-4.23,1.3-.53,4.56-.53,5.86,0,.23,1.13.22,2.31.33,4.23-.65.33-1.39.57-1.63,1.31ZM240.68,87.05c-.62-.63.88-1.54,1.21-1.21.62.62-.87,1.54-1.21,1.21ZM245.84,74.84c.14.68-.22.86-.33,1.31-.94-.06-.78-1.55.33-1.31ZM244.3,84.64c-.63-.63.88-1.55,1.21-1.21.62.62-.87,1.54-1.21,1.21ZM246.16,131.85c-.49.51-1.86.48-1.63-.65.48-.52,1.86-.48,1.63.65ZM246.71,62.91c-.62-.62.87-1.54,1.21-1.21.62.62-.87,1.54-1.21,1.21Z"/>
  <path class="cls-1" d="M210.59,141.97c.83.46,1.45,1.13,2.47.7-1.07-.84-2.17-1.77-2.47-.7Z"/>
  <path class="cls-1" d="M137.81,16.32c-.71.31-1.42.59-2.14.92.73-.14,1.66-.07,2.42-.18-.08-.23-.18-.48-.29-.74Z"/>
  <path class="cls-1" d="M133.64,55.55c-.66-.02-1.36-.22-2.07-.45-.61.23-1.68-.08-2.62-.73-.33-.06-.65-.12-.96-.1-1.31.09-2.78.45-4.26.88.59.21,1.32.47,2.31.51-.74,1.07-1.46,2.16,0,2.41-1.18,3.7-3.22-1.38-4.83-1.2.14-.46.27-.82.41-1.1-1.59.47-3.14.89-4.49.99-.3.17-.61.24-.75.11-.03-.03-.03-.06-.05-.08-.88-.03-1.64-.24-2.23-.73-.07.54-1.07,1.08-1.34.81-.06-.06-.09-.13-.11-.2-5.79,3.13-9.53,3.91-12.61,3.98.18.05.36.09.52.17.04.56-.07.93-.25,1.16.49-.14,1.11-.15,1.6-.29-.03,1.17-1.48.94-2.41,1.21,0-.28.11-.48.25-.62-.59.08-1.36-.31-1.79-.81.04-.18.15-.28.23-.41-.66.28-1.48.67-2.37,1.11-.06.08-.12.16-.14.27.51.79,1.16,1.44,1.95,1.95-.08,1.01-.9,1.27-1.31,1.96-1.82-.21-1.98-1.79-1.86-3.48-.58.3-1.17.61-1.71.89.42.37.27,1.29-1.15,2.07.27.69.56,1.25.15,1.83.1.76,1.13.6.98,1.63-.99,1.1-3.65,1.29-4.89,0,.34-1.29,2.05-1.2,2.93-1.96-.19-.38-.53-.6-.87-.84-.03,0-.05.02-.08.02.01-.02.02-.04.03-.07-.29-.2-.56-.41-.71-.75.04-.05.07-.12.1-.17-.17.09-.33.16-.5.25-.15.52-1.07.99-1.33.74,0,0,0-.01-.01-.02-4.39,2.41-8.85,5.7-11.96,10-1.82,2.51-2.44,4.8-3.05,7.03,4.63-.89,8.88-.86,11.94.17.05,0,.09-.01.14-.02.03-.12.05-.23.11-.38.25.1.53.18.8.26,0,0,.02,0,.02,0,.63-.46,1.81-.48,2.64-.07,1.53.1,2.88.48,4.05,1.1.05.01.1.02.14.05,0,0,0,.01.01.02,2.61,1.44,4.3,4.07,5.17,7.45h1.17c.17.73-.43,1.04-.97.96.03.14.07.26.09.4.51-.2,1.21-.21,1.76-.37-.03.89-.85.97-1.66,1.07.41,2.77.33,5.92-.16,9.24.07.05.15.11.28.11-.06.26-.33.33-.32.65-.04,0-.05-.04-.09-.05-.84,5.04-2.63,10.42-5.31,15.49,0,0,.02.03.03.03.7,1.4-.4,2.38-.97,1.68-.76,1.31-1.56,2.59-2.43,3.83-1.7,1.75-3.48,3.91-5.43,6.33-.57.71-3.08,2.06-3.46,2.63-.47.69.31,2.53-.27,3.13-1.34,1.37-2.28,1.29-3.43,2.59-8.53,9.66-26.1,17.01-37.17,21.34-1.37,14.75,7.02,20.26,15.85,26.05,1.07-.08,1.82.16,2.29.66-.2.31-.36.65-.53.98.95,1.19,1.92,2.66,2.87,3.13,4.09,2.04,9.16,4.3,13.09,5.28,2.41.34,4.06.51,6.2.26-.11-.21-.26-1.82-.14-2.16h1.31c-.05.38.07.58.33.65,0,.05.17,1.87.15,1.92,3.71.74,6.42.58,8.96.78.94.07,4.07-.06,7.12-.62-.27-.76-.33-1.57.38-2.08,1.07.04,1.54.68,1.63,1.71,1.33-.25,2.49-.47,3.19-.54,7.74-.88,16.82-4.02,22.53-11.6,2.76-3.67,3.39-7.54,3.99-11.3h0c-7.73-.79-15.33-1.58-19.18-3.24-19.77-6.55-20.42-27.43-12.89-45.66-.49.13-1.1.14-1.58.28.03-.98,1.05-.98,1.94-1.12,1.38-3.19,3.03-6.22,4.94-8.94,1.76-1.81,3.62-4.05,5.64-6.55.6-.74,3.35-2.29,3.75-2.87.49-.73-.54-2.4.08-3.04,1.43-1.46,2.53-1.51,3.76-2.9,2.03-2.29,4.74-4.63,7.89-6.97-.61-.17-1.29-.25-2.05-.27.04.03.1.05.14.08-.06.91-.56,1.39-1.63,1.3-.25-.29-.35-.74-.33-1.3-.15-1.38,3.78-2.01,5.51-1.02,3.51-2.5,7.51-4.99,11.72-7.43h-1.55c.94-3.24.4-4.82,3.62-1.21,0,.01,0,.02,0,.03,8.72-4.9,18.19-9.53,26.34-13.41-2.98-13.95-17.84-14.15-30.8-14.49ZM76.56,79.81c-.62-.62.87-1.54,1.21-1.21.62.62-.87,1.54-1.21,1.21ZM78.97,79.81c1.43-2.52,8.83-.88,8.45,2.41-5.08,1.46-5.29-1.95-8.45-2.41ZM86.21,72.57c.23-1.37,1.21-.67,1.21,0-.23,1.37-1.21.67-1.21,0ZM78.07,164.09c-1.12.34-3.46-.57-3.26-2.6,2.15-.19,3.27.64,3.26,2.6ZM77.75,182.99c-1,.23-.63.23-1.63,0,.1-.76,1.13-.6.98-1.63,1.1-.34.51,1.02.65,1.63ZM77.09,177.45c-.49.52-1.86.48-1.63-.65.49-.52,1.86-.48,1.63.65ZM77.75,178.76c0,.86.12,1.86-.33,2.28-.93-.04-.59-1.36-.65-2.28h.98ZM72.21,180.38c-.77,1.05-1.32-1.14,0,0h0ZM68.95,182.34c-.1-.76.05-1.25.32-1.63,1.47-.24,1.22,2.18-.32,1.63ZM69.6,176.15c-.25.29-.35.74-.33,1.31-1.44.19-1.13-1.76.33-1.31ZM57.87,165.4c.65-.11,1.02.07.98.65h-.98v-.65ZM49.73,166.38c-.76.1-1.25-.05-1.63-.33.03-.97,1.94-.87,1.63.33ZM53.63,155.84c.03-1.18,1.48-.94,2.41-1.21-.03,1.17-1.48.94-2.41,1.21ZM59.17,186.89c-1.44-.15-1.62.45-2.6,0-.75-2.15,3.43-2.34,2.6,0ZM58.85,168.33v-1.96c.87,0,1.86-.12,2.28.33-.07,1.22-1.34,1.27-2.28,1.63ZM66.34,164.42c.8-.29,1.41-.76,2.61-.66.1,1.84-1.37,2.11-1.3,3.91-1.47-.05-.98-2.06-1.31-3.25ZM67.65,184.29c-.26-2.03,3.28-2.13,2.93,0-1.21-.2-2.06.83-2.93,0ZM71.23,185.59h1.63c-.06.81.73.79.98,1.3-.64,1.46-2.92.22-2.61-1.3ZM73.19,181.03c.85-.09,1.4.12,1.3.98-.85.09-1.63.11-1.3-.98ZM74.16,196.35c.08-.58.56-.74,1.31-.65.33.98-.73.58-1.31.65ZM77.42,195.04h-.65v-.65h.65v.65ZM77.75,186.25c-.61-.04-1.09-.22-1.31-.66-.92.06-.4,1.55-1.63,1.3-.29-.79-.76-1.41-.65-2.6.29-.15.58-.29.65-.65,1.38-.08,2.3.3,3.26.65.04.8.05,1.57-.33,1.95ZM81.33,182.34h.98v.97h-.98v-.97ZM79.7,162.14c-.06.37-.33.18-.33,0,.06-.37.33-.18.33,0ZM78.72,168.98h1.31c.33.98-.73.57-1.31.65v-.65ZM82.96,186.89h-3.26c-.14-.78.6-.7.33-1.62h2.6c-.13.79.6.71.33,1.62ZM84.59,163.77c-.17-.17.23-.41.33-.33.17.17-.24.42-.33.33ZM108.04,189.83c1.36-.36,1.36,2.32,0,1.96-.1-.76-.64-1.34,0-1.96ZM106.74,175.82c-.29.57-1.14.84-1.63.33.03-.83,1.21-.77,1.63-.33ZM104.78,184.29c-.95-.24-1.37-1.02-1.3-2.28,1.09.08,2.11,1.31,1.3,2.28ZM102.5,174.52c.98-.33.58.73.65,1.3-.57-.29-1.26-.73-.65-1.3ZM91.1,128.58c-.06.37-.32.19-.32,0,.06-.36.32-.18.32,0ZM90.78,172.89v-.65h1.3c.33.98-.73.58-1.3.65ZM94.69,179.73v-.65c.65-.11,1.02.07.98.65h-.98ZM96.64,190.81h-.65v-.65h.65v.65ZM96.64,182.01c.12-.43.58-.51.65-.98.81.13.02,1.26-.65.98ZM101.2,188.85c-1.28.19-1.89-.28-2.61-.65-.1-.76.05-1.25.33-1.64.96.57,2.53.52,2.28,2.28ZM99.9,177.45c.4.14.67.41.65.97-.55.54-1.91.26-1.63,1.64-1.21.22-2.14.5-1.95-1.31,1.72.3,2.1-.72,2.93-1.3ZM95.01,168.33c.7.21.56.38.43.78h1.63v2.41h-2.41v-1.92c-.89.04-1.98.28-2.25-.29-.33-1.53,2.45.05,2.61-.98ZM92.24,164.28c.62.62-.87,1.54-1.21,1.21-.63-.62.87-1.54,1.21-1.21ZM93.45,118.42c.03-1.17,1.48-.94,2.41-1.21-.03,1.18-1.48.94-2.41,1.21ZM161.03,64.12c.62.62-.88,1.54-1.21,1.2-.62-.62.87-1.54,1.21-1.2ZM153.79,60.5c.62.62-.87,1.54-1.21,1.21-.63-.63.87-1.54,1.21-1.21ZM146.55,58.08c-.03,1.18-1.48.94-2.41,1.21.03-1.17,1.48-.94,2.41-1.21ZM142.93,58.08c-.03,1.18-1.48.94-2.41,1.21.03-1.17,1.48-.94,2.41-1.21ZM136.9,61.7c.62.62-.87,1.54-1.21,1.21-.63-.62.88-1.54,1.21-1.21ZM134.75,71.58c-.35.3-.1,1.2-.98.97v-.97h.98ZM133.45,61.48c.08-.35.65-.22.65-.65,1.31.24.01,1.53-.65.65ZM134.48,56.88c.26,3.59-4.3,4.25-6.03,2.41,1.02-1.79,3.89-1.75,6.03-2.41ZM129.87,61.16c-.03.83-1.22.77-1.63.32.23-1.02.87-.42,1.63-.32ZM128.45,68.95c-.62-.63.87-1.54,1.21-1.21.62.62-.87,1.54-1.21,1.21ZM121.72,59.85c.9.14,1.03,1.04.76,1.7,1.59-4.46,5.68,3.69,5.97.15,3.04,3-4.04,1.68-6.04,0,.01-.03.02-.04.03-.07-.1.21-.23.39-.4.5-.43-.11-.51-.57-.98-.65-.05-.81.51-1.01.65-1.63ZM125.64,64.74c-.7.15-.62-.47-.65-.98.4.14.67.42.65.98ZM113.97,58.08v3.62c-2.14.28-6.04-1.22-4.83,2.42-1.31-.3-.82-2.4-2.41-2.42.7-2.92,4.56-2.68,7.24-3.62ZM113.91,63.44c-.03.83-1.21.77-1.63.32.03-.83,1.21-.77,1.63-.32ZM110.35,70.15c-.53,1.48-1.54,2.47-3.62,2.41.53-1.49,1.55-2.48,3.62-2.41ZM104.31,61.7c-.23,1.37-1.21.67-1.21,0,.23-1.37,1.21-.67,1.21,0ZM103.1,68.95c.63.62-.87,1.54-1.21,1.21-.62-.62.88-1.54,1.21-1.21ZM102.18,64.09c-.68.14-.87-.22-1.31-.33.06-.94,1.55-.78,1.31.33ZM93.06,73.86c-.2-1.97,1.59-1.66,2.93-1.31v1.63c-.98.46-1.75-.15-2.93-.33ZM96.64,78.75c-.1-.76.05-1.25.33-1.63.74-.09,1.22.08,1.3.65.15,1.02-.7,1.04-1.63.98ZM95.86,76.19c.02-.79.7-.93,1.42-1.03-.25-.07-.32-.32-.64-.32.06-.26.33-.32.33-.65.26.06.33.32.65.32-.06.26-.31.33-.32.64.34-.05.68-.09.98-.17-.03,1.17-1.48.94-2.41,1.21ZM98.27,71.25c.83.04,1.26.47,1.31,1.3-.32.01-.25.4-.33.65-1.81.38-1.86-1.35-.98-1.95ZM99.25,76.14h.97c.14.68-.22.86-.32,1.3-.58-.08-.75-.56-.65-1.3ZM100.69,87.05c.62.62-.87,1.54-1.21,1.21-.62-.63.88-1.54,1.21-1.21ZM98.28,103.94c-.62-.62.87-1.54,1.2-1.21.63.62-.87,1.54-1.2,1.21ZM99.57,90.47c.92.05,2.23-.28,2.28.65.01,1.93-3.62.75-2.28-.65ZM103.1,79.81c-.62-.62.88-1.54,1.21-1.21.62.62-.87,1.54-1.21,1.21ZM104.46,75.16s-.03,0-.05,0c.11,1.02-4.91,3.24-3.71,1.02.11-.21,1.15-1.06,2.14-1.38.08-.93,1.93-.83,1.62.36ZM104.31,73.77c-.62-.62.87-1.54,1.21-1.21.63.62-.87,1.54-1.21,1.21ZM106.73,77.39c-.14-.05-.25-.1-.37-.16.26.26.57.47.38,1.19-1.5-.02-1.9-1.15-1.95-2.61.49-.13.62.09.7.36-.11-1.18,1.64-2.64,3.52-2.65-.02-.67.02-1.29.34-1.62,1.22.08,2.1.51,2.61,1.3.17.84-.61,1.06-1.43,1.03,1.21,3.53-4.25.38-3.79,3.16ZM109.14,84.64c.23-1.38,1.21-.67,1.21,0-.23,1.36-1.21.67-1.21,0ZM109.67,102.52c.42-.56.67-1.28,1.63-1.3.05,1.02-.83,1.12-1.63,1.3ZM114.56,98.94c-1.38-.29-1.84.33-2.28.98-1.02.15-1.46-.28-1.31-1.31,1.46.16,1.73-.88,2.28-1.63,1.06-.08,1.57.39,1.63,1.3-.31,0-.25.4-.32.65ZM120,87.05c-.62-.63.88-1.54,1.21-1.21.62.62-.87,1.54-1.21,1.21ZM123.03,82.66c-1,.63-1.64,1.62-2.61,2.28-1.85-.69-2.13-.28-4.24,0,.06-.28-.13-.31-.33-.33-1.1-.1-.95-1.45-1.95-1.63-.15-.94-1.4-.77-1.63-1.63.56-1.73,1.52-3.64.65-5.86,1.24-.38,2.48-.78,3.25-1.63,1.41.44,2.07.15,3.58,0,1.37.92,2.12,2.44,3.26,3.58-.33,2.09.58,2.75,0,5.21ZM125.64,88.52c-.18-.26-.34-.53-.33-.98-.02-.22-.19-.29-.39-.33.28.61-.99,1.36-1.3,1.05-.42-.42.13-.97.63-1.18-.11-.04-.2-.08-.25-.18-.1-.57,1.83-.58,1.3.33.96.02,1.84.12,1.63,1.3h-1.3ZM123.62,77.39c-.44-2.06.94-2.28,2.41-2.42-1.21-1.61-1.99-3.64-3.62-4.83-1.03-.22-1.14.47-1.21,1.2-2.2-4.56,7.3-.41,12.07-1.2-1.19,1.63-3.22,2.41-4.83,3.62-3.17-.36-.95,4.68-4.83,3.62ZM128.45,78.6c-.62-.62.87-1.54,1.21-1.2.62.62-.87,1.54-1.21,1.2ZM135.69,77.39c-1.88,3.33-5.92-1.2-6.03-3.62,2.97-.16,5.81-.19,7.24,1.21-.68,1.13-3.36,1.83-1.21,2.42ZM136.9,70.15c.3-1.52,2.4-1.22,2.41,0-1.07.74-2.16,1.46-2.41,0ZM140.52,71.36c.03-1.17,1.48-.94,2.41-1.2-.03,1.17-1.48.94-2.41,1.2ZM146.81,74.84h-.65v-.65h.65v.65ZM144.14,68.95c.19-1.41,2.2-1.02,3.62-1.21-.2,1.42-2.2,1.02-3.62,1.21ZM150.17,64.12c-.48-3.01-5.53-.92-3.62,2.41-.97-1.04-3.3-.72-3.62-2.41-8.98.27-.97-1.86,2.41-2.42.02,2.84,3.29-.44,2.42-2.41,3.22.8,4.42,3.63,6.03,6.03,2.42-.41,3.78.25,3.62,2.41-1.7-1.1-12.81-2.98-7.24-3.62ZM156.2,61.7c-.62-.63.87-1.54,1.21-1.21.62.62-.87,1.54-1.21,1.21ZM159.82,67.74c-.62-.62.87-1.54,1.21-1.2.62.62-.88,1.54-1.21,1.2Z"/>
</svg>