<?xml version="1.0" encoding="UTF-8"?>
<svg id="Layer_1" xmlns="http://www.w3.org/2000/svg" viewBox="0 0 1568 620">
  <g>
    <g>
      <rect x="113" y="116.89" width="278.72" height="278.72" style="fill: #012626;"/>
      <path d="M340.16,137.71h20.36c1.06,0,1.79,1.06,1.41,2.04-2.89,7.59-11.12,25.68-30.8,39.47-1.05.74-2.49-.09-2.37-1.37,2.08-23.38,7.84-35.28,10.07-39.36.26-.48.77-.78,1.32-.78Z" style="fill: #a9d962;"/>
      <path d="M322.34,139.83c-3.04,6.84-5.35,14.41-7.06,22.33-.26,1.18-1.73,1.61-2.56.73-3.23-3.4-9.38-10.96-14.3-23.12-.4-.99.34-2.07,1.4-2.07h21.15c1.09,0,1.82,1.13,1.38,2.13Z" style="fill: #78a658;"/>
      <path d="M221.54,137.71h9.49c.85,0,1.53.7,1.51,1.55-.95,38.16,1.87,72.73,3.71,92.55.1,1.04-.86,1.86-1.87,1.6-4.81-1.21-16.69-4.23-25.37-6.62-.47-.13-.85-.48-1.02-.94-2.96-8.29-10.57-30.27-13.2-39.07-.21-.69.11-1.43.75-1.76,14.16-7.44,21.73-26.71,24.51-45.99.11-.75.74-1.3,1.49-1.3Z" style="fill: #4d7343;"/>
      <path d="M213.81,139.51c-1.81,9.06-7.06,29.13-19.77,37.09-.87.54-2.01.07-2.26-.92-3.78-15-5.79-28.2-6.65-36.31-.09-.89.61-1.67,1.5-1.67h25.7c.95,0,1.67.87,1.48,1.81Z" style="fill: #78a658;"/>
      <path d="M135.32,137.71h35.2c.81,0,1.47.64,1.51,1.45.42,9.73,1.49,19.41,3.04,29.01.17,1.03-.74,1.92-1.77,1.73-16.44-3.01-29.31-6.79-38.58-10.69-.56-.23-.92-.78-.92-1.39v-18.6c0-.83.68-1.51,1.51-1.51Z" style="fill: #a9d962;"/>
      <path d="M135.92,168.27c14.78,6.4,32.05,10.57,40.53,12.42.58.13,1.03.58,1.15,1.17,2.5,12.09,5.65,24.07,9.1,35.93.34,1.16-.74,2.22-1.9,1.86-9.56-2.99-34.24-10.95-50.23-19.94-.47-.27-.76-.77-.76-1.31v-28.75c0-1.09,1.11-1.82,2.11-1.38Z" style="fill: #78a658;"/>
      <path d="M133.81,375.31v-41.5c0-1.09,1.11-1.82,2.11-1.39,10.92,4.73,49.85,20,116.42,20.85.72,0,1.33.52,1.46,1.22,1.31,6.85,2.67,13.69,4.08,20.52.19.94-.52,1.81-1.48,1.81h-121.08c-.83,0-1.51-.68-1.51-1.51Z" style="fill: #bad3d9;"/>
      <path d="M372.34,287.42c-6.44,4.97-13.27,9.55-20.28,13.75-.96.57-2.18-.04-2.28-1.15-.73-7.93-1.36-34.46,20.53-58.18.94-1.01,2.63-.36,2.63,1.02v43.37c0,.47-.22.91-.59,1.2Z" style="fill: #a9d962;"/>
      <path d="M372.52,184.33c-9.59,10.2-22.79,19.9-41.91,28.82-.97.45-2.09-.21-2.15-1.28-.38-6.61-.56-13.44-.42-20.29.01-.52.29-.99.73-1.26,4.92-3,29.96-19.28,39.57-51.52.19-.64.78-1.09,1.45-1.09h1.63c.83,0,1.51.68,1.51,1.51v44.08c0,.38-.14.75-.41,1.04Z" style="fill: #78a658;"/>
      <path d="M173.69,319.91c-5.92-20.66-19.68-41.44-37.31-58.68-.95-.93-2.56-.25-2.56,1.08v45.62c0,.58.33,1.11.85,1.36,14.93,7.18,31.14,11.15,37.24,12.5,1.12.25,2.09-.79,1.78-1.89Z" style="fill: #78a658;"/>
      <g>
        <path d="M341.49,288.58l-6.75-6.24c-.97-.89-2.53-.21-2.53,1.11v26c0,1.13,1.19,1.85,2.19,1.35,2.41-1.21,4.81-2.45,7.19-3.72.55-.3.86-.9.78-1.52-.65-5.21-.77-10.5-.39-15.76.03-.46-.14-.9-.48-1.22Z" style="fill: #4d7343;"/>
        <path d="M308.55,245.76l33.09,30.87c.85.79,2.23.37,2.5-.76,1.14-4.71,2.68-9.32,4.59-13.75,5.24-12.12,13.65-22.79,23.67-31.33.34-.29.53-.7.53-1.15v-17.02c0-1.26-1.46-1.96-2.45-1.18-17.8,14.1-39.42,24.4-61.38,31.78-1.08.36-1.38,1.75-.54,2.53Z" style="fill: #4d7343;"/>
      </g>
      <path d="M278.81,218.01l9.79,9.14c.38.35.91.49,1.42.36,6.77-1.78,13.5-3.8,20.12-6.1.63-.22,1.04-.82,1.01-1.48-.53-14.14-.2-30.2,1.99-45.66.07-.49-.1-.97-.46-1.31-2.94-2.74-15.62-15.97-19.91-34.1-.16-.68-.77-1.15-1.47-1.15h-15.97c-.84,0-1.52.69-1.51,1.53.18,11.59,2.33,56.86,4.51,77.83.04.36.21.7.47.94Z" style="fill: #4d7343;"/>
      <path d="M201.39,282.34l-7.14,6.59c-.61.56-1.56.53-2.13-.08l-3.97-4.25c-.57-.61-.54-1.57.07-2.13l31.55-29.43c.85-.8.52-2.22-.6-2.55-24.8-7.37-58.68-18.4-83.17-30.99-1-.52-2.2.21-2.2,1.34v29.14c0,.44.2.86.53,1.15,33.35,28.38,44.88,57.61,48.47,71.94.14.58.62,1.02,1.2,1.12,6.04,1.06,12.12,1.94,18.22,2.65.9.1,1.68-.6,1.68-1.5v-41.88c0-1.32-1.57-2-2.53-1.11Z" style="fill: #4d7343;"/>
      <path d="M267.03,221.05l-53.8,50.3c-.31.29-.48.68-.48,1.1v51.01c0,.83.68,1.51,1.51,1.51h35.52c.83,0,1.51-.68,1.51-1.51v-48.32c0-.83.68-1.51,1.51-1.51h29.91c.83,0,1.51.68,1.51,1.51v48.32c0,.83.68,1.51,1.51,1.51h15.51c.18,0,.35-.03.52-.09,7-2.55,13.92-5.37,20.72-8.42.54-.24.89-.78.89-1.38v-42.63c0-.42-.17-.82-.48-1.1l-53.8-50.3c-.58-.54-1.48-.54-2.06,0Z" style="fill: #fff;"/>
      <path d="M300.94,352.23c1.14,5.02,4.46,19.25,5.44,23.42.16.68.77,1.16,1.47,1.16h63.57c.83,0,1.51-.68,1.51-1.51v-60.12c0-1.23-1.39-1.94-2.39-1.23-29.28,21.02-62,33.99-68.66,36.53-.7.27-1.1,1.01-.93,1.74Z" style="fill: #bad3d9;"/>
    </g>
    <g>
      <path d="M489.17,226.39c8.45,4.98,18.14,7.47,29.06,7.47,7.81,0,15.04-1.39,21.67-4.17,6.63-2.78,12.44-6.69,17.42-11.72,4.98-5.03,8.8-10.81,11.48-17.34l-20.39-7.38c-1.82,4.07-4.2,7.65-7.14,10.76-2.94,3.11-6.32,5.54-10.11,7.31-3.8,1.77-8,2.65-12.6,2.65-6.64,0-12.52-1.63-17.66-4.9-5.14-3.26-9.15-7.76-12.04-13.49-2.89-5.72-4.33-12.33-4.33-19.83s1.42-14.07,4.25-19.75c2.83-5.67,6.8-10.14,11.88-13.41,5.08-3.26,10.89-4.9,17.42-4.9,4.5,0,8.67.83,12.52,2.49,3.85,1.66,7.28,3.96,10.27,6.9,3,2.94,5.4,6.4,7.22,10.35l20.39-7.54c-2.68-6.31-6.5-11.91-11.48-16.78-4.98-4.87-10.78-8.67-17.42-11.4-6.64-2.73-13.81-4.09-21.51-4.09-10.92,0-20.58,2.49-28.98,7.46-8.4,4.98-15.01,11.83-19.83,20.55-4.82,8.72-7.22,18.76-7.22,30.1s2.41,21.38,7.22,30.1c4.82,8.72,11.45,15.57,19.91,20.55Z" style="fill: #012626;"/>
      <path d="M654.37,213.63c3.53-6.31,5.3-13.59,5.3-21.83s-1.77-15.52-5.3-21.83c-3.53-6.31-8.46-11.26-14.77-14.85-6.32-3.58-13.59-5.38-21.83-5.38s-15.36,1.79-21.67,5.38c-6.32,3.59-11.24,8.54-14.77,14.85-3.53,6.32-5.3,13.59-5.3,21.83s1.79,15.52,5.38,21.83c3.58,6.32,8.53,11.27,14.85,14.85,6.31,3.59,13.59,5.38,21.83,5.38s15.33-1.79,21.59-5.38c6.26-3.58,11.16-8.53,14.69-14.85ZM635.42,203.44c-1.71,3.37-4.04,6.02-6.98,7.95-2.94,1.93-6.4,2.89-10.35,2.89s-7.49-.96-10.6-2.89c-3.11-1.93-5.51-4.57-7.22-7.95-1.71-3.37-2.57-7.25-2.57-11.64s.86-8.27,2.57-11.64c1.71-3.37,4.09-6.02,7.14-7.95s6.55-2.89,10.51-2.89,7.31.96,10.36,2.89c3.05,1.93,5.43,4.57,7.14,7.95,1.71,3.37,2.57,7.25,2.57,11.64s-.86,8.27-2.57,11.64Z" style="fill: #012626;"/>
      <path d="M744.11,231.93v-42.06c0-6.74,1.39-11.82,4.17-15.25,2.78-3.42,6.74-5.08,11.88-4.98,2.78,0,5.19.67,7.22,2.01,2.03,1.34,3.64,3.51,4.82,6.5,1.18,3,1.77,7.22,1.77,12.68v41.1h21.19v-45.91c0-12.31-2.46-21.43-7.38-27.37-4.92-5.94-12.1-8.91-21.51-8.91-5.67,0-10.65,1.47-14.93,4.41-4.28,2.94-7.6,7.14-9.95,12.6-2.03-5.78-5.27-10.06-9.71-12.84-4.44-2.78-9.93-4.17-16.46-4.17-4.71,0-8.99,1.04-12.84,3.13-3.85,2.09-7.01,5.16-9.47,9.23l-.96-10.44h-19.91v80.27h21.19v-42.06c0-6.74,1.37-11.82,4.09-15.25,2.73-3.42,6.66-5.08,11.8-4.98,2.78,0,5.22.67,7.3,2.01,2.09,1.34,3.69,3.51,4.82,6.5,1.12,3,1.69,7.22,1.69,12.68v41.1h21.19Z" style="fill: #012626;"/>
      <path d="M912.36,231.93h21.19v-45.91c0-12.31-2.46-21.43-7.38-27.37-4.92-5.94-12.1-8.91-21.51-8.91-5.67,0-10.65,1.47-14.93,4.41-4.28,2.94-7.6,7.14-9.95,12.6-2.03-5.78-5.27-10.06-9.71-12.84-4.44-2.78-9.93-4.17-16.46-4.17-4.71,0-8.99,1.04-12.84,3.13-3.85,2.09-7.01,5.16-9.47,9.23l-.96-10.44h-19.91v80.27h21.19v-42.06c0-6.74,1.37-11.82,4.09-15.25,2.73-3.42,6.66-5.08,11.8-4.98,2.78,0,5.22.67,7.3,2.01,2.09,1.34,3.69,3.51,4.82,6.5,1.12,3,1.69,7.22,1.69,12.68v41.1h21.19v-42.06c0-6.74,1.39-11.82,4.17-15.25,2.78-3.42,6.74-5.08,11.88-4.98,2.78,0,5.19.67,7.22,2.01,2.03,1.34,3.64,3.51,4.82,6.5,1.18,3,1.77,7.22,1.77,12.68v41.1Z" style="fill: #012626;"/>
      <path d="M1022.81,213.63c3.53-6.31,5.3-13.59,5.3-21.83s-1.77-15.52-5.3-21.83c-3.53-6.31-8.46-11.26-14.77-14.85-6.32-3.58-13.59-5.38-21.83-5.38s-15.36,1.79-21.67,5.38c-6.32,3.59-11.24,8.54-14.77,14.85-3.53,6.32-5.3,13.59-5.3,21.83s1.79,15.52,5.38,21.83c3.58,6.32,8.53,11.27,14.85,14.85,6.31,3.59,13.59,5.38,21.83,5.38s15.33-1.79,21.59-5.38c6.26-3.58,11.16-8.53,14.69-14.85ZM1003.86,203.44c-1.71,3.37-4.04,6.02-6.98,7.95-2.94,1.93-6.4,2.89-10.35,2.89s-7.49-.96-10.6-2.89c-3.11-1.93-5.51-4.57-7.22-7.95-1.71-3.37-2.57-7.25-2.57-11.64s.86-8.27,2.57-11.64c1.71-3.37,4.09-6.02,7.14-7.95,3.05-1.93,6.55-2.89,10.51-2.89s7.31.96,10.35,2.89c3.05,1.93,5.43,4.57,7.14,7.95,1.71,3.37,2.57,7.25,2.57,11.64s-.86,8.27-2.57,11.64Z" style="fill: #012626;"/>
      <path d="M1114.79,231.93v-45.43c.11-8.56-1.02-15.54-3.37-20.95-2.36-5.4-5.78-9.39-10.27-11.96s-9.9-3.85-16.21-3.85-11.43,1.58-15.97,4.74c-2.99,2.08-5.53,4.77-7.65,8.05l-.94-10.85h-19.91v80.27h21.19v-42.06c0-6.74,1.47-11.82,4.41-15.25,2.94-3.42,7.14-5.08,12.6-4.98,3,0,5.62.67,7.87,2.01,2.25,1.34,3.99,3.51,5.22,6.5,1.23,3,1.85,7.22,1.85,12.68v41.1h21.19Z" style="fill: #012626;"/>
      <path d="M1204.7,231.93v-45.43c0-8.56-1.18-15.54-3.53-20.95-2.36-5.4-5.75-9.39-10.19-11.96-4.44-2.57-9.87-3.85-16.29-3.85s-11.43,1.58-15.97,4.74c-2.83,1.96-5.26,4.47-7.3,7.5v-42.42h-21.19v112.38h21.19v-42.06c0-6.74,1.47-11.82,4.41-15.25,2.94-3.42,7.14-5.08,12.6-4.98,3,0,5.62.67,7.87,2.01,2.25,1.34,4.01,3.51,5.3,6.5,1.28,3,1.93,7.22,1.93,12.68v41.1h21.19Z" style="fill: #012626;"/>
      <path d="M1272.85,154.39c-5.41-3.1-12.18-4.66-20.31-4.66-6.74,0-12.44,1.04-17.1,3.13-4.66,2.09-8.43,4.76-11.32,8.03-2.89,3.27-5.08,6.61-6.58,10.03l18.62,6.42c1.93-3.1,4.28-5.4,7.06-6.9,2.78-1.5,5.88-2.25,9.31-2.25,3.75,0,6.72.94,8.91,2.81,2.19,1.87,3.8,4.52,4.82,7.95.41,1.38.71,2.89.96,4.49h-18.86c-10.38,0-18.44,2.17-24.16,6.5-5.73,4.33-8.59,10.78-8.59,19.35,0,7.81,2.65,13.86,7.95,18.14,5.3,4.28,12.76,6.42,22.39,6.42s16.67-3.05,20.79-9.15c.47-.69.9-1.42,1.31-2.18l.37,9.4h19.75l.48-44.47c.11-7.71-1.15-14.37-3.77-19.99-2.62-5.62-6.64-9.98-12.04-13.08ZM1265.38,207.29c-1.61,2.62-3.77,4.76-6.5,6.42-2.73,1.66-5.86,2.49-9.39,2.49-3.85,0-6.85-.67-8.99-2.01-2.14-1.34-3.21-3.18-3.21-5.54,0-3,1.34-5.32,4.01-6.98,2.67-1.66,7.49-2.49,14.45-2.49h12.04c0,2.78-.8,5.49-2.41,8.11Z" style="fill: #012626;"/>
      <path d="M1355.6,193.72c0,6.64-1.44,11.69-4.33,15.17-2.89,3.48-7.12,5.16-12.68,5.06-2.89,0-5.49-.67-7.79-2.01-2.3-1.34-4.07-3.53-5.3-6.58-1.23-3.05-1.85-7.25-1.85-12.6v-41.1h-21.19v45.43c0,8.56,1.15,15.55,3.45,20.95,2.3,5.41,5.7,9.39,10.19,11.96,4.49,2.57,9.95,3.85,16.37,3.85s11.4-1.58,15.89-4.74c2.94-2.06,5.46-4.73,7.57-7.98l.94,10.79h19.91v-80.27h-21.19v42.06Z" style="fill: #012626;"/>
      <path d="M1453.77,199.26c-1.44-3.48-3.75-6.64-6.9-9.47-3.16-2.83-7.36-4.9-12.6-6.18l-10.44-2.57c-2.78-.64-4.92-1.42-6.42-2.33-1.5-.91-2.25-2.06-2.25-3.45,0-2.14.78-3.82,2.33-5.06,1.55-1.23,3.77-1.85,6.66-1.85s5.78.67,8.67,2.01c2.89,1.34,4.71,3.08,5.46,5.22l17.5-8.03c-1.18-3.53-3.32-6.63-6.42-9.31-3.11-2.67-6.82-4.76-11.16-6.26-4.33-1.5-9.02-2.25-14.05-2.25-9.74,0-17.26,2.25-22.56,6.74-5.3,4.5-7.95,10.86-7.95,19.1,0,5.78,2.22,10.89,6.66,15.33,4.44,4.44,10.52,7.68,18.22,9.71l7.38,1.93c2.67.64,4.79,1.42,6.34,2.33,1.55.91,2.33,2.33,2.33,4.25s-.96,3.4-2.89,4.41c-1.93,1.02-4.66,1.53-8.19,1.53s-6.85-.94-9.63-2.81c-2.78-1.87-4.98-4.09-6.58-6.66l-18.14,8.35c1.93,4.28,4.6,7.89,8.03,10.84,3.42,2.94,7.39,5.19,11.88,6.74,4.5,1.55,9.31,2.33,14.45,2.33,6.21,0,11.74-1.02,16.62-3.05,4.87-2.03,8.72-4.9,11.56-8.59,2.83-3.69,4.25-7.95,4.25-12.76,0-3.32-.72-6.71-2.17-10.19Z" style="fill: #012626;"/>
      <polygon points="468.62 394.97 490.62 394.97 490.62 349.69 532.36 349.69 532.36 329.63 490.62 329.63 490.62 302.65 540.71 302.65 540.71 282.59 468.62 282.59 468.62 394.97" style="fill: #012626;"/>
      <path d="M610.86,318.15c-6.32-3.59-13.59-5.38-21.83-5.38s-15.36,1.79-21.67,5.38c-6.32,3.59-11.24,8.54-14.77,14.85-3.53,6.32-5.3,13.59-5.3,21.83s1.79,15.52,5.38,21.83c3.58,6.32,8.53,11.27,14.85,14.85,6.31,3.58,13.59,5.38,21.83,5.38s15.33-1.79,21.59-5.38c6.26-3.58,11.16-8.53,14.69-14.85,3.53-6.31,5.3-13.59,5.3-21.83s-1.77-15.52-5.3-21.83c-3.53-6.31-8.46-11.26-14.77-14.85ZM606.69,366.47c-1.71,3.37-4.04,6.02-6.98,7.95-2.94,1.93-6.4,2.89-10.35,2.89s-7.49-.96-10.6-2.89c-3.11-1.93-5.51-4.57-7.22-7.95-1.71-3.37-2.57-7.25-2.57-11.64s.86-8.27,2.57-11.64c1.71-3.37,4.09-6.02,7.14-7.95,3.05-1.93,6.55-2.89,10.52-2.89s7.3.96,10.35,2.89c3.05,1.93,5.43,4.57,7.14,7.95,1.71,3.37,2.57,7.25,2.57,11.64s-.86,8.27-2.57,11.64Z" style="fill: #012626;"/>
      <path d="M694.98,356.76c0,6.64-1.45,11.69-4.34,15.17-2.89,3.48-7.12,5.17-12.68,5.06-2.89,0-5.49-.67-7.79-2.01-2.3-1.34-4.07-3.53-5.3-6.58-1.23-3.05-1.85-7.25-1.85-12.6v-41.1h-21.19v45.43c0,8.56,1.15,15.55,3.45,20.95,2.3,5.41,5.7,9.39,10.19,11.96,4.5,2.57,9.95,3.85,16.38,3.85s11.4-1.58,15.89-4.74c2.94-2.06,5.46-4.73,7.57-7.98l.94,10.79h19.91v-80.27h-21.19v42.06Z" style="fill: #012626;"/>
      <path d="M793.55,316.62c-4.5-2.57-9.9-3.85-16.21-3.85s-11.43,1.58-15.97,4.74c-2.99,2.08-5.53,4.77-7.65,8.05l-.94-10.85h-19.91v80.27h21.19v-42.06c0-6.74,1.47-11.82,4.42-15.25,2.94-3.42,7.14-5.08,12.6-4.98,3,0,5.62.67,7.87,2.01,2.25,1.34,3.99,3.51,5.22,6.5,1.23,3,1.85,7.22,1.85,12.68v41.1h21.19v-45.43c.11-8.56-1.02-15.55-3.37-20.95-2.36-5.4-5.78-9.39-10.27-11.96Z" style="fill: #012626;"/>
      <path d="M878.48,325.32c-1.96-2.94-4.28-5.42-6.98-7.41-4.66-3.42-10.35-5.14-17.1-5.14-7.38,0-13.78,1.71-19.18,5.14-5.41,3.43-9.61,8.27-12.6,14.53-3,6.26-4.5,13.73-4.5,22.4s1.5,16,4.5,22.32c3,6.32,7.2,11.19,12.6,14.61,5.4,3.42,11.8,5.14,19.18,5.14,6.74,0,12.44-1.71,17.1-5.14,2.83-2.08,5.25-4.71,7.27-7.86l.83,11.07h20.07v-112.38h-21.19v42.73ZM869.57,374.58c-2.84,1.93-6.08,2.89-9.71,2.89-3.85,0-7.25-.96-10.19-2.89-2.94-1.93-5.27-4.6-6.98-8.03-1.71-3.42-2.57-7.33-2.57-11.72s.85-8.29,2.57-11.72c1.71-3.42,4.01-6.07,6.9-7.95,2.89-1.87,6.26-2.81,10.11-2.81s7.04.94,9.87,2.81c2.83,1.87,5.06,4.52,6.66,7.95,1.2,2.55,1.94,5.37,2.25,8.45v6.54c-.31,3.08-1.05,5.9-2.25,8.45-1.61,3.43-3.83,6.1-6.66,8.03Z" style="fill: #012626;"/>
      <path d="M969.26,317.42c-5.41-3.1-12.18-4.66-20.31-4.66-6.74,0-12.44,1.04-17.1,3.13-4.66,2.09-8.43,4.76-11.32,8.03-2.89,3.27-5.08,6.61-6.58,10.03l18.62,6.42c1.93-3.1,4.28-5.4,7.06-6.9,2.78-1.5,5.88-2.25,9.31-2.25,3.75,0,6.72.94,8.91,2.81,2.19,1.87,3.8,4.52,4.82,7.95.41,1.38.71,2.9.96,4.5h-18.86c-10.38,0-18.44,2.17-24.16,6.5-5.73,4.33-8.59,10.78-8.59,19.34,0,7.81,2.65,13.86,7.95,18.14,5.3,4.28,12.76,6.42,22.4,6.42s16.67-3.05,20.79-9.15c.47-.69.9-1.42,1.31-2.18l.37,9.4h19.75l.48-44.47c.11-7.71-1.15-14.37-3.77-19.99-2.62-5.62-6.64-9.98-12.04-13.08ZM961.8,370.32c-1.61,2.62-3.77,4.76-6.5,6.42-2.73,1.66-5.86,2.49-9.39,2.49-3.85,0-6.85-.67-8.99-2.01-2.14-1.34-3.21-3.18-3.21-5.54,0-3,1.34-5.32,4.01-6.98,2.67-1.66,7.49-2.49,14.45-2.49h12.04c0,2.78-.8,5.49-2.41,8.11Z" style="fill: #012626;"/>
      <path d="M1039.98,376.58c-1.28.48-2.46.72-3.53.72-2.89,0-5.08-.88-6.58-2.65-1.5-1.77-2.25-4.36-2.25-7.79v-34.2h20.07v-17.98h-20.07v-25.05h-21.19v25.05h-13v17.98h13v38.85c0,8.13,2.27,14.4,6.82,18.78,4.55,4.39,11.26,6.58,20.15,6.58,3.1,0,6.23-.62,9.39-1.85,3.16-1.23,6.02-2.81,8.59-4.74l-7.38-15.89c-1.39.96-2.73,1.69-4.01,2.17Z" style="fill: #012626;"/>
      <path d="M1075.14,277.29c-3.21,0-6.05,1.2-8.51,3.61-2.46,2.41-3.69,5.27-3.69,8.59s1.23,6.18,3.69,8.59c2.46,2.41,5.3,3.61,8.51,3.61s6.18-1.2,8.59-3.61c2.41-2.41,3.61-5.27,3.61-8.59s-1.2-6.18-3.61-8.59c-2.41-2.41-5.27-3.61-8.59-3.61Z" style="fill: #012626;"/>
      <rect x="1064.54" y="314.7" width="21.19" height="80.27" style="fill: #012626;"/>
      <path d="M1162.95,318.15c-6.32-3.59-13.59-5.38-21.83-5.38s-15.36,1.79-21.67,5.38c-6.32,3.59-11.24,8.54-14.77,14.85-3.53,6.32-5.3,13.59-5.3,21.83s1.79,15.52,5.38,21.83c3.58,6.32,8.53,11.27,14.85,14.85,6.31,3.58,13.59,5.38,21.83,5.38s15.33-1.79,21.59-5.38c6.26-3.58,11.16-8.53,14.69-14.85,3.53-6.31,5.3-13.59,5.3-21.83s-1.77-15.52-5.3-21.83c-3.53-6.31-8.46-11.26-14.77-14.85ZM1158.78,366.47c-1.71,3.37-4.04,6.02-6.98,7.95-2.94,1.93-6.4,2.89-10.35,2.89s-7.49-.96-10.6-2.89c-3.11-1.93-5.51-4.57-7.22-7.95-1.71-3.37-2.57-7.25-2.57-11.64s.86-8.27,2.57-11.64c1.71-3.37,4.09-6.02,7.14-7.95,3.05-1.93,6.55-2.89,10.51-2.89s7.31.96,10.35,2.89c3.05,1.93,5.43,4.57,7.14,7.95,1.71,3.37,2.57,7.25,2.57,11.64s-.86,8.27-2.57,11.64Z" style="fill: #012626;"/>
      <path d="M1256.06,316.62c-4.5-2.57-9.9-3.85-16.21-3.85s-11.43,1.58-15.97,4.74c-2.99,2.08-5.53,4.77-7.65,8.05l-.94-10.85h-19.91v80.27h21.19v-42.06c0-6.74,1.47-11.82,4.41-15.25,2.94-3.42,7.14-5.08,12.6-4.98,3,0,5.62.67,7.87,2.01,2.25,1.34,3.99,3.51,5.22,6.5,1.23,3,1.85,7.22,1.85,12.68v41.1h21.19v-45.43c.11-8.56-1.02-15.55-3.37-20.95-2.36-5.4-5.78-9.39-10.27-11.96Z" style="fill: #012626;"/>
    </g>
  </g>
  <g>
    <path d="M149.72,510.92v-42h24.18v3.48h-20.34v15.12h18.9v3.48h-18.9v16.44h20.34v3.48h-24.18Z" style="fill: #012626;"/>
    <path d="M193.22,511.64c-3.52,0-6.27-.81-8.25-2.43s-2.97-3.87-2.97-6.75.99-5.26,2.97-6.9c1.98-1.64,4.73-2.46,8.25-2.46h9v3.3h-8.52c-2.88,0-4.95.53-6.21,1.59-1.26,1.06-1.89,2.55-1.89,4.47s.65,3.28,1.95,4.32c1.3,1.04,3.11,1.56,5.43,1.56,1.92,0,3.57-.39,4.95-1.17s2.43-1.93,3.15-3.45c.72-1.52,1.08-3.4,1.08-5.64h2.1c0,4.08-.97,7.36-2.91,9.84-1.94,2.48-4.65,3.72-8.13,3.72ZM202.46,510.92l-.3-4.5v-11.58c0-2.56-.29-4.67-.87-6.33-.58-1.66-1.48-2.91-2.7-3.75-1.22-.84-2.81-1.26-4.77-1.26-1.8,0-3.31.36-4.53,1.08-1.22.72-2.23,1.84-3.03,3.36l-3.24-1.44c.84-1.44,1.79-2.62,2.85-3.54,1.06-.92,2.25-1.61,3.57-2.07,1.32-.46,2.78-.69,4.38-.69,2.68,0,4.9.54,6.66,1.62,1.76,1.08,3.08,2.7,3.96,4.86.88,2.16,1.32,4.88,1.32,8.16v16.08h-3.3Z" style="fill: #012626;"/>
    <path d="M224.06,511.64c-2.28,0-4.24-.34-5.88-1.02-1.64-.68-2.97-1.56-3.99-2.64s-1.73-2.2-2.13-3.36l3.24-1.2c.68,1.48,1.77,2.67,3.27,3.57,1.5.9,3.11,1.35,4.83,1.35,2.12,0,3.92-.44,5.4-1.32,1.48-.88,2.22-2.12,2.22-3.72,0-1.44-.54-2.62-1.62-3.54-1.08-.92-2.68-1.66-4.8-2.22l-2.94-.78c-2.68-.72-4.75-1.77-6.21-3.15-1.46-1.38-2.19-2.93-2.19-4.65,0-2.76.91-4.91,2.73-6.45,1.82-1.54,4.57-2.31,8.25-2.31,1.72,0,3.27.25,4.65.75,1.38.5,2.56,1.21,3.54,2.13.98.92,1.71,2.02,2.19,3.3l-3.24,1.38c-.64-1.56-1.58-2.66-2.82-3.3-1.24-.64-2.86-.96-4.86-.96-2.12,0-3.79.45-5.01,1.35-1.22.9-1.83,2.17-1.83,3.81,0,.88.49,1.75,1.47,2.61.98.86,2.45,1.55,4.41,2.07l2.58.66c1.96.48,3.63,1.17,5.01,2.07,1.38.9,2.44,1.93,3.18,3.09.74,1.16,1.11,2.44,1.11,3.84,0,1.8-.46,3.35-1.38,4.65-.92,1.3-2.17,2.29-3.75,2.97-1.58.68-3.39,1.02-5.43,1.02Z" style="fill: #012626;"/>
    <path d="M243.26,523.64c-.64,0-1.4-.12-2.28-.36-.88-.24-1.9-.6-3.06-1.08l1.32-3.06c1.04.4,1.92.7,2.64.9.72.2,1.28.3,1.68.3,1.16,0,2.11-.32,2.85-.96.74-.64,1.35-1.52,1.83-2.64l3.42-8.16,11.7-27.66h3.78l-14.7,34.8c-.72,1.68-1.47,3.11-2.25,4.29-.78,1.18-1.72,2.08-2.82,2.7-1.1.62-2.47.93-4.11.93ZM250.64,510.92l-12.66-30h3.72l11.58,27.6,1.02,2.4h-3.66Z" style="fill: #012626;"/>
    <path d="M273.74,510.92v-42h3.84l15.42,22.8,15.36-22.8h3.84v42h-3.84v-35.64l-15.42,22.98-15.36-22.86v35.52h-3.84Z" style="fill: #012626;"/>
    <path d="M335.66,511.64c-2.88,0-5.43-.67-7.65-2.01-2.22-1.34-3.96-3.19-5.22-5.55-1.26-2.36-1.89-5.08-1.89-8.16s.62-5.8,1.86-8.16c1.24-2.36,2.97-4.21,5.19-5.55,2.22-1.34,4.75-2.01,7.59-2.01s5.43.67,7.65,2.01c2.22,1.34,3.95,3.19,5.19,5.55,1.24,2.36,1.86,5.08,1.86,8.16s-.62,5.8-1.86,8.16c-1.24,2.36-2.96,4.21-5.16,5.55-2.2,1.34-4.72,2.01-7.56,2.01ZM335.66,508.34c2.16,0,4.06-.53,5.7-1.59,1.64-1.06,2.93-2.52,3.87-4.38.94-1.86,1.41-4.01,1.41-6.45s-.47-4.59-1.41-6.45c-.94-1.86-2.25-3.32-3.93-4.38-1.68-1.06-3.6-1.59-5.76-1.59s-4.07.53-5.73,1.59c-1.66,1.06-2.96,2.52-3.9,4.38-.94,1.86-1.41,4.01-1.41,6.45s.48,4.59,1.44,6.45c.96,1.86,2.28,3.32,3.96,4.38,1.68,1.06,3.6,1.59,5.76,1.59Z" style="fill: #012626;"/>
    <path d="M370.4,511.64c-2.88,0-5.43-.67-7.65-2.01-2.22-1.34-3.96-3.19-5.22-5.55-1.26-2.36-1.89-5.08-1.89-8.16s.62-5.8,1.86-8.16c1.24-2.36,2.97-4.21,5.19-5.55,2.22-1.34,4.75-2.01,7.59-2.01s5.36.63,7.56,1.89c2.2,1.26,3.9,3.01,5.1,5.25l-3.12,1.68c-.92-1.72-2.21-3.07-3.87-4.05-1.66-.98-3.55-1.47-5.67-1.47s-4.07.53-5.73,1.59c-1.66,1.06-2.96,2.52-3.9,4.38-.94,1.86-1.41,4.01-1.41,6.45s.48,4.59,1.44,6.45c.96,1.86,2.28,3.32,3.96,4.38,1.68,1.06,3.6,1.59,5.76,1.59s4.08-.55,5.76-1.65c1.68-1.1,2.96-2.63,3.84-4.59l3.18,1.68c-1.2,2.44-2.91,4.36-5.13,5.76-2.22,1.4-4.77,2.1-7.65,2.1Z" style="fill: #012626;"/>
    <path d="M389.78,510.92v-42h3.6v42h-3.6ZM393.38,500.48l-2.46-2.46,16.26-17.1h4.68l-18.48,19.56ZM408.56,510.92l-11.94-18.24,2.34-2.58,14.22,20.82h-4.62Z" style="fill: #012626;"/>
    <path d="M434.78,473.12c-.64,0-1.2-.24-1.68-.72s-.72-1.04-.72-1.68c0-.68.24-1.25.72-1.71.48-.46,1.04-.69,1.68-.69.68,0,1.25.23,1.71.69.46.46.69,1.03.69,1.71,0,.64-.23,1.2-.69,1.68-.46.48-1.03.72-1.71.72ZM432.92,510.92v-30h3.6v30h-3.6Z" style="fill: #012626;"/>
    <path d="M456.07,511.64c-2.28,0-4.24-.34-5.88-1.02-1.64-.68-2.97-1.56-3.99-2.64s-1.73-2.2-2.13-3.36l3.24-1.2c.68,1.48,1.77,2.67,3.27,3.57,1.5.9,3.11,1.35,4.83,1.35,2.12,0,3.92-.44,5.4-1.32,1.48-.88,2.22-2.12,2.22-3.72,0-1.44-.54-2.62-1.62-3.54-1.08-.92-2.68-1.66-4.8-2.22l-2.94-.78c-2.68-.72-4.75-1.77-6.21-3.15-1.46-1.38-2.19-2.93-2.19-4.65,0-2.76.91-4.91,2.73-6.45,1.82-1.54,4.57-2.31,8.25-2.31,1.72,0,3.27.25,4.65.75,1.38.5,2.56,1.21,3.54,2.13.98.92,1.71,2.02,2.19,3.3l-3.24,1.38c-.64-1.56-1.58-2.66-2.82-3.3-1.24-.64-2.86-.96-4.86-.96-2.12,0-3.79.45-5.01,1.35-1.22.9-1.83,2.17-1.83,3.81,0,.88.49,1.75,1.47,2.61.98.86,2.45,1.55,4.41,2.07l2.58.66c1.96.48,3.63,1.17,5.01,2.07,1.38.9,2.44,1.93,3.18,3.09.74,1.16,1.11,2.44,1.11,3.84,0,1.8-.46,3.35-1.38,4.65-.92,1.3-2.17,2.29-3.75,2.97-1.58.68-3.39,1.02-5.43,1.02Z" style="fill: #012626;"/>
    <path d="M498.25,511.64c-3.52,0-6.27-.81-8.25-2.43s-2.97-3.87-2.97-6.75.99-5.26,2.97-6.9c1.98-1.64,4.73-2.46,8.25-2.46h9v3.3h-8.52c-2.88,0-4.95.53-6.21,1.59-1.26,1.06-1.89,2.55-1.89,4.47s.65,3.28,1.95,4.32c1.3,1.04,3.11,1.56,5.43,1.56,1.92,0,3.57-.39,4.95-1.17s2.43-1.93,3.15-3.45c.72-1.52,1.08-3.4,1.08-5.64h2.1c0,4.08-.97,7.36-2.91,9.84-1.94,2.48-4.65,3.72-8.13,3.72ZM507.49,510.92l-.3-4.5v-11.58c0-2.56-.29-4.67-.87-6.33-.58-1.66-1.48-2.91-2.7-3.75-1.22-.84-2.81-1.26-4.77-1.26-1.8,0-3.31.36-4.53,1.08-1.22.72-2.23,1.84-3.03,3.36l-3.24-1.44c.84-1.44,1.79-2.62,2.85-3.54,1.06-.92,2.25-1.61,3.57-2.07,1.32-.46,2.78-.69,4.38-.69,2.68,0,4.9.54,6.66,1.62,1.76,1.08,3.08,2.7,3.96,4.86.88,2.16,1.32,4.88,1.32,8.16v16.08h-3.3Z" style="fill: #012626;"/>
    <path d="M552.73,511.64c-3.96,0-7.47-.93-10.53-2.79-3.06-1.86-5.46-4.42-7.2-7.68-1.74-3.26-2.61-7.01-2.61-11.25s.86-7.99,2.58-11.25c1.72-3.26,4.1-5.82,7.14-7.68,3.04-1.86,6.52-2.79,10.44-2.79,2.36,0,4.67.43,6.93,1.29,2.26.86,4.31,2.06,6.15,3.6,1.84,1.54,3.26,3.31,4.26,5.31l-3.18,1.98c-.84-1.72-2.01-3.23-3.51-4.53-1.5-1.3-3.17-2.32-5.01-3.06-1.84-.74-3.72-1.11-5.64-1.11-3.16,0-5.97.78-8.43,2.34s-4.39,3.71-5.79,6.45c-1.4,2.74-2.1,5.89-2.1,9.45s.7,6.78,2.1,9.54c1.4,2.76,3.35,4.92,5.85,6.48,2.5,1.56,5.35,2.34,8.55,2.34,1.96,0,3.86-.41,5.7-1.23,1.84-.82,3.51-1.95,5.01-3.39,1.5-1.44,2.67-3.08,3.51-4.92l3.18,1.98c-1.04,2.12-2.47,4.01-4.29,5.67-1.82,1.66-3.87,2.95-6.15,3.87-2.28.92-4.6,1.38-6.96,1.38Z" style="fill: #012626;"/>
    <path d="M589.99,511.64c-2.88,0-5.43-.67-7.65-2.01-2.22-1.34-3.96-3.19-5.22-5.55-1.26-2.36-1.89-5.08-1.89-8.16s.62-5.8,1.86-8.16c1.24-2.36,2.97-4.21,5.19-5.55,2.22-1.34,4.75-2.01,7.59-2.01s5.43.67,7.65,2.01c2.22,1.34,3.95,3.19,5.19,5.55,1.24,2.36,1.86,5.08,1.86,8.16s-.62,5.8-1.86,8.16c-1.24,2.36-2.96,4.21-5.16,5.55-2.2,1.34-4.72,2.01-7.56,2.01ZM589.99,508.34c2.16,0,4.06-.53,5.7-1.59,1.64-1.06,2.93-2.52,3.87-4.38.94-1.86,1.41-4.01,1.41-6.45s-.47-4.59-1.41-6.45c-.94-1.86-2.25-3.32-3.93-4.38-1.68-1.06-3.6-1.59-5.76-1.59s-4.07.53-5.73,1.59c-1.66,1.06-2.96,2.52-3.9,4.38-.94,1.86-1.41,4.01-1.41,6.45s.48,4.59,1.44,6.45c.96,1.86,2.28,3.32,3.96,4.38,1.68,1.06,3.6,1.59,5.76,1.59Z" style="fill: #012626;"/>
    <path d="M611.77,510.92v-30h3.36l.18,4.32c.92-1.64,2.11-2.89,3.57-3.75,1.46-.86,3.17-1.29,5.13-1.29,2.36,0,4.4.57,6.12,1.71,1.72,1.14,2.96,2.89,3.72,5.25.84-2.24,2.07-3.96,3.69-5.16,1.62-1.2,3.59-1.8,5.91-1.8,3.28,0,5.91,1.12,7.89,3.36,1.98,2.24,2.95,5.64,2.91,10.2v17.16h-3.6v-15.36c0-3.32-.35-5.84-1.05-7.56-.7-1.72-1.63-2.89-2.79-3.51-1.16-.62-2.48-.93-3.96-.93-2.52,0-4.49,1.05-5.91,3.15-1.42,2.1-2.13,5.03-2.13,8.79v15.42h-3.6v-15.36c0-3.32-.35-5.84-1.05-7.56-.7-1.72-1.63-2.89-2.79-3.51-1.16-.62-2.48-.93-3.96-.93-2.52,0-4.49,1.05-5.91,3.15-1.42,2.1-2.13,5.03-2.13,8.79v15.42h-3.6Z" style="fill: #012626;"/>
    <path d="M662.35,510.92v-30h3.36l.18,4.32c.92-1.64,2.11-2.89,3.57-3.75,1.46-.86,3.17-1.29,5.13-1.29,2.36,0,4.4.57,6.12,1.71,1.72,1.14,2.96,2.89,3.72,5.25.84-2.24,2.07-3.96,3.69-5.16,1.62-1.2,3.59-1.8,5.91-1.8,3.28,0,5.91,1.12,7.89,3.36,1.98,2.24,2.95,5.64,2.91,10.2v17.16h-3.6v-15.36c0-3.32-.35-5.84-1.05-7.56-.7-1.72-1.63-2.89-2.79-3.51-1.16-.62-2.48-.93-3.96-.93-2.52,0-4.49,1.05-5.91,3.15-1.42,2.1-2.13,5.03-2.13,8.79v15.42h-3.6v-15.36c0-3.32-.35-5.84-1.05-7.56-.7-1.72-1.63-2.89-2.79-3.51-1.16-.62-2.48-.93-3.96-.93-2.52,0-4.49,1.05-5.91,3.15-1.42,2.1-2.13,5.03-2.13,8.79v15.42h-3.6Z" style="fill: #012626;"/>
    <path d="M725.89,511.64c-2.88,0-5.43-.67-7.65-2.01-2.22-1.34-3.96-3.19-5.22-5.55-1.26-2.36-1.89-5.08-1.89-8.16s.62-5.8,1.86-8.16c1.24-2.36,2.97-4.21,5.19-5.55,2.22-1.34,4.75-2.01,7.59-2.01s5.43.67,7.65,2.01c2.22,1.34,3.95,3.19,5.19,5.55,1.24,2.36,1.86,5.08,1.86,8.16s-.62,5.8-1.86,8.16c-1.24,2.36-2.96,4.21-5.16,5.55-2.2,1.34-4.72,2.01-7.56,2.01ZM725.89,508.34c2.16,0,4.06-.53,5.7-1.59,1.64-1.06,2.93-2.52,3.87-4.38.94-1.86,1.41-4.01,1.41-6.45s-.47-4.59-1.41-6.45c-.94-1.86-2.25-3.32-3.93-4.38-1.68-1.06-3.6-1.59-5.76-1.59s-4.07.53-5.73,1.59c-1.66,1.06-2.96,2.52-3.9,4.38-.94,1.86-1.41,4.01-1.41,6.45s.48,4.59,1.44,6.45c.96,1.86,2.28,3.32,3.96,4.38,1.68,1.06,3.6,1.59,5.76,1.59Z" style="fill: #012626;"/>
    <path d="M747.67,510.92v-30h3.36l.24,5.52v24.48h-3.6ZM769.21,495.56c0-3.32-.39-5.84-1.17-7.56-.78-1.72-1.84-2.89-3.18-3.51-1.34-.62-2.85-.93-4.53-.93-2.84,0-5.06,1.05-6.66,3.15-1.6,2.1-2.4,5.03-2.4,8.79h-2.22c0-3.2.46-5.94,1.38-8.22.92-2.28,2.27-4.03,4.05-5.25,1.78-1.22,3.95-1.83,6.51-1.83,2.32,0,4.37.47,6.15,1.41,1.78.94,3.18,2.43,4.2,4.47s1.51,4.74,1.47,8.1v1.38h-3.6ZM769.21,510.92v-15.36h3.6v15.36h-3.6Z" style="fill: #012626;"/>
    <path d="M780.91,510.92v-42h3.6v42h-3.6ZM802.45,495.56c0-3.32-.39-5.84-1.17-7.56-.78-1.72-1.84-2.89-3.18-3.51-1.34-.62-2.85-.93-4.53-.93-2.84,0-5.06,1.05-6.66,3.15-1.6,2.1-2.4,5.03-2.4,8.79h-2.22c0-3.2.46-5.94,1.38-8.22.92-2.28,2.27-4.03,4.05-5.25,1.78-1.22,3.95-1.83,6.51-1.83,2.32,0,4.37.47,6.15,1.41,1.78.94,3.18,2.43,4.2,4.47s1.51,4.74,1.47,8.1v1.38h-3.6ZM802.45,510.92v-15.36h3.6v15.36h-3.6Z" style="fill: #012626;"/>
    <path d="M823.57,511.64c-3.52,0-6.27-.81-8.25-2.43s-2.97-3.87-2.97-6.75.99-5.26,2.97-6.9c1.98-1.64,4.73-2.46,8.25-2.46h9v3.3h-8.52c-2.88,0-4.95.53-6.21,1.59-1.26,1.06-1.89,2.55-1.89,4.47s.65,3.28,1.95,4.32c1.3,1.04,3.11,1.56,5.43,1.56,1.92,0,3.57-.39,4.95-1.17s2.43-1.93,3.15-3.45c.72-1.52,1.08-3.4,1.08-5.64h2.1c0,4.08-.97,7.36-2.91,9.84-1.94,2.48-4.65,3.72-8.13,3.72ZM832.81,510.92l-.3-4.5v-11.58c0-2.56-.29-4.67-.87-6.33-.58-1.66-1.48-2.91-2.7-3.75-1.22-.84-2.81-1.26-4.77-1.26-1.8,0-3.31.36-4.53,1.08-1.22.72-2.23,1.84-3.03,3.36l-3.24-1.44c.84-1.44,1.79-2.62,2.85-3.54,1.06-.92,2.25-1.61,3.57-2.07,1.32-.46,2.78-.69,4.38-.69,2.68,0,4.9.54,6.66,1.62,1.76,1.08,3.08,2.7,3.96,4.86.88,2.16,1.32,4.88,1.32,8.16v16.08h-3.3Z" style="fill: #012626;"/>
    <path d="M843.31,496.28v-15.36h3.6v15.36h-3.6ZM846.91,496.28c0,3.32.39,5.84,1.17,7.56.78,1.72,1.85,2.89,3.21,3.51,1.36.62,2.86.93,4.5.93,2.84,0,5.06-1.05,6.66-3.15,1.6-2.1,2.4-5.03,2.4-8.79h2.22c0,3.2-.46,5.94-1.38,8.22-.92,2.28-2.26,4.03-4.02,5.25-1.76,1.22-3.94,1.83-6.54,1.83-2.28,0-4.32-.47-6.12-1.41-1.8-.94-3.2-2.44-4.2-4.5-1-2.06-1.5-4.75-1.5-8.07v-1.38h3.6ZM865.09,510.92l-.24-5.52v-24.48h3.6v30h-3.36Z" style="fill: #012626;"/>
    <path d="M887.65,511.64c-2.28,0-4.24-.34-5.88-1.02-1.64-.68-2.97-1.56-3.99-2.64s-1.73-2.2-2.13-3.36l3.24-1.2c.68,1.48,1.77,2.67,3.27,3.57,1.5.9,3.11,1.35,4.83,1.35,2.12,0,3.92-.44,5.4-1.32,1.48-.88,2.22-2.12,2.22-3.72,0-1.44-.54-2.62-1.62-3.54-1.08-.92-2.68-1.66-4.8-2.22l-2.94-.78c-2.68-.72-4.75-1.77-6.21-3.15-1.46-1.38-2.19-2.93-2.19-4.65,0-2.76.91-4.91,2.73-6.45,1.82-1.54,4.57-2.31,8.25-2.31,1.72,0,3.27.25,4.65.75,1.38.5,2.56,1.21,3.54,2.13.98.92,1.71,2.02,2.19,3.3l-3.24,1.38c-.64-1.56-1.58-2.66-2.82-3.3-1.24-.64-2.86-.96-4.86-.96-2.12,0-3.79.45-5.01,1.35-1.22.9-1.83,2.17-1.83,3.81,0,.88.49,1.75,1.47,2.61.98.86,2.45,1.55,4.41,2.07l2.58.66c1.96.48,3.63,1.17,5.01,2.07,1.38.9,2.44,1.93,3.18,3.09.74,1.16,1.11,2.44,1.11,3.84,0,1.8-.46,3.35-1.38,4.65-.92,1.3-2.17,2.29-3.75,2.97-1.58.68-3.39,1.02-5.43,1.02Z" style="fill: #012626;"/>
    <path d="M921.91,510.92v-42h24.18v3.48h-20.34v16.02h18.3v3.48h-18.3v19.02h-3.84Z" style="fill: #012626;"/>
    <path d="M965.41,511.64c-2.88,0-5.43-.67-7.65-2.01-2.22-1.34-3.96-3.19-5.22-5.55-1.26-2.36-1.89-5.08-1.89-8.16s.62-5.8,1.86-8.16c1.24-2.36,2.97-4.21,5.19-5.55,2.22-1.34,4.75-2.01,7.59-2.01s5.43.67,7.65,2.01c2.22,1.34,3.95,3.19,5.19,5.55,1.24,2.36,1.86,5.08,1.86,8.16s-.62,5.8-1.86,8.16c-1.24,2.36-2.96,4.21-5.16,5.55-2.2,1.34-4.72,2.01-7.56,2.01ZM965.41,508.34c2.16,0,4.06-.53,5.7-1.59,1.64-1.06,2.93-2.52,3.87-4.38.94-1.86,1.41-4.01,1.41-6.45s-.47-4.59-1.41-6.45c-.94-1.86-2.25-3.32-3.93-4.38-1.68-1.06-3.6-1.59-5.76-1.59s-4.07.53-5.73,1.59c-1.66,1.06-2.96,2.52-3.9,4.38-.94,1.86-1.41,4.01-1.41,6.45s.48,4.59,1.44,6.45c.96,1.86,2.28,3.32,3.96,4.38,1.68,1.06,3.6,1.59,5.76,1.59Z" style="fill: #012626;"/>
    <path d="M986.29,496.28v-15.36h3.6v15.36h-3.6ZM989.89,496.28c0,3.32.39,5.84,1.17,7.56.78,1.72,1.85,2.89,3.21,3.51,1.36.62,2.86.93,4.5.93,2.84,0,5.06-1.05,6.66-3.15,1.6-2.1,2.4-5.03,2.4-8.79h2.22c0,3.2-.46,5.94-1.38,8.22-.92,2.28-2.26,4.03-4.02,5.25-1.76,1.22-3.94,1.83-6.54,1.83-2.28,0-4.32-.47-6.12-1.41-1.8-.94-3.2-2.44-4.2-4.5-1-2.06-1.5-4.75-1.5-8.07v-1.38h3.6ZM1008.07,510.92l-.24-5.52v-24.48h3.6v30h-3.36Z" style="fill: #012626;"/>
    <path d="M1020.43,510.92v-30h3.36l.24,5.52v24.48h-3.6ZM1041.97,495.56c0-3.32-.39-5.84-1.17-7.56-.78-1.72-1.84-2.89-3.18-3.51-1.34-.62-2.85-.93-4.53-.93-2.84,0-5.06,1.05-6.66,3.15-1.6,2.1-2.4,5.03-2.4,8.79h-2.22c0-3.2.46-5.94,1.38-8.22.92-2.28,2.27-4.03,4.05-5.25,1.78-1.22,3.95-1.83,6.51-1.83,2.32,0,4.37.47,6.15,1.41,1.78.94,3.18,2.43,4.2,4.47s1.51,4.74,1.47,8.1v1.38h-3.6ZM1041.97,510.92v-15.36h3.6v15.36h-3.6Z" style="fill: #012626;"/>
    <path d="M1065.42,511.64c-2.64,0-4.98-.67-7.02-2.01-2.04-1.34-3.64-3.2-4.8-5.58-1.16-2.38-1.74-5.09-1.74-8.13s.58-5.8,1.74-8.16c1.16-2.36,2.76-4.21,4.8-5.55,2.04-1.34,4.38-2.01,7.02-2.01s4.81.67,6.75,2.01c1.94,1.34,3.46,3.19,4.56,5.55,1.1,2.36,1.65,5.08,1.65,8.16s-.55,5.75-1.65,8.13c-1.1,2.38-2.62,4.24-4.56,5.58-1.94,1.34-4.19,2.01-6.75,2.01ZM1066.14,508.4c1.92,0,3.62-.53,5.1-1.59,1.48-1.06,2.64-2.53,3.48-4.41.84-1.88,1.26-4.04,1.26-6.48s-.42-4.6-1.26-6.48c-.84-1.88-2-3.35-3.48-4.41-1.48-1.06-3.2-1.59-5.16-1.59-2.08,0-3.92.53-5.52,1.59-1.6,1.06-2.85,2.53-3.75,4.41-.9,1.88-1.35,4.04-1.35,6.48s.46,4.6,1.38,6.48c.92,1.88,2.18,3.35,3.78,4.41,1.6,1.06,3.44,1.59,5.52,1.59ZM1076.16,510.92l-.18-5.58v-36.42h3.6v42h-3.42Z" style="fill: #012626;"/>
    <path d="M1098,511.64c-3.52,0-6.27-.81-8.25-2.43s-2.97-3.87-2.97-6.75.99-5.26,2.97-6.9c1.98-1.64,4.73-2.46,8.25-2.46h9v3.3h-8.52c-2.88,0-4.95.53-6.21,1.59-1.26,1.06-1.89,2.55-1.89,4.47s.65,3.28,1.95,4.32c1.3,1.04,3.11,1.56,5.43,1.56,1.92,0,3.57-.39,4.95-1.17s2.43-1.93,3.15-3.45c.72-1.52,1.08-3.4,1.08-5.64h2.1c0,4.08-.97,7.36-2.91,9.84-1.94,2.48-4.65,3.72-8.13,3.72ZM1107.24,510.92l-.3-4.5v-11.58c0-2.56-.29-4.67-.87-6.33-.58-1.66-1.48-2.91-2.7-3.75-1.22-.84-2.81-1.26-4.77-1.26-1.8,0-3.31.36-4.53,1.08-1.22.72-2.23,1.84-3.03,3.36l-3.24-1.44c.84-1.44,1.79-2.62,2.85-3.54,1.06-.92,2.25-1.61,3.57-2.07,1.32-.46,2.78-.69,4.38-.69,2.68,0,4.9.54,6.66,1.62,1.76,1.08,3.08,2.7,3.96,4.86.88,2.16,1.32,4.88,1.32,8.16v16.08h-3.3Z" style="fill: #012626;"/>
    <path d="M1115.34,484.22v-3.3h18.48v3.3h-18.48ZM1129.5,511.64c-2.76,0-4.92-.73-6.48-2.19-1.56-1.46-2.34-3.53-2.34-6.21v-31.68h3.6v31.68c0,1.6.46,2.85,1.38,3.75.92.9,2.2,1.35,3.84,1.35.48,0,.95-.07,1.41-.21.46-.14,1.13-.51,2.01-1.11l1.5,3.12c-1.08.64-1.98,1.05-2.7,1.23-.72.18-1.46.27-2.22.27Z" style="fill: #012626;"/>
    <path d="M1142.82,473.12c-.64,0-1.2-.24-1.68-.72s-.72-1.04-.72-1.68c0-.68.24-1.25.72-1.71.48-.46,1.04-.69,1.68-.69.68,0,1.25.23,1.71.69.46.46.69,1.03.69,1.71,0,.64-.23,1.2-.69,1.68-.46.48-1.03.72-1.71.72ZM1140.96,510.92v-30h3.6v30h-3.6Z" style="fill: #012626;"/>
    <path d="M1166.88,511.64c-2.88,0-5.43-.67-7.65-2.01-2.22-1.34-3.96-3.19-5.22-5.55-1.26-2.36-1.89-5.08-1.89-8.16s.62-5.8,1.86-8.16c1.24-2.36,2.97-4.21,5.19-5.55,2.22-1.34,4.75-2.01,7.59-2.01s5.43.67,7.65,2.01c2.22,1.34,3.95,3.19,5.19,5.55,1.24,2.36,1.86,5.08,1.86,8.16s-.62,5.8-1.86,8.16c-1.24,2.36-2.96,4.21-5.16,5.55-2.2,1.34-4.72,2.01-7.56,2.01ZM1166.88,508.34c2.16,0,4.06-.53,5.7-1.59,1.64-1.06,2.93-2.52,3.87-4.38.94-1.86,1.41-4.01,1.41-6.45s-.47-4.59-1.41-6.45c-.94-1.86-2.25-3.32-3.93-4.38-1.68-1.06-3.6-1.59-5.76-1.59s-4.07.53-5.73,1.59c-1.66,1.06-2.96,2.52-3.9,4.38-.94,1.86-1.41,4.01-1.41,6.45s.48,4.59,1.44,6.45c.96,1.86,2.28,3.32,3.96,4.38,1.68,1.06,3.6,1.59,5.76,1.59Z" style="fill: #012626;"/>
    <path d="M1188.66,510.92v-30h3.36l.24,5.52v24.48h-3.6ZM1210.2,495.56c0-3.32-.39-5.84-1.17-7.56-.78-1.72-1.84-2.89-3.18-3.51-1.34-.62-2.85-.93-4.53-.93-2.84,0-5.06,1.05-6.66,3.15-1.6,2.1-2.4,5.03-2.4,8.79h-2.22c0-3.2.46-5.94,1.38-8.22.92-2.28,2.27-4.03,4.05-5.25,1.78-1.22,3.95-1.83,6.51-1.83,2.32,0,4.37.47,6.15,1.41,1.78.94,3.18,2.43,4.2,4.47s1.51,4.74,1.47,8.1v1.38h-3.6ZM1210.2,510.92v-15.36h3.6v15.36h-3.6Z" style="fill: #012626;"/>
    <path d="M1237.2,522.92v-42h3.36l.24,5.52v36.48h-3.6ZM1251.36,511.64c-2.52,0-4.76-.67-6.72-2.01-1.96-1.34-3.49-3.2-4.59-5.58-1.1-2.38-1.65-5.09-1.65-8.13s.55-5.8,1.65-8.16c1.1-2.36,2.63-4.21,4.59-5.55,1.96-1.34,4.2-2.01,6.72-2.01s4.98.67,7.02,2.01c2.04,1.34,3.64,3.19,4.8,5.55,1.16,2.36,1.74,5.08,1.74,8.16s-.58,5.75-1.74,8.13c-1.16,2.38-2.76,4.24-4.8,5.58s-4.38,2.01-7.02,2.01ZM1250.64,508.4c2.08,0,3.92-.53,5.52-1.59,1.6-1.06,2.86-2.53,3.78-4.41.92-1.88,1.38-4.04,1.38-6.48s-.45-4.6-1.35-6.48c-.9-1.88-2.15-3.35-3.75-4.41-1.6-1.06-3.44-1.59-5.52-1.59-1.92,0-3.63.53-5.13,1.59-1.5,1.06-2.67,2.53-3.51,4.41-.84,1.88-1.26,4.04-1.26,6.48s.42,4.6,1.26,6.48c.84,1.88,2,3.35,3.48,4.41,1.48,1.06,3.18,1.59,5.1,1.59Z" style="fill: #012626;"/>
    <path d="M1272.12,510.92v-30h3.6v30h-3.6ZM1273.62,494.48c0-3.24.61-5.86,1.83-7.86,1.22-2,2.8-3.47,4.74-4.41,1.94-.94,3.99-1.41,6.15-1.41v3.3c-1.76,0-3.45.31-5.07.93-1.62.62-2.95,1.66-3.99,3.12-1.04,1.46-1.56,3.45-1.56,5.97l-2.1.36Z" style="fill: #012626;"/>
    <path d="M1304.4,511.64c-2.88,0-5.43-.67-7.65-2.01-2.22-1.34-3.96-3.19-5.22-5.55-1.26-2.36-1.89-5.08-1.89-8.16s.62-5.8,1.86-8.16c1.24-2.36,2.97-4.21,5.19-5.55,2.22-1.34,4.75-2.01,7.59-2.01s5.43.67,7.65,2.01c2.22,1.34,3.95,3.19,5.19,5.55,1.24,2.36,1.86,5.08,1.86,8.16s-.62,5.8-1.86,8.16c-1.24,2.36-2.96,4.21-5.16,5.55-2.2,1.34-4.72,2.01-7.56,2.01ZM1304.4,508.34c2.16,0,4.06-.53,5.7-1.59,1.64-1.06,2.93-2.52,3.87-4.38.94-1.86,1.41-4.01,1.41-6.45s-.47-4.59-1.41-6.45c-.94-1.86-2.25-3.32-3.93-4.38-1.68-1.06-3.6-1.59-5.76-1.59s-4.07.53-5.73,1.59c-1.66,1.06-2.96,2.52-3.9,4.38-.94,1.86-1.41,4.01-1.41,6.45s.48,4.59,1.44,6.45c.96,1.86,2.28,3.32,3.96,4.38,1.68,1.06,3.6,1.59,5.76,1.59Z" style="fill: #012626;"/>
    <path d="M1324.02,523.82c-1.2,0-2.98-.48-5.34-1.44l1.32-3.06c1.04.4,1.92.7,2.64.9.72.2,1.28.3,1.68.3,3.04,0,4.56-1.94,4.56-5.82v-33.78h3.6v33.78c0,3.04-.7,5.32-2.1,6.84-1.4,1.52-3.52,2.28-6.36,2.28ZM1330.68,473c-.64,0-1.2-.24-1.68-.72s-.72-1.04-.72-1.68c0-.68.24-1.25.72-1.71.48-.46,1.04-.69,1.68-.69.68,0,1.25.23,1.71.69.46.46.69,1.03.69,1.71,0,.64-.23,1.2-.69,1.68-.46.48-1.03.72-1.71.72Z" style="fill: #012626;"/>
    <path d="M1354.74,511.64c-2.88,0-5.43-.67-7.65-2.01-2.22-1.34-3.96-3.19-5.22-5.55-1.26-2.36-1.89-5.08-1.89-8.16s.62-5.8,1.86-8.16c1.24-2.36,2.95-4.21,5.13-5.55,2.18-1.34,4.67-2.01,7.47-2.01s5.25.69,7.23,2.07,3.49,3.28,4.53,5.7c1.04,2.42,1.56,5.21,1.56,8.37h-25.62l1.38-1.14c0,2.76.46,5.12,1.38,7.08.92,1.96,2.23,3.46,3.93,4.5,1.7,1.04,3.67,1.56,5.91,1.56s4.29-.57,5.91-1.71,2.89-2.61,3.81-4.41l3,1.86c-.76,1.48-1.75,2.79-2.97,3.93-1.22,1.14-2.65,2.03-4.29,2.67-1.64.64-3.46.96-5.46.96ZM1343.82,494.12l-1.5-1.08h23.1l-1.5,1.14c0-2.12-.39-3.98-1.17-5.58-.78-1.6-1.87-2.85-3.27-3.75-1.4-.9-3.08-1.35-5.04-1.35s-3.69.45-5.31,1.35c-1.62.9-2.91,2.14-3.87,3.72-.96,1.58-1.44,3.43-1.44,5.55Z" style="fill: #012626;"/>
    <path d="M1387.32,511.64c-2.88,0-5.43-.67-7.65-2.01-2.22-1.34-3.96-3.19-5.22-5.55-1.26-2.36-1.89-5.08-1.89-8.16s.62-5.8,1.86-8.16c1.24-2.36,2.97-4.21,5.19-5.55,2.22-1.34,4.75-2.01,7.59-2.01s5.36.63,7.56,1.89c2.2,1.26,3.9,3.01,5.1,5.25l-3.12,1.68c-.92-1.72-2.21-3.07-3.87-4.05-1.66-.98-3.55-1.47-5.67-1.47s-4.07.53-5.73,1.59c-1.66,1.06-2.96,2.52-3.9,4.38-.94,1.86-1.41,4.01-1.41,6.45s.48,4.59,1.44,6.45c.96,1.86,2.28,3.32,3.96,4.38,1.68,1.06,3.6,1.59,5.76,1.59s4.08-.55,5.76-1.65c1.68-1.1,2.96-2.63,3.84-4.59l3.18,1.68c-1.2,2.44-2.91,4.36-5.13,5.76-2.22,1.4-4.77,2.1-7.65,2.1Z" style="fill: #012626;"/>
    <path d="M1403.4,484.22v-3.3h18.48v3.3h-18.48ZM1417.56,511.64c-2.76,0-4.92-.73-6.48-2.19-1.56-1.46-2.34-3.53-2.34-6.21v-31.68h3.6v31.68c0,1.6.46,2.85,1.38,3.75.92.9,2.2,1.35,3.84,1.35.48,0,.95-.07,1.41-.21.46-.14,1.13-.51,2.01-1.11l1.5,3.12c-1.08.64-1.98,1.05-2.7,1.23-.72.18-1.46.27-2.22.27Z" style="fill: #012626;"/>
  </g>
</svg>