<?xml version="1.0" encoding="UTF-8"?>
<svg id="Layer_1" data-name="Layer 1" xmlns="http://www.w3.org/2000/svg" viewBox="0 0 1024 1024">
  <defs>
    <style>
      .cls-1 {
        fill: #fff;
      }

      .cls-2 {
        fill: #5c584a;
      }
    </style>
  </defs>
  <path class="cls-2" d="M895.98,534.01l83.68-122.63-55.87-29.09L654,42.87l-91.79,73.19,84.86,106.93c-34.58-12.67-70.13-20.69-106.21-23.28l-192.32-96.88-52.97,104.96,53.65,27.15c-60.08,27.75-114.05,71.29-154.62,129.59-.12.19-151.28,234.45-151.28,234.46l86.61,47.47c34.26,216.1,222.26,326.59,381.9,326.59h.19c122.54,0,242.82-57.62,317.89-165.95,46.79-67.54,69.48-144.54,69.48-220.82,0-17.48-1.15-34.99-3.37-52.15,0-.03,0-.09-.03-.12Z"/>
  <path class="cls-1" d="M654,42.87l269.79,339.42,55.87,29.09-83.68,122.63s.03.09.03.12c2.22,17.17,3.37,34.68,3.37,52.15,0,76.28-22.69,153.28-69.48,220.82-75.06,108.33-195.35,165.95-317.89,165.95h-.19c-159.64,0-347.64-110.49-381.9-326.59l-86.61-47.47s151.16-234.27,151.28-234.46c40.57-58.3,94.54-101.84,154.62-129.59l-53.65-27.15,52.96-104.96,192.32,96.88c36.08,2.59,71.63,10.61,106.21,23.28l-84.86-106.93,91.79-73.19M658.3,5l-21.09,16.82-112.8,89.94,51.51,64.9c-9.24-1.46-18.46-2.59-27.67-3.38l-211.64-106.61-77.21,153,31.87,16.13c-46.66,29.36-87.15,67.89-118.79,113.35,0,0-167.49,259.53-167.5,259.54l100.62,55.16c19.09,100.98,71.4,186.62,151.85,248.32,72.77,55.81,165.48,87.82,254.36,87.82,136.07,0,263.18-66.37,340.21-177.54,89.92-129.77,74.14-260.03,71.87-281.59l95.09-139.35-77.69-40.45L675.08,26.11l-16.78-21.11h0Z"/>
  <path class="cls-1" d="M860.4,586.29c0,68.66-20.32,137.74-62.67,198.5-72.73,104.36-184.73,149.13-285.89,149.13-68.54,0-137.7-20.13-198.47-62.33-15.48-10.8-29.81-22.66-42.98-35.42,17.76,2.03,161.18,22.59,275.44-95.66,20.94,12.64,39.26,18.1,40.42,18.38l10.46-37.73s-64.02-20.31-69.35-61.89l-38.58,6.27c3.43,21.16,13.61,37.8,25.87,50.72-7.51,7.59-77.67,83.08-202.53,83.08-23.86,0-78.27-9.22-82.55-10.39-25.69-35.83-44.01-75.87-54.59-117.76l36.36,19.91,19.01-34.36-131.24-71.94,127.93-198.41c43.32-61.52,102.81-104.9,168.45-128.28h.03l403.69,203.37-79.62,123.03,98.56,63.58,42.26-61.92v.12Z"/>
  <path class="cls-2" d="M381.89,577.89c-59.78-22.3-70.92-66.92-89.28-93.91,1.77,37.22,24.84,103.8,74.64,122.27,49.97,18.92,111-16.12,136.79-43.05-31.5,7.89-68.89,34.53-122.15,14.69Z"/>
</svg>